<?xml version="1.0" encoding="UTF-8"?>
<svg width="250px" height="24px" viewBox="0 0 250 24" version="1.1" xmlns="http://www.w3.org/2000/svg" xmlns:xlink="http://www.w3.org/1999/xlink">
    <title>NeuroCabinet</title>


    <g id="Open-Health-Imaging-Foundation" stroke="none" stroke-width="1" fill="none" fill-rule="evenodd">
        <g id="Group-6" transform="translate(1.000000, 0.000000)" fill="#FFFFFF" fill-rule="nonzero">
            <g id="Group-5" transform="translate(0.000000, -0.000000)">
                <path d="M21.2307692,0 L16.2352941,0 C14.7058902,0 13.4660633,1.23982685 13.4660633,2.76923077 L13.4660633,7.76470588 C13.4660633,9.2941098 14.7058902,10.5339367 16.2352941,10.5339367 L21.2307692,10.5339367 C22.7601732,10.5339367 24,9.2941098 24,7.76470588 L24,2.76923077 C24,1.23982685 22.7601732,0 21.2307692,0 Z M16.2352941,1.10769231 L21.2307692,1.10769231 C22.1484116,1.10769231 22.8923077,1.85158842 22.8923077,2.76923077 L22.8923077,7.76470588 C22.8923077,8.68234824 22.1484116,9.42624434 21.2307692,9.42624434 L16.2352941,9.42624434 C15.3176518,9.42624434 14.5737557,8.68234824 14.5737557,7.76470588 L14.5737557,2.76923077 C14.5737557,1.85158842 15.3176518,1.10769231 16.2352941,1.10769231 Z" id="Rectangle"></path>
                <path d="M7.76470588,0 L2.76923077,0 C1.23982685,0 0,1.23982685 0,2.76923077 L0,7.76470588 C0,9.2941098 1.23982685,10.5339367 2.76923077,10.5339367 L7.76470588,10.5339367 C9.2941098,10.5339367 10.5339367,9.2941098 10.5339367,7.76470588 L10.5339367,2.76923077 C10.5339367,1.23982685 9.2941098,0 7.76470588,0 Z M2.76923077,1.10769231 L7.76470588,1.10769231 C8.68234824,1.10769231 9.42624434,1.85158842 9.42624434,2.76923077 L9.42624434,7.76470588 C9.42624434,8.68234824 8.68234824,9.42624434 7.76470588,9.42624434 L2.76923077,9.42624434 C1.85158842,9.42624434 1.10769231,8.68234824 1.10769231,7.76470588 L1.10769231,2.76923077 C1.10769231,1.85158842 1.85158842,1.10769231 2.76923077,1.10769231 Z" id="Rectangle"></path>
                <path d="M21.2307692,13.4660633 L16.2352941,13.4660633 C14.7058902,13.4660633 13.4660633,14.7058902 13.4660633,16.2352941 L13.4660633,21.2307692 C13.4660633,22.7601732 14.7058902,24 16.2352941,24 L21.2307692,24 C22.7601732,24 24,22.7601732 24,21.2307692 L24,16.2352941 C24,14.7058902 22.7601732,13.4660633 21.2307692,13.4660633 Z M16.2352941,14.5737557 L21.2307692,14.5737557 C22.1484116,14.5737557 22.8923077,15.3176518 22.8923077,16.2352941 L22.8923077,21.2307692 C22.8923077,22.1484116 22.1484116,22.8923077 21.2307692,22.8923077 L16.2352941,22.8923077 C15.3176518,22.8923077 14.5737557,22.1484116 14.5737557,21.2307692 L14.5737557,16.2352941 C14.5737557,15.3176518 15.3176518,14.5737557 16.2352941,14.5737557 Z" id="Rectangle"></path>
                <path d="M7.76470588,13.4660633 L2.76923077,13.4660633 C1.23982685,13.4660633 0,14.7058902 0,16.2352941 L0,21.2307692 C0,22.7601732 1.23982685,24 2.76923077,24 L7.76470588,24 C9.2941098,24 10.5339367,22.7601732 10.5339367,21.2307692 L10.5339367,16.2352941 C10.5339367,14.7058902 9.2941098,13.4660633 7.76470588,13.4660633 Z M2.76923077,14.5737557 L7.76470588,14.5737557 C8.68234824,14.5737557 9.42624434,15.3176518 9.42624434,16.2352941 L9.42624434,21.2307692 C9.42624434,22.1484116 8.68234824,22.8923077 7.76470588,22.8923077 L2.76923077,22.8923077 C1.85158842,22.8923077 1.10769231,22.1484116 1.10769231,21.2307692 L1.10769231,16.2352941 C1.10769231,15.3176518 1.85158842,14.5737557 2.76923077,14.5737557 Z" id="Rectangle"></path>
            </g>

            <text x="30" y="18">NeuroCabinet</text>
        </g>
    </g>
</svg>
