<?xml version="1.0" encoding="UTF-8"?>
<svg width="250px" height="24px" viewBox="0 0 250 24" version="1.1" xmlns="http://www.w3.org/2000/svg" xmlns:xlink="http://www.w3.org/1999/xlink">
    <title>Open Health Imaging Foundation</title>
    <g id="Open-Health-Imaging-Foundation" stroke="none" stroke-width="1" fill="none" fill-rule="evenodd">
        <g id="Group-6" transform="translate(1.000000, 0.000000)" fill="#FFFFFF" fill-rule="nonzero">
            <g id="Group-2" transform="translate(31.404013, 3.539799)">
                <path d="M5.304586,14.0730008 C7.89749931,14.0730008 9.77785629,12.0738844 9.77785629,8.86738093 C9.77785629,5.66087746 7.89749931,3.66176109 5.304586,3.66176109 C2.7116727,3.66176109 0.831315717,5.66087746 0.831315717,8.86738093 C0.831315717,12.0738844 2.7116727,14.0730008 5.304586,14.0730008 Z M5.304586,12.9249934 C3.46381549,12.9249934 2.0189096,11.4998807 2.0189096,8.86738093 C2.0189096,6.23488116 3.46381549,4.80976851 5.304586,4.80976851 C7.14535652,4.80976851 8.59026241,6.23488116 8.59026241,8.86738093 C8.59026241,11.4998807 7.14535652,12.9249934 5.304586,12.9249934 Z M12.8458173,16.7846735 L12.8458173,12.7666475 L12.9447834,12.7666475 C13.2020954,13.1823054 13.6969262,14.092794 15.1616253,14.092794 C17.0617755,14.092794 18.387922,12.5687152 18.387922,10.153941 C18.387922,7.75895998 17.0617755,6.23488116 15.1418321,6.23488116 C13.6573398,6.23488116 13.2020954,7.14536981 12.9447834,7.54123443 L12.8062308,7.54123443 L12.8062308,6.33384732 L11.6780166,6.33384732 L11.6780166,16.7846735 L12.8458173,16.7846735 Z M15.0032795,13.0437527 C13.5979601,13.0437527 12.826024,11.8561589 12.826024,10.1341477 C12.826024,8.43192984 13.5781668,7.28392243 15.0032795,7.28392243 C16.4877718,7.28392243 17.2201214,8.530896 17.2201214,10.1341477 C17.2201214,11.7571927 16.4679786,13.0437527 15.0032795,13.0437527 Z M23.3560312,14.092794 C24.8999033,14.092794 26.0281174,13.320858 26.3843956,12.1728506 L25.2561814,11.8561589 C24.959283,12.6478881 24.2714682,13.0437527 23.3560312,13.0437527 C21.9853499,13.0437527 21.0402231,12.1580056 20.9857918,10.5300124 L26.503155,10.5300124 L26.503155,10.0351816 C26.503155,7.2047495 24.8207303,6.23488116 23.2372718,6.23488116 C21.1787758,6.23488116 19.8130428,7.85792614 19.8130428,10.1935274 C19.8130428,12.5291287 21.1589825,14.092794 23.3560312,14.092794 Z M25.3155611,9.52055757 L20.9857918,9.52055757 C21.0649647,8.337912 21.9012287,7.28392243 23.2372718,7.28392243 C24.5040386,7.28392243 25.3155611,8.23399753 25.3155611,9.52055757 Z M29.4523542,13.9344482 L29.4523542,9.36221172 C29.4523542,8.03606522 30.2737733,7.28392243 31.3920909,7.28392243 C32.4757703,7.28392243 33.1338952,7.99153045 33.1338952,9.18407264 L33.1338952,13.9344482 L34.3016959,13.9344482 L34.3016959,9.10489971 C34.3016959,7.16516304 33.2674995,6.23488116 31.7285758,6.23488116 C30.5805684,6.23488116 29.8680121,6.74950518 29.5117339,7.5214412 L29.4127677,7.5214412 L29.4127677,6.33384732 L28.2845536,6.33384732 L28.2845536,13.9344482 L29.4523542,13.9344482 Z M41.7439624,13.9344482 L41.7439624,9.40179818 L47.1475145,9.40179818 L47.1475145,13.9344482 L48.3746949,13.9344482 L48.3746949,3.80031371 L47.1475145,3.80031371 L47.1475145,8.31317046 L41.7439624,8.31317046 L41.7439624,3.80031371 L40.516782,3.80031371 L40.516782,13.9344482 L41.7439624,13.9344482 Z M53.8574298,14.092794 C55.4013019,14.092794 56.529516,13.320858 56.8857942,12.1728506 L55.75758,11.8561589 C55.4606816,12.6478881 54.7728668,13.0437527 53.8574298,13.0437527 C52.4867485,13.0437527 51.5416217,12.1580056 51.4871904,10.5300124 L57.0045536,10.5300124 L57.0045536,10.0351816 C57.0045536,7.2047495 55.3221289,6.23488116 53.7386704,6.23488116 C51.6801744,6.23488116 50.3144414,7.85792614 50.3144414,10.1935274 C50.3144414,12.5291287 51.6603811,14.092794 53.8574298,14.092794 Z M55.8169597,9.52055757 L51.4871904,9.52055757 C51.5663633,8.337912 52.4026273,7.28392243 53.7386704,7.28392243 C55.0054372,7.28392243 55.8169597,8.23399753 55.8169597,9.52055757 Z M61.0225873,14.1125872 C62.3487338,14.1125872 63.0414969,13.4000309 63.2790157,12.9052001 L63.3383954,12.9052001 L63.3383954,13.9344482 L64.506196,13.9344482 L64.506196,8.92676063 C64.506196,6.5119864 62.6654255,6.23488116 61.6955572,6.23488116 C60.5475497,6.23488116 59.2411965,6.63074579 58.6473995,8.01627199 L59.7558205,8.41213661 C60.0131325,7.85792614 60.6217744,7.2641292 61.7351436,7.2641292 C62.8089264,7.2641292 63.3383954,7.8331846 63.3383954,8.80800124 L63.3383954,8.8475877 C63.3383954,9.4116948 62.7643917,9.36221172 61.3788655,9.5403508 C59.9685977,9.72343819 58.429674,10.0351816 58.429674,11.7769859 C58.429674,13.2614783 59.5776814,14.1125872 61.0225873,14.1125872 Z M61.2007264,13.063546 C60.2704445,13.063546 59.5974746,12.6478881 59.5974746,11.8363656 C59.5974746,10.9456702 60.4089971,10.668565 61.3194858,10.5498056 C61.8143166,10.4904259 63.1404631,10.3518733 63.3383954,10.1143545 L63.3383954,11.183189 C63.3383954,12.1332641 62.5862526,13.063546 61.2007264,13.063546 Z M67.8116731,13.9344482 L67.8116731,3.80031371 L66.6438725,3.80031371 L66.6438725,13.9344482 L67.8116731,13.9344482 Z M72.5224654,14.0334143 C72.9579165,14.0334143 73.2350217,13.9542414 73.3933675,13.8948617 L73.1558488,12.8458204 C73.0568826,12.8656137 72.8985368,12.9052001 72.6412248,12.9052001 C72.1266007,12.9052001 71.63177,12.7468543 71.63177,11.7571927 L71.63177,7.32350889 L73.2548149,7.32350889 L73.2548149,6.33384732 L71.63177,6.33384732 L71.63177,4.51287004 L70.4639693,4.51287004 L70.4639693,6.33384732 L69.3159619,6.33384732 L69.3159619,7.32350889 L70.4639693,7.32350889 L70.4639693,12.0738844 C70.4639693,13.4000309 71.5328038,14.0334143 72.5224654,14.0334143 Z M76.184218,13.9344482 L76.184218,9.36221172 C76.184218,8.03606522 77.0303786,7.28392243 78.1833344,7.28392243 C79.2818587,7.28392243 79.944932,7.97668552 79.944932,9.18407264 L79.944932,13.9344482 L81.1127326,13.9344482 L81.1127326,9.10489971 C81.1127326,7.15031811 80.073588,6.23488116 78.5198193,6.23488116 C77.3223288,6.23488116 76.6394623,6.73466026 76.2831842,7.5214412 L76.184218,7.5214412 L76.184218,3.80031371 L75.0164173,3.80031371 L75.0164173,13.9344482 L76.184218,13.9344482 Z M88.5549992,13.9344482 L88.5549992,3.80031371 L87.3278188,3.80031371 L87.3278188,13.9344482 L88.5549992,13.9344482 Z M92.0188182,13.9344482 L92.0188182,9.18407264 C92.0188182,8.07070337 92.8303407,7.28392243 93.7408293,7.28392243 C94.6265764,7.28392243 95.2451149,7.86287444 95.2451149,8.72882832 L95.2451149,13.9344482 L96.4327088,13.9344482 L96.4327088,8.98614032 C96.4327088,8.00637537 97.0462989,7.28392243 98.1151334,7.28392243 C98.9464492,7.28392243 99.6590055,7.72432182 99.6590055,8.8475877 L99.6590055,13.9344482 L100.826806,13.9344482 L100.826806,8.8475877 C100.826806,7.06124857 99.8668344,6.23488116 98.5109981,6.23488116 C97.4223703,6.23488116 96.6256928,6.73466026 96.2347765,7.5214412 L96.1556035,7.5214412 C95.7795321,6.70991872 95.1164589,6.23488116 94.1169007,6.23488116 C93.1272391,6.23488116 92.3948896,6.70991872 92.0781979,7.5214412 L91.9792317,7.5214412 L91.9792317,6.33384732 L90.8510175,6.33384732 L90.8510175,13.9344482 L92.0188182,13.9344482 Z M105.201122,14.1125872 C106.527268,14.1125872 107.220031,13.4000309 107.45755,12.9052001 L107.51693,12.9052001 L107.51693,13.9344482 L108.684731,13.9344482 L108.684731,8.92676063 C108.684731,6.5119864 106.84396,6.23488116 105.874092,6.23488116 C104.726084,6.23488116 103.419731,6.63074579 102.825934,8.01627199 L103.934355,8.41213661 C104.191667,7.85792614 104.800309,7.2641292 105.913678,7.2641292 C106.987461,7.2641292 107.51693,7.8331846 107.51693,8.80800124 L107.51693,8.8475877 C107.51693,9.4116948 106.942926,9.36221172 105.5574,9.5403508 C104.147132,9.72343819 102.608209,10.0351816 102.608209,11.7769859 C102.608209,13.2614783 103.756216,14.1125872 105.201122,14.1125872 Z M105.379261,13.063546 C104.448979,13.063546 103.776009,12.6478881 103.776009,11.8363656 C103.776009,10.9456702 104.587532,10.668565 105.49802,10.5498056 C105.992851,10.4904259 107.318998,10.3518733 107.51693,10.1143545 L107.51693,11.183189 C107.51693,12.1332641 106.764787,13.063546 105.379261,13.063546 Z M113.890358,16.9430193 C115.711335,16.9430193 117.176034,16.1117036 117.176034,14.1521737 L117.176034,6.33384732 L116.04782,6.33384732 L116.04782,7.54123443 L115.929061,7.54123443 C115.671749,7.14536981 115.196711,6.23488116 113.712219,6.23488116 C111.792275,6.23488116 110.466129,7.75895998 110.466129,10.0945613 C110.466129,12.469749 111.851655,13.8156888 113.692426,13.8156888 C115.176918,13.8156888 115.651955,12.9447866 115.909267,12.5291287 L116.008234,12.5291287 L116.008234,14.0730008 C116.008234,15.3397676 115.117538,15.9137713 113.890358,15.9137713 C112.50978,15.9137713 112.024846,15.18637 111.713102,14.7657639 L110.782821,15.4189405 C111.257858,16.2156181 112.193088,16.9430193 113.890358,16.9430193 Z M113.850771,12.7666475 C112.386072,12.7666475 111.633929,11.6582266 111.633929,10.074768 C111.633929,8.530896 112.366279,7.28392243 113.850771,7.28392243 C115.275884,7.28392243 116.028027,8.43192984 116.028027,10.074768 C116.028027,11.7571927 115.256091,12.7666475 113.850771,12.7666475 Z M119.907508,5.06708051 C120.362753,5.06708051 120.738824,4.71080235 120.738824,4.27535126 C120.738824,3.83990017 120.362753,3.48362201 119.907508,3.48362201 C119.452264,3.48362201 119.076193,3.83990017 119.076193,4.27535126 C119.076193,4.71080235 119.452264,5.06708051 119.907508,5.06708051 Z M120.481512,13.9344482 L120.481512,6.33384732 L119.313711,6.33384732 L119.313711,13.9344482 L120.481512,13.9344482 Z M123.786985,13.9344482 L123.786985,9.36221172 C123.786985,8.03606522 124.608404,7.28392243 125.726721,7.28392243 C126.810401,7.28392243 127.468526,7.99153045 127.468526,9.18407264 L127.468526,13.9344482 L128.636326,13.9344482 L128.636326,9.10489971 C128.636326,7.16516304 127.60213,6.23488116 126.063206,6.23488116 C124.915199,6.23488116 124.202643,6.74950518 123.846364,7.5214412 L123.747398,7.5214412 L123.747398,6.33384732 L122.619184,6.33384732 L122.619184,13.9344482 L123.786985,13.9344482 Z M133.841954,16.9430193 C135.662931,16.9430193 137.127631,16.1117036 137.127631,14.1521737 L137.127631,6.33384732 L135.999416,6.33384732 L135.999416,7.54123443 L135.880657,7.54123443 C135.623345,7.14536981 135.148307,6.23488116 133.663815,6.23488116 C131.743872,6.23488116 130.417725,7.75895998 130.417725,10.0945613 C130.417725,12.469749 131.803251,13.8156888 133.644022,13.8156888 C135.128514,13.8156888 135.603552,12.9447866 135.860864,12.5291287 L135.95983,12.5291287 L135.95983,14.0730008 C135.95983,15.3397676 135.069134,15.9137713 133.841954,15.9137713 C132.461376,15.9137713 131.976442,15.18637 131.664699,14.7657639 L130.734417,15.4189405 C131.209454,16.2156181 132.144685,16.9430193 133.841954,16.9430193 Z M133.802368,12.7666475 C132.337669,12.7666475 131.585526,11.6582266 131.585526,10.074768 C131.585526,8.530896 132.317875,7.28392243 133.802368,7.28392243 C135.22748,7.28392243 135.979623,8.43192984 135.979623,10.074768 C135.979623,11.7571927 135.207687,12.7666475 133.802368,12.7666475 Z M144.569897,13.9344482 L144.569897,9.40179818 L148.963995,9.40179818 L148.963995,8.31317046 L144.569897,8.31317046 L144.569897,4.88894143 L149.419239,4.88894143 L149.419239,3.80031371 L143.342717,3.80031371 L143.342717,13.9344482 L144.569897,13.9344482 Z M154.446728,14.092794 C156.505224,14.092794 157.89075,12.5291287 157.89075,10.1737342 C157.89075,7.79854644 156.505224,6.23488116 154.446728,6.23488116 C152.388232,6.23488116 151.002705,7.79854644 151.002705,10.1737342 C151.002705,12.5291287 152.388232,14.092794 154.446728,14.092794 Z M154.446728,13.0437527 C152.883062,13.0437527 152.170506,11.697813 152.170506,10.1737342 C152.170506,8.64965539 152.883062,7.28392243 154.446728,7.28392243 C156.010393,7.28392243 156.722949,8.64965539 156.722949,10.1737342 C156.722949,11.697813 156.010393,13.0437527 154.446728,13.0437527 Z M162.126509,14.0334143 C163.274517,14.0334143 164.026659,13.4198241 164.382938,12.6478881 L164.462111,12.6478881 L164.462111,13.9344482 L165.629911,13.9344482 L165.629911,6.33384732 L164.462111,6.33384732 L164.462111,10.8269108 C164.462111,12.2520235 163.373483,12.9052001 162.502581,12.9052001 C161.532712,12.9052001 160.839949,12.1926438 160.839949,11.0842228 L160.839949,6.33384732 L159.672149,6.33384732 L159.672149,11.1633958 C159.672149,13.1031324 160.701397,14.0334143 162.126509,14.0334143 Z M168.935389,13.9344482 L168.935389,9.36221172 C168.935389,8.03606522 169.756808,7.28392243 170.875125,7.28392243 C171.958805,7.28392243 172.61693,7.99153045 172.61693,9.18407264 L172.61693,13.9344482 L173.78473,13.9344482 L173.78473,9.10489971 C173.78473,7.16516304 172.750534,6.23488116 171.21161,6.23488116 C170.063603,6.23488116 169.351046,6.74950518 168.994768,7.5214412 L168.895802,7.5214412 L168.895802,6.33384732 L167.767588,6.33384732 L167.767588,13.9344482 L168.935389,13.9344482 Z M178.792426,14.092794 C180.257125,14.092794 180.751955,13.1823054 181.009267,12.7666475 L181.14782,12.7666475 L181.14782,13.9344482 L182.276034,13.9344482 L182.276034,3.80031371 L181.108234,3.80031371 L181.108234,7.54123443 L181.009267,7.54123443 C180.751955,7.14536981 180.296711,6.23488116 178.812219,6.23488116 C176.892275,6.23488116 175.566129,7.75895998 175.566129,10.153941 C175.566129,12.5687152 176.892275,14.092794 178.792426,14.092794 Z M178.950771,13.0437527 C177.486072,13.0437527 176.733929,11.7571927 176.733929,10.1341477 C176.733929,8.530896 177.466279,7.28392243 178.950771,7.28392243 C180.375884,7.28392243 181.128027,8.43192984 181.128027,10.1341477 C181.128027,11.8561589 180.356091,13.0437527 178.950771,13.0437527 Z M186.808692,14.1125872 C188.134839,14.1125872 188.827602,13.4000309 189.065121,12.9052001 L189.124501,12.9052001 L189.124501,13.9344482 L190.292301,13.9344482 L190.292301,8.92676063 C190.292301,6.5119864 188.451531,6.23488116 187.481662,6.23488116 C186.333655,6.23488116 185.027302,6.63074579 184.433505,8.01627199 L185.541926,8.41213661 C185.799238,7.85792614 186.40788,7.2641292 187.521249,7.2641292 C188.595032,7.2641292 189.124501,7.8331846 189.124501,8.80800124 L189.124501,8.8475877 C189.124501,9.4116948 188.550497,9.36221172 187.164971,9.5403508 C185.754703,9.72343819 184.215779,10.0351816 184.215779,11.7769859 C184.215779,13.2614783 185.363787,14.1125872 186.808692,14.1125872 Z M186.986832,13.063546 C186.05655,13.063546 185.38358,12.6478881 185.38358,11.8363656 C185.38358,10.9456702 186.195102,10.668565 187.105591,10.5498056 C187.600422,10.4904259 188.926568,10.3518733 189.124501,10.1143545 L189.124501,11.183189 C189.124501,12.1332641 188.372358,13.063546 186.986832,13.063546 Z M195.003098,14.0334143 C195.438549,14.0334143 195.715654,13.9542414 195.874,13.8948617 L195.636481,12.8458204 C195.537515,12.8656137 195.379169,12.9052001 195.121857,12.9052001 C194.607233,12.9052001 194.112402,12.7468543 194.112402,11.7571927 L194.112402,7.32350889 L195.735447,7.32350889 L195.735447,6.33384732 L194.112402,6.33384732 L194.112402,4.51287004 L192.944602,4.51287004 L192.944602,6.33384732 L191.796594,6.33384732 L191.796594,7.32350889 L192.944602,7.32350889 L192.944602,12.0738844 C192.944602,13.4000309 194.013436,14.0334143 195.003098,14.0334143 Z M198.090847,5.06708051 C198.546091,5.06708051 198.922162,4.71080235 198.922162,4.27535126 C198.922162,3.83990017 198.546091,3.48362201 198.090847,3.48362201 C197.635602,3.48362201 197.259531,3.83990017 197.259531,4.27535126 C197.259531,4.71080235 197.635602,5.06708051 198.090847,5.06708051 Z M198.66485,13.9344482 L198.66485,6.33384732 L197.49705,6.33384732 L197.49705,13.9344482 L198.66485,13.9344482 Z M203.890267,14.092794 C205.948763,14.092794 207.334289,12.5291287 207.334289,10.1737342 C207.334289,7.79854644 205.948763,6.23488116 203.890267,6.23488116 C201.831771,6.23488116 200.446244,7.79854644 200.446244,10.1737342 C200.446244,12.5291287 201.831771,14.092794 203.890267,14.092794 Z M203.890267,13.0437527 C202.326601,13.0437527 201.614045,11.697813 201.614045,10.1737342 C201.614045,8.64965539 202.326601,7.28392243 203.890267,7.28392243 C205.453932,7.28392243 206.166488,8.64965539 206.166488,10.1737342 C206.166488,11.697813 205.453932,13.0437527 203.890267,13.0437527 Z M210.283488,13.9344482 L210.283488,9.36221172 C210.283488,8.03606522 211.104907,7.28392243 212.223225,7.28392243 C213.306904,7.28392243 213.965029,7.99153045 213.965029,9.18407264 L213.965029,13.9344482 L215.13283,13.9344482 L215.13283,9.10489971 C215.13283,7.16516304 214.098634,6.23488116 212.55971,6.23488116 C211.411702,6.23488116 210.699146,6.74950518 210.342868,7.5214412 L210.243902,7.5214412 L210.243902,6.33384732 L209.115688,6.33384732 L209.115688,13.9344482 L210.283488,13.9344482 Z" id="OpenHealthImagingFoundation"></path>
            </g>
            <g id="Group-5" transform="translate(0.000000, -0.000000)">
                <path d="M21.2307692,0 L16.2352941,0 C14.7058902,0 13.4660633,1.23982685 13.4660633,2.76923077 L13.4660633,7.76470588 C13.4660633,9.2941098 14.7058902,10.5339367 16.2352941,10.5339367 L21.2307692,10.5339367 C22.7601732,10.5339367 24,9.2941098 24,7.76470588 L24,2.76923077 C24,1.23982685 22.7601732,0 21.2307692,0 Z M16.2352941,1.10769231 L21.2307692,1.10769231 C22.1484116,1.10769231 22.8923077,1.85158842 22.8923077,2.76923077 L22.8923077,7.76470588 C22.8923077,8.68234824 22.1484116,9.42624434 21.2307692,9.42624434 L16.2352941,9.42624434 C15.3176518,9.42624434 14.5737557,8.68234824 14.5737557,7.76470588 L14.5737557,2.76923077 C14.5737557,1.85158842 15.3176518,1.10769231 16.2352941,1.10769231 Z" id="Rectangle"></path>
                <path d="M7.76470588,0 L2.76923077,0 C1.23982685,0 0,1.23982685 0,2.76923077 L0,7.76470588 C0,9.2941098 1.23982685,10.5339367 2.76923077,10.5339367 L7.76470588,10.5339367 C9.2941098,10.5339367 10.5339367,9.2941098 10.5339367,7.76470588 L10.5339367,2.76923077 C10.5339367,1.23982685 9.2941098,0 7.76470588,0 Z M2.76923077,1.10769231 L7.76470588,1.10769231 C8.68234824,1.10769231 9.42624434,1.85158842 9.42624434,2.76923077 L9.42624434,7.76470588 C9.42624434,8.68234824 8.68234824,9.42624434 7.76470588,9.42624434 L2.76923077,9.42624434 C1.85158842,9.42624434 1.10769231,8.68234824 1.10769231,7.76470588 L1.10769231,2.76923077 C1.10769231,1.85158842 1.85158842,1.10769231 2.76923077,1.10769231 Z" id="Rectangle"></path>
                <path d="M21.2307692,13.4660633 L16.2352941,13.4660633 C14.7058902,13.4660633 13.4660633,14.7058902 13.4660633,16.2352941 L13.4660633,21.2307692 C13.4660633,22.7601732 14.7058902,24 16.2352941,24 L21.2307692,24 C22.7601732,24 24,22.7601732 24,21.2307692 L24,16.2352941 C24,14.7058902 22.7601732,13.4660633 21.2307692,13.4660633 Z M16.2352941,14.5737557 L21.2307692,14.5737557 C22.1484116,14.5737557 22.8923077,15.3176518 22.8923077,16.2352941 L22.8923077,21.2307692 C22.8923077,22.1484116 22.1484116,22.8923077 21.2307692,22.8923077 L16.2352941,22.8923077 C15.3176518,22.8923077 14.5737557,22.1484116 14.5737557,21.2307692 L14.5737557,16.2352941 C14.5737557,15.3176518 15.3176518,14.5737557 16.2352941,14.5737557 Z" id="Rectangle"></path>
                <path d="M7.76470588,13.4660633 L2.76923077,13.4660633 C1.23982685,13.4660633 0,14.7058902 0,16.2352941 L0,21.2307692 C0,22.7601732 1.23982685,24 2.76923077,24 L7.76470588,24 C9.2941098,24 10.5339367,22.7601732 10.5339367,21.2307692 L10.5339367,16.2352941 C10.5339367,14.7058902 9.2941098,13.4660633 7.76470588,13.4660633 Z M2.76923077,14.5737557 L7.76470588,14.5737557 C8.68234824,14.5737557 9.42624434,15.3176518 9.42624434,16.2352941 L9.42624434,21.2307692 C9.42624434,22.1484116 8.68234824,22.8923077 7.76470588,22.8923077 L2.76923077,22.8923077 C1.85158842,22.8923077 1.10769231,22.1484116 1.10769231,21.2307692 L1.10769231,16.2352941 C1.10769231,15.3176518 1.85158842,14.5737557 2.76923077,14.5737557 Z" id="Rectangle"></path>
            </g>
        </g>
    </g>
</svg>