<?xml version="1.0" encoding="utf-8"?>
<!-- Generator: Adobe Illustrator 23.0.5, SVG Export Plug-In . SVG Version: 6.00 Build 0)  -->
<svg version="1.1" id="Layer_1" xmlns="http://www.w3.org/2000/svg" xmlns:xlink="http://www.w3.org/1999/xlink" x="0px"
	y="0px" viewBox="0 0 981.6 283.6" style="enable-background:new 0 0 981.6 283.6;" xml:space="preserve">
	<style type="text/css">
		.st0 {
			fill: #FFFFFF;
		}

		.st1 {
			fill: #8F1A1C;
		}

		.st2 {
			enable-background: new;
		}
	</style>
	<g>
		<path class="st0" d="M948.6,171.4c-1.7,0.8-3.3,1.7-5,1.7c-48,0.1-95.9,0.1-143.9,0.1c-2.1,0-4.3,0.3-6.2-0.6
		c-3.2-1.6-4.4-4.4-1.8-8.2c2.6-3.8,4.9-8.4,6.3-12.7c1.8-5.3,5.1-6.5,9.7-6.5c32.3,0.1,64.7,0.1,97,0.1c1.8,0,3.6,0,6.2,0
		c-13-33-25.7-65.4-38.9-98.7c-8.5,20.1-16.6,39.1-24.7,58.1c-2.5,5.8-4.8,11.6-7.4,17.3c-2.4,5.4-6.4,8.4-12.5,8.3
		c-4.1-0.1-8.3,0-12.4,0c-5,0-7.5-3.8-5.6-8.5c6-14.4,12.1-28.7,18.2-43c8.2-19.3,16.5-38.5,24.5-57.9c1.8-4.4,4.1-8,7.8-10.6
		c1.3-0.9,2.8-1.4,4.3-1.4h16.8c1.6,0,3.3,0.5,4.5,1.5c3.4,2.6,5.5,6.1,7.1,10.3c17.6,45.1,35.4,90.1,53.1,135.1
		c1.4,3.5,3.1,6.9,4.6,10.3C949.8,168,949.4,169.3,948.6,171.4z" />
		<path class="st0" d="M174.9,9c2.1,0,4.1,1.2,4.9,3.2c0.8,2,0.1,4.1-2.1,7.1c-6.1,8.1-12.3,16.1-18.4,24.1
		c-11.3,14.7-22.5,29.4-33.8,44.2c-0.8,1.1-1.6,2.2-2.5,3.5c13.1,17.1,26.1,34.2,39.1,51.2c5,6.6,10.1,13.1,15,19.8
		c1.2,1.7,2.3,3.7,2.7,5.7c0.7,3.1-0.8,5.3-4,5.4c-6.1,0.2-12.3,0.5-18.4-0.2c-5.7-0.6-9.9-4.4-13.4-8.9
		c-11.8-15.5-23.6-30.9-35.4-46.4c-0.8-1.1-1.7-2.2-3-3.8c-1.2,1.4-2.2,2.6-3.2,3.8c-11.4,15-23,29.9-34.3,44.9
		c-5.5,7.3-12.1,11.5-21.5,10.6c-3.3-0.3-6.7,0-10.1-0.1c-5-0.2-6.8-3.1-4.7-7.7c0.8-1.6,1.9-3.1,3-4.6
		c36-47.1,71.9-94.2,108.2-141.2c2.9-3.8,5.2-6.5,9.1-9.5c1.4-1,3-1.6,4.7-1.6C162.5,8.7,169.2,8.9,174.9,9z" />
		<path class="st0" d="M770.4,9c2.4,0,4.7,1.4,5.6,3.6c0.8,2,0.2,3.9-2.3,7.2c-12.4,16.3-24.9,32.6-37.4,48.9
		c-5.6,7.3-11.1,14.6-16.9,22.2c5.6,7.4,11.2,14.7,16.7,21.9c12.2,15.9,24.4,31.9,36.6,47.8c0.7,0.9,1.6,1.6,1.9,2.6
		c0.7,2.4,2.2,5.4,1.3,7.1c-0.8,1.6-4.2,2.3-6.5,2.6c-3,0.4-6.1-0.1-9.2,0.1c-8.9,0.8-15.2-3.3-20.3-10.1
		c-11.3-14.9-22.7-29.7-34-44.6c-1.1-1.4-2.3-2.8-3.7-4.7c-1.2,1.5-2.3,2.7-3.3,4c-11.6,15.2-23.3,30.4-34.9,45.6
		c-5,6.5-11.1,10.3-19.6,9.7c-3.8-0.3-7.7,0.1-11.5-0.1c-4.5-0.2-6.3-2.9-4.8-7.1c0.6-1.5,1.6-3,2.6-4.3
		c36.5-47.8,73-95.7,109.8-143.4c2.5-3.3,3.7-5.5,7.3-7.9c1.7-1.2,3.8-1.8,5.9-1.8C758.4,8.7,765.6,8.9,770.4,9z" />
		<path class="st0" d="M345.1,8.9c2.3,0,4.5,1.3,5.5,3.4s0.3,4.2-2.2,7.6c-11.6,16-23.3,31.9-35,47.8c-6.9,9.4-13.9,18.7-20.5,28.2
		c-1.9,2.7-2.9,5.9-2.9,9.2c-0.3,18.7-0.1,37.4-0.1,56.1c0,9.2-3,12.1-12.1,12.1c-4.1,0-8.3,0.1-12.4,0c-5.4-0.2-9.1-3.5-9.1-8.9
		c-0.1-21.3-0.1-42.6,0-63.9c0-1.5,0.9-3.2,1.9-4.5c19-26.1,38-52.2,57.4-78.1c2.5-3.3,4.8-6,8.4-8.6c1.1-0.7,4-0.7,5.3-0.7
		C334.5,8.7,339.8,8.8,345.1,8.9z" />
		<path class="st0" d="M387.4,8.6c3.6,0,7,2.3,8,5.8c0.5,1.7,0.7,3.4,0.7,5.4c-0.1,47.6-0.1,95.3-0.1,142.9c0,8.2-2.2,10.4-10.2,10.4
		c-4.1,0-8.3,0.1-12.4,0c-4.9-0.1-7.7-2.7-8.1-7.5c-0.1-1.1,0-2.1,0-3.2c0-47.6,0-95.3-0.1-142.9c0-2,0.2-3.9,0.8-5.5
		c1.2-3.3,4.4-5.3,7.9-5.3L387.4,8.6L387.4,8.6z" />
		<path class="st0" d="M604,8.6c5.1,0,9.4,4.1,9.4,9.3c0,0.4,0,0.9,0,1.3c-0.3,3.6,0,7.4-0.1,11c-0.1,6.8-2.6,9.3-9.5,9.4
		c-5.8,0-11.6,0-17.5,0c-27.3,0-54.5,0-81.8,0c-11.5,0-12.8-1.3-12.8-13c0-2.5,0.2-4.9,0-7.4c0-0.4-0.1-0.8-0.1-1.1
		c-0.2-5.2,4.1-9.5,9.4-9.5L604,8.6L604,8.6z" />
		<path class="st0" d="M213.9,8.6c3.8,0,7.6,1.3,10.6,3.6c4,3.1,7.3,7.1,10.4,11.3c8,10.8,16.4,21.4,24.5,32.2c1,1.3,2.1,2.7,2.8,4.2
		c2.1,4.6,0.3,7.7-4.6,7.9c-5.2,0.2-10.4,0.3-15.6,0c-5.9-0.3-10.5-3.5-14-8C217.4,46.3,207,32.6,196.5,19c-1.9-2.4-2.6-4.9-1.8-7.3
		c0.6-1.8,2.3-3,4.2-3L213.9,8.6z" />
		<path class="st0" d="M650.5,8.6c0.8,0,1.5,0.2,2.2,0.5c6.6,3.3,11.1,9,15.5,14.8c7.9,10.6,16,20.9,24,31.4c1.1,1.5,2.3,2.9,3,4.6
		c2.1,4.6,0.3,7.6-4.7,7.8c-5.2,0.2-10.4,0.2-15.6-0.1c-5.7-0.3-10.3-3.3-13.7-7.6c-10.7-13.6-21.1-27.4-31.6-41.2
		c-1.5-2-2.3-3.9-2.1-5.9c0.2-2.6,2.5-4.4,5-4.4L650.5,8.6L650.5,8.6z" />
		<path class="st1" d="M52.6,8.6c0.9,0,1.8,0.2,2.7,0.5c7.2,3.2,11.9,9.1,16.5,15.3c7.9,10.7,16.2,21.1,24.2,31.8
		c1.2,1.5,2.3,3.3,2.9,5.1c1.2,3.8-0.4,5.9-4.4,6c-5.3,0.1-10.7,0.2-16.1,0c-5.4-0.2-9.7-3.1-12.9-7.1
		C54.7,46.5,44.1,32.6,33.6,18.7c-2.4-3.2-3-5.1-1.7-7.1c1.2-1.9,3.4-2.9,5.6-2.9H52.6z" />
		<path class="st0" d="M551.9,173.2c-17,0-34,0-51,0c-6.7,0-9.2-2.5-9.2-9.1c0-4.1,0-8.3,0-12.4c0.1-6.8,2.6-9.3,9.6-9.3
		c6-0.1,11.9,0,17.9,0c27.9,0,55.8,0,83.7,0c8.1,0,10.4,2.3,10.4,10.4c0,3.5,0,7.1,0,10.6c0,7.6-2.3,9.9-9.8,9.9
		C586.3,173.2,569.1,173.2,551.9,173.2z" />
		<path class="st0" d="M549.1,106.2c-15.9,0-31.9,0-47.8,0c-7.3,0-9.6-2.3-9.6-9.6c0-4.3-0.1-8.6,0-12.9c0.1-5.3,2.6-8.1,7.9-8.1
		c33.1-0.1,66.2-0.1,99.3,0c5.3,0,7.8,2.7,8,8c0.1,4.8,0.1,9.5,0,14.3c-0.1,5.8-2.7,8.3-8.6,8.3
		C581.8,106.3,565.5,106.2,549.1,106.2z" />
		<path class="st0"
			d="M443.7,173.2c-8.3,0-16.5,0-24.8,0c-5.9,0-8.7-2.8-8.8-8.7c-0.1-4.4-0.1-8.9,0-13.3c0.1-5.7,2.8-8.7,8.3-8.8
		c17-0.1,34-0.1,51,0c5.1,0,7.9,3,8.1,8.1c0.2,4.9,0.2,9.8,0,14.7c-0.2,5.4-3.1,8-8.6,8C460.5,173.2,452.1,173.2,443.7,173.2z" />
	</g>
	<g class="st2">
		<path class="st0" d="M34.4,258.1V214h13c3.9,0,7.4,0.9,10.4,2.6c3,1.7,5.4,4.2,7,7.4c1.7,3.2,2.5,6.8,2.5,11v2.2
		c0,4.2-0.8,7.9-2.5,11s-4,5.6-7.1,7.3s-6.6,2.6-10.6,2.6H34.4z M42,220.2V252h5c4,0,7.1-1.3,9.3-3.8c2.2-2.5,3.2-6.1,3.3-10.8v-2.5
		c0-4.8-1-8.4-3.1-11c-2.1-2.5-5.1-3.8-9.1-3.8H42z" />
		<path class="st0" d="M88.6,258.7c-4.7,0-8.4-1.5-11.3-4.4c-2.9-2.9-4.3-6.9-4.3-11.7v-0.9c0-3.3,0.6-6.2,1.9-8.8
		c1.3-2.6,3-4.6,5.3-6c2.3-1.4,4.8-2.2,7.6-2.2c4.5,0,7.9,1.4,10.3,4.3c2.4,2.8,3.7,6.9,3.7,12.1v3H80.3c0.2,2.7,1.1,4.8,2.7,6.4
		c1.6,1.6,3.6,2.4,6,2.4c3.4,0,6.1-1.4,8.2-4.1l4,3.8c-1.3,2-3.1,3.5-5.3,4.6C93.8,258.2,91.3,258.7,88.6,258.7z M87.7,230.6
		c-2,0-3.7,0.7-4.9,2.1c-1.2,1.4-2,3.4-2.4,5.9h14v-0.5c-0.2-2.5-0.8-4.3-2-5.6C91.4,231.3,89.8,230.6,87.7,230.6z" />
		<path class="st0" d="M116.7,217.4v8h5.8v5.5h-5.8v18.3c0,1.3,0.2,2.2,0.7,2.7c0.5,0.6,1.4,0.8,2.7,0.8c0.8,0,1.7-0.1,2.6-0.3v5.7
		c-1.7,0.5-3.3,0.7-4.8,0.7c-5.7,0-8.5-3.1-8.5-9.4v-18.6h-5.4v-5.5h5.4v-8H116.7z" />
		<path class="st0" d="M142.5,258.7c-4.7,0-8.4-1.5-11.3-4.4c-2.9-2.9-4.3-6.9-4.3-11.7v-0.9c0-3.3,0.6-6.2,1.9-8.8
		c1.3-2.6,3-4.6,5.3-6c2.3-1.4,4.8-2.2,7.6-2.2c4.5,0,7.9,1.4,10.3,4.3c2.4,2.8,3.7,6.9,3.7,12.1v3h-21.4c0.2,2.7,1.1,4.8,2.7,6.4
		c1.6,1.6,3.6,2.4,6,2.4c3.4,0,6.1-1.4,8.2-4.1l4,3.8c-1.3,2-3.1,3.5-5.3,4.6C147.7,258.2,145.3,258.7,142.5,258.7z M141.7,230.6
		c-2,0-3.7,0.7-4.9,2.1c-1.2,1.4-2,3.4-2.4,5.9h14v-0.5c-0.2-2.5-0.8-4.3-2-5.6C145.3,231.3,143.7,230.6,141.7,230.6z" />
		<path class="st0" d="M174.9,252.8c1.8,0,3.4-0.5,4.6-1.6c1.2-1.1,1.9-2.4,1.9-4h6.9c-0.1,2-0.7,3.9-1.9,5.7
		c-1.2,1.8-2.8,3.2-4.8,4.2c-2,1-4.2,1.5-6.6,1.5c-4.6,0-8.2-1.5-10.9-4.5c-2.7-3-4-7.1-4-12.3v-0.8c0-5,1.3-9,4-12
		c2.7-3,6.3-4.5,10.9-4.5c3.9,0,7.1,1.1,9.5,3.4s3.7,5.3,3.9,9h-6.9c-0.1-1.9-0.7-3.4-1.9-4.6c-1.2-1.2-2.7-1.8-4.6-1.8
		c-2.4,0-4.2,0.9-5.5,2.6c-1.3,1.7-1.9,4.3-2,7.9v1.2c0,3.6,0.6,6.2,1.9,8C170.6,252,172.5,252.8,174.9,252.8z" />
		<path class="st0" d="M203.1,217.4v8h5.8v5.5h-5.8v18.3c0,1.3,0.2,2.2,0.7,2.7c0.5,0.6,1.4,0.8,2.7,0.8c0.8,0,1.7-0.1,2.6-0.3v5.7
		c-1.7,0.5-3.3,0.7-4.8,0.7c-5.7,0-8.5-3.1-8.5-9.4v-18.6h-5.4v-5.5h5.4v-8H203.1z" />
		<path class="st0"
			d="M214.5,216.8c0-1.1,0.4-2.1,1.1-2.8c0.7-0.7,1.7-1.1,3.1-1.1s2.4,0.4,3.1,1.1s1.1,1.7,1.1,2.8
		c0,1.1-0.4,2-1.1,2.8s-1.8,1.1-3.1,1.1s-2.4-0.4-3.1-1.1C214.9,218.9,214.5,217.9,214.5,216.8z M222.4,258.1H215v-32.8h7.4V258.1z" />
		<path class="st0"
			d="M229,241.4c0-3.2,0.6-6.1,1.9-8.7s3.1-4.6,5.4-5.9c2.3-1.4,4.9-2.1,7.9-2.1c4.4,0,8,1.4,10.8,4.3
		c2.8,2.8,4.2,6.6,4.5,11.3l0,1.7c0,3.2-0.6,6.1-1.9,8.7s-3,4.5-5.3,5.9c-2.3,1.4-5,2.1-8,2.1c-4.6,0-8.3-1.5-11.1-4.6
		c-2.8-3.1-4.2-7.2-4.2-12.3V241.4z M236.4,242.1c0,3.4,0.7,6,2.1,7.9c1.4,1.9,3.3,2.9,5.8,2.9s4.4-1,5.8-2.9
		c1.4-1.9,2.1-4.8,2.1-8.5c0-3.3-0.7-5.9-2.1-7.9s-3.4-2.9-5.8-2.9c-2.4,0-4.3,1-5.7,2.9C237.1,235.4,236.4,238.3,236.4,242.1z" />
		<path class="st0" d="M272.5,225.3l0.2,3.8c2.4-2.9,5.6-4.4,9.5-4.4c6.8,0,10.3,3.9,10.4,11.7v21.7h-7.4v-21.2
		c0-2.1-0.4-3.6-1.3-4.6c-0.9-1-2.4-1.5-4.4-1.5c-3,0-5.2,1.3-6.6,4v23.3h-7.4v-32.8H272.5z" />
	</g>
	<g class="st2">
		<path class="st0" d="M371.1,241.8v16.4h-7.7V214h16.9c4.9,0,8.8,1.3,11.7,3.9c2.9,2.6,4.3,6,4.3,10.2c0,4.3-1.4,7.7-4.3,10.1
		c-2.8,2.4-6.8,3.6-11.9,3.6H371.1z M371.1,235.6h9.2c2.7,0,4.8-0.6,6.2-1.9c1.4-1.3,2.2-3.1,2.2-5.6c0-2.4-0.7-4.3-2.2-5.7
		c-1.5-1.4-3.5-2.2-6-2.2h-9.4V235.6z" />
		<path class="st0" d="M419.5,232.1c-1-0.2-2-0.2-3-0.2c-3.4,0-5.6,1.3-6.8,3.9v22.4h-7.4v-32.8h7l0.2,3.7c1.8-2.8,4.2-4.3,7.4-4.3
		c1,0,1.9,0.1,2.6,0.4L419.5,232.1z" />
		<path class="st0" d="M438,258.7c-4.7,0-8.4-1.5-11.3-4.4c-2.9-2.9-4.3-6.9-4.3-11.7v-0.9c0-3.3,0.6-6.2,1.9-8.8
		c1.3-2.6,3-4.6,5.3-6c2.3-1.4,4.8-2.2,7.6-2.2c4.5,0,7.9,1.4,10.3,4.3c2.4,2.8,3.7,6.9,3.7,12.1v3h-21.4c0.2,2.7,1.1,4.8,2.7,6.4
		c1.6,1.6,3.6,2.4,6,2.4c3.4,0,6.1-1.4,8.2-4.1l4,3.8c-1.3,2-3.1,3.5-5.3,4.6C443.2,258.2,440.7,258.7,438,258.7z M437.1,230.6
		c-2,0-3.7,0.7-4.9,2.1c-1.2,1.4-2,3.4-2.4,5.9h14v-0.5c-0.2-2.5-0.8-4.3-2-5.6C440.8,231.3,439.2,230.6,437.1,230.6z" />
		<path class="st0" d="M455.5,241.5c0-5,1.2-9.1,3.5-12.2c2.3-3.1,5.5-4.6,9.4-4.6c3.5,0,6.3,1.2,8.4,3.6v-16.8h7.4v46.5h-6.7
		l-0.4-3.4c-2.2,2.7-5.1,4-8.8,4c-3.8,0-6.9-1.5-9.3-4.6C456.7,251,455.5,246.8,455.5,241.5z M462.9,242.1c0,3.3,0.6,5.9,1.9,7.8
		c1.3,1.9,3.1,2.8,5.5,2.8c3,0,5.2-1.3,6.6-4v-14c-1.4-2.6-3.5-3.9-6.5-3.9c-2.4,0-4.2,0.9-5.5,2.8
		C463.5,235.5,462.9,238.3,462.9,242.1z" />
		<path class="st0"
			d="M491.9,216.8c0-1.1,0.4-2.1,1.1-2.8s1.7-1.1,3.1-1.1s2.4,0.4,3.1,1.1c0.7,0.7,1.1,1.7,1.1,2.8
		c0,1.1-0.4,2-1.1,2.8c-0.7,0.7-1.8,1.1-3.1,1.1s-2.4-0.4-3.1-1.1S491.9,217.9,491.9,216.8z M499.7,258.1h-7.4v-32.8h7.4V258.1z" />
		<path class="st0" d="M521.2,252.8c1.8,0,3.4-0.5,4.6-1.6c1.2-1.1,1.9-2.4,1.9-4h6.9c-0.1,2-0.7,3.9-1.9,5.7
		c-1.2,1.8-2.8,3.2-4.8,4.2s-4.2,1.5-6.6,1.5c-4.6,0-8.2-1.5-10.9-4.5c-2.7-3-4-7.1-4-12.3v-0.8c0-5,1.3-9,4-12s6.3-4.5,10.9-4.5
		c3.9,0,7.1,1.1,9.5,3.4s3.7,5.3,3.9,9h-6.9c-0.1-1.9-0.7-3.4-1.9-4.6c-1.2-1.2-2.7-1.8-4.6-1.8c-2.4,0-4.2,0.9-5.5,2.6
		c-1.3,1.7-1.9,4.3-2,7.9v1.2c0,3.6,0.6,6.2,1.9,8C516.9,252,518.8,252.8,521.2,252.8z" />
		<path class="st0" d="M549.4,217.4v8h5.8v5.5h-5.8v18.3c0,1.3,0.2,2.2,0.7,2.7c0.5,0.6,1.4,0.8,2.7,0.8c0.8,0,1.7-0.1,2.6-0.3v5.7
		c-1.7,0.5-3.3,0.7-4.8,0.7c-5.7,0-8.5-3.1-8.5-9.4v-18.6h-5.4v-5.5h5.4v-8H549.4z" />
		<path class="st0"
			d="M560.9,216.8c0-1.1,0.4-2.1,1.1-2.8s1.7-1.1,3.1-1.1s2.4,0.4,3.1,1.1c0.7,0.7,1.1,1.7,1.1,2.8
		c0,1.1-0.4,2-1.1,2.8c-0.7,0.7-1.8,1.1-3.1,1.1s-2.4-0.4-3.1-1.1S560.9,217.9,560.9,216.8z M568.7,258.1h-7.4v-32.8h7.4V258.1z" />
		<path class="st0"
			d="M575.3,241.4c0-3.2,0.6-6.1,1.9-8.7s3.1-4.6,5.4-5.9c2.3-1.4,4.9-2.1,7.9-2.1c4.4,0,8,1.4,10.8,4.3
		c2.8,2.8,4.2,6.6,4.5,11.3l0,1.7c0,3.2-0.6,6.1-1.9,8.7s-3,4.5-5.3,5.9s-5,2.1-8,2.1c-4.6,0-8.3-1.5-11.1-4.6
		c-2.8-3.1-4.2-7.2-4.2-12.3V241.4z M582.7,242.1c0,3.4,0.7,6,2.1,7.9c1.4,1.9,3.3,2.9,5.8,2.9s4.4-1,5.8-2.9
		c1.4-1.9,2.1-4.8,2.1-8.5c0-3.3-0.7-5.9-2.1-7.9s-3.4-2.9-5.8-2.9c-2.4,0-4.3,1-5.7,2.9C583.4,235.4,582.7,238.3,582.7,242.1z" />
		<path class="st0" d="M618.9,225.3l0.2,3.8c2.4-2.9,5.6-4.4,9.5-4.4c6.8,0,10.3,3.9,10.4,11.7v21.7h-7.4v-21.2
		c0-2.1-0.4-3.6-1.3-4.6c-0.9-1-2.4-1.5-4.4-1.5c-3,0-5.2,1.3-6.6,4v23.3h-7.4v-32.8H618.9z" />
	</g>
	<g class="st2">
		<path class="st0"
			d="M726,247.8h-17.1l-3.6,10.3h-8L714,214h6.9l16.7,44.1h-8L726,247.8z M711,241.7h12.8l-6.4-18.3L711,241.7z" />
		<path class="st0" d="M747.2,225.3l0.2,3.8c2.4-2.9,5.6-4.4,9.5-4.4c6.8,0,10.3,3.9,10.4,11.7v21.7H760v-21.2c0-2.1-0.4-3.6-1.3-4.6
		c-0.9-1-2.4-1.5-4.4-1.5c-3,0-5.2,1.3-6.6,4v23.3h-7.4v-32.8H747.2z" />
		<path class="st0" d="M794.5,258.1c-0.3-0.6-0.6-1.6-0.8-3.1c-2.3,2.4-5.2,3.7-8.6,3.7c-3.3,0-6-0.9-8.1-2.8c-2.1-1.9-3.1-4.2-3.1-7
		c0-3.5,1.3-6.2,3.9-8c2.6-1.9,6.3-2.8,11.1-2.8h4.5v-2.2c0-1.7-0.5-3.1-1.4-4.1c-0.9-1-2.4-1.5-4.3-1.5c-1.7,0-3.1,0.4-4.1,1.3
		s-1.6,1.9-1.6,3.2h-7.4c0-1.8,0.6-3.5,1.8-5c1.2-1.6,2.8-2.8,4.9-3.7c2-0.9,4.3-1.3,6.9-1.3c3.8,0,6.9,1,9.2,2.9
		c2.3,1.9,3.5,4.6,3.5,8.1v14.8c0,2.9,0.4,5.3,1.2,7.1v0.5H794.5z M786.4,252.8c1.5,0,2.8-0.4,4.1-1.1c1.3-0.7,2.2-1.7,2.9-2.8v-6.2
		h-4c-2.7,0-4.8,0.5-6.2,1.4c-1.4,0.9-2.1,2.3-2.1,4c0,1.4,0.5,2.5,1.4,3.4C783.6,252.4,784.8,252.8,786.4,252.8z" />
		<path class="st0" d="M816.3,258.1h-7.4v-46.5h7.4V258.1z" />
		<path class="st0" d="M835.8,247.6l6.7-22.2h7.8l-13,37.8c-2,5.5-5.4,8.3-10.2,8.3c-1.1,0-2.3-0.2-3.5-0.5v-5.7l1.4,0.1
		c1.9,0,3.3-0.3,4.2-1s1.7-1.8,2.2-3.4l1.1-2.8l-11.5-32.6h7.9L835.8,247.6z" />
		<path class="st0" d="M863.8,217.4v8h5.8v5.5h-5.8v18.3c0,1.3,0.2,2.2,0.7,2.7c0.5,0.6,1.4,0.8,2.7,0.8c0.8,0,1.7-0.1,2.6-0.3v5.7
		c-1.7,0.5-3.3,0.7-4.8,0.7c-5.7,0-8.5-3.1-8.5-9.4v-18.6H851v-5.5h5.4v-8H863.8z" />
		<path class="st0" d="M875.2,216.8c0-1.1,0.4-2.1,1.1-2.8c0.7-0.7,1.7-1.1,3.1-1.1s2.4,0.4,3.1,1.1c0.7,0.7,1.1,1.7,1.1,2.8
		c0,1.1-0.4,2-1.1,2.8c-0.7,0.7-1.8,1.1-3.1,1.1s-2.4-0.4-3.1-1.1C875.5,218.9,875.2,217.9,875.2,216.8z M883,258.1h-7.4v-32.8h7.4
		V258.1z" />
		<path class="st0" d="M904.5,252.8c1.8,0,3.4-0.5,4.6-1.6c1.2-1.1,1.9-2.4,1.9-4h6.9c-0.1,2-0.7,3.9-1.9,5.7
		c-1.2,1.8-2.8,3.2-4.8,4.2c-2,1-4.2,1.5-6.6,1.5c-4.6,0-8.2-1.5-10.9-4.5c-2.7-3-4-7.1-4-12.3v-0.8c0-5,1.3-9,4-12
		c2.7-3,6.3-4.5,10.9-4.5c3.9,0,7.1,1.1,9.5,3.4s3.7,5.3,3.9,9H911c-0.1-1.9-0.7-3.4-1.9-4.6c-1.2-1.2-2.7-1.8-4.6-1.8
		c-2.4,0-4.2,0.9-5.5,2.6c-1.3,1.7-1.9,4.3-2,7.9v1.2c0,3.6,0.6,6.2,1.9,8S902.1,252.8,904.5,252.8z" />
		<path class="st0" d="M941.9,249.2c0-1.3-0.5-2.3-1.6-3c-1.1-0.7-2.9-1.3-5.4-1.8c-2.5-0.5-4.6-1.2-6.3-2c-3.7-1.8-5.5-4.4-5.5-7.7
		c0-2.8,1.2-5.2,3.6-7.1c2.4-1.9,5.4-2.8,9.1-2.8c3.9,0,7.1,1,9.5,2.9c2.4,1.9,3.6,4.5,3.6,7.5h-7.4c0-1.4-0.5-2.6-1.6-3.5
		s-2.4-1.4-4.2-1.4c-1.6,0-2.9,0.4-4,1.1c-1,0.7-1.5,1.7-1.5,3c0,1.1,0.5,2,1.4,2.6c0.9,0.6,2.9,1.3,5.8,1.9
		c2.9,0.6,5.2,1.4,6.8,2.3c1.6,0.9,2.9,1.9,3.7,3.2s1.2,2.7,1.2,4.5c0,2.9-1.2,5.3-3.7,7.2c-2.4,1.8-5.6,2.7-9.6,2.7
		c-2.7,0-5.1-0.5-7.2-1.5c-2.1-1-3.7-2.3-4.9-4c-1.2-1.7-1.8-3.5-1.8-5.5h7.1c0.1,1.7,0.8,3.1,2,4c1.2,0.9,2.8,1.4,4.8,1.4
		c1.9,0,3.4-0.4,4.4-1.1C941.4,251.4,941.9,250.4,941.9,249.2z" />
	</g>
	<g>
		<rect x="325.5" y="214.2" class="st1" width="7" height="43.9" />
	</g>
	<g>
		<rect x="667.1" y="214.2" class="st1" width="7" height="43.9" />
	</g>
</svg>
