<svg width="25px" height="25px" viewBox="0 0 25 25" version="1.1" xmlns="http://www.w3.org/2000/svg" xmlns:xlink="http://www.w3.org/1999/xlink">
    <g id="edit-patient" stroke="currentColor" stroke-width="1" fill="none" fill-rule="evenodd" stroke-linecap="round" stroke-linejoin="round">
        <g id="Group-23" transform="translate(1.000000, 1.000000)" stroke="currentColor">
            <g id="Group-21" stroke-width="1.5">
                <path d="M2.459,13.4115596 C3.78406799,12.6432192 5.19358453,12.0307708 6.65943386,11.5864311 C7.30893749,11.3458742 7.37955258,9.85674938 6.91395858,9.34381999 C6.24195124,8.60507751 5.67237458,7.73829669 5.67237458,5.64622765 C5.59319579,4.80314387 5.87912888,3.96655091 6.45776749,3.3482978 C7.03640611,2.7300447 7.85226135,2.3894192 8.69873558,2.41267733 C9.5452098,2.3894192 10.361065,2.7300447 10.9397037,3.3482978 C11.5183423,3.96655091 11.8042754,4.80314387 11.7250966,5.64622765 C11.7250966,7.74140065 11.1555199,8.60507751 10.4835126,9.34381999 C10.0179186,9.85674938 10.0885337,11.3458742 10.7380373,11.5864311 C12.2038866,12.0307708 13.6134032,12.6432192 14.9384712,13.4115596" id="Path"></path>
                <path d="M18,11 L18,1 C18,0.44771525 17.5522847,0 17,0 L1,0 C0.44771525,0 0,0.44771525 0,1 L0,17 C0,17.5522847 0.44771525,18 1,18 L11,18" id="Path"></path>
            </g>
            <g id="Group-22" transform="translate(13.000000, 13.020297)" stroke-width="1.25">
                <path d="M3.5,8.97970257 L0,9.97970257 L1,6.47970257 L6.982,0.497702567 C7.67552478,-0.173658884 8.77933392,-0.164697523 9.46186701,0.517835561 C10.1444001,1.20036865 10.1533615,2.30417778 9.482,2.99770257 L3.5,8.97970257 Z" id="Path"></path>
                <line x1="6.232" y1="1.24770257" x2="8.732" y2="3.74770257" id="Path"></line>
                <line x1="1" y1="6.47970257" x2="3.5" y2="8.97970257" id="Path"></line>
            </g>
        </g>
    </g>
</svg>
