<?xml version="1.0" encoding="UTF-8"?>
<svg width="29px" height="18px" viewBox="0 0 29 18" version="1.1" xmlns="http://www.w3.org/2000/svg" xmlns:xlink="http://www.w3.org/1999/xlink">
    <title>layout-advanced-3d-primary</title>
    <g id="Layout-select----FINAL" stroke="none" stroke-width="1" fill="none" fill-rule="evenodd">
        <g id="layout-advanced-3d-primary" transform="translate(1, 1)" stroke="currentColor">
            <rect id="Rectangle" x="0" y="0" width="27" height="16.2" rx="2"></rect>
            <path d="M15.4285714,10.5 L27,10.5 L27,14 C27,15.1045695 26.1045695,16 25,16 L15.4285714,16 L15.4285714,16 L15.4285714,10.5 Z" id="Rectangle"></path>
            <path d="M15.4285714,0 L25,0 C26.1045695,-2.02906125e-16 27,0.8954305 27,2 L27,5.4 L27,5.4 L15.4285714,5.4 L15.4285714,0 Z" id="Rectangle"></path>
            <path d="M0,0 L14.2,0 C15.3045695,-2.02906125e-16 16.2,0.8954305 16.2,2 L16.2,14.2 C16.2,15.3045695 15.3045695,16.2 14.2,16.2 L0,16.2 L0,16.2 L0,0 Z" id="Rectangle" fill="#263A71" transform="translate(8.1, 8.1) scale(-1, 1) translate(-8.1, -8.1)"></path>
        </g>
    </g>
</svg>