<?xml version="1.0" encoding="UTF-8"?>
<svg width="28px" height="28px" viewBox="0 0 28 28" version="1.1" xmlns="http://www.w3.org/2000/svg" xmlns:xlink="http://www.w3.org/1999/xlink">
    <title>tool-flip-horizontal</title>
    <g id="tool-flip-horizontal" stroke="none" stroke-width="1" fill="none" fill-rule="evenodd">
        <rect id="Rectangle" x="0" y="0" width="28" height="28"></rect>
        <path d="M10.6315789,7.31578947 L6,7.31578947 C4.8954305,7.31578947 4,8.21121997 4,9.31578947 L4,18.5789474 C4,19.6835169 4.8954305,20.5789474 6,20.5789474 L10.6315789,20.5789474 L10.6315789,20.5789474" id="Path-2" stroke="currentColor" stroke-width="1.5" stroke-linecap="round"></path>
        <path d="M25,7.31578947 L20.3684211,7.31578947 C19.2638516,7.31578947 18.3684211,8.21121997 18.3684211,9.31578947 L18.3684211,18.5789474 C18.3684211,19.6835169 19.2638516,20.5789474 20.3684211,20.5789474 L25,20.5789474 L25,20.5789474" id="Path-2" stroke="currentColor" stroke-width="1.5" stroke-linecap="round" stroke-dasharray="1,3.1" transform="translate(21.6842, 13.9474) scale(-1, 1) translate(-21.6842, -13.9474)"></path>
        <line x1="14.5" y1="4.55263158" x2="14.5" y2="23.3421053" id="Line-3" stroke="currentColor" stroke-width="1.5" stroke-linecap="round"></line>
    </g>
</svg>