<?xml version="1.0" encoding="UTF-8"?>
<svg width="28px" height="28px" viewBox="0 0 28 28" version="1.1" xmlns="http://www.w3.org/2000/svg" xmlns:xlink="http://www.w3.org/1999/xlink">
    <title>tool-</title>
    <g id="tool-" stroke="none" stroke-width="1" fill="none" fill-rule="evenodd">
        <rect id="Rectangle" x="0" y="0" width="28" height="28"></rect>
        <path d="M8.64381845,8.55555556 C9.05021618,8.5340019 9.43897503,8.38261884 9.75292956,8.12366667 L11.6057073,6.43188889 C11.919523,6.17269999 12.308363,6.02128533 12.7148185,6 L15.6179296,6 C16.0208348,6.0234362 16.4057732,6.17472593 16.7168185,6.43188889 L18.5695962,8.12366667 C18.8835508,8.38261884 19.2723096,8.5340019 19.6787073,8.55555556 L23.1057073,8.55555556 C24.2042675,8.66849081 25.0354336,9.60050503 25.0225258,10.7047778 L25.0225258,19.4166667 C25.0225258,20.4752124 24.1642531,21.3333333 23.1057073,21.3333333 L5.21681845,21.3333333 C4.15827268,21.3333333 3.3,20.4752124 3.3,19.4166667 L3.3,10.7047778 C3.28709219,9.60050503 4.11825826,8.66849081 5.21681845,8.55555556 L8.64381845,8.55555556 Z" id="Path" stroke="currentColor" stroke-width="1.5" stroke-linecap="round" stroke-linejoin="round"></path>
        <circle id="Oval" stroke="currentColor" stroke-width="1.5" stroke-linecap="round" stroke-linejoin="round" cx="14.1612629" cy="13.9861111" r="3.51388889"></circle>
        <path d="M21.8279296,11.4305556 C22.0043539,11.4305556 22.147374,11.5735757 22.147374,11.75 C22.147374,11.9264243 22.0043539,12.0694444 21.8279296,12.0694444 C21.6515053,12.0694444 21.5084851,11.9264243 21.5084851,11.75 C21.5084851,11.5735757 21.6515053,11.4305556 21.8279296,11.4305556" id="Path" stroke="currentColor" stroke-width="1.5" stroke-linecap="round" stroke-linejoin="round"></path>
    </g>
</svg>