<svg width="25px" height="25px" viewBox="0 0 25 25" version="1.1" xmlns="http://www.w3.org/2000/svg" xmlns:xlink="http://www.w3.org/1999/xlink">
    <g id="create-threshold" stroke="currentColor" stroke-width="1" fill="none" fill-rule="evenodd">
        <polyline id="Path-3" stroke="currentColor" stroke-width="1.75" stroke-linecap="round" stroke-linejoin="round" points="18.85656 16.2174437 21.3536565 13.7203472 23.850753 16.2174437"></polyline>
        <polyline id="Path-3" stroke="currentColor" stroke-width="1.75" stroke-linecap="round" stroke-linejoin="round" transform="translate(21.353657, 21.471076) scale(1, -1) translate(-21.353657, -21.471076) " points="18.85656 22.7196245 21.3536565 20.222528 23.850753 22.7196245"></polyline>
        <path d="M21.8903104,6.56040847 L11.830485,16.6215711 C11.7372012,16.7144344 11.6185826,16.7776976 11.4894966,16.8034316 L7.65571758,17.5696525 C7.43667607,17.6132586 7.21032569,17.5446155 7.05240058,17.3866904 C6.89447547,17.2287653 6.8258324,17.0024149 6.86943853,16.7833734 L7.63565944,12.9509316 C7.66176759,12.8216917 7.72550512,12.7030561 7.81885711,12.6099433 L17.8786825,2.54878063 C18.9836118,1.44420272 20.7746834,1.44420272 21.8796127,2.54878063 L21.8903104,2.56081551 C22.9947353,3.66528595 22.9947353,5.45593803 21.8903104,6.56040847 Z" id="Path" stroke="currentColor" stroke-width="1.5" stroke-linecap="round" stroke-linejoin="round"></path>
        <line x1="9.60946699" y1="12.6534866" x2="11.9466763" y2="14.9906958" id="Line" stroke="currentColor" stroke-width="1.5" stroke-linecap="square"></line>
        <path d="M-5.52848657,13.180889 L-5.52848657,15.180889 C-5.52848657,16.7687077 -4.24130523,18.055889 -2.65348657,18.055889 L-1.21495403,18.055889 C-0.731704876,18.055889 -0.339954032,17.6641382 -0.339954032,17.180889 C-0.339954032,16.6976399 -0.731704876,16.305889 -1.21495403,16.305889 L-2.65348657,16.305889 C-3.27480692,16.305889 -3.77848657,15.8022094 -3.77848657,15.180889 L-3.77848657,13.180889 C-3.77848657,12.6976399 -4.17023742,12.305889 -4.65348657,12.305889 C-5.13673573,12.305889 -5.52848657,12.6976399 -5.52848657,13.180889 Z M3.03504597,18.055889 L9.53504597,18.055889 C10.0182951,18.055889 10.410046,17.6641382 10.410046,17.180889 C10.410046,16.6976399 10.0182951,16.305889 9.53504597,16.305889 L3.03504597,16.305889 C2.55179681,16.305889 2.16004597,16.6976399 2.16004597,17.180889 C2.16004597,17.6641382 2.55179681,18.055889 3.03504597,18.055889 Z M13.785046,18.055889 L15.180889,18.055889 C16.7687077,18.055889 18.055889,16.7687077 18.055889,15.180889 L18.055889,13.1381996 C18.055889,12.6549504 17.6641382,12.2631996 17.180889,12.2631996 C16.6976399,12.2631996 16.305889,12.6549504 16.305889,13.1381996 L16.305889,15.180889 C16.305889,15.8022094 15.8022094,16.305889 15.180889,16.305889 L13.785046,16.305889 C13.3017968,16.305889 12.910046,16.6976399 12.910046,17.180889 C12.910046,17.6641382 13.3017968,18.055889 13.785046,18.055889 Z M18.055889,8.88819957 L18.055889,6.65348657 C18.055889,6.17023742 17.6641382,5.77848657 17.180889,5.77848657 C16.6976399,5.77848657 16.305889,6.17023742 16.305889,6.65348657 L16.305889,8.88819957 C16.305889,9.37144872 16.6976399,9.76319957 17.180889,9.76319957 C17.6641382,9.76319957 18.055889,9.37144872 18.055889,8.88819957 Z" id="Path-4" fill="currentColor" fill-rule="nonzero" transform="translate(6.263701, 11.917188) scale(1, -1) rotate(90.000000) translate(-6.263701, -11.917188) "></path>
    </g>
</svg>
