<svg width="25px" height="25px" viewBox="0 0 25 25" version="1.1" xmlns="http://www.w3.org/2000/svg" xmlns:xlink="http://www.w3.org/1999/xlink">
    <g stroke="currentColor" stroke-width="1" fill="none" fill-rule="evenodd">
        <path d="M18,2 C19.1045695,2 20,2.8954305 20,4 L20.000443,11.5700239 C18.8210504,10.0206853 17.6279451,8.77097591 17.1182222,8.25530435 C16.9570959,8.09231818 16.733654,8.00006956 16.5,8.00006956 C16.266346,8.00006956 16.0429041,8.09231818 15.8817778,8.25530435 C14.719,9.43165217 10,14.4278261 10,18.0869565 C10,18.7674866 10.1126915,19.4091677 10.3210825,20.0009348 L4,20 C2.8954305,20 2,19.1045695 2,18 L2,4 C2,2.8954305 2.8954305,2 4,2 L18,2 Z" id="Combined-Shape" stroke="currentColor" stroke-width="1.75"></path>
        <g id="color-drop-pick" transform="translate(9.591386, 8.000070)" stroke="currentColor" stroke-linecap="round" stroke-linejoin="round">
            <path d="M7.52683573,0.255234787 C7.36570938,0.0922486197 7.14226748,0 6.90861351,0 C6.67495954,0 6.45151764,0.0922486197 6.29039129,0.255234787 C5.12761351,1.43158261 0.408613509,6.42775653 0.408613509,10.086887 C0.408613509,13.5449739 3.31844684,15.9999304 6.90861351,15.9999304 C10.4987802,15.9999304 13.4086135,13.5449739 13.4086135,10.086887 C13.4086135,6.42775653 8.68961351,1.43158261 7.52683573,0.255234787 Z" id="Path" stroke-width="1.75"></path>
            <g id="Group" transform="translate(7.015298, 8.975291) rotate(40.000000) translate(-7.015298, -8.975291) translate(3.731654, 1.974720)">
                <line x1="0.5" y1="12.5" x2="0.5" y2="1.56125113e-15" id="Path"></line>
                <line x1="3.420153" y1="1.25018584" x2="3.420153" y2="14.0011428" id="Path"></line>
                <line x1="6.06728889" y1="1.86765717" x2="6.06728889" y2="12.7034832" id="Path"></line>
            </g>
        </g>
    </g>
</svg>
