<svg version="1.1" id="Layer_1" xmlns="http://www.w3.org/2000/svg" xmlns:xlink="http://www.w3.org/1999/xlink" x="0px" y="0px"
	 width="100%" viewBox="0 0 237 241" enable-background="new 0 0 237 241" xml:space="preserve">
<path fill="#000000" opacity="1.000000" stroke="none" 
	d="
M145.000000,242.000000 
	C96.666672,242.000000 48.833340,242.000000 1.000006,242.000000 
	C1.000004,161.666672 1.000004,81.333351 1.000002,1.000017 
	C79.999992,1.000011 158.999985,1.000011 237.999969,1.000006 
	C237.999985,81.333321 237.999985,161.666641 238.000000,241.999969 
	C207.166672,242.000000 176.333328,242.000000 145.000000,242.000000 
M218.963028,50.196907 
	C218.302811,47.891247 217.865173,45.492130 216.943253,43.296356 
	C213.262131,34.529015 202.073578,24.071354 190.272324,24.076094 
	C142.624802,24.095226 94.977219,24.035881 47.329655,24.015162 
	C46.338017,24.014730 45.262413,23.901640 44.368042,24.229101 
	C37.670025,26.681490 32.143131,30.696686 27.307365,36.028027 
	C23.208370,40.547100 21.260857,45.964279 21.236740,51.479198 
	C20.993418,107.123238 21.098412,162.768799 21.104067,218.413925 
	C21.104853,226.144180 24.258045,228.559708 31.608072,225.911285 
	C34.477585,224.877335 36.880882,222.617401 39.638577,221.190369 
	C44.593678,218.626236 49.595100,216.131271 54.697475,213.880081 
	C57.564560,212.615082 60.668850,211.069199 63.672535,211.055832 
	C104.655922,210.873459 145.641342,210.783997 186.624023,211.035721 
	C198.538696,211.108917 207.600815,206.814819 214.683289,196.708435 
	C216.320435,192.857895 219.251343,189.044098 219.361877,185.150223 
	C219.756912,171.234863 219.078339,157.292831 219.019043,143.359970 
	C218.888000,112.572533 218.886398,81.784554 218.963028,50.196907 
z"/>
<path fill="#4DC0C0" opacity="1.000000" stroke="none" 
	d="
M213.996994,196.819901 
	C207.600815,206.814819 198.538696,211.108917 186.624023,211.035721 
	C145.641342,210.783997 104.655922,210.873459 63.672535,211.055832 
	C60.668850,211.069199 57.564560,212.615082 54.697475,213.880081 
	C49.595100,216.131271 44.593678,218.626236 39.638577,221.190369 
	C36.880882,222.617401 34.477585,224.877335 31.608072,225.911285 
	C24.258045,228.559708 21.104853,226.144180 21.104067,218.413925 
	C21.098412,162.768799 20.993418,107.123238 21.236740,51.479198 
	C21.260857,45.964279 23.208370,40.547100 27.307365,36.028027 
	C32.143131,30.696686 37.670025,26.681490 44.368042,24.229101 
	C45.262413,23.901640 46.338017,24.014730 47.329655,24.015162 
	C94.977219,24.035881 142.624802,24.095226 190.272324,24.076094 
	C202.073578,24.071354 213.262131,34.529015 216.943253,43.296356 
	C217.865173,45.492130 218.302811,47.891247 218.694946,50.955791 
	C218.288971,53.696320 218.032410,55.677868 218.030838,57.659626 
	C218.003784,91.617348 218.066986,125.575256 217.975113,159.532761 
	C217.941162,172.081909 219.566040,184.845947 213.996994,196.819901 
M178.612915,99.527245 
	C178.024521,99.316910 177.436142,99.106575 176.461868,98.810303 
	C176.211777,98.658501 176.090363,98.436363 175.975510,97.347969 
	C172.694122,92.910034 167.903870,96.012703 163.523026,94.594818 
	C162.698517,94.710846 161.874023,94.826874 160.133896,94.996956 
	C157.075516,94.978882 154.017120,94.960808 150.751709,94.776352 
	C150.484894,94.667992 150.248459,94.722916 149.158401,94.995026 
	C147.092758,94.978500 145.027100,94.961983 142.703033,94.594528 
	C142.511185,94.373238 142.291367,94.184525 142.005859,93.088158 
	C141.994797,85.110565 142.088669,77.130363 141.890976,69.157402 
	C141.847397,67.399757 140.769989,65.667755 139.857590,63.334503 
	C138.851471,62.553745 137.845337,61.772991 136.995300,60.396183 
	C136.313980,59.913181 135.636215,59.015373 134.950775,59.009480 
	C124.878105,58.922928 114.803352,58.888752 104.732368,59.048233 
	C103.554108,59.066898 102.395241,60.309467 100.948845,61.541172 
	C100.574402,62.026299 100.199951,62.511425 99.124962,63.320255 
	C98.754105,65.353416 98.150406,67.375534 98.053299,69.421692 
	C97.664391,77.615654 97.432693,85.817078 96.729103,94.264763 
	C96.463760,94.449387 96.236633,94.672852 95.338936,94.954475 
	C94.866394,94.945442 94.393852,94.936409 93.232803,94.506981 
	C86.845337,94.650177 80.457870,94.793381 73.182549,94.975761 
	C71.110168,94.970566 69.037781,94.965370 66.741249,94.792244 
	C66.451035,94.697784 66.204514,94.774139 65.673569,95.414200 
	C65.511360,96.278687 65.349159,97.143173 64.927528,98.599579 
	C64.322273,98.747879 63.717022,98.896179 62.370495,99.219810 
	C61.595062,100.910843 60.194695,102.585396 60.149612,104.295677 
	C59.923714,112.864975 59.842194,121.452263 60.193707,130.013367 
	C60.290798,132.378036 62.048824,134.674500 63.577381,137.550995 
	C65.619293,138.036011 67.654961,138.906784 69.704201,138.940018 
	C79.144386,139.093109 88.588348,139.012711 97.979660,139.022186 
	C97.979660,139.022186 97.986542,138.970993 97.822350,139.555069 
	C97.790329,139.754745 97.758316,139.954422 97.634880,140.354919 
	C97.602211,140.588608 97.682365,140.781265 97.954384,141.869080 
	C97.935410,146.274017 97.916435,150.678970 97.488068,155.772766 
	C97.627304,160.489075 97.766541,165.205383 97.974823,170.405975 
	C98.593529,170.609085 99.212242,170.812210 100.108498,171.608414 
	C100.745132,172.795776 101.381767,173.983124 102.321808,175.879700 
	C103.036011,176.227310 103.747871,176.871979 104.464775,176.877670 
	C114.271263,176.955231 124.079140,176.999603 133.884491,176.877502 
	C134.964340,176.864059 136.030746,175.772614 137.668503,174.909027 
	C138.413879,174.284592 139.159271,173.660172 140.159958,172.642349 
	C140.352829,172.390060 140.587753,172.186234 141.397476,171.375351 
	C141.600143,160.583282 141.802795,149.791199 142.942093,138.998383 
	C151.994431,138.996307 161.048935,139.095428 170.097092,138.899689 
	C171.743042,138.864090 173.362930,137.623520 175.235092,136.405396 
	C175.786469,136.246765 176.337860,136.088135 177.487396,135.829315 
	C177.995407,135.261459 178.503433,134.693588 179.445236,133.394302 
	C179.627747,125.326828 179.917160,117.259636 179.938232,109.191734 
	C179.946243,106.123131 179.337524,103.052925 179.003113,100.010910 
	C179.003113,100.010910 179.031326,100.007385 178.612915,99.527245 
z"/>
<path fill="#07AAB0" opacity="1.000000" stroke="none" 
	d="
M214.340149,196.764160 
	C219.566040,184.845947 217.941162,172.081909 217.975113,159.532761 
	C218.066986,125.575256 218.003784,91.617348 218.030838,57.659626 
	C218.032410,55.677868 218.288971,53.696320 218.629425,51.355732 
	C218.886398,81.784554 218.888000,112.572533 219.019043,143.359970 
	C219.078339,157.292831 219.756912,171.234863 219.361877,185.150223 
	C219.251343,189.044098 216.320435,192.857895 214.340149,196.764160 
z"/>
<path fill="#000000" opacity="1.000000" stroke="none" 
	d="
M139.904648,173.035736 
	C139.159271,173.660172 138.413879,174.284592 136.958878,174.986877 
	C131.307114,175.331100 126.364662,175.816589 121.422913,175.809464 
	C114.954453,175.800125 108.486549,175.401596 102.018402,175.170471 
	C101.381767,173.983124 100.745132,172.795776 100.036324,170.847687 
	C99.973679,164.628113 100.246445,159.153229 99.914940,153.715195 
	C99.614052,148.779617 98.655281,143.884140 97.986542,138.970993 
	C97.986542,138.970993 97.979660,139.022186 97.776108,138.648712 
	C91.801216,138.185944 86.026077,138.196869 80.259644,137.978104 
	C74.885757,137.774246 69.521133,137.326050 64.076523,136.579071 
	C63.331562,132.187256 62.110092,128.202011 62.108070,124.216171 
	C62.103817,115.825783 62.739006,107.435066 63.111771,99.044487 
	C63.717022,98.896179 64.322273,98.747879 65.354286,98.293701 
	C66.173485,97.934082 66.565926,97.880333 67.400955,97.893585 
	C72.917877,97.638306 77.988319,97.203911 83.067726,97.027390 
	C87.546524,96.871758 92.039116,97.098824 96.516159,96.920151 
	C97.303444,96.888733 98.044174,95.690590 98.876900,94.566650 
	C99.240105,83.733543 99.532806,73.365044 99.825500,62.996548 
	C100.199951,62.511425 100.574402,62.026299 101.531372,61.268906 
	C113.689003,60.995171 125.264107,60.993702 136.839218,60.992233 
	C137.845337,61.772991 138.851471,62.553745 139.942291,64.100464 
	C140.020096,73.651314 139.895569,82.438942 140.100815,91.218872 
	C140.144379,93.081711 141.391342,94.916412 142.537567,96.862190 
	C153.337280,97.245964 163.683243,97.531624 174.370682,97.891243 
	C175.173965,98.024765 175.635803,98.084328 176.097626,98.143890 
	C176.090363,98.436363 176.211777,98.658501 176.743103,99.158554 
	C177.077225,99.711128 177.130127,99.915443 177.106049,100.556732 
	C177.027100,102.814186 177.030273,104.634689 177.022324,106.455147 
	C176.979492,116.279945 176.933899,126.104729 176.889252,135.929504 
	C176.337860,136.088135 175.786469,136.246765 174.693619,136.719589 
	C172.246017,137.357224 170.344208,137.928253 168.432999,137.961685 
	C159.642227,138.115540 150.848801,138.119385 141.867279,138.116425 
	C141.678207,138.055817 141.297073,138.167175 140.843109,138.186172 
	C140.259369,146.411972 140.123291,154.618668 140.002823,162.825607 
	C139.952881,166.228729 139.936371,169.632339 139.904648,173.035736 
z"/>
<path fill="#14AFB3" opacity="1.000000" stroke="none" 
	d="
M142.083847,96.764076 
	C141.391342,94.916412 140.144379,93.081711 140.100815,91.218872 
	C139.895569,82.438942 140.020096,73.651314 140.097809,64.395187 
	C140.769989,65.667755 141.847397,67.399757 141.890976,69.157402 
	C142.088669,77.130363 141.994797,85.110565 142.122833,93.759964 
	C142.423615,94.682671 142.664169,94.853905 142.961456,94.945457 
	C145.027100,94.961983 147.092758,94.978500 149.829239,94.977509 
	C150.500076,94.959999 150.958740,94.942726 150.958740,94.942734 
	C154.017120,94.960808 157.075516,94.978882 160.953552,94.988243 
	C162.498413,94.966835 163.223618,94.954140 163.948822,94.941444 
	C167.903870,96.012703 172.694122,92.910034 176.036560,97.745926 
	C175.635803,98.084328 175.173965,98.024765 174.200775,97.539139 
	C163.154205,96.996750 152.619034,96.880409 142.083847,96.764076 
z"/>
<path fill="#2CB3B6" opacity="1.000000" stroke="none" 
	d="
M62.741135,99.132149 
	C62.739006,107.435066 62.103817,115.825783 62.108070,124.216171 
	C62.110092,128.202011 63.331562,132.187256 63.799465,136.585754 
	C63.413799,136.999924 63.229282,137.001099 63.044765,137.002258 
	C62.048824,134.674500 60.290798,132.378036 60.193707,130.013367 
	C59.842194,121.452263 59.923714,112.864975 60.149612,104.295677 
	C60.194695,102.585396 61.595062,100.910843 62.741135,99.132149 
z"/>
<path fill="#14AFB3" opacity="1.000000" stroke="none" 
	d="
M136.917267,60.694206 
	C125.264107,60.993702 113.689003,60.995171 101.670639,60.990646 
	C102.395241,60.309467 103.554108,59.066898 104.732368,59.048233 
	C114.803352,58.888752 124.878105,58.922928 134.950775,59.009480 
	C135.636215,59.015373 136.313980,59.913181 136.917267,60.694206 
z"/>
<path fill="#07AAB0" opacity="1.000000" stroke="none" 
	d="
M97.904449,139.263031 
	C98.655281,143.884140 99.614052,148.779617 99.914940,153.715195 
	C100.246445,159.153229 99.973679,164.628113 99.897552,170.551132 
	C99.212242,170.812210 98.593529,170.609085 97.968414,169.706558 
	C97.940483,164.366058 97.918968,159.724991 97.897461,155.083908 
	C97.916435,150.678970 97.935410,146.274017 97.899925,141.202301 
	C97.845467,140.535538 97.726295,140.154114 97.726295,140.154114 
	C97.758316,139.954422 97.790329,139.754745 97.904449,139.263031 
z"/>
<path fill="#40B6B7" opacity="1.000000" stroke="none" 
	d="
M177.188324,135.879425 
	C176.933899,126.104729 176.979492,116.279945 177.022324,106.455147 
	C177.030273,104.634689 177.027100,102.814186 177.414093,100.537766 
	C178.209854,100.057014 178.620590,100.032196 179.031326,100.007385 
	C179.031326,100.007385 179.003113,100.010910 179.003906,100.467285 
	C179.006943,111.991020 179.009186,123.058380 179.011444,134.125732 
	C178.503433,134.693588 177.995407,135.261459 177.188324,135.879425 
z"/>
<path fill="#03A7AB" opacity="1.000000" stroke="none" 
	d="
M99.475235,63.158401 
	C99.532806,73.365044 99.240105,83.733543 98.663292,94.678543 
	C97.943764,95.446289 97.508339,95.637535 97.027267,95.594414 
	C96.981613,95.360039 96.896263,94.890182 96.958672,94.671783 
	C97.021080,94.453392 97.142853,94.015747 97.142853,94.015747 
	C97.432693,85.817078 97.664391,77.615654 98.053299,69.421692 
	C98.150406,67.375534 98.754105,65.353416 99.475235,63.158401 
z"/>
<path fill="#07AAB0" opacity="1.000000" stroke="none" 
	d="
M102.170105,175.525085 
	C108.486549,175.401596 114.954453,175.800125 121.422913,175.809464 
	C126.364662,175.816589 131.307114,175.331100 136.676331,175.122955 
	C136.030746,175.772614 134.964340,176.864059 133.884491,176.877502 
	C124.079140,176.999603 114.271263,176.955231 104.464775,176.877670 
	C103.747871,176.871979 103.036011,176.227310 102.170105,175.525085 
z"/>
<path fill="#77C4C4" opacity="1.000000" stroke="none" 
	d="
M140.032303,172.839050 
	C139.936371,169.632339 139.952881,166.228729 140.002823,162.825607 
	C140.123291,154.618668 140.259369,146.411972 140.761139,138.637924 
	C141.043655,150.057419 140.954193,161.044144 140.864731,172.030884 
	C140.587753,172.186234 140.352829,172.390060 140.032303,172.839050 
z"/>
<path fill="#03A7AB" opacity="1.000000" stroke="none" 
	d="
M142.056335,138.177032 
	C150.848801,138.119385 159.642227,138.115540 168.432999,137.961685 
	C170.344208,137.928253 172.246017,137.357224 174.573486,136.986496 
	C173.362930,137.623520 171.743042,138.864090 170.097092,138.899689 
	C161.048935,139.095428 151.994431,138.996307 142.487091,138.793274 
	C142.032074,138.588181 142.056335,138.177032 142.056335,138.177032 
z"/>
<path fill="#21B2B4" opacity="1.000000" stroke="none" 
	d="
M96.896263,94.890182 
	C96.896263,94.890182 96.981613,95.360039 96.555313,95.650360 
	C88.150925,95.970848 80.170052,95.897186 72.196945,96.111931 
	C70.436638,96.159340 68.703835,97.228119 66.958366,97.826584 
	C66.565926,97.880333 66.173485,97.934082 65.483994,97.997742 
	C65.349159,97.143173 65.511360,96.278687 66.078781,95.205826 
	C66.484001,94.997459 66.965401,94.960175 66.965401,94.960175 
	C69.037781,94.965370 71.110168,94.970566 74.086662,94.971176 
	C81.300957,94.953514 87.611130,94.940445 93.921310,94.927383 
	C94.393852,94.936409 94.866394,94.945442 95.905762,94.943909 
	C96.472588,94.933334 96.896263,94.890182 96.896263,94.890182 
z"/>
<path fill="#07AAB0" opacity="1.000000" stroke="none" 
	d="
M63.311073,137.276627 
	C63.229282,137.001099 63.413799,136.999924 63.875378,136.992065 
	C69.521133,137.326050 74.885757,137.774246 80.259644,137.978104 
	C86.026077,138.196869 91.801216,138.185944 97.801758,138.645660 
	C88.588348,139.012711 79.144386,139.093109 69.704201,138.940018 
	C67.654961,138.906784 65.619293,138.036011 63.311073,137.276627 
z"/>
<path fill="#2CB3B6" opacity="1.000000" stroke="none" 
	d="
M179.228333,133.760010 
	C179.009186,123.058380 179.006943,111.991020 179.007294,100.453552 
	C179.337524,103.052925 179.946243,106.123131 179.938232,109.191734 
	C179.917160,117.259636 179.627747,125.326828 179.228333,133.760010 
z"/>
<path fill="#14AFB3" opacity="1.000000" stroke="none" 
	d="
M141.867279,138.116425 
	C142.056335,138.177032 142.032074,138.588181 142.018768,138.793655 
	C141.802795,149.791199 141.600143,160.583282 141.131104,171.703125 
	C140.954193,161.044144 141.043655,150.057419 141.215088,138.618927 
	C141.297073,138.167175 141.678207,138.055817 141.867279,138.116425 
z"/>
<path fill="#5AC1C2" opacity="1.000000" stroke="none" 
	d="
M93.577057,94.717178 
	C87.611130,94.940445 81.300957,94.953514 74.530594,94.951584 
	C80.457870,94.793381 86.845337,94.650177 93.577057,94.717178 
z"/>
<path fill="#5AC1C2" opacity="1.000000" stroke="none" 
	d="
M97.692764,155.428345 
	C97.918968,159.724991 97.940483,164.366058 97.933884,169.464417 
	C97.766541,165.205383 97.627304,160.489075 97.692764,155.428345 
z"/>
<path fill="#5AC1C2" opacity="1.000000" stroke="none" 
	d="
M163.735931,94.768127 
	C163.223618,94.954140 162.498413,94.966835 161.411362,94.961212 
	C161.874023,94.826874 162.698517,94.710846 163.735931,94.768127 
z"/>
<path fill="#14AFB3" opacity="1.000000" stroke="none" 
	d="
M178.822113,99.767319 
	C178.620590,100.032196 178.209854,100.057014 177.491089,100.100792 
	C177.130127,99.915443 177.077225,99.711128 176.936035,99.201523 
	C177.436142,99.106575 178.024521,99.316910 178.822113,99.767319 
z"/>
<path fill="#5AC1C2" opacity="1.000000" stroke="none" 
	d="
M150.855225,94.859543 
	C150.958740,94.942726 150.500076,94.959999 150.271240,94.950562 
	C150.248459,94.722916 150.484894,94.667992 150.855225,94.859543 
z"/>
<path fill="#5AC1C2" opacity="1.000000" stroke="none" 
	d="
M142.832245,94.769989 
	C142.664169,94.853905 142.423615,94.682671 142.141693,94.230072 
	C142.291367,94.184525 142.511185,94.373238 142.832245,94.769989 
z"/>
<path fill="#5AC1C2" opacity="1.000000" stroke="none" 
	d="
M96.958672,94.671783 
	C96.896263,94.890182 96.472588,94.933334 96.260155,94.934250 
	C96.236633,94.672852 96.463760,94.449387 96.935974,94.140259 
	C97.142853,94.015747 97.021080,94.453392 96.958672,94.671783 
z"/>
<path fill="#5AC1C2" opacity="1.000000" stroke="none" 
	d="
M97.680588,140.254517 
	C97.726295,140.154114 97.845467,140.535538 97.860413,140.734222 
	C97.682365,140.781265 97.602211,140.588608 97.680588,140.254517 
z"/>
<path fill="#5AC1C2" opacity="1.000000" stroke="none" 
	d="
M66.853325,94.876205 
	C66.965401,94.960175 66.484001,94.997459 66.242851,95.009384 
	C66.204514,94.774139 66.451035,94.697784 66.853325,94.876205 
z"/>
<path fill="#5AC1C2" opacity="1.000000" stroke="none" 
	d="
M142.537567,96.862190 
	C152.619034,96.880409 163.154205,96.996750 173.859314,97.465179 
	C163.683243,97.531624 153.337280,97.245964 142.537567,96.862190 
z"/>
<path fill="#5AC1C2" opacity="1.000000" stroke="none" 
	d="
M67.400955,97.893585 
	C68.703835,97.228119 70.436638,96.159340 72.196945,96.111931 
	C80.170052,95.897186 88.150925,95.970848 96.600960,95.884735 
	C97.508339,95.637535 97.943764,95.446289 98.592789,95.143158 
	C98.044174,95.690590 97.303444,96.888733 96.516159,96.920151 
	C92.039116,97.098824 87.546524,96.871758 83.067726,97.027390 
	C77.988319,97.203911 72.917877,97.638306 67.400955,97.893585 
z"/>
</svg>