<?xml version="1.0" encoding="UTF-8"?>
<svg version="1.1" xmlns="http://www.w3.org/2000/svg" width="1176" height="906">
<path d="M0 0 C388.08 0 776.16 0 1176 0 C1176 298.98 1176 597.96 1176 906 C787.92 906 399.84 906 0 906 C0 607.02 0 308.04 0 0 Z " fill="#323232" transform="translate(0,0)"/>
<path d="M0 0 C1.84526962 2.62596061 2.98375849 4.95127546 4 8 C5.31896741 8.69465617 6.65561401 9.35591264 8 10 C13.90483007 14.78427651 19.34134893 19.99279204 24 26 C24 26.66 24 27.32 24 28 C24.598125 28.28875 25.19625 28.5775 25.8125 28.875 C28 30 28 30 31 32 C31 32.66 31 33.32 31 34 C31.99 34.33 32.98 34.66 34 35 C34 35.66 34 36.32 34 37 C34.66 37 35.32 37 36 37 C36.66 38.65 37.32 40.3 38 42 C37.25556641 42.72703125 37.25556641 42.72703125 36.49609375 43.46875 C32.25064591 47.65780669 28.2468849 51.93399965 24.4453125 56.53125 C23.96835937 57.0159375 23.49140625 57.500625 23 58 C22.34 58 21.68 58 21 58 C21 58.66 21 59.32 21 60 C20.34 60 19.68 60 19 60 C18.67 60.99 18.34 61.98 18 63 C17.34 63 16.68 63 16 63 C15.62875 63.86625 15.62875 63.86625 15.25 64.75 C13.81700012 67.32939979 12.21575324 69.06121592 10 71 C9.34 71 8.68 71 8 71 C7.5978125 71.8971875 7.5978125 71.8971875 7.1875 72.8125 C6.00082594 74.99847854 4.90400887 76.41332594 3 78 C2.34 78 1.68 78 1 78 C1 78.66 1 79.32 1 80 C0.34 80 -0.32 80 -1 80 C-1.33 80.99 -1.66 81.98 -2 83 C-2.66 83 -3.32 83 -4 83 C-4 83.66 -4 84.32 -4 85 C-5.61838719 86.71358643 -7.29671681 88.3707726 -9 90 C-10.0625509 91.10411768 -11.12505115 92.20828412 -12.1875 93.3125 C-15 96 -15 96 -17 96 C-17.20625 96.53625 -17.4125 97.0725 -17.625 97.625 C-19.53250426 100.91978009 -22.04819384 103.59363628 -25 106 C-25.66 106 -26.32 106 -27 106 C-27.36254883 106.84933105 -27.36254883 106.84933105 -27.73242188 107.71582031 C-29.25095817 110.4522274 -31.07151881 112.33069338 -33.28125 114.546875 C-34.12300781 115.39121094 -34.96476562 116.23554688 -35.83203125 117.10546875 C-36.71246094 117.97816406 -37.59289062 118.85085938 -38.5 119.75 C-39.38042969 120.63816406 -40.26085937 121.52632813 -41.16796875 122.44140625 C-42.00972656 123.28058594 -42.85148437 124.11976563 -43.71875 124.984375 C-44.49154297 125.75491211 -45.26433594 126.52544922 -46.06054688 127.31933594 C-48 129 -48 129 -50 129 C-50.33 129.99 -50.66 130.98 -51 132 C-51.66 132 -52.32 132 -53 132 C-53.268125 132.598125 -53.53625 133.19625 -53.8125 133.8125 C-54.99917406 135.99847854 -56.09599113 137.41332594 -58 139 C-58.66 139 -59.32 139 -60 139 C-60.22131592 139.5480127 -60.44263184 140.09602539 -60.6706543 140.66064453 C-62.41370417 143.72802817 -64.7633143 145.99107627 -67.26953125 148.4296875 C-67.78754807 148.94250275 -68.30556488 149.45531799 -68.83927917 149.9836731 C-70.49232177 151.61895874 -72.15188886 153.24740348 -73.8125 154.875 C-75.46155562 156.49626933 -77.10906533 158.11903382 -78.75358582 159.74490356 C-79.774775 160.75401953 -80.79862348 161.76045447 -81.82563782 162.76364136 C-87.89135263 168.15692676 -87.89135263 168.15692676 -91.1875 175.0625 C-89.72125543 177.45479377 -87.81919345 178.993884 -85.62109375 180.70703125 C-83.22455517 182.61848733 -81.13612926 184.80613751 -79 187 C-78.401875 187.556875 -77.80375 188.11375 -77.1875 188.6875 C-76 190 -76 190 -76 192 C-75.360625 192.268125 -74.72125 192.53625 -74.0625 192.8125 C-72 194 -72 194 -71 197 C-70.13375 197.433125 -70.13375 197.433125 -69.25 197.875 C-65.30867908 199.84566046 -62.67975748 203.12906073 -60 206.5625 C-58.03976682 209.12561732 -58.03976682 209.12561732 -55.25 211.1875 C-54.5075 211.785625 -53.765 212.38375 -53 213 C-53 213.66 -53 214.32 -53 215 C-52.4225 215.226875 -51.845 215.45375 -51.25 215.6875 C-48.41027692 217.34400513 -47.04775464 219.42567988 -45 222 C-43.28127018 223.56248165 -41.5083757 225.04525713 -39.7265625 226.53515625 C-36.17899579 229.54496964 -33.09157559 232.86821644 -30.125 236.4375 C-27.46986992 239.60429577 -24.5584809 242.17998804 -21.3203125 244.73828125 C-20.88460938 245.15464844 -20.44890625 245.57101562 -20 246 C-20 246.66 -20 247.32 -20 248 C-19.25363281 248.23332031 -18.50726562 248.46664062 -17.73828125 248.70703125 C-14.49467974 250.23860343 -13.28482019 251.80423667 -11.1875 254.6875 C-8.04172316 258.81262246 -4.79222444 262.10667405 -0.8125 265.41015625 C0.89284951 266.9060124 2.27549856 268.41808569 3.6875 270.1875 C5.93967928 272.92663696 8.20887668 274.83687943 11 277 C14.98411164 280.76875425 18.55119388 284.86568163 22.1328125 289.01171875 C24.03312323 291.18588408 24.03312323 291.18588408 27 293 C27 293.99 27 294.98 27 296 C27.57234375 296.25910156 28.1446875 296.51820313 28.734375 296.78515625 C31.19615803 298.10518129 33.13473435 299.61602125 35.25 301.4375 C35.95640625 302.03433594 36.6628125 302.63117188 37.390625 303.24609375 C39 305 39 305 39 308 C33.65116279 313 33.65116279 313 31 313 C30.59241959 313.89310127 30.59241959 313.89310127 30.17660522 314.804245 C29.02219111 316.95858743 27.8756394 318.39445748 26.17431641 320.13208008 C25.32300644 321.00737114 25.32300644 321.00737114 24.45449829 321.90034485 C23.84302948 322.51717636 23.23156067 323.13400787 22.6015625 323.76953125 C21.97019379 324.40992844 21.33882507 325.05032562 20.68832397 325.71012878 C19.35452493 327.05840931 18.01791882 328.40391793 16.67871094 329.74682617 C14.62705621 331.81043182 12.59479077 333.89195356 10.5625 335.97460938 C9.2641728 337.28239464 7.96473095 338.58907447 6.6640625 339.89453125 C6.05664215 340.52148392 5.4492218 341.14843658 4.82339478 341.79438782 C3.08447266 343.51489258 3.08447266 343.51489258 0 346 C-3.52323823 345.56791259 -5.34390323 344.11248418 -7.9375 341.75 C-8.63746094 341.11320312 -9.33742188 340.47640625 -10.05859375 339.8203125 C-14.68563227 335.48188202 -18.89470865 330.88023611 -23.09375 326.1328125 C-26.50410167 322.31713215 -30.11810602 318.88673384 -34 315.5625 C-36.45755432 313.44153379 -38.65892541 311.34661842 -40.6875 308.8125 C-42.93967928 306.07336304 -45.20887668 304.16312057 -48 302 C-51.98411164 298.23124575 -55.55119388 294.13431837 -59.1328125 289.98828125 C-61.03312323 287.81411592 -61.03312323 287.81411592 -64 286 C-64 285.01 -64 284.02 -64 283 C-64.556875 282.773125 -65.11375 282.54625 -65.6875 282.3125 C-68.64691361 280.63283282 -70.62408786 278.43248148 -73 276 C-74.03229987 275.13453647 -75.0741099 274.28029305 -76.125 273.4375 C-78.54502985 271.38573556 -80.33813413 269.67745057 -82 267 C-82 266.34 -82 265.68 -82 265 C-82.5775 264.7525 -83.155 264.505 -83.75 264.25 C-86.32939979 262.81700012 -88.06121592 261.21575324 -90 259 C-90 258.34 -90 257.68 -90 257 C-90.99 256.67 -91.98 256.34 -93 256 C-93 255.34 -93 254.68 -93 254 C-93.66 254 -94.32 254 -95 254 C-95 253.34 -95 252.68 -95 252 C-95.556875 251.938125 -96.11375 251.87625 -96.6875 251.8125 C-102.06702264 249.92239745 -106.64657553 243.57494679 -110 239 C-110 238.34 -110 237.68 -110 237 C-110.598125 236.71125 -111.19625 236.4225 -111.8125 236.125 C-114 235 -114 235 -117 233 C-117 232.34 -117 231.68 -117 231 C-117.99 230.67 -118.98 230.34 -120 230 C-123 226.55555556 -123 226.55555556 -123 224 C-124.65 223.34 -126.3 222.68 -128 222 C-128 221.01 -128 220.02 -128 219 C-131.38847249 217.37345565 -131.38847249 217.37345565 -135 217 C-136.88940864 218.11550463 -136.88940864 218.11550463 -138.63119507 219.85412598 C-139.68002428 220.82766777 -139.68002428 220.82766777 -140.75004196 221.82087708 C-141.49252811 222.53998764 -142.23501427 223.25909821 -143 224 C-143.75464161 224.72914108 -144.50928322 225.45828217 -145.28679276 226.20951843 C-147.84291338 228.71254773 -150.37405054 231.23889298 -152.90087891 233.77148438 C-153.86747514 234.73672238 -154.83428327 235.70174822 -155.80128479 236.6665802 C-158.40469886 239.26547071 -161.00498235 241.86747176 -163.60454226 244.47021675 C-166.33750705 247.20573083 -169.07293082 249.93878433 -171.80795288 252.67224121 C-176.39753022 257.26000462 -180.98500734 261.84986018 -185.57128906 266.44091797 C-190.86014816 271.73522143 -196.15260422 277.02590868 -201.44693625 282.31473875 C-206.00866254 286.87191562 -210.56842294 291.43105261 -215.12656915 295.99181032 C-217.84193061 298.70872407 -220.55794718 301.42497367 -223.27574539 304.13945007 C-225.83075594 306.69155515 -228.38327578 309.24612628 -230.93395805 311.80255699 C-232.30754188 313.17807637 -233.68356392 314.55115965 -235.05967712 315.92414856 C-239.58666851 320.46652563 -243.87728486 325.08877598 -248 330 C-249.9765625 331.8203125 -249.9765625 331.8203125 -251.625 333.125 C-254.50523032 335.49022225 -256.67984648 338.0783252 -259 341 C-259.66 341 -260.32 341 -261 341 C-261 341.66 -261 342.32 -261 343 C-262.1875 344.6875 -262.1875 344.6875 -264 346 C-272.45183285 345.17983859 -277.84603631 337.15220022 -283.0546875 331.13671875 C-285.34330988 328.62291064 -287.80611198 326.47853469 -290.421875 324.31640625 C-295.19564868 320.33432276 -299.1735265 315.57588909 -303.23046875 310.890625 C-304.86863988 308.92091997 -304.86863988 308.92091997 -307 308 C-307 307.01 -307 306.02 -307 305 C-306.34 305 -305.68 305 -305 305 C-304.76869385 304.44403137 -304.5373877 303.88806274 -304.29907227 303.31524658 C-302.65008894 300.37637774 -300.5968511 298.34238004 -298.21484375 295.95605469 C-297.73008575 295.46779205 -297.24532776 294.97952942 -296.74588013 294.47647095 C-295.14806925 292.86988315 -293.54308458 291.27069119 -291.9375 289.671875 C-290.82384445 288.55687208 -289.71048592 287.44157242 -288.59741211 286.32598877 C-286.26707326 283.9927045 -283.93316268 281.66306869 -281.59667969 279.3359375 C-278.59692438 276.34760284 -275.6062717 273.35034434 -272.61820984 270.35032272 C-270.32277403 268.0476752 -268.02261502 265.7497936 -265.72097778 263.45334625 C-264.61586529 262.34957079 -263.51224446 261.24429984 -262.41012573 260.1375351 C-260.87324522 258.59559781 -259.330139 257.06018023 -257.78515625 255.52636719 C-256.90738525 254.65018738 -256.02961426 253.77400757 -255.12524414 252.87127686 C-253 251 -253 251 -251 251 C-250.66935547 250.17822266 -250.66935547 250.17822266 -250.33203125 249.33984375 C-248.58129871 246.26451006 -246.21052934 243.99841279 -243.6875 241.5625 C-243.21376953 241.09779297 -242.74003906 240.63308594 -242.25195312 240.15429688 C-240.83733614 238.76677242 -239.41868488 237.38336493 -238 236 C-236.33190333 234.33476456 -234.6654715 232.66786098 -233 231 C-231.53677198 229.54786098 -230.07319439 228.09607414 -228.609375 226.64453125 C-226.98952395 225.03391388 -225.3697338 223.42323528 -223.75 221.8125 C-222.92242187 220.99330078 -222.09484375 220.17410156 -221.2421875 219.33007812 C-220.06269531 218.15541992 -220.06269531 218.15541992 -218.859375 216.95703125 C-218.14233398 216.24522705 -217.42529297 215.53342285 -216.68652344 214.80004883 C-214.92904829 213.09575224 -214.92904829 213.09575224 -214 211 C-213.34 211 -212.68 211 -212 211 C-211.67 210.01 -211.34 209.02 -211 208 C-209.55139313 206.74893043 -208.09723133 205.50300227 -206.6015625 204.30859375 C-204.22850867 202.36963513 -202.14045075 200.19141387 -200 198 C-198.62635268 196.62364865 -197.25125513 195.24874372 -195.875 193.875 C-195.21242188 193.21242188 -194.54984375 192.54984375 -193.8671875 191.8671875 C-193.25101563 191.25101563 -192.63484375 190.63484375 -192 190 C-191.46632813 189.42507813 -190.93265625 188.85015625 -190.3828125 188.2578125 C-189 187 -189 187 -187 187 C-186.87818359 186.12601562 -186.87818359 186.12601562 -186.75390625 185.234375 C-185.77027513 182.31915739 -184.29381519 181.19489508 -181.9375 179.25 C-181.20402344 178.63640625 -180.47054687 178.0228125 -179.71484375 177.390625 C-179.14894531 176.93171875 -178.58304688 176.4728125 -178 176 C-179.11215282 168.85562696 -183.51508741 165.25080725 -189 161 C-192.31845442 157.98322326 -193.96570962 156.2849173 -195 152 C-196.31647119 151.30062468 -197.65022151 150.63270867 -199 150 C-199.33 149.01 -199.66 148.02 -200 147 C-201.31008366 146.2887314 -202.64784476 145.62761328 -204 145 C-209.18961323 141.01849511 -214.24550869 136.38997048 -218 131 C-218 130.34 -218 129.68 -218 129 C-218.639375 128.731875 -219.27875 128.46375 -219.9375 128.1875 C-222 127 -222 127 -223 124 C-224.485 123.505 -224.485 123.505 -226 123 C-226 122.34 -226 121.68 -226 121 C-226.66 121 -227.32 121 -228 121 C-228 120.34 -228 119.68 -228 119 C-228.639375 118.731875 -229.27875 118.46375 -229.9375 118.1875 C-232 117 -232 117 -233 114 C-234.485 113.505 -234.485 113.505 -236 113 C-236 112.34 -236 111.68 -236 111 C-237.485 110.505 -237.485 110.505 -239 110 C-239 109.34 -239 108.68 -239 108 C-239.59554687 107.74347656 -240.19109375 107.48695313 -240.8046875 107.22265625 C-243.19696371 105.89030313 -244.42728199 104.56631395 -246.125 102.4375 C-248.20903634 99.78974334 -248.20903634 99.78974334 -251 98 C-251 97.34 -251 96.68 -251 96 C-251.99 95.67 -252.98 95.34 -254 95 C-254 94.34 -254 93.68 -254 93 C-254.86625 92.62875 -254.86625 92.62875 -255.75 92.25 C-258.32939979 90.81700012 -260.06121592 89.21575324 -262 87 C-262 86.34 -262 85.68 -262 85 C-263.32 84.67 -264.64 84.34 -266 84 C-266 83.34 -266 82.68 -266 82 C-267.32 81.67 -268.64 81.34 -270 81 C-270.33 79.68 -270.66 78.36 -271 77 C-271.66 77 -272.32 77 -273 77 C-273.1546875 76.0409375 -273.1546875 76.0409375 -273.3125 75.0625 C-273.539375 74.381875 -273.76625 73.70125 -274 73 C-274.99 72.67 -275.98 72.34 -277 72 C-277 71.34 -277 70.68 -277 70 C-278.32 69.67 -279.64 69.34 -281 69 C-281.33 67.68 -281.66 66.36 -282 65 C-282.66 65 -283.32 65 -284 65 C-284 64.34 -284 63.68 -284 63 C-285.485 62.505 -285.485 62.505 -287 62 C-287 61.34 -287 60.68 -287 60 C-287.8971875 59.566875 -287.8971875 59.566875 -288.8125 59.125 C-291 58 -291 58 -294 56 C-294 55.34 -294 54.68 -294 54 C-294.99 53.67 -295.98 53.34 -297 53 C-297 52.01 -297 51.02 -297 50 C-297.99 49.67 -298.98 49.34 -300 49 C-300 48.34 -300 47.68 -300 47 C-300.598125 46.896875 -301.19625 46.79375 -301.8125 46.6875 C-304.35666511 45.88790525 -305.4657452 45.18025682 -307 43 C-306.57697482 39.7702625 -305.52225249 38.1646577 -303.19921875 35.94140625 C-302.63396484 35.39033203 -302.06871094 34.83925781 -301.48632812 34.27148438 C-300.89271484 33.70751953 -300.29910156 33.14355469 -299.6875 32.5625 C-298.52237971 31.44124913 -297.35957044 30.3175913 -296.19921875 29.19140625 C-295.64669434 28.65531738 -295.09416992 28.11922852 -294.52490234 27.56689453 C-292.79486402 25.84370875 -292.79486402 25.84370875 -290.70703125 23.08984375 C-290.14371094 22.40019531 -289.58039063 21.71054687 -289 21 C-288.34 21 -287.68 21 -287 21 C-286.67 20.01 -286.34 19.02 -286 18 C-285.34 18 -284.68 18 -284 18 C-284 17.34 -284 16.68 -284 16 C-283.34 16 -282.68 16 -282 16 C-281.67 15.01 -281.34 14.02 -281 13 C-280.34 13 -279.68 13 -279 13 C-279 12.34 -279 11.68 -279 11 C-278.34 11 -277.68 11 -277 11 C-276.67 10.01 -276.34 9.02 -276 8 C-275.34 8 -274.68 8 -274 8 C-273.67 7.01 -273.34 6.02 -273 5 C-272.34 5 -271.68 5 -271 5 C-271 4.34 -271 3.68 -271 3 C-268 1 -268 1 -266.0625 1.0625 C-264 2 -264 2 -262.3125 4.125 C-259.6199844 7.47245183 -256.59865056 9.71477882 -253.19140625 12.296875 C-249.55479498 15.12318964 -246.49107684 17.52676947 -245 22 C-243.3603279 23.36639342 -241.68889872 24.6949419 -240 26 C-238.33333333 27.66666667 -236.66666667 29.33333333 -235 31 C-233.86018833 31.96548753 -232.71397434 32.92345197 -231.5625 33.875 C-227.99880864 36.89163347 -224.69454248 40.17039384 -222 44 C-222 44.66 -222 45.32 -222 46 C-221.4225 46.226875 -220.845 46.45375 -220.25 46.6875 C-217.41027692 48.34400513 -216.04775464 50.42567988 -214 53 C-212.28354451 54.56041408 -210.51396549 56.04035919 -208.73046875 57.5234375 C-206.35471496 59.55060439 -204.20751397 61.79248603 -202 64 C-200.7934375 64.8971875 -200.7934375 64.8971875 -199.5625 65.8125 C-197.26826285 67.77099513 -195.85899622 69.45108486 -194.125 71.875 C-191.62460111 75.33956299 -188.94716364 77.9547179 -185.6484375 80.6484375 C-181.6844444 83.89853611 -178.36330966 87.71512522 -175 91.5625 C-172.19385498 94.74771151 -169.39229594 97.43285712 -166 100 C-162.80018024 103.02685653 -159.89524208 106.24899593 -157 109.5625 C-154.19385498 112.74771151 -151.39229594 115.43285712 -148 118 C-143.70198517 122.07180353 -139.85909992 126.51810586 -136 131 C-132.8543299 130.42106982 -131.21912035 129.59253808 -128.97108459 127.33184814 C-128.40064926 126.7655368 -127.83021393 126.19922546 -127.24249268 125.61575317 C-126.62887878 124.99135345 -126.01526489 124.36695374 -125.38305664 123.72363281 C-124.7272612 123.06827545 -124.07146576 122.41291809 -123.39579773 121.73770142 C-121.22673197 119.56654371 -119.068494 117.38494342 -116.91015625 115.203125 C-115.40393056 113.69130168 -113.89703935 112.18014116 -112.38951111 110.6696167 C-108.41787063 106.68651474 -104.45531259 102.69449433 -100.49456787 98.70056152 C-96.47376402 94.64918313 -92.44456888 90.60617014 -88.41601562 86.5625 C-81.90266012 80.02276689 -75.39449442 73.47792225 -68.89303589 66.92636108 C-64.74277015 62.74470724 -60.58876596 58.56732834 -56.39453125 54.4296875 C-55.54246094 53.58664062 -54.69039062 52.74359375 -53.8125 51.875 C-52.95269531 51.02679688 -52.09289062 50.17859375 -51.20703125 49.3046875 C-48.87938579 47.00850005 -48.87938579 47.00850005 -47 44 C-46.34 44 -45.68 44 -45 44 C-45 43.34 -45 42.68 -45 42 C-44.34 42 -43.68 42 -43 42 C-42.67 41.01 -42.34 40.02 -42 39 C-41.34 39 -40.68 39 -40 39 C-40 38.34 -40 37.68 -40 37 C-39.34 37 -38.68 37 -38 37 C-37.67 36.01 -37.34 35.02 -37 34 C-36.34 34 -35.68 34 -35 34 C-34.731875 33.360625 -34.46375 32.72125 -34.1875 32.0625 C-33 30 -33 30 -30 29 C-29.67 28.34 -29.34 27.68 -29 27 C-28 25 -28 25 -25 24 C-24.67 23.01 -24.34 22.02 -24 21 C-23.34 21 -22.68 21 -22 21 C-22 20.34 -22 19.68 -22 19 C-21.34 19 -20.68 19 -20 19 C-19.67 18.01 -19.34 17.02 -19 16 C-18.34 16 -17.68 16 -17 16 C-16.5978125 15.0409375 -16.5978125 15.0409375 -16.1875 14.0625 C-15 12 -15 12 -12 11 C-11.29980241 9.68396597 -10.63742406 8.34755808 -10 7 C-8.37890625 5.078125 -8.37890625 5.078125 -6.5625 3.25 C-5.96566406 2.63640625 -5.36882812 2.0228125 -4.75390625 1.390625 C-3 0 -3 0 0 0 Z " fill="#757575" transform="translate(722,268)"/>
<path d="M0 0 C0 4.31618166 -2.13270348 5.92789659 -5 9 C-5.66 9 -6.32 9 -7 9 C-7.20367188 9.53109375 -7.40734375 10.0621875 -7.6171875 10.609375 C-9.59505609 14.02874104 -12.30326899 16.51337921 -15.125 19.25 C-15.68832031 19.80429687 -16.25164063 20.35859375 -16.83203125 20.9296875 C-18.21686028 22.29104485 -19.60783204 23.64614859 -21 25 C-21.99 24.67 -22.98 24.34 -24 24 C-16 16 -8 8 0 0 Z " fill="#404040" transform="translate(759,576)"/>
<path d="M0 0 C0.66 0.33 1.32 0.66 2 1 C1.44538573 5.00246628 -0.54627252 7.03233587 -3.25 9.9375 C-4.06210937 10.81148438 -4.87421875 11.68546875 -5.7109375 12.5859375 C-6.84402344 13.78089844 -6.84402344 13.78089844 -8 15 C-8.52851562 15.56976563 -9.05703125 16.13953125 -9.6015625 16.7265625 C-11.74138874 18.97141089 -12.99386176 19.99795392 -16 21 C-16 19 -16 19 -13.6875 16.4375 C-11 14 -11 14 -8 13 C-7.29125778 11.68854787 -6.62933194 10.35135618 -6 9 C-4.47693244 7.12970461 -2.86785142 5.36716735 -1.2421875 3.5859375 C0.20554064 2.07333091 0.20554064 2.07333091 0 0 Z " fill="#4B4B4B" transform="translate(759,307)"/>
<path d="M0 0 C0.33 0.66 0.66 1.32 1 2 C-9.04912451 13.98297665 -9.04912451 13.98297665 -14 16 C-13.67 15.01 -13.34 14.02 -13 13 C-12.34 13 -11.68 13 -11 13 C-10.731875 12.360625 -10.46375 11.72125 -10.1875 11.0625 C-9 9 -9 9 -6 8 C-5.31513275 6.67592331 -4.65129797 5.34090759 -4 4 C-2.70529025 2.62913085 -1.37849103 1.28659163 0 0 Z " fill="#606060" transform="translate(716,271)"/>
<path d="M0 0 C0 4.35251187 -2.06165511 5.92809398 -5 9 C-7.171875 9.6796875 -7.171875 9.6796875 -9 10 C-8.06409496 8.8944811 -7.12620142 7.79064547 -6.1875 6.6875 C-5.66542969 6.07261719 -5.14335937 5.45773437 -4.60546875 4.82421875 C-3.12827531 3.14575321 -1.59960869 1.56117966 0 0 Z " fill="#646464" transform="translate(426,297)"/>
<path d="M0 0 C0.99 0.33 1.98 0.66 3 1 C0.03 3.475 0.03 3.475 -3 6 C-3 3 -3 3 -1.5 1.3125 C-0.7575 0.6628125 -0.7575 0.6628125 0 0 Z " fill="#3C3C3C" transform="translate(729,606)"/>
</svg>
