<svg id="Capa_1" data-name="Capa 1" xmlns="http://www.w3.org/2000/svg" viewBox="0 0 222 99"><defs><style>.cls-1{fill:#58595b;fill-rule:evenodd;}.cls-2{fill:#f48120;opacity:0.5;}</style></defs><title>Mesa de trabajo 1</title><path class="cls-1" d="M37.46,89.91C-14.1,52.49,56.58,52.56,36.29,1.68c3.14,39.11-48.22,77-14.59,14-4.82,4-12.07,12.74-15.16,18C-9.22,60.48,16.3,78.37,37.46,89.91Zm.87-.24c12.5-14.32,38.7-26,20.45-70.24C85.72,49.78,72,74.24,38.33,89.67Zm-2.61-6.24c-22.16-25.93,20-30.49,13.8-71C67.58,55.81,28.24,48.46,35.72,83.43Z"/><path class="cls-2" d="M64.61,3.63l-.28-.48c2.58.52,5.39,2.6,7.44,4.15L84.7,21.77,85.94,24l.78,1.5L87.46,27l.7,1.58.65,1.62.6,1.65c.28.84.54,1.67.8,2.52l.58,2.17.41,1.82.38,2,.3,2.09.22,2.08.12,2c0,.82,0,1.63,0,2.45l-.07,1.52v.08c-.06-.53,0-1.08,0-1.6l-.06-1.81-.06-1L91.93,45l-.11-1.12-.13-1.11-.15-1.07-.16-1L84.24,22.83l-.55-.48-.17-.14L83.34,22l-.22-.22c-.66-.72-1.26-1.5-1.87-2.27l-1.74-2.19-.82-1-.9-1-1-1.07-1-1.06-1-1-10-8.28Z"/><path class="cls-2" d="M71.24,8,71,7.5c1.52.24,3.55,2.24,4.65,3.22l9.11,11L86,23.92l1.2,2.31,1.11,2.45,1,2.56.9,2.66L91,36.66l.63,2.83.47,2.89.26,2.44.07.84,0,.9,0,.93c0,.48,0,1,0,1.45l0,2.44a53.51,53.51,0,0,1-.73,6.56l-.21.94,0-.32a72,72,0,0,0,.72-9.62h0L87.87,30a27.85,27.85,0,0,1-2.51-3.72l-2.15-3.67L80.07,18l-8.6-9.72Z"/><path class="cls-2" d="M72.59,9.55l.86.61,1.09.87,1.3,1.16,1.47,1.44,1.58,1.72,1.66,2,1.69,2.29,1.67,2.58,1.53,2.69,1.43,2.93L88.16,31l1.13,3.33.92,3.49.69,3.62.44,3.73.16,3.79,0,1.85-.08,1.85-.15,1.83L91,56.28l-.27,1.79-.33,1.76L90,61.57l-.44,1.69-1,2.23.45-1.44.69-2.67.51-2.49.36-2.32.24-2.15.13-2,0-1.83V48.94l-.25-3.76-.43-3A64.92,64.92,0,0,0,85.2,27.36l-2.43-4.49-.5-.83-.53-.85-.55-.84-.56-.82-.57-.81C79.52,18,79,17.23,78.4,16.5l-4.06-4.73a20.29,20.29,0,0,1-2.19-2.45l.44.23Zm16,55.94-4,9.28L87,69.94l.62-1.54.56-1.51.45-1.4Zm-4,9.28-.67,1.53-.31.41Z"/><path class="cls-2" d="M78.23,15.08l.47.44.56.57.65.7.7.83.77,1,.82,1.09.85,1.21.87,1.34,3.47,6.59L88.64,32l1.1,3.42.9,3.65c.35,1.95.63,3.86.87,5.83l.2,4.08,0,2.87-.21,2.87-.36,2.85-.51,2.81-.67,2.77-.8,2.7-.93,2.63-1,2.53-.36.8-.45.93-.51,1-.58,1.08-.62,1.12L84,77.05l-.7,1.1-.69,1.06-3.22,4.14-.1.08.2-.28c1-1.34,2-2.67,2.94-4.06l2.83-4.74,2.22-4.8L89,65.24l1-3.79.62-3.29A54.69,54.69,0,0,0,91,48.94l-.13-1.65-.17-1.53a75.49,75.49,0,0,0-1.52-7.59l-1-3.54-.37-1.11-.47-1.35-.58-1.5-.65-1.6-.74-1.64-.78-1.62-.8-1.54L83,22.85s0,0,0,0a.08.08,0,0,0,0,0l-3.31-5.27a18.07,18.07,0,0,1-1.79-2.73Z"/><path class="cls-2" d="M80.07,18.17l.55.7.39.5.39.52.4.56.61.88.41.63.41.65,3.42,6.52,1.22,3.11,1.07,3.36.87,3.59c.33,1.92.61,3.8.83,5.74l.19,4L90.7,53l-.44,4-.77,4-1,3.88L87.1,68.63l-1.58,3.56-1.79,3.36-2,3.13L80.13,81l-1.87,1.9.62-.75,2.63-3.59,3-5.08,2.09-4.6L88,64.71,89,61l.58-3.3a64.69,64.69,0,0,0,.44-8.8l-1-8.63-.39-1.83c-.25-1-.51-2-.78-3L86,30.23l-.71-1.72-.77-1.69c-.62-1.29-1.27-2.55-2-3.8l-.09-.15a1.09,1.09,0,0,0-.08-.15l-2.42-4a5.53,5.53,0,0,1-1-1.75l1.13,1.21ZM78.26,82.85l-3.15,3.2,2.79-2.77.36-.43Zm-3.15,3.2-3.56,3.63h-.1Z"/><path class="cls-2" d="M84.4,24.75l1.07,1.9,1.11,2.26c.58,1.34,1.11,2.67,1.62,4l1,3.08L90,39.41l.61,3.65c.2,2,.34,3.89.42,5.88l-.1,3.88-.39,3.94-.71,3.93-1,3.88-1.31,3.8-1.58,3.68-1.83,3.5L82,78.86,81.25,80l-.82,1.12-.84,1.08-.86,1.06-.88,1-.89,1-.9,1-.91.91-2.08,1.57.67-.6L75,86.88l1.19-1.23a59.16,59.16,0,0,0,5.53-7L84.47,74a55,55,0,0,0,5.5-25l-.47-5.78-.65-3.91-.41-1.83L88,35.55l-.54-1.85C87,32.31,86.5,31,86,29.59l-1.82-4.32a5.94,5.94,0,0,1-.72-1.88l1,1.36Zm-11.33,64-5.32,4,4.23-3,1.09-1Zm-5.32,4-2.49,1.87h-.1Z"/><path class="cls-2" d="M83.83,24.85l1.24,2.35,1.17,2.56,1.07,2.78,1,3,.79,3.15.6,3.3L90,45.4l.14,3.54-.14,4-.45,4-.76,3.92-1,3.81L86.45,68.3l-1.58,3.52-1.79,3.32-2,3.11L80,79.76l-1.11,1.45-1.14,1.38L76.62,83.9l-1.17,1.24-1.18,1.17L73.09,87.4l-1.18,1-4.48,3.32a16.06,16.06,0,0,1-3.12,1.77l.29-.24,3.15-2.08,1-.69,1-.75,1-.79c.52-.42,1-.85,1.54-1.28l1.33-1.22,1.25-1.22L76,84l1.08-1.22c1.3-1.54,2.51-3.12,3.65-4.78l2.39-3.92L85,70.35l1.42-3.59,1.08-3.49.8-3.45.55-3.48.32-3.6.07-3.8,0-1.21-.06-1.23L89,45.25,88.91,44l-.16-1.31-.2-1.35-.25-1.38L88,38.51l-.78-3.18-.53-1.79-.6-1.81-.66-1.79c-.62-1.55-1.28-3.06-2-4.56l-1.12-2.25-.5-1c0-.11-.12-.24-.09-.35L82,22a9.73,9.73,0,0,1,.64.9Z"/><path class="cls-2" d="M87.16,31.93l.64,1.78.6,1.89.54,2,.48,2.09.39,2.2.3,2.27.2,2.36.08,2.42-.1,3.83-.41,3.88-.7,3.87-1,3.83-1.3,3.74L85.3,71.71l-1.83,3.47-2,3.27-1.74,2.42-1.84,2.27-1.92,2.11-2,2-2,1.79-2,1.63-2,1.46-2,1.29L57.7,97.25l-.3.07h0l.1-.07.23-.11,3-1.35,1.08-.52,1.11-.57L64,94.08l1.15-.66,1.16-.72,2.6-1.79,2.33-1.83,2.1-1.85,1.88-1.84,1.68-1.84,1.51-1.82,1.36-1.79L81,78.18l2.06-3.43,1.68-3.36,1.37-3.33,1.12-3.38.9-3.51.69-3.73.44-4,.14-4.46-.11-2.76-.2-2.4L88.89,42l-.3-1.89-.36-1.91-.42-1.84c-.34-1.32-.7-2.63-1.1-3.93l-1-3a2.45,2.45,0,0,1-.2-.92l.55.88C86.49,30.23,86.83,31.07,87.16,31.93Z"/><path class="cls-1" d="M135,51.49a11.15,11.15,0,0,0-3-8,10,10,0,0,0-7.55-3.17,10.27,10.27,0,0,0-7.63,3.24,10.74,10.74,0,0,0-3.16,7.75,10.58,10.58,0,0,0,3.17,7.84,11,11,0,0,0,8,3.13A9.51,9.51,0,0,0,132,59.17a10.79,10.79,0,0,0,3-7.68Zm.36-15.8v-15h8.52V69.93h-8.52V66.88a18.25,18.25,0,0,1-5.41,3,18.52,18.52,0,0,1-6.14,1,19.35,19.35,0,0,1-6.63-1.12,17.52,17.52,0,0,1-5.58-3.24,19.86,19.86,0,0,1-5.18-6.88,20.15,20.15,0,0,1-1.81-8.45A19.59,19.59,0,0,1,111,36.74a17.51,17.51,0,0,1,5.81-3.66,19.49,19.49,0,0,1,7-1.24,19.93,19.93,0,0,1,6.35.93,16.33,16.33,0,0,1,5.2,2.92Zm20.48-7.34h-4.76V20.67h4.76v7.68Zm-4.76,41.58V32.71h4.76V69.93Zm41.67-31.38a15,15,0,0,1,5.63-4.9A16.56,16.56,0,0,1,205.89,32q7.58,0,11,4.54t3.45,14.63V69.93h-4.57V50.17q0-7.35-2.44-10.49c-1.61-2.09-4.27-3.13-7.94-3.13a11.68,11.68,0,0,0-5.59,1.3A9.8,9.8,0,0,0,196,41.58a11.73,11.73,0,0,0-1.22,3.48,42.56,42.56,0,0,0-.37,6.78V69.93h-4.5V49.1q0-6.42-2.61-9.49c-1.73-2-4.39-3.06-8-3.06a12.07,12.07,0,0,0-5.7,1.3,9.68,9.68,0,0,0-3.86,3.73,10.5,10.5,0,0,0-1.24,3.48,42.9,42.9,0,0,0-.36,6.78V69.93h-4.69V32.71h4.69V37a13.81,13.81,0,0,1,5-3.72A16.23,16.23,0,0,1,179.72,32a16.63,16.63,0,0,1,7.71,1.77A12.87,12.87,0,0,1,192.74,38.55Z"/></svg>