<?xml version="1.0" encoding="utf-8"?>
<!-- Generator: Adobe Illustrator 25.4.1, SVG Export Plug-In . SVG Version: 6.00 Build 0)  -->
<svg version="1.2" baseProfile="tiny" id="图层_1"
	 xmlns="http://www.w3.org/2000/svg" xmlns:xlink="http://www.w3.org/1999/xlink" x="0px" y="0px" viewBox="0 0 59.28 12"
	 overflow="visible" xml:space="preserve">
<g>
	<path fill="#FFFFFF" d="M25.98,5.61c-0.03,0.03-0.05,0.08-0.07,0.13c-0.02,0.06-0.04,0.13-0.05,0.23c-0.01,0.1-0.03,0.22-0.04,0.38
		c-0.01,0.15-0.02,0.34-0.03,0.57c-0.01,0.21-0.03,0.43-0.04,0.67c-0.01,0.23-0.03,0.47-0.06,0.72c-0.03,0.24-0.06,0.45-0.09,0.63
		s-0.07,0.33-0.12,0.46c-0.05,0.13-0.1,0.24-0.16,0.33c-0.06,0.09-0.13,0.18-0.21,0.25c-0.28,0.27-0.5,0.39-0.65,0.36
		s-0.27-0.17-0.35-0.43c-0.03-0.09-0.09-0.21-0.17-0.35c-0.08-0.14-0.2-0.27-0.35-0.4c-0.27-0.25-0.39-0.41-0.38-0.48
		c0.01-0.07,0.16-0.08,0.44-0.01c0.19,0.04,0.34,0.06,0.45,0.08c0.11,0.01,0.21-0.01,0.28-0.05c0.07-0.04,0.13-0.12,0.17-0.22
		s0.08-0.25,0.11-0.43c0.03-0.14,0.05-0.31,0.07-0.52c0.02-0.2,0.04-0.42,0.05-0.63c0.01-0.22,0.02-0.44,0.02-0.65s0-0.39-0.01-0.54
		c-0.01-0.16-0.03-0.28-0.04-0.37c-0.01-0.09-0.04-0.15-0.09-0.19c-0.05-0.04-0.11-0.06-0.2-0.06c-0.09,0-0.21,0.01-0.36,0.02
		c-0.11,0.01-0.26,0.03-0.43,0.04s-0.37,0.04-0.58,0.06c0.28,0.14,0.42,0.26,0.44,0.36c0.01,0.1-0.04,0.18-0.17,0.23
		c-0.07,0.03-0.15,0.09-0.25,0.16c-0.09,0.07-0.23,0.21-0.4,0.4c0.11-0.03,0.2-0.06,0.28-0.07c0.08-0.02,0.16-0.03,0.23-0.03
		c0.07,0,0.14,0,0.21,0.02c0.07,0.02,0.15,0.04,0.23,0.08c0.19,0.07,0.26,0.16,0.23,0.25c-0.03,0.1-0.23,0.17-0.58,0.22
		c-0.09,0.01-0.22,0.03-0.39,0.05s-0.34,0.04-0.52,0.06c0,0.13,0,0.23,0,0.29c0,0.07,0,0.13-0.01,0.19c0.26-0.06,0.48-0.1,0.65-0.13
		c0.17-0.03,0.31-0.04,0.42-0.04s0.21,0.01,0.28,0.04c0.07,0.03,0.14,0.07,0.2,0.13c0.17,0.16,0.23,0.29,0.17,0.38
		s-0.25,0.12-0.55,0.1c-0.1-0.01-0.26,0-0.49,0.02c-0.22,0.02-0.46,0.04-0.69,0.07c-0.01,0.2-0.02,0.37-0.04,0.51
		c-0.01,0.14-0.02,0.26-0.03,0.36c-0.01,0.1-0.03,0.2-0.06,0.28s-0.05,0.17-0.08,0.25c-0.25,0.65-0.43,0.62-0.54-0.08
		c-0.01-0.09-0.02-0.18-0.04-0.26c-0.01-0.08-0.02-0.17-0.02-0.26c-0.01-0.09-0.01-0.2-0.02-0.31c0-0.11,0-0.24,0-0.39
		c-0.15,0.02-0.25,0.04-0.32,0.06c-0.25,0.06-0.45,0.08-0.58,0.08s-0.26-0.06-0.4-0.15C20.07,7.95,19.99,7.87,20,7.82
		c0.01-0.05,0.15-0.07,0.42-0.08c0.15-0.01,0.31-0.02,0.5-0.03c0.18-0.02,0.39-0.05,0.62-0.1c0-0.09,0-0.17,0-0.25
		c0-0.07,0-0.16-0.01-0.27c-0.14,0.02-0.26,0.04-0.35,0.04s-0.17,0.01-0.23,0.01c-0.06,0-0.12-0.01-0.17-0.03
		c-0.05-0.01-0.1-0.03-0.17-0.06C20.4,6.97,20.29,6.9,20.3,6.85c0.01-0.04,0.15-0.08,0.4-0.12c0.13-0.01,0.32-0.04,0.58-0.08
		c0.26-0.04,0.52-0.08,0.77-0.13c0.19-0.29,0.32-0.52,0.38-0.71s0.07-0.36,0.02-0.52c-0.42,0.07-0.88,0.13-1.37,0.18
		c-0.49,0.05-0.96,0.11-1.39,0.16c0.02,0.34,0.04,0.7,0.05,1.07s0.03,0.78,0.04,1.23c0.01,0.23,0,0.44,0,0.61
		c-0.01,0.17-0.03,0.34-0.06,0.52c-0.07,0.37-0.2,0.55-0.37,0.56c-0.17,0-0.36-0.18-0.57-0.54c-0.05-0.08-0.08-0.15-0.1-0.22
		c-0.02-0.07-0.03-0.14-0.02-0.22c0.01-0.08,0.02-0.17,0.06-0.27c0.03-0.1,0.07-0.23,0.12-0.38c0.03-0.09,0.05-0.24,0.06-0.46
		c0.01-0.22,0-0.45-0.01-0.7c-0.01-0.24-0.04-0.47-0.08-0.69c-0.04-0.22-0.08-0.37-0.13-0.46c-0.1-0.15-0.17-0.28-0.21-0.38
		c-0.04-0.1-0.04-0.17,0-0.21c0.04-0.04,0.12-0.05,0.24-0.04c0.13,0.01,0.31,0.04,0.54,0.1c0.34-0.03,0.67-0.07,1-0.1
		s0.65-0.08,0.98-0.12c0.06-0.19,0.11-0.37,0.15-0.52s0.07-0.29,0.1-0.42c-0.14,0.02-0.26,0.03-0.37,0.03c-0.1,0-0.19,0-0.27-0.01
		C20.76,4.01,20.68,4,20.62,3.97c-0.07-0.02-0.13-0.06-0.2-0.1c-0.13-0.07-0.19-0.14-0.17-0.19s0.1-0.09,0.24-0.1
		c0.33-0.03,0.69-0.08,1.1-0.17c0.09-0.43,0.13-0.76,0.13-0.99s-0.03-0.4-0.1-0.53c-0.15-0.27-0.17-0.44-0.06-0.51
		s0.41-0.01,0.88,0.18c0.18,0.07,0.32,0.14,0.41,0.2c0.09,0.06,0.15,0.12,0.19,0.19c0.03,0.06,0.03,0.12,0.01,0.18
		s-0.06,0.11-0.11,0.17c-0.07,0.08-0.14,0.19-0.2,0.33c-0.06,0.14-0.12,0.31-0.19,0.5c0.2-0.08,0.38-0.14,0.53-0.18
		c0.15-0.04,0.29-0.07,0.41-0.09c0.12-0.01,0.23-0.01,0.33,0C23.9,2.88,24,2.91,24.1,2.94c0.11,0.04,0.18,0.08,0.23,0.12
		c0.04,0.04,0.06,0.09,0.05,0.13c-0.01,0.05-0.04,0.09-0.09,0.13c-0.05,0.04-0.12,0.08-0.21,0.11c-0.12,0.05-0.24,0.09-0.37,0.13
		s-0.25,0.08-0.39,0.11c-0.14,0.03-0.29,0.06-0.45,0.1c-0.16,0.03-0.35,0.06-0.56,0.09c-0.05,0.14-0.1,0.29-0.16,0.45
		c-0.06,0.16-0.14,0.33-0.23,0.52c0.41-0.05,0.76-0.1,1.05-0.14c0.28-0.04,0.52-0.08,0.71-0.11s0.36-0.07,0.49-0.11
		s0.26-0.08,0.38-0.14c0.08-0.03,0.15-0.06,0.21-0.08c0.06-0.02,0.12-0.02,0.18-0.01C25,4.26,25.06,4.27,25.12,4.3
		c0.06,0.03,0.14,0.07,0.23,0.12c0.25,0.15,0.45,0.28,0.58,0.37s0.22,0.18,0.26,0.25s0.04,0.16,0,0.25
		C26.15,5.38,26.08,5.48,25.98,5.61z M21.64,6.15c0,0.12-0.02,0.22-0.06,0.29s-0.08,0.12-0.15,0.14s-0.13,0.01-0.2-0.02
		c-0.07-0.03-0.14-0.09-0.21-0.17c-0.07-0.09-0.13-0.17-0.17-0.24c-0.04-0.08-0.07-0.16-0.1-0.26c-0.04-0.15-0.04-0.25,0.01-0.29
		c0.05-0.04,0.15-0.04,0.31,0c0.21,0.05,0.35,0.13,0.44,0.22C21.6,5.92,21.64,6.03,21.64,6.15z"/>
	<path fill="#FFFFFF" d="M29.91,6.37c-0.15,0.51-0.27,0.98-0.36,1.4c-0.09,0.42-0.14,0.75-0.15,1c-0.01,0.19-0.03,0.34-0.08,0.44
		c-0.05,0.1-0.12,0.15-0.21,0.14c-0.09-0.01-0.19-0.07-0.32-0.2c-0.13-0.12-0.27-0.31-0.44-0.57c-0.12-0.19-0.21-0.34-0.25-0.46
		C28.04,8,28.02,7.9,28.03,7.82c0.01-0.08,0.05-0.13,0.11-0.17c0.07-0.04,0.16-0.06,0.27-0.07c0.15-0.02,0.3-0.15,0.45-0.39
		c0.08-0.13,0.15-0.24,0.21-0.33s0.12-0.19,0.17-0.27c0.05-0.09,0.11-0.18,0.16-0.27c0.05-0.09,0.11-0.19,0.18-0.29
		c0.25-0.41,0.4-0.59,0.46-0.55C30.12,5.51,30.07,5.81,29.91,6.37z M29.61,5.28c0,0.15-0.02,0.28-0.07,0.38
		c-0.05,0.1-0.1,0.17-0.17,0.21c-0.07,0.04-0.15,0.05-0.23,0.04c-0.08-0.01-0.16-0.06-0.23-0.13c-0.09-0.09-0.2-0.21-0.31-0.36
		c-0.11-0.15-0.23-0.31-0.34-0.49c-0.13-0.2-0.17-0.33-0.12-0.4c0.05-0.07,0.22-0.09,0.51-0.06c0.34,0.05,0.59,0.14,0.74,0.27
		C29.54,4.88,29.61,5.06,29.61,5.28z M30.7,3.53c0,0.13-0.02,0.24-0.07,0.33c-0.05,0.08-0.1,0.15-0.17,0.19s-0.15,0.05-0.23,0.04
		c-0.09-0.01-0.17-0.06-0.26-0.13c-0.08-0.07-0.18-0.19-0.3-0.35c-0.12-0.16-0.23-0.32-0.32-0.49c-0.13-0.23-0.16-0.37-0.11-0.43
		s0.22-0.06,0.5-0.01c0.17,0.03,0.31,0.07,0.44,0.11c0.12,0.04,0.23,0.1,0.31,0.16s0.14,0.14,0.17,0.23
		C30.68,3.27,30.7,3.39,30.7,3.53z M33.13,4.65c-0.09,0.05-0.23,0.1-0.41,0.15c-0.18,0.06-0.4,0.12-0.67,0.19l-0.18,0.9
		c0.1-0.03,0.17-0.06,0.21-0.09c0.15-0.11,0.28-0.16,0.38-0.15s0.24,0.06,0.42,0.17c0.15,0.09,0.26,0.17,0.33,0.23
		c0.08,0.06,0.12,0.11,0.13,0.16c0.01,0.05-0.01,0.1-0.05,0.15c-0.05,0.05-0.11,0.1-0.2,0.17c-0.09,0.07-0.18,0.16-0.25,0.26
		s-0.16,0.26-0.25,0.47c0.25,0.09,0.36,0.19,0.34,0.3c-0.02,0.12-0.15,0.19-0.39,0.22c-0.05,0.01-0.13,0.02-0.23,0.04
		c-0.1,0.02-0.21,0.04-0.34,0.05c-0.13,0.02-0.26,0.04-0.41,0.07C31.42,7.96,31.28,7.98,31.15,8c-0.02,0.14-0.05,0.25-0.1,0.32
		c-0.05,0.08-0.1,0.12-0.16,0.14s-0.11,0-0.17-0.04c-0.06-0.04-0.1-0.11-0.14-0.21C30.54,8.11,30.5,8,30.48,7.89
		c-0.03-0.1-0.05-0.22-0.06-0.35c-0.02-0.21-0.05-0.41-0.1-0.62c-0.05-0.21-0.1-0.35-0.15-0.43c-0.07-0.1-0.11-0.18-0.12-0.25
		c-0.02-0.07,0-0.12,0.06-0.15c0.05-0.03,0.14-0.05,0.27-0.05c0.13,0,0.31,0.02,0.53,0.06c0.04-0.01,0.08-0.01,0.11-0.02
		c0.04,0,0.08-0.01,0.12-0.02l0.12-0.92c-0.22,0.04-0.4,0.06-0.54,0.08c-0.14,0.01-0.27,0-0.38-0.04c-0.24-0.06-0.36-0.13-0.36-0.21
		s0.12-0.14,0.36-0.17c0.09-0.01,0.23-0.04,0.41-0.09c0.18-0.05,0.38-0.11,0.6-0.18c0.06-0.44,0.1-0.81,0.13-1.1
		s0.04-0.53,0.04-0.71S31.5,2.4,31.47,2.29s-0.05-0.19-0.09-0.25c-0.17-0.25-0.21-0.42-0.12-0.51c0.1-0.09,0.33-0.06,0.69,0.07
		c0.24,0.09,0.43,0.17,0.56,0.24s0.22,0.15,0.28,0.22c0.05,0.07,0.07,0.14,0.05,0.21c-0.02,0.07-0.06,0.13-0.12,0.2
		c-0.04,0.04-0.08,0.09-0.11,0.15c-0.03,0.06-0.07,0.15-0.1,0.27c-0.03,0.12-0.07,0.28-0.12,0.49s-0.1,0.48-0.17,0.82
		c0.17-0.06,0.32-0.09,0.45-0.1c0.12-0.01,0.23,0,0.31,0.02c0.24,0.06,0.37,0.14,0.38,0.25C33.36,4.48,33.29,4.57,33.13,4.65z
		 M32.07,6.56c0-0.07-0.02-0.11-0.06-0.13s-0.12-0.02-0.23,0.01c-0.06,0.01-0.16,0.03-0.29,0.05c-0.13,0.02-0.28,0.05-0.43,0.09
		c0.05,0.35,0.09,0.65,0.11,0.91c0.13-0.03,0.26-0.07,0.39-0.1c0.13-0.03,0.26-0.07,0.4-0.1c0.03-0.12,0.06-0.24,0.08-0.36
		C32.05,6.82,32.06,6.69,32.07,6.56z M36.44,3.61c-0.04,0.05-0.07,0.1-0.09,0.17s-0.04,0.15-0.06,0.25
		c-0.02,0.1-0.03,0.23-0.03,0.38c0,0.15-0.01,0.32-0.01,0.53c0,0.22,0,0.48,0,0.79s0,0.61,0.01,0.92c0,0.31,0.01,0.6,0.01,0.88
		c0.01,0.27,0.01,0.49,0.02,0.65c0.01,0.3,0.02,0.55,0.01,0.75c0,0.2-0.02,0.36-0.05,0.5c-0.03,0.13-0.08,0.25-0.15,0.34
		s-0.15,0.2-0.26,0.3c-0.2,0.19-0.36,0.28-0.47,0.27s-0.21-0.12-0.29-0.33c-0.05-0.13-0.14-0.28-0.26-0.45
		c-0.12-0.17-0.24-0.31-0.36-0.42c-0.26-0.24-0.37-0.39-0.34-0.45c0.04-0.06,0.24-0.04,0.62,0.07c0.13,0.03,0.22,0.06,0.29,0.08
		s0.12,0.02,0.17,0.01c0.04-0.01,0.06-0.02,0.07-0.05s0.02-0.07,0.03-0.12c0.03-0.39,0.06-0.81,0.08-1.24
		c0.02-0.43,0.03-0.86,0.04-1.29c0-0.43,0-0.84-0.02-1.23c-0.01-0.39-0.03-0.75-0.05-1.07c-0.01-0.15-0.04-0.26-0.09-0.33
		c-0.05-0.06-0.1-0.09-0.17-0.07c-0.07,0.01-0.12,0.02-0.17,0.02c-0.05,0.01-0.1,0.02-0.15,0.03c-0.05,0.01-0.11,0.02-0.17,0.03
		c-0.06,0.01-0.14,0.03-0.22,0.05c0.01,0.41,0.01,0.81,0,1.2c0.21-0.09,0.36-0.13,0.45-0.14c0.09-0.01,0.15,0,0.2,0.01
		c0.19,0.07,0.29,0.16,0.3,0.27s-0.07,0.2-0.22,0.26c-0.13,0.05-0.26,0.09-0.38,0.11c-0.12,0.02-0.24,0.02-0.38,0.01
		C34.34,5.67,34.31,6,34.27,6.29c0.26-0.07,0.45-0.11,0.55-0.12c0.11-0.01,0.2,0.01,0.26,0.04c0.17,0.07,0.25,0.16,0.24,0.27
		c0,0.11-0.08,0.18-0.24,0.23c-0.17,0.05-0.32,0.09-0.46,0.1s-0.28,0.01-0.44-0.02c-0.09,0.45-0.19,0.85-0.32,1.19
		c-0.13,0.34-0.28,0.63-0.44,0.88c-0.16,0.25-0.34,0.45-0.54,0.62s-0.4,0.3-0.62,0.41c-0.49,0.24-0.76,0.33-0.8,0.29
		s0.11-0.24,0.46-0.56c0.23-0.21,0.43-0.43,0.61-0.68c0.18-0.25,0.33-0.54,0.46-0.86c0.13-0.32,0.24-0.69,0.32-1.1
		c0.08-0.41,0.14-0.89,0.18-1.44c0.02-0.27,0.03-0.52,0.03-0.75s-0.01-0.45-0.02-0.64c-0.02-0.19-0.04-0.34-0.06-0.46
		c-0.02-0.12-0.05-0.21-0.08-0.25c-0.07-0.1-0.12-0.19-0.14-0.25c-0.02-0.07-0.01-0.12,0.05-0.16c0.06-0.03,0.16-0.04,0.31-0.03
		c0.15,0.01,0.37,0.06,0.65,0.14c0.21-0.03,0.4-0.07,0.56-0.12s0.27-0.1,0.33-0.14c0.09-0.06,0.16-0.1,0.22-0.13
		c0.06-0.03,0.12-0.05,0.18-0.05s0.12,0,0.18,0.02c0.06,0.02,0.13,0.05,0.21,0.1c0.2,0.11,0.36,0.2,0.46,0.27
		c0.11,0.07,0.18,0.13,0.21,0.18s0.04,0.11,0.01,0.16C36.55,3.46,36.5,3.53,36.44,3.61z"/>
	<path fill="#FFFFFF" d="M43.22,5.2c0.09,0.09,0.15,0.17,0.18,0.23c0.04,0.06,0.04,0.11,0,0.15c-0.03,0.04-0.11,0.06-0.22,0.07
		c-0.12,0.01-0.28,0-0.5-0.02c-0.06-0.01-0.14-0.01-0.24,0c-0.1,0-0.23,0.01-0.39,0.02c-0.16,0.01-0.36,0.03-0.6,0.05
		c-0.24,0.02-0.52,0.06-0.86,0.1c-0.21,0.03-0.44,0.06-0.67,0.09c-0.24,0.04-0.46,0.08-0.69,0.14c-0.16,0.04-0.29,0.07-0.4,0.09
		c-0.11,0.02-0.2,0.03-0.28,0.03c-0.08,0-0.15-0.02-0.21-0.06c-0.07-0.03-0.14-0.08-0.23-0.15c-0.17-0.13-0.24-0.22-0.23-0.27
		c0.01-0.05,0.14-0.07,0.37-0.06c0.13,0.01,0.3,0,0.51-0.02c0.21-0.02,0.48-0.04,0.8-0.08c0.27-0.03,0.5-0.06,0.71-0.09
		c0.21-0.03,0.4-0.05,0.57-0.08c-0.07-0.09-0.13-0.16-0.18-0.22C40.61,5.06,40.57,5,40.54,4.94c-0.07-0.11-0.08-0.2-0.05-0.25
		c0.04-0.06,0.16-0.07,0.38-0.04c0.19,0.03,0.32,0.09,0.39,0.17c0.07,0.08,0.1,0.23,0.1,0.43c0.15-0.03,0.29-0.06,0.43-0.08
		c0.14-0.03,0.29-0.06,0.45-0.1C42.38,5.04,42.5,5.02,42.59,5s0.18-0.02,0.25-0.02c0.07,0.01,0.13,0.03,0.19,0.06
		C43.09,5.08,43.15,5.13,43.22,5.2z M39.59,7.88c0.1,0.28,0.11,0.54,0.02,0.77c-0.08,0.24-0.21,0.44-0.39,0.62
		c-0.14,0.13-0.26,0.18-0.36,0.13c-0.1-0.05-0.17-0.17-0.21-0.36c-0.02-0.11-0.04-0.2-0.04-0.27c-0.01-0.07-0.01-0.13,0-0.18
		s0.03-0.09,0.07-0.13c0.03-0.04,0.08-0.09,0.13-0.14c0.08-0.07,0.15-0.15,0.21-0.25c0.06-0.09,0.11-0.18,0.16-0.27
		c0.09-0.19,0.17-0.28,0.22-0.26C39.45,7.56,39.51,7.67,39.59,7.88z M43.01,3.28c-0.05,0.04-0.1,0.08-0.13,0.1
		c-0.04,0.03-0.07,0.07-0.1,0.12c-0.03,0.05-0.06,0.1-0.09,0.16c-0.03,0.06-0.07,0.14-0.11,0.24c-0.05,0.1-0.1,0.2-0.15,0.3
		c-0.05,0.1-0.11,0.19-0.16,0.26c-0.12,0.17-0.22,0.27-0.3,0.28c-0.08,0.02-0.21-0.03-0.37-0.15c-0.03-0.02-0.15-0.03-0.33-0.02
		c-0.19,0-0.48,0.03-0.86,0.08c-0.08,0.19-0.19,0.28-0.32,0.26c-0.13-0.02-0.24-0.15-0.31-0.39c-0.09-0.32-0.2-0.62-0.31-0.89
		c-0.11-0.27-0.24-0.48-0.38-0.62c-0.06-0.06-0.1-0.12-0.12-0.18c-0.02-0.06,0-0.11,0.04-0.15s0.11-0.06,0.22-0.07
		c0.11-0.01,0.26,0.01,0.45,0.05c0.19-0.01,0.39-0.04,0.59-0.06c0.2-0.03,0.39-0.06,0.56-0.1c0.18-0.03,0.34-0.07,0.49-0.11
		s0.26-0.08,0.35-0.12c0.09-0.05,0.18-0.08,0.25-0.1c0.07-0.02,0.14-0.02,0.22,0c0.08,0.01,0.16,0.04,0.24,0.09
		c0.09,0.05,0.2,0.11,0.33,0.19c0.17,0.1,0.29,0.19,0.37,0.27s0.13,0.15,0.14,0.22c0.01,0.07,0,0.13-0.04,0.18
		C43.14,3.17,43.08,3.23,43.01,3.28z M42.6,6.5c-0.11,0.07-0.19,0.14-0.25,0.2s-0.12,0.13-0.19,0.21C42.34,7,42.4,7.09,42.34,7.18
		s-0.2,0.15-0.42,0.18c-0.07,0.01-0.16,0.03-0.25,0.04c-0.09,0.01-0.22,0.02-0.38,0.04c0.09,0.06,0.15,0.11,0.17,0.14
		c0.02,0.03,0.02,0.07,0,0.12c-0.03,0.12-0.05,0.24-0.07,0.37c-0.01,0.13,0,0.28,0.04,0.45c0.03,0.17,0.04,0.31,0.04,0.42
		c0,0.12-0.01,0.22-0.04,0.32s-0.07,0.19-0.13,0.28s-0.14,0.19-0.23,0.29c-0.12,0.15-0.24,0.22-0.36,0.22s-0.2-0.07-0.24-0.2
		c-0.03-0.11-0.08-0.22-0.16-0.33C40.25,9.43,40.14,9.3,40,9.14c-0.21-0.23-0.29-0.37-0.22-0.4c0.07-0.03,0.24,0,0.5,0.09
		c0.11,0.04,0.2,0.04,0.25,0.01s0.08-0.09,0.09-0.16c0.01-0.05,0.01-0.11,0.02-0.2c0.01-0.08,0.01-0.17,0.01-0.26s0-0.17,0-0.25
		s-0.01-0.14-0.01-0.19c-0.01-0.04-0.03-0.08-0.04-0.11c-0.01-0.03-0.04-0.08-0.09-0.13c-0.04,0.01-0.08,0.01-0.13,0.01
		c-0.05,0-0.09,0.01-0.14,0.01c-0.07,0.23-0.17,0.34-0.28,0.33s-0.22-0.17-0.31-0.45c-0.06-0.18-0.11-0.32-0.15-0.43
		c-0.04-0.11-0.07-0.19-0.09-0.26c-0.02-0.06-0.04-0.11-0.06-0.14c-0.02-0.03-0.04-0.06-0.07-0.08c-0.07-0.07-0.11-0.13-0.12-0.19
		c-0.02-0.06,0-0.11,0.04-0.14s0.12-0.05,0.23-0.05c0.11,0,0.25,0.02,0.44,0.07c0.19-0.02,0.37-0.04,0.55-0.07
		c0.18-0.03,0.35-0.05,0.5-0.08c0.15-0.03,0.28-0.06,0.39-0.09c0.11-0.03,0.19-0.07,0.23-0.1c0.07-0.05,0.14-0.08,0.19-0.1
		c0.05-0.02,0.11-0.03,0.16-0.03c0.05,0,0.11,0.02,0.17,0.05c0.06,0.03,0.14,0.07,0.23,0.11c0.15,0.09,0.27,0.16,0.34,0.22
		c0.07,0.06,0.12,0.11,0.14,0.15s0.01,0.08-0.02,0.11C42.7,6.42,42.66,6.46,42.6,6.5z M41.6,6.55c0.01-0.05,0.01-0.09-0.02-0.1
		c-0.03-0.02-0.09-0.02-0.18,0c-0.1,0.01-0.19,0.02-0.29,0.04c-0.09,0.01-0.18,0.02-0.28,0.03c-0.1,0.01-0.2,0.03-0.32,0.04
		c-0.11,0.01-0.25,0.03-0.4,0.05c0.02,0.09,0.04,0.19,0.06,0.28s0.04,0.19,0.05,0.3c0.28-0.05,0.52-0.09,0.73-0.13
		c0.2-0.04,0.34-0.08,0.42-0.1c0.07-0.02,0.11-0.05,0.13-0.1C41.54,6.79,41.56,6.7,41.6,6.55z M41.91,3.11
		c0.01-0.11,0-0.18-0.04-0.23c-0.04-0.05-0.11-0.06-0.19-0.05c-0.27,0.05-0.53,0.1-0.75,0.13c-0.23,0.03-0.48,0.07-0.76,0.1
		c0.03,0.11,0.06,0.23,0.09,0.34c0.21-0.06,0.39-0.1,0.52-0.13c0.13-0.03,0.24-0.04,0.32-0.06c0.08-0.01,0.14-0.01,0.18,0
		c0.04,0.01,0.08,0.02,0.12,0.04c0.15,0.08,0.24,0.16,0.25,0.23s-0.09,0.14-0.31,0.19c-0.23,0.05-0.41,0.09-0.56,0.1
		s-0.29,0.02-0.44,0.02c0.01,0.07,0.03,0.15,0.04,0.22c0.02,0.08,0.03,0.16,0.04,0.24c0.22-0.03,0.4-0.06,0.53-0.08
		c0.13-0.02,0.24-0.03,0.31-0.04c0.07-0.01,0.13-0.01,0.16-0.01c0.03,0,0.06,0,0.07,0.01c0.04,0.01,0.08,0.01,0.11,0
		s0.06-0.07,0.09-0.16c0.06-0.19,0.11-0.35,0.15-0.48C41.87,3.35,41.89,3.22,41.91,3.11z M46.19,7.29
		c-0.11,0.07-0.23,0.17-0.35,0.28s-0.22,0.22-0.29,0.31c-0.23,0.32-0.47,0.62-0.71,0.89s-0.5,0.52-0.77,0.75s-0.57,0.42-0.89,0.59
		s-0.69,0.32-1.09,0.44c-0.43,0.13-0.66,0.17-0.7,0.11c-0.04-0.05,0.13-0.19,0.52-0.43c0.36-0.22,0.67-0.43,0.93-0.64
		c0.26-0.21,0.49-0.42,0.7-0.62c0.21-0.21,0.4-0.43,0.58-0.66c0.18-0.23,0.36-0.48,0.54-0.75C44.81,7.3,44.93,7.09,45,6.94
		c0.07-0.15,0.1-0.29,0.08-0.42c-0.01-0.23,0.02-0.36,0.12-0.38c0.09-0.02,0.29,0.09,0.6,0.32c0.29,0.22,0.45,0.4,0.48,0.52
		C46.32,7.13,46.29,7.22,46.19,7.29z M43.04,8.44c-0.03,0.23-0.1,0.36-0.22,0.4c-0.12,0.04-0.28-0.04-0.47-0.24
		c-0.11-0.11-0.2-0.21-0.27-0.29c-0.07-0.08-0.14-0.19-0.22-0.3c-0.11-0.17-0.16-0.28-0.14-0.33c0.02-0.05,0.15-0.06,0.38-0.03
		c0.38,0.06,0.64,0.16,0.77,0.29C43,8.07,43.06,8.24,43.04,8.44z M45.83,5.28c-0.1,0.05-0.2,0.11-0.29,0.19s-0.21,0.19-0.37,0.35
		C45,6.01,44.84,6.16,44.72,6.29c-0.13,0.13-0.25,0.23-0.37,0.32c-0.12,0.09-0.25,0.17-0.38,0.24C43.83,6.92,43.67,7,43.49,7.08
		c-0.37,0.15-0.59,0.21-0.66,0.17c-0.07-0.04,0.05-0.19,0.36-0.45c0.12-0.1,0.23-0.2,0.33-0.3s0.21-0.21,0.31-0.32
		c0.1-0.11,0.21-0.24,0.31-0.37s0.22-0.28,0.35-0.44c0.13-0.17,0.23-0.33,0.3-0.48c0.07-0.15,0.09-0.25,0.08-0.3
		c-0.03-0.11-0.03-0.21-0.02-0.28s0.06-0.12,0.12-0.13c0.06-0.02,0.14,0,0.24,0.05c0.1,0.05,0.23,0.15,0.38,0.28
		c0.13,0.12,0.23,0.22,0.29,0.31c0.06,0.09,0.1,0.16,0.11,0.21c0.01,0.06,0,0.1-0.04,0.14S45.89,5.25,45.83,5.28z M45.9,3.1
		c-0.09,0.05-0.19,0.12-0.3,0.22c-0.11,0.1-0.23,0.23-0.37,0.39c-0.15,0.18-0.29,0.33-0.39,0.44c-0.11,0.11-0.22,0.21-0.33,0.29
		s-0.22,0.15-0.34,0.22c-0.12,0.07-0.28,0.14-0.46,0.22c-0.28,0.13-0.43,0.15-0.46,0.08s0.08-0.21,0.33-0.44
		c0.11-0.1,0.2-0.2,0.29-0.29c0.09-0.09,0.17-0.19,0.25-0.3s0.16-0.22,0.23-0.35c0.08-0.12,0.16-0.26,0.25-0.42
		c0.09-0.15,0.16-0.28,0.19-0.38s0.04-0.21,0.02-0.33c-0.02-0.12-0.02-0.22-0.01-0.3s0.06-0.13,0.12-0.15C45,2,45.09,2.01,45.2,2.06
		c0.12,0.05,0.26,0.15,0.44,0.29c0.15,0.11,0.26,0.21,0.33,0.28s0.12,0.14,0.13,0.2s0,0.1-0.04,0.15C46.04,3.02,45.98,3.06,45.9,3.1
		z"/>
	<path fill="#FFFFFF" d="M50.72,3.02c-0.11,0.11-0.21,0.23-0.29,0.34c-0.09,0.12-0.16,0.21-0.2,0.29c-0.09,0.17-0.17,0.32-0.25,0.46
		c-0.08,0.14-0.16,0.28-0.24,0.41c0.18,0.15,0.29,0.3,0.34,0.46c0.05,0.15,0.04,0.35-0.01,0.61c-0.04,0.2-0.07,0.52-0.08,0.96
		c-0.02,0.44-0.02,0.98,0,1.65c0,0.19,0,0.34,0,0.46c0,0.12,0,0.23-0.01,0.32s-0.02,0.17-0.04,0.24c-0.02,0.07-0.04,0.15-0.07,0.24
		c-0.07,0.23-0.18,0.36-0.33,0.39c-0.15,0.03-0.31-0.09-0.5-0.35c-0.13-0.19-0.2-0.37-0.21-0.55c0-0.18,0.06-0.41,0.2-0.69
		c0.06-0.13,0.11-0.34,0.13-0.63c0.03-0.29,0.05-0.67,0.07-1.16c0.01-0.23,0.02-0.45,0.02-0.65c0-0.2,0-0.39-0.01-0.56
		c-0.17,0.2-0.36,0.38-0.55,0.54c-0.2,0.16-0.42,0.32-0.67,0.48c-0.15,0.09-0.27,0.15-0.35,0.18c-0.08,0.02-0.12,0.02-0.13-0.01
		c-0.01-0.03,0-0.08,0.04-0.16c0.04-0.08,0.1-0.17,0.19-0.26c0.19-0.22,0.34-0.42,0.46-0.59c0.12-0.17,0.23-0.34,0.33-0.49
		c0.09-0.15,0.18-0.31,0.25-0.46c0.08-0.15,0.16-0.31,0.25-0.5c0.2-0.41,0.33-0.76,0.4-1.03c0.07-0.27,0.08-0.48,0.03-0.63
		c-0.08-0.23-0.04-0.36,0.11-0.39c0.15-0.03,0.42,0.07,0.8,0.3c0.13,0.09,0.24,0.16,0.31,0.23c0.08,0.06,0.13,0.12,0.16,0.19
		s0.03,0.12,0,0.17S50.78,2.95,50.72,3.02z M56.78,8.65c-0.33,0.13-0.6,0.22-0.79,0.28c-0.19,0.06-0.36,0.08-0.5,0.08
		c-0.14-0.01-0.27-0.06-0.39-0.14c-0.12-0.08-0.27-0.2-0.45-0.35c-0.17-0.15-0.35-0.31-0.54-0.46s-0.38-0.32-0.59-0.49
		c0.07,0.2,0.11,0.4,0.14,0.61c0.03,0.2,0.04,0.4,0.04,0.59c0,0.19-0.01,0.35-0.02,0.48c-0.01,0.13-0.04,0.25-0.07,0.35
		c-0.03,0.1-0.07,0.2-0.13,0.29s-0.12,0.17-0.21,0.26c-0.2,0.21-0.38,0.33-0.54,0.33c-0.16,0.01-0.26-0.06-0.32-0.22
		c-0.05-0.13-0.14-0.26-0.26-0.39c-0.12-0.13-0.24-0.23-0.35-0.31c-0.12-0.09-0.21-0.17-0.27-0.24c-0.06-0.07-0.08-0.13-0.07-0.17
		c0.01-0.04,0.06-0.07,0.14-0.07c0.08-0.01,0.21,0.01,0.38,0.05c0.27,0.07,0.44,0.09,0.53,0.06s0.14-0.12,0.17-0.25
		c0.05-0.21,0.08-0.41,0.08-0.59c0-0.19-0.02-0.41-0.07-0.66c-0.11,0.18-0.24,0.34-0.38,0.5s-0.29,0.29-0.46,0.41
		c-0.17,0.12-0.37,0.23-0.58,0.33c-0.22,0.1-0.46,0.19-0.72,0.28c-0.33,0.11-0.51,0.12-0.54,0.04c-0.03-0.08,0.08-0.2,0.33-0.35
		c0.22-0.14,0.42-0.28,0.61-0.41c0.19-0.13,0.36-0.28,0.53-0.43c0.16-0.16,0.32-0.33,0.46-0.52c0.15-0.19,0.29-0.41,0.43-0.67
		c-0.01-0.01-0.02-0.03-0.03-0.04c-0.01-0.02-0.02-0.03-0.04-0.04c-0.16,0.18-0.31,0.33-0.44,0.45s-0.26,0.22-0.38,0.31
		c-0.13,0.09-0.26,0.16-0.41,0.23c-0.14,0.06-0.3,0.13-0.48,0.19c-0.32,0.11-0.49,0.13-0.52,0.06s0.08-0.18,0.29-0.33
		c0.17-0.11,0.32-0.22,0.46-0.32c0.14-0.1,0.26-0.2,0.38-0.31s0.22-0.22,0.33-0.34s0.21-0.26,0.32-0.42L51.8,6.26
		c-0.12,0.08-0.25,0.15-0.41,0.22c-0.15,0.07-0.29,0.12-0.42,0.15c-0.38,0.09-0.59,0.11-0.63,0.04c-0.04-0.07,0.1-0.19,0.43-0.36
		c0.19-0.11,0.38-0.23,0.58-0.37c0.19-0.14,0.35-0.28,0.49-0.42l-0.08,0.01c-0.06,0.07-0.12,0.12-0.2,0.15
		c-0.07,0.03-0.14,0.03-0.21,0c-0.07-0.03-0.13-0.08-0.18-0.17c-0.06-0.08-0.1-0.2-0.12-0.34c-0.03-0.13-0.07-0.27-0.14-0.42
		s-0.13-0.26-0.19-0.33c-0.21-0.24-0.29-0.39-0.25-0.44c0.04-0.06,0.22-0.07,0.54-0.03c0.06,0.01,0.12,0.02,0.17,0.02
		s0.1,0,0.16,0.01c0.28-0.03,0.53-0.06,0.75-0.09c0.22-0.03,0.42-0.05,0.59-0.08c0.15-0.17,0.27-0.32,0.37-0.44
		c0.1-0.12,0.22-0.27,0.36-0.44C53.3,2.96,53.21,2.99,53.13,3s-0.16,0.03-0.24,0.03c-0.08,0-0.16,0-0.25,0
		c-0.09,0-0.19-0.01-0.3-0.03c-0.11,0.13-0.24,0.24-0.39,0.34s-0.35,0.21-0.61,0.33c-0.31,0.14-0.46,0.19-0.46,0.13
		c0-0.05,0.09-0.18,0.29-0.4c0.28-0.3,0.49-0.57,0.63-0.82s0.21-0.45,0.2-0.6c-0.01-0.12-0.02-0.21-0.01-0.28
		c0.01-0.07,0.04-0.11,0.08-0.13c0.04-0.02,0.11-0.02,0.2,0.01c0.09,0.03,0.2,0.07,0.34,0.14c0.34,0.16,0.53,0.29,0.56,0.39
		c0.03,0.1-0.04,0.2-0.22,0.3c-0.05,0.03-0.1,0.06-0.15,0.1c-0.05,0.04-0.1,0.08-0.15,0.13c0.21-0.05,0.39-0.1,0.53-0.15
		s0.26-0.12,0.37-0.21c0.11-0.09,0.22-0.13,0.32-0.12c0.1,0.01,0.26,0.07,0.48,0.19c0.31,0.17,0.47,0.31,0.47,0.4
		s-0.11,0.18-0.32,0.25c-0.1,0.03-0.23,0.1-0.4,0.2s-0.42,0.25-0.75,0.47c0.18-0.04,0.33-0.08,0.46-0.11
		c0.13-0.04,0.25-0.08,0.36-0.12c0.11-0.04,0.19-0.07,0.26-0.09c0.07-0.02,0.13-0.03,0.19-0.02c0.06,0.01,0.13,0.02,0.2,0.05
		c0.07,0.03,0.16,0.08,0.28,0.15c0.16,0.09,0.28,0.18,0.35,0.25c0.08,0.07,0.12,0.13,0.14,0.19c0.01,0.06,0,0.12-0.05,0.17
		c-0.05,0.05-0.12,0.1-0.21,0.15c-0.04,0.02-0.08,0.04-0.11,0.07c-0.04,0.03-0.08,0.07-0.12,0.12c-0.04,0.05-0.1,0.12-0.16,0.21
		c-0.06,0.08-0.13,0.19-0.22,0.31c-0.21,0.31-0.4,0.48-0.56,0.51s-0.29-0.03-0.39-0.18c-0.02-0.03-0.1-0.04-0.25-0.02
		c-0.18,0.02-0.42,0.05-0.72,0.09c-0.16,0.19-0.35,0.38-0.56,0.55c0.13,0.07,0.24,0.13,0.33,0.18c0.09,0.05,0.16,0.11,0.22,0.17
		c0.06,0.06,0.12,0.12,0.17,0.19c0.05,0.07,0.1,0.14,0.15,0.23c0.03,0.02,0.07,0.04,0.11,0.07c0.28-0.23,0.48-0.41,0.59-0.55
		c0.11-0.14,0.17-0.25,0.18-0.33c0.01-0.19,0.08-0.31,0.2-0.35s0.3,0.01,0.54,0.15c0.35,0.2,0.54,0.35,0.56,0.46
		c0.02,0.11-0.09,0.19-0.34,0.26c-0.11,0.03-0.27,0.09-0.48,0.18c-0.21,0.09-0.49,0.22-0.85,0.4c0.29,0.16,0.55,0.3,0.78,0.42
		c0.23,0.12,0.46,0.22,0.69,0.3c0.23,0.09,0.47,0.16,0.73,0.23c0.26,0.07,0.57,0.13,0.92,0.2c0.32,0.06,0.48,0.13,0.49,0.21
		C57.23,8.44,57.08,8.54,56.78,8.65z M52.54,4.23c-0.31,0.05-0.61,0.09-0.91,0.13c0.05,0.11,0.08,0.23,0.11,0.35
		c0.03,0.13,0.05,0.27,0.07,0.42c0.13-0.03,0.27-0.06,0.41-0.07C52.39,4.84,52.5,4.56,52.54,4.23z M54.12,4.22
		c0.01-0.07,0.02-0.12,0.01-0.14C54.11,4.06,54.07,4.05,54,4.06c-0.05,0-0.1,0-0.15,0s-0.09,0.01-0.14,0.02
		c-0.05,0.01-0.11,0.01-0.18,0.02c-0.07,0.01-0.15,0.01-0.24,0.02c0.15,0.09,0.22,0.18,0.23,0.25c0.01,0.07-0.03,0.15-0.12,0.23
		c-0.05,0.04-0.09,0.09-0.13,0.14s-0.08,0.11-0.13,0.18c0.11-0.02,0.19-0.03,0.25-0.04c0.06-0.01,0.12-0.01,0.16-0.01s0.07,0,0.09,0
		s0.05,0,0.08,0.01c0.09,0.01,0.14,0.02,0.16,0c0.02-0.01,0.04-0.04,0.07-0.1c0.03-0.09,0.06-0.18,0.09-0.27
		C54.07,4.41,54.1,4.32,54.12,4.22z"/>
</g>
<g>
	<path fill="#FFFFFF" d="M9.68,11.05h0.06c0,0,0-0.01,0-0.01H9.68C9.68,11.04,9.68,11.05,9.68,11.05z"/>
	<path fill="#FFFFFF" d="M10.08,10.97h-0.07c-0.02,0.04-0.12,0.05-0.16,0.07H9.74c0.01,0.01,0.02,0.01,0.03,0.02H9.7
		c0,0,0,0.01,0,0.01H9.65c0,0,0,0.01,0,0.01H9.6c-0.01,0.01-0.03,0.01-0.04,0.02H9.46c0,0,0,0.01,0,0.01H9.41c0,0,0,0.01,0,0.01
		H9.34c0,0,0,0.01,0,0.01H8.15c0,0,0-0.01,0-0.01h-0.1C8.03,11.12,8.02,11.11,8,11.11H7.96c0,0,0-0.01,0-0.01H7.9c0,0,0-0.01,0-0.01
		H7.85c0,0,0-0.01,0-0.01H7.78c0,0,0-0.01,0-0.01H7.74c0,0,0-0.01,0-0.01H7.65c0,0,0-0.01,0-0.01H7.62c0,0,0-0.01,0-0.01H7.56
		c-0.06-0.06-0.2-0.06-0.27-0.09c-0.09-0.03-0.18-0.07-0.27-0.1c-0.09-0.03-0.18-0.07-0.27-0.1c-0.09-0.04-0.18-0.09-0.27-0.13
		c-0.17-0.08-0.33-0.18-0.48-0.29c-0.04-0.03-0.08-0.06-0.12-0.08c-0.04-0.03-0.06-0.05-0.1-0.08c-0.04-0.03-0.08-0.07-0.12-0.1
		c0-0.01,0-0.02-0.01-0.01c0,0-0.01,0-0.01,0C5.61,10.02,5.59,10.01,5.58,10C5.56,9.99,5.54,9.98,5.53,9.96
		C5.46,9.9,5.39,9.84,5.31,9.77C5.28,9.73,5.25,9.7,5.21,9.66C5.2,9.64,5.18,9.63,5.16,9.61C5.15,9.61,5.14,9.6,5.13,9.59
		c0,0-0.02-0.02-0.02-0.02C5.05,9.49,4.99,9.43,4.92,9.35c-0.03-0.04-0.07-0.08-0.1-0.12c0,0-0.02-0.03-0.02-0.03
		c0-0.01,0-0.02,0-0.03C4.79,9.16,4.78,9.16,4.78,9.15C4.77,9.14,4.76,9.13,4.75,9.13C4.71,9.09,4.69,9.05,4.66,9.01
		C4.64,8.97,4.61,8.93,4.59,8.89C4.56,8.85,4.55,8.81,4.52,8.77C4.48,8.73,4.46,8.69,4.44,8.65c0-0.01-0.01-0.03-0.01-0.03
		C4.42,8.6,4.42,8.6,4.41,8.59C4.39,8.57,4.39,8.56,4.38,8.53c0-0.01-0.03-0.04-0.03-0.04C4.34,8.47,4.33,8.45,4.32,8.43
		C4.3,8.41,4.29,8.39,4.28,8.37C4.28,8.35,4.27,8.34,4.26,8.33c0-0.01,0-0.02,0-0.02C4.25,8.27,4.21,8.24,4.19,8.2
		c0-0.01-0.01-0.02-0.01-0.03c0,0-0.01-0.03-0.01-0.03C4.17,8.12,4.16,8.12,4.16,8.11c0,0-0.01-0.03-0.01-0.03
		C4.14,8.05,4.12,8.04,4.11,8.02C4.11,8,4.1,7.98,4.09,7.96C4.05,7.88,4.02,7.8,3.99,7.72C3.98,7.67,3.96,7.63,3.95,7.59
		c-0.01-0.02,0-0.04-0.01-0.06c0-0.01,0-0.02-0.01-0.03c0-0.01-0.01-0.02-0.02-0.03C3.91,7.46,3.9,7.44,3.9,7.41
		c0-0.01,0-0.02,0-0.03c0-0.01-0.01-0.01-0.01-0.02c0-0.02-0.01-0.05-0.01-0.06c0-0.03-0.01-0.03,0.03-0.04h0.1c0,0,0-0.01,0-0.01
		h0.08c0,0,0,0.01,0,0.01h0.17C4.29,7.27,4.3,7.29,4.32,7.31c0,0,0.01,0.01,0.01,0.01c0,0-0.01,0.01-0.01,0.01
		c0.01,0.01,0.02,0.01,0.03,0.02c0,0.01,0,0.02,0.01,0.03C4.36,7.4,4.38,7.4,4.38,7.41c0,0,0.01,0.04,0.01,0.03
		c0,0.01,0.01,0.02,0.01,0.03c0,0.01,0,0.02,0,0.03c0,0.01,0.01,0.02,0.02,0.03c0.01,0.02,0.01,0.04,0.02,0.06
		C4.45,7.63,4.47,7.67,4.48,7.7c0.03,0.08,0.07,0.16,0.1,0.24C4.59,7.96,4.6,7.97,4.61,7.99c0,0,0.02,0.04,0.02,0.03
		c0,0.01,0,0.02,0,0.03c0.01,0.02,0.03,0.03,0.04,0.04c0.01,0.02,0.02,0.03,0.02,0.06h0.02c0,0,0,0.01,0,0.01h0.02
		c0,0,0,0.01,0,0.01h2.53c0,0,0,0.01,0,0.01h0.09c0.05,0.03,0.1,0.07,0.13,0.12C7.5,8.32,7.51,8.34,7.51,8.36c0,0.01,0,0.02,0,0.03
		c0,0.01-0.01,0.02-0.01,0.03C7.49,8.47,7.49,8.51,7.47,8.55C7.46,8.58,7.44,8.58,7.42,8.6C7.4,8.62,7.39,8.64,7.37,8.65H7.22
		c0,0,0,0.01,0,0.01H7.15c0,0,0-0.01,0-0.01h-0.2c0,0,0,0.01,0,0.01H6.42c0,0,0-0.01,0-0.01c0,0,0-0.01,0-0.01H6.24
		c0,0,0,0.01,0,0.01H6.07c0,0,0,0.01,0,0.01H5.8c0,0,0-0.01,0-0.01H5.35c0,0,0,0.01,0,0.01H5.07c0,0,0,0.01,0,0.01H5.06
		c0,0,0,0.01,0,0.01H5.05c0.01,0.01,0,0.02,0.01,0.04c0.01,0.02,0.02,0.03,0.03,0.04C5.11,8.8,5.13,8.83,5.15,8.86
		c0.02,0.03,0.04,0.06,0.07,0.09C5.24,8.98,5.26,9,5.29,9.03C5.3,9.06,5.32,9.09,5.34,9.11C5.36,9.13,5.38,9.15,5.4,9.17
		C5.43,9.2,5.45,9.23,5.48,9.25C5.5,9.27,5.54,9.31,5.54,9.34h0.01c0,0,0.01,0,0.01-0.01c0,0.03,0.06,0.07,0.08,0.09
		c0.03,0.03,0.06,0.07,0.08,0.09c0.01,0.01,0.02,0.01,0.03,0.02c0,0,0.01,0.02,0.01,0.02c0,0,0.01,0.01,0.01,0.01
		c0,0,0.02,0.01,0.02,0.01c0.01,0.01,0,0.01,0.01,0.02C5.81,9.6,5.82,9.6,5.83,9.61c0.01,0.01,0.03,0.02,0.01,0.04h0.01
		c0,0,0.01-0.01,0.02-0.01c0,0.03,0.05,0.05,0.07,0.06c0.03,0.02,0.06,0.05,0.1,0.07C6.1,9.82,6.16,9.86,6.22,9.9
		c0.06,0.04,0.11,0.09,0.17,0.13c0.03,0.02,0.06,0.02,0.08,0.04c0.03,0.02,0.05,0.03,0.08,0.04c0.11,0.05,0.21,0.11,0.33,0.16
		c0.1,0.04,0.2,0.1,0.32,0.13c0.11,0.03,0.23,0.06,0.33,0.11h0.03c0,0,0,0.01,0,0.01h0.07c0.04,0.02,0.09,0.03,0.13,0.04h0.03
		c0,0,0,0.01,0,0.01h0.12c0.01,0.01,0.03,0.01,0.04,0.02h0.04c0,0,0,0.01,0,0.01h0.08c0,0,0,0.01,0,0.01h0.06c0,0,0,0.01,0,0.01
		h0.07c0,0,0,0.01,0,0.01h0.06c0,0,0,0.01,0,0.01h0.98c0,0,0-0.01,0-0.01h0.07c0,0,0-0.01,0-0.01h0.07c0,0,0-0.01,0-0.01h0.07
		c0,0,0-0.01,0-0.01h0.2c0,0,0-0.01,0-0.01s0-0.01,0-0.01h0.01c0.01-0.01,0.03-0.01,0.04-0.02h0.06c0.01-0.01,0.01-0.01,0.02-0.02
		H9.72c-0.01,0.01-0.02,0.01-0.03,0.02H9.61c-0.01,0.01-0.03,0.01-0.04,0.02H9.5c0,0,0,0.01,0,0.01H9.43c0,0,0,0.01,0,0.01H9.36
		c0,0,0,0.01,0,0.01H9.29c0,0,0,0.01,0,0.01H9.23c0,0,0,0.01,0,0.01H8.27c0,0,0-0.01,0-0.01H8.22c0,0,0-0.01,0-0.01H8.15
		c0,0,0-0.01,0-0.01H8.09c0,0,0-0.01,0-0.01H8.02C8,10.6,7.99,10.59,7.97,10.58H7.93c0,0,0-0.01,0-0.01H7.8
		c-0.04-0.02-0.08-0.03-0.12-0.04H7.64c0,0,0-0.01,0-0.01H7.57c-0.12-0.06-0.25-0.09-0.38-0.13c-0.11-0.04-0.21-0.09-0.32-0.14
		c-0.12-0.05-0.22-0.11-0.34-0.17c-0.12-0.06-0.22-0.14-0.33-0.21C6.15,9.84,6.09,9.8,6.04,9.76C6.04,9.75,6.02,9.73,6.01,9.72
		C5.99,9.71,5.98,9.7,5.96,9.69C5.94,9.68,5.91,9.66,5.89,9.64H5.88c0,0,0,0,0,0c0.01-0.01,0,0-0.01-0.01
		C5.86,9.61,5.84,9.6,5.82,9.59C5.8,9.57,5.77,9.53,5.75,9.5C5.69,9.45,5.61,9.39,5.57,9.32h0c0,0-0.01-0.01-0.02-0.02
		C5.54,9.3,5.53,9.28,5.53,9.27C5.5,9.25,5.47,9.22,5.45,9.2C5.4,9.14,5.35,9.1,5.3,9.04C5.28,9.01,5.26,8.98,5.24,8.95
		C5.21,8.92,5.18,8.89,5.16,8.86C5.14,8.83,5.08,8.72,5.11,8.69h0.06c0,0,0-0.01,0-0.01h0.36c0,0,0-0.01,0-0.01h0.11
		c0,0,0,0.01,0,0.01h1.32c0,0,0-0.01,0-0.01h0.18c0,0,0,0.01,0,0.01h0.09c0,0,0-0.01,0-0.01H7.4c0,0,0-0.01,0-0.01h0.01
		c0.01-0.02,0.04-0.04,0.06-0.06c0.02-0.02,0.01-0.03,0.02-0.06C7.5,8.5,7.52,8.45,7.52,8.42c0-0.02,0-0.04,0-0.06
		c0-0.03,0-0.03-0.02-0.06C7.47,8.26,7.42,8.22,7.4,8.18H7.37c0,0,0-0.01,0-0.01H7.28c0,0,0-0.01,0-0.01H4.81c0,0,0-0.01,0-0.01
		H4.73C4.72,8.13,4.71,8.11,4.7,8.09C4.69,8.07,4.67,8.05,4.65,8.04C4.63,8,4.62,7.96,4.6,7.92C4.56,7.85,4.53,7.77,4.5,7.7
		C4.47,7.62,4.44,7.55,4.42,7.47C4.41,7.45,4.4,7.43,4.4,7.41C4.39,7.39,4.37,7.38,4.36,7.36C4.34,7.32,4.32,7.29,4.29,7.25H4.27
		c0,0,0-0.01,0-0.01c0,0,0-0.01,0-0.01H4c0,0,0,0.01,0,0.01H3.89c0,0,0,0.01,0,0.01H3.87c0,0.03,0.01,0.05,0.01,0.07
		c0,0.01,0,0.03,0,0.04c0,0.01,0.01,0.01,0.01,0.02c0,0.02,0,0.05,0,0.07c0.01,0,0.01,0.01,0.01,0.02c0,0.01,0,0.01,0,0.02
		c0,0.01,0.01,0.02,0.01,0.02c0,0.02,0,0.05,0.01,0.07C3.93,7.6,3.94,7.61,3.95,7.62c0,0.01,0,0.02,0,0.03
		c0,0.01,0.02,0.03,0.02,0.04c0,0.01,0,0.02,0,0.03C3.98,7.74,4,7.76,4,7.78c0.03,0.09,0.07,0.18,0.11,0.27
		c0.04,0.09,0.07,0.18,0.12,0.26c0.05,0.08,0.08,0.17,0.13,0.24C4.39,8.6,4.41,8.64,4.44,8.68C4.45,8.7,4.46,8.72,4.47,8.74
		c0.01,0.01,0,0.01,0.01,0.02c0,0,0.02,0.02,0.02,0.02C4.53,8.82,4.55,8.86,4.57,8.9C4.6,8.94,4.63,8.98,4.65,9.02
		C4.68,9.06,4.7,9.1,4.73,9.13c0.01,0.02,0.02,0.03,0.03,0.05C4.78,9.21,4.8,9.21,4.81,9.23c0.06,0.08,0.12,0.17,0.2,0.24
		c0.07,0.07,0.13,0.13,0.2,0.2c0.03,0.03,0.06,0.07,0.1,0.11c0.04,0.04,0.08,0.06,0.11,0.1C5.48,9.95,5.55,10,5.63,10.06
		c0.08,0.06,0.15,0.13,0.22,0.18c0.08,0.05,0.16,0.11,0.24,0.16c0.15,0.1,0.31,0.2,0.48,0.27c0.08,0.04,0.16,0.07,0.24,0.11
		c0.07,0.04,0.16,0.05,0.24,0.08c0.08,0.03,0.16,0.06,0.24,0.09c0.08,0.03,0.16,0.04,0.24,0.07h0.02c0,0,0,0.01,0,0.01h0.07
		c0,0,0,0.01,0,0.01h0.02c0,0,0,0.01,0,0.01h0.09c0,0,0,0.01,0,0.01h0.04c0,0,0,0.01,0,0.01h0.07c0,0,0,0.01,0,0.01h0.06
		c0,0,0,0.01,0,0.01h0.06c0.01,0.01,0.03,0.01,0.04,0.02h0.04c0,0,0,0.01,0,0.01h0.09c0,0,0,0.01,0,0.01h1.26c0,0,0-0.01,0-0.01
		h0.03c0,0,0-0.01,0-0.01h0.06c0,0,0-0.01,0-0.01h0.09c0,0,0-0.01,0-0.01h0.06c0.01-0.01,0.03-0.01,0.04-0.02h0.04
		c0,0,0-0.01,0-0.01h0.08c0,0,0-0.01,0-0.01h0.04c0.01-0.01,0.02-0.01,0.03-0.02h0.06C9.96,11,10.04,11,10.09,10.97h0.03
		c0.01-0.01,0.02-0.01,0.03-0.02h-0.04C10.1,10.96,10.09,10.97,10.08,10.97z"/>
	<path fill="#FFFFFF" d="M9.88,10.52h0.06c0,0,0-0.01,0-0.01h0.03c0,0,0-0.01,0-0.01h0.1c0,0,0-0.01,0-0.01s0-0.01,0-0.01h-0.03
		c0,0,0,0.01,0,0.01H9.96c0,0,0,0.01,0,0.01H9.92c0,0,0,0.01,0,0.01H9.87c0,0,0,0.01,0,0.01H9.82c0,0,0,0.01,0,0.01H9.77
		c0.02,0.01,0.05,0.01,0.04,0.03h0.01c0.01-0.01,0.01-0.02,0.01-0.03h0.04C9.88,10.53,9.88,10.53,9.88,10.52z"/>
	<path fill="#FFFFFF" d="M8.78,9.55c-0.01,0.02,0,0.05-0.01,0.07C8.76,9.64,8.76,9.65,8.76,9.68c0,0.02,0,0.04,0,0.06
		C8.76,9.76,8.78,9.78,8.79,9.8C8.82,9.84,8.86,9.85,8.9,9.89h0.03c0,0,0,0.01,0,0.01H9c0,0,0,0.01,0,0.01h2c0,0,0,0.01,0,0.01h0.03
		c0.02,0.01,0.06,0.03,0.06,0.06c0,0.02-0.02,0.03-0.04,0.04c-0.05,0.03-0.09,0.06-0.13,0.08c-0.09,0.05-0.18,0.08-0.26,0.13
		c-0.17,0.1-0.36,0.13-0.53,0.22h-0.03c-0.04,0.02,0,0.02,0.02,0.03h0.01c0.01-0.01,0.01-0.02,0.01-0.03h0.06
		c-0.01-0.04,0.21-0.09,0.24-0.1c0.09-0.03,0.18-0.08,0.26-0.12c0.08-0.05,0.18-0.08,0.26-0.13c0.04-0.02,0.08-0.05,0.12-0.08
		c0.03-0.02,0.03-0.03,0.04-0.06c0.01-0.02,0.04-0.03,0.03-0.05h-0.09c0,0,0-0.01,0-0.01h-0.04c0,0,0-0.01,0-0.01h-2
		c0,0,0-0.01,0-0.01H8.95C8.9,9.86,8.85,9.84,8.81,9.81C8.78,9.79,8.77,9.73,8.77,9.69c0-0.03,0.02-0.04,0.02-0.07
		c0.01-0.02,0-0.04,0.01-0.06c0.02-0.04,0.08-0.07,0.12-0.1H8.88C8.86,9.5,8.8,9.51,8.78,9.55z"/>
	<path fill="#FFFFFF" d="M9.69,9.45c0,0,0-0.01,0-0.01H9.65c0,0,0,0.01,0,0.01H9.69z"/>
	<path fill="#FFFFFF" d="M5.76,9.55C5.76,9.55,5.76,9.55,5.76,9.55C5.76,9.55,5.76,9.55,5.76,9.55z"/>
	<path fill="#FFFFFF" d="M3.96,6.98C3.98,7.04,4,7.11,4.07,7.15h0.08c0.01-0.02,0.02-0.03,0.03-0.04C4.19,7.1,4.2,7.08,4.2,7.07
		c0.02-0.03,0.02-0.06,0.03-0.09C4.26,6.92,4.27,6.86,4.27,6.8c0.01-0.01,0-0.03,0.01-0.04C4.29,6.75,4.3,6.74,4.32,6.73h0.07
		c0,0,0-0.01,0-0.01h0.06C4.5,6.7,4.57,6.69,4.63,6.65c0.06-0.04,0.06-0.11,0.02-0.17H4.64c0,0,0-0.01,0-0.01H4.62
		c0-0.01-0.01-0.01-0.01-0.02H4.57c0,0,0-0.01,0-0.01H4.53c0,0,0-0.01,0-0.01H4.47c0,0,0,0.01,0,0.01H4.4c0,0,0,0.01,0,0.01H4.34
		C4.32,6.45,4.31,6.46,4.29,6.47H4.28c0-0.04,0.01-0.05,0.05-0.06C4.36,6.4,4.39,6.39,4.42,6.38C4.47,6.36,4.57,6.35,4.6,6.3h0.01
		c0,0,0-0.01,0-0.01h0.01c0-0.03,0.01-0.05,0.01-0.07c0-0.03-0.03-0.04-0.04-0.07H4.57C4.56,6.14,4.54,6.13,4.53,6.12H4.42
		C4.39,6.13,4.36,6.14,4.34,6.15H4.33c0.01-0.03,0.05-0.04,0.08-0.06c0.03-0.02,0.05-0.04,0.08-0.07C4.5,6,4.53,5.97,4.53,5.94
		c0-0.03-0.05-0.06-0.07-0.08H4.44c0,0,0-0.01,0-0.01h0.19c0,0,0-0.01,0-0.01h0.06c0,0,0,0.01,0,0.01h0.17
		c0.02,0.03,0.02,0.03,0.02,0.07c0,0.02,0,0.04,0,0.07c0,0.05-0.01,0.08-0.01,0.13c0,0.05-0.01,0.09-0.01,0.13c0,0.02,0,0.05,0,0.07
		c0,0.03-0.01,0.04-0.01,0.07c0,0.09-0.02,0.18-0.03,0.27C4.8,6.7,4.8,6.74,4.79,6.79c0,0.01-0.01,0.03-0.01,0.03
		c0,0.01-0.01,0.03-0.01,0.03C4.75,6.87,4.72,6.88,4.7,6.89H4.56c0,0,0-0.01,0-0.01H4.47c0,0,0-0.01,0-0.01H4.43c0,0,0,0.01,0,0.01
		H4.41c0,0,0,0.01,0,0.01c0,0.1,0.07,0.17,0.13,0.24c0.04,0.04,0.08,0.08,0.12,0.11C4.69,7.26,4.7,7.28,4.73,7.29
		C4.75,7.3,4.77,7.31,4.79,7.33h0.04c0,0,0,0.01,0,0.01h0.04c0,0,0-0.01,0-0.01h0.06C5.02,7.27,5.08,7.2,5.12,7.12
		C5.16,7.05,5.2,6.97,5.2,6.89h0.01c0-0.09,0.04-0.18,0.06-0.26c0-0.02,0.01-0.05,0.01-0.07c0-0.02,0.01-0.04,0.01-0.06
		c0-0.01,0-0.02,0-0.03c0-0.01,0.01-0.02,0.01-0.03c0-0.01,0-0.02,0-0.03c0-0.01,0.01-0.02,0.01-0.03c0.01-0.05,0-0.09,0.01-0.13
		c0-0.01,0.01-0.02,0.01-0.03c0-0.01,0-0.02,0-0.03c0-0.01,0.01-0.02,0.01-0.03c0-0.01,0-0.02,0-0.03c0.01-0.09,0.03-0.17,0.03-0.26
		c0,0,0-0.01,0-0.01c0-0.01,0-0.03,0-0.04H5.37c0,0,0-0.01,0-0.01c0-0.03-0.02-0.05-0.04-0.07C5.31,5.69,5.27,5.67,5.26,5.65H5.25
		c0,0,0-0.01,0-0.01H5.23c0,0,0-0.01,0-0.01H5.2c0,0,0-0.01,0-0.01H5.19c0,0,0-0.01,0-0.01H5.17c0,0,0-0.01,0-0.01H5.14
		c0,0,0-0.01,0-0.01H5.1c0,0,0-0.01,0-0.01H5.07c0,0,0-0.01,0-0.01H5c0,0,0-0.01,0-0.01H4.81c0,0,0,0.01,0,0.01H4.6
		c0,0,0,0.01,0,0.01H4.47c0,0,0,0.01,0,0.01H4.38c0,0,0,0.01,0,0.01H4.29c0,0,0,0.01,0,0.01H4.2c0,0,0,0.01,0,0.01H4.14
		c0,0,0,0.01,0,0.01H4.07c0,0,0,0.01,0,0.01H4c0,0,0,0.01,0,0.01H3.98C3.99,5.63,4,5.61,4.01,5.59c0.01-0.01,0.03-0.03,0.03-0.05
		c0.02-0.03,0.04-0.07,0.04-0.11h0.06c0,0,0-0.01,0-0.01h0.08c0,0,0-0.01,0-0.01h0.07c0.11-0.04,0.22-0.06,0.32-0.1
		c0.06-0.03,0.12-0.06,0.13-0.13c0.01-0.07-0.03-0.1-0.06-0.15H4.68C4.65,5.01,4.63,5,4.61,4.99H4.56c0,0,0-0.01,0-0.01H4.42
		c0,0,0,0.01,0,0.01H4.36C4.33,5,4.29,5.01,4.26,5.03H4.25c0.01-0.01,0.01-0.05,0.02-0.06C4.28,4.95,4.3,4.93,4.31,4.9
		c0.01-0.02,0.02-0.04,0.02-0.07c0-0.02,0-0.04,0-0.06h2.55C6.9,4.8,6.88,4.87,6.88,4.9c0,0.02,0.01,0.04,0.01,0.07
		c0,0.02,0,0.04,0,0.07c0,0.09,0,0.18,0,0.26c0,0,0,0.01,0,0.01c0,0.02,0.01,0.05,0,0.07C6.89,5.4,6.86,5.41,6.83,5.42
		C6.79,5.43,6.74,5.45,6.7,5.46C6.66,5.47,6.6,5.47,6.56,5.5C6.49,5.53,6.54,5.58,6.55,5.63h0.01c0,0.01,0.01,0.01,0.01,0.02h0.01
		c0,0,0,0.01,0,0.01C6.6,5.69,6.64,5.72,6.67,5.74h0.04c0,0,0,0.01,0,0.01h0.1c0,0,0-0.01,0-0.01h0.07c0,0.05,0,0.1,0,0.15H6.87
		c0,0.02,0.01,0.06,0,0.08C6.86,5.98,6.81,5.99,6.79,6H6.68C6.62,6.02,6.59,6.04,6.57,6.1C6.56,6.14,6.56,6.18,6.56,6.23
		c0,0,0,0.01,0,0.01c0,0.04,0,0.08,0,0.11c0,0.02,0.01,0.04,0.01,0.06c0,0.02,0.01,0.03,0.01,0.05c0.01,0.06,0.04,0.13,0.07,0.17
		C6.67,6.67,6.68,6.7,6.72,6.73c0.03,0.02,0.06,0.04,0.09,0.06h0.07c0,0,0,0.01,0,0.01h0.03c0,0,0-0.01,0-0.01h0.04
		c0.1-0.05,0.22-0.07,0.33-0.1c0.05-0.02,0.12-0.02,0.16-0.06c0.04-0.04,0.03-0.1,0.03-0.16c0,0,0-0.01,0-0.01
		c0-0.02-0.01-0.03-0.01-0.06c0-0.02,0.02-0.04,0.02-0.06c0.01-0.03,0.04-0.08,0.03-0.11h0.01c0-0.02,0.01-0.04,0.01-0.06
		c0.01-0.02,0.01-0.03,0.01-0.06c0-0.05,0-0.08-0.02-0.12C7.49,5.93,7.4,5.91,7.34,5.88H7.21c0-0.05,0.01-0.09,0.01-0.15h0.01
		c0-0.03,0-0.05,0-0.08h0.06c0,0,0-0.01,0-0.01h0.06c0.01-0.01,0.03-0.01,0.04-0.02h0.06c0.05-0.05,0.11-0.07,0.1-0.15
		C7.54,5.41,7.5,5.35,7.43,5.31H7.38c0,0,0-0.01,0-0.01h-0.1c0-0.03,0.01-0.04,0.01-0.07c0-0.02,0-0.04,0-0.06
		c0-0.02,0.01-0.04,0.01-0.07c0-0.02,0-0.05,0-0.07C7.3,5.01,7.31,5,7.31,4.97c0-0.02,0-0.05,0-0.07c0.01-0.04,0.01-0.08,0.01-0.13
		h0.78c0,0,0-0.01,0-0.01h0.02C8.12,4.73,8.19,4.7,8.21,4.67C8.23,4.63,8.24,4.6,8.23,4.56C8.22,4.54,8.21,4.52,8.2,4.5
		c-0.01-0.02,0-0.04-0.02-0.06C8.14,4.42,8.1,4.41,8.06,4.39H8.04c0,0,0-0.01,0-0.01H7.98c0,0,0-0.01,0-0.01H7.77c0,0,0-0.01,0-0.01
		H7.5c0,0,0,0.01,0,0.01H6.07c0,0,0-0.01,0-0.01H5.89c0,0,0,0.01,0,0.01H4.64c0,0,0,0.01,0,0.01H4.5c0-0.04-0.04-0.07-0.04-0.11
		c0-0.01,0.02-0.04,0.02-0.06C4.48,4.2,4.48,4.18,4.48,4.17c0.03-0.08,0.07-0.15,0.1-0.22c0.03-0.07,0.07-0.14,0.1-0.21
		C4.7,3.7,4.73,3.67,4.75,3.64c0.02-0.03,0.04-0.07,0.06-0.11c0.02-0.04,0.06-0.06,0.08-0.1C4.9,3.41,4.92,3.37,4.93,3.34
		c0.01-0.02,0.02-0.04,0.03-0.06C4.97,3.27,4.99,3.26,5,3.24C5.02,3.21,5.04,3.2,5.07,3.16c0.02-0.03,0.05-0.06,0.08-0.09
		c0-0.01,0.02-0.01,0.02-0.01c0,0,0-0.02,0-0.02C5.18,3.03,5.2,3.02,5.21,3c0.02-0.03,0.04-0.06,0.06-0.08
		C5.29,2.9,5.33,2.88,5.34,2.85c0.01-0.01,0.01-0.03,0.03-0.05c0.01-0.01,0.04-0.02,0.05-0.04c0.02-0.02,0.05-0.06,0.07-0.08
		c0,0,0.02-0.01,0.03-0.01c0.01-0.01,0-0.01,0.01-0.02c0.01-0.01,0.02-0.03,0.04-0.04c0.02-0.02,0.05-0.04,0.07-0.06
		C5.65,2.53,5.67,2.51,5.68,2.5C5.68,2.5,5.7,2.5,5.7,2.49c0.01-0.01,0-0.01,0.01-0.02C5.74,2.46,5.77,2.44,5.8,2.41
		C5.86,2.36,5.91,2.3,5.98,2.26c0.06-0.04,0.13-0.07,0.19-0.12c0.03-0.02,0.06-0.05,0.09-0.07c0.03-0.02,0.05-0.03,0.08-0.04
		c0,0,0.02-0.02,0.02-0.02c0.01,0,0.02-0.01,0.02-0.01c0.01-0.01,0.03-0.01,0.04-0.02C6.46,1.94,6.48,1.92,6.51,1.9
		c0.06-0.04,0.13-0.06,0.2-0.09c0.07-0.03,0.11-0.05,0.18-0.08C6.96,1.7,7.01,1.67,7.08,1.64c0.07-0.02,0.13-0.05,0.2-0.07
		c0.06-0.01,0.15-0.02,0.19-0.06h0.06c0,0,0-0.01,0-0.01h0.03c0,0,0-0.01,0-0.01h0.06c0,0,0-0.01,0-0.01h0.02c0,0,0-0.01,0-0.01
		h0.06c0,0,0-0.01,0-0.01h0.03c0,0,0-0.01,0-0.01h0.06c0,0,0-0.01,0-0.01h0.06c0,0,0-0.01,0-0.01h0.08c0,0,0-0.01,0-0.01h0.03
		c0,0,0-0.01,0-0.01h0.06c0,0,0-0.01,0-0.01h0.16c0,0,0-0.01,0-0.01h0.1c0,0,0-0.01,0-0.01H8.4c0,0,0-0.01,0-0.01h0.09
		c0,0,0-0.01,0-0.01h0.09c0,0,0-0.01,0-0.01h0.16c0,0,0,0.01,0,0.01h0.08c0,0,0,0.01,0,0.01h0.11c0,0,0,0.01,0,0.01H9
		c0,0,0,0.01,0,0.01h0.07c0,0,0,0.01,0,0.01h0.13c0,0,0,0.01,0,0.01h0.12c0,0,0,0.01,0,0.01h0.03c0,0,0,0.01,0,0.01h0.11
		c0,0,0,0.01,0,0.01h0.03c0,0,0,0.01,0,0.01h0.06c0,0,0,0.01,0,0.01H9.6c0,0,0,0.01,0,0.01h0.06c0.05,0.02,0.1,0.04,0.16,0.06h0.02
		c0,0,0,0.01,0,0.01h0.06c0.02,0.01,0.04,0.02,0.07,0.03h0.02c0,0,0,0.01,0,0.01h0.07c0,0,0,0.01,0,0.01h0.03c0,0,0,0.01,0,0.01
		h0.06c0.01,0.02,0.06,0.04,0.08,0.05c0.03,0.02,0.06,0.03,0.09,0.04c0.06,0.02,0.12,0.05,0.18,0.08c0.05,0.02,0.1,0.04,0.16,0.07
		c0.03,0.01,0.06,0.02,0.08,0.04c0.03,0.01,0.05,0.03,0.08,0.06c0.03,0.02,0.05,0.03,0.08,0.04c0.03,0.01,0.05,0.03,0.08,0.05
		c0.05,0.03,0.11,0.06,0.16,0.1c0.1,0.08,0.22,0.15,0.31,0.23c0.02,0.01,0.03,0.03,0.04,0.04c0.01,0.01,0.01,0.01,0.03,0.02
		c0.03,0.02,0.05,0.03,0.07,0.06c0.02,0.03,0.12,0.09,0.08,0.14H8.89c0,0,0,0.01,0,0.01H8.7c0,0,0,0.01,0,0.01H8.67
		c-0.05,0.02-0.1,0.03-0.15,0.05c-0.04,0.02-0.09,0.09-0.1,0.13c-0.03,0.12,0.06,0.2,0.15,0.26h0.01c0,0,0,0.01,0,0.01h0.27
		c0,0,0,0.01,0,0.01h1.44c0,0,0,0.01,0,0.01h1.52c0,0,0-0.01,0-0.01h0.2c0,0,0,0.01,0,0.01h0.16c0.03,0.01,0.05,0.07,0.08,0.1
		c0.01,0.01,0.02,0.02,0.03,0.03c0.02,0.02,0.03,0.03,0.04,0.05c0.01,0.02,0.03,0.03,0.04,0.05c0.01,0.01,0.01,0.03,0.02,0.04
		c0.01,0.01,0.02,0.02,0.03,0.03c0.01,0.01,0.02,0.04,0.03,0.05c0.02,0.02,0.03,0.02,0.04,0.04c0.01,0.01,0.01,0.03,0.02,0.04
		c0.02,0.02,0.03,0.04,0.04,0.07c0.02,0.03,0.04,0.06,0.06,0.09c0.01,0.01,0.01,0.03,0.02,0.04c0,0.01,0.02,0.01,0.02,0.01
		c0,0.01,0,0.02,0,0.02c0.02,0.03,0.03,0.05,0.04,0.08c0,0,0,0.01,0,0.02c0,0.01,0.01,0.01,0.02,0.02c0.01,0.01,0.01,0.03,0.02,0.03
		c0.01,0.03,0.03,0.06,0.04,0.08c0.01,0.03,0.02,0.05,0.03,0.08c0.01,0.03,0.02,0.06,0.03,0.09c0.01,0.03,0.02,0.06,0.03,0.08
		c0.02,0.06,0.05,0.11,0.07,0.17c0.02,0.06,0.04,0.11,0.06,0.17c0.01,0.03,0.03,0.06,0.03,0.08c0,0.01,0,0.03,0,0.04
		c0,0.02,0.01,0.02,0.02,0.04h0.06c-0.02-0.01-0.04-0.01-0.06-0.03c-0.01-0.02-0.01-0.02-0.01-0.04c-0.01-0.04-0.02-0.07-0.03-0.1
		c-0.02-0.06-0.05-0.13-0.07-0.19c-0.01-0.02-0.01-0.03-0.02-0.04c0-0.01,0-0.02,0-0.02c0-0.01-0.02-0.01-0.02-0.02
		c-0.01-0.02-0.01-0.06-0.02-0.08c-0.03-0.06-0.05-0.12-0.07-0.17c-0.03-0.05-0.05-0.12-0.08-0.16c-0.01-0.01-0.01-0.04-0.02-0.05
		c0,0,0-0.01,0-0.02c0-0.01-0.02-0.01-0.02-0.01c-0.01-0.01-0.01-0.03-0.01-0.04c0-0.01-0.01-0.03-0.02-0.04
		c0,0-0.02-0.02-0.02-0.02c-0.01-0.01-0.01-0.01-0.01-0.02c-0.01-0.01-0.02-0.03-0.03-0.04c-0.02-0.03-0.03-0.06-0.05-0.08
		c-0.02-0.02-0.03-0.05-0.04-0.08c-0.01-0.03-0.04-0.04-0.06-0.07c-0.02-0.03-0.04-0.05-0.06-0.08c-0.02-0.03-0.04-0.06-0.06-0.08
		c-0.01-0.02-0.03-0.03-0.04-0.05c-0.01-0.01-0.02-0.02-0.03-0.03c-0.02-0.02-0.05-0.05-0.05-0.08h-0.02c0,0,0-0.01,0-0.01h-0.16
		c0,0,0-0.01,0-0.01h-0.22c0,0,0,0.01,0,0.01h-1.5c0,0,0-0.01,0-0.01H8.86c0,0,0-0.01,0-0.01H8.59C8.58,3.06,8.54,3.05,8.52,3.03
		C8.5,3.01,8.47,2.98,8.46,2.96C8.44,2.93,8.43,2.92,8.43,2.88c0-0.03,0-0.05,0.01-0.07C8.46,2.76,8.5,2.7,8.57,2.68
		c0.05-0.02,0.1-0.03,0.15-0.05H8.9c0,0,0-0.01,0-0.01h2.76c0,0,0-0.01,0-0.01h0.01c0-0.04,0-0.06-0.03-0.09
		C11.63,2.5,11.61,2.5,11.6,2.48c-0.01-0.01-0.01-0.03-0.02-0.04c-0.02-0.03-0.06-0.04-0.08-0.06c-0.03-0.02-0.04-0.07-0.06-0.09
		c-0.02-0.02-0.06-0.03-0.08-0.04c-0.03-0.02-0.05-0.04-0.08-0.06c-0.05-0.04-0.11-0.09-0.16-0.12C11.06,2.05,11,2.02,10.95,1.99
		C10.9,1.95,10.85,1.94,10.8,1.9c-0.09-0.07-0.21-0.1-0.32-0.15c-0.05-0.03-0.11-0.05-0.16-0.07c-0.05-0.02-0.1-0.05-0.16-0.07
		h-0.01c0,0,0-0.01,0-0.01h-0.06c0,0,0-0.01,0-0.01h-0.03c0,0,0-0.01,0-0.01H9.99C9.97,1.55,9.95,1.54,9.93,1.53H9.9
		c0,0,0-0.01,0-0.01H9.84C9.81,1.49,9.75,1.48,9.71,1.47H9.66c0,0,0-0.01,0-0.01H9.61c0,0,0-0.01,0-0.01H9.57c0,0,0-0.01,0-0.01
		H9.52c0,0,0-0.01,0-0.01H9.49c0,0,0-0.01,0-0.01H9.37c0,0,0-0.01,0-0.01H9.34c0,0,0-0.01,0-0.01H9.22c0,0,0-0.01,0-0.01H9.08
		c0,0,0-0.01,0-0.01H9.01c0,0,0-0.01,0-0.01H8.94c0,0,0-0.01,0-0.01H8.82c0,0,0-0.01,0-0.01H8.75c0,0,0-0.01,0-0.01H8.57
		c0,0,0,0.01,0,0.01H8.48c0,0,0,0.01,0,0.01H8.39c0,0,0,0.01,0,0.01H8.25c0,0,0,0.01,0,0.01h-0.1c0,0,0,0.01,0,0.01H7.99
		c0,0,0,0.01,0,0.01H7.94c0,0,0,0.01,0,0.01H7.9c0,0,0,0.01,0,0.01H7.83c0,0,0,0.01,0,0.01H7.77c0,0,0,0.01,0,0.01H7.71
		c0,0,0,0.01,0,0.01H7.68c0,0,0,0.01,0,0.01H7.62c0,0,0,0.01,0,0.01H7.6c0,0,0,0.01,0,0.01H7.55c0,0,0,0.01,0,0.01H7.51
		c0,0,0,0.01,0,0.01H7.46c0,0,0,0.01,0,0.01H7.43C7.37,1.54,7.29,1.55,7.21,1.57C7.14,1.6,7.06,1.63,7,1.66
		C6.86,1.73,6.73,1.78,6.58,1.85C6.51,1.88,6.46,1.93,6.39,1.96C6.33,2,6.28,2.02,6.22,2.07C6.11,2.16,5.97,2.23,5.86,2.33
		C5.83,2.36,5.8,2.4,5.76,2.42C5.75,2.43,5.73,2.44,5.72,2.45c0,0-0.02,0.03-0.02,0.03c-0.01,0.01-0.03,0-0.03,0.01
		c0,0-0.01,0.02-0.01,0.02C5.64,2.53,5.62,2.53,5.61,2.55C5.6,2.55,5.59,2.57,5.57,2.58C5.57,2.59,5.55,2.6,5.54,2.61
		C5.52,2.63,5.52,2.65,5.51,2.66c0,0-0.02,0-0.02,0.01c0,0-0.01,0.02-0.01,0.02C5.44,2.72,5.42,2.75,5.39,2.77
		C5.37,2.79,5.36,2.8,5.35,2.82C5.34,2.83,5.32,2.84,5.31,2.85C5.29,2.88,5.27,2.9,5.25,2.92C5.22,2.95,5.21,2.98,5.18,3.01
		C5.17,3.01,5.16,3.03,5.16,3.04C5.15,3.05,5.13,3.07,5.12,3.08c-0.05,0.06-0.1,0.11-0.15,0.17C4.94,3.31,4.9,3.37,4.86,3.44
		C4.84,3.47,4.81,3.5,4.79,3.54C4.78,3.57,4.76,3.6,4.74,3.63C4.7,3.68,4.67,3.75,4.64,3.81c-0.02,0.03-0.03,0.07-0.05,0.1
		C4.57,3.94,4.55,3.97,4.54,4C4.51,4.07,4.48,4.13,4.46,4.19c-0.01,0.03-0.02,0.06-0.02,0.1c0,0.03,0.03,0.06,0.04,0.09
		c0,0,0,0.01,0,0.01h0.17c0,0,0-0.01,0-0.01H5.9c0,0,0-0.01,0-0.01h0.16c0,0,0,0.01,0,0.01h1.46c0,0,0-0.01,0-0.01h0.25
		c0,0,0,0.01,0,0.01h0.21c0,0,0,0.01,0,0.01h0.06c0.03,0.03,0.09,0.03,0.12,0.06c0.03,0.02,0.04,0.07,0.06,0.11
		c0.01,0.02,0.01,0.01,0.01,0.03c0,0,0.01,0.01,0.01,0.01C8.22,4.6,8.22,4.61,8.21,4.62c0,0.02-0.01,0.04-0.02,0.06
		C8.18,4.68,8.17,4.69,8.16,4.7C8.15,4.71,8.14,4.72,8.14,4.72C8.13,4.73,8.12,4.73,8.12,4.73c-0.01,0.01,0,0.02-0.02,0.03H7.3
		c0.02-0.08-0.15-0.11-0.2-0.13H6.93C6.92,4.64,6.9,4.64,6.9,4.65c0,0.01,0,0.03-0.01,0.04c-0.01,0-0.01,0.01-0.02,0.01
		c0,0.01,0,0.01,0,0.02c0,0.01,0,0.03,0,0.04H4.32C4.34,4.75,4.31,4.71,4.29,4.7C4.29,4.69,4.28,4.68,4.27,4.67
		c0,0-0.02-0.02-0.02-0.02C4.21,4.63,4.16,4.62,4.13,4.6H3.89C3.88,4.61,3.87,4.62,3.86,4.62c0.01-0.01,0-0.02,0-0.04H3.85
		c0,0.02,0.02,0.03,0,0.04h0c-0.01,0-0.02,0.01-0.02,0.01c0.02-0.03,0-0.07,0.01-0.1c0-0.02,0.02-0.04,0.02-0.06
		c0.01-0.02,0-0.04,0.01-0.06C3.88,4.38,3.9,4.35,3.91,4.31c0-0.02,0.01-0.04,0.02-0.06c0.01-0.02,0.02-0.03,0.03-0.05
		C3.98,4.13,4,4.06,4.04,3.99c0.02-0.03,0.02-0.07,0.03-0.11C4.09,3.84,4.1,3.8,4.13,3.77c0.02-0.03,0.03-0.07,0.06-0.1
		C4.2,3.64,4.22,3.61,4.24,3.58C4.27,3.53,4.3,3.45,4.33,3.39c0.02-0.03,0.04-0.07,0.06-0.1c0.02-0.03,0.04-0.06,0.06-0.1
		C4.47,3.16,4.5,3.14,4.52,3.11c0.02-0.03,0.04-0.06,0.06-0.08c0.06-0.06,0.1-0.13,0.14-0.18c0.02-0.03,0.04-0.07,0.07-0.1
		c0.01-0.01,0.03-0.02,0.04-0.03c0,0,0.02-0.01,0.02-0.02c0-0.01,0-0.02,0-0.02c0.03-0.04,0.07-0.06,0.1-0.1
		c0.01-0.01,0.02-0.03,0.03-0.04C4.99,2.52,5,2.5,5.01,2.49c0.01-0.01,0.02-0.03,0.03-0.04c0.01-0.01,0.03-0.02,0.04-0.03
		C5.1,2.41,5.11,2.39,5.12,2.38c0.02-0.01,0.03-0.03,0.05-0.04c0.01-0.01,0.01-0.01,0.02-0.02c0.01,0,0.02,0,0.02-0.01
		c0,0,0.01-0.02,0.01-0.02c0,0,0.01-0.01,0.02-0.02c0.01-0.01,0-0.01,0.01-0.02c0.01,0,0.02,0,0.02-0.01
		C5.29,2.23,5.29,2.21,5.3,2.2c0.05-0.06,0.1-0.11,0.17-0.16C5.53,1.99,5.6,1.94,5.65,1.9c0.06-0.05,0.12-0.08,0.18-0.13
		C5.97,1.68,6.07,1.6,6.2,1.52C6.23,1.5,6.27,1.5,6.3,1.48c0.02-0.01,0.03-0.03,0.04-0.03c0.01-0.01,0.02-0.01,0.04-0.02
		c0.07-0.02,0.13-0.07,0.2-0.1h0.06C6.63,1.29,6.75,1.26,6.78,1.25C6.84,1.23,6.89,1.2,6.95,1.18C7,1.16,7.05,1.14,7.11,1.12
		C7.16,1.1,7.22,1.09,7.28,1.06h0.07c0,0,0-0.01,0-0.01c0.01,0,0.01,0,0.02,0.01h0.02c0-0.02,0.03-0.03,0.04-0.03h0.01
		c0,0,0-0.01,0-0.01H7.41c0,0,0,0.01,0,0.01H7.36C7.33,1.04,7.32,1.05,7.33,1.05H7.27c0,0,0,0.01,0,0.01H7.23
		C7.12,1.1,7.01,1.14,6.9,1.18c-0.11,0.04-0.22,0.1-0.33,0.15H6.54C6.51,1.35,6.46,1.38,6.42,1.39C6.41,1.4,6.39,1.41,6.37,1.42
		C6.35,1.43,6.34,1.43,6.33,1.44C6.26,1.49,6.18,1.51,6.12,1.56C6.1,1.57,6.08,1.58,6.07,1.59c0,0-0.02,0.01-0.02,0.01
		c0,0-0.01,0.02-0.01,0.01C6,1.64,5.96,1.67,5.93,1.69C5.89,1.72,5.86,1.74,5.82,1.76C5.78,1.78,5.74,1.8,5.71,1.83
		C5.7,1.84,5.68,1.86,5.67,1.87C5.65,1.88,5.64,1.88,5.62,1.89C5.6,1.91,5.57,1.95,5.54,1.97c-0.06,0.05-0.13,0.1-0.19,0.15
		C5.34,2.13,5.33,2.15,5.32,2.16C5.31,2.18,5.29,2.18,5.28,2.2C5.24,2.22,5.22,2.25,5.19,2.28c-0.05,0.06-0.1,0.11-0.16,0.16
		C5.03,2.44,5.02,2.47,5.01,2.47C4.99,2.49,4.98,2.5,4.97,2.51C4.94,2.54,4.92,2.57,4.89,2.6C4.83,2.66,4.78,2.72,4.73,2.78
		C4.72,2.8,4.71,2.82,4.7,2.83C4.7,2.85,4.68,2.86,4.68,2.87C4.66,2.9,4.63,2.93,4.61,2.96C4.59,2.99,4.56,3.02,4.54,3.05
		C4.53,3.06,4.52,3.08,4.51,3.1C4.5,3.1,4.5,3.12,4.5,3.12c0,0.01-0.02,0-0.02,0.01c-0.02,0.03-0.04,0.06-0.06,0.1
		C4.4,3.24,4.4,3.26,4.38,3.28C4.38,3.28,4.37,3.29,4.36,3.3c0,0.01,0,0.02,0,0.02C4.35,3.34,4.33,3.35,4.32,3.37
		C4.31,3.39,4.31,3.4,4.3,3.42c-0.02,0.03-0.03,0.06-0.05,0.1c-0.01,0.01,0,0.04-0.01,0.05c0,0.01-0.02,0.02-0.03,0.03
		c-0.02,0.03-0.05,0.06-0.06,0.1C4.12,3.75,4.08,3.81,4.06,3.88C4.05,3.9,4.04,3.91,4.04,3.93c0,0.01,0,0.03-0.01,0.04
		C4.01,4,4.01,4.01,4,4.03C4,4.04,3.98,4.06,3.98,4.07c0,0.02-0.01,0.03-0.01,0.05c0,0.01-0.01,0.03-0.02,0.04
		C3.94,4.2,3.93,4.23,3.91,4.26C3.91,4.28,3.9,4.3,3.9,4.31C3.89,4.32,3.88,4.35,3.88,4.36c-0.01,0.03-0.02,0.06-0.03,0.1
		c-0.01,0.03-0.01,0.06-0.02,0.1C3.82,4.57,3.82,4.58,3.81,4.6c0,0.01-0.01,0.02-0.01,0.04h0.02C3.8,4.64,3.79,4.66,3.79,4.68
		c0,0.02,0,0.05,0.01,0.06c0,0,0,0,0.01,0H3.79c0,0.01,0,0.01,0,0.02h0.03c0-0.01,0-0.01,0-0.02c0.01,0,0.02,0,0.01,0.02
		c0,0,0,0.01,0,0.01c0,0.02-0.01,0.04-0.01,0.06c0,0.02,0,0.05,0,0.07c0,0.01-0.01,0.02-0.01,0.03c0,0.01,0,0.02,0,0.03
		C3.81,4.99,3.8,5,3.8,5.03C3.78,5.05,3.79,5.09,3.78,5.11c-0.01,0.02,0,0.02-0.02,0.03C3.74,5.15,3.73,5.15,3.71,5.16
		C3.66,5.18,3.6,5.19,3.54,5.2C3.5,5.22,3.4,5.22,3.4,5.28c0,0.06,0.12,0.09,0.16,0.13h0.02c0,0,0,0.01,0,0.01h0.03
		c0,0,0,0.01,0,0.01h0.02C3.65,5.44,3.69,5.45,3.7,5.46c0.01,0.01-0.01,0.05-0.01,0.06C3.68,5.54,3.67,5.56,3.67,5.58
		C3.66,5.6,3.66,5.63,3.64,5.65c0,0.1-0.16,0.11-0.24,0.13H3.35c0,0,0,0.01,0,0.01H3.12C3.1,5.8,3.08,5.82,3.07,5.84H3.06
		c0,0,0,0.01,0,0.01c0,0,0,0.01,0,0.01H3.05c0,0,0,0.01,0,0.01H3.04c0,0,0,0.01,0,0.01c0,0,0,0.01,0,0.01c0,0,0,0.01,0,0.01H3.03
		c0,0,0,0.01,0,0.01c0,0,0,0.01,0,0.01c0,0.22,0.02,0.43,0.04,0.63c0.01,0.1,0.03,0.21,0.04,0.31c0.01,0.06,0.01,0.11,0.04,0.16
		C3.19,7.1,3.23,7.13,3.3,7.16h0.12C3.45,7.13,3.48,7.12,3.5,7.09c0.01-0.03,0.02-0.05,0.02-0.08c0-0.01,0.01-0.02,0.01-0.04
		c0-0.01,0-0.03,0-0.04c0-0.02-0.01-0.02-0.01-0.04c0-0.01,0-0.03,0-0.04C3.51,6.8,3.5,6.75,3.5,6.7c0-0.02,0-0.05,0-0.07
		c0-0.02-0.01-0.04-0.01-0.07c0-0.03-0.01-0.05-0.01-0.07c0-0.02,0-0.05,0-0.07c0-0.02-0.01-0.04-0.01-0.07c0-0.01,0-0.02,0-0.03
		c0-0.01-0.01-0.02-0.01-0.03c0-0.02,0-0.05,0-0.08c0-0.03-0.01-0.04-0.01-0.07c-0.01-0.07,0.03-0.09,0.09-0.1
		c0.1-0.03,0.2-0.06,0.29-0.09h0.06c0,0,0-0.01,0-0.01h0.06c0,0,0-0.01,0-0.01h0.06c0,0,0-0.01,0-0.01h0.06c0,0,0-0.01,0-0.01H4.1
		c0,0,0-0.01,0-0.01h0.08c0,0,0-0.01,0-0.01h0.01c0,0.02-0.01,0.05-0.01,0.07c0,0.02-0.02,0.05-0.03,0.07
		C4.14,6.02,4.14,6.03,4.13,6.04c0,0.01-0.02,0.03-0.02,0.03C4.1,6.1,4.07,6.13,4.07,6.15H4.06C4.04,6.19,4.03,6.2,3.99,6.21
		C3.96,6.22,3.93,6.23,3.9,6.23C3.84,6.25,3.78,6.26,3.72,6.29H3.67c0,0,0,0.01,0,0.01H3.61C3.58,6.31,3.55,6.32,3.55,6.36
		c0,0.03,0.02,0.04,0.04,0.06c0.05,0.02,0.1,0.03,0.15,0.05h0.07c0,0,0,0.01,0,0.01h0.1c0,0.06-0.03,0.05-0.08,0.07
		C3.79,6.55,3.75,6.56,3.71,6.58C3.68,6.59,3.62,6.6,3.59,6.62c-0.06,0.04,0,0.08,0.03,0.11h0.01c0,0,0,0.01,0,0.01h0.02
		C3.7,6.77,3.76,6.78,3.81,6.8h0.11C3.92,6.86,3.94,6.92,3.96,6.98z M7.16,6.29c0,0.02-0.02,0.04-0.02,0.06
		C7.14,6.37,7.13,6.4,7.12,6.42C7.1,6.43,7.07,6.44,7.05,6.45H6.98c0,0,0,0.01,0,0.01H6.95C6.91,6.45,6.89,6.37,6.9,6.33
		C6.9,6.27,6.95,6.26,7.01,6.24h0.07c0,0,0-0.01,0-0.01h0.07C7.16,6.25,7.17,6.26,7.16,6.29z"/>
	<path fill="#FFFFFF" d="M10.33,6.75c0.05,0.07,0.1,0.13,0.17,0.17h0.06c0.07-0.05,0.1-0.12,0.09-0.21c0-0.01-0.02-0.05-0.02-0.06
		c-0.01-0.02-0.03-0.04-0.05-0.05c-0.03-0.02-0.07-0.03-0.11-0.04h-0.12c0,0,0-0.01,0-0.01h-0.06c0,0,0,0.01,0,0.01h-0.03
		c-0.02,0.04-0.02,0.06,0.01,0.1C10.28,6.69,10.3,6.72,10.33,6.75z"/>
	<path fill="#FFFFFF" d="M9.38,7.08h0.07c0.08-0.05,0.13-0.17,0.14-0.26C9.6,6.78,9.61,6.74,9.61,6.7c0-0.05-0.01-0.09-0.01-0.13
		H9.55C9.54,6.59,9.51,6.6,9.49,6.62C9.46,6.64,9.44,6.66,9.41,6.68C9.37,6.71,9.3,6.75,9.27,6.8C9.22,6.9,9.29,7.03,9.38,7.08z"/>
	<path fill="#FFFFFF" d="M10.16,6.52h0.11c0.04-0.02,0.08-0.04,0.09-0.08c0-0.02-0.01-0.04,0-0.06c0.01-0.02,0.03-0.02,0.02-0.04
		h0.01c0,0,0-0.01,0-0.01c0,0,0-0.01,0-0.01h0.01c0-0.03,0.03-0.07,0.04-0.1c0.01-0.02,0.06-0.07,0.06-0.1h0.01
		c0-0.03,0.03-0.05,0.02-0.08C10.53,6.01,10.51,6,10.49,5.96h-0.02c0,0,0-0.01,0-0.01h-0.01c-0.02-0.05-0.13-0.08-0.18-0.1h-0.09
		c-0.08,0.04-0.18,0.06-0.26,0.1H9.88c0,0,0,0.01,0,0.01H9.66C9.63,5.98,9.59,6,9.56,6.03C9.55,6.05,9.53,6.1,9.53,6.13
		c0,0.02,0,0.04,0,0.06c0,0-0.01,0.03-0.01,0.03c0,0.01,0.01,0.02,0.01,0.02c0,0.02,0,0.04,0,0.06c0,0.02,0.01,0.03,0.01,0.05
		c0.02,0.02,0.02,0.07,0.03,0.09c0.01,0.03,0.05,0.06,0.04,0.09h0.01c0,0.04,0.05,0.06,0.08,0.08h0.04c0,0,0,0.01,0,0.01h0.06
		c0,0,0-0.01,0-0.01h0.03c0,0.03,0.01,0.06,0.01,0.09c0,0.03,0,0.06,0,0.09c0,0.06-0.01,0.13-0.04,0.18H9.72
		C9.71,6.95,9.71,6.94,9.7,6.94H9.64c0,0.01,0,0.01,0,0.02H9.63c0,0.06,0.06,0.14,0.1,0.18c0.03,0.03,0.06,0.06,0.1,0.08
		c0.03,0.02,0.07,0.03,0.1,0.06h0.11c0.06-0.04,0.09-0.09,0.11-0.16c0.02-0.05,0.03-0.11,0.03-0.17c0-0.03,0.01-0.06,0.01-0.09
		c0-0.03,0-0.06,0-0.09c0-0.03-0.01-0.06-0.01-0.1c0-0.03-0.02-0.06-0.02-0.08c-0.01-0.01-0.03-0.04-0.03-0.05
		c0-0.01,0-0.01-0.01-0.01c0,0,0.01,0,0.01-0.01C10.14,6.53,10.15,6.52,10.16,6.52z M9.81,6.25c0-0.03,0.05-0.05,0.08-0.05
		c0.07-0.02,0.13-0.03,0.2-0.06h0.04c0,0.1-0.03,0.15-0.12,0.19H9.96c0,0,0,0.01,0,0.01H9.9c0,0,0,0.01,0,0.01H9.85
		C9.84,6.32,9.81,6.28,9.81,6.25z"/>
	<path fill="#FFFFFF" d="M14.77,6.54c-0.07-0.02-0.14-0.03-0.21-0.05c-0.07-0.02-0.14-0.05-0.21-0.07c-0.07-0.03-0.15-0.05-0.21-0.1
		h-0.02c-0.01-0.03-0.07-0.05-0.1-0.07C13.99,6.22,13.97,6.22,14,6.21c0.01-0.01,0.04-0.01,0.05-0.02c0.07-0.03,0.15-0.06,0.21-0.11
		h0.01c0.02-0.04,0.07-0.04,0.09-0.07c0.02-0.03,0.03-0.06,0.01-0.1c-0.04-0.07-0.11-0.1-0.18-0.13h-0.07
		c-0.07,0.04-0.11,0.1-0.16,0.16C13.94,5.95,13.91,5.98,13.88,6c-0.03,0.02-0.06,0.04-0.08,0.07h-0.01
		c-0.01-0.03-0.04-0.05-0.07-0.07h-0.01c-0.01-0.03-0.06-0.06-0.09-0.07c-0.03-0.02-0.07-0.03-0.1-0.05h-0.01
		c0.01-0.02,0.02-0.03,0.03-0.04h0.06c0,0,0-0.01,0-0.01h0.09c0,0,0-0.01,0-0.01h0.11c0,0,0-0.01,0-0.01h0.09c0,0,0-0.01,0-0.01h0.1
		c0,0,0-0.01,0-0.01h0.06c0.05-0.02,0.09-0.03,0.13-0.06c0.03-0.02,0.1-0.07,0.1-0.12h0.01c0-0.02,0.01-0.04,0.02-0.06
		c0,0,0-0.01,0-0.01h0.01c0,0,0-0.01,0-0.01c0.02-0.05,0.07-0.11,0.08-0.17h0.01c-0.01-0.03,0.03-0.08,0-0.11c0,0,0-0.01,0-0.01
		h-0.01c0,0,0-0.01,0-0.01c-0.01-0.01-0.01-0.01-0.02-0.02h-0.01c-0.01-0.03-0.06-0.05-0.09-0.07h-0.02c0,0,0-0.01,0-0.01h-0.02
		c0,0,0-0.01,0-0.01h-0.02c0,0,0-0.01,0-0.01h-0.03c0,0,0-0.01,0-0.01h-0.19c0,0,0,0.01,0,0.01h-0.07c0,0,0,0.01,0,0.01h-0.08
		c0,0,0,0.01,0,0.01h-0.08c0,0,0,0.01,0,0.01h-0.04c0.01-0.03,0.04-0.04,0.07-0.05c0.03-0.02,0.05-0.04,0.08-0.06
		c0.05-0.03,0.12-0.07,0.15-0.13h0.01c0.03-0.05,0.04-0.07,0.04-0.12c0,0,0-0.01,0-0.01h-0.01c0-0.03-0.02-0.04-0.04-0.06h-0.02
		c-0.04-0.02-0.07-0.03-0.11-0.04h-0.13c-0.01,0.02-0.03,0.02-0.04,0.04h-0.04c0-0.1-0.1-0.13-0.18-0.17
		c0.01-0.03-0.02-0.09-0.03-0.12c-0.01-0.02-0.02-0.05-0.02-0.07c-0.01-0.02,0-0.04-0.01-0.06c-0.02-0.04-0.04-0.08-0.06-0.12
		c-0.02-0.04-0.03-0.08-0.05-0.12c-0.02-0.04-0.04-0.08-0.05-0.12c-0.01-0.04-0.04-0.08-0.06-0.12c0-0.01-0.01-0.02-0.01-0.03
		c0-0.01-0.01-0.02-0.02-0.03c-0.01-0.02-0.01-0.04-0.02-0.06c-0.01-0.02-0.02-0.04-0.03-0.06c-0.01-0.02-0.03-0.04-0.04-0.06
		c-0.01-0.02-0.02-0.04-0.03-0.06c-0.01-0.02-0.02-0.04-0.03-0.05c-0.01-0.01-0.03-0.03-0.03-0.05c0-0.01-0.01-0.02-0.01-0.03
		c0,0-0.02-0.01-0.02-0.02c0-0.01-0.01-0.03-0.01-0.03c0,0-0.01-0.02-0.01-0.02c-0.01-0.02-0.03-0.03-0.04-0.06
		c-0.02-0.03-0.04-0.07-0.06-0.1c-0.02-0.04-0.05-0.07-0.07-0.11c-0.01-0.03-0.03-0.08-0.06-0.1c-0.02-0.02-0.03-0.02-0.05-0.05
		c-0.01-0.02-0.03-0.02-0.04-0.04c-0.01-0.01,0-0.02-0.01-0.03c-0.01-0.01-0.02-0.02-0.03-0.03c-0.01-0.01-0.01-0.02-0.01-0.02
		c0-0.01-0.02-0.01-0.02-0.01c-0.02-0.03-0.04-0.08-0.07-0.1c-0.03-0.03-0.05-0.07-0.08-0.1c-0.07-0.06-0.13-0.13-0.2-0.2
		c-0.06-0.06-0.12-0.13-0.19-0.19C11.95,2.11,11.87,2.06,11.82,2c-0.05-0.05-0.12-0.11-0.19-0.15c-0.04-0.03-0.07-0.05-0.11-0.08
		c0,0-0.01-0.01-0.02-0.02c-0.01-0.01-0.02-0.01-0.03-0.02c-0.02-0.01-0.03-0.02-0.05-0.03c-0.07-0.05-0.14-0.11-0.22-0.15
		c-0.08-0.04-0.13-0.07-0.2-0.12c-0.07-0.05-0.14-0.09-0.21-0.12c-0.07-0.03-0.14-0.05-0.21-0.08c-0.07-0.03-0.13-0.07-0.21-0.09
		c-0.07-0.02-0.16-0.03-0.22-0.08H10.1c0,0,0-0.01,0-0.01h-0.06C10.01,1.03,9.96,1.02,9.92,1c0,0,0-0.01,0-0.01H9.83
		c0,0,0-0.01,0-0.01H9.8c0,0,0-0.01,0-0.01H9.74c0,0,0-0.01,0-0.01H9.69c0,0,0-0.01,0-0.01H9.61c0,0,0-0.01,0-0.01H9.53
		c0,0,0-0.01,0-0.01H9.47c0,0,0-0.01,0-0.01H9.41c0,0,0-0.01,0-0.01H9.34c0,0,0-0.01,0-0.01H9.29c0,0,0-0.01,0-0.01H9.17
		c0,0,0-0.01,0-0.01H9.09c0,0,0-0.01,0-0.01H8.58c0,0,0-0.01,0-0.01H8.49c0,0,0,0.01,0,0.01H8.34c0,0,0,0.01,0,0.01H8.12
		c0,0,0,0.01,0,0.01H8c0,0,0,0.01,0,0.01H7.95c0,0,0,0.01,0,0.01H7.9C7.89,0.91,7.87,0.92,7.86,0.93H7.79c0,0,0,0.01,0,0.01H7.74
		c0,0,0,0.01,0,0.01H7.68c0,0,0,0.01,0,0.01H7.63c0,0,0,0.01,0,0.01H7.58c0,0,0,0.01,0,0.01H7.53C7.52,0.99,7.5,1,7.49,1H7.43
		c0.02,0.01,0.02,0.02,0.02,0.03h0.02C7.48,1.02,7.48,1.01,7.5,1h0.04C7.56,1,7.57,0.99,7.59,0.98h0.06c0,0,0-0.01,0-0.01h0.04
		c0,0,0-0.01,0-0.01h0.06c0,0,0-0.01,0-0.01H7.8c0,0,0-0.01,0-0.01h0.07c0,0,0-0.01,0-0.01h0.04C7.93,0.92,7.94,0.91,7.96,0.9h0.06
		c0,0,0-0.01,0-0.01h0.11c0,0,0-0.01,0-0.01h0.22c0,0,0-0.01,0-0.01H8.5c0,0,0-0.01,0-0.01h0.07c0,0,0,0.01,0,0.01h0.52
		c0,0,0,0.01,0,0.01h0.08c0,0,0,0.01,0,0.01h0.12c0,0,0,0.01,0,0.01h0.04c0,0,0,0.01,0,0.01h0.07c0,0,0,0.01,0,0.01h0.07
		c0,0,0,0.01,0,0.01h0.06c0,0,0,0.01,0,0.01H9.6c0,0,0,0.01,0,0.01h0.08c0,0,0,0.01,0,0.01h0.06c0,0,0,0.01,0,0.01h0.06
		c0,0,0,0.01,0,0.01h0.03c0,0,0,0.01,0,0.01h0.09C9.9,1.03,9.98,1.04,10,1.05h0.03c0,0,0,0.01,0,0.01h0.06
		c0.17,0.06,0.33,0.12,0.48,0.19c0.08,0.04,0.16,0.05,0.24,0.09c0.08,0.04,0.17,0.1,0.24,0.15c0.06,0.04,0.14,0.08,0.21,0.12
		c0.07,0.05,0.15,0.09,0.22,0.15c0.03,0.02,0.07,0.05,0.1,0.07c0.03,0.03,0.07,0.06,0.1,0.08c0.04,0.03,0.07,0.04,0.1,0.07
		c0.03,0.02,0.05,0.05,0.08,0.08c0.03,0.03,0.08,0.06,0.11,0.08c0.03,0.03,0.07,0.06,0.1,0.09c0.04,0.03,0.06,0.07,0.09,0.1
		c0.03,0.04,0.07,0.07,0.1,0.1c0.04,0.04,0.06,0.07,0.09,0.1c0.02,0.02,0.03,0.03,0.04,0.04c0.01,0.02,0.03,0.03,0.04,0.05
		c0.03,0.04,0.06,0.07,0.08,0.11c0.02,0.03,0.05,0.05,0.08,0.09c0,0,0.01,0.02,0.01,0.03c0,0,0.02,0.02,0.01,0.02
		c0.02,0.02,0.03,0.04,0.04,0.06c0.02,0.02,0.03,0.02,0.04,0.04c0.01,0.01,0.01,0.03,0.02,0.04c0.02,0.04,0.04,0.08,0.07,0.11
		c0,0.01,0.02,0.03,0.02,0.03c0,0.01,0,0.02,0,0.02c0.01,0.02,0.03,0.04,0.04,0.06c0.05,0.07,0.08,0.14,0.12,0.2
		c0.02,0.04,0.05,0.07,0.07,0.11c0.02,0.03,0.04,0.07,0.06,0.1c0.01,0.02,0.03,0.05,0.03,0.07c0.01,0.02,0.01,0.03,0.02,0.05
		c0.02,0.03,0.03,0.07,0.04,0.11c0.02,0.07,0.07,0.14,0.09,0.21c0.02,0.07,0.07,0.14,0.09,0.21c0.01,0.04,0.03,0.08,0.04,0.12
		c0.01,0.03,0.02,0.07,0.03,0.1h-0.08c-0.02,0.03-0.04,0.06-0.05,0.08c-0.01,0.02-0.01,0.07-0.05,0.09h0.01
		c-0.03,0.01-0.01,0.02-0.02,0.03c-0.01,0.01-0.02,0-0.02,0.03h-0.08c0,0,0-0.01,0-0.01h-0.09c0,0,0,0.01,0,0.01h0.08
		c0,0,0,0.01,0,0.01h0.08c-0.02,0.05-0.04,0.08-0.07,0.12c-0.02,0.04-0.05,0.07-0.07,0.11c-0.03,0.04-0.05,0.08,0.01,0.11h0.11
		c0.06-0.02,0.12-0.05,0.18-0.08c0.03-0.02,0.06-0.04,0.09-0.07c0.03-0.02,0.06-0.04,0.08-0.07h0.02c-0.01,0.09-0.1,0.15-0.15,0.24
		h-0.01c-0.02,0.04-0.06,0.05-0.1,0.07h-0.07c-0.01,0.01-0.03,0.01-0.04,0.02h-0.06c0,0,0,0.01,0,0.01h-0.06c0,0,0,0.01,0,0.01
		h-0.06c-0.03,0.02-0.08,0.07-0.08,0.11c0,0,0,0.01,0,0.01c0.01,0.03-0.02,0.04-0.01,0.07c0,0.03,0,0.06,0,0.08
		c0,0.03,0.01,0.06,0.01,0.08c0,0.03,0.01,0.06,0.01,0.09c0,0.03,0,0.07,0.02,0.09c0,0,0,0.01,0,0.01h0.01c0,0,0,0.01,0,0.01
		c0,0,0,0.01,0,0.01h0.01c0,0,0,0.01,0,0.01h0.01c0,0,0,0.01,0,0.01h0.01c0.01,0.02,0.04,0.03,0.06,0.04h0.06
		C13.2,5.91,13.1,5.98,13.08,6h-0.01C13.06,6.04,13.03,6.05,13,6.07c-0.02,0.02-0.04,0.05-0.07,0.07c-0.03,0.02-0.05,0.04-0.07,0.06
		c-0.04,0.04-0.01,0.03-0.02,0.07h0.07c0.07-0.04,0.16-0.06,0.23-0.1c0.04-0.02,0.08-0.05,0.12-0.07c0.03-0.02,0.08-0.05,0.1-0.08
		h0.02c0.01,0.03-0.03,0.04-0.02,0.07h-0.01c-0.01,0.02-0.04,0.04-0.06,0.06c-0.02,0.02-0.03,0.04-0.05,0.06
		c-0.04,0.03-0.09,0.07-0.12,0.11h-0.01c-0.02,0.03-0.07,0.06-0.1,0.09c-0.04,0.03-0.07,0.06-0.11,0.09
		c-0.03,0.03-0.07,0.05-0.11,0.08c-0.04,0.03-0.07,0.04-0.07,0.1h0.02c0,0,0,0.01,0,0.01h0.08c0,0,0-0.01,0-0.01h0.07
		c0.1-0.04,0.21-0.05,0.31-0.11c0.05-0.03,0.1-0.06,0.15-0.1c0.05-0.04,0.12-0.09,0.15-0.14h0.01c0.04,0.04-0.02,0.08-0.04,0.11
		c-0.03,0.03-0.06,0.07-0.1,0.11c-0.03,0.03-0.07,0.06-0.11,0.1c-0.03,0.03-0.07,0.07-0.11,0.1h-0.01c-0.07,0.05-0.13,0.1-0.2,0.14
		c-0.03,0.02-0.19,0.08-0.18,0.12c0,0,0,0.01,0,0.01h0.01c0,0,0,0.01,0,0.01h0.01c0,0,0,0.01,0,0.01h0.15c0,0,0-0.01,0-0.01h0.1
		c0,0,0-0.01,0-0.01h0.06c0,0,0-0.01,0-0.01h0.06c0.07-0.04,0.15-0.06,0.22-0.1c0.04-0.02,0.07-0.05,0.11-0.07
		c0.03-0.02,0.08-0.05,0.1-0.08h0.01c0,0.11-0.01,0.24-0.12,0.29h-0.03c0,0,0-0.01,0-0.01h-0.07c0,0,0-0.01,0-0.01h-0.1
		c0,0,0,0.01,0,0.01h-0.01c0,0,0,0.01,0,0.01c0.01,0.05,0.04,0.08,0.06,0.12c0.01,0.02,0.03,0.05,0.04,0.06
		c0.02,0.02,0.05,0.03,0.04,0.06h-0.21c0,0,0,0.01,0,0.01h-0.03c-0.04,0.03-0.05,0.08-0.06,0.12c0,0.02-0.02,0.04-0.02,0.06
		c-0.01,0.02-0.01,0.04-0.02,0.06c-0.02,0.04-0.02,0.09-0.04,0.12C13,7.65,12.99,7.67,12.98,7.69c-0.01,0.02-0.02,0.04-0.03,0.06
		c-0.01,0.02-0.01,0.04-0.02,0.06c-0.01,0.02-0.01,0.01-0.01,0.02c0,0-0.01,0.03-0.01,0.03c-0.01,0.02-0.02,0.03-0.03,0.05
		c0,0.01,0,0.02-0.01,0.03c0,0-0.01,0.02-0.01,0.02c-0.01,0-0.01,0.01-0.01,0.02c0,0,0,0.01,0,0.01c-0.01,0.01-0.01,0.02-0.02,0.03
		c-0.01,0.02-0.01,0.03-0.02,0.04c0,0.01-0.02,0.02-0.02,0.03c0,0.01,0,0.02,0,0.02c0,0-0.01,0.02-0.02,0.02
		c0,0.01,0,0.02-0.01,0.03c-0.02,0.04-0.05,0.07-0.07,0.11c0,0.01,0,0.02,0,0.02c0,0.01-0.02,0.03-0.02,0.03
		c-0.01,0.02-0.02,0.03-0.03,0.05c-0.02,0.04-0.05,0.08-0.07,0.12c-0.01,0.02-0.03,0.03-0.04,0.05c-0.01,0.02-0.02,0.03-0.03,0.05
		c-0.02,0.03-0.04,0.04-0.06,0.07c-0.01,0.01-0.01,0.03-0.02,0.04c-0.02,0.04-0.05,0.07-0.08,0.1c-0.03,0.04-0.06,0.07-0.09,0.11
		c-0.02,0.03-0.06,0.06-0.08,0.1c-0.03,0.04-0.07,0.08-0.11,0.12c-0.01,0.01-0.02,0.03-0.03,0.04C12.03,9.21,12.01,9.21,12,9.23
		c-0.03,0.04-0.07,0.07-0.1,0.11c-0.02,0.02-0.02,0.04-0.04,0.05c-0.02,0.01-0.04,0.01-0.04,0.03h-0.09c0,0,0-0.01,0-0.01h-1.29
		c0,0,0,0.01,0,0.01H9.74c0,0,0-0.01,0-0.01h-0.7c0,0,0,0.01,0,0.01H8.97C8.96,9.43,8.93,9.44,8.92,9.45
		c-0.01,0.01-0.02,0-0.01,0.01c0.01,0,0.02,0.01,0.02,0.01H9c0.02-0.01,0.03-0.03,0.06-0.04h0.67c0,0,0,0.01,0,0.01h0.28
		c0,0,0,0.01,0,0.01h0.4c0,0,0-0.01,0-0.01h0.01c0,0,0,0.01,0,0.01h0.03c0,0,0-0.01,0-0.01h-0.02c0,0,0-0.01,0-0.01h1.27
		c0,0,0,0.01,0,0.01h0.11c0,0,0-0.01,0-0.01h0.01c0.02-0.02,0.05-0.03,0.07-0.05c0.02-0.02,0.03-0.05,0.06-0.07
		c0.04-0.04,0.08-0.08,0.11-0.12c0.04-0.05,0.09-0.08,0.12-0.13c0.03-0.03,0.06-0.07,0.09-0.1c0.03-0.03,0.05-0.07,0.08-0.11
		c0.03-0.04,0.05-0.06,0.08-0.1c0.03-0.04,0.05-0.08,0.08-0.12c0.01-0.02,0.03-0.03,0.04-0.04c0.01-0.02,0.01-0.03,0.02-0.05
		c0.01-0.02,0.03-0.05,0.04-0.07c0.01-0.02,0.02-0.04,0.03-0.05c0,0,0.02,0,0.02-0.01c0-0.01,0-0.03,0-0.03
		c0-0.02,0.02-0.04,0.03-0.05c0.01-0.02,0.02-0.04,0.03-0.06c0.01-0.02,0.03-0.04,0.03-0.06c0.02-0.04,0.04-0.07,0.06-0.11
		c0-0.01,0.01-0.02,0.01-0.03c0-0.01,0.01-0.02,0.02-0.03c0.01-0.02,0.02-0.03,0.03-0.05c0.01-0.02,0.01-0.04,0.02-0.06
		c0.01-0.02,0.03-0.03,0.03-0.04c-0.01,0-0.01-0.01-0.01-0.02c0,0,0.01-0.01,0.01-0.01c0-0.01,0.01-0.02,0.01-0.03
		c0.01-0.02,0.01-0.03,0.02-0.05C12.98,7.73,13,7.7,13.02,7.66c0-0.01,0.01-0.03,0.02-0.04c0-0.01,0-0.02,0.01-0.03
		c0.02-0.03,0.02-0.01,0.04-0.03c0.02-0.01,0.02-0.08,0.02-0.1c0.01-0.04,0-0.08,0.01-0.12c0.01-0.05,0.03-0.06,0.08-0.08h0.22
		c0.03,0.05,0.11,0.08,0.17,0.1h0.02c-0.01,0.01-0.02,0.04-0.02,0.06c-0.01,0.02-0.01,0.04-0.01,0.06c0,0.02-0.02,0.04-0.02,0.06
		c-0.01,0.02,0,0.04-0.01,0.06c-0.03,0.08-0.06,0.15-0.09,0.23c0,0.01-0.01,0.03-0.01,0.03c0,0.01-0.02,0.02-0.02,0.03
		c-0.01,0.02-0.01,0.04-0.01,0.06c-0.01,0.04-0.03,0.07-0.04,0.11c-0.01,0.02-0.01,0.04-0.02,0.06c-0.01,0.01-0.02,0.02-0.02,0.03
		c0,0.01,0,0.02,0,0.02c-0.02,0.04-0.04,0.08-0.06,0.12c-0.04,0.07-0.06,0.14-0.11,0.21c-0.02,0.03-0.04,0.07-0.07,0.11
		c-0.01,0.01-0.03,0.03-0.03,0.04c-0.01,0.01-0.01,0.02-0.01,0.04c-0.01,0.04-0.05,0.08-0.08,0.11c-0.02,0.03-0.04,0.07-0.06,0.1
		c-0.04,0.07-0.09,0.14-0.14,0.21c-0.05,0.07-0.1,0.13-0.16,0.2c-0.01,0.02-0.03,0.04-0.04,0.06c-0.01,0.01-0.02,0.02-0.02,0.03
		c0,0-0.02,0.01-0.02,0.02c-0.02,0.03-0.04,0.06-0.07,0.1c-0.03,0.03-0.05,0.08-0.1,0.11c-0.02,0.01-0.02,0.01-0.04,0.03
		c-0.01,0.02-0.02,0.02-0.04,0.04c-0.03,0.03-0.06,0.07-0.1,0.11c-0.03,0.03-0.06,0.05-0.08,0.07c-0.05,0.05-0.11,0.12-0.16,0.17
		c-0.06,0.06-0.12,0.1-0.2,0.14c-0.07,0.04-0.14,0.09-0.2,0.13c-0.07,0.05-0.14,0.09-0.21,0.15c-0.06,0.05-0.14,0.08-0.21,0.11
		c-0.07,0.03-0.13,0.08-0.2,0.11c-0.04,0.02-0.08,0.03-0.11,0.04c-0.03,0.02-0.06,0.04-0.1,0.05c-0.07,0.03-0.14,0.05-0.21,0.08
		h-0.06c-0.01,0.02-0.04,0.03-0.06,0.04h-0.06c-0.01,0.01-0.02,0.03-0.03,0.03h-0.06c0,0,0,0.01,0,0.01h-0.04
		c-0.04,0.01-0.05,0.01-0.01,0.03h0.01c0.02-0.01,0.04-0.02,0.06-0.03h0.06c0,0,0-0.01,0-0.01h0.02c0.02-0.01,0.04-0.02,0.07-0.03
		h0.02c0.03-0.03,0.06-0.02,0.09-0.04h0.04c0.03-0.03,0.08-0.04,0.12-0.05c0.04-0.02,0.08-0.04,0.12-0.06
		c0.03-0.02,0.08-0.03,0.11-0.05c0.04-0.02,0.08-0.04,0.11-0.06c0.16-0.08,0.31-0.17,0.45-0.27c0.13-0.09,0.27-0.18,0.4-0.27
		c0.07-0.04,0.12-0.11,0.18-0.17c0.06-0.06,0.1-0.1,0.17-0.16c0.02-0.02,0.04-0.04,0.06-0.06c0.01-0.01,0.02-0.02,0.03-0.03
		c0.03-0.03,0.07-0.06,0.1-0.1c0.03-0.03,0.06-0.07,0.09-0.1c0.02-0.03,0.04-0.06,0.07-0.09c0.12-0.13,0.21-0.27,0.3-0.4
		c0.05-0.07,0.09-0.13,0.15-0.2c0.01-0.01,0.02-0.04,0.03-0.06c0.01-0.01,0.01-0.04,0.02-0.05c0.01-0.02,0.02-0.03,0.03-0.05
		c0.01-0.01,0.02-0.03,0.03-0.04c0.01-0.02,0.01-0.04,0.02-0.06c0.01-0.01,0.02-0.02,0.03-0.03c0.01-0.01,0-0.02,0.01-0.03
		c0.02-0.03,0.04-0.06,0.06-0.1c0-0.01,0-0.02,0-0.03c0,0,0.02-0.01,0.02-0.02c0.01-0.01,0.01-0.03,0.02-0.05
		c0.02-0.03,0.03-0.06,0.04-0.1c0.07-0.13,0.1-0.27,0.16-0.4c0.02-0.03,0.03-0.07,0.04-0.11c0.01-0.02,0.01-0.03,0.01-0.04
		c0.01-0.02,0.03-0.04,0.03-0.06c0.01-0.04,0.01-0.07,0.02-0.1c0.01-0.02,0.03-0.07,0.02-0.1h0.06c0.05-0.02,0.1-0.05,0.12-0.1h0.01
		c0,0,0-0.01,0-0.01h0.01c0.02-0.04,0.05-0.08,0.07-0.12C13.9,7.1,13.9,7.09,13.9,7.06c0,0,0.01-0.03,0.01-0.03
		c0.01-0.01,0-0.01,0.01-0.03c0-0.05,0.02-0.1,0.02-0.15c0.01-0.05,0.01-0.09,0.01-0.15h0.01c0.02,0.04,0.1,0.07,0.13,0.1
		c0.05,0.03,0.1,0.05,0.15,0.07h0.07c0,0,0,0.01,0,0.01h0.04c0,0,0-0.01,0-0.01h0.07c0.1-0.05,0.19-0.11,0.28-0.17h0.01
		c0.03-0.02,0.1-0.06,0.11-0.1C14.85,6.58,14.81,6.55,14.77,6.54z M13.87,5.37c0,0,0-0.01,0-0.01h0.11c0,0.06,0.01,0.13-0.04,0.17
		h-0.07c0,0,0,0.01,0,0.01h-0.09c0,0,0,0.01,0,0.01h-0.02c0-0.04,0.01-0.07,0.01-0.11c-0.01-0.01-0.01-0.02-0.01-0.04
		c-0.02-0.01-0.02-0.01,0-0.02c0.01,0,0.01-0.01,0.02-0.01H13.87z M13.27,5.54c0-0.02,0-0.05,0.02-0.06
		c0.03-0.03,0.09-0.03,0.13-0.04h0.03c-0.01,0.01-0.02,0.04-0.02,0.06c-0.01,0.02-0.01,0.04-0.02,0.06c0,0.02-0.01,0.04-0.02,0.06
		H13.3C13.28,5.58,13.27,5.57,13.27,5.54z"/>
	<path fill="#FFFFFF" d="M10.54,7.33c0.11-0.04,0.23-0.08,0.34-0.14c0.1-0.06,0.2-0.12,0.29-0.19c0.05-0.04,0.1-0.09,0.15-0.13
		c0.05-0.04,0.11-0.08,0.15-0.13c0.04-0.05,0.07-0.1,0.11-0.15c0.03-0.04,0.06-0.1,0.06-0.15c-0.02-0.11-0.16-0.16-0.26-0.2h-0.09
		c-0.03,0.02-0.05,0.03-0.07,0.06c-0.01,0.02-0.03,0.04-0.04,0.07c-0.02,0.05-0.05,0.09-0.08,0.13C11.06,6.55,11.03,6.6,11,6.64
		c-0.03,0.05-0.08,0.09-0.12,0.14c-0.07,0.09-0.15,0.19-0.24,0.27c-0.05,0.05-0.09,0.09-0.14,0.14c-0.02,0.02-0.04,0.04-0.05,0.07
		c-0.01,0.04,0,0.03,0.02,0.07L10.54,7.33L10.54,7.33z"/>
	<path fill="#FFFFFF" d="M10.77,6.16c0,0,0-0.01,0-0.01h0.06c0.18-0.07,0.36-0.14,0.51-0.26c0.04-0.04,0.09-0.08,0.12-0.13
		c0.02-0.04,0.06-0.07,0.04-0.12c-0.01-0.05-0.07-0.08-0.11-0.11c-0.04-0.02-0.09-0.03-0.13-0.05h-0.09
		c-0.07,0.04-0.1,0.11-0.13,0.17c-0.04,0.05-0.07,0.12-0.11,0.17c-0.05,0.05-0.09,0.11-0.15,0.16c-0.04,0.03-0.16,0.13-0.11,0.17
		h0.01c0,0,0,0.01,0,0.01H10.77z"/>
	<path fill="#FFFFFF" d="M6,6.73C6,6.75,6.01,6.77,6.02,6.79c0.03,0.07,0.1,0.17,0.18,0.21h0.04c0.09-0.04,0.1-0.13,0.13-0.2
		c0.03-0.07,0.06-0.14,0.08-0.21C6.49,6.44,6.53,6.3,6.53,6.15H6.49c-0.02,0.04-0.07,0.07-0.11,0.1C6.35,6.29,6.31,6.33,6.27,6.36
		C6.2,6.43,6.13,6.53,6.05,6.58C6.02,6.61,5.97,6.62,5.98,6.67C5.98,6.69,5.99,6.71,6,6.73z"/>
	<path fill="#FFFFFF" d="M3.8,5.96c0,0,0,0.01,0,0.01H3.72C3.66,6,3.73,6.07,3.75,6.1c0.03,0.04,0.06,0.09,0.11,0.12h0.08
		C3.95,6.19,3.98,6.18,4,6.16c0.02-0.02,0.02-0.04,0.02-0.07c0-0.07-0.05-0.09-0.1-0.12H3.83c0,0,0-0.01,0-0.01L3.8,5.96L3.8,5.96z"
		/>
	<path fill="#FFFFFF" d="M9.04,5.83c0,0,0,0.01,0,0.01h0.01c0.01,0.05,0.04,0.08,0.07,0.12c0.03,0.04,0.07,0.06,0.11,0.08h0.15
		C9.48,6,9.59,5.97,9.69,5.93C9.8,5.9,9.91,5.88,10.01,5.84h0.06c0,0,0-0.01,0-0.01h0.07c0,0,0-0.01,0-0.01h0.11c0,0,0-0.01,0-0.01
		h0.26c0,0,0,0.01,0,0.01h0.08c0,0,0,0.01,0,0.01h0.04c0,0,0-0.01,0-0.01h0.04c0,0,0-0.01,0-0.01h0.01
		c0.01-0.02,0.02-0.02,0.02-0.04h0.01c0,0,0-0.01,0-0.01c0,0,0-0.01,0-0.01c0,0,0-0.01,0-0.01c0,0,0-0.01,0-0.01c0,0,0-0.01,0-0.01
		c0,0,0-0.01,0-0.01c0,0,0-0.01,0-0.01c0,0,0-0.01,0-0.01c-0.01-0.01-0.01-0.02-0.01-0.03H10.7c0-0.03-0.02-0.04-0.03-0.07h-0.01
		c-0.01-0.01-0.01-0.01-0.02-0.02h-0.02c0,0,0-0.01,0-0.01h-0.03c0,0,0-0.01,0-0.01h-0.03c0,0,0-0.01,0-0.01h-0.16
		c0,0,0,0.01,0,0.01h-0.06c0,0,0,0.01,0,0.01h-0.06c0,0,0,0.01,0,0.01h-0.06c-0.01,0.01-0.03,0.01-0.04,0.02h-0.08
		c0-0.01,0-0.01,0-0.02c-0.01-0.02-0.04-0.05-0.02-0.07h0.17c0,0,0,0.01,0,0.01h0.08c0,0,0-0.01,0-0.01h0.02
		c0.06-0.04,0.09-0.11,0.12-0.17c0,0,0-0.01,0-0.01h0.01c0,0,0-0.01,0-0.01h0.01c0,0,0-0.01,0-0.01c0,0,0-0.01,0-0.01
		c0,0,0-0.01,0-0.01h0.01c0,0,0-0.01,0-0.01c0.04-0.06,0.06-0.13,0.08-0.19c0.02-0.06,0.04-0.12,0.04-0.19h0.01
		c0-0.06-0.02-0.13-0.08-0.17h-0.01c0,0,0-0.01,0-0.01h-0.01c0,0,0-0.01,0-0.01h-0.02c0,0,0-0.01,0-0.01h-0.02c0,0,0-0.01,0-0.01
		h-0.02c0,0,0-0.01,0-0.01h-0.02c0,0,0-0.01,0-0.01h-0.04c0,0,0-0.01,0-0.01h-0.15c0,0,0,0.01,0,0.01h-0.07c0,0,0,0.01,0,0.01h-0.07
		c0,0,0,0.01,0,0.01h-0.08c0,0,0,0.01,0,0.01H9.97c0,0,0,0.01,0,0.01h-0.1c0,0,0,0.01,0,0.01H9.75c0,0,0,0.01,0,0.01H9.53
		C9.49,4.71,9.45,4.72,9.42,4.76C9.4,4.79,9.38,4.83,9.38,4.86c0,0,0,0.01,0,0.01c0,0,0,0.01,0,0.01H9.37c0,0,0,0.01,0,0.01
		c0,0,0,0.01,0,0.01c0,0,0,0.01,0,0.01c0,0.03,0,0.07,0,0.1c0,0.06,0.02,0.11,0.02,0.17c0,0,0,0.01,0,0.01c0,0,0,0.01,0,0.01
		c0,0,0,0.01,0,0.01h0.01c0,0.03,0.01,0.06,0.01,0.09h0.01C9.42,5.34,9.44,5.37,9.45,5.4c0,0.01,0.01,0.03,0.01,0.04
		c0.01,0.02,0.02,0.02,0.02,0.04H9.5c0.02,0.03,0.05,0.05,0.08,0.07h0.03c0,0,0,0.01,0,0.01h0.12c0,0,0-0.01,0-0.01h0.06
		c0,0.01,0.01,0.01,0.01,0.02h0.01c0.01,0.02,0.07,0.05,0.02,0.07H9.78C9.75,5.65,9.72,5.66,9.69,5.67H9.63c0,0,0,0.01,0,0.01H9.57
		c0,0,0,0.01,0,0.01H9.52c0,0,0,0.01,0,0.01H9.46c0,0,0,0.01,0,0.01H9.39c0,0,0,0.01,0,0.01H9.33c0,0,0,0.01,0,0.01H9.25
		c0,0,0,0.01,0,0.01H9.16c0,0,0,0.01,0,0.01H9.07C9.05,5.77,9.03,5.78,9.04,5.8c0,0,0,0.01,0,0.01C9.04,5.82,9.04,5.82,9.04,5.83z
		 M9.72,5.27c0-0.02-0.02-0.02-0.01-0.04h0.07c0,0,0-0.01,0-0.01h0.07c0,0,0-0.01,0-0.01h0.07c0,0,0-0.01,0-0.01h0.06
		c0.04-0.02,0.09-0.02,0.13-0.04c0.04-0.03,0.06-0.08,0.02-0.12h-0.01c0,0,0-0.01,0-0.01s0-0.01,0-0.01h-0.02c0,0,0-0.01,0-0.01
		h-0.01c0,0,0-0.01,0-0.01h-0.03c0,0,0-0.01,0-0.01h-0.1c0,0,0,0.01,0,0.01H9.89c0,0,0,0.01,0,0.01H9.83c0,0,0,0.01,0,0.01H9.78
		c0,0,0,0.01,0,0.01H9.72c0,0,0,0.01,0,0.01H9.69c0-0.02,0-0.04,0-0.06c0-0.03-0.02,0,0-0.03c0,0,0.03-0.01,0.03-0.01h0.07
		c0,0,0-0.01,0-0.01h0.08c0,0,0-0.01,0-0.01h0.1c0,0,0-0.01,0-0.01h0.09c0,0,0-0.01,0-0.01h0.13c0,0,0-0.01,0-0.01h0.08
		c0,0.07-0.02,0.13-0.03,0.19c-0.01,0.03-0.02,0.07-0.03,0.1c-0.01,0.03-0.03,0.06-0.02,0.09h-0.06c0,0,0,0.01,0,0.01h-0.06
		c0,0,0,0.01,0,0.01H10c0,0,0,0.01,0,0.01H9.93c0,0,0,0.01,0,0.01h-0.1c0,0,0,0.01,0,0.01h-0.1c0,0,0,0.01,0,0.01H9.72
		C9.72,5.3,9.72,5.28,9.72,5.27z"/>
	<path fill="#FFFFFF" d="M6.01,5.61c0,0,0,0.01,0,0.01H5.96C5.91,5.65,5.89,5.68,5.93,5.73C5.96,5.77,6,5.81,6.04,5.85
		c0.07,0.07,0.12,0.16,0.22,0.21h0.03C6.39,6.01,6.4,5.94,6.4,5.84c0-0.03,0-0.04-0.01-0.06c-0.01-0.02,0-0.04-0.01-0.06
		c-0.02-0.05-0.07-0.06-0.11-0.1H6.21c0,0,0-0.01,0-0.01H6.01z"/>
	<path fill="#FFFFFF" d="M8.51,5.14C8.5,5.12,8.49,5.09,8.48,5.07C8.46,5.05,8.43,5.04,8.42,5.02H8.4c0,0,0-0.01,0-0.01H8.39
		c0,0,0-0.01,0-0.01H8.36C8.33,4.97,8.29,4.96,8.25,4.94H8.18C8.13,4.96,8.06,4.97,8.01,5H7.94c0,0,0,0.01,0,0.01h-0.1
		c0,0,0,0.01,0,0.01H7.67c-0.06,0.03-0.09,0.06-0.1,0.12c-0.01,0.04,0,0.1,0,0.14C7.59,5.31,7.57,5.36,7.58,5.4
		c0.01,0.04,0.01,0.08,0.01,0.12c0,0.05,0.01,0.08,0.01,0.13c0,0.04,0,0.09,0,0.13c0,0.04,0,0.09,0,0.13c0,0.05-0.01,0.08-0.01,0.13
		c0,0.05-0.01,0.09-0.01,0.13c0,0.05,0,0.09-0.01,0.13C7.56,6.33,7.55,6.38,7.54,6.42C7.53,6.46,7.53,6.51,7.51,6.55
		c-0.03,0.09-0.06,0.18-0.1,0.26C7.4,6.86,7.38,6.9,7.35,6.94C7.34,6.98,7.28,7.02,7.29,7.07h0.06c0.13-0.05,0.24-0.11,0.33-0.22
		c0.08-0.1,0.13-0.21,0.17-0.33C7.84,6.5,7.86,6.47,7.86,6.45c0-0.02,0-0.06,0.01-0.08C7.89,6.34,7.99,6.33,8.03,6.3
		c0.06-0.03,0.08-0.08,0.08-0.15C8.1,6.09,8.07,6.06,8,6.03H7.92c0-0.05-0.01-0.1,0-0.15c0-0.02,0.01-0.05,0.02-0.07
		C7.95,5.8,7.99,5.8,8.01,5.79c0.11-0.06,0.14-0.2,0.03-0.28H7.95c0-0.04,0-0.08,0-0.12c0-0.02,0-0.04,0-0.06
		C7.95,5.3,7.97,5.3,7.99,5.28h0.1C8.11,5.3,8.11,5.34,8.12,5.36c0,0.03,0,0.06,0,0.09c0,0.06,0,0.11,0,0.17c0,0.2,0,0.41,0,0.61
		c0,0.1,0,0.2,0,0.3c0,0.05,0,0.1,0,0.16c0,0.06,0,0.09-0.03,0.15H8C7.97,6.82,7.94,6.81,7.9,6.79H7.87
		C7.86,6.8,7.86,6.82,7.86,6.84c0,0.02,0.01,0.04,0.02,0.06C7.89,6.91,7.89,6.93,7.9,6.95c0.02,0.04,0.04,0.07,0.07,0.11
		C8.03,7.13,8.11,7.2,8.2,7.24h0.09c0.08-0.04,0.13-0.12,0.16-0.2c0.02-0.06,0.03-0.14,0.03-0.21c0-0.11,0-0.23,0-0.34
		c0-0.2,0-0.41,0-0.61c0-0.06,0.01-0.1,0.01-0.15c0-0.05,0-0.1,0-0.15c0-0.03,0.01-0.05,0.01-0.08c0-0.02,0-0.05,0-0.07
		c0-0.03,0.01-0.05,0.01-0.08c0-0.02,0-0.05,0-0.07c0-0.02,0.01-0.04,0.01-0.07C8.52,5.18,8.52,5.17,8.51,5.14z"/>
	<path fill="#FFFFFF" d="M6.64,5.1C6.64,5.06,6.63,5.01,6.6,4.98C6.57,4.94,6.52,4.93,6.48,4.91H6.44c0,0,0-0.01,0-0.01H6.24
		c0,0,0,0.01,0,0.01H6.19C6.13,4.94,6.14,4.97,6.17,5.02C6.18,5.06,6.21,5.1,6.23,5.13C6.3,5.21,6.35,5.28,6.45,5.32h0.07
		C6.6,5.28,6.66,5.18,6.64,5.1z"/>
	<path fill="#FFFFFF" d="M7.95,4.75c0,0,0-0.01,0-0.01c0,0,0-0.01,0-0.01H7.86c0,0,0,0.01,0,0.01h0.06c0,0,0,0.01,0,0.01H7.95z"/>
	<path fill="#FFFFFF" d="M12.64,5.61c0.01-0.01,0.01-0.03,0.02-0.04c0.04-0.05,0.07-0.11,0.1-0.16c0.02-0.03,0.04-0.05,0.06-0.08
		c0.02-0.03,0.04-0.05,0.06-0.08c0.03-0.06,0.07-0.1,0.1-0.16c0.03-0.05,0.05-0.1,0.02-0.16c-0.05-0.12-0.21-0.15-0.31-0.21h-0.1
		c-0.03,0.02-0.05,0.04-0.06,0.07c0,0.01-0.01,0.02-0.01,0.03c0,0.01-0.01,0.03-0.01,0.03c-0.01,0.05-0.02,0.1-0.03,0.15
		c-0.03,0.1-0.05,0.2-0.1,0.29c-0.05,0.09-0.08,0.19-0.13,0.29c-0.01,0.01-0.02,0.03-0.02,0.03c-0.01,0.01-0.01,0.03-0.02,0.04
		c-0.02,0.02-0.03,0.05-0.04,0.07c-0.03,0.05-0.06,0.09-0.09,0.14C12.03,5.91,12,5.94,11.97,5.98C11.96,6,11.91,6.05,11.94,6.08
		h0.04c0.06-0.03,0.12-0.05,0.18-0.08c0.05-0.03,0.14-0.07,0.17-0.13h0.02c0,0.11,0,0.22,0,0.33c0,0.06,0,0.11,0,0.17
		c0,0.03,0,0.06,0,0.09c0,0.03,0.01,0.05,0.01,0.08c0,0.11-0.02,0.23,0,0.34c0,0.03,0.01,0.05,0.01,0.08c0,0.03,0,0.06,0.01,0.09
		c0.01,0.03,0.02,0.06,0.04,0.08c0.03,0.03,0.06,0.04,0.09,0.06h0.12c0.03-0.02,0.07-0.04,0.08-0.07c0.01-0.02,0-0.06,0-0.08
		c0-0.06,0-0.11,0-0.17c0-0.11,0-0.22,0-0.33c0-0.22,0-0.44,0-0.66h0.01c-0.01-0.06-0.02-0.11-0.04-0.16
		c-0.01-0.03-0.05-0.04-0.07-0.07C12.61,5.61,12.62,5.64,12.64,5.61z"/>
	<path fill="#FFFFFF" d="M8.01,4.72H7.96c0,0.01,0.01,0.01,0.01,0.02h0.04C8.01,4.73,8.01,4.72,8.01,4.72z"/>
	<path fill="#FFFFFF" d="M11.25,4.66h-0.06c-0.03,0.03-0.06,0.04-0.08,0.08c-0.02,0.03-0.03,0.07-0.04,0.1
		c-0.03,0.07-0.08,0.13-0.12,0.19c-0.05,0.07-0.09,0.14-0.15,0.2c-0.03,0.03-0.06,0.06-0.09,0.1c-0.03,0.03-0.04,0.06,0.01,0.09
		h0.08c0.09-0.04,0.19-0.06,0.28-0.11c0.1-0.06,0.19-0.12,0.27-0.2c0.07-0.06,0.18-0.18,0.15-0.27C11.45,4.74,11.34,4.71,11.25,4.66
		z"/>
	<path fill="#FFFFFF" d="M12.61,2.87C12.61,2.87,12.61,2.87,12.61,2.87C12.61,2.86,12.61,2.87,12.61,2.87z"/>
</g>
</svg>
