<svg width="4.94em" height="1em" viewBox="0 0 178 36" fill="none" xmlns="http://www.w3.org/2000/svg">
<path d="M53.416 8.932C53.416 10.4627 52.954 11.7087 52.03 12.67C51.1153 13.622 49.958 14.098 48.558 14.098C47.1673 14.098 46.0053 13.6173 45.072 12.656C44.1387 11.6853 43.672 10.4393 43.672 8.918C43.672 7.38733 44.1527 6.16467 45.114 5.25C46.0753 4.326 47.2233 3.864 48.558 3.864C49.8927 3.864 51.036 4.326 51.988 5.25C52.94 6.16467 53.416 7.392 53.416 8.932ZM46.052 11.9C46.7707 12.6093 47.606 12.964 48.558 12.964C49.51 12.964 50.3407 12.6093 51.05 11.9C51.7593 11.1813 52.114 10.2013 52.114 8.96C52.114 7.70933 51.75 6.734 51.022 6.034C50.3033 5.32467 49.482 4.97 48.558 4.97C47.634 4.97 46.808 5.32467 46.08 6.034C45.352 6.734 44.988 7.70933 44.988 8.96C44.988 10.2013 45.3427 11.1813 46.052 11.9ZM57.6296 17.15H54.8156C54.6942 17.15 54.6336 17.094 54.6336 16.982V16.38C54.6336 16.268 54.6942 16.212 54.8156 16.212H55.5996V8.05H54.8436C54.7222 8.05 54.6616 7.994 54.6616 7.882V7.28C54.6616 7.168 54.7222 7.112 54.8436 7.112H56.4816C56.6029 7.112 56.6636 7.168 56.6636 7.28L56.6496 8.386H56.6636C56.8409 8.00333 57.1256 7.68133 57.5176 7.42C57.9189 7.14933 58.4089 7.014 58.9876 7.014C59.9302 7.014 60.6909 7.336 61.2696 7.98C61.8482 8.61467 62.1376 9.464 62.1376 10.528C62.1376 11.5827 61.8529 12.4413 61.2836 13.104C60.7142 13.7667 59.9536 14.098 59.0016 14.098C58.4229 14.098 57.9376 13.9673 57.5456 13.706C57.1629 13.4353 56.8876 13.1087 56.7196 12.726H56.6776C56.7056 13.0247 56.7196 13.2393 56.7196 13.37V16.212H57.6296C57.7509 16.212 57.8116 16.268 57.8116 16.38V16.982C57.8116 17.094 57.7509 17.15 57.6296 17.15ZM56.6916 10.584C56.6916 11.396 56.9016 12.0213 57.3216 12.46C57.7509 12.8987 58.2642 13.118 58.8616 13.118C59.4682 13.118 59.9722 12.8847 60.3736 12.418C60.7842 11.942 60.9896 11.3213 60.9896 10.556C60.9896 9.78133 60.7842 9.16067 60.3736 8.694C59.9722 8.22733 59.4682 7.994 58.8616 7.994C58.2549 7.994 57.7416 8.22267 57.3216 8.68C56.9016 9.13733 56.6916 9.772 56.6916 10.584ZM69.3811 10.696H64.3411C64.3785 11.4707 64.6211 12.068 65.0691 12.488C65.5265 12.908 66.0398 13.118 66.6091 13.118C67.1785 13.118 67.6638 12.9967 68.0651 12.754C68.4758 12.5113 68.7511 12.2733 68.8911 12.04C68.9658 11.9467 69.0498 11.9327 69.1431 11.998L69.5211 12.376C69.5771 12.432 69.6051 12.4833 69.6051 12.53C69.6051 12.5673 69.5818 12.6187 69.5351 12.684C69.4978 12.7493 69.4138 12.852 69.2831 12.992C69.1525 13.132 68.9658 13.2907 68.7231 13.468C68.4898 13.6453 68.1818 13.7947 67.7991 13.916C67.4258 14.0373 67.0245 14.098 66.5951 14.098C65.6151 14.098 64.7938 13.776 64.1311 13.132C63.4778 12.488 63.1511 11.6247 63.1511 10.542C63.1511 9.45 63.4778 8.59133 64.1311 7.966C64.7845 7.33133 65.5825 7.014 66.5251 7.014C67.4771 7.014 68.2238 7.322 68.7651 7.938C69.3065 8.54467 69.5771 9.366 69.5771 10.402C69.5771 10.4393 69.5771 10.4767 69.5771 10.514C69.5771 10.6353 69.5118 10.696 69.3811 10.696ZM68.4151 9.842C68.3871 9.26333 68.2051 8.80133 67.8691 8.456C67.5331 8.11067 67.0851 7.938 66.5251 7.938C65.9651 7.938 65.4845 8.09667 65.0831 8.414C64.6818 8.73133 64.4438 9.20733 64.3691 9.842H68.4151ZM78.1323 14H76.8023C76.401 14 76.2003 13.804 76.2003 13.412V9.73C76.2003 9.18867 76.0697 8.76867 75.8083 8.47C75.547 8.17133 75.1643 8.022 74.6603 8.022C73.9417 8.022 73.3817 8.316 72.9803 8.904C72.9337 8.96 72.873 9.06267 72.7983 9.212V13.062H73.5403C73.6617 13.062 73.7223 13.118 73.7223 13.23V13.832C73.7223 13.944 73.6617 14 73.5403 14H70.8663C70.745 14 70.6843 13.944 70.6843 13.832V13.23C70.6843 13.118 70.745 13.062 70.8663 13.062H71.6363V8.05H70.8663C70.745 8.05 70.6843 7.994 70.6843 7.882V7.28C70.6843 7.168 70.745 7.112 70.8663 7.112H72.5043C72.6257 7.112 72.6863 7.168 72.6863 7.28L72.6583 8.232H72.7003C73.1857 7.42 73.937 7.014 74.9543 7.014C75.701 7.014 76.2843 7.23333 76.7043 7.672C77.1243 8.11067 77.339 8.70333 77.3483 9.45V13.062H78.1323C78.2537 13.062 78.3143 13.118 78.3143 13.23V13.832C78.3143 13.944 78.2537 14 78.1323 14ZM93.8763 14H90.5023C90.3903 14 90.3343 13.944 90.3343 13.832V13.118C90.3343 13.006 90.3903 12.95 90.5023 12.95H91.5803V9.52H86.3723V12.95H87.4503C87.5717 12.95 87.6323 13.006 87.6323 13.118V13.832C87.6323 13.944 87.5717 14 87.4503 14H84.0903C83.969 14 83.9083 13.944 83.9083 13.832V13.118C83.9083 13.006 83.969 12.95 84.0903 12.95H85.1543V4.998H84.0903C83.969 4.998 83.9083 4.942 83.9083 4.83V4.116C83.9083 4.004 83.969 3.948 84.0903 3.948H87.4503C87.5717 3.948 87.6323 4.004 87.6323 4.116V4.83C87.6323 4.942 87.5717 4.998 87.4503 4.998H86.3723V8.498H91.5803V4.998H90.5023C90.3903 4.998 90.3343 4.942 90.3343 4.83V4.116C90.3343 4.004 90.3903 3.948 90.5023 3.948H93.8763C93.9883 3.948 94.0443 4.004 94.0443 4.116V4.83C94.0443 4.942 93.9883 4.998 93.8763 4.998H92.7983V12.95H93.8763C93.9883 12.95 94.0443 13.006 94.0443 13.118V13.832C94.0443 13.944 93.9883 14 93.8763 14ZM101.045 10.696H96.0052C96.0425 11.4707 96.2852 12.068 96.7332 12.488C97.1905 12.908 97.7039 13.118 98.2732 13.118C98.8425 13.118 99.3279 12.9967 99.7292 12.754C100.14 12.5113 100.415 12.2733 100.555 12.04C100.63 11.9467 100.714 11.9327 100.807 11.998L101.185 12.376C101.241 12.432 101.269 12.4833 101.269 12.53C101.269 12.5673 101.246 12.6187 101.199 12.684C101.162 12.7493 101.078 12.852 100.947 12.992C100.817 13.132 100.63 13.2907 100.387 13.468C100.154 13.6453 99.8459 13.7947 99.4632 13.916C99.0899 14.0373 98.6885 14.098 98.2592 14.098C97.2792 14.098 96.4579 13.776 95.7952 13.132C95.1419 12.488 94.8152 11.6247 94.8152 10.542C94.8152 9.45 95.1419 8.59133 95.7952 7.966C96.4485 7.33133 97.2465 7.014 98.1892 7.014C99.1412 7.014 99.8879 7.322 100.429 7.938C100.971 8.54467 101.241 9.366 101.241 10.402C101.241 10.4393 101.241 10.4767 101.241 10.514C101.241 10.6353 101.176 10.696 101.045 10.696ZM100.079 9.842C100.051 9.26333 99.8692 8.80133 99.5332 8.456C99.1972 8.11067 98.7492 7.938 98.1892 7.938C97.6292 7.938 97.1485 8.09667 96.7472 8.414C96.3459 8.73133 96.1079 9.20733 96.0332 9.842H100.079ZM109.209 14H107.991C107.589 14 107.389 13.804 107.389 13.412V12.698H107.361C106.679 13.6407 105.769 14.112 104.631 14.112C103.959 14.112 103.408 13.9393 102.979 13.594C102.549 13.2393 102.335 12.7633 102.335 12.166C102.335 11.4007 102.666 10.8407 103.329 10.486C104.001 10.122 104.92 9.94 106.087 9.94H107.263V9.772C107.263 8.60533 106.656 8.022 105.443 8.022C104.873 8.022 104.463 8.078 104.211 8.19C103.959 8.29267 103.777 8.37667 103.665 8.442C103.562 8.50733 103.483 8.55867 103.427 8.596C103.287 8.708 103.184 8.71733 103.119 8.624L102.727 8.134C102.661 8.05933 102.671 7.98467 102.755 7.91C102.913 7.70467 103.24 7.504 103.735 7.308C104.229 7.112 104.813 7.014 105.485 7.014C107.445 7.014 108.425 7.94733 108.425 9.814V13.062H109.209C109.321 13.062 109.377 13.118 109.377 13.23V13.832C109.377 13.944 109.321 14 109.209 14ZM107.263 10.78H106.157C105.615 10.78 105.167 10.808 104.813 10.864C104.458 10.92 104.155 11.0413 103.903 11.228C103.66 11.4147 103.539 11.6713 103.539 11.998C103.539 12.3247 103.669 12.5953 103.931 12.81C104.201 13.0153 104.551 13.118 104.981 13.118C105.886 13.118 106.647 12.7167 107.263 11.914V10.78ZM113.23 14H110.556C110.434 14 110.374 13.944 110.374 13.832V13.23C110.374 13.118 110.434 13.062 110.556 13.062H111.326V4.886H110.556C110.434 4.886 110.374 4.83 110.374 4.718V4.116C110.374 4.004 110.434 3.948 110.556 3.948H112.11C112.362 3.948 112.488 4.06467 112.488 4.298V13.062H113.23C113.351 13.062 113.412 13.118 113.412 13.23V13.832C113.412 13.944 113.351 14 113.23 14ZM119.083 13.286C119.12 13.3233 119.139 13.3653 119.139 13.412C119.139 13.4493 119.111 13.496 119.055 13.552C118.644 13.916 118.126 14.098 117.501 14.098C116.885 14.098 116.376 13.8973 115.975 13.496C115.583 13.0853 115.387 12.4927 115.387 11.718V8.05H114.603C114.472 8.05 114.407 7.98933 114.407 7.868V7.294C114.407 7.17267 114.472 7.112 114.603 7.112H115.387V5.698C115.387 5.56733 115.452 5.502 115.583 5.502H116.367C116.488 5.502 116.549 5.56733 116.549 5.698V7.112H118.327C118.458 7.112 118.523 7.17267 118.523 7.294V7.868C118.523 7.98933 118.458 8.05 118.327 8.05H116.549V11.69C116.549 12.1567 116.652 12.5113 116.857 12.754C117.072 12.9873 117.352 13.104 117.697 13.104C118.052 13.104 118.318 13.0153 118.495 12.838C118.588 12.754 118.672 12.7587 118.747 12.852L119.083 13.286ZM127.351 14H126.021C125.62 14 125.419 13.804 125.419 13.412V9.73C125.419 9.18867 125.288 8.76867 125.027 8.47C124.766 8.17133 124.383 8.022 123.879 8.022C123.496 8.022 123.202 8.08267 122.997 8.204C122.801 8.316 122.652 8.41867 122.549 8.512C122.446 8.596 122.362 8.68 122.297 8.764C122.185 8.91333 122.092 9.06733 122.017 9.226V13.062H122.759C122.88 13.062 122.941 13.118 122.941 13.23V13.832C122.941 13.944 122.88 14 122.759 14H120.085C119.964 14 119.903 13.944 119.903 13.832V13.23C119.903 13.118 119.964 13.062 120.085 13.062H120.855V4.886H120.085C119.964 4.886 119.903 4.83 119.903 4.718V4.116C119.903 4.004 119.964 3.948 120.085 3.948H121.849C121.961 3.948 122.017 4.004 122.017 4.116V7.238C122.017 7.546 121.998 7.83067 121.961 8.092H121.989C122.446 7.37333 123.174 7.014 124.173 7.014C124.92 7.014 125.503 7.23333 125.923 7.672C126.343 8.11067 126.558 8.70333 126.567 9.45V13.062H127.351C127.472 13.062 127.533 13.118 127.533 13.23V13.832C127.533 13.944 127.472 14 127.351 14ZM47.214 32H43.854C43.7327 32 43.672 31.944 43.672 31.832V31.118C43.672 31.006 43.7327 30.95 43.854 30.95H44.918V22.998H43.854C43.7327 22.998 43.672 22.942 43.672 22.83V22.116C43.672 22.004 43.7327 21.948 43.854 21.948H47.214C47.3353 21.948 47.396 22.004 47.396 22.116V22.83C47.396 22.942 47.3353 22.998 47.214 22.998H46.136V30.95H47.214C47.3353 30.95 47.396 31.006 47.396 31.118V31.832C47.396 31.944 47.3353 32 47.214 32ZM60.3376 32H59.0076C58.7929 32 58.6342 31.958 58.5316 31.874C58.4382 31.7807 58.3916 31.6267 58.3916 31.412V27.73C58.3916 27.1887 58.2609 26.7687 57.9996 26.47C57.7476 26.1713 57.3696 26.022 56.8656 26.022C56.1282 26.022 55.5496 26.344 55.1296 26.988C55.1856 27.156 55.2136 27.3427 55.2136 27.548V31.062H55.9976C56.1096 31.062 56.1656 31.118 56.1656 31.23V31.832C56.1656 31.944 56.1096 32 55.9976 32H53.3236C53.2022 32 53.1416 31.944 53.1416 31.832V31.23C53.1416 31.118 53.2022 31.062 53.3236 31.062H54.0656V27.73C54.0656 27.1887 53.9349 26.7687 53.6736 26.47C53.4122 26.1713 53.0296 26.022 52.5256 26.022C52.1429 26.022 51.8489 26.0827 51.6436 26.204C51.4476 26.316 51.2982 26.4187 51.1956 26.512C51.0929 26.596 51.0089 26.68 50.9436 26.764C50.8316 26.9133 50.7382 27.0673 50.6636 27.226V31.062H51.3496C51.4616 31.062 51.5176 31.118 51.5176 31.23V31.832C51.5176 31.944 51.4616 32 51.3496 32H48.7316C48.6102 32 48.5496 31.944 48.5496 31.832V31.23C48.5496 31.118 48.6102 31.062 48.7316 31.062H49.5016V26.05H48.7316C48.6102 26.05 48.5496 25.994 48.5496 25.882V25.28C48.5496 25.168 48.6102 25.112 48.7316 25.112H50.1036C50.2622 25.112 50.3742 25.1447 50.4396 25.21C50.5142 25.266 50.5516 25.3733 50.5516 25.532L50.5236 26.232H50.5656C51.0509 25.42 51.8022 25.014 52.8196 25.014C53.8462 25.014 54.5462 25.4013 54.9196 26.176C55.4516 25.4013 56.2029 25.014 57.1736 25.014C57.9202 25.014 58.4989 25.2333 58.9096 25.672C59.3296 26.1107 59.5396 26.7033 59.5396 27.45L59.5536 31.062H60.3376C60.4589 31.062 60.5196 31.118 60.5196 31.23V31.832C60.5196 31.944 60.4589 32 60.3376 32ZM68.3162 32H67.0982C66.6968 32 66.4962 31.804 66.4962 31.412V30.698H66.4682C65.7868 31.6407 64.8768 32.112 63.7382 32.112C63.0662 32.112 62.5155 31.9393 62.0862 31.594C61.6568 31.2393 61.4422 30.7633 61.4422 30.166C61.4422 29.4007 61.7735 28.8407 62.4362 28.486C63.1082 28.122 64.0275 27.94 65.1942 27.94H66.3702V27.772C66.3702 26.6053 65.7635 26.022 64.5502 26.022C63.9808 26.022 63.5702 26.078 63.3182 26.19C63.0662 26.2927 62.8842 26.3767 62.7722 26.442C62.6695 26.5073 62.5902 26.5587 62.5342 26.596C62.3942 26.708 62.2915 26.7173 62.2262 26.624L61.8342 26.134C61.7688 26.0593 61.7782 25.9847 61.8622 25.91C62.0208 25.7047 62.3475 25.504 62.8422 25.308C63.3368 25.112 63.9202 25.014 64.5922 25.014C66.5522 25.014 67.5322 25.9473 67.5322 27.814V31.062H68.3162C68.4282 31.062 68.4842 31.118 68.4842 31.23V31.832C68.4842 31.944 68.4282 32 68.3162 32ZM66.3702 28.78H65.2642C64.7228 28.78 64.2748 28.808 63.9202 28.864C63.5655 28.92 63.2622 29.0413 63.0102 29.228C62.7675 29.4147 62.6462 29.6713 62.6462 29.998C62.6462 30.3247 62.7768 30.5953 63.0382 30.81C63.3088 31.0153 63.6588 31.118 64.0882 31.118C64.9935 31.118 65.7542 30.7167 66.3702 29.914V28.78ZM72.6055 35.276C72.1388 35.276 71.7842 35.2433 71.5415 35.178C71.3082 35.1127 71.1168 35.052 70.9675 34.996C70.8275 34.9493 70.7062 34.898 70.6035 34.842C70.5008 34.7953 70.4028 34.744 70.3095 34.688C69.8988 34.4173 69.7448 34.2213 69.8475 34.1L70.2115 33.582C70.2675 33.498 70.3468 33.4933 70.4495 33.568C70.4588 33.568 70.4868 33.5867 70.5335 33.624C70.5895 33.6707 70.6408 33.7127 70.6875 33.75C70.7435 33.7873 70.8135 33.8293 70.8975 33.876C70.9908 33.932 71.0935 33.9787 71.2055 34.016C71.3175 34.0627 71.4388 34.1047 71.5695 34.142C71.8775 34.226 72.2182 34.268 72.5915 34.268C73.2635 34.268 73.8002 34.1047 74.2015 33.778C74.6122 33.4607 74.8175 32.9567 74.8175 32.266V30.67C74.6495 31.062 74.3695 31.398 73.9775 31.678C73.5948 31.958 73.1142 32.098 72.5355 32.098C71.5835 32.098 70.8182 31.7667 70.2395 31.104C69.6702 30.4413 69.3855 29.5827 69.3855 28.528C69.3855 27.4733 69.6748 26.624 70.2535 25.98C70.8415 25.336 71.6022 25.014 72.5355 25.014C73.1142 25.014 73.5995 25.1493 73.9915 25.42C74.3928 25.6813 74.6822 26.0033 74.8595 26.386H74.8875L74.8735 25.28C74.8735 25.168 74.9295 25.112 75.0415 25.112H76.6935C76.8055 25.112 76.8615 25.168 76.8615 25.28V25.882C76.8615 25.994 76.8055 26.05 76.6935 26.05H75.9375V32.266C75.9375 33.2647 75.6295 34.016 75.0135 34.52C74.4068 35.024 73.6042 35.276 72.6055 35.276ZM70.5335 28.556C70.5335 29.3213 70.7388 29.942 71.1495 30.418C71.5602 30.8847 72.0735 31.118 72.6895 31.118C73.3055 31.118 73.8142 30.8847 74.2155 30.418C74.6262 29.9513 74.8315 29.326 74.8315 28.542C74.8315 27.758 74.6262 27.1373 74.2155 26.68C73.8142 26.2227 73.3055 25.994 72.6895 25.994C72.0735 25.994 71.5602 26.2273 71.1495 26.694C70.7388 27.1607 70.5335 27.7813 70.5335 28.556ZM80.8001 32H78.1261C78.0048 32 77.9441 31.944 77.9441 31.832V31.23C77.9441 31.118 78.0048 31.062 78.1261 31.062H78.8961V26.05H78.1261C78.0048 26.05 77.9441 25.994 77.9441 25.882V25.28C77.9441 25.168 78.0048 25.112 78.1261 25.112H79.8901C80.0021 25.112 80.0581 25.168 80.0581 25.28V31.062H80.8001C80.9214 31.062 80.9821 31.118 80.9821 31.23V31.832C80.9821 31.944 80.9214 32 80.8001 32ZM80.0021 23.04C80.1608 23.1987 80.2401 23.3853 80.2401 23.6C80.2401 23.8147 80.1608 23.9967 80.0021 24.146C79.8528 24.2953 79.6708 24.37 79.4561 24.37C79.2414 24.37 79.0548 24.2953 78.8961 24.146C78.7468 23.9967 78.6721 23.8147 78.6721 23.6C78.6721 23.3853 78.7468 23.1987 78.8961 23.04C79.0548 22.8813 79.2414 22.802 79.4561 22.802C79.6708 22.802 79.8528 22.8813 80.0021 23.04ZM89.4937 32H88.1637C87.7623 32 87.5617 31.804 87.5617 31.412V27.73C87.5617 27.1887 87.431 26.7687 87.1697 26.47C86.9083 26.1713 86.5257 26.022 86.0217 26.022C85.303 26.022 84.743 26.316 84.3417 26.904C84.295 26.96 84.2343 27.0627 84.1597 27.212V31.062H84.9017C85.023 31.062 85.0837 31.118 85.0837 31.23V31.832C85.0837 31.944 85.023 32 84.9017 32H82.2277C82.1063 32 82.0457 31.944 82.0457 31.832V31.23C82.0457 31.118 82.1063 31.062 82.2277 31.062H82.9977V26.05H82.2277C82.1063 26.05 82.0457 25.994 82.0457 25.882V25.28C82.0457 25.168 82.1063 25.112 82.2277 25.112H83.8657C83.987 25.112 84.0477 25.168 84.0477 25.28L84.0197 26.232H84.0617C84.547 25.42 85.2983 25.014 86.3157 25.014C87.0623 25.014 87.6457 25.2333 88.0657 25.672C88.4857 26.1107 88.7003 26.7033 88.7097 27.45V31.062H89.4937C89.615 31.062 89.6757 31.118 89.6757 31.23V31.832C89.6757 31.944 89.615 32 89.4937 32ZM93.7012 35.276C93.2346 35.276 92.8799 35.2433 92.6372 35.178C92.4039 35.1127 92.2126 35.052 92.0632 34.996C91.9232 34.9493 91.8019 34.898 91.6992 34.842C91.5966 34.7953 91.4986 34.744 91.4052 34.688C90.9946 34.4173 90.8406 34.2213 90.9432 34.1L91.3072 33.582C91.3632 33.498 91.4426 33.4933 91.5452 33.568C91.5546 33.568 91.5826 33.5867 91.6292 33.624C91.6852 33.6707 91.7366 33.7127 91.7832 33.75C91.8392 33.7873 91.9092 33.8293 91.9932 33.876C92.0866 33.932 92.1892 33.9787 92.3012 34.016C92.4132 34.0627 92.5346 34.1047 92.6652 34.142C92.9732 34.226 93.3139 34.268 93.6872 34.268C94.3592 34.268 94.8959 34.1047 95.2972 33.778C95.7079 33.4607 95.9132 32.9567 95.9132 32.266V30.67C95.7452 31.062 95.4652 31.398 95.0732 31.678C94.6906 31.958 94.2099 32.098 93.6312 32.098C92.6792 32.098 91.9139 31.7667 91.3352 31.104C90.7659 30.4413 90.4812 29.5827 90.4812 28.528C90.4812 27.4733 90.7706 26.624 91.3492 25.98C91.9372 25.336 92.6979 25.014 93.6312 25.014C94.2099 25.014 94.6952 25.1493 95.0872 25.42C95.4886 25.6813 95.7779 26.0033 95.9552 26.386H95.9832L95.9692 25.28C95.9692 25.168 96.0252 25.112 96.1372 25.112H97.7892C97.9012 25.112 97.9572 25.168 97.9572 25.28V25.882C97.9572 25.994 97.9012 26.05 97.7892 26.05H97.0332V32.266C97.0332 33.2647 96.7252 34.016 96.1092 34.52C95.5026 35.024 94.6999 35.276 93.7012 35.276ZM91.6292 28.556C91.6292 29.3213 91.8346 29.942 92.2452 30.418C92.6559 30.8847 93.1692 31.118 93.7852 31.118C94.4012 31.118 94.9099 30.8847 95.3112 30.418C95.7219 29.9513 95.9272 29.326 95.9272 28.542C95.9272 27.758 95.7219 27.1373 95.3112 26.68C94.9099 26.2227 94.4012 25.994 93.7852 25.994C93.1692 25.994 92.6559 26.2273 92.2452 26.694C91.8346 27.1607 91.6292 27.7813 91.6292 28.556ZM107.614 32H103.75C103.629 32 103.568 31.944 103.568 31.832V31.118C103.568 31.006 103.629 30.95 103.75 30.95H104.814V22.998H103.75C103.629 22.998 103.568 22.942 103.568 22.83V22.116C103.568 22.004 103.629 21.948 103.75 21.948H110.932C111.054 21.948 111.114 22.004 111.114 22.116V24.37C111.114 24.4913 111.054 24.552 110.932 24.552H110.176C110.064 24.552 110.008 24.4913 110.008 24.37V22.998H106.032V26.47H109.322C109.444 26.47 109.504 26.526 109.504 26.638V27.352C109.504 27.464 109.444 27.52 109.322 27.52H106.032V30.95H107.614C107.726 30.95 107.782 31.006 107.782 31.118V31.832C107.782 31.944 107.726 32 107.614 32ZM117.227 31.118C116.574 31.7713 115.738 32.098 114.721 32.098C113.704 32.098 112.868 31.776 112.215 31.132C111.562 30.4787 111.235 29.6153 111.235 28.542C111.235 27.4593 111.566 26.6007 112.229 25.966C112.892 25.3313 113.722 25.014 114.721 25.014C115.729 25.014 116.56 25.336 117.213 25.98C117.876 26.6147 118.207 27.4687 118.207 28.542C118.207 29.606 117.88 30.4647 117.227 31.118ZM112.411 28.542C112.411 29.3073 112.635 29.928 113.083 30.404C113.531 30.88 114.077 31.118 114.721 31.118C115.374 31.118 115.925 30.88 116.373 30.404C116.821 29.928 117.045 29.3073 117.045 28.542C117.045 27.7767 116.816 27.1607 116.359 26.694C115.911 26.2273 115.37 25.994 114.735 25.994C114.1 25.994 113.554 26.2273 113.097 26.694C112.64 27.1607 112.411 27.7767 112.411 28.542ZM126.308 32H125.09C124.688 32 124.488 31.804 124.488 31.412V30.894H124.446C124.063 31.6967 123.335 32.098 122.262 32.098C121.515 32.098 120.922 31.8787 120.484 31.44C120.054 30.992 119.835 30.3993 119.826 29.662V26.05H119.028C118.916 26.05 118.86 25.994 118.86 25.882V25.28C118.86 25.168 118.916 25.112 119.028 25.112H120.372C120.773 25.112 120.974 25.308 120.974 25.7V29.382C120.974 29.9233 121.104 30.3433 121.366 30.642C121.627 30.9407 122.01 31.09 122.514 31.09C123.195 31.09 123.732 30.838 124.124 30.334C124.292 30.1193 124.376 29.9747 124.376 29.9V26.05H123.62C123.508 26.05 123.452 25.994 123.452 25.882V25.28C123.452 25.168 123.508 25.112 123.62 25.112H125.356C125.468 25.112 125.524 25.168 125.524 25.28V31.062H126.308C126.429 31.062 126.49 31.118 126.49 31.23V31.832C126.49 31.944 126.429 32 126.308 32ZM134.966 32H133.636C133.235 32 133.034 31.804 133.034 31.412V27.73C133.034 27.1887 132.904 26.7687 132.642 26.47C132.381 26.1713 131.998 26.022 131.494 26.022C130.776 26.022 130.216 26.316 129.814 26.904C129.768 26.96 129.707 27.0627 129.632 27.212V31.062H130.374C130.496 31.062 130.556 31.118 130.556 31.23V31.832C130.556 31.944 130.496 32 130.374 32H127.7C127.579 32 127.518 31.944 127.518 31.832V31.23C127.518 31.118 127.579 31.062 127.7 31.062H128.47V26.05H127.7C127.579 26.05 127.518 25.994 127.518 25.882V25.28C127.518 25.168 127.579 25.112 127.7 25.112H129.338C129.46 25.112 129.52 25.168 129.52 25.28L129.492 26.232H129.534C130.02 25.42 130.771 25.014 131.788 25.014C132.535 25.014 133.118 25.2333 133.538 25.672C133.958 26.1107 134.173 26.7033 134.182 27.45V31.062H134.966C135.088 31.062 135.148 31.118 135.148 31.23V31.832C135.148 31.944 135.088 32 134.966 32ZM143.181 32H141.963C141.748 32 141.589 31.958 141.487 31.874C141.393 31.7807 141.347 31.6267 141.347 31.412V30.628H141.333C141.183 31.02 140.903 31.3653 140.493 31.664C140.082 31.9533 139.583 32.098 138.995 32.098C138.061 32.098 137.301 31.7713 136.713 31.118C136.134 30.4647 135.845 29.6107 135.845 28.556C135.845 27.492 136.134 26.638 136.713 25.994C137.301 25.3407 138.066 25.014 139.008 25.014C139.587 25.014 140.068 25.1493 140.451 25.42C140.833 25.6813 141.109 26.0033 141.277 26.386H141.291C141.281 26.1993 141.277 26.0453 141.277 25.924V22.886H140.493C140.371 22.886 140.311 22.83 140.311 22.718V22.116C140.311 22.004 140.371 21.948 140.493 21.948H142.229C142.341 21.948 142.397 22.004 142.397 22.116V31.062H143.181C143.293 31.062 143.349 31.118 143.349 31.23V31.832C143.349 31.944 143.293 32 143.181 32ZM136.993 28.528C136.993 29.3027 137.193 29.928 137.595 30.404C138.005 30.88 138.523 31.118 139.149 31.118C139.774 31.118 140.287 30.8847 140.689 30.418C141.09 29.942 141.291 29.312 141.291 28.528C141.291 27.744 141.085 27.128 140.675 26.68C140.264 26.2227 139.755 25.994 139.149 25.994C138.542 25.994 138.029 26.2227 137.609 26.68C137.198 27.1373 136.993 27.7533 136.993 28.528ZM151.291 32H150.073C149.671 32 149.471 31.804 149.471 31.412V30.698H149.443C148.761 31.6407 147.851 32.112 146.713 32.112C146.041 32.112 145.49 31.9393 145.061 31.594C144.631 31.2393 144.417 30.7633 144.417 30.166C144.417 29.4007 144.748 28.8407 145.411 28.486C146.083 28.122 147.002 27.94 148.169 27.94H149.345V27.772C149.345 26.6053 148.738 26.022 147.525 26.022C146.955 26.022 146.545 26.078 146.293 26.19C146.041 26.2927 145.859 26.3767 145.747 26.442C145.644 26.5073 145.565 26.5587 145.509 26.596C145.369 26.708 145.266 26.7173 145.201 26.624L144.809 26.134C144.743 26.0593 144.753 25.9847 144.837 25.91C144.995 25.7047 145.322 25.504 145.817 25.308C146.311 25.112 146.895 25.014 147.567 25.014C149.527 25.014 150.507 25.9473 150.507 27.814V31.062H151.291C151.403 31.062 151.459 31.118 151.459 31.23V31.832C151.459 31.944 151.403 32 151.291 32ZM149.345 28.78H148.239C147.697 28.78 147.249 28.808 146.895 28.864C146.54 28.92 146.237 29.0413 145.985 29.228C145.742 29.4147 145.621 29.6713 145.621 29.998C145.621 30.3247 145.751 30.5953 146.013 30.81C146.283 31.0153 146.633 31.118 147.063 31.118C147.968 31.118 148.729 30.7167 149.345 29.914V28.78ZM156.804 31.286C156.841 31.3233 156.86 31.3653 156.86 31.412C156.86 31.4493 156.832 31.496 156.776 31.552C156.365 31.916 155.847 32.098 155.222 32.098C154.606 32.098 154.097 31.8973 153.696 31.496C153.304 31.0853 153.108 30.4927 153.108 29.718V26.05H152.324C152.193 26.05 152.128 25.9893 152.128 25.868V25.294C152.128 25.1727 152.193 25.112 152.324 25.112H153.108V23.698C153.108 23.5673 153.173 23.502 153.304 23.502H154.088C154.209 23.502 154.27 23.5673 154.27 23.698V25.112H156.048C156.178 25.112 156.244 25.1727 156.244 25.294V25.868C156.244 25.9893 156.178 26.05 156.048 26.05H154.27V29.69C154.27 30.1567 154.372 30.5113 154.578 30.754C154.792 30.9873 155.072 31.104 155.418 31.104C155.772 31.104 156.038 31.0153 156.216 30.838C156.309 30.754 156.393 30.7587 156.468 30.852L156.804 31.286ZM160.493 32H157.819C157.698 32 157.637 31.944 157.637 31.832V31.23C157.637 31.118 157.698 31.062 157.819 31.062H158.589V26.05H157.819C157.698 26.05 157.637 25.994 157.637 25.882V25.28C157.637 25.168 157.698 25.112 157.819 25.112H159.583C159.695 25.112 159.751 25.168 159.751 25.28V31.062H160.493C160.615 31.062 160.675 31.118 160.675 31.23V31.832C160.675 31.944 160.615 32 160.493 32ZM159.695 23.04C159.854 23.1987 159.933 23.3853 159.933 23.6C159.933 23.8147 159.854 23.9967 159.695 24.146C159.546 24.2953 159.364 24.37 159.149 24.37C158.935 24.37 158.748 24.2953 158.589 24.146C158.44 23.9967 158.365 23.8147 158.365 23.6C158.365 23.3853 158.44 23.1987 158.589 23.04C158.748 22.8813 158.935 22.802 159.149 22.802C159.364 22.802 159.546 22.8813 159.695 23.04ZM167.567 31.118C166.914 31.7713 166.078 32.098 165.061 32.098C164.044 32.098 163.208 31.776 162.555 31.132C161.902 30.4787 161.575 29.6153 161.575 28.542C161.575 27.4593 161.906 26.6007 162.569 25.966C163.232 25.3313 164.062 25.014 165.061 25.014C166.069 25.014 166.9 25.336 167.553 25.98C168.216 26.6147 168.547 27.4687 168.547 28.542C168.547 29.606 168.22 30.4647 167.567 31.118ZM162.751 28.542C162.751 29.3073 162.975 29.928 163.423 30.404C163.871 30.88 164.417 31.118 165.061 31.118C165.714 31.118 166.265 30.88 166.713 30.404C167.161 29.928 167.385 29.3073 167.385 28.542C167.385 27.7767 167.156 27.1607 166.699 26.694C166.251 26.2273 165.71 25.994 165.075 25.994C164.44 25.994 163.894 26.2273 163.437 26.694C162.98 27.1607 162.751 27.7767 162.751 28.542ZM177.035 32H175.705C175.303 32 175.103 31.804 175.103 31.412V27.73C175.103 27.1887 174.972 26.7687 174.711 26.47C174.449 26.1713 174.067 26.022 173.563 26.022C172.844 26.022 172.284 26.316 171.883 26.904C171.836 26.96 171.775 27.0627 171.701 27.212V31.062H172.443C172.564 31.062 172.625 31.118 172.625 31.23V31.832C172.625 31.944 172.564 32 172.443 32H169.769C169.647 32 169.587 31.944 169.587 31.832V31.23C169.587 31.118 169.647 31.062 169.769 31.062H170.539V26.05H169.769C169.647 26.05 169.587 25.994 169.587 25.882V25.28C169.587 25.168 169.647 25.112 169.769 25.112H171.407C171.528 25.112 171.589 25.168 171.589 25.28L171.561 26.232H171.603C172.088 25.42 172.839 25.014 173.857 25.014C174.603 25.014 175.187 25.2333 175.607 25.672C176.027 26.1107 176.241 26.7033 176.251 27.45V31.062H177.035C177.156 31.062 177.217 31.118 177.217 31.23V31.832C177.217 31.944 177.156 32 177.035 32Z" fill="white"/>
<g clip-path="url(#clip0)">
<path d="M13.7814 0.904266H1.62817C1.22865 0.904266 0.90477 1.22815 0.90477 1.62767V13.7809C0.90477 14.1804 1.22865 14.5043 1.62817 14.5043H13.7814C14.1809 14.5043 14.5048 14.1804 14.5048 13.7809V1.62767C14.5048 1.22815 14.1809 0.904266 13.7814 0.904266Z" stroke="white" stroke-width="2"/>
<path d="M31.6841 0.904266H19.5309C19.1314 0.904266 18.8075 1.22815 18.8075 1.62767V13.7809C18.8075 14.1804 19.1314 14.5043 19.5309 14.5043H31.6841C32.0836 14.5043 32.4075 14.1804 32.4075 13.7809V1.62767C32.4075 1.22815 32.0836 0.904266 31.6841 0.904266Z" stroke="white" stroke-width="2"/>
<path d="M13.7814 18.8085H1.62817C1.22865 18.8085 0.90477 19.1324 0.90477 19.5319V31.6851C0.90477 32.0847 1.22865 32.4085 1.62817 32.4085H13.7814C14.1809 32.4085 14.5048 32.0847 14.5048 31.6851V19.5319C14.5048 19.1324 14.1809 18.8085 13.7814 18.8085Z" stroke="white" stroke-width="2"/>
<path d="M31.6841 18.8085H19.5309C19.1314 18.8085 18.8075 19.1324 18.8075 19.5319V31.6851C18.8075 32.0847 19.1314 32.4085 19.5309 32.4085H31.6841C32.0836 32.4085 32.4075 32.0847 32.4075 31.6851V19.5319C32.4075 19.1324 32.0836 18.8085 31.6841 18.8085Z" stroke="white" stroke-width="2"/>
</g>
<defs>
<clipPath id="clip0">
<rect width="34" height="34" fill="white"/>
</clipPath>
</defs>
</svg>
