<?xml version="1.0" encoding="utf-8"?>
<!-- Generator: Adobe Illustrator 24.0.3, SVG Export Plug-In . SVG Version: 6.00 Build 0)  -->
<svg version="1.1" id="Layer_1" xmlns="http://www.w3.org/2000/svg" xmlns:xlink="http://www.w3.org/1999/xlink" x="0px" y="0px"
	 viewBox="0 0 400.79 100" style="enable-background:new 0 0 400.79 100;" xml:space="preserve">
<style type="text/css">
	.st0{fill:#FFFFFF;}
</style>
<path class="st0" d="M96.5,25.81C95.44,24.07,93.54,23,91.48,23H87l15.2,27l-15.2,27h4.49c2.06,0,3.96-1.07,5.02-2.81L110,50
	L96.5,25.81z"/>
<path class="st0" d="M82.99,23H28.76c-3.19,0-5.77,2.59-5.77,5.79v42.43c0,3.2,2.58,5.79,5.77,5.79h54.23l15-27L82.99,23z M50.99,62
	h-4l-11-17.6V62h-4V38h4l11,17.6V38h4V62z M58.99,62h-4V38h4V62z M81.99,62h-4V52h-11v10h-4V38h4v10h11V38h4V62z"/>
<g>
	<path class="st0" d="M130.85,31h2.5v11.18h-2.5l-5.33-7.01v7.01h-2.5V31h2.34l5.49,7.2V31z"/>
	<path class="st0" d="M144.06,42.18l-1.04-2.42h-4.69l-1.04,2.42h-2.66L139.47,31h2.42l4.83,11.18H144.06z M140.69,34.33l-1.41,3.25
		h2.8L140.69,34.33z"/>
	<path class="st0" d="M151.94,33.16v9.02h-2.5v-9.02h-3.17V31h8.83v2.16H151.94z"/>
	<path class="st0" d="M156.93,31h2.5v11.18h-2.5V31z"/>
	<path class="st0" d="M171.58,40.64c-1.13,1.1-2.52,1.66-4.18,1.66s-3.05-0.55-4.18-1.66c-1.13-1.1-1.7-2.48-1.7-4.12
		c0-1.64,0.57-3.02,1.7-4.12c1.13-1.1,2.52-1.66,4.18-1.66s3.04,0.55,4.18,1.66c1.13,1.1,1.7,2.48,1.7,4.12
		C173.28,38.16,172.71,39.54,171.58,40.64z M170.74,36.53c0-1-0.32-1.85-0.96-2.55c-0.64-0.7-1.43-1.06-2.36-1.06
		s-1.72,0.35-2.36,1.06c-0.64,0.7-0.96,1.55-0.96,2.55c0,1,0.32,1.85,0.96,2.54c0.64,0.7,1.43,1.05,2.36,1.05s1.72-0.35,2.36-1.05
		C170.42,38.37,170.74,37.52,170.74,36.53z"/>
	<path class="st0" d="M183.22,31h2.5v11.18h-2.5l-5.33-7.01v7.01h-2.5V31h2.34l5.49,7.2V31z"/>
	<path class="st0" d="M196.43,42.18l-1.04-2.42h-4.69l-1.04,2.42h-2.66L191.84,31h2.42l4.83,11.18H196.43z M193.06,34.33l-1.41,3.25
		h2.8L193.06,34.33z"/>
	<path class="st0" d="M200.38,42.18V31h2.5v8.96h4.77v2.22H200.38z"/>
	<path class="st0" d="M218.83,39.98c1.23,0,2.23-0.49,3.01-1.46l1.6,1.65c-1.27,1.43-2.77,2.14-4.49,2.14s-3.14-0.54-4.26-1.63
		c-1.11-1.09-1.67-2.46-1.67-4.12c0-1.66,0.57-3.04,1.7-4.15c1.14-1.11,2.53-1.66,4.17-1.66c1.83,0,3.37,0.7,4.61,2.1l-1.55,1.76
		c-0.79-0.98-1.77-1.47-2.94-1.47c-0.94,0-1.74,0.31-2.41,0.92c-0.67,0.61-1,1.44-1,2.48s0.31,1.88,0.94,2.5
		C217.17,39.66,217.94,39.98,218.83,39.98z"/>
	<path class="st0" d="M233.3,42.18l-1.04-2.42h-4.69l-1.04,2.42h-2.66L228.7,31h2.42l4.83,11.18H233.3z M229.92,34.33l-1.41,3.25
		h2.8L229.92,34.33z"/>
	<path class="st0" d="M245.07,31h2.5v11.18h-2.5l-5.33-7.01v7.01h-2.5V31h2.34l5.49,7.2V31z"/>
	<path class="st0" d="M255.46,39.98c1.23,0,2.23-0.49,3.01-1.46l1.6,1.65c-1.27,1.43-2.77,2.14-4.49,2.14s-3.14-0.54-4.26-1.63
		c-1.12-1.09-1.67-2.46-1.67-4.12c0-1.66,0.57-3.04,1.7-4.15c1.14-1.11,2.52-1.66,4.17-1.66c1.83,0,3.37,0.7,4.61,2.1l-1.55,1.76
		c-0.79-0.98-1.77-1.47-2.94-1.47c-0.94,0-1.74,0.31-2.41,0.92c-0.67,0.61-1,1.44-1,2.48s0.32,1.88,0.94,2.5
		C253.8,39.66,254.56,39.98,255.46,39.98z"/>
	<path class="st0" d="M270.09,31v2.22h-5.57v2.3h5.01v2.13h-5.01v2.32h5.74v2.21h-8.24V31H270.09z"/>
	<path class="st0" d="M281.57,34.71c0,1.79-0.71,2.95-2.13,3.47l2.83,4h-3.07l-2.48-3.57h-1.73v3.57h-2.5V31h4.24
		c1.74,0,2.98,0.29,3.72,0.88S281.57,33.41,281.57,34.71z M278.56,36.04c0.31-0.28,0.46-0.72,0.46-1.32s-0.16-1.02-0.48-1.24
		s-0.88-0.34-1.68-0.34h-1.87v3.31h1.82C277.67,36.46,278.25,36.32,278.56,36.04z"/>
	<path class="st0" d="M288.35,31h2.5v11.18h-2.5V31z"/>
	<path class="st0" d="M301.42,31h2.5v11.18h-2.5l-5.33-7.01v7.01h-2.5V31h2.34l5.49,7.2V31z"/>
	<path class="st0" d="M309.29,33.23c-0.24,0.2-0.36,0.46-0.36,0.78s0.15,0.58,0.44,0.78c0.29,0.19,0.97,0.42,2.03,0.68
		s1.89,0.65,2.47,1.18c0.59,0.52,0.88,1.29,0.88,2.29c0,1-0.38,1.82-1.13,2.44s-1.74,0.94-2.97,0.94c-1.77,0-3.37-0.66-4.78-1.97
		l1.49-1.82c1.21,1.06,2.32,1.58,3.34,1.58c0.46,0,0.82-0.1,1.08-0.3c0.26-0.2,0.39-0.46,0.39-0.8s-0.14-0.6-0.42-0.8
		s-0.83-0.4-1.65-0.6c-1.3-0.31-2.25-0.71-2.86-1.21s-0.9-1.27-0.9-2.34s0.38-1.88,1.14-2.46c0.76-0.58,1.71-0.86,2.86-0.86
		c0.75,0,1.49,0.13,2.24,0.38c0.75,0.26,1.4,0.62,1.95,1.09l-1.26,1.82c-0.97-0.74-1.97-1.1-3.01-1.1
		C309.85,32.94,309.53,33.03,309.29,33.23z"/>
	<path class="st0" d="M321.52,33.16v9.02h-2.5v-9.02h-3.17V31h8.83v2.16H321.52z"/>
	<path class="st0" d="M326.51,31h2.5v11.18h-2.5V31z"/>
	<path class="st0" d="M336.49,33.16v9.02H334v-9.02h-3.17V31h8.83v2.16H336.49z"/>
	<path class="st0" d="M344.45,39.3c0.42,0.52,0.98,0.78,1.68,0.78s1.26-0.26,1.67-0.78c0.41-0.52,0.62-1.22,0.62-2.12V31h2.5v6.26
		c0,1.62-0.45,2.87-1.34,3.74c-0.9,0.87-2.04,1.3-3.44,1.3c-1.4,0-2.55-0.44-3.45-1.31c-0.9-0.87-1.35-2.12-1.35-3.73V31h2.5v6.18
		C343.82,38.07,344.03,38.78,344.45,39.3z"/>
	<path class="st0" d="M358.24,33.16v9.02h-2.5v-9.02h-3.17V31h8.83v2.16H358.24z"/>
	<path class="st0" d="M371.29,31v2.22h-5.57v2.3h5.01v2.13h-5.01v2.32h5.74v2.21h-8.24V31H371.29z"/>
</g>
<g>
	<path class="st0" d="M122.99,54.49h3.28v14.68h-3.28V54.49z"/>
	<path class="st0" d="M139.94,63.08v6.09h-3.17V63c0-0.9-0.14-1.55-0.41-1.97c-0.27-0.42-0.71-0.63-1.32-0.63
		c-0.61,0-1.15,0.23-1.62,0.68c-0.47,0.46-0.7,1.12-0.7,2.01v6.09h-3.15v-11.3h3.15v1.28c0.87-0.98,1.86-1.47,2.98-1.47
		c0.71,0,1.36,0.21,1.94,0.63s1.02,0.93,1.31,1.53c0.43-0.69,1.02-1.22,1.75-1.6c0.73-0.38,1.47-0.57,2.21-0.57
		c1.33,0,2.4,0.4,3.21,1.19c0.81,0.79,1.22,1.94,1.22,3.43v6.87h-3.17V63c0-1.74-0.64-2.6-1.91-2.6c-0.63,0-1.18,0.23-1.64,0.68
		S139.94,62.2,139.94,63.08z"/>
	<path class="st0" d="M159.8,69.17h-2.96v-1.37c-0.81,1.02-1.82,1.53-3.01,1.53s-2.2-0.35-3.01-1.04c-0.81-0.69-1.22-1.62-1.22-2.77
		s0.42-2.02,1.26-2.59c0.84-0.57,1.99-0.86,3.44-0.86h2.35v-0.06c0-1.2-0.64-1.81-1.91-1.81c-0.55,0-1.12,0.11-1.73,0.33
		c-0.61,0.22-1.12,0.49-1.54,0.81l-1.41-2.04c1.48-1.08,3.18-1.62,5.08-1.62c1.37,0,2.49,0.34,3.36,1.03s1.3,1.77,1.3,3.25V69.17z
		 M156.63,64.87v-0.55h-1.97c-1.26,0-1.89,0.39-1.89,1.18c0,0.41,0.15,0.72,0.45,0.93c0.3,0.22,0.73,0.33,1.29,0.33
		s1.05-0.17,1.48-0.51C156.42,65.9,156.63,65.44,156.63,64.87z"/>
	<path class="st0" d="M171.04,67.26c-0.99,1.11-2.23,1.66-3.71,1.66c-1.48,0-2.72-0.5-3.74-1.5c-1.01-1-1.52-2.34-1.52-4.01
		s0.52-3.04,1.56-4.12s2.24-1.61,3.58-1.61c1.34,0,2.46,0.55,3.34,1.66v-1.49h3.15v9.85c0,1.01-0.17,1.9-0.52,2.69
		c-0.35,0.78-0.82,1.4-1.41,1.85c-1.16,0.92-2.53,1.39-4.12,1.39c-0.84,0-1.7-0.14-2.57-0.41c-0.88-0.27-1.64-0.66-2.3-1.17
		l1.22-2.37c1.04,0.78,2.13,1.18,3.29,1.18s2.07-0.29,2.74-0.86C170.7,69.42,171.04,68.51,171.04,67.26z M170.6,63.28
		c0-0.9-0.25-1.61-0.76-2.13c-0.5-0.52-1.13-0.78-1.87-0.78c-0.74,0-1.38,0.26-1.92,0.78c-0.54,0.52-0.81,1.23-0.81,2.12
		c0,0.9,0.26,1.62,0.79,2.17c0.52,0.55,1.17,0.83,1.92,0.83s1.39-0.27,1.89-0.82S170.6,64.18,170.6,63.28z"/>
	<path class="st0" d="M176.95,56.43c-0.36-0.36-0.54-0.79-0.54-1.31c0-0.52,0.18-0.96,0.54-1.31c0.36-0.36,0.79-0.54,1.31-0.54
		c0.52,0,0.96,0.18,1.31,0.54c0.36,0.36,0.54,0.79,0.54,1.31c0,0.52-0.18,0.96-0.54,1.31c-0.36,0.36-0.79,0.54-1.31,0.54
		C177.74,56.97,177.31,56.79,176.95,56.43z M179.84,69.17h-3.15v-11.3h3.15V69.17z"/>
	<path class="st0" d="M185.97,62.87v6.3h-3.15v-11.3h3.15v1.26c0.95-0.97,2.02-1.45,3.21-1.45c1.19,0,2.19,0.42,2.99,1.26
		c0.8,0.84,1.21,1.96,1.21,3.36v6.87h-3.15v-6.38c0-1.74-0.64-2.6-1.91-2.6c-0.63,0-1.18,0.23-1.65,0.68
		C186.2,61.32,185.97,61.99,185.97,62.87z"/>
	<path class="st0" d="M204.6,67.26c-0.99,1.11-2.23,1.66-3.71,1.66c-1.48,0-2.72-0.5-3.74-1.5c-1.01-1-1.52-2.34-1.52-4.01
		s0.52-3.04,1.56-4.12s2.24-1.61,3.58-1.61c1.34,0,2.46,0.55,3.34,1.66v-1.49h3.15v9.85c0,1.01-0.17,1.9-0.52,2.69
		c-0.35,0.78-0.82,1.4-1.41,1.85c-1.16,0.92-2.53,1.39-4.12,1.39c-0.84,0-1.7-0.14-2.57-0.41c-0.88-0.27-1.64-0.66-2.3-1.17
		l1.22-2.37c1.04,0.78,2.13,1.18,3.29,1.18s2.07-0.29,2.74-0.86C204.26,69.42,204.6,68.51,204.6,67.26z M204.15,63.28
		c0-0.9-0.25-1.61-0.76-2.13c-0.5-0.52-1.13-0.78-1.87-0.78c-0.74,0-1.38,0.26-1.92,0.78c-0.54,0.52-0.81,1.23-0.81,2.12
		c0,0.9,0.26,1.62,0.79,2.17c0.52,0.55,1.17,0.83,1.92,0.83s1.39-0.27,1.89-0.82S204.15,64.18,204.15,63.28z"/>
	<path class="st0" d="M227.32,56.41c1.4,1.28,2.1,3.06,2.1,5.34s-0.68,4.09-2.05,5.42s-3.45,2-6.25,2h-5.02V54.49h5.19
		C223.91,54.49,225.92,55.13,227.32,56.41z M224.91,65.14c0.8-0.76,1.21-1.85,1.21-3.3s-0.4-2.55-1.21-3.33
		c-0.8-0.78-2.04-1.17-3.71-1.17h-1.83v8.92h2.08C222.96,66.27,224.11,65.89,224.91,65.14z"/>
	<path class="st0" d="M241.39,69.17h-2.96v-1.37c-0.81,1.02-1.82,1.53-3.01,1.53s-2.2-0.35-3.01-1.04
		c-0.81-0.69-1.22-1.62-1.22-2.77s0.42-2.02,1.26-2.59c0.84-0.57,1.99-0.86,3.44-0.86h2.35v-0.06c0-1.2-0.64-1.81-1.91-1.81
		c-0.55,0-1.12,0.11-1.73,0.33c-0.61,0.22-1.12,0.49-1.54,0.81l-1.41-2.04c1.48-1.08,3.18-1.62,5.08-1.62
		c1.37,0,2.49,0.34,3.36,1.03s1.3,1.77,1.3,3.25V69.17z M238.22,64.87v-0.55h-1.97c-1.26,0-1.89,0.39-1.89,1.18
		c0,0.41,0.15,0.72,0.45,0.93c0.3,0.22,0.73,0.33,1.29,0.33s1.05-0.17,1.48-0.51C238,65.9,238.22,65.44,238.22,64.87z"/>
	<path class="st0" d="M247.9,60.14v5.06c0,0.43,0.11,0.77,0.34,1.02s0.49,0.37,0.8,0.37c0.59,0,1.08-0.27,1.49-0.8L251.7,68
		c-0.98,0.9-2.01,1.34-3.1,1.34s-2-0.36-2.75-1.07s-1.12-1.69-1.12-2.92v-5.21h-1.32v-2.27h1.32v-3.38h3.17v3.38h2.73v2.27H247.9z"
		/>
	<path class="st0" d="M262.98,69.17h-2.96v-1.37c-0.81,1.02-1.82,1.53-3.01,1.53s-2.2-0.35-3.01-1.04
		c-0.81-0.69-1.22-1.62-1.22-2.77s0.42-2.02,1.26-2.59c0.84-0.57,1.99-0.86,3.44-0.86h2.35v-0.06c0-1.2-0.64-1.81-1.91-1.81
		c-0.55,0-1.12,0.11-1.73,0.33c-0.61,0.22-1.12,0.49-1.54,0.81l-1.41-2.04c1.48-1.08,3.18-1.62,5.08-1.62
		c1.37,0,2.49,0.34,3.36,1.03s1.3,1.77,1.3,3.25V69.17z M259.8,64.87v-0.55h-1.97c-1.26,0-1.89,0.39-1.89,1.18
		c0,0.41,0.15,0.72,0.45,0.93c0.3,0.22,0.73,0.33,1.29,0.33s1.05-0.17,1.48-0.51C259.59,65.9,259.8,65.44,259.8,64.87z"/>
	<path class="st0" d="M278.45,66.27c1.61,0,2.93-0.64,3.95-1.91l2.1,2.16c-1.67,1.88-3.63,2.81-5.89,2.81s-4.12-0.71-5.59-2.14
		c-1.46-1.43-2.19-3.23-2.19-5.41s0.75-3.99,2.24-5.45c1.49-1.46,3.31-2.18,5.47-2.18c2.41,0,4.42,0.92,6.05,2.75l-2.04,2.31
		c-1.04-1.29-2.32-1.93-3.86-1.93c-1.23,0-2.29,0.4-3.16,1.21c-0.88,0.81-1.31,1.89-1.31,3.25s0.41,2.46,1.24,3.29
		S277.28,66.27,278.45,66.27z"/>
	<path class="st0" d="M297.62,63.52c0,1.64-0.57,3.02-1.7,4.14s-2.56,1.68-4.27,1.68s-3.14-0.56-4.27-1.68s-1.7-2.5-1.7-4.14
		c0-1.64,0.57-3.02,1.7-4.15s2.56-1.69,4.27-1.69s3.14,0.56,4.27,1.69S297.62,61.88,297.62,63.52z M288.85,63.52
		c0,0.92,0.26,1.68,0.79,2.26c0.52,0.58,1.2,0.87,2.02,0.87s1.49-0.29,2.02-0.87c0.53-0.58,0.79-1.33,0.79-2.26
		c0-0.92-0.26-1.68-0.79-2.27c-0.52-0.59-1.2-0.88-2.02-0.88s-1.49,0.29-2.02,0.88C289.11,61.84,288.85,62.6,288.85,63.52z"/>
	<path class="st0" d="M310.33,63.08v6.09h-3.17V63c0-0.9-0.14-1.55-0.41-1.97c-0.27-0.42-0.71-0.63-1.32-0.63
		c-0.61,0-1.15,0.23-1.62,0.68c-0.47,0.46-0.7,1.12-0.7,2.01v6.09h-3.15v-11.3h3.15v1.28c0.87-0.98,1.86-1.47,2.98-1.47
		c0.71,0,1.36,0.21,1.94,0.63s1.02,0.93,1.31,1.53c0.43-0.69,1.02-1.22,1.75-1.6c0.73-0.38,1.47-0.57,2.21-0.57
		c1.33,0,2.4,0.4,3.21,1.19c0.81,0.79,1.22,1.94,1.22,3.43v6.87h-3.17V63c0-1.74-0.64-2.6-1.91-2.6c-0.63,0-1.18,0.23-1.64,0.68
		S310.33,62.2,310.33,63.08z"/>
	<path class="st0" d="M330.97,63.08v6.09h-3.17V63c0-0.9-0.14-1.55-0.41-1.97c-0.27-0.42-0.71-0.63-1.32-0.63
		c-0.61,0-1.15,0.23-1.62,0.68c-0.47,0.46-0.7,1.12-0.7,2.01v6.09h-3.15v-11.3h3.15v1.28c0.87-0.98,1.86-1.47,2.98-1.47
		c0.71,0,1.36,0.21,1.94,0.63s1.02,0.93,1.31,1.53c0.43-0.69,1.02-1.22,1.75-1.6c0.73-0.38,1.47-0.57,2.21-0.57
		c1.33,0,2.4,0.4,3.21,1.19c0.81,0.79,1.22,1.94,1.22,3.43v6.87h-3.17V63c0-1.74-0.64-2.6-1.91-2.6c-0.63,0-1.18,0.23-1.64,0.68
		S330.97,62.2,330.97,63.08z"/>
	<path class="st0" d="M352.54,63.52c0,1.64-0.57,3.02-1.7,4.14s-2.56,1.68-4.27,1.68s-3.14-0.56-4.27-1.68s-1.7-2.5-1.7-4.14
		c0-1.64,0.57-3.02,1.7-4.15s2.56-1.69,4.27-1.69s3.14,0.56,4.27,1.69S352.54,61.88,352.54,63.52z M343.76,63.52
		c0,0.92,0.26,1.68,0.79,2.26c0.52,0.58,1.2,0.87,2.02,0.87s1.49-0.29,2.02-0.87c0.53-0.58,0.79-1.33,0.79-2.26
		c0-0.92-0.26-1.68-0.79-2.27c-0.52-0.59-1.2-0.88-2.02-0.88s-1.49,0.29-2.02,0.88C344.02,61.84,343.76,62.6,343.76,63.52z"/>
	<path class="st0" d="M358.02,62.87v6.3h-3.15v-11.3h3.15v1.26c0.95-0.97,2.02-1.45,3.21-1.45c1.19,0,2.19,0.42,2.99,1.26
		c0.8,0.84,1.21,1.96,1.21,3.36v6.87h-3.15v-6.38c0-1.74-0.64-2.6-1.91-2.6c-0.63,0-1.18,0.23-1.65,0.68
		C358.25,61.32,358.02,61.99,358.02,62.87z"/>
	<path class="st0" d="M376.79,65.65c0,1.11-0.41,2.01-1.23,2.68s-1.86,1.01-3.12,1.01c-0.84,0-1.72-0.15-2.62-0.45
		c-0.91-0.3-1.73-0.75-2.46-1.33l1.39-1.97c1.18,0.91,2.43,1.37,3.76,1.37c0.41,0,0.73-0.08,0.97-0.24
		c0.24-0.16,0.36-0.37,0.36-0.64c0-0.27-0.17-0.51-0.49-0.73s-0.8-0.43-1.43-0.63s-1.1-0.36-1.43-0.5c-0.33-0.14-0.7-0.34-1.12-0.61
		c-0.85-0.53-1.28-1.32-1.28-2.36c0-1.04,0.42-1.89,1.26-2.55s1.92-0.99,3.25-0.99s2.66,0.45,3.99,1.34l-1.18,2.1
		c-0.98-0.67-1.96-1.01-2.93-1.01c-0.97,0-1.46,0.27-1.46,0.8c0,0.29,0.15,0.52,0.46,0.69c0.31,0.17,0.82,0.36,1.53,0.59
		c0.71,0.22,1.22,0.4,1.52,0.51c0.3,0.12,0.66,0.3,1.08,0.56C376.4,63.75,376.79,64.54,376.79,65.65z"/>
</g>
</svg>
