<svg
  xmlns="http://www.w3.org/2000/svg"
  viewBox="0 0 24 30"
  aria-labelledby="title"
  width="1em"
  height="1em"
  fill="currentColor"
>
  <title id="title">3D Rotate</title>
  <g>
    <path fill-rule="evenodd" clip-rule="evenodd" d="M17.856,11.409c-0.004-0.127-0.006-0.165-0.013-0.335l-0.01-0.195 c0.001,0.02-0.01-0.159-0.008-0.14l-0.004-0.06l-1.214,0.08v0.004c0.005,0.071,0.009,0.137,0.013,0.209   c0-0.001,0.025,0.732,0.025,0.731l0.001,0.025l-0.001-0.01l0.001,0.029v0.021v-0.01v0.03v-0.009v0.03v-0.01l0.001,0.035   l-0.001-0.01l0.001,0.04v-0.01v0.045v-0.01v0.06V11.94V12c0,0.925-0.066,1.891-0.214,2.85c0.443-0.125,0.877-0.272,1.288-0.444   c0.097-0.8,0.143-1.604,0.143-2.405c-0.001-0.127-0.002-0.254-0.004-0.381L17.856,11.409L17.856,11.409z M5.386,16.674L2,15.691   l0.658-0.711C1.817,14.19,1.2,13.182,1.2,12c0.006-0.916,0.35-1.691,0.912-2.399c0.83-1.011,2.014-1.758,3.339-2.293   C5.335,7.792,5.239,8.281,5.162,8.774C4.584,9.066,4.053,9.41,3.592,9.812c-0.563,0.5-1.035,1.118-1.149,1.862   c-0.076,0.5,0.027,0.975,0.259,1.417c0.197,0.374,0.478,0.711,0.782,0.995l0.657-0.711L5.386,16.674L5.386,16.674z M9.6,6.283   C10.44,6.18,11.256,6.135,12,6.135c1.765,0,3.552,0.222,5.246,0.722C19.566,7.542,22.783,9.189,22.8,12   c-0.006,0.915-0.349,1.69-0.911,2.398c-2.151,2.622-6.685,3.467-9.889,3.467c-0.89,0-1.822-0.054-2.697-0.182l0.165-1.205   c0.82,0.12,1.699,0.17,2.533,0.17c2.71,0,6.298-0.621,8.408-2.46c0.644-0.572,1.167-1.297,1.175-2.188   c-0.013-1.455-1.41-2.516-2.574-3.134C16.924,7.773,14.333,7.351,12,7.351c-0.884,0-1.862,0.066-2.852,0.219   C9.275,7.128,9.425,6.697,9.6,6.283L9.6,6.283z M15.224,18.834c0.486-0.076,0.975-0.169,1.459-0.283   c-0.85,2.063-2.374,4.235-4.683,4.249c-0.916-0.006-1.691-0.349-2.399-0.911C6.979,19.737,6.135,15.204,6.135,12   c0-1.764,0.222-3.552,0.722-5.246C7.542,4.434,9.189,1.217,12,1.2c1.454,0,2.627,0.926,3.466,2.038l0.778-0.577l0.61,3.471   L13.71,4.539l0.778-0.577C13.907,3.175,13.023,2.417,12,2.417c-1.455,0.013-2.516,1.411-3.134,2.575   C7.773,7.076,7.351,9.667,7.351,12c0,2.71,0.621,6.298,2.461,8.408c0.572,0.644,1.296,1.167,2.188,1.175   c1.455-0.013,2.516-1.41,3.134-2.574L15.224,18.834z"/>
  </g>
</svg>
