<svg width="578" height="763" viewBox="0 0 578 763" fill="currentColor" xmlns="http://www.w3.org/2000/svg">
  <path d="M570.891 33.6393C586.35 63.4033 573.274 99.3399 541.685 113.906L336.169 213.621C366.552 252.252 385.827 291.635 396.948 347.4C412.717 426.471 396.948 458.228 336.169 551.514L542.652 648.577C573.974 663.646 586.401 699.787 570.407 729.299C554.414 758.811 516.057 770.52 484.735 755.45L34.7349 538.95C3.41279 523.881 -9.01351 487.74 6.97996 458.228C22.9734 428.716 61.3303 417.007 92.6523 432.077L275.696 520.141C337.517 452.961 345.427 393.827 336.169 347.4C327.606 304.462 302.913 265.724 275.934 236.447L91.6852 321.406C60.096 335.972 21.9557 323.652 6.49641 293.888C-8.9629 264.124 4.11292 228.187 35.7021 213.621L485.702 6.12106C517.291 -8.44504 555.431 3.87528 570.891 33.6393Z"/>
</svg>
