<svg
  xmlns="http://www.w3.org/2000/svg"
  viewBox="0 0 37 35"
  aria-labelledby="title"
  width="1em"
  height="1em"
  fill="currentColor"
>
  <title id="title">Create Screen Capture</title>
  <g transform="translate(17.000000, 17.000000)">
    <path d="M10 13C11.66 13 13 11.66 13 10 13 8.34 11.66 7 10 7 8.34 7 7 8.34 7 10 7 11.66 8.34 13 10 13Z" />
    <path d="M7 0L5.2 2 2 2C0.9 2 0 2.9 0 4L0 16C0 17.1 0.9 18 2 18L18 18C19.1 18 20 17.1 20 16L20 4C20 2.9 19.1 2 18 2L14.8 2 13 0 7 0 7 0ZM10 15C7.2 15 5 12.8 5 10 5 7.2 7.2 5 10 5 12.8 5 15 7.2 15 10 15 12.8 12.8 15 10 15L10 15Z" />
  </g>
  <path d="M10 0C4.5 0 0 4.5 0 10 0 15.5 4.5 20 10 20 15.5 20 20 15.5 20 10 20 4.5 15.5 0 10 0L10 0ZM15 11L11 11 11 15 9 15 9 11 5 11 5 9 9 9 9 5 11 5 11 9 15 9 15 11 15 11Z" />
</svg>
