<svg
  xmlns="http://www.w3.org/2000/svg"
  viewBox="-205 207 100 100"
  aria-labelledby="title"
  width="1em"
  height="1em"
  fill="currentColor"
>
  <!--cube by Gregor Cresnar from the Noun Project https://thenounproject.com/search/?q=cube&i=197684 !-->
  <title id="title">Cube</title>
  <path d="M-115.1,280.3c0-0.1,0.1-0.1,0.1-0.2c0,0,0-0.1,0-0.1c0-0.1,0-0.2,0-0.3c0,0,0,0,0,0l0.1-45 c0-0.5-0.3-0.9-0.7-1.2L-154,211c-0.1,0-0.1,0-0.2-0.1c0,0,0,0,0,0c-0.4-0.2-0.8-0.1-1.2,0.1l-38.8,22.1     c-0.4,0.2-0.7,0.7-0.7,1.2l-0.3,44.6c0,0.5,0.3,0.9,0.7,1.2l38.7,22.9c0.2,0.1,0.5,0.2,0.7,0.2c0.2,0,0.5-0.1,0.7-0.2l38.8-22.1     c0,0,0,0,0,0c0.1,0,0.1-0.1,0.2-0.1c0.1,0,0.1-0.1,0.1-0.1c0-0.1,0.1-0.1,0.1-0.2C-115.1,280.4-115.1,280.4-115.1,280.3z      M-160.7,296.9c1.5-1.5,3-3,4.5-4.6l0,2.4c-1,1-2,2-3,3L-160.7,296.9z M-163.9,295c2.5-2.6,5.1-5.1,7.6-7.7l0,2.4     c-2,2.1-4.1,4.1-6.1,6.2L-163.9,295z M-167,293.2c3.6-3.6,7.1-7.2,10.7-10.8l0,2.4c-2.6,2.6-5.2,5.2-7.7,7.8     c-0.5,0.5-1,1-1.5,1.5L-167,293.2z M-170.1,291.3c4.6-4.7,9.2-9.3,13.8-14l0,2.4c-4.1,4.2-8.2,8.3-12.3,12.5L-170.1,291.3z      M-173.3,289.5C-173.2,289.4-173.2,289.4-173.3,289.5c5.7-5.7,11.3-11.4,17-17.1l0,2.4c-5.1,5.2-10.3,10.4-15.4,15.6c0,0,0,0,0,0     L-173.3,289.5z M-176.4,287.6C-176.4,287.6-176.4,287.6-176.4,287.6c6.7-6.8,13.4-13.6,20.1-20.3l0,2.4     c-6.1,6.2-12.3,12.4-18.4,18.6c-0.1,0.1-0.1,0.1-0.1,0.2L-176.4,287.6z M-179.5,285.7C-179.5,285.7-179.5,285.7-179.5,285.7     c7.7-7.8,15.5-15.6,23.2-23.4l0,2.4c-7.2,7.3-14.4,14.5-21.5,21.8c0,0-0.1,0.1-0.1,0.1L-179.5,285.7z M-182.7,283.9     C-182.6,283.9-182.6,283.8-182.7,283.9c8.7-8.9,17.4-17.6,26.1-26.4l0.2,0.1l0,2.1c-8.2,8.3-16.4,16.6-24.7,25     c0,0-0.1,0.1-0.1,0.1L-182.7,283.9z M-185.8,282.1c0.1-0.1,0.1-0.2,0.2-0.2c8.5-8.6,17-17.2,25.6-25.9c0.1-0.1,0.2-0.2,0.3-0.3     l1.5,0.9c-8.6,8.7-17.3,17.5-25.9,26.2c0,0-0.1,0.1-0.1,0.2L-185.8,282.1z M-188.9,280.2c0-0.1,0.1-0.1,0.1-0.2     c8.6-8.7,17.3-17.5,25.9-26.2l1.5,0.9c-8.6,8.7-17.3,17.5-25.9,26.2c-0.1,0.1-0.1,0.1-0.2,0.2L-188.9,280.2z M-192.1,278.3     c0.1-0.1,0.1-0.1,0.2-0.2c8.6-8.7,17.2-17.4,25.8-26.2l1.5,0.9c-8.6,8.7-17.1,17.3-25.7,26c-0.1,0.1-0.3,0.3-0.4,0.4     L-192.1,278.3z M-154.7,213.8l35.8,20.9l-36,20.5l-35.8-20.9L-154.7,213.8z M-191.2,237.2l1.5,0.9c-0.8,0.8-1.7,1.7-2.5,2.5     l0-2.4C-191.8,237.9-191.5,237.6-191.2,237.2z M-192.3,253.4c3.5-3.5,7-7.1,10.5-10.6l1.5,0.9c-4,4.1-8,8.1-12.1,12.2     L-192.3,253.4z M-192.2,250.8l0-2.4c0.9-0.9,1.8-1.9,2.8-2.8c1.5-1.6,3.1-3.1,4.6-4.7l1.5,0.9     C-186.3,244.8-189.3,247.8-192.2,250.8z M-192.2,245.7l0-2.4c1.4-1.4,2.8-2.8,4.2-4.2l1.5,0.9     C-188.4,241.9-190.3,243.8-192.2,245.7z M-178.6,244.6l1.5,0.9c-5.1,5.1-10.1,10.3-15.2,15.4l0-2.4     C-187.7,253.8-183.2,249.2-178.6,244.6z M-192.3,263.5c5.6-5.7,11.2-11.4,16.9-17.1l1.5,0.9c-6.1,6.2-12.3,12.4-18.4,18.6     L-192.3,263.5z M-192.4,268.6c6.7-6.8,13.4-13.5,20.1-20.3l1.5,0.9c-7.2,7.3-14.4,14.6-21.6,21.8L-192.4,268.6z M-192.4,273.6     c7.7-7.8,15.5-15.7,23.2-23.5l1.5,0.9c-8.3,8.4-16.5,16.7-24.8,25.1L-192.4,273.6z M-156.2,297.3l0,2.3l-1.4-0.8     C-157.1,298.2-156.7,297.7-156.2,297.3z M-153.6,257.6l36-20.5l-0.1,41.8l-35.8,20.4L-153.6,257.6z"/><path d="M-154.9,232.7C-154.8,232.7-154.8,232.7-154.9,232.7c0.8,0,1.4-0.6,1.4-1.4c0-0.8-0.6-1.4-1.4-1.4     c-0.8,0-1.4,0.6-1.4,1.4C-156.2,232.1-155.6,232.7-154.9,232.7z"/><path d="M-154.9,239.1C-154.9,239.1-154.9,239.1-154.9,239.1c0.8,0,1.4-0.6,1.4-1.4c0-0.8-0.6-1.4-1.4-1.4     c-0.8,0-1.4,0.6-1.4,1.4C-156.3,238.4-155.7,239.1-154.9,239.1z"/><path d="M-155,249.1c-0.8,0-1.4,0.6-1.4,1.4c0,0.8,0.6,1.4,1.4,1.4c0,0,0,0,0,0c0.7,0,1.4-0.6,1.4-1.4     C-153.6,249.7-154.2,249.1-155,249.1z"/><path d="M-154.9,245.4C-154.9,245.4-154.9,245.4-154.9,245.4c0.8,0,1.4-0.6,1.4-1.4c0-0.8-0.6-1.4-1.4-1.4     c-0.8,0-1.4,0.6-1.4,1.4C-156.3,244.8-155.7,245.4-154.9,245.4z"/><path d="M-154.8,219.9C-154.8,219.9-154.8,219.9-154.8,219.9c0.8,0,1.4-0.6,1.4-1.4c0-0.8-0.6-1.4-1.4-1.4     c-0.8,0-1.4,0.6-1.4,1.4C-156.2,219.3-155.5,219.9-154.8,219.9z"/><path d="M-154.8,226.3C-154.8,226.3-154.8,226.3-154.8,226.3c0.8,0,1.4-0.6,1.4-1.4c0-0.8-0.6-1.4-1.4-1.4     c-0.8,0-1.4,0.6-1.4,1.4C-156.2,225.7-155.6,226.3-154.8,226.3z"/><path d="M-148.8,258.9c-0.7-0.4-1.5-0.2-1.9,0.5c-0.4,0.7-0.2,1.5,0.5,1.9c0.2,0.1,0.5,0.2,0.7,0.2     c0.5,0,0.9-0.2,1.2-0.7C-147.9,260.1-148.1,259.3-148.8,258.9z"/><path d="M-121.1,275.3c-0.7-0.4-1.5-0.2-1.9,0.5c-0.4,0.7-0.2,1.5,0.5,1.9c0.2,0.1,0.5,0.2,0.7,0.2     c0.5,0,0.9-0.2,1.2-0.7C-120.2,276.5-120.5,275.7-121.1,275.3z"/><path d="M-126.6,272c-0.7-0.4-1.5-0.2-1.9,0.5c-0.4,0.7-0.2,1.5,0.5,1.9c0.2,0.1,0.5,0.2,0.7,0.2     c0.5,0,0.9-0.2,1.2-0.7C-125.8,273.2-126,272.4-126.6,272z"/><path d="M-143.2,262.2c-0.7-0.4-1.5-0.2-1.9,0.5c-0.4,0.7-0.2,1.5,0.5,1.9c0.2,0.1,0.5,0.2,0.7,0.2     c0.5,0,0.9-0.2,1.2-0.7C-142.4,263.4-142.6,262.6-143.2,262.2z"/><path d="M-132.2,268.7c-0.7-0.4-1.5-0.2-1.9,0.5c-0.4,0.7-0.2,1.5,0.5,1.9c0.2,0.1,0.5,0.2,0.7,0.2     c0.5,0,0.9-0.2,1.2-0.7C-131.3,270-131.5,269.1-132.2,268.7z"/><path d="M-137.7,265.5c-0.7-0.4-1.5-0.2-1.9,0.5c-0.4,0.7-0.2,1.5,0.5,1.9c0.2,0.1,0.5,0.2,0.7,0.2 c0.5,0,0.9-0.2,1.2-0.7C-136.8,266.7-137.1,265.8-137.7,265.5z"/>
</svg>
