<svg
  xmlns="http://www.w3.org/2000/svg"
  viewBox="0 0 27 20"
  aria-labelledby="title"
  width="1em"
  height="1em"
  stroke="currentColor"
  stroke-width="1.65"
  fill="none"
  fill-rule="evenodd"
>
  <title id="title">Liver</title>
  <g transform="translate(1.000000, 1.000000)">
    <path d="M14.1879883,0.427249956 C15.0074875,0.0422121769 15.9522148,-0.00109444417 16.862793,2.04322665e-05 C19.2959911,0.00285829955 21.7960518,0.267011807 24.2293553,0.267721274 C24.632253,0.267923979 24.8592123,0.398871284 24.9616761,0.681948546 C25.0607665,0.955904091 24.9707418,1.17928479 24.6560769,1.42090892 C23.2066152,2.5337583 22.5823452,4.01684802 22.5593647,5.76365669 C22.5282671,8.13499886 20.9667489,10.242014 18.6967339,10.9516835 C17.246956,11.4049314 15.8264835,11.3236468 14.4399549,10.7120864 C14.4015837,10.6951606 14.3626854,10.6791469 14.3462406,10.6721536 C14.0117575,11.143949 13.7204948,11.6275013 13.3572334,12.0543976 C11.801513,13.8830991 9.76720674,14.7494594 7.3234671,14.7689191 C5.91806908,14.7801692 4.5964763,15.1070307 3.37713644,15.7857877 C2.51715767,16.2644751 1.76470259,16.8644813 1.17047602,17.6383069 C0.975141299,17.8924988 0.719930632,17.9690198 0.430038301,17.8745594 C0.145838402,17.7820247 0.0129095911,17.6005025 0.0128041757,17.2720194 C0.0117500218,13.9612418 -0.0213504117,10.6500587 0.0232402996,7.33988926 C0.0699393187,3.87870469 2.93565678,0.850598944 6.47624358,0.427249956 C8.18898075,0.222411674 10.6852298,0.729934666 12.1266085,1.97171448 C12.3659471,2.17791002 12.7690956,2.58896084 13.0694221,3.04543956 C13.3112364,3.41298323 13.6364656,3.89746342 13.7521632,4.10220046 C13.8678607,4.30693751 12.0604076,1.92012611 12.1266085,1.97171448 C12.65611,1.40566131 13.4924575,0.754111457 14.1879883,0.427249956 Z" />
  </g>
</svg>
