<svg
  xmlns="http://www.w3.org/2000/svg"
  viewBox="0 0 28 24"
  aria-labelledby="title"
  width="1em"
  height="1em"
  stroke="currentColor"
  stroke-width="1.5"
  fill="none"
  fill-rule="nonzero"
>
  <title id="title">Lung</title>
  <g transform="translate(1.000000, 0)">
    <path d="M4.54995935,23.0682142 L5.21755165,23.0682142 C7.73042481,23.0682142 9.767511,21.031128 9.767511,18.5182549 L9.767511,15.6678583 C9.767511,14.5637174 9.41504385,13.4884059 8.76143431,12.5985061 L8.76143431,12.5985061 C8.10782476,11.7086062 7.75535761,10.6332948 7.75535761,9.52915385 L7.75535761,6.94406376 C7.75535761,6.32558369 7.38554676,5.76703946 6.81616159,5.52554801 C5.25840278,5.17062216 4.58145592,5.710798 3.84612497,6.74773742 C3.19639763,7.66396146 2.11984103,9.64970738 0.616455185,12.7049752 L0.616455169,12.7049752 C0.210903154,13.5291615 -1.12491357e-16,14.4354596 0,15.3540212 L0,18.5182549 C3.07738207e-16,21.031128 2.03708619,23.0682142 4.54995935,23.0682142 Z" />
    <path d="M10.4645082,0 L10.4645082,7.63276134 C10.4645082,8.24023016 10.188418,8.81477376 9.7141179,9.19432323 L7.58333333,10.8994424" />
    <path
      d="M16.9645082,0 L16.9645082,7.63276134 C16.9645082,8.24023016 16.688418,8.81477376 16.2141179,9.19432323 L14.0833333,10.8994424"
      transform="translate(15.523921, 5.449721) scale(-1, 1) translate(-15.523921, -5.449721) "
    />
    <path
      d="M19.716626,23.0682142 L20.3842183,23.0682142 C22.8970915,23.0682142 24.9341777,21.031128 24.9341777,18.5182549 L24.9341777,15.6678583 C24.9341777,14.5637174 24.5817105,13.4884059 23.928101,12.5985061 L23.928101,12.5985061 C23.2744914,11.7086062 22.9220243,10.6332948 22.9220243,9.52915385 L22.9220243,6.94406376 C22.9220243,6.32558369 22.5522134,5.76703946 21.9828283,5.52554801 C20.4250695,5.17062216 19.7481226,5.710798 19.0127916,6.74773742 C18.3630643,7.66396146 17.2865077,9.64970738 15.7831219,12.7049752 L15.7831218,12.7049752 C15.3775698,13.5291615 15.1666667,14.4354596 15.1666667,15.3540212 L15.1666667,18.5182549 C15.1666667,21.031128 17.2037529,23.0682142 19.716626,23.0682142 Z"
      transform="translate(20.050422, 14.242440) scale(-1, 1) translate(-20.050422, -14.242440) "
    />
  </g>
</svg>
