<svg xmlns="http://www.w3.org/2000/svg" viewBox="0 0 14 14" aria-labelledby="title" width="1em" height="1em" stroke="currentColor" stroke-width="1.75">
  <title id="title">nnunet</title>
  <path d="M7.33333 8.83329H9.33333V6.83329H10.6667V8.83329H12.6667V10.1666H10.6667V12.1666H9.33333V10.1666H7.33333V8.83329ZM6 8.83329V10.1666H4V8.83329H6ZM2.66667 8.83329V10.1666H0V7.49996H1.33333V8.83329H2.66667ZM0 6.16663V4.16663H1.33333V6.16663H0ZM0 2.83329V0.166626H2.66667V1.49996H1.33333V2.83329H0ZM4 0.166626H6V1.49996H4V0.166626ZM8 0.166626H10.6667V2.83329H9.33333V1.49996H8V0.166626ZM10.6667 4.16663V5.49996H9.33333V4.16663H10.6667Z" />
</svg>
