<svg
  xmlns="http://www.w3.org/2000/svg"
  viewBox="0 0 20 22"
  aria-labelledby="title"
  width="1em"
  height="1em"
  fill="currentColor"
  stroke-width="1"
  stroke-linecap="round"
  stroke-linejoin="round"
>
  <title id="title">Object Group</title>
  <path
    d="m14.5,2.75 2,0 a2.5 2.5 0 0 1 2.5 2.5 l0,13.25 a2.5 2.5 0 0 1 -2.5 2.5 l-11.5,0 a2.5 2.5 0 0 1 -2.5 -2.5 l0,-1"
    stroke-dasharray="1,3"
  />
  <path d="m0.5,2 0,14 a1.5 1.5 0 0 0 1.5 1.5 l12,0 a1.5 1.5 0 0 0 1.5 -1.5 l0,-14" />
  <path d="m2,2 12,0" stroke-width="4" />
  <path d="m4.4,7.5 7.2,0 m0,3 -7.2,0 m0,3 7.2,0" stroke-linecap="square" />
</svg>
