<svg viewBox="0 0 224 15" fill="none" xmlns="http://www.w3.org/2000/svg">
<path d="M10.416 5.932C10.416 7.46267 9.954 8.70867 9.03 9.67C8.11533 10.622 6.958 11.098 5.558 11.098C4.16733 11.098 3.00533 10.6173 2.072 9.656C1.13867 8.68533 0.672 7.43933 0.672 5.918C0.672 4.38733 1.15267 3.16467 2.114 2.25C3.07533 1.326 4.22333 0.863999 5.558 0.863999C6.89267 0.863999 8.036 1.326 8.988 2.25C9.94 3.16467 10.416 4.392 10.416 5.932ZM3.052 8.9C3.77067 9.60933 4.606 9.964 5.558 9.964C6.51 9.964 7.34067 9.60933 8.05 8.9C8.75933 8.18133 9.114 7.20133 9.114 5.96C9.114 4.70933 8.75 3.734 8.022 3.034C7.30333 2.32467 6.482 1.97 5.558 1.97C4.634 1.97 3.808 2.32467 3.08 3.034C2.352 3.734 1.988 4.70933 1.988 5.96C1.988 7.20133 2.34267 8.18133 3.052 8.9ZM14.6296 14.15H11.8156C11.6942 14.15 11.6336 14.094 11.6336 13.982V13.38C11.6336 13.268 11.6942 13.212 11.8156 13.212H12.5996V5.05H11.8436C11.7222 5.05 11.6616 4.994 11.6616 4.882V4.28C11.6616 4.168 11.7222 4.112 11.8436 4.112H13.4816C13.6029 4.112 13.6636 4.168 13.6636 4.28L13.6496 5.386H13.6636C13.8409 5.00333 14.1256 4.68133 14.5176 4.42C14.9189 4.14933 15.4089 4.014 15.9876 4.014C16.9302 4.014 17.6909 4.336 18.2696 4.98C18.8482 5.61467 19.1376 6.464 19.1376 7.528C19.1376 8.58267 18.8529 9.44133 18.2836 10.104C17.7142 10.7667 16.9536 11.098 16.0016 11.098C15.4229 11.098 14.9376 10.9673 14.5456 10.706C14.1629 10.4353 13.8876 10.1087 13.7196 9.726H13.6776C13.7056 10.0247 13.7196 10.2393 13.7196 10.37V13.212H14.6296C14.7509 13.212 14.8116 13.268 14.8116 13.38V13.982C14.8116 14.094 14.7509 14.15 14.6296 14.15ZM13.6916 7.584C13.6916 8.396 13.9016 9.02133 14.3216 9.46C14.7509 9.89867 15.2642 10.118 15.8616 10.118C16.4682 10.118 16.9722 9.88467 17.3736 9.418C17.7842 8.942 17.9896 8.32133 17.9896 7.556C17.9896 6.78133 17.7842 6.16067 17.3736 5.694C16.9722 5.22733 16.4682 4.994 15.8616 4.994C15.2549 4.994 14.7416 5.22267 14.3216 5.68C13.9016 6.13733 13.6916 6.772 13.6916 7.584ZM26.3811 7.696H21.3411C21.3785 8.47067 21.6211 9.068 22.0691 9.488C22.5265 9.908 23.0398 10.118 23.6091 10.118C24.1785 10.118 24.6638 9.99667 25.0651 9.754C25.4758 9.51133 25.7511 9.27333 25.8911 9.04C25.9658 8.94667 26.0498 8.93267 26.1431 8.998L26.5211 9.376C26.5771 9.432 26.6051 9.48333 26.6051 9.53C26.6051 9.56733 26.5818 9.61867 26.5351 9.684C26.4978 9.74933 26.4138 9.852 26.2831 9.992C26.1525 10.132 25.9658 10.2907 25.7231 10.468C25.4898 10.6453 25.1818 10.7947 24.7991 10.916C24.4258 11.0373 24.0245 11.098 23.5951 11.098C22.6151 11.098 21.7938 10.776 21.1311 10.132C20.4778 9.488 20.1511 8.62467 20.1511 7.542C20.1511 6.45 20.4778 5.59133 21.1311 4.966C21.7845 4.33133 22.5825 4.014 23.5251 4.014C24.4771 4.014 25.2238 4.322 25.7651 4.938C26.3065 5.54467 26.5771 6.366 26.5771 7.402C26.5771 7.43933 26.5771 7.47667 26.5771 7.514C26.5771 7.63533 26.5118 7.696 26.3811 7.696ZM25.4151 6.842C25.3871 6.26333 25.2051 5.80133 24.8691 5.456C24.5331 5.11067 24.0851 4.938 23.5251 4.938C22.9651 4.938 22.4845 5.09667 22.0831 5.414C21.6818 5.73133 21.4438 6.20733 21.3691 6.842H25.4151ZM35.1323 11H33.8023C33.401 11 33.2003 10.804 33.2003 10.412V6.73C33.2003 6.18867 33.0697 5.76867 32.8083 5.47C32.547 5.17133 32.1643 5.022 31.6603 5.022C30.9417 5.022 30.3817 5.316 29.9803 5.904C29.9337 5.96 29.873 6.06267 29.7983 6.212V10.062H30.5403C30.6617 10.062 30.7223 10.118 30.7223 10.23V10.832C30.7223 10.944 30.6617 11 30.5403 11H27.8663C27.745 11 27.6843 10.944 27.6843 10.832V10.23C27.6843 10.118 27.745 10.062 27.8663 10.062H28.6363V5.05H27.8663C27.745 5.05 27.6843 4.994 27.6843 4.882V4.28C27.6843 4.168 27.745 4.112 27.8663 4.112H29.5043C29.6257 4.112 29.6863 4.168 29.6863 4.28L29.6583 5.232H29.7003C30.1857 4.42 30.937 4.014 31.9543 4.014C32.701 4.014 33.2843 4.23333 33.7043 4.672C34.1243 5.11067 34.339 5.70333 34.3483 6.45V10.062H35.1323C35.2537 10.062 35.3143 10.118 35.3143 10.23V10.832C35.3143 10.944 35.2537 11 35.1323 11ZM50.8763 11H47.5023C47.3903 11 47.3343 10.944 47.3343 10.832V10.118C47.3343 10.006 47.3903 9.95 47.5023 9.95H48.5803V6.52H43.3723V9.95H44.4503C44.5717 9.95 44.6323 10.006 44.6323 10.118V10.832C44.6323 10.944 44.5717 11 44.4503 11H41.0903C40.969 11 40.9083 10.944 40.9083 10.832V10.118C40.9083 10.006 40.969 9.95 41.0903 9.95H42.1543V1.998H41.0903C40.969 1.998 40.9083 1.942 40.9083 1.83V1.116C40.9083 1.004 40.969 0.947999 41.0903 0.947999H44.4503C44.5717 0.947999 44.6323 1.004 44.6323 1.116V1.83C44.6323 1.942 44.5717 1.998 44.4503 1.998H43.3723V5.498H48.5803V1.998H47.5023C47.3903 1.998 47.3343 1.942 47.3343 1.83V1.116C47.3343 1.004 47.3903 0.947999 47.5023 0.947999H50.8763C50.9883 0.947999 51.0443 1.004 51.0443 1.116V1.83C51.0443 1.942 50.9883 1.998 50.8763 1.998H49.7983V9.95H50.8763C50.9883 9.95 51.0443 10.006 51.0443 10.118V10.832C51.0443 10.944 50.9883 11 50.8763 11ZM58.0452 7.696H53.0052C53.0425 8.47067 53.2852 9.068 53.7332 9.488C54.1905 9.908 54.7039 10.118 55.2732 10.118C55.8425 10.118 56.3279 9.99667 56.7292 9.754C57.1399 9.51133 57.4152 9.27333 57.5552 9.04C57.6299 8.94667 57.7139 8.93267 57.8072 8.998L58.1852 9.376C58.2412 9.432 58.2692 9.48333 58.2692 9.53C58.2692 9.56733 58.2459 9.61867 58.1992 9.684C58.1619 9.74933 58.0779 9.852 57.9472 9.992C57.8165 10.132 57.6299 10.2907 57.3872 10.468C57.1539 10.6453 56.8459 10.7947 56.4632 10.916C56.0899 11.0373 55.6885 11.098 55.2592 11.098C54.2792 11.098 53.4579 10.776 52.7952 10.132C52.1419 9.488 51.8152 8.62467 51.8152 7.542C51.8152 6.45 52.1419 5.59133 52.7952 4.966C53.4485 4.33133 54.2465 4.014 55.1892 4.014C56.1412 4.014 56.8879 4.322 57.4292 4.938C57.9705 5.54467 58.2412 6.366 58.2412 7.402C58.2412 7.43933 58.2412 7.47667 58.2412 7.514C58.2412 7.63533 58.1759 7.696 58.0452 7.696ZM57.0792 6.842C57.0512 6.26333 56.8692 5.80133 56.5332 5.456C56.1972 5.11067 55.7492 4.938 55.1892 4.938C54.6292 4.938 54.1485 5.09667 53.7472 5.414C53.3459 5.73133 53.1079 6.20733 53.0332 6.842H57.0792ZM66.2087 11H64.9907C64.5894 11 64.3887 10.804 64.3887 10.412V9.698H64.3607C63.6794 10.6407 62.7694 11.112 61.6307 11.112C60.9587 11.112 60.4081 10.9393 59.9787 10.594C59.5494 10.2393 59.3347 9.76333 59.3347 9.166C59.3347 8.40067 59.6661 7.84067 60.3287 7.486C61.0007 7.122 61.9201 6.94 63.0867 6.94H64.2627V6.772C64.2627 5.60533 63.6561 5.022 62.4427 5.022C61.8734 5.022 61.4627 5.078 61.2107 5.19C60.9587 5.29267 60.7767 5.37667 60.6647 5.442C60.5621 5.50733 60.4827 5.55867 60.4267 5.596C60.2867 5.708 60.1841 5.71733 60.1187 5.624L59.7267 5.134C59.6614 5.05933 59.6707 4.98467 59.7547 4.91C59.9134 4.70467 60.2401 4.504 60.7347 4.308C61.2294 4.112 61.8127 4.014 62.4847 4.014C64.4447 4.014 65.4247 4.94733 65.4247 6.814V10.062H66.2087C66.3207 10.062 66.3767 10.118 66.3767 10.23V10.832C66.3767 10.944 66.3207 11 66.2087 11ZM64.2627 7.78H63.1567C62.6154 7.78 62.1674 7.808 61.8127 7.864C61.4581 7.92 61.1547 8.04133 60.9027 8.228C60.6601 8.41467 60.5387 8.67133 60.5387 8.998C60.5387 9.32467 60.6694 9.59533 60.9307 9.81C61.2014 10.0153 61.5514 10.118 61.9807 10.118C62.8861 10.118 63.6467 9.71667 64.2627 8.914V7.78ZM70.2298 11H67.5558C67.4345 11 67.3738 10.944 67.3738 10.832V10.23C67.3738 10.118 67.4345 10.062 67.5558 10.062H68.3258V1.886H67.5558C67.4345 1.886 67.3738 1.83 67.3738 1.718V1.116C67.3738 1.004 67.4345 0.947999 67.5558 0.947999H69.1098C69.3618 0.947999 69.4878 1.06467 69.4878 1.298V10.062H70.2298C70.3511 10.062 70.4118 10.118 70.4118 10.23V10.832C70.4118 10.944 70.3511 11 70.2298 11ZM76.083 10.286C76.1203 10.3233 76.139 10.3653 76.139 10.412C76.139 10.4493 76.111 10.496 76.055 10.552C75.6443 10.916 75.1263 11.098 74.501 11.098C73.885 11.098 73.3763 10.8973 72.975 10.496C72.583 10.0853 72.387 9.49267 72.387 8.718V5.05H71.603C71.4723 5.05 71.407 4.98933 71.407 4.868V4.294C71.407 4.17267 71.4723 4.112 71.603 4.112H72.387V2.698C72.387 2.56733 72.4523 2.502 72.583 2.502H73.367C73.4883 2.502 73.549 2.56733 73.549 2.698V4.112H75.327C75.4577 4.112 75.523 4.17267 75.523 4.294V4.868C75.523 4.98933 75.4577 5.05 75.327 5.05H73.549V8.69C73.549 9.15667 73.6517 9.51133 73.857 9.754C74.0717 9.98733 74.3517 10.104 74.697 10.104C75.0517 10.104 75.3177 10.0153 75.495 9.838C75.5883 9.754 75.6723 9.75867 75.747 9.852L76.083 10.286ZM84.3511 11H83.0211C82.6198 11 82.4191 10.804 82.4191 10.412V6.73C82.4191 6.18867 82.2884 5.76867 82.0271 5.47C81.7658 5.17133 81.3831 5.022 80.8791 5.022C80.4964 5.022 80.2024 5.08267 79.9971 5.204C79.8011 5.316 79.6518 5.41867 79.5491 5.512C79.4464 5.596 79.3624 5.68 79.2971 5.764C79.1851 5.91333 79.0918 6.06733 79.0171 6.226V10.062H79.7591C79.8804 10.062 79.9411 10.118 79.9411 10.23V10.832C79.9411 10.944 79.8804 11 79.7591 11H77.0851C76.9638 11 76.9031 10.944 76.9031 10.832V10.23C76.9031 10.118 76.9638 10.062 77.0851 10.062H77.8551V1.886H77.0851C76.9638 1.886 76.9031 1.83 76.9031 1.718V1.116C76.9031 1.004 76.9638 0.947999 77.0851 0.947999H78.8491C78.9611 0.947999 79.0171 1.004 79.0171 1.116V4.238C79.0171 4.546 78.9984 4.83067 78.9611 5.092H78.9891C79.4464 4.37333 80.1744 4.014 81.1731 4.014C81.9198 4.014 82.5031 4.23333 82.9231 4.672C83.3431 5.11067 83.5578 5.70333 83.5671 6.45V10.062H84.3511C84.4724 10.062 84.5331 10.118 84.5331 10.23V10.832C84.5331 10.944 84.4724 11 84.3511 11ZM93.6691 11H90.3091C90.1877 11 90.1271 10.944 90.1271 10.832V10.118C90.1271 10.006 90.1877 9.95 90.3091 9.95H91.3731V1.998H90.3091C90.1877 1.998 90.1271 1.942 90.1271 1.83V1.116C90.1271 1.004 90.1877 0.947999 90.3091 0.947999H93.6691C93.7904 0.947999 93.8511 1.004 93.8511 1.116V1.83C93.8511 1.942 93.7904 1.998 93.6691 1.998H92.5911V9.95H93.6691C93.7904 9.95 93.8511 10.006 93.8511 10.118V10.832C93.8511 10.944 93.7904 11 93.6691 11ZM106.793 11H105.463C105.248 11 105.089 10.958 104.987 10.874C104.893 10.7807 104.847 10.6267 104.847 10.412V6.73C104.847 6.18867 104.716 5.76867 104.455 5.47C104.203 5.17133 103.825 5.022 103.321 5.022C102.583 5.022 102.005 5.344 101.585 5.988C101.641 6.156 101.669 6.34267 101.669 6.548V10.062H102.453C102.565 10.062 102.621 10.118 102.621 10.23V10.832C102.621 10.944 102.565 11 102.453 11H99.7787C99.6573 11 99.5967 10.944 99.5967 10.832V10.23C99.5967 10.118 99.6573 10.062 99.7787 10.062H100.521V6.73C100.521 6.18867 100.39 5.76867 100.129 5.47C99.8673 5.17133 99.4847 5.022 98.9807 5.022C98.598 5.022 98.304 5.08267 98.0987 5.204C97.9027 5.316 97.7533 5.41867 97.6507 5.512C97.548 5.596 97.464 5.68 97.3987 5.764C97.2867 5.91333 97.1933 6.06733 97.1187 6.226V10.062H97.8047C97.9167 10.062 97.9727 10.118 97.9727 10.23V10.832C97.9727 10.944 97.9167 11 97.8047 11H95.1867C95.0653 11 95.0047 10.944 95.0047 10.832V10.23C95.0047 10.118 95.0653 10.062 95.1867 10.062H95.9567V5.05H95.1867C95.0653 5.05 95.0047 4.994 95.0047 4.882V4.28C95.0047 4.168 95.0653 4.112 95.1867 4.112H96.5587C96.7173 4.112 96.8293 4.14467 96.8947 4.21C96.9693 4.266 97.0067 4.37333 97.0067 4.532L96.9787 5.232H97.0207C97.506 4.42 98.2573 4.014 99.2747 4.014C100.301 4.014 101.001 4.40133 101.375 5.176C101.907 4.40133 102.658 4.014 103.629 4.014C104.375 4.014 104.954 4.23333 105.365 4.672C105.785 5.11067 105.995 5.70333 105.995 6.45L106.009 10.062H106.793C106.914 10.062 106.975 10.118 106.975 10.23V10.832C106.975 10.944 106.914 11 106.793 11ZM114.771 11H113.553C113.152 11 112.951 10.804 112.951 10.412V9.698H112.923C112.242 10.6407 111.332 11.112 110.193 11.112C109.521 11.112 108.971 10.9393 108.541 10.594C108.112 10.2393 107.897 9.76333 107.897 9.166C107.897 8.40067 108.229 7.84067 108.891 7.486C109.563 7.122 110.483 6.94 111.649 6.94H112.825V6.772C112.825 5.60533 112.219 5.022 111.005 5.022C110.436 5.022 110.025 5.078 109.773 5.19C109.521 5.29267 109.339 5.37667 109.227 5.442C109.125 5.50733 109.045 5.55867 108.989 5.596C108.849 5.708 108.747 5.71733 108.681 5.624L108.289 5.134C108.224 5.05933 108.233 4.98467 108.317 4.91C108.476 4.70467 108.803 4.504 109.297 4.308C109.792 4.112 110.375 4.014 111.047 4.014C113.007 4.014 113.987 4.94733 113.987 6.814V10.062H114.771C114.883 10.062 114.939 10.118 114.939 10.23V10.832C114.939 10.944 114.883 11 114.771 11ZM112.825 7.78H111.719C111.178 7.78 110.73 7.808 110.375 7.864C110.021 7.92 109.717 8.04133 109.465 8.228C109.223 8.41467 109.101 8.67133 109.101 8.998C109.101 9.32467 109.232 9.59533 109.493 9.81C109.764 10.0153 110.114 10.118 110.543 10.118C111.449 10.118 112.209 9.71667 112.825 8.914V7.78ZM119.061 14.276C118.594 14.276 118.239 14.2433 117.997 14.178C117.763 14.1127 117.572 14.052 117.423 13.996C117.283 13.9493 117.161 13.898 117.059 13.842C116.956 13.7953 116.858 13.744 116.765 13.688C116.354 13.4173 116.2 13.2213 116.303 13.1L116.667 12.582C116.723 12.498 116.802 12.4933 116.905 12.568C116.914 12.568 116.942 12.5867 116.989 12.624C117.045 12.6707 117.096 12.7127 117.143 12.75C117.199 12.7873 117.269 12.8293 117.353 12.876C117.446 12.932 117.549 12.9787 117.661 13.016C117.773 13.0627 117.894 13.1047 118.025 13.142C118.333 13.226 118.673 13.268 119.047 13.268C119.719 13.268 120.255 13.1047 120.657 12.778C121.067 12.4607 121.273 11.9567 121.273 11.266V9.67C121.105 10.062 120.825 10.398 120.433 10.678C120.05 10.958 119.569 11.098 118.991 11.098C118.039 11.098 117.273 10.7667 116.695 10.104C116.125 9.44133 115.841 8.58267 115.841 7.528C115.841 6.47333 116.13 5.624 116.709 4.98C117.297 4.336 118.057 4.014 118.991 4.014C119.569 4.014 120.055 4.14933 120.447 4.42C120.848 4.68133 121.137 5.00333 121.315 5.386H121.343L121.329 4.28C121.329 4.168 121.385 4.112 121.497 4.112H123.149C123.261 4.112 123.317 4.168 123.317 4.28V4.882C123.317 4.994 123.261 5.05 123.149 5.05H122.393V11.266C122.393 12.2647 122.085 13.016 121.469 13.52C120.862 14.024 120.059 14.276 119.061 14.276ZM116.989 7.556C116.989 8.32133 117.194 8.942 117.605 9.418C118.015 9.88467 118.529 10.118 119.145 10.118C119.761 10.118 120.269 9.88467 120.671 9.418C121.081 8.95133 121.287 8.326 121.287 7.542C121.287 6.758 121.081 6.13733 120.671 5.68C120.269 5.22267 119.761 4.994 119.145 4.994C118.529 4.994 118.015 5.22733 117.605 5.694C117.194 6.16067 116.989 6.78133 116.989 7.556ZM127.255 11H124.581C124.46 11 124.399 10.944 124.399 10.832V10.23C124.399 10.118 124.46 10.062 124.581 10.062H125.351V5.05H124.581C124.46 5.05 124.399 4.994 124.399 4.882V4.28C124.399 4.168 124.46 4.112 124.581 4.112H126.345C126.457 4.112 126.513 4.168 126.513 4.28V10.062H127.255C127.377 10.062 127.437 10.118 127.437 10.23V10.832C127.437 10.944 127.377 11 127.255 11ZM126.457 2.04C126.616 2.19867 126.695 2.38533 126.695 2.6C126.695 2.81467 126.616 2.99667 126.457 3.146C126.308 3.29533 126.126 3.37 125.911 3.37C125.697 3.37 125.51 3.29533 125.351 3.146C125.202 2.99667 125.127 2.81467 125.127 2.6C125.127 2.38533 125.202 2.19867 125.351 2.04C125.51 1.88133 125.697 1.802 125.911 1.802C126.126 1.802 126.308 1.88133 126.457 2.04ZM135.949 11H134.619C134.217 11 134.017 10.804 134.017 10.412V6.73C134.017 6.18867 133.886 5.76867 133.625 5.47C133.363 5.17133 132.981 5.022 132.477 5.022C131.758 5.022 131.198 5.316 130.797 5.904C130.75 5.96 130.689 6.06267 130.615 6.212V10.062H131.357C131.478 10.062 131.539 10.118 131.539 10.23V10.832C131.539 10.944 131.478 11 131.357 11H128.683C128.561 11 128.501 10.944 128.501 10.832V10.23C128.501 10.118 128.561 10.062 128.683 10.062H129.453V5.05H128.683C128.561 5.05 128.501 4.994 128.501 4.882V4.28C128.501 4.168 128.561 4.112 128.683 4.112H130.321C130.442 4.112 130.503 4.168 130.503 4.28L130.475 5.232H130.517C131.002 4.42 131.753 4.014 132.771 4.014C133.517 4.014 134.101 4.23333 134.521 4.672C134.941 5.11067 135.155 5.70333 135.165 6.45V10.062H135.949C136.07 10.062 136.131 10.118 136.131 10.23V10.832C136.131 10.944 136.07 11 135.949 11ZM140.156 14.276C139.69 14.276 139.335 14.2433 139.092 14.178C138.859 14.1127 138.668 14.052 138.518 13.996C138.378 13.9493 138.257 13.898 138.154 13.842C138.052 13.7953 137.954 13.744 137.86 13.688C137.45 13.4173 137.296 13.2213 137.398 13.1L137.762 12.582C137.818 12.498 137.898 12.4933 138 12.568C138.01 12.568 138.038 12.5867 138.084 12.624C138.14 12.6707 138.192 12.7127 138.238 12.75C138.294 12.7873 138.364 12.8293 138.448 12.876C138.542 12.932 138.644 12.9787 138.756 13.016C138.868 13.0627 138.99 13.1047 139.12 13.142C139.428 13.226 139.769 13.268 140.142 13.268C140.814 13.268 141.351 13.1047 141.752 12.778C142.163 12.4607 142.368 11.9567 142.368 11.266V9.67C142.2 10.062 141.92 10.398 141.528 10.678C141.146 10.958 140.665 11.098 140.086 11.098C139.134 11.098 138.369 10.7667 137.79 10.104C137.221 9.44133 136.936 8.58267 136.936 7.528C136.936 6.47333 137.226 5.624 137.804 4.98C138.392 4.336 139.153 4.014 140.086 4.014C140.665 4.014 141.15 4.14933 141.542 4.42C141.944 4.68133 142.233 5.00333 142.41 5.386H142.438L142.424 4.28C142.424 4.168 142.48 4.112 142.592 4.112H144.244C144.356 4.112 144.412 4.168 144.412 4.28V4.882C144.412 4.994 144.356 5.05 144.244 5.05H143.488V11.266C143.488 12.2647 143.18 13.016 142.564 13.52C141.958 14.024 141.155 14.276 140.156 14.276ZM138.084 7.556C138.084 8.32133 138.29 8.942 138.7 9.418C139.111 9.88467 139.624 10.118 140.24 10.118C140.856 10.118 141.365 9.88467 141.766 9.418C142.177 8.95133 142.382 8.326 142.382 7.542C142.382 6.758 142.177 6.13733 141.766 5.68C141.365 5.22267 140.856 4.994 140.24 4.994C139.624 4.994 139.111 5.22733 138.7 5.694C138.29 6.16067 138.084 6.78133 138.084 7.556ZM154.07 11H150.206C150.084 11 150.024 10.944 150.024 10.832V10.118C150.024 10.006 150.084 9.95 150.206 9.95H151.27V1.998H150.206C150.084 1.998 150.024 1.942 150.024 1.83V1.116C150.024 1.004 150.084 0.947999 150.206 0.947999H157.388C157.509 0.947999 157.57 1.004 157.57 1.116V3.37C157.57 3.49133 157.509 3.552 157.388 3.552H156.632C156.52 3.552 156.464 3.49133 156.464 3.37V1.998H152.488V5.47H155.778C155.899 5.47 155.96 5.526 155.96 5.638V6.352C155.96 6.464 155.899 6.52 155.778 6.52H152.488V9.95H154.07C154.182 9.95 154.238 10.006 154.238 10.118V10.832C154.238 10.944 154.182 11 154.07 11ZM163.682 10.118C163.029 10.7713 162.194 11.098 161.176 11.098C160.159 11.098 159.324 10.776 158.67 10.132C158.017 9.47867 157.69 8.61533 157.69 7.542C157.69 6.45933 158.022 5.60067 158.684 4.966C159.347 4.33133 160.178 4.014 161.176 4.014C162.184 4.014 163.015 4.336 163.668 4.98C164.331 5.61467 164.662 6.46867 164.662 7.542C164.662 8.606 164.336 9.46467 163.682 10.118ZM158.866 7.542C158.866 8.30733 159.09 8.928 159.538 9.404C159.986 9.88 160.532 10.118 161.176 10.118C161.83 10.118 162.38 9.88 162.828 9.404C163.276 8.928 163.5 8.30733 163.5 7.542C163.5 6.77667 163.272 6.16067 162.814 5.694C162.366 5.22733 161.825 4.994 161.19 4.994C160.556 4.994 160.01 5.22733 159.552 5.694C159.095 6.16067 158.866 6.77667 158.866 7.542ZM172.763 11H171.545C171.144 11 170.943 10.804 170.943 10.412V9.894H170.901C170.518 10.6967 169.79 11.098 168.717 11.098C167.97 11.098 167.378 10.8787 166.939 10.44C166.51 9.992 166.29 9.39933 166.281 8.662V5.05H165.483C165.371 5.05 165.315 4.994 165.315 4.882V4.28C165.315 4.168 165.371 4.112 165.483 4.112H166.827C167.228 4.112 167.429 4.308 167.429 4.7V8.382C167.429 8.92333 167.56 9.34333 167.821 9.642C168.082 9.94067 168.465 10.09 168.969 10.09C169.65 10.09 170.187 9.838 170.579 9.334C170.747 9.11933 170.831 8.97467 170.831 8.9V5.05H170.075C169.963 5.05 169.907 4.994 169.907 4.882V4.28C169.907 4.168 169.963 4.112 170.075 4.112H171.811C171.923 4.112 171.979 4.168 171.979 4.28V10.062H172.763C172.884 10.062 172.945 10.118 172.945 10.23V10.832C172.945 10.944 172.884 11 172.763 11ZM181.421 11H180.091C179.69 11 179.489 10.804 179.489 10.412V6.73C179.489 6.18867 179.359 5.76867 179.097 5.47C178.836 5.17133 178.453 5.022 177.949 5.022C177.231 5.022 176.671 5.316 176.269 5.904C176.223 5.96 176.162 6.06267 176.087 6.212V10.062H176.829C176.951 10.062 177.011 10.118 177.011 10.23V10.832C177.011 10.944 176.951 11 176.829 11H174.155C174.034 11 173.973 10.944 173.973 10.832V10.23C173.973 10.118 174.034 10.062 174.155 10.062H174.925V5.05H174.155C174.034 5.05 173.973 4.994 173.973 4.882V4.28C173.973 4.168 174.034 4.112 174.155 4.112H175.793C175.915 4.112 175.975 4.168 175.975 4.28L175.947 5.232H175.989C176.475 4.42 177.226 4.014 178.243 4.014C178.99 4.014 179.573 4.23333 179.993 4.672C180.413 5.11067 180.628 5.70333 180.637 6.45V10.062H181.421C181.543 10.062 181.603 10.118 181.603 10.23V10.832C181.603 10.944 181.543 11 181.421 11ZM189.636 11H188.418C188.203 11 188.044 10.958 187.942 10.874C187.848 10.7807 187.802 10.6267 187.802 10.412V9.628H187.788C187.638 10.02 187.358 10.3653 186.948 10.664C186.537 10.9533 186.038 11.098 185.45 11.098C184.516 11.098 183.756 10.7713 183.168 10.118C182.589 9.46467 182.3 8.61067 182.3 7.556C182.3 6.492 182.589 5.638 183.168 4.994C183.756 4.34067 184.521 4.014 185.464 4.014C186.042 4.014 186.523 4.14933 186.906 4.42C187.288 4.68133 187.564 5.00333 187.732 5.386H187.746C187.736 5.19933 187.732 5.04533 187.732 4.924V1.886H186.948C186.826 1.886 186.766 1.83 186.766 1.718V1.116C186.766 1.004 186.826 0.947999 186.948 0.947999H188.684C188.796 0.947999 188.852 1.004 188.852 1.116V10.062H189.636C189.748 10.062 189.804 10.118 189.804 10.23V10.832C189.804 10.944 189.748 11 189.636 11ZM183.448 7.528C183.448 8.30267 183.648 8.928 184.05 9.404C184.46 9.88 184.978 10.118 185.604 10.118C186.229 10.118 186.742 9.88467 187.144 9.418C187.545 8.942 187.746 8.312 187.746 7.528C187.746 6.744 187.54 6.128 187.13 5.68C186.719 5.22267 186.21 4.994 185.604 4.994C184.997 4.994 184.484 5.22267 184.064 5.68C183.653 6.13733 183.448 6.75333 183.448 7.528ZM197.746 11H196.528C196.127 11 195.926 10.804 195.926 10.412V9.698H195.898C195.217 10.6407 194.307 11.112 193.168 11.112C192.496 11.112 191.945 10.9393 191.516 10.594C191.087 10.2393 190.872 9.76333 190.872 9.166C190.872 8.40067 191.203 7.84067 191.866 7.486C192.538 7.122 193.457 6.94 194.624 6.94H195.8V6.772C195.8 5.60533 195.193 5.022 193.98 5.022C193.411 5.022 193 5.078 192.748 5.19C192.496 5.29267 192.314 5.37667 192.202 5.442C192.099 5.50733 192.02 5.55867 191.964 5.596C191.824 5.708 191.721 5.71733 191.656 5.624L191.264 5.134C191.199 5.05933 191.208 4.98467 191.292 4.91C191.451 4.70467 191.777 4.504 192.272 4.308C192.767 4.112 193.35 4.014 194.022 4.014C195.982 4.014 196.962 4.94733 196.962 6.814V10.062H197.746C197.858 10.062 197.914 10.118 197.914 10.23V10.832C197.914 10.944 197.858 11 197.746 11ZM195.8 7.78H194.694C194.153 7.78 193.705 7.808 193.35 7.864C192.995 7.92 192.692 8.04133 192.44 8.228C192.197 8.41467 192.076 8.67133 192.076 8.998C192.076 9.32467 192.207 9.59533 192.468 9.81C192.739 10.0153 193.089 10.118 193.518 10.118C194.423 10.118 195.184 9.71667 195.8 8.914V7.78ZM203.259 10.286C203.296 10.3233 203.315 10.3653 203.315 10.412C203.315 10.4493 203.287 10.496 203.231 10.552C202.82 10.916 202.302 11.098 201.677 11.098C201.061 11.098 200.552 10.8973 200.151 10.496C199.759 10.0853 199.563 9.49267 199.563 8.718V5.05H198.779C198.648 5.05 198.583 4.98933 198.583 4.868V4.294C198.583 4.17267 198.648 4.112 198.779 4.112H199.563V2.698C199.563 2.56733 199.628 2.502 199.759 2.502H200.543C200.664 2.502 200.725 2.56733 200.725 2.698V4.112H202.503C202.633 4.112 202.699 4.17267 202.699 4.294V4.868C202.699 4.98933 202.633 5.05 202.503 5.05H200.725V8.69C200.725 9.15667 200.827 9.51133 201.033 9.754C201.247 9.98733 201.527 10.104 201.873 10.104C202.227 10.104 202.493 10.0153 202.671 9.838C202.764 9.754 202.848 9.75867 202.923 9.852L203.259 10.286ZM206.949 11H204.275C204.153 11 204.093 10.944 204.093 10.832V10.23C204.093 10.118 204.153 10.062 204.275 10.062H205.045V5.05H204.275C204.153 5.05 204.093 4.994 204.093 4.882V4.28C204.093 4.168 204.153 4.112 204.275 4.112H206.039C206.151 4.112 206.207 4.168 206.207 4.28V10.062H206.949C207.07 10.062 207.131 10.118 207.131 10.23V10.832C207.131 10.944 207.07 11 206.949 11ZM206.151 2.04C206.309 2.19867 206.389 2.38533 206.389 2.6C206.389 2.81467 206.309 2.99667 206.151 3.146C206.001 3.29533 205.819 3.37 205.605 3.37C205.39 3.37 205.203 3.29533 205.045 3.146C204.895 2.99667 204.821 2.81467 204.821 2.6C204.821 2.38533 204.895 2.19867 205.045 2.04C205.203 1.88133 205.39 1.802 205.605 1.802C205.819 1.802 206.001 1.88133 206.151 2.04ZM214.022 10.118C213.369 10.7713 212.533 11.098 211.516 11.098C210.499 11.098 209.663 10.776 209.01 10.132C208.357 9.47867 208.03 8.61533 208.03 7.542C208.03 6.45933 208.361 5.60067 209.024 4.966C209.687 4.33133 210.517 4.014 211.516 4.014C212.524 4.014 213.355 4.336 214.008 4.98C214.671 5.61467 215.002 6.46867 215.002 7.542C215.002 8.606 214.675 9.46467 214.022 10.118ZM209.206 7.542C209.206 8.30733 209.43 8.928 209.878 9.404C210.326 9.88 210.872 10.118 211.516 10.118C212.169 10.118 212.72 9.88 213.168 9.404C213.616 8.928 213.84 8.30733 213.84 7.542C213.84 6.77667 213.611 6.16067 213.154 5.694C212.706 5.22733 212.165 4.994 211.53 4.994C210.895 4.994 210.349 5.22733 209.892 5.694C209.435 6.16067 209.206 6.77667 209.206 7.542ZM223.49 11H222.16C221.758 11 221.558 10.804 221.558 10.412V6.73C221.558 6.18867 221.427 5.76867 221.166 5.47C220.904 5.17133 220.522 5.022 220.018 5.022C219.299 5.022 218.739 5.316 218.338 5.904C218.291 5.96 218.23 6.06267 218.156 6.212V10.062H218.898C219.019 10.062 219.08 10.118 219.08 10.23V10.832C219.08 10.944 219.019 11 218.898 11H216.224C216.102 11 216.042 10.944 216.042 10.832V10.23C216.042 10.118 216.102 10.062 216.224 10.062H216.994V5.05H216.224C216.102 5.05 216.042 4.994 216.042 4.882V4.28C216.042 4.168 216.102 4.112 216.224 4.112H217.862C217.983 4.112 218.044 4.168 218.044 4.28L218.016 5.232H218.058C218.543 4.42 219.294 4.014 220.312 4.014C221.058 4.014 221.642 4.23333 222.062 4.672C222.482 5.11067 222.696 5.70333 222.706 6.45V10.062H223.49C223.611 10.062 223.672 10.118 223.672 10.23V10.832C223.672 10.944 223.611 11 223.49 11Z" fill="white"/>
</svg>
