<?xml version="1.0" encoding="utf-8"?>
<!-- Generator: Adobe Illustrator 25.2.0, SVG Export Plug-In . SVG Version: 6.00 Build 0)  -->
<svg version="1.1" id="Layer_1" xmlns="http://www.w3.org/2000/svg" xmlns:xlink="http://www.w3.org/1999/xlink" x="0px" y="0px"
	 viewBox="0 0 224 15" style="enable-background:new 0 0 224 15;" xml:space="preserve">
<style type="text/css">
	.st0{fill:#FFFFFF;}
</style>
<g>
	<path class="st0" d="M5.1,9.3H2.8v2.9H1.3V2.3c1.3,0,2.6,0,3.8,0C9.1,2.3,9.1,9.3,5.1,9.3z M2.8,7.6h2.3c2,0,2-3.5,0-3.5H2.8V7.6z"
		/>
	<path class="st0" d="M14.8,10.4h-4.2l-0.7,1.9H8.1l3.6-9.9h1.7l3.6,9.9h-1.7L14.8,10.4z M12.6,4.4l-1.5,4.2h3L12.6,4.4z"/>
	<path class="st0" d="M24.4,11c-0.8,1-1.9,1.5-3.1,1.5c-3,0-4.3-2.5-4.3-5.1c0-2.6,1.4-5.2,4.3-5.2c1.1,0,2.1,0.5,3,1.5l-1,1.2
		c-0.5-0.6-1.3-0.9-2-0.9c-2,0-2.8,1.8-2.8,3.4c0,1.6,0.8,3.3,2.8,3.3c0.7,0,1.5-0.4,2-1L24.4,11z"/>
	<path class="st0" d="M30.3,4.7c-0.3-0.6-1-1.1-1.9-1.1c-1.1,0-1.7,0.6-1.7,1.3c0,0.9,0.8,1.1,1.8,1.2c1.7,0.3,3.3,0.8,3.3,3.1
		c0,2.2-1.6,3.1-3.4,3.1c-1.7,0-2.9-0.6-3.5-2.4L26,9.2c0.4,1.1,1.3,1.6,2.3,1.6c1,0,1.9-0.4,1.9-1.5c0-0.9-0.8-1.3-1.9-1.5
		c-1.7-0.2-3.2-0.8-3.2-3c0-2,1.6-2.9,3.1-2.9c1.3,0,2.6,0.4,3.2,2L30.3,4.7z"/>
	<path class="st0" d="M39.4,12.3h-1.6l-3.4-9.9h1.7l2.5,7.7l2.5-7.7h1.7L39.4,12.3z"/>
	<path class="st0" d="M43.6,12.2V2.3h1.5v9.9H43.6z"/>
	<path class="st0" d="M52.5,12.2h-6.1c0-3.3,0-6.6,0-9.9h6.1v1.8H48v2.3h4.4v1.7H48v2.2h4.6V12.2z"/>
	<path class="st0" d="M62.5,12.2h-1.3l-1-3.1L59.3,6l-0.8,3.1l-1,3.1h-1.3l-3-9.9h1.7l1.9,7.1l2-7.1h1l2,7.1l1.9-7.1h1.7L62.5,12.2z
		"/>
	<path class="st0" d="M72.3,12.2h-6.1c0-3.3,0-6.6,0-9.9h6.1v1.8h-4.6v2.3h4.4v1.7h-4.4v2.2h4.6V12.2z"/>
	<path class="st0" d="M80.6,12.2h-1.8l-2.4-3.3h-1.5v3.3h-1.5V2.3c1.3,0,2.6,0,3.9,0c1.9,0,2.9,1.6,2.9,3.3c0,1.4-0.5,2.7-2.1,3.1
		l2.5,3.4V12.2z M74.9,4.1v3.2h2.3c1,0,1.4-0.8,1.4-1.6c0-0.8-0.4-1.6-1.4-1.6H74.9z"/>
	<path class="st0" d="M87.2,13.4h-1.4V1.6h1.4V13.4z"/>
	<path class="st0" d="M97.3,12.2h-6.1c0-3.3,0-6.6,0-9.9h6.1v1.8h-4.6v2.3h4.4v1.7h-4.4v2.2h4.6V12.2z"/>
	<path class="st0" d="M98.2,6.8h4.3v1.6h-4.3V6.8z"/>
	<path class="st0" d="M110.6,5.1L108,9.4h-0.3l-2.6-4.3v7.2h-1.5V2.4h1.8l2.5,4.2l2.5-4.2h1.8v9.9h-1.5V5.1z"/>
	<path class="st0" d="M119.5,12.2h-6.1c0-3.3,0-6.6,0-9.9h6.1v1.8H115v2.3h4.4v1.7H115v2.2h4.6V12.2z"/>
	<path class="st0" d="M127.8,7.2c0,2.5-1.2,5-4.1,5c-1,0-2.2,0-3.2,0V2.3c1,0,2.2,0,3.2,0C126.5,2.3,127.7,4.8,127.8,7.2z M122,10.4
		h1.7c1.8,0,2.6-1.6,2.5-3.2c0-1.5-0.8-3.1-2.5-3.1H122V10.4z"/>
	<path class="st0" d="M128.8,12.2V2.3h1.5v9.9H128.8z"/>
	<path class="st0" d="M138.8,11c-0.8,1-1.9,1.5-3.1,1.5c-3,0-4.3-2.5-4.3-5.1c0-2.6,1.4-5.2,4.3-5.2c1.1,0,2.1,0.5,3,1.5l-1,1.2
		c-0.5-0.6-1.3-0.9-2-0.9c-2,0-2.8,1.8-2.8,3.4c0,1.6,0.8,3.3,2.8,3.3c0.7,0,1.5-0.4,2-1L138.8,11z"/>
	<path class="st0" d="M145,10.4h-4.2l-0.7,1.9h-1.7l3.6-9.9h1.7l3.6,9.9h-1.7L145,10.4z M142.8,4.4l-1.5,4.2h3L142.8,4.4z"/>
	<path class="st0" d="M149.5,2.3v8.2h4.2v1.7H148V2.3H149.5z"/>
	<path class="st0" d="M161.9,4.7c-0.3-0.6-1-1.1-1.9-1.1c-1.1,0-1.7,0.6-1.7,1.3c0,0.9,0.8,1.1,1.8,1.2c1.7,0.3,3.3,0.8,3.3,3.1
		c0,2.2-1.6,3.1-3.4,3.1c-1.7,0-2.9-0.6-3.5-2.4l1.3-0.8c0.4,1.1,1.3,1.6,2.3,1.6c1,0,1.9-0.4,1.9-1.5c0-0.9-0.8-1.3-1.9-1.5
		c-1.7-0.2-3.2-0.8-3.2-3c0-2,1.6-2.9,3.1-2.9c1.3,0,2.6,0.4,3.2,2L161.9,4.7z"/>
	<path class="st0" d="M172.5,7.3c0,2.6-1.3,5.1-4.2,5.1s-4.2-2.5-4.2-5.1c0-2.6,1.4-5.2,4.2-5.2C171.1,2.1,172.5,4.8,172.5,7.3z
		 M165.6,7.4c0,1.6,0.8,3.4,2.7,3.4s2.6-1.8,2.7-3.4c0-1.7-0.7-3.5-2.7-3.5S165.6,5.7,165.6,7.4z"/>
	<path class="st0" d="M175,2.3v8.2h4.2v1.7h-5.7V2.3H175z"/>
	<path class="st0" d="M186.8,2.4V8c0,2.9-1.5,4.4-3.5,4.4c-2,0-3.6-1.4-3.6-4.4V2.4h1.5V8c0,1.8,0.8,2.7,2.1,2.7c1.3,0,2-1,2-2.7
		V2.4H186.8z"/>
	<path class="st0" d="M190.3,4h-2.6V2.3c2.3,0,4.3,0,6.7,0V4h-2.6v8.2h-1.5V4z"/>
	<path class="st0" d="M195.2,12.2V2.3h1.5v9.9H195.2z"/>
	<path class="st0" d="M206.3,7.3c0,2.6-1.3,5.1-4.2,5.1s-4.2-2.5-4.2-5.1c0-2.6,1.4-5.2,4.2-5.2C204.9,2.1,206.3,4.8,206.3,7.3z
		 M199.4,7.4c0,1.6,0.8,3.4,2.7,3.4s2.6-1.8,2.7-3.4c0-1.7-0.7-3.5-2.7-3.5S199.4,5.7,199.4,7.4z"/>
	<path class="st0" d="M212.6,2.3h1.5v9.9h-1v0l-4.3-6.7v6.7h-1.5V2.3h1.2l4,6.1V2.3z"/>
	<path class="st0" d="M220.6,4.7c-0.3-0.6-1-1.1-1.9-1.1c-1.1,0-1.7,0.6-1.7,1.3c0,0.9,0.8,1.1,1.8,1.2c1.7,0.3,3.3,0.8,3.3,3.1
		c0,2.2-1.6,3.1-3.4,3.1c-1.7,0-2.9-0.6-3.5-2.4l1.3-0.8c0.4,1.1,1.3,1.6,2.3,1.6c1,0,1.9-0.4,1.9-1.5c0-0.9-0.8-1.3-1.9-1.5
		c-1.7-0.2-3.2-0.8-3.2-3c0-2,1.6-2.9,3.1-2.9c1.3,0,2.6,0.4,3.2,2L220.6,4.7z"/>
</g>
</svg>
