<?xml version="1.0" encoding="utf-8"?>
<!-- Generator: Adobe Illustrator 25.4.1, SVG Export Plug-In . SVG Version: 6.00 Build 0)  -->
<svg version="1.1" id="图层_1" xmlns="http://www.w3.org/2000/svg" xmlns:xlink="http://www.w3.org/1999/xlink" x="0px" y="0px"
	 viewBox="0 0 52.08 23.44" enable-background="new 0 0 52.08 23.44" xml:space="preserve">
<g>
	<g>
		<g>
			<path fill="#FFFFFF" d="M11.9,11.71c-0.03,0.04-0.06,0.09-0.08,0.16c-0.02,0.07-0.04,0.16-0.06,0.28
				c-0.02,0.12-0.03,0.27-0.05,0.45s-0.03,0.41-0.04,0.68c-0.02,0.26-0.03,0.52-0.05,0.8c-0.02,0.28-0.04,0.57-0.07,0.87
				c-0.03,0.29-0.07,0.54-0.11,0.76s-0.09,0.4-0.14,0.56c-0.06,0.16-0.12,0.29-0.19,0.4c-0.07,0.11-0.16,0.21-0.25,0.3
				c-0.34,0.32-0.6,0.46-0.79,0.43c-0.19-0.03-0.33-0.2-0.43-0.52c-0.04-0.11-0.11-0.25-0.21-0.41c-0.1-0.16-0.24-0.33-0.41-0.49
				c-0.32-0.29-0.47-0.49-0.46-0.57s0.19-0.09,0.53-0.02c0.22,0.05,0.4,0.08,0.54,0.09c0.14,0.01,0.25-0.01,0.34-0.06
				s0.16-0.14,0.2-0.26s0.09-0.3,0.13-0.52c0.03-0.17,0.06-0.37,0.08-0.62c0.02-0.24,0.04-0.5,0.06-0.76
				c0.02-0.26,0.02-0.52,0.02-0.77c0-0.25,0-0.47-0.01-0.65c-0.02-0.19-0.03-0.34-0.05-0.44c-0.02-0.1-0.05-0.18-0.11-0.23
				c-0.06-0.05-0.14-0.07-0.24-0.07s-0.25,0.01-0.43,0.02c-0.14,0.02-0.31,0.03-0.52,0.05s-0.44,0.05-0.7,0.08
				c0.34,0.17,0.51,0.31,0.52,0.43c0.01,0.12-0.05,0.21-0.2,0.28c-0.09,0.04-0.19,0.1-0.29,0.19c-0.11,0.09-0.27,0.25-0.49,0.48
				c0.13-0.04,0.24-0.07,0.34-0.09c0.1-0.02,0.19-0.03,0.28-0.04c0.08,0,0.17,0,0.25,0.02c0.08,0.02,0.18,0.05,0.28,0.09
				c0.22,0.09,0.32,0.19,0.28,0.31c-0.04,0.12-0.27,0.2-0.7,0.26c-0.11,0.02-0.27,0.04-0.47,0.06c-0.2,0.02-0.41,0.05-0.62,0.07
				c0,0.15,0,0.27,0,0.35s0,0.16-0.01,0.22c0.31-0.07,0.57-0.12,0.77-0.16c0.2-0.03,0.37-0.05,0.51-0.05c0.14,0,0.25,0.02,0.34,0.05
				c0.09,0.03,0.17,0.08,0.24,0.16c0.21,0.19,0.27,0.34,0.2,0.45c-0.08,0.11-0.3,0.15-0.67,0.13c-0.12-0.01-0.31,0-0.58,0.02
				c-0.27,0.02-0.55,0.05-0.83,0.09c-0.02,0.24-0.03,0.44-0.04,0.61c-0.01,0.17-0.03,0.31-0.04,0.44s-0.04,0.24-0.07,0.34
				c-0.03,0.1-0.06,0.2-0.1,0.31c-0.3,0.78-0.52,0.74-0.65-0.1c-0.02-0.11-0.03-0.22-0.04-0.31c-0.01-0.1-0.02-0.2-0.03-0.31
				c-0.01-0.11-0.01-0.23-0.02-0.37c0-0.13-0.01-0.29-0.01-0.47c-0.18,0.02-0.3,0.05-0.38,0.07c-0.3,0.07-0.53,0.1-0.69,0.09
				c-0.16-0.01-0.31-0.07-0.47-0.19c-0.21-0.15-0.31-0.26-0.3-0.31c0.01-0.06,0.18-0.09,0.5-0.1c0.18-0.01,0.37-0.02,0.59-0.04
				c0.22-0.02,0.47-0.06,0.75-0.11c0-0.11,0-0.21,0-0.29c0-0.08,0-0.19-0.01-0.33c-0.17,0.02-0.31,0.04-0.41,0.05
				s-0.2,0.02-0.28,0.01c-0.08,0-0.14-0.01-0.2-0.03c-0.06-0.02-0.13-0.04-0.2-0.07c-0.26-0.11-0.39-0.19-0.38-0.25
				c0.01-0.05,0.17-0.1,0.49-0.14c0.15-0.02,0.38-0.05,0.7-0.1s0.62-0.1,0.92-0.16c0.23-0.34,0.38-0.63,0.46-0.85
				c0.07-0.22,0.08-0.43,0.02-0.62c-0.5,0.08-1.05,0.15-1.64,0.22c-0.59,0.06-1.15,0.13-1.67,0.19c0.02,0.41,0.04,0.84,0.06,1.28
				s0.03,0.94,0.05,1.48c0.01,0.28,0.01,0.52-0.01,0.73c-0.01,0.2-0.04,0.41-0.08,0.63c-0.09,0.44-0.24,0.66-0.44,0.67
				c-0.21,0-0.44-0.21-0.68-0.64c-0.06-0.1-0.1-0.18-0.12-0.26c-0.02-0.08-0.03-0.17-0.02-0.26c0.01-0.1,0.03-0.21,0.07-0.33
				c0.04-0.12,0.09-0.27,0.15-0.45c0.04-0.1,0.06-0.29,0.07-0.55c0.01-0.26,0-0.54-0.01-0.83c-0.02-0.29-0.05-0.57-0.09-0.83
				s-0.1-0.44-0.16-0.55c-0.12-0.18-0.2-0.33-0.25-0.45c-0.05-0.12-0.05-0.2-0.01-0.25s0.14-0.07,0.29-0.05
				c0.15,0.01,0.37,0.05,0.65,0.11c0.41-0.04,0.81-0.08,1.19-0.13c0.39-0.04,0.78-0.09,1.17-0.15c0.07-0.23,0.13-0.44,0.18-0.62
				c0.05-0.18,0.09-0.35,0.12-0.5C6.32,9.8,6.17,9.81,6.05,9.82s-0.23,0-0.32-0.01C5.63,9.79,5.55,9.77,5.47,9.74
				C5.39,9.72,5.31,9.68,5.23,9.63C5.07,9.54,5,9.46,5.03,9.4c0.03-0.07,0.12-0.11,0.28-0.13c0.39-0.03,0.83-0.1,1.32-0.2
				c0.1-0.52,0.16-0.92,0.16-1.19S6.76,7.39,6.67,7.24C6.48,6.92,6.46,6.72,6.6,6.63c0.14-0.09,0.49-0.02,1.06,0.22
				c0.22,0.09,0.38,0.17,0.49,0.25c0.11,0.08,0.19,0.15,0.22,0.22C8.4,7.39,8.41,7.46,8.38,7.52C8.35,7.59,8.3,7.66,8.24,7.73
				C8.15,7.83,8.07,7.96,8,8.14C7.93,8.31,7.85,8.51,7.77,8.74c0.24-0.1,0.45-0.17,0.64-0.22c0.18-0.05,0.35-0.09,0.49-0.1
				s0.27-0.02,0.39,0C9.41,8.43,9.52,8.46,9.64,8.5c0.13,0.05,0.22,0.1,0.27,0.15C9.97,8.7,9.99,8.76,9.97,8.81
				C9.96,8.87,9.92,8.92,9.86,8.97S9.71,9.06,9.61,9.1C9.46,9.16,9.32,9.21,9.17,9.26S8.87,9.35,8.7,9.39
				C8.54,9.43,8.36,9.47,8.16,9.5C7.97,9.54,7.74,9.58,7.5,9.62C7.44,9.79,7.38,9.96,7.3,10.15c-0.07,0.19-0.16,0.4-0.28,0.63
				c0.5-0.06,0.91-0.12,1.25-0.17c0.34-0.05,0.63-0.09,0.86-0.14c0.23-0.04,0.43-0.09,0.59-0.13c0.16-0.04,0.31-0.1,0.46-0.16
				c0.1-0.04,0.18-0.07,0.25-0.09c0.07-0.02,0.14-0.03,0.22-0.02c0.07,0.01,0.15,0.03,0.22,0.07c0.08,0.04,0.17,0.08,0.27,0.14
				c0.3,0.18,0.54,0.33,0.7,0.44c0.16,0.11,0.26,0.21,0.31,0.31s0.05,0.19,0,0.29S12.02,11.55,11.9,11.71z M6.69,12.35
				c0,0.14-0.02,0.26-0.07,0.35c-0.04,0.09-0.1,0.14-0.17,0.17c-0.07,0.02-0.15,0.02-0.24-0.02s-0.17-0.11-0.25-0.2
				c-0.09-0.1-0.16-0.2-0.2-0.29c-0.05-0.09-0.09-0.19-0.12-0.31c-0.05-0.18-0.04-0.3,0.02-0.35s0.18-0.05,0.37,0
				c0.25,0.06,0.42,0.15,0.52,0.27C6.64,12.08,6.69,12.21,6.69,12.35z"/>
		</g>
		<g>
			<path fill="#FFFFFF" d="M16.62,12.62c-0.18,0.62-0.33,1.17-0.43,1.67c-0.1,0.5-0.16,0.9-0.18,1.21c-0.01,0.23-0.04,0.41-0.1,0.53
				s-0.14,0.18-0.25,0.17c-0.1-0.01-0.23-0.09-0.38-0.23c-0.15-0.15-0.33-0.38-0.53-0.69c-0.14-0.22-0.25-0.41-0.31-0.55
				c-0.06-0.14-0.08-0.26-0.07-0.35c0.01-0.09,0.06-0.16,0.14-0.2s0.19-0.07,0.32-0.09c0.18-0.02,0.36-0.18,0.54-0.47
				c0.1-0.15,0.18-0.29,0.25-0.4c0.07-0.12,0.14-0.23,0.2-0.33c0.06-0.1,0.13-0.21,0.19-0.32c0.06-0.11,0.14-0.23,0.22-0.35
				c0.3-0.49,0.48-0.71,0.56-0.66C16.87,11.59,16.81,11.95,16.62,12.62z M16.26,11.31c0,0.18-0.03,0.34-0.08,0.46
				c-0.06,0.12-0.13,0.2-0.21,0.25c-0.08,0.05-0.17,0.06-0.27,0.05S15.5,12,15.42,11.91c-0.11-0.11-0.24-0.26-0.37-0.44
				c-0.14-0.18-0.27-0.37-0.41-0.58c-0.15-0.24-0.2-0.4-0.14-0.49c0.06-0.08,0.26-0.11,0.61-0.07c0.41,0.06,0.7,0.17,0.89,0.33
				C16.18,10.83,16.26,11.05,16.26,11.31z M17.56,9.21c0,0.16-0.03,0.29-0.08,0.39c-0.06,0.1-0.13,0.17-0.21,0.22
				s-0.18,0.06-0.28,0.05c-0.1-0.02-0.21-0.07-0.31-0.16c-0.1-0.09-0.22-0.23-0.36-0.42c-0.14-0.19-0.27-0.39-0.38-0.59
				c-0.15-0.27-0.2-0.44-0.13-0.52c0.06-0.07,0.26-0.08,0.6-0.01c0.2,0.04,0.37,0.09,0.52,0.14c0.15,0.05,0.27,0.12,0.37,0.19
				c0.1,0.08,0.17,0.17,0.21,0.28C17.54,8.9,17.56,9.04,17.56,9.21z M20.48,10.55c-0.11,0.06-0.28,0.12-0.49,0.19
				c-0.22,0.07-0.48,0.14-0.8,0.22l-0.22,1.08c0.12-0.03,0.2-0.07,0.25-0.11c0.18-0.13,0.34-0.19,0.46-0.18
				c0.12,0.01,0.29,0.08,0.5,0.2c0.18,0.11,0.31,0.2,0.4,0.27c0.09,0.07,0.14,0.13,0.16,0.19c0.01,0.06-0.01,0.12-0.07,0.17
				c-0.06,0.06-0.14,0.12-0.24,0.2c-0.11,0.09-0.21,0.19-0.3,0.31s-0.19,0.31-0.3,0.56c0.3,0.1,0.43,0.23,0.41,0.37
				c-0.02,0.14-0.18,0.23-0.47,0.27c-0.06,0.01-0.16,0.02-0.28,0.04c-0.12,0.02-0.26,0.04-0.41,0.07c-0.16,0.02-0.32,0.05-0.49,0.08
				c-0.17,0.03-0.33,0.05-0.49,0.08c-0.02,0.17-0.07,0.3-0.13,0.39s-0.12,0.15-0.19,0.17c-0.07,0.02-0.14,0.01-0.2-0.04
				c-0.07-0.05-0.12-0.13-0.16-0.25c-0.05-0.14-0.09-0.27-0.12-0.39c-0.03-0.12-0.06-0.27-0.07-0.43c-0.02-0.25-0.07-0.5-0.13-0.74
				s-0.12-0.42-0.19-0.52c-0.08-0.12-0.13-0.22-0.15-0.3c-0.02-0.08,0-0.14,0.07-0.18c0.06-0.04,0.17-0.06,0.33-0.06
				c0.16,0,0.37,0.02,0.64,0.07c0.05-0.01,0.09-0.01,0.14-0.02s0.09-0.01,0.14-0.02l0.14-1.1c-0.26,0.05-0.48,0.08-0.65,0.09
				c-0.17,0.01-0.33,0-0.46-0.04c-0.29-0.07-0.43-0.16-0.43-0.25c0-0.1,0.14-0.16,0.43-0.2c0.11-0.02,0.28-0.05,0.5-0.11
				c0.22-0.06,0.46-0.13,0.71-0.22c0.07-0.53,0.13-0.97,0.16-1.31c0.04-0.35,0.05-0.63,0.05-0.86c0-0.22-0.01-0.4-0.04-0.52
				c-0.03-0.12-0.07-0.23-0.11-0.31c-0.21-0.3-0.25-0.51-0.14-0.61c0.12-0.1,0.39-0.08,0.82,0.08c0.29,0.1,0.51,0.2,0.67,0.29
				c0.16,0.09,0.27,0.18,0.33,0.26s0.08,0.17,0.06,0.25s-0.07,0.16-0.15,0.24c-0.05,0.05-0.09,0.11-0.13,0.18
				c-0.04,0.07-0.08,0.18-0.12,0.32c-0.04,0.14-0.09,0.34-0.14,0.59c-0.06,0.25-0.12,0.58-0.2,0.98c0.21-0.07,0.39-0.11,0.53-0.12
				c0.15-0.01,0.27,0,0.38,0.02c0.29,0.07,0.44,0.17,0.46,0.3C20.76,10.35,20.67,10.46,20.48,10.55z M19.21,12.85
				c0-0.08-0.02-0.13-0.07-0.16c-0.05-0.02-0.14-0.02-0.28,0.01c-0.07,0.02-0.19,0.04-0.35,0.07c-0.16,0.03-0.33,0.06-0.52,0.1
				c0.06,0.42,0.11,0.78,0.13,1.09c0.16-0.04,0.32-0.08,0.47-0.12c0.15-0.04,0.31-0.08,0.48-0.12c0.04-0.14,0.07-0.29,0.09-0.43
				S19.2,13.01,19.21,12.85z M24.45,9.31c-0.05,0.06-0.09,0.12-0.11,0.2s-0.05,0.18-0.07,0.3c-0.02,0.12-0.03,0.27-0.04,0.45
				c0,0.18-0.01,0.39-0.01,0.64c0,0.26,0,0.58,0,0.94c0,0.36,0,0.73,0.01,1.1c0,0.37,0.01,0.72,0.02,1.05
				c0.01,0.33,0.02,0.59,0.02,0.78c0.02,0.36,0.02,0.66,0.02,0.89c0,0.24-0.02,0.43-0.06,0.59s-0.09,0.3-0.17,0.41
				c-0.08,0.12-0.18,0.23-0.31,0.35c-0.24,0.23-0.43,0.34-0.57,0.33c-0.14-0.01-0.26-0.15-0.35-0.4c-0.06-0.16-0.17-0.34-0.31-0.54
				c-0.14-0.2-0.29-0.37-0.44-0.5c-0.31-0.29-0.45-0.47-0.4-0.54s0.29-0.04,0.75,0.08c0.15,0.04,0.27,0.07,0.35,0.09
				c0.08,0.02,0.15,0.03,0.2,0.02c0.05-0.01,0.08-0.03,0.09-0.06s0.02-0.08,0.03-0.14c0.04-0.47,0.07-0.97,0.1-1.49
				c0.02-0.52,0.04-1.04,0.04-1.55c0-0.51,0-1-0.02-1.48s-0.04-0.9-0.06-1.28c-0.02-0.18-0.05-0.31-0.11-0.39
				c-0.06-0.08-0.12-0.11-0.2-0.09c-0.08,0.01-0.15,0.02-0.21,0.03c-0.06,0.01-0.12,0.02-0.18,0.04c-0.06,0.01-0.13,0.03-0.2,0.04
				c-0.08,0.02-0.17,0.04-0.27,0.06c0.02,0.5,0.02,0.98,0,1.44c0.26-0.1,0.44-0.16,0.54-0.17c0.1-0.01,0.18,0,0.24,0.01
				c0.23,0.08,0.35,0.19,0.36,0.32c0.01,0.14-0.08,0.24-0.26,0.31c-0.16,0.06-0.31,0.11-0.45,0.13c-0.14,0.02-0.29,0.03-0.45,0.01
				c-0.02,0.46-0.06,0.87-0.11,1.21c0.31-0.09,0.53-0.14,0.67-0.14c0.13-0.01,0.23,0.01,0.31,0.05c0.2,0.09,0.3,0.2,0.29,0.32
				s-0.1,0.22-0.29,0.28c-0.21,0.06-0.39,0.11-0.55,0.13c-0.16,0.02-0.33,0.01-0.52-0.02c-0.1,0.54-0.23,1.02-0.39,1.42
				c-0.16,0.4-0.33,0.75-0.53,1.05c-0.2,0.3-0.41,0.54-0.64,0.74c-0.23,0.2-0.48,0.36-0.74,0.49c-0.59,0.29-0.91,0.4-0.96,0.34
				c-0.05-0.06,0.14-0.28,0.55-0.67c0.27-0.25,0.51-0.52,0.73-0.82c0.21-0.3,0.4-0.64,0.55-1.03c0.16-0.39,0.28-0.83,0.38-1.33
				c0.1-0.5,0.17-1.07,0.21-1.73c0.02-0.32,0.04-0.62,0.04-0.91c0-0.28-0.01-0.54-0.03-0.76s-0.04-0.41-0.07-0.56
				c-0.03-0.15-0.06-0.25-0.1-0.31c-0.09-0.12-0.15-0.22-0.17-0.31s-0.01-0.15,0.06-0.19S20.82,8.53,21,8.55s0.44,0.07,0.77,0.17
				c0.26-0.03,0.48-0.08,0.67-0.14c0.19-0.06,0.32-0.12,0.4-0.17c0.1-0.07,0.19-0.13,0.27-0.16s0.15-0.06,0.22-0.06
				c0.07,0,0.14,0.01,0.22,0.03s0.16,0.06,0.26,0.12c0.24,0.14,0.43,0.24,0.56,0.32c0.13,0.08,0.22,0.15,0.26,0.22
				c0.04,0.06,0.04,0.13,0.01,0.19S24.53,9.21,24.45,9.31z"/>
		</g>
		<g>
			<path fill="#FFFFFF" d="M32.59,11.21c0.1,0.11,0.18,0.2,0.22,0.28s0.05,0.13,0.01,0.17c-0.04,0.04-0.13,0.07-0.27,0.08
				c-0.14,0.01-0.34,0.01-0.59-0.02c-0.07-0.01-0.17-0.01-0.29-0.01c-0.12,0-0.28,0.01-0.47,0.02c-0.2,0.01-0.44,0.03-0.72,0.06
				c-0.28,0.03-0.63,0.07-1.03,0.11c-0.26,0.03-0.53,0.07-0.81,0.11c-0.28,0.04-0.56,0.1-0.82,0.16c-0.19,0.05-0.35,0.09-0.48,0.11
				c-0.13,0.03-0.24,0.04-0.33,0.04c-0.09,0-0.18-0.03-0.26-0.07c-0.08-0.04-0.17-0.1-0.28-0.18c-0.2-0.16-0.29-0.27-0.28-0.32
				s0.16-0.08,0.44-0.07c0.15,0.01,0.36,0,0.61-0.02c0.26-0.02,0.58-0.05,0.96-0.1c0.32-0.04,0.6-0.08,0.85-0.11
				c0.25-0.03,0.48-0.06,0.68-0.1c-0.09-0.1-0.16-0.19-0.22-0.26c-0.06-0.07-0.11-0.14-0.15-0.22c-0.08-0.14-0.1-0.24-0.05-0.31
				c0.04-0.07,0.19-0.08,0.45-0.04c0.23,0.04,0.39,0.11,0.47,0.21c0.08,0.1,0.12,0.27,0.12,0.51c0.18-0.03,0.35-0.07,0.52-0.1
				c0.17-0.04,0.35-0.07,0.54-0.11c0.17-0.03,0.31-0.06,0.43-0.08c0.12-0.02,0.22-0.03,0.3-0.02c0.08,0.01,0.16,0.03,0.23,0.07
				S32.51,11.13,32.59,11.21z M28.23,14.43c0.12,0.34,0.13,0.65,0.03,0.93S28,15.89,27.79,16.1c-0.17,0.16-0.31,0.21-0.43,0.16
				s-0.2-0.2-0.25-0.43c-0.02-0.13-0.04-0.23-0.05-0.32c-0.01-0.08-0.01-0.16,0-0.22c0.01-0.06,0.04-0.11,0.08-0.16
				s0.09-0.1,0.16-0.17c0.1-0.09,0.18-0.19,0.25-0.29c0.07-0.11,0.14-0.22,0.19-0.33c0.11-0.23,0.2-0.34,0.27-0.31
				C28.07,14.05,28.14,14.18,28.23,14.43z M32.34,8.91C32.27,8.96,32.22,9,32.17,9.04c-0.04,0.04-0.08,0.08-0.12,0.14
				c-0.04,0.06-0.07,0.12-0.11,0.19c-0.04,0.07-0.08,0.17-0.13,0.29c-0.06,0.12-0.12,0.24-0.18,0.36s-0.13,0.22-0.19,0.31
				c-0.14,0.21-0.27,0.32-0.37,0.34s-0.25-0.04-0.44-0.19c-0.04-0.02-0.17-0.03-0.4-0.03c-0.23,0-0.57,0.04-1.03,0.1
				c-0.1,0.23-0.22,0.34-0.38,0.31s-0.28-0.18-0.37-0.47c-0.11-0.38-0.24-0.74-0.37-1.07C27.94,9,27.79,8.75,27.62,8.59
				c-0.07-0.07-0.12-0.14-0.14-0.22c-0.02-0.07-0.01-0.13,0.04-0.17s0.14-0.07,0.27-0.08c0.13-0.01,0.31,0.01,0.53,0.06
				c0.23-0.02,0.47-0.04,0.71-0.08c0.24-0.04,0.47-0.07,0.68-0.11s0.41-0.09,0.58-0.14c0.18-0.05,0.32-0.1,0.42-0.15
				c0.11-0.06,0.21-0.09,0.29-0.11s0.17-0.02,0.26-0.01c0.09,0.02,0.19,0.05,0.29,0.11c0.1,0.06,0.24,0.13,0.4,0.23
				c0.2,0.12,0.35,0.23,0.44,0.32c0.1,0.1,0.15,0.18,0.17,0.26c0.02,0.08,0,0.15-0.04,0.22C32.49,8.78,32.42,8.85,32.34,8.91z
				 M31.84,12.77c-0.13,0.09-0.23,0.17-0.31,0.24c-0.08,0.07-0.15,0.16-0.22,0.25c0.22,0.11,0.29,0.22,0.22,0.33
				c-0.07,0.11-0.23,0.18-0.5,0.22c-0.09,0.02-0.19,0.03-0.29,0.04c-0.11,0.01-0.26,0.03-0.46,0.04c0.11,0.07,0.18,0.13,0.2,0.17
				s0.02,0.09,0.01,0.14c-0.04,0.14-0.07,0.29-0.08,0.44c-0.01,0.15,0,0.33,0.04,0.54c0.03,0.2,0.05,0.37,0.05,0.51
				s-0.02,0.27-0.05,0.38c-0.03,0.12-0.08,0.23-0.16,0.34c-0.07,0.11-0.16,0.23-0.28,0.35c-0.14,0.18-0.29,0.26-0.43,0.26
				s-0.24-0.08-0.29-0.24c-0.04-0.14-0.1-0.27-0.19-0.39s-0.21-0.28-0.39-0.47c-0.26-0.28-0.34-0.44-0.26-0.48s0.28,0,0.59,0.11
				c0.14,0.05,0.23,0.05,0.29,0.01s0.1-0.1,0.11-0.19c0.01-0.06,0.02-0.13,0.02-0.23c0.01-0.1,0.01-0.2,0.01-0.31
				c0-0.11,0-0.21-0.01-0.31c0-0.1-0.01-0.17-0.02-0.23c-0.02-0.05-0.03-0.09-0.05-0.13c-0.02-0.04-0.05-0.09-0.11-0.16
				c-0.05,0.01-0.1,0.01-0.16,0.02c-0.06,0-0.11,0.01-0.17,0.02c-0.09,0.28-0.2,0.41-0.34,0.39c-0.14-0.02-0.26-0.2-0.37-0.53
				c-0.07-0.22-0.13-0.39-0.17-0.52c-0.04-0.13-0.08-0.23-0.11-0.31c-0.03-0.08-0.05-0.13-0.08-0.17c-0.02-0.04-0.05-0.07-0.08-0.1
				c-0.08-0.08-0.13-0.16-0.15-0.23s0-0.13,0.05-0.17c0.06-0.04,0.15-0.06,0.28-0.06s0.3,0.03,0.53,0.08
				c0.22-0.02,0.44-0.05,0.66-0.08c0.22-0.03,0.41-0.07,0.59-0.1c0.18-0.04,0.34-0.07,0.47-0.11c0.13-0.04,0.23-0.08,0.28-0.12
				c0.09-0.06,0.16-0.1,0.23-0.13c0.06-0.03,0.13-0.04,0.19-0.04c0.06,0,0.13,0.02,0.2,0.06c0.07,0.04,0.16,0.08,0.28,0.14
				c0.18,0.1,0.32,0.19,0.41,0.26c0.09,0.07,0.14,0.13,0.16,0.18c0.02,0.05,0.01,0.1-0.02,0.14C31.97,12.68,31.92,12.73,31.84,12.77
				z M30.64,12.83c0.02-0.06,0.01-0.11-0.02-0.13c-0.03-0.02-0.1-0.02-0.22-0.01c-0.12,0.02-0.23,0.03-0.34,0.04
				c-0.11,0.01-0.22,0.03-0.34,0.04c-0.12,0.02-0.24,0.03-0.38,0.05c-0.14,0.02-0.3,0.04-0.48,0.06c0.02,0.11,0.05,0.22,0.07,0.34
				c0.02,0.11,0.04,0.23,0.07,0.36c0.34-0.06,0.63-0.11,0.87-0.16c0.24-0.05,0.41-0.09,0.51-0.11c0.08-0.02,0.13-0.07,0.16-0.13
				C30.57,13.13,30.6,13.01,30.64,12.83z M31.02,8.71c0.02-0.13,0-0.22-0.05-0.28c-0.05-0.06-0.13-0.08-0.23-0.06
				c-0.33,0.06-0.63,0.12-0.91,0.16c-0.28,0.04-0.58,0.08-0.91,0.12c0.04,0.14,0.08,0.27,0.11,0.41c0.26-0.07,0.46-0.12,0.62-0.16
				c0.16-0.03,0.29-0.05,0.38-0.07c0.1-0.01,0.17-0.01,0.22-0.01c0.05,0.01,0.1,0.02,0.14,0.05c0.18,0.1,0.28,0.19,0.3,0.28
				c0.02,0.09-0.11,0.17-0.37,0.22c-0.27,0.06-0.49,0.11-0.67,0.13s-0.35,0.03-0.53,0.02c0.02,0.09,0.03,0.18,0.05,0.27
				c0.02,0.09,0.04,0.19,0.05,0.28c0.26-0.04,0.48-0.07,0.64-0.1c0.16-0.02,0.28-0.04,0.37-0.05c0.09-0.01,0.15-0.01,0.19-0.01
				s0.07,0,0.08,0.01c0.05,0.02,0.09,0.02,0.13,0c0.04-0.02,0.07-0.08,0.11-0.19c0.07-0.22,0.13-0.42,0.17-0.58S31,8.84,31.02,8.71z
				 M36.15,13.72c-0.14,0.09-0.28,0.2-0.42,0.34c-0.14,0.14-0.26,0.26-0.35,0.37c-0.28,0.38-0.56,0.74-0.85,1.07
				c-0.29,0.33-0.6,0.63-0.92,0.89c-0.33,0.27-0.69,0.5-1.07,0.71c-0.39,0.2-0.83,0.38-1.31,0.52c-0.51,0.15-0.79,0.2-0.84,0.14
				c-0.05-0.06,0.16-0.23,0.62-0.52c0.43-0.26,0.8-0.52,1.12-0.77s0.59-0.5,0.84-0.75s0.48-0.52,0.69-0.79
				c0.21-0.28,0.43-0.57,0.64-0.89c0.21-0.3,0.35-0.55,0.44-0.73c0.08-0.18,0.12-0.35,0.1-0.51c-0.02-0.28,0.03-0.43,0.14-0.45
				c0.11-0.02,0.35,0.11,0.73,0.39c0.34,0.26,0.54,0.47,0.58,0.63C36.31,13.52,36.27,13.64,36.15,13.72z M32.37,15.1
				c-0.03,0.27-0.12,0.43-0.26,0.47s-0.33-0.05-0.56-0.28c-0.14-0.14-0.24-0.25-0.32-0.35c-0.08-0.1-0.17-0.22-0.26-0.37
				c-0.14-0.2-0.19-0.33-0.17-0.39c0.02-0.06,0.18-0.07,0.46-0.03c0.46,0.07,0.76,0.19,0.92,0.35S32.4,14.86,32.37,15.1z
				 M35.72,11.31c-0.12,0.06-0.23,0.13-0.34,0.22c-0.11,0.09-0.25,0.23-0.44,0.43c-0.22,0.22-0.4,0.41-0.55,0.56
				c-0.15,0.15-0.3,0.28-0.44,0.39s-0.3,0.2-0.46,0.29s-0.35,0.17-0.58,0.27c-0.45,0.18-0.71,0.25-0.79,0.21
				c-0.08-0.04,0.06-0.22,0.43-0.53c0.14-0.12,0.28-0.24,0.4-0.36c0.12-0.12,0.25-0.25,0.37-0.38c0.12-0.14,0.25-0.28,0.38-0.44
				c0.13-0.16,0.27-0.34,0.42-0.53c0.16-0.21,0.28-0.4,0.36-0.58c0.08-0.18,0.11-0.3,0.1-0.36c-0.03-0.14-0.04-0.25-0.02-0.34
				c0.02-0.09,0.07-0.14,0.14-0.16c0.07-0.02,0.17,0,0.29,0.07c0.12,0.06,0.27,0.18,0.46,0.34c0.16,0.14,0.28,0.27,0.35,0.37
				c0.08,0.1,0.12,0.19,0.13,0.26c0.01,0.07,0,0.12-0.04,0.17C35.85,11.24,35.79,11.28,35.72,11.31z M35.8,8.69
				c-0.11,0.06-0.23,0.15-0.37,0.27S35.16,9.24,35,9.43c-0.18,0.22-0.34,0.39-0.47,0.53c-0.13,0.14-0.26,0.25-0.39,0.35
				s-0.27,0.18-0.41,0.26c-0.15,0.08-0.33,0.17-0.55,0.26c-0.34,0.15-0.52,0.19-0.55,0.1s0.1-0.26,0.39-0.52
				c0.13-0.12,0.25-0.24,0.35-0.35c0.11-0.11,0.21-0.23,0.31-0.36c0.1-0.13,0.19-0.27,0.28-0.41c0.09-0.15,0.19-0.31,0.31-0.5
				c0.11-0.18,0.19-0.34,0.23-0.46c0.04-0.12,0.05-0.25,0.02-0.39c-0.02-0.14-0.03-0.26-0.01-0.36c0.02-0.1,0.07-0.16,0.14-0.18
				c0.07-0.02,0.18-0.01,0.32,0.05c0.14,0.06,0.32,0.17,0.53,0.34c0.18,0.14,0.31,0.25,0.4,0.34c0.09,0.09,0.14,0.17,0.16,0.24
				c0.02,0.07,0,0.13-0.04,0.17C35.97,8.6,35.9,8.65,35.8,8.69z"/>
		</g>
		<g>
			<path fill="#FFFFFF" d="M41.59,8.6c-0.13,0.14-0.25,0.27-0.35,0.41C41.13,9.15,41.05,9.27,41,9.35c-0.1,0.2-0.2,0.39-0.3,0.56
				c-0.1,0.17-0.19,0.33-0.29,0.49c0.22,0.18,0.35,0.37,0.41,0.55c0.06,0.18,0.05,0.43-0.01,0.74c-0.05,0.24-0.08,0.62-0.1,1.15
				c-0.02,0.52-0.02,1.18-0.01,1.97c0,0.22,0,0.41,0,0.56c0,0.15-0.01,0.27-0.02,0.38c-0.01,0.1-0.03,0.2-0.05,0.29
				c-0.02,0.09-0.05,0.18-0.08,0.29c-0.09,0.28-0.22,0.44-0.4,0.47c-0.18,0.03-0.38-0.11-0.6-0.42c-0.16-0.22-0.24-0.44-0.25-0.66
				s0.07-0.49,0.23-0.83c0.07-0.16,0.13-0.41,0.16-0.76s0.06-0.81,0.08-1.39c0.02-0.28,0.03-0.54,0.03-0.78c0-0.24,0-0.46-0.02-0.67
				c-0.21,0.24-0.43,0.46-0.67,0.65c-0.24,0.2-0.51,0.39-0.81,0.58c-0.18,0.11-0.32,0.18-0.41,0.21c-0.09,0.03-0.15,0.02-0.16-0.01
				c-0.02-0.04,0-0.1,0.05-0.19c0.05-0.09,0.12-0.2,0.23-0.32c0.22-0.26,0.41-0.5,0.56-0.71c0.15-0.21,0.28-0.4,0.39-0.59
				c0.11-0.18,0.21-0.37,0.31-0.55c0.09-0.18,0.19-0.38,0.29-0.59c0.24-0.5,0.4-0.91,0.49-1.24s0.09-0.58,0.03-0.76
				c-0.1-0.27-0.05-0.43,0.13-0.47s0.5,0.08,0.96,0.36c0.16,0.1,0.29,0.19,0.38,0.27c0.09,0.08,0.15,0.15,0.19,0.22
				c0.03,0.07,0.03,0.14,0.01,0.21C41.72,8.43,41.67,8.51,41.59,8.6z M48.86,15.35c-0.4,0.15-0.72,0.26-0.95,0.34
				c-0.23,0.07-0.43,0.1-0.6,0.09c-0.17-0.01-0.32-0.07-0.47-0.16s-0.32-0.24-0.54-0.42c-0.21-0.18-0.42-0.37-0.65-0.55
				c-0.22-0.18-0.46-0.38-0.71-0.59c0.08,0.24,0.14,0.48,0.17,0.73c0.03,0.24,0.05,0.48,0.05,0.71c0,0.22-0.01,0.42-0.02,0.58
				c-0.02,0.16-0.04,0.3-0.08,0.43s-0.09,0.24-0.16,0.34c-0.07,0.1-0.15,0.21-0.25,0.31c-0.24,0.26-0.45,0.39-0.64,0.4
				c-0.19,0.01-0.32-0.08-0.39-0.27c-0.06-0.16-0.17-0.32-0.31-0.47c-0.14-0.15-0.28-0.28-0.42-0.37c-0.14-0.1-0.25-0.2-0.32-0.28
				c-0.07-0.08-0.1-0.15-0.08-0.2s0.07-0.08,0.17-0.09c0.1-0.01,0.25,0.01,0.45,0.06c0.32,0.09,0.53,0.11,0.63,0.07
				c0.1-0.04,0.17-0.14,0.21-0.3c0.06-0.25,0.1-0.49,0.1-0.71c0-0.23-0.03-0.49-0.08-0.79c-0.14,0.22-0.29,0.41-0.45,0.59
				c-0.16,0.18-0.35,0.34-0.56,0.49c-0.21,0.14-0.44,0.28-0.7,0.4c-0.26,0.12-0.55,0.23-0.87,0.34c-0.4,0.13-0.62,0.14-0.65,0.05
				c-0.03-0.1,0.1-0.24,0.4-0.42c0.26-0.17,0.51-0.33,0.73-0.49s0.43-0.33,0.63-0.52c0.2-0.19,0.38-0.4,0.56-0.62
				c0.18-0.23,0.35-0.49,0.52-0.8c-0.02-0.02-0.03-0.03-0.04-0.05c-0.01-0.02-0.03-0.04-0.04-0.05c-0.19,0.22-0.37,0.4-0.52,0.54
				c-0.16,0.14-0.31,0.27-0.46,0.37c-0.15,0.1-0.31,0.19-0.49,0.27c-0.17,0.08-0.37,0.15-0.58,0.23c-0.38,0.14-0.59,0.16-0.62,0.07
				c-0.03-0.09,0.09-0.22,0.35-0.4c0.2-0.14,0.38-0.26,0.55-0.38s0.31-0.24,0.45-0.37c0.14-0.13,0.27-0.26,0.39-0.41
				s0.25-0.31,0.38-0.5l-0.05-0.04c-0.14,0.1-0.31,0.18-0.49,0.26c-0.18,0.08-0.35,0.14-0.51,0.18c-0.46,0.11-0.71,0.13-0.76,0.05
				c-0.05-0.08,0.12-0.22,0.52-0.43c0.23-0.13,0.46-0.27,0.69-0.44s0.42-0.33,0.58-0.51l-0.1,0.01c-0.07,0.09-0.15,0.15-0.23,0.18
				c-0.08,0.03-0.17,0.03-0.25,0c-0.08-0.03-0.15-0.1-0.22-0.2c-0.07-0.1-0.12-0.24-0.15-0.41c-0.03-0.16-0.09-0.33-0.17-0.5
				c-0.08-0.18-0.16-0.31-0.23-0.4c-0.25-0.29-0.35-0.47-0.29-0.53c0.05-0.07,0.27-0.08,0.65-0.03c0.07,0.02,0.14,0.02,0.2,0.02
				s0.12,0,0.19,0.01c0.34-0.04,0.64-0.08,0.9-0.11c0.26-0.03,0.5-0.06,0.71-0.1c0.18-0.21,0.32-0.38,0.44-0.53s0.26-0.32,0.43-0.53
				c-0.12,0.04-0.23,0.07-0.32,0.09c-0.1,0.02-0.19,0.03-0.29,0.04c-0.1,0-0.2,0-0.3,0c-0.1,0-0.22-0.02-0.36-0.04
				c-0.14,0.15-0.29,0.29-0.47,0.41c-0.18,0.12-0.42,0.25-0.73,0.4c-0.37,0.17-0.55,0.22-0.56,0.16c0-0.06,0.11-0.22,0.35-0.47
				c0.34-0.36,0.59-0.69,0.76-0.99c0.17-0.3,0.25-0.54,0.23-0.73c-0.02-0.14-0.02-0.26-0.01-0.34c0.01-0.08,0.04-0.13,0.1-0.16
				s0.13-0.02,0.23,0.01c0.1,0.03,0.24,0.09,0.41,0.17c0.41,0.19,0.63,0.35,0.67,0.47s-0.05,0.24-0.26,0.36
				c-0.06,0.03-0.12,0.07-0.18,0.11c-0.06,0.04-0.12,0.1-0.18,0.16c0.26-0.06,0.47-0.12,0.63-0.19c0.16-0.07,0.31-0.15,0.44-0.25
				c0.14-0.1,0.26-0.15,0.38-0.14s0.31,0.08,0.58,0.23C46.31,8,46.5,8.16,46.5,8.28c0,0.12-0.13,0.22-0.38,0.31
				c-0.12,0.04-0.28,0.12-0.49,0.23c-0.2,0.12-0.5,0.31-0.89,0.57c0.22-0.05,0.4-0.09,0.55-0.14c0.15-0.04,0.3-0.09,0.43-0.15
				c0.13-0.05,0.23-0.08,0.31-0.11s0.16-0.03,0.23-0.02C46.34,8.98,46.42,9,46.5,9.04c0.08,0.04,0.19,0.09,0.33,0.17
				c0.19,0.11,0.33,0.21,0.43,0.29s0.15,0.16,0.16,0.23c0.02,0.07,0,0.14-0.06,0.2s-0.14,0.12-0.25,0.18
				c-0.05,0.02-0.09,0.05-0.14,0.09c-0.04,0.04-0.09,0.09-0.14,0.15c-0.05,0.06-0.11,0.15-0.19,0.25c-0.07,0.1-0.16,0.23-0.26,0.38
				c-0.26,0.37-0.48,0.57-0.67,0.61c-0.19,0.04-0.35-0.03-0.47-0.22c-0.02-0.04-0.12-0.05-0.3-0.02c-0.22,0.02-0.5,0.06-0.86,0.11
				c-0.19,0.23-0.42,0.45-0.67,0.66c0.16,0.08,0.29,0.15,0.4,0.22s0.19,0.13,0.27,0.2c0.08,0.07,0.14,0.14,0.2,0.22
				c0.06,0.08,0.12,0.17,0.19,0.28c0.04,0.02,0.08,0.05,0.13,0.08c0.34-0.27,0.57-0.49,0.71-0.66c0.14-0.17,0.21-0.3,0.22-0.4
				c0.02-0.23,0.1-0.37,0.24-0.42c0.14-0.05,0.36,0.01,0.65,0.18c0.42,0.24,0.65,0.42,0.67,0.55s-0.11,0.23-0.41,0.31
				c-0.14,0.04-0.33,0.11-0.58,0.22s-0.59,0.26-1.02,0.48c0.34,0.19,0.65,0.36,0.93,0.5c0.28,0.14,0.55,0.26,0.83,0.37
				c0.28,0.1,0.57,0.2,0.88,0.28s0.68,0.16,1.1,0.24c0.38,0.07,0.58,0.15,0.58,0.25C49.4,15.1,49.22,15.22,48.86,15.35z
				 M43.77,10.05c-0.37,0.06-0.73,0.11-1.09,0.16c0.06,0.13,0.1,0.27,0.13,0.43c0.03,0.16,0.06,0.33,0.08,0.51
				c0.16-0.04,0.32-0.07,0.49-0.08C43.6,10.78,43.72,10.44,43.77,10.05z M45.67,10.04c0.02-0.09,0.02-0.14,0.01-0.17
				c-0.01-0.02-0.06-0.03-0.15-0.02c-0.06,0-0.12,0-0.18,0.01c-0.06,0-0.11,0.01-0.17,0.02c-0.06,0.01-0.13,0.02-0.21,0.02
				c-0.08,0.01-0.18,0.02-0.29,0.02c0.18,0.11,0.27,0.21,0.28,0.29c0.01,0.08-0.03,0.17-0.14,0.27c-0.06,0.05-0.11,0.1-0.16,0.17
				c-0.05,0.06-0.1,0.14-0.16,0.22c0.13-0.02,0.23-0.04,0.31-0.05c0.08-0.01,0.14-0.01,0.19-0.02c0.05,0,0.09-0.01,0.11-0.01
				s0.06,0,0.09,0.01c0.1,0.02,0.17,0.02,0.19,0.01c0.02-0.01,0.05-0.05,0.08-0.13c0.04-0.11,0.08-0.22,0.11-0.32
				C45.62,10.27,45.64,10.16,45.67,10.04z"/>
		</g>
	</g>
</g>
</svg>
