<?xml version="1.0" encoding="utf-8" ?>
<!-- Generator: Adobe Illustrator 25.2.0, SVG Export Plug-In . SVG Version: 6.00 Build 0)  -->
<svg
  version="1.1"
  id="Layer_1"
  xmlns="http://www.w3.org/2000/svg"
  xmlns:xlink="http://www.w3.org/1999/xlink"
  x="0px"
  y="0px"
  viewBox="0 0 12 12"
  style="enable-background:new 0 0 12 12;"
  xml:space="preserve"
>
<style type="text/css">
	.st01{fill:#CC2029;}
	.st1{fill:#000;}
	.st2{fill:#03A14A;}
</style>
<g>
	<circle class="st01" cx="6" cy="6.2" r="5.6" />
	<g>
		<path
        class="st1"
        d="M6,0.8C5.1,0.8,4.3,1,3.6,1.3l5.1,9.6c1.6-0.9,2.7-2.7,2.7-4.7C11.4,3.2,9,0.8,6,0.8z"
      />
		<path
        class="st01"
        d="M3.6,1.3c-1.8,0.9-3,2.7-3,4.9c0,3,2.4,5.4,5.4,5.4c1,0,1.9-0.3,2.7-0.7L3.6,1.3z"
      />
	</g>
	<g>
		<g>
			<path
          class="st2"
          d="M3.4,6.7c0.1,0.6,0.4,1.1,0.9,1.5c0.5,0.4,1.1,0.6,1.9,0.6c0.5,0,0.9-0.1,1.4-0.2C8,8.4,8.3,8.2,8.6,8
				l1.1,1.1c-0.4,0.5-1,0.8-1.6,1.1c-0.7,0.3-1.3,0.4-2,0.4c-1.4,0-2.5-0.4-3.3-1.2C2,8.5,1.6,7.4,1.6,6c0-1.3,0.4-2.3,1.2-3.2
				S4.7,1.7,6,1.7c1.4,0,2.5,0.4,3.3,1.3c0.8,0.9,1.1,2.1,0.9,3.8H3.4z M8.5,5.3c0-0.6-0.3-1.1-0.7-1.5C7.3,3.4,6.7,3.2,6,3.2
				c-0.7,0-1.2,0.2-1.7,0.5C3.9,4.1,3.6,4.6,3.4,5.3H8.5z"
        />
		</g>
	</g>
</g>
</svg>
