<?xml version="1.0" encoding="utf-8"?>
<!-- Generator: Adobe Illustrator 25.4.1, SVG Export Plug-In . SVG Version: 6.00 Build 0)  -->
<svg version="1.1" id="图层_1" xmlns="http://www.w3.org/2000/svg" xmlns:xlink="http://www.w3.org/1999/xlink" x="0px" y="0px"
	 viewBox="0 0 12 12" enable-background="new 0 0 12 12" xml:space="preserve">
<g>
	<path fill="#FFFFFF" d="M6.78,11.32h0.06c0,0,0-0.01,0-0.01H6.78C6.78,11.31,6.78,11.32,6.78,11.32z"/>
	<path fill="#FFFFFF" d="M7.18,11.24H7.11C7.1,11.27,7,11.29,6.96,11.31H6.85c0.01,0.01,0.02,0.02,0.03,0.02H6.81c0,0,0,0.01,0,0.01
		H6.76c0,0,0,0.01,0,0.01H6.71c-0.01,0.01-0.03,0.02-0.04,0.02H6.57c0,0,0,0.01,0,0.01H6.52c0,0,0,0.01,0,0.01H6.45
		c0,0,0,0.01,0,0.01H5.29c0,0,0-0.01,0-0.01h-0.1c-0.01-0.01-0.03-0.02-0.04-0.02H5.1c0,0,0-0.01,0-0.01H5.05c0,0,0-0.01,0-0.01
		H4.99c0,0,0-0.01,0-0.01H4.92c0,0,0-0.01,0-0.01H4.88c0,0,0-0.01,0-0.01H4.79c0,0,0-0.01,0-0.01H4.77c0,0,0-0.01,0-0.01H4.7
		c-0.06-0.06-0.19-0.06-0.27-0.09c-0.09-0.04-0.18-0.07-0.27-0.11c-0.09-0.03-0.18-0.07-0.26-0.11c-0.09-0.04-0.18-0.09-0.26-0.14
		c-0.16-0.09-0.33-0.19-0.47-0.3c-0.04-0.03-0.08-0.06-0.12-0.09c-0.04-0.03-0.06-0.05-0.1-0.08c-0.04-0.03-0.08-0.07-0.12-0.11
		c0-0.01,0-0.02-0.01-0.02c0,0-0.01,0-0.01,0c-0.01-0.01-0.02-0.02-0.03-0.03c-0.02-0.01-0.04-0.02-0.06-0.04
		c-0.07-0.06-0.14-0.13-0.21-0.2C2.47,9.94,2.44,9.91,2.4,9.87C2.39,9.85,2.37,9.84,2.36,9.82C2.35,9.81,2.34,9.8,2.33,9.79
		c0,0-0.02-0.02-0.02-0.02C2.24,9.69,2.18,9.63,2.12,9.55c-0.03-0.04-0.07-0.09-0.1-0.13c0,0-0.02-0.03-0.02-0.04
		c0-0.01,0-0.02,0-0.03C1.99,9.35,1.98,9.35,1.98,9.34C1.97,9.33,1.96,9.32,1.95,9.31C1.91,9.27,1.89,9.23,1.87,9.19
		C1.84,9.15,1.81,9.11,1.79,9.07C1.76,9.03,1.75,8.98,1.72,8.94C1.69,8.9,1.67,8.86,1.65,8.81c0-0.01-0.01-0.03-0.01-0.04
		C1.63,8.76,1.62,8.77,1.61,8.75C1.59,8.73,1.6,8.72,1.59,8.69c0-0.02-0.02-0.04-0.03-0.05C1.54,8.63,1.54,8.61,1.52,8.59
		C1.51,8.57,1.5,8.54,1.49,8.52C1.49,8.51,1.47,8.5,1.47,8.48c0-0.01,0-0.02,0-0.02C1.46,8.41,1.42,8.39,1.4,8.34
		c0-0.01-0.01-0.02-0.01-0.04c0,0-0.01-0.03-0.01-0.04C1.38,8.26,1.37,8.26,1.37,8.25c0,0-0.01-0.03-0.01-0.04
		C1.35,8.19,1.33,8.18,1.33,8.16C1.32,8.14,1.31,8.12,1.3,8.1c-0.04-0.08-0.07-0.17-0.1-0.26C1.19,7.8,1.18,7.76,1.16,7.71
		c-0.01-0.02,0-0.04-0.01-0.06c0-0.01,0-0.02-0.01-0.03c0-0.01-0.01-0.02-0.02-0.03C1.12,7.57,1.12,7.55,1.12,7.53
		c0-0.01,0-0.02,0-0.04c0-0.01-0.01-0.02-0.01-0.02C1.1,7.45,1.1,7.42,1.1,7.4c0-0.03-0.01-0.03,0.03-0.05h0.1c0,0,0-0.01,0-0.01
		H1.3c0,0,0,0.01,0,0.01h0.17c0.02,0.02,0.04,0.04,0.06,0.06c0,0,0.01,0.01,0.01,0.01c0,0-0.01,0.01-0.01,0.01
		c0.01,0.01,0.02,0.01,0.03,0.02c0,0.01,0,0.02,0.01,0.03c0.01,0.01,0.02,0.02,0.03,0.03c0,0,0.01,0.04,0.01,0.04
		c0,0.01,0.01,0.02,0.01,0.03c0,0.01,0,0.02,0,0.03c0,0.01,0.01,0.02,0.02,0.03c0.01,0.02,0.01,0.04,0.02,0.06
		c0.01,0.04,0.03,0.08,0.04,0.12c0.03,0.08,0.07,0.16,0.1,0.25C1.8,8.1,1.8,8.11,1.81,8.12c0,0,0.02,0.04,0.02,0.04
		c0,0.01,0,0.02,0,0.03C1.84,8.2,1.86,8.21,1.87,8.23c0.01,0.02,0.02,0.03,0.02,0.06h0.02c0,0,0,0.01,0,0.01h0.02c0,0,0,0.01,0,0.01
		h2.49c0,0,0,0.01,0,0.01h0.09C4.56,8.35,4.6,8.4,4.64,8.45c0.01,0.02,0.02,0.04,0.02,0.06c0,0.01,0,0.02,0,0.03
		c0,0.01-0.01,0.03-0.01,0.04C4.64,8.63,4.64,8.67,4.62,8.71C4.61,8.74,4.59,8.74,4.57,8.76C4.56,8.78,4.54,8.8,4.52,8.82H4.37
		c0,0,0,0.01,0,0.01H4.31c0,0,0-0.01,0-0.01h-0.2c0,0,0,0.01,0,0.01H3.59c0,0,0-0.01,0-0.01s0-0.01,0-0.01H3.42c0,0,0,0.01,0,0.01
		H3.24c0,0,0,0.01,0,0.01H2.98c0,0,0-0.01,0-0.01H2.54c0,0,0,0.01,0,0.01H2.26c0,0,0,0.01,0,0.01H2.25c0,0,0,0.01,0,0.01H2.24
		c0.01,0.02,0,0.03,0.01,0.04c0.01,0.02,0.02,0.03,0.03,0.05C2.3,8.97,2.32,9,2.34,9.03C2.36,9.07,2.38,9.09,2.4,9.13
		c0.02,0.03,0.05,0.06,0.07,0.09c0.02,0.02,0.03,0.06,0.05,0.08c0.02,0.02,0.05,0.05,0.07,0.07c0.03,0.03,0.05,0.06,0.08,0.08
		C2.69,9.46,2.73,9.5,2.72,9.53h0.01c0,0,0.01,0,0.01-0.01c0,0.03,0.06,0.07,0.08,0.09C2.85,9.65,2.88,9.69,2.9,9.71
		c0.01,0.01,0.02,0.01,0.03,0.02c0,0,0.01,0.02,0.01,0.02c0,0,0.01,0.01,0.01,0.01c0,0.01,0.02,0.01,0.02,0.01
		c0.01,0.01,0,0.01,0.01,0.02C2.99,9.81,3,9.81,3.01,9.82c0.01,0.01,0.03,0.02,0.01,0.04h0.01c0,0,0.01-0.01,0.02-0.01
		c0,0.03,0.05,0.05,0.07,0.07c0.03,0.02,0.06,0.05,0.09,0.07c0.06,0.05,0.12,0.09,0.18,0.13c0.06,0.04,0.11,0.09,0.17,0.13
		c0.03,0.02,0.06,0.03,0.08,0.04c0.02,0.02,0.05,0.03,0.08,0.04c0.11,0.06,0.21,0.11,0.32,0.16c0.1,0.04,0.2,0.11,0.31,0.14
		c0.11,0.03,0.22,0.07,0.32,0.12H4.7c0,0,0,0.01,0,0.01h0.07c0.04,0.02,0.09,0.03,0.13,0.05h0.03c0,0,0,0.01,0,0.01h0.12
		c0.01,0.01,0.03,0.02,0.04,0.02h0.04c0,0,0,0.01,0,0.01h0.08c0,0,0,0.01,0,0.01h0.06c0,0,0,0.01,0,0.01h0.07c0,0,0,0.01,0,0.01H5.4
		c0,0,0,0.01,0,0.01h0.96c0,0,0-0.01,0-0.01h0.07c0,0,0-0.01,0-0.01h0.07c0,0,0-0.01,0-0.01h0.07c0,0,0-0.01,0-0.01h0.2
		c0,0,0-0.01,0-0.01s0-0.01,0-0.01h0.01c0.01-0.01,0.03-0.02,0.04-0.02h0.06c0.01-0.01,0.01-0.02,0.02-0.02H6.83
		c-0.01,0.01-0.02,0.02-0.03,0.02H6.72c-0.01,0.01-0.03,0.02-0.04,0.02H6.61c0,0,0,0.01,0,0.01H6.54c0,0,0,0.01,0,0.01H6.48
		c0,0,0,0.01,0,0.01H6.41c0,0,0,0.01,0,0.01H6.34c0,0,0,0.01,0,0.01H5.41c0,0,0-0.01,0-0.01H5.35c0,0,0-0.01,0-0.01H5.29
		c0,0,0-0.01,0-0.01H5.23c0,0,0-0.01,0-0.01H5.16c-0.01-0.01-0.03-0.02-0.04-0.02H5.07c0,0,0-0.01,0-0.01H4.95
		c-0.04-0.02-0.08-0.03-0.12-0.05H4.78c0,0,0-0.01,0-0.01H4.72c-0.11-0.06-0.25-0.09-0.37-0.13c-0.11-0.04-0.21-0.1-0.31-0.14
		c-0.12-0.05-0.22-0.12-0.33-0.18c-0.12-0.06-0.21-0.15-0.32-0.22c-0.05-0.03-0.11-0.08-0.16-0.12C3.21,9.96,3.2,9.94,3.19,9.93
		C3.17,9.92,3.16,9.92,3.14,9.9C3.12,9.89,3.09,9.87,3.07,9.85H3.06c0,0,0,0,0,0c0.01-0.01,0,0-0.01-0.01C3.04,9.82,3.02,9.81,3,9.8
		C2.98,9.77,2.96,9.74,2.93,9.71C2.87,9.65,2.79,9.59,2.76,9.52h0c0-0.01-0.01-0.01-0.02-0.02C2.73,9.49,2.72,9.47,2.71,9.47
		C2.68,9.44,2.66,9.41,2.64,9.38c-0.05-0.06-0.09-0.1-0.14-0.16C2.47,9.19,2.45,9.15,2.43,9.13C2.4,9.09,2.37,9.07,2.35,9.03
		C2.33,9,2.27,8.89,2.31,8.85h0.06c0,0,0-0.01,0-0.01h0.35c0,0,0-0.01,0-0.01h0.11c0,0,0,0.01,0,0.01h1.3c0,0,0-0.01,0-0.01H4.3
		c0,0,0,0.01,0,0.01h0.09c0,0,0-0.01,0-0.01h0.17c0,0,0-0.01,0-0.01h0.01C4.58,8.79,4.6,8.78,4.62,8.75
		c0.02-0.02,0.01-0.03,0.02-0.06c0.01-0.04,0.03-0.08,0.03-0.12c0-0.02,0-0.04,0-0.06c0-0.03,0-0.03-0.02-0.06
		c-0.03-0.04-0.08-0.08-0.1-0.12H4.52c0,0,0-0.01,0-0.01H4.43c0,0,0-0.01,0-0.01H2.01c0,0,0-0.01,0-0.01H1.93
		C1.92,8.27,1.91,8.25,1.9,8.23C1.89,8.21,1.87,8.19,1.85,8.17C1.83,8.14,1.82,8.09,1.8,8.06C1.76,7.98,1.73,7.9,1.71,7.82
		C1.68,7.74,1.65,7.66,1.62,7.58C1.62,7.56,1.61,7.54,1.6,7.52C1.59,7.51,1.58,7.49,1.57,7.47C1.55,7.43,1.52,7.4,1.5,7.36H1.48
		c0,0,0-0.01,0-0.01s0-0.01,0-0.01H1.22c0,0,0,0.01,0,0.01H1.11c0,0,0,0.01,0,0.01H1.08c0,0.03,0.01,0.05,0.01,0.07
		c0,0.01,0,0.03,0,0.04c0,0.01,0.01,0.02,0.01,0.02c0,0.02,0,0.05,0,0.07c0.01,0.01,0.01,0.01,0.01,0.02c0,0.01,0,0.02,0,0.02
		c0,0.01,0.01,0.02,0.01,0.02c0,0.02,0,0.05,0.01,0.07c0.01,0.01,0.02,0.03,0.02,0.04c0,0.01,0,0.02,0,0.03
		c0,0.01,0.02,0.03,0.02,0.04c0,0.01,0,0.02,0,0.03c0.01,0.02,0.03,0.05,0.03,0.07c0.03,0.1,0.07,0.19,0.11,0.28
		c0.04,0.09,0.07,0.19,0.12,0.27c0.05,0.08,0.08,0.17,0.13,0.25C1.6,8.76,1.62,8.8,1.65,8.85C1.66,8.87,1.67,8.88,1.68,8.9
		c0.01,0.01,0,0.01,0.01,0.02c0,0,0.02,0.02,0.02,0.02c0.02,0.04,0.04,0.09,0.07,0.13C1.8,9.12,1.83,9.16,1.85,9.2
		C1.88,9.24,1.9,9.28,1.93,9.32c0.01,0.02,0.02,0.03,0.03,0.05C1.98,9.39,2,9.4,2.01,9.42C2.07,9.5,2.13,9.59,2.2,9.67
		c0.07,0.08,0.12,0.14,0.19,0.21c0.03,0.04,0.06,0.07,0.1,0.11c0.03,0.04,0.08,0.07,0.11,0.11c0.06,0.07,0.14,0.13,0.21,0.19
		c0.08,0.06,0.14,0.13,0.22,0.19c0.08,0.06,0.16,0.11,0.24,0.17c0.15,0.1,0.31,0.2,0.47,0.29c0.08,0.04,0.16,0.07,0.23,0.11
		c0.07,0.04,0.15,0.06,0.23,0.08c0.08,0.03,0.16,0.06,0.24,0.09c0.08,0.03,0.16,0.04,0.24,0.08h0.02c0,0,0,0.01,0,0.01h0.07
		c0,0,0,0.01,0,0.01h0.02c0,0,0,0.01,0,0.01h0.09c0,0,0,0.01,0,0.01h0.04c0,0,0,0.01,0,0.01h0.07c0,0,0,0.01,0,0.01h0.06
		c0,0,0,0.01,0,0.01h0.06c0.01,0.01,0.03,0.02,0.04,0.02h0.04c0,0,0,0.01,0,0.01h0.09c0,0,0,0.01,0,0.01H6.5c0,0,0-0.01,0-0.01h0.03
		c0,0,0-0.01,0-0.01h0.06c0,0,0-0.01,0-0.01h0.09c0,0,0-0.01,0-0.01h0.06c0.01-0.01,0.03-0.02,0.04-0.02h0.04c0,0,0-0.01,0-0.01
		h0.08c0,0,0-0.01,0-0.01h0.04c0.01-0.01,0.02-0.02,0.03-0.02h0.06c0.04-0.04,0.12-0.05,0.17-0.07h0.03
		c0.01-0.01,0.02-0.02,0.03-0.02H7.21C7.2,11.22,7.19,11.23,7.18,11.24z"/>
	<path fill="#FFFFFF" d="M6.98,10.77h0.06c0,0,0-0.01,0-0.01h0.03c0,0,0-0.01,0-0.01h0.1c0,0,0-0.01,0-0.01s0-0.01,0-0.01H7.14
		c0,0,0,0.01,0,0.01H7.06c0,0,0,0.01,0,0.01H7.03c0,0,0,0.01,0,0.01H6.97c0,0,0,0.01,0,0.01H6.93c0,0,0,0.01,0,0.01H6.87
		c0.02,0.01,0.05,0.01,0.04,0.04h0.01c0.01-0.01,0.01-0.02,0.01-0.04h0.04C6.98,10.78,6.98,10.77,6.98,10.77z"/>
	<path fill="#FFFFFF" d="M5.9,9.76c-0.01,0.02,0,0.05-0.01,0.07C5.89,9.85,5.88,9.86,5.88,9.89c0,0.02,0,0.05,0,0.06
		c0.01,0.03,0.02,0.04,0.03,0.06c0.03,0.04,0.07,0.05,0.11,0.09h0.03c0,0,0,0.01,0,0.01h0.07c0,0,0,0.01,0,0.01h1.96
		c0,0,0,0.01,0,0.01h0.03c0.02,0.01,0.06,0.03,0.06,0.06c0,0.02-0.02,0.03-0.04,0.05c-0.05,0.03-0.09,0.06-0.13,0.09
		c-0.08,0.05-0.18,0.09-0.26,0.14c-0.16,0.1-0.35,0.14-0.52,0.23H7.18c-0.04,0.02,0,0.03,0.02,0.04h0.01
		c0.01-0.01,0.01-0.02,0.01-0.04h0.06c-0.01-0.04,0.2-0.09,0.24-0.11c0.08-0.03,0.18-0.08,0.25-0.13c0.08-0.05,0.18-0.08,0.26-0.13
		c0.04-0.03,0.08-0.06,0.12-0.08c0.03-0.02,0.03-0.03,0.04-0.06c0.01-0.02,0.04-0.03,0.03-0.05H8.14c0,0,0-0.01,0-0.01H8.09
		c0,0,0-0.01,0-0.01H6.13c0,0,0-0.01,0-0.01H6.07c-0.04-0.02-0.1-0.04-0.13-0.08C5.91,10,5.89,9.94,5.89,9.9
		c0-0.03,0.02-0.04,0.02-0.07c0.01-0.02,0-0.04,0.01-0.06C5.94,9.72,6,9.69,6.04,9.66H6C5.98,9.7,5.92,9.71,5.9,9.76z"/>
	<path fill="#FFFFFF" d="M6.79,9.65c0,0,0-0.01,0-0.01H6.76c0,0,0,0.01,0,0.01H6.79z"/>
	<path fill="#FFFFFF" d="M2.94,9.75C2.94,9.75,2.94,9.75,2.94,9.75C2.94,9.75,2.94,9.75,2.94,9.75z"/>
	<path fill="#FFFFFF" d="M1.17,7.07C1.19,7.14,1.22,7.2,1.28,7.25h0.08c0.01-0.02,0.02-0.03,0.03-0.04C1.4,7.19,1.41,7.18,1.41,7.16
		C1.43,7.13,1.44,7.1,1.45,7.07c0.02-0.06,0.03-0.12,0.03-0.18c0.01-0.01,0-0.03,0.01-0.04C1.5,6.83,1.51,6.83,1.52,6.82h0.07
		c0,0,0-0.01,0-0.01h0.06c0.06-0.03,0.13-0.04,0.19-0.08c0.06-0.04,0.06-0.12,0.02-0.18H1.84c0,0,0-0.01,0-0.01H1.82
		c0-0.01-0.01-0.02-0.01-0.02H1.78c0,0,0-0.01,0-0.01H1.73c0,0,0-0.01,0-0.01H1.68c0,0,0,0.01,0,0.01H1.6c0,0,0,0.01,0,0.01H1.55
		C1.53,6.52,1.52,6.53,1.5,6.54H1.49c0-0.05,0.01-0.05,0.05-0.06C1.57,6.47,1.6,6.46,1.63,6.45C1.67,6.43,1.78,6.41,1.8,6.36h0.01
		c0,0,0-0.01,0-0.01h0.01c0-0.03,0.01-0.05,0.01-0.07c0-0.03-0.02-0.04-0.04-0.07H1.78C1.76,6.2,1.75,6.19,1.73,6.17H1.62
		C1.6,6.19,1.57,6.2,1.55,6.21H1.54c0.01-0.03,0.05-0.05,0.08-0.06C1.64,6.12,1.67,6.1,1.69,6.08c0.02-0.02,0.05-0.05,0.04-0.08
		c0-0.03-0.05-0.06-0.07-0.09H1.65c0,0,0-0.01,0-0.01h0.19c0,0,0-0.01,0-0.01h0.06c0,0,0,0.01,0,0.01h0.17
		c0.02,0.03,0.02,0.03,0.02,0.07c0,0.02,0,0.05,0,0.07c0,0.05-0.01,0.08-0.01,0.13c0,0.05,0,0.1-0.01,0.14c0,0.02,0,0.05,0,0.07
		c0,0.03-0.01,0.04-0.01,0.07c0,0.09-0.02,0.19-0.03,0.28C2,6.78,1.99,6.82,1.99,6.87c0,0.01-0.01,0.03-0.01,0.04
		c0,0.01-0.01,0.03-0.01,0.04C1.95,6.96,1.92,6.97,1.9,6.98H1.77c0,0,0-0.01,0-0.01H1.68c0,0,0-0.01,0-0.01H1.64c0,0,0,0.01,0,0.01
		H1.61c0,0,0,0.01,0,0.01c0,0.1,0.07,0.18,0.13,0.25c0.04,0.04,0.08,0.08,0.12,0.12C1.89,7.37,1.9,7.38,1.93,7.4
		c0.02,0.01,0.04,0.02,0.06,0.04h0.04c0,0,0,0.01,0,0.01h0.04c0,0,0-0.01,0-0.01h0.06C2.21,7.38,2.27,7.3,2.32,7.22
		c0.03-0.07,0.08-0.15,0.08-0.23h0.01c0-0.1,0.04-0.18,0.06-0.27c0-0.03,0.01-0.05,0.01-0.07c0-0.02,0.01-0.05,0.01-0.06
		c0-0.01,0-0.02,0-0.04c0-0.01,0.01-0.02,0.01-0.03c0-0.01,0-0.02,0-0.04c0-0.01,0.01-0.03,0.01-0.04c0.01-0.05,0-0.09,0.01-0.14
		c0-0.01,0.01-0.02,0.01-0.04c0-0.01,0-0.02,0-0.03c0-0.01,0.01-0.02,0.01-0.04c0-0.01,0-0.02,0-0.04c0.01-0.09,0.03-0.17,0.03-0.27
		c0,0,0-0.01,0-0.01c0-0.02,0-0.03,0-0.05H2.56c0,0,0-0.01,0-0.01c0-0.03-0.02-0.05-0.04-0.08C2.5,5.73,2.46,5.71,2.45,5.68H2.44
		c0,0,0-0.01,0-0.01H2.42c0,0,0-0.01,0-0.01H2.39c0,0,0-0.01,0-0.01H2.38c0,0,0-0.01,0-0.01H2.36c0,0,0-0.01,0-0.01H2.33
		c0,0,0-0.01,0-0.01H2.29c0,0,0-0.01,0-0.01H2.26c0,0,0-0.01,0-0.01H2.2c0,0,0-0.01,0-0.01H2.01c0,0,0,0.01,0,0.01H1.8
		c0,0,0,0.01,0,0.01H1.68c0,0,0,0.01,0,0.01H1.59c0,0,0,0.01,0,0.01H1.5c0,0,0,0.01,0,0.01H1.41c0,0,0,0.01,0,0.01H1.35
		c0,0,0,0.01,0,0.01H1.28c0,0,0,0.01,0,0.01H1.22c0,0,0,0.01,0,0.01H1.19c0.01-0.02,0.02-0.04,0.03-0.06
		c0.01-0.02,0.02-0.04,0.03-0.05C1.28,5.54,1.3,5.5,1.3,5.46h0.06c0,0,0-0.01,0-0.01h0.08c0,0,0-0.01,0-0.01H1.5
		c0.1-0.04,0.21-0.06,0.31-0.11C1.88,5.3,1.93,5.27,1.94,5.2c0.01-0.07-0.03-0.1-0.06-0.16H1.88C1.86,5.02,1.83,5.01,1.81,4.99H1.77
		c0,0,0-0.01,0-0.01H1.62c0,0,0,0.01,0,0.01H1.57C1.54,5.01,1.5,5.02,1.47,5.04H1.46c0.01-0.01,0.01-0.05,0.02-0.06
		c0.01-0.02,0.03-0.05,0.03-0.07c0.01-0.03,0.02-0.04,0.02-0.07c0-0.02,0-0.04,0-0.06h2.5c0.03,0.03,0.01,0.1,0.01,0.13
		c0,0.02,0.01,0.04,0.01,0.07c0,0.02,0,0.05,0,0.07c0,0.09,0,0.18,0,0.27c0,0,0,0.01,0,0.01c0,0.02,0.01,0.05,0,0.07
		C4.05,5.43,4.02,5.43,3.99,5.44C3.95,5.46,3.91,5.47,3.86,5.49C3.82,5.5,3.76,5.5,3.73,5.53C3.66,5.57,3.71,5.61,3.71,5.66h0.01
		c0,0.01,0.01,0.02,0.01,0.02h0.01c0,0,0,0.01,0,0.01C3.77,5.73,3.8,5.76,3.84,5.78h0.04c0,0,0,0.01,0,0.01h0.1c0,0,0-0.01,0-0.01
		h0.07c0,0.05,0,0.1,0,0.15H4.03c0,0.02,0.01,0.07,0,0.08C4.02,6.03,3.98,6.04,3.96,6.05H3.85C3.79,6.07,3.75,6.09,3.74,6.15
		C3.72,6.19,3.73,6.24,3.73,6.29c0,0,0,0.01,0,0.01c0,0.04,0,0.08,0,0.12c0,0.02,0.01,0.04,0.01,0.06c0,0.02,0.01,0.03,0.01,0.05
		C3.75,6.6,3.78,6.67,3.81,6.72c0.02,0.03,0.03,0.07,0.07,0.09c0.03,0.02,0.06,0.04,0.09,0.06h0.07c0,0,0,0.01,0,0.01h0.03
		c0,0,0-0.01,0-0.01h0.04c0.1-0.05,0.21-0.07,0.32-0.1c0.05-0.02,0.11-0.03,0.15-0.07C4.63,6.66,4.62,6.6,4.62,6.54
		c0,0,0-0.01,0-0.01c0-0.02-0.01-0.03-0.01-0.06c0-0.02,0.02-0.04,0.02-0.06c0.01-0.03,0.04-0.08,0.03-0.12h0.01
		c0-0.02,0.01-0.05,0.01-0.06C4.69,6.21,4.69,6.2,4.69,6.17c0-0.05,0-0.08-0.02-0.12C4.64,5.98,4.55,5.96,4.5,5.93H4.36
		c0-0.05,0.01-0.1,0.01-0.15h0.01c0-0.03,0-0.05,0-0.08h0.06c0,0,0-0.01,0-0.01H4.5c0.01-0.01,0.03-0.02,0.04-0.02h0.06
		C4.65,5.61,4.7,5.59,4.69,5.5C4.68,5.43,4.64,5.38,4.58,5.33H4.53c0,0,0-0.01,0-0.01h-0.1c0-0.03,0.01-0.04,0.01-0.07
		c0-0.02,0-0.04,0-0.06c0-0.02,0.01-0.04,0.01-0.07c0-0.02,0-0.05,0-0.07c0-0.02,0.01-0.04,0.01-0.07c0-0.02,0-0.05,0-0.07
		c0.01-0.04,0.01-0.09,0.01-0.13h0.77c0,0,0-0.01,0-0.01h0.02C5.26,4.73,5.33,4.7,5.34,4.67C5.36,4.63,5.38,4.6,5.36,4.55
		C5.36,4.52,5.34,4.51,5.33,4.49c-0.01-0.02,0-0.04-0.02-0.06C5.28,4.4,5.23,4.39,5.2,4.37H5.18c0,0,0-0.01,0-0.01H5.12
		c0,0,0-0.01,0-0.01H4.91c0,0,0-0.01,0-0.01H4.65c0,0,0,0.01,0,0.01H3.24c0,0,0-0.01,0-0.01H3.06c0,0,0,0.01,0,0.01H1.84
		c0,0,0,0.01,0,0.01H1.7c0-0.04-0.04-0.07-0.04-0.11c0-0.01,0.02-0.05,0.02-0.06c0.01-0.02,0.01-0.04,0.01-0.05
		c0.03-0.08,0.06-0.15,0.1-0.23c0.03-0.07,0.07-0.15,0.1-0.22c0.02-0.04,0.04-0.07,0.06-0.1c0.02-0.03,0.04-0.08,0.06-0.11
		c0.02-0.04,0.05-0.07,0.08-0.11C2.1,3.35,2.12,3.31,2.13,3.28c0.01-0.02,0.02-0.04,0.03-0.06C2.17,3.21,2.19,3.19,2.2,3.18
		c0.02-0.03,0.04-0.05,0.07-0.08C2.29,3.06,2.32,3.03,2.34,3c0-0.01,0.02-0.01,0.02-0.01c0-0.01,0-0.02,0-0.02
		C2.37,2.95,2.39,2.94,2.4,2.92c0.02-0.03,0.04-0.06,0.06-0.08C2.48,2.82,2.52,2.8,2.53,2.77c0.01-0.01,0.01-0.03,0.03-0.05
		C2.57,2.71,2.59,2.7,2.61,2.68C2.63,2.66,2.65,2.62,2.68,2.6c0,0,0.02-0.01,0.03-0.02c0.01-0.01,0-0.01,0.01-0.02
		c0.01-0.01,0.02-0.03,0.04-0.04C2.77,2.5,2.8,2.48,2.82,2.45C2.84,2.44,2.85,2.41,2.86,2.4c0-0.01,0.02,0,0.02-0.01
		c0.01-0.01,0-0.01,0.01-0.02c0.02-0.02,0.06-0.04,0.08-0.07c0.06-0.06,0.11-0.12,0.18-0.16c0.06-0.04,0.13-0.08,0.19-0.12
		C3.37,2,3.4,1.97,3.43,1.95C3.46,1.93,3.48,1.92,3.51,1.9c0,0,0.02-0.02,0.02-0.02c0.01,0,0.02-0.01,0.02-0.01
		c0.01-0.01,0.03-0.01,0.04-0.02c0.03-0.02,0.06-0.05,0.09-0.07c0.06-0.04,0.13-0.06,0.19-0.09C3.94,1.65,3.98,1.63,4.05,1.6
		c0.06-0.03,0.12-0.07,0.19-0.09C4.3,1.48,4.36,1.45,4.43,1.43c0.06-0.01,0.14-0.02,0.19-0.06h0.06c0,0,0-0.01,0-0.01H4.7
		c0,0,0-0.01,0-0.01h0.06c0,0,0-0.01,0-0.01h0.02c0,0,0-0.01,0-0.01h0.06c0,0,0-0.01,0-0.01h0.03c0,0,0-0.01,0-0.01h0.06
		c0,0,0-0.01,0-0.01h0.06c0,0,0-0.01,0-0.01h0.08c0,0,0-0.01,0-0.01h0.03c0,0,0-0.01,0-0.01h0.06c0,0,0-0.01,0-0.01H5.3
		c0,0,0-0.01,0-0.01h0.1c0,0,0-0.01,0-0.01h0.13c0,0,0-0.01,0-0.01h0.09c0,0,0-0.01,0-0.01h0.09c0,0,0-0.01,0-0.01h0.15
		c0,0,0,0.01,0,0.01h0.08c0,0,0,0.01,0,0.01h0.11c0,0,0,0.01,0,0.01h0.08c0,0,0,0.01,0,0.01h0.07c0,0,0,0.01,0,0.01h0.13
		c0,0,0,0.01,0,0.01h0.12c0,0,0,0.01,0,0.01h0.03c0,0,0,0.01,0,0.01h0.11c0,0,0,0.01,0,0.01h0.03c0,0,0,0.01,0,0.01h0.06
		c0,0,0,0.01,0,0.01h0.03c0,0,0,0.01,0,0.01h0.06c0.05,0.02,0.1,0.04,0.15,0.06h0.02c0,0,0,0.01,0,0.01h0.06
		C7.02,1.4,7.04,1.42,7.06,1.43h0.02c0,0,0,0.01,0,0.01h0.07c0,0,0,0.01,0,0.01h0.03c0,0,0,0.01,0,0.01h0.06
		C7.24,1.49,7.3,1.5,7.32,1.51c0.03,0.02,0.06,0.03,0.09,0.04c0.06,0.02,0.12,0.06,0.18,0.08c0.05,0.02,0.1,0.05,0.15,0.07
		c0.03,0.01,0.06,0.02,0.08,0.04C7.85,1.76,7.87,1.78,7.9,1.8c0.03,0.02,0.05,0.03,0.08,0.04C8,1.86,8.02,1.88,8.05,1.9
		C8.1,1.93,8.15,1.96,8.2,2c0.1,0.08,0.21,0.15,0.3,0.24c0.02,0.01,0.03,0.03,0.04,0.05C8.56,2.29,8.56,2.3,8.58,2.31
		c0.03,0.02,0.05,0.03,0.07,0.06c0.02,0.03,0.12,0.1,0.08,0.15H6.01c0,0,0,0.01,0,0.01H5.83c0,0,0,0.01,0,0.01H5.79
		c-0.04,0.02-0.1,0.03-0.14,0.05c-0.04,0.03-0.09,0.1-0.1,0.14c-0.03,0.13,0.06,0.2,0.14,0.27h0.01c0,0,0,0.01,0,0.01h0.26
		c0,0,0,0.01,0,0.01h1.41c0,0,0,0.01,0,0.01h1.5c0,0,0-0.01,0-0.01h0.2c0,0,0,0.01,0,0.01h0.15c0.03,0.02,0.05,0.07,0.08,0.1
		c0.01,0.01,0.02,0.02,0.03,0.04C9.35,3.2,9.36,3.21,9.37,3.23C9.39,3.25,9.4,3.26,9.41,3.28C9.42,3.3,9.43,3.31,9.44,3.33
		c0.01,0.01,0.02,0.02,0.03,0.04C9.48,3.38,9.48,3.4,9.5,3.42c0.02,0.02,0.03,0.02,0.04,0.04C9.54,3.47,9.54,3.48,9.55,3.5
		c0.02,0.02,0.03,0.04,0.04,0.07C9.61,3.6,9.63,3.63,9.65,3.66C9.66,3.67,9.66,3.69,9.67,3.7c0,0.01,0.02,0.01,0.02,0.01
		c0,0.01,0,0.02,0,0.02C9.7,3.77,9.72,3.79,9.73,3.82c0,0,0,0.01,0,0.02c0,0.01,0.01,0.01,0.02,0.02c0.01,0.01,0.01,0.03,0.02,0.04
		C9.78,3.92,9.8,3.95,9.81,3.98c0.01,0.03,0.02,0.05,0.03,0.08C9.85,4.1,9.87,4.13,9.88,4.16C9.88,4.19,9.9,4.22,9.91,4.25
		C9.93,4.3,9.96,4.36,9.98,4.42C10,4.48,10.02,4.54,10.04,4.6c0.01,0.03,0.03,0.06,0.03,0.09c0,0.01,0,0.03,0,0.04
		c0,0.02,0.01,0.02,0.02,0.04h0.06c-0.02-0.01-0.04-0.01-0.06-0.03c-0.01-0.02-0.01-0.02-0.01-0.05c-0.01-0.04-0.02-0.07-0.03-0.11
		c-0.02-0.07-0.05-0.13-0.07-0.2C9.98,4.37,9.97,4.36,9.96,4.35c0-0.01,0-0.02,0-0.02c0-0.01-0.02-0.01-0.02-0.02
		C9.93,4.28,9.93,4.24,9.92,4.22C9.89,4.16,9.87,4.09,9.85,4.04C9.82,3.98,9.8,3.91,9.77,3.87C9.76,3.85,9.75,3.83,9.74,3.81
		c0,0,0-0.01,0-0.02c0-0.01-0.02-0.01-0.02-0.01C9.72,3.77,9.71,3.75,9.71,3.74c0-0.01-0.01-0.03-0.02-0.04c0,0-0.02-0.02-0.02-0.02
		C9.67,3.67,9.67,3.67,9.67,3.66C9.66,3.64,9.65,3.63,9.64,3.61C9.62,3.59,9.61,3.55,9.59,3.53C9.57,3.5,9.56,3.47,9.55,3.44
		C9.53,3.42,9.51,3.4,9.49,3.37C9.47,3.34,9.45,3.32,9.44,3.29C9.42,3.27,9.4,3.23,9.38,3.21C9.37,3.19,9.35,3.17,9.34,3.15
		C9.33,3.15,9.32,3.13,9.31,3.12C9.29,3.1,9.26,3.07,9.26,3.04H9.24c0,0,0-0.01,0-0.01H9.08c0,0,0-0.01,0-0.01H8.86
		c0,0,0,0.01,0,0.01H7.39c0,0,0-0.01,0-0.01H5.98c0,0,0-0.01,0-0.01H5.72C5.7,2.98,5.67,2.97,5.65,2.95
		C5.63,2.93,5.61,2.9,5.59,2.88C5.57,2.85,5.56,2.84,5.56,2.8c0-0.03,0-0.05,0.01-0.08c0.02-0.05,0.06-0.11,0.12-0.13
		c0.05-0.02,0.1-0.03,0.14-0.05h0.19c0,0,0-0.01,0-0.01h2.71c0,0,0-0.01,0-0.01h0.01c0-0.04,0-0.06-0.03-0.09
		C8.7,2.41,8.68,2.4,8.67,2.38C8.66,2.37,8.66,2.35,8.65,2.34C8.63,2.31,8.59,2.3,8.57,2.28C8.54,2.26,8.53,2.21,8.51,2.19
		C8.49,2.17,8.45,2.16,8.43,2.15C8.4,2.13,8.38,2.11,8.35,2.08C8.3,2.04,8.25,1.99,8.19,1.96C8.14,1.93,8.09,1.9,8.04,1.87
		C7.99,1.83,7.93,1.82,7.88,1.77C7.8,1.7,7.67,1.67,7.57,1.61c-0.05-0.03-0.1-0.05-0.16-0.07c-0.05-0.02-0.1-0.05-0.15-0.08H7.25
		c0,0,0-0.01,0-0.01H7.19c0,0,0-0.01,0-0.01H7.16c0,0,0-0.01,0-0.01H7.09C7.07,1.41,7.06,1.4,7.04,1.39H7c0,0,0-0.01,0-0.01H6.95
		C6.92,1.35,6.86,1.34,6.82,1.32H6.77c0,0,0-0.01,0-0.01H6.72c0,0,0-0.01,0-0.01H6.68c0,0,0-0.01,0-0.01H6.63c0,0,0-0.01,0-0.01H6.6
		c0,0,0-0.01,0-0.01H6.49c0,0,0-0.01,0-0.01H6.45c0,0,0-0.01,0-0.01H6.33c0,0,0-0.01,0-0.01H6.2c0,0,0-0.01,0-0.01H6.13
		c0,0,0-0.01,0-0.01H6.06c0,0,0-0.01,0-0.01H5.95c0,0,0-0.01,0-0.01H5.87c0,0,0-0.01,0-0.01H5.69c0,0,0,0.01,0,0.01H5.61
		c0,0,0,0.01,0,0.01H5.52c0,0,0,0.01,0,0.01H5.39c0,0,0,0.01,0,0.01h-0.1c0,0,0,0.01,0,0.01H5.13c0,0,0,0.01,0,0.01H5.08
		c0,0,0,0.01,0,0.01H5.05c0,0,0,0.01,0,0.01H4.97c0,0,0,0.01,0,0.01H4.91c0,0,0,0.01,0,0.01H4.86c0,0,0,0.01,0,0.01H4.83
		c0,0,0,0.01,0,0.01H4.77c0,0,0,0.01,0,0.01H4.75c0,0,0,0.01,0,0.01H4.69c0,0,0,0.01,0,0.01H4.66c0,0,0,0.01,0,0.01H4.6
		c0,0,0,0.01,0,0.01H4.58C4.52,1.4,4.44,1.41,4.37,1.44C4.3,1.46,4.22,1.49,4.15,1.53C4.02,1.6,3.89,1.65,3.75,1.72
		C3.68,1.75,3.62,1.8,3.56,1.84C3.5,1.88,3.45,1.9,3.39,1.95C3.29,2.05,3.15,2.12,3.04,2.22c-0.03,0.03-0.06,0.07-0.1,0.1
		C2.93,2.33,2.91,2.34,2.9,2.35c0,0-0.02,0.03-0.02,0.04c-0.01,0.01-0.02,0-0.03,0.01c0,0-0.01,0.02-0.01,0.02
		C2.82,2.43,2.8,2.44,2.79,2.45C2.78,2.46,2.77,2.47,2.76,2.49C2.75,2.49,2.73,2.51,2.72,2.52C2.71,2.54,2.7,2.56,2.69,2.57
		c0,0.01-0.02,0-0.02,0.01c0,0-0.01,0.02-0.01,0.02C2.63,2.63,2.61,2.66,2.58,2.68C2.56,2.7,2.55,2.71,2.54,2.73
		C2.53,2.75,2.51,2.75,2.5,2.77C2.48,2.79,2.46,2.82,2.44,2.84C2.42,2.87,2.4,2.9,2.37,2.93C2.37,2.94,2.36,2.96,2.35,2.96
		C2.34,2.97,2.33,2.99,2.32,3.01c-0.05,0.06-0.1,0.11-0.14,0.18C2.13,3.25,2.1,3.31,2.06,3.38C2.04,3.42,2.01,3.45,1.99,3.48
		C1.98,3.52,1.96,3.55,1.94,3.58C1.9,3.63,1.87,3.7,1.84,3.77C1.82,3.8,1.81,3.84,1.79,3.87C1.77,3.9,1.76,3.94,1.74,3.97
		C1.72,4.04,1.69,4.1,1.67,4.17C1.66,4.2,1.64,4.24,1.65,4.27c0,0.03,0.03,0.06,0.04,0.09c0,0,0,0.01,0,0.01h0.17c0,0,0-0.01,0-0.01
		h1.22c0,0,0-0.01,0-0.01h0.15c0,0,0,0.01,0,0.01h1.43c0,0,0-0.01,0-0.01H4.9c0,0,0,0.01,0,0.01h0.21c0,0,0,0.01,0,0.01h0.06
		C5.2,4.41,5.25,4.4,5.29,4.43c0.03,0.02,0.04,0.07,0.06,0.11c0.01,0.02,0.01,0.01,0.01,0.04c0,0,0.01,0.01,0.01,0.01
		C5.36,4.6,5.35,4.6,5.35,4.61c0,0.02-0.01,0.04-0.02,0.06C5.32,4.68,5.31,4.69,5.3,4.7C5.29,4.7,5.28,4.71,5.28,4.72
		C5.27,4.72,5.26,4.72,5.25,4.73c-0.01,0.01,0,0.02-0.02,0.03H4.45c0.02-0.09-0.15-0.11-0.2-0.14H4.09
		C4.08,4.63,4.06,4.64,4.06,4.65c0,0.01,0,0.03-0.01,0.04c-0.01,0-0.01,0.01-0.02,0.01c0,0.01,0,0.02,0,0.02c0,0.01,0,0.03,0,0.04
		H1.52C1.54,4.74,1.51,4.71,1.5,4.7C1.49,4.69,1.48,4.68,1.48,4.67c0,0-0.02-0.02-0.02-0.02C1.42,4.63,1.38,4.62,1.34,4.6H1.11
		C1.1,4.6,1.09,4.61,1.08,4.61c0.01-0.01,0-0.03,0-0.04H1.06c0,0.02,0.02,0.03,0,0.05h0c-0.01,0-0.02,0.01-0.02,0.01
		c0.02-0.03,0-0.07,0.01-0.11c0-0.02,0.02-0.04,0.02-0.06c0.01-0.02,0-0.04,0.01-0.06C1.1,4.37,1.12,4.33,1.13,4.29
		c0-0.02,0.01-0.04,0.02-0.06C1.15,4.22,1.17,4.2,1.17,4.18C1.2,4.1,1.21,4.02,1.25,3.95c0.02-0.03,0.02-0.08,0.03-0.11
		C1.3,3.8,1.32,3.76,1.34,3.72c0.02-0.03,0.03-0.07,0.06-0.11c0.02-0.03,0.04-0.06,0.06-0.09C1.48,3.47,1.5,3.4,1.54,3.33
		C1.55,3.3,1.58,3.26,1.6,3.23c0.02-0.03,0.04-0.07,0.06-0.1C1.68,3.09,1.7,3.07,1.72,3.04c0.02-0.03,0.04-0.06,0.06-0.08
		c0.06-0.06,0.1-0.13,0.14-0.19c0.02-0.04,0.04-0.07,0.07-0.11c0.01-0.01,0.03-0.03,0.04-0.04c0,0,0.02-0.02,0.02-0.02
		c0-0.01,0-0.02,0-0.02c0.03-0.04,0.07-0.07,0.1-0.11c0.01-0.01,0.02-0.03,0.03-0.05C2.18,2.42,2.19,2.4,2.21,2.39
		c0.01-0.01,0.02-0.04,0.03-0.05c0.01-0.01,0.03-0.02,0.04-0.04C2.29,2.3,2.31,2.29,2.32,2.28c0.02-0.01,0.03-0.03,0.05-0.04
		c0.01-0.01,0.01-0.01,0.02-0.02c0.01,0,0.02,0,0.02-0.01c0,0,0.01-0.02,0.01-0.02c0-0.01,0.01-0.01,0.02-0.02
		c0.01-0.01,0-0.01,0.01-0.02c0.01,0,0.02,0,0.02-0.01C2.48,2.12,2.48,2.1,2.49,2.09c0.05-0.06,0.1-0.11,0.17-0.16
		c0.06-0.05,0.12-0.11,0.18-0.15c0.06-0.05,0.12-0.09,0.18-0.13c0.13-0.09,0.23-0.18,0.36-0.26c0.03-0.02,0.07-0.03,0.1-0.05
		C3.49,1.33,3.51,1.31,3.52,1.3c0.01-0.01,0.02-0.01,0.04-0.02c0.06-0.02,0.13-0.07,0.19-0.1H3.8C3.8,1.14,3.91,1.11,3.95,1.09
		C4,1.07,4.05,1.05,4.1,1.02C4.16,1,4.21,0.98,4.26,0.96C4.32,0.94,4.38,0.93,4.43,0.9H4.5c0,0,0-0.01,0-0.01
		c0.01,0,0.01,0,0.02,0.01h0.02c0-0.03,0.03-0.03,0.04-0.04h0.01c0,0,0-0.01,0-0.01H4.56c0,0,0,0.01,0,0.01H4.51
		C4.48,0.88,4.48,0.89,4.49,0.89H4.42c0,0,0,0.01,0,0.01H4.39C4.28,0.94,4.17,0.98,4.06,1.03c-0.11,0.05-0.22,0.1-0.32,0.16H3.7
		C3.68,1.21,3.62,1.23,3.59,1.25C3.58,1.26,3.56,1.27,3.54,1.27C3.52,1.28,3.51,1.29,3.5,1.3C3.43,1.35,3.36,1.37,3.29,1.42
		C3.28,1.43,3.25,1.44,3.24,1.45c0,0-0.02,0.01-0.02,0.01c0,0-0.01,0.02-0.01,0.02C3.17,1.51,3.14,1.53,3.1,1.56
		C3.07,1.58,3.04,1.61,3,1.63C2.96,1.66,2.92,1.67,2.89,1.7C2.88,1.71,2.87,1.73,2.85,1.74C2.84,1.75,2.82,1.76,2.81,1.77
		C2.78,1.79,2.75,1.82,2.72,1.85C2.66,1.9,2.6,1.95,2.54,2.01C2.53,2.01,2.52,2.04,2.51,2.05C2.5,2.06,2.48,2.07,2.47,2.09
		C2.43,2.11,2.41,2.14,2.38,2.17c-0.05,0.06-0.1,0.11-0.15,0.16C2.22,2.34,2.21,2.37,2.2,2.38C2.19,2.39,2.17,2.4,2.16,2.41
		c-0.03,0.03-0.05,0.07-0.08,0.1C2.03,2.57,1.98,2.63,1.93,2.7C1.92,2.71,1.91,2.73,1.9,2.75C1.9,2.76,1.88,2.77,1.88,2.78
		c-0.02,0.03-0.04,0.07-0.07,0.1C1.79,2.91,1.76,2.95,1.75,2.97C1.73,2.99,1.72,3.01,1.71,3.02c0,0.01-0.01,0.02-0.01,0.02
		c0,0.01-0.02,0-0.02,0.01c-0.02,0.03-0.03,0.06-0.06,0.1C1.61,3.17,1.6,3.19,1.59,3.21C1.59,3.22,1.57,3.23,1.57,3.23
		c0,0.01,0,0.02,0,0.02C1.56,3.28,1.54,3.29,1.53,3.31C1.52,3.33,1.52,3.34,1.51,3.36c-0.02,0.03-0.03,0.07-0.05,0.1
		c-0.01,0.01,0,0.04-0.01,0.05c0,0.01-0.02,0.02-0.03,0.04C1.4,3.57,1.38,3.61,1.36,3.64c-0.03,0.07-0.07,0.13-0.09,0.2
		C1.27,3.86,1.25,3.88,1.25,3.89c0,0.01,0,0.03-0.01,0.05C1.23,3.96,1.22,3.97,1.22,3.99c0,0.02-0.02,0.03-0.02,0.05
		c0,0.02-0.01,0.04-0.01,0.05c0,0.01-0.01,0.03-0.02,0.05c-0.01,0.03-0.02,0.07-0.04,0.1C1.12,4.26,1.12,4.28,1.11,4.29
		C1.11,4.3,1.1,4.33,1.1,4.34C1.09,4.37,1.07,4.4,1.06,4.44C1.05,4.47,1.05,4.5,1.04,4.54C1.04,4.56,1.04,4.57,1.03,4.59
		c0,0.02-0.01,0.02-0.01,0.04h0.02C1.02,4.64,1.01,4.65,1.01,4.67c0,0.02,0,0.05,0.01,0.06c0,0,0,0,0.01,0H1.01
		c0,0.01,0,0.02,0,0.02h0.03c0-0.01,0-0.01,0-0.02c0.01,0,0.01,0,0.01,0.02c0,0,0,0.01,0,0.01c0,0.02-0.01,0.04-0.01,0.06
		c0,0.02,0,0.05,0,0.07c0,0.01-0.01,0.02-0.01,0.04c0,0.01,0,0.02,0,0.04c0,0.02-0.01,0.04-0.01,0.06C1,5.06,1.01,5.1,1,5.13
		C0.99,5.15,1,5.15,0.98,5.16C0.96,5.17,0.94,5.17,0.93,5.17C0.88,5.19,0.82,5.21,0.77,5.22C0.72,5.23,0.62,5.24,0.62,5.3
		c0,0.06,0.11,0.1,0.15,0.13H0.8c0,0,0,0.01,0,0.01h0.03c0,0,0,0.01,0,0.01h0.02c0.01,0.01,0.06,0.02,0.07,0.03
		C0.93,5.5,0.91,5.54,0.91,5.55C0.9,5.58,0.89,5.6,0.89,5.62C0.88,5.64,0.88,5.67,0.87,5.68c0,0.1-0.16,0.11-0.23,0.14H0.58
		c0,0,0,0.01,0,0.01H0.35C0.33,5.85,0.31,5.86,0.3,5.88H0.29c0,0,0,0.01,0,0.01s0,0.01,0,0.01H0.28c0,0,0,0.01,0,0.01H0.27
		c0,0,0,0.01,0,0.01s0,0.01,0,0.01s0,0.01,0,0.01H0.26c0,0,0,0.01,0,0.01s0,0.01,0,0.01c0,0.23,0.02,0.44,0.04,0.66
		c0.01,0.11,0.03,0.22,0.04,0.33c0.01,0.06,0.01,0.12,0.04,0.17C0.42,7.2,0.46,7.23,0.52,7.26h0.12C0.67,7.23,0.7,7.22,0.72,7.19
		C0.73,7.16,0.74,7.14,0.74,7.1c0-0.01,0.01-0.02,0.01-0.04c0-0.01,0-0.03,0-0.04c0-0.02-0.01-0.03-0.01-0.05c0-0.01,0-0.03,0-0.04
		c-0.01-0.05-0.02-0.1-0.02-0.15c0-0.02,0-0.05,0-0.08c0-0.03-0.01-0.05-0.01-0.08c0-0.03-0.01-0.05-0.01-0.08c0-0.02,0-0.05,0-0.08
		c0-0.02-0.01-0.05-0.01-0.08c0-0.01,0-0.02,0-0.04c0-0.01-0.01-0.03-0.01-0.04c0-0.03,0-0.06,0-0.08c0-0.03-0.01-0.04-0.01-0.07
		C0.66,6.11,0.7,6.09,0.75,6.07c0.09-0.03,0.19-0.06,0.29-0.1H1.1c0,0,0-0.01,0-0.01h0.06c0,0,0-0.01,0-0.01h0.06c0,0,0-0.01,0-0.01
		h0.06c0,0,0-0.01,0-0.01h0.06c0,0,0-0.01,0-0.01h0.08c0,0,0-0.01,0-0.01H1.4c0,0.02-0.01,0.05-0.01,0.08
		c0,0.02-0.02,0.06-0.03,0.08C1.35,6.07,1.35,6.08,1.34,6.1c0,0.01-0.02,0.03-0.02,0.04C1.31,6.15,1.28,6.19,1.28,6.21H1.27
		C1.25,6.24,1.24,6.26,1.21,6.27C1.18,6.28,1.15,6.29,1.12,6.3C1.06,6.31,1,6.33,0.94,6.35H0.89c0,0,0,0.01,0,0.01H0.83
		C0.8,6.38,0.78,6.39,0.78,6.43c0,0.03,0.02,0.05,0.04,0.06c0.05,0.02,0.1,0.03,0.14,0.05h0.07c0,0,0,0.01,0,0.01h0.1
		c0,0.06-0.03,0.06-0.08,0.07C1.01,6.63,0.97,6.64,0.93,6.65C0.9,6.66,0.84,6.67,0.81,6.69c-0.06,0.04,0,0.08,0.03,0.11h0.01
		c0,0,0,0.01,0,0.01h0.02c0.04,0.04,0.1,0.05,0.15,0.07h0.11C1.14,6.95,1.16,7.01,1.17,7.07z M4.32,6.36c0,0.02-0.02,0.05-0.02,0.06
		C4.29,6.44,4.29,6.47,4.28,6.48C4.26,6.51,4.23,6.51,4.21,6.53H4.14c0,0,0,0.01,0,0.01H4.11C4.07,6.52,4.05,6.44,4.06,6.4
		C4.06,6.33,4.11,6.32,4.17,6.3h0.07c0,0,0-0.01,0-0.01H4.3C4.31,6.32,4.32,6.32,4.32,6.36z"/>
	<path fill="#FFFFFF" d="M7.42,6.84c0.04,0.07,0.1,0.13,0.17,0.18h0.06c0.07-0.05,0.1-0.13,0.09-0.22c0-0.01-0.02-0.05-0.02-0.06
		C7.7,6.72,7.67,6.7,7.66,6.69c-0.03-0.02-0.07-0.03-0.1-0.05H7.43c0,0,0-0.01,0-0.01H7.38c0,0,0,0.01,0,0.01H7.35
		C7.32,6.68,7.33,6.7,7.36,6.74C7.38,6.77,7.4,6.8,7.42,6.84z"/>
	<path fill="#FFFFFF" d="M6.5,7.18h0.07C6.64,7.12,6.69,7,6.7,6.91c0.01-0.04,0.02-0.09,0.02-0.13c0-0.05-0.01-0.09-0.01-0.13H6.66
		C6.65,6.67,6.62,6.68,6.6,6.7C6.57,6.72,6.55,6.74,6.53,6.76C6.48,6.79,6.41,6.84,6.39,6.89C6.33,6.99,6.4,7.13,6.5,7.18z"/>
	<path fill="#FFFFFF" d="M7.26,6.6h0.11C7.4,6.58,7.45,6.56,7.45,6.51c0-0.02-0.01-0.04,0-0.06c0.01-0.02,0.02-0.02,0.02-0.05h0.01
		c0,0,0-0.01,0-0.01s0-0.01,0-0.01H7.5c0-0.04,0.03-0.07,0.04-0.1C7.56,6.26,7.6,6.22,7.6,6.19h0.01c0-0.03,0.03-0.05,0.02-0.09
		C7.63,6.06,7.61,6.05,7.59,6.01H7.56c0,0,0-0.01,0-0.01H7.55C7.53,5.95,7.43,5.91,7.38,5.89H7.29C7.21,5.94,7.12,5.96,7.04,6H6.98
		c0,0,0,0.01,0,0.01H6.77C6.73,6.03,6.7,6.05,6.67,6.09c-0.02,0.02-0.04,0.07-0.03,0.1c0,0.02,0,0.04,0,0.06
		c0,0.01-0.01,0.03-0.01,0.03c0,0.01,0.01,0.02,0.01,0.02c0,0.02,0,0.04,0,0.06c0,0.02,0.01,0.03,0.01,0.05
		C6.67,6.43,6.67,6.48,6.68,6.5C6.7,6.53,6.73,6.56,6.73,6.6h0.01c0,0.04,0.05,0.06,0.08,0.08h0.04c0,0,0,0.01,0,0.01h0.06
		c0,0,0-0.01,0-0.01h0.03c0,0.04,0.01,0.06,0.01,0.09c0,0.03,0,0.06,0,0.09c0,0.07-0.01,0.13-0.04,0.19H6.83
		C6.82,7.04,6.81,7.04,6.81,7.03H6.75c0,0.01,0,0.02,0,0.02H6.74c0,0.06,0.06,0.15,0.1,0.19C6.87,7.28,6.9,7.31,6.93,7.33
		C6.96,7.35,7,7.37,7.03,7.39h0.11C7.2,7.35,7.23,7.3,7.25,7.23c0.01-0.05,0.03-0.12,0.03-0.18c0-0.04,0.01-0.06,0.01-0.09
		c0-0.03,0-0.06,0-0.09c0-0.03-0.01-0.06-0.01-0.1c0-0.03-0.02-0.06-0.02-0.09C7.25,6.67,7.23,6.64,7.22,6.63c0-0.01,0-0.01,0-0.01
		c0,0,0,0,0.01-0.01C7.24,6.6,7.25,6.6,7.26,6.6z M6.92,6.31c0-0.04,0.05-0.05,0.08-0.06c0.06-0.02,0.13-0.03,0.19-0.07h0.04
		c0,0.1-0.03,0.16-0.12,0.2H7.06c0,0,0,0.01,0,0.01H7c0,0,0,0.01,0,0.01H6.96C6.94,6.38,6.91,6.34,6.92,6.31z"/>
	<path fill="#FFFFFF" d="M11.78,6.61c-0.07-0.02-0.14-0.04-0.2-0.06c-0.07-0.02-0.14-0.05-0.21-0.07c-0.07-0.03-0.15-0.06-0.21-0.11
		h-0.02c-0.01-0.03-0.07-0.06-0.1-0.08C11.02,6.28,11,6.29,11.02,6.27c0.01-0.01,0.03-0.01,0.05-0.02c0.07-0.03,0.15-0.06,0.21-0.12
		h0.01c0.02-0.04,0.07-0.04,0.09-0.08c0.02-0.03,0.03-0.07,0.01-0.1c-0.04-0.07-0.1-0.1-0.18-0.14h-0.07
		c-0.07,0.04-0.11,0.11-0.16,0.16C10.97,6,10.94,6.03,10.91,6.05c-0.02,0.02-0.06,0.04-0.08,0.08h-0.01
		c-0.01-0.03-0.04-0.05-0.07-0.07h-0.01C10.73,6.03,10.68,6,10.66,5.98c-0.03-0.02-0.07-0.04-0.1-0.05h-0.01
		c0.01-0.02,0.02-0.03,0.03-0.05h0.06c0,0,0-0.01,0-0.01h0.09c0,0,0-0.01,0-0.01h0.11c0,0,0-0.01,0-0.01h0.09c0,0,0-0.01,0-0.01h0.1
		c0,0,0-0.01,0-0.01h0.06c0.05-0.02,0.09-0.03,0.13-0.06c0.03-0.02,0.1-0.08,0.1-0.12h0.01c0-0.02,0.01-0.04,0.02-0.06
		c0,0,0-0.01,0-0.01h0.01c0,0,0-0.01,0-0.01c0.02-0.05,0.07-0.12,0.08-0.18h0.01c-0.01-0.04,0.03-0.08,0-0.12c0,0,0-0.01,0-0.01
		h-0.01c0,0,0-0.01,0-0.01c-0.01-0.01-0.01-0.02-0.02-0.02h-0.01c-0.01-0.03-0.06-0.05-0.09-0.07h-0.02c0,0,0-0.01,0-0.01h-0.02
		c0,0,0-0.01,0-0.01h-0.02c0,0,0-0.01,0-0.01h-0.03c0,0,0-0.01,0-0.01h-0.19c0,0,0,0.01,0,0.01h-0.07c0,0,0,0.01,0,0.01h-0.08
		c0,0,0,0.01,0,0.01H10.8c0,0,0,0.01,0,0.01h-0.04c0.01-0.03,0.04-0.04,0.07-0.05c0.03-0.02,0.05-0.04,0.08-0.06
		C10.95,5,11.01,4.96,11.04,4.9h0.01c0.03-0.05,0.04-0.07,0.04-0.13c0,0,0-0.01,0-0.01h-0.01c0-0.03-0.02-0.04-0.04-0.06h-0.02
		c-0.04-0.02-0.07-0.03-0.11-0.05h-0.13c-0.01,0.02-0.03,0.02-0.04,0.05h-0.04c0-0.1-0.1-0.13-0.18-0.18
		c0.01-0.04-0.02-0.09-0.03-0.12c-0.01-0.02-0.01-0.05-0.02-0.07c-0.01-0.02,0-0.04-0.01-0.06c-0.02-0.04-0.04-0.09-0.06-0.13
		c-0.02-0.04-0.03-0.08-0.05-0.12c-0.02-0.04-0.04-0.08-0.05-0.12c-0.01-0.05-0.03-0.09-0.06-0.13c0-0.01-0.01-0.02-0.01-0.04
		c0-0.01-0.01-0.02-0.02-0.03c-0.01-0.02-0.01-0.05-0.02-0.06c-0.01-0.02-0.02-0.04-0.03-0.06c-0.01-0.02-0.03-0.04-0.04-0.06
		C10.11,3.5,10.1,3.48,10.1,3.46c-0.01-0.02-0.02-0.04-0.03-0.05c-0.01-0.01-0.03-0.04-0.03-0.05c0-0.01-0.01-0.02-0.01-0.03
		c0,0-0.02-0.01-0.02-0.02c0-0.01-0.01-0.03-0.01-0.04c0,0-0.01-0.02-0.01-0.02C9.96,3.22,9.94,3.21,9.93,3.19
		C9.91,3.15,9.89,3.12,9.88,3.08C9.86,3.04,9.83,3.01,9.81,2.96C9.8,2.93,9.78,2.89,9.75,2.86C9.73,2.84,9.72,2.83,9.7,2.81
		C9.69,2.79,9.67,2.78,9.67,2.77c-0.01-0.01,0-0.02-0.01-0.03C9.65,2.73,9.64,2.72,9.63,2.71C9.63,2.7,9.63,2.69,9.62,2.68
		c0-0.01-0.02-0.01-0.02-0.01C9.58,2.64,9.56,2.59,9.53,2.57C9.5,2.53,9.48,2.49,9.45,2.46C9.39,2.39,9.33,2.33,9.26,2.25
		C9.2,2.18,9.14,2.12,9.07,2.05C9.01,2,8.94,1.94,8.88,1.88C8.83,1.83,8.77,1.77,8.7,1.73C8.66,1.7,8.63,1.67,8.59,1.64
		c0,0-0.01-0.01-0.02-0.02C8.56,1.62,8.55,1.61,8.54,1.61C8.53,1.6,8.51,1.59,8.49,1.58C8.42,1.53,8.36,1.46,8.28,1.42
		C8.21,1.38,8.15,1.35,8.08,1.3C8.01,1.25,7.95,1.2,7.87,1.17C7.8,1.14,7.73,1.12,7.66,1.09c-0.07-0.04-0.13-0.08-0.2-0.1
		C7.39,0.97,7.3,0.95,7.25,0.9H7.2c0,0,0-0.01,0-0.01H7.15C7.11,0.87,7.07,0.86,7.03,0.84c0,0,0-0.01,0-0.01H6.94c0,0,0-0.01,0-0.01
		H6.9c0,0,0-0.01,0-0.01H6.85c0,0,0-0.01,0-0.01H6.79c0,0,0-0.01,0-0.01H6.72c0,0,0-0.01,0-0.01H6.64c0,0,0-0.01,0-0.01H6.59
		c0,0,0-0.01,0-0.01H6.52c0,0,0-0.01,0-0.01H6.45c0,0,0-0.01,0-0.01H6.41c0,0,0-0.01,0-0.01H6.29c0,0,0-0.01,0-0.01H6.21
		c0,0,0-0.01,0-0.01H5.71c0,0,0-0.01,0-0.01H5.62c0,0,0,0.01,0,0.01H5.47c0,0,0,0.01,0,0.01H5.25c0,0,0,0.01,0,0.01H5.14
		c0,0,0,0.01,0,0.01H5.09c0,0,0,0.01,0,0.01H5.04C5.03,0.75,5.02,0.75,5,0.76H4.93c0,0,0,0.01,0,0.01H4.88c0,0,0,0.01,0,0.01H4.82
		c0,0,0,0.01,0,0.01H4.78c0,0,0,0.01,0,0.01H4.73c0,0,0,0.01,0,0.01H4.68C4.67,0.83,4.65,0.83,4.64,0.84H4.58
		C4.6,0.85,4.61,0.86,4.6,0.88h0.02c0-0.02,0.01-0.03,0.02-0.04h0.04c0.01-0.01,0.03-0.02,0.04-0.02h0.06c0,0,0-0.01,0-0.01h0.04
		c0,0,0-0.01,0-0.01h0.06c0,0,0-0.01,0-0.01h0.06c0,0,0-0.01,0-0.01h0.07c0,0,0-0.01,0-0.01h0.04C5.07,0.75,5.09,0.75,5.1,0.74h0.06
		c0,0,0-0.01,0-0.01h0.11c0,0,0-0.01,0-0.01h0.22c0,0,0-0.01,0-0.01h0.14c0,0,0-0.01,0-0.01h0.07c0,0,0,0.01,0,0.01H6.2
		c0,0,0,0.01,0,0.01h0.08c0,0,0,0.01,0,0.01H6.4c0,0,0,0.01,0,0.01h0.04c0,0,0,0.01,0,0.01h0.07c0,0,0,0.01,0,0.01h0.07
		c0,0,0,0.01,0,0.01h0.06c0,0,0,0.01,0,0.01h0.08c0,0,0,0.01,0,0.01h0.08c0,0,0,0.01,0,0.01h0.06c0,0,0,0.01,0,0.01h0.06
		c0,0,0,0.01,0,0.01h0.03c0,0,0,0.01,0,0.01h0.09C7.01,0.87,7.08,0.88,7.1,0.89h0.03c0,0,0,0.01,0,0.01h0.06
		c0.17,0.07,0.32,0.12,0.47,0.2C7.74,1.14,7.83,1.16,7.9,1.2c0.08,0.04,0.16,0.1,0.24,0.16c0.06,0.04,0.14,0.08,0.2,0.13
		c0.07,0.05,0.15,0.1,0.21,0.15c0.03,0.02,0.06,0.05,0.1,0.08c0.03,0.03,0.07,0.06,0.1,0.08c0.04,0.03,0.06,0.05,0.1,0.08
		C8.88,1.89,8.9,1.92,8.93,1.95c0.03,0.03,0.08,0.06,0.1,0.09C9.07,2.08,9.1,2.1,9.14,2.13C9.17,2.16,9.2,2.21,9.23,2.24
		c0.03,0.04,0.07,0.07,0.1,0.11c0.04,0.04,0.05,0.07,0.09,0.11C9.43,2.47,9.44,2.48,9.46,2.5C9.47,2.52,9.48,2.53,9.5,2.55
		c0.03,0.04,0.05,0.07,0.08,0.11C9.6,2.69,9.63,2.72,9.65,2.75c0,0,0.01,0.02,0.01,0.03c0,0,0.02,0.02,0.01,0.02
		C9.7,2.82,9.7,2.84,9.72,2.86c0.02,0.02,0.03,0.02,0.04,0.05c0.01,0.01,0.01,0.03,0.02,0.05c0.02,0.04,0.04,0.08,0.07,0.12
		c0,0.01,0.02,0.03,0.02,0.04c0,0.01,0,0.02,0,0.02c0.01,0.02,0.03,0.04,0.04,0.06C9.96,3.26,10,3.33,10.04,3.4
		c0.02,0.04,0.05,0.08,0.07,0.12c0.02,0.03,0.04,0.07,0.06,0.11c0.01,0.02,0.03,0.05,0.03,0.07c0.01,0.02,0.01,0.03,0.02,0.05
		c0.02,0.03,0.03,0.08,0.04,0.11c0.02,0.08,0.06,0.15,0.09,0.22c0.02,0.08,0.06,0.15,0.09,0.22c0.01,0.04,0.03,0.08,0.04,0.12
		c0.01,0.03,0.02,0.07,0.03,0.11h-0.08c-0.02,0.03-0.04,0.07-0.05,0.08c-0.01,0.03-0.01,0.07-0.05,0.09h0.01
		c-0.03,0.01-0.01,0.02-0.02,0.03c-0.01,0.01-0.02,0-0.02,0.03h-0.08c0,0,0-0.01,0-0.01h-0.09c0,0,0,0.01,0,0.01h0.08
		c0,0,0,0.01,0,0.01h0.08c-0.02,0.05-0.04,0.08-0.07,0.13c-0.02,0.04-0.05,0.08-0.07,0.12c-0.02,0.04-0.04,0.08,0.01,0.12h0.11
		c0.06-0.02,0.12-0.05,0.18-0.09c0.03-0.02,0.06-0.05,0.09-0.07c0.02-0.02,0.06-0.05,0.08-0.08h0.02c-0.01,0.1-0.1,0.16-0.14,0.25
		h-0.01c-0.02,0.04-0.06,0.05-0.1,0.07h-0.07c-0.01,0.01-0.03,0.02-0.04,0.02h-0.06c0,0,0,0.01,0,0.01h-0.06c0,0,0,0.01,0,0.01
		h-0.06c-0.03,0.02-0.08,0.07-0.08,0.12c0,0,0,0.01,0,0.01c0.01,0.03-0.02,0.04-0.01,0.07c0,0.03,0,0.06,0,0.09
		c0,0.03,0.01,0.06,0.01,0.09c0,0.04,0.01,0.06,0.01,0.09c0,0.03,0,0.07,0.02,0.09c0,0,0,0.01,0,0.01h0.01c0,0,0,0.01,0,0.01
		s0,0.01,0,0.01h0.01c0,0,0,0.01,0,0.01h0.01c0,0,0,0.01,0,0.01h0.01c0.01,0.02,0.04,0.03,0.06,0.05h0.06
		c0.03,0.02-0.07,0.1-0.09,0.13h-0.01c-0.02,0.03-0.04,0.04-0.07,0.06c-0.02,0.02-0.04,0.05-0.07,0.07
		C9.96,6.21,9.94,6.23,9.91,6.26C9.88,6.3,9.9,6.28,9.9,6.33h0.07c0.07-0.04,0.15-0.06,0.23-0.11c0.04-0.02,0.08-0.05,0.12-0.08
		c0.03-0.02,0.08-0.05,0.1-0.09h0.02c0.01,0.03-0.03,0.04-0.02,0.07h-0.01c-0.01,0.03-0.04,0.04-0.06,0.06
		c-0.02,0.02-0.03,0.04-0.05,0.06c-0.04,0.03-0.09,0.07-0.12,0.12h-0.01c-0.02,0.04-0.07,0.07-0.1,0.09
		c-0.04,0.03-0.07,0.06-0.1,0.09c-0.03,0.03-0.07,0.05-0.1,0.08c-0.04,0.03-0.07,0.05-0.07,0.1h0.02c0,0,0,0.01,0,0.01h0.08
		c0,0,0-0.01,0-0.01h0.07c0.1-0.04,0.21-0.06,0.3-0.11c0.05-0.03,0.1-0.06,0.15-0.1c0.05-0.04,0.11-0.09,0.14-0.15h0.01
		c0.04,0.04-0.02,0.08-0.04,0.11c-0.03,0.04-0.06,0.07-0.09,0.11c-0.03,0.04-0.07,0.06-0.1,0.1c-0.03,0.03-0.07,0.07-0.11,0.1h-0.01
		c-0.07,0.05-0.13,0.1-0.2,0.15C9.96,6.96,9.81,7.02,9.82,7.06c0,0,0,0.01,0,0.01h0.01c0,0,0,0.01,0,0.01h0.01c0,0,0,0.01,0,0.01
		h0.14c0,0,0-0.01,0-0.01h0.1c0,0,0-0.01,0-0.01h0.06c0,0,0-0.01,0-0.01h0.06c0.07-0.04,0.15-0.06,0.21-0.11
		c0.04-0.02,0.07-0.05,0.1-0.08c0.03-0.03,0.08-0.05,0.1-0.09h0.01c0,0.12-0.01,0.25-0.12,0.3h-0.03c0,0,0-0.01,0-0.01H10.4
		c0,0,0-0.01,0-0.01h-0.1c0,0,0,0.01,0,0.01h-0.01c0,0,0,0.01,0,0.01c0.01,0.05,0.04,0.09,0.06,0.13c0.01,0.02,0.03,0.05,0.04,0.06
		c0.02,0.02,0.05,0.03,0.04,0.06h-0.21c0,0,0,0.01,0,0.01h-0.03c-0.04,0.03-0.05,0.08-0.06,0.13c0,0.02-0.02,0.04-0.02,0.06
		c-0.01,0.02-0.01,0.04-0.02,0.06c-0.02,0.04-0.02,0.09-0.04,0.13c-0.01,0.02-0.02,0.04-0.03,0.06C10.02,7.84,10.01,7.86,10,7.88
		C9.99,7.9,9.99,7.93,9.98,7.94C9.98,7.96,9.98,7.95,9.97,7.97c0,0-0.01,0.03-0.01,0.04C9.95,8.02,9.94,8.04,9.94,8.06
		c0,0.01,0,0.02-0.01,0.03c0,0-0.01,0.03-0.01,0.02c-0.01,0-0.01,0.01-0.01,0.02c0,0,0,0.01,0,0.01C9.9,8.15,9.89,8.15,9.89,8.17
		C9.88,8.18,9.87,8.2,9.86,8.21c0,0.01-0.02,0.02-0.02,0.04c0,0.01,0,0.02,0,0.02c0,0.01-0.01,0.02-0.02,0.02
		c0,0.01,0,0.02-0.01,0.03C9.8,8.36,9.77,8.39,9.75,8.44c0,0.01,0,0.02,0,0.02c0,0.01-0.02,0.03-0.02,0.04
		C9.72,8.51,9.71,8.53,9.7,8.55C9.68,8.59,9.66,8.63,9.63,8.67C9.62,8.69,9.61,8.7,9.59,8.72C9.58,8.74,9.58,8.76,9.57,8.77
		C9.55,8.8,9.53,8.82,9.51,8.84C9.5,8.86,9.5,8.88,9.49,8.89C9.46,8.93,9.44,8.96,9.41,9C9.38,9.03,9.35,9.07,9.32,9.11
		C9.3,9.15,9.27,9.17,9.24,9.21C9.21,9.26,9.18,9.3,9.14,9.34C9.12,9.35,9.11,9.37,9.1,9.38C9.09,9.4,9.07,9.4,9.06,9.42
		c-0.03,0.04-0.07,0.08-0.1,0.12C8.95,9.55,8.94,9.57,8.92,9.59C8.9,9.6,8.88,9.6,8.87,9.62H8.79c0,0,0-0.01,0-0.01H7.52
		c0,0,0,0.01,0,0.01H6.85c0,0,0-0.01,0-0.01H6.17c0,0,0,0.01,0,0.01H6.09C6.08,9.63,6.05,9.64,6.04,9.65
		c-0.01,0.01-0.02,0-0.01,0.01c0,0.01,0.02,0.01,0.02,0.01h0.07c0.02-0.01,0.03-0.03,0.06-0.05h0.66c0,0,0,0.01,0,0.01h0.28
		c0,0,0,0.01,0,0.01h0.4c0,0,0-0.01,0-0.01h0.01c0,0,0,0.01,0,0.01h0.03c0,0,0-0.01,0-0.01H7.53c0,0,0-0.01,0-0.01h1.24
		c0,0,0,0.01,0,0.01h0.11c0,0,0-0.01,0-0.01H8.9C8.92,9.6,8.94,9.59,8.96,9.57C8.98,9.55,9,9.52,9.02,9.5
		c0.04-0.04,0.08-0.09,0.11-0.13c0.04-0.05,0.09-0.09,0.12-0.13C9.27,9.2,9.31,9.16,9.34,9.13C9.36,9.1,9.39,9.06,9.41,9.02
		c0.02-0.04,0.05-0.06,0.08-0.11c0.03-0.04,0.05-0.08,0.08-0.12C9.59,8.77,9.6,8.76,9.61,8.75c0.01-0.02,0.01-0.04,0.02-0.05
		c0.01-0.02,0.03-0.05,0.04-0.07C9.69,8.6,9.7,8.59,9.71,8.57c0,0,0.02,0,0.02-0.01c0-0.01,0-0.03,0-0.04
		c0-0.02,0.02-0.04,0.03-0.05c0.01-0.02,0.02-0.05,0.03-0.06C9.8,8.4,9.81,8.37,9.82,8.35c0.02-0.04,0.04-0.08,0.06-0.12
		c0-0.01,0.01-0.02,0.01-0.04c0-0.01,0.01-0.02,0.02-0.03c0.01-0.02,0.02-0.03,0.03-0.05C9.94,8.1,9.94,8.08,9.95,8.06
		c0.01-0.02,0.03-0.03,0.03-0.05C9.98,8.01,9.97,8,9.97,7.99c0,0,0.01-0.01,0.01-0.01c0-0.01,0.01-0.02,0.01-0.04
		c0.01-0.02,0.01-0.04,0.02-0.05c0.02-0.04,0.04-0.07,0.05-0.11c0-0.01,0.01-0.03,0.02-0.04c0-0.01,0-0.02,0.01-0.03
		c0.02-0.03,0.02-0.01,0.04-0.03c0.02-0.01,0.02-0.08,0.02-0.1c0.01-0.04,0-0.08,0.01-0.12c0.01-0.05,0.03-0.06,0.08-0.09h0.22
		c0.03,0.06,0.11,0.08,0.17,0.11h0.02c-0.01,0.01-0.02,0.05-0.02,0.06c-0.01,0.02-0.01,0.04-0.01,0.06c0,0.02-0.02,0.04-0.02,0.06
		c-0.01,0.02,0,0.04-0.01,0.06c-0.03,0.08-0.06,0.16-0.09,0.24c0,0.01-0.01,0.03-0.01,0.04c0,0.01-0.02,0.02-0.02,0.03
		c-0.01,0.02-0.01,0.04-0.01,0.06c-0.01,0.04-0.03,0.08-0.04,0.12c-0.01,0.02-0.01,0.04-0.02,0.06c-0.01,0.01-0.02,0.02-0.02,0.04
		c0,0.01,0,0.02,0,0.02c-0.02,0.04-0.04,0.08-0.06,0.12c-0.04,0.07-0.06,0.15-0.1,0.22c-0.02,0.04-0.04,0.07-0.07,0.11
		C10.12,8.77,10.1,8.79,10.1,8.8c-0.01,0.01-0.01,0.02-0.01,0.04c-0.01,0.04-0.05,0.08-0.08,0.12c-0.02,0.03-0.04,0.07-0.06,0.1
		C9.91,9.14,9.86,9.2,9.81,9.28c-0.05,0.07-0.1,0.14-0.15,0.21C9.64,9.51,9.63,9.53,9.61,9.55C9.61,9.55,9.6,9.57,9.59,9.58
		c0,0-0.02,0.01-0.02,0.02C9.54,9.63,9.53,9.66,9.5,9.69C9.46,9.73,9.44,9.78,9.4,9.8C9.38,9.82,9.38,9.81,9.36,9.83
		C9.35,9.85,9.34,9.86,9.33,9.87C9.3,9.9,9.26,9.95,9.23,9.98c-0.03,0.03-0.06,0.05-0.08,0.08c-0.05,0.05-0.11,0.12-0.16,0.18
		c-0.06,0.06-0.12,0.1-0.19,0.14c-0.07,0.04-0.14,0.09-0.2,0.14c-0.07,0.05-0.14,0.1-0.2,0.15c-0.06,0.05-0.14,0.08-0.2,0.12
		c-0.07,0.04-0.13,0.08-0.2,0.12c-0.03,0.02-0.07,0.03-0.11,0.05c-0.03,0.02-0.06,0.04-0.09,0.05c-0.07,0.03-0.14,0.05-0.2,0.09
		H7.53c-0.01,0.02-0.04,0.03-0.06,0.05H7.42c-0.01,0.01-0.02,0.03-0.03,0.04H7.33c0,0,0,0.01,0,0.01H7.29
		c-0.04,0.02-0.05,0.01-0.01,0.04h0.01c0.02-0.01,0.04-0.02,0.06-0.04H7.4c0,0,0-0.01,0-0.01h0.02c0.02-0.01,0.04-0.02,0.07-0.04
		h0.02c0.03-0.03,0.06-0.02,0.09-0.05h0.04c0.03-0.03,0.08-0.04,0.12-0.06C7.8,11.02,7.84,11,7.87,10.98
		c0.03-0.02,0.07-0.03,0.11-0.05c0.04-0.02,0.07-0.04,0.11-0.06c0.15-0.09,0.3-0.17,0.45-0.28c0.13-0.09,0.27-0.19,0.39-0.28
		c0.07-0.05,0.12-0.12,0.18-0.18c0.06-0.06,0.1-0.1,0.17-0.17c0.02-0.02,0.04-0.04,0.06-0.06c0.01-0.01,0.02-0.02,0.03-0.04
		c0.03-0.03,0.07-0.07,0.1-0.11C9.48,9.73,9.52,9.7,9.55,9.66C9.57,9.63,9.59,9.6,9.61,9.57c0.11-0.13,0.21-0.28,0.3-0.42
		C9.96,9.07,10,9.01,10.05,8.94c0.01-0.02,0.02-0.04,0.03-0.06c0.01-0.01,0.01-0.04,0.02-0.05c0.01-0.02,0.02-0.04,0.03-0.05
		c0.01-0.01,0.02-0.03,0.03-0.05c0.01-0.02,0.01-0.04,0.02-0.06c0.01-0.01,0.02-0.02,0.03-0.03c0.01-0.01,0-0.02,0.01-0.03
		c0.01-0.03,0.04-0.07,0.06-0.1c0-0.01,0-0.02,0-0.03c0,0,0.02-0.01,0.02-0.02c0.01-0.02,0.01-0.04,0.02-0.05
		c0.02-0.03,0.03-0.07,0.04-0.1c0.07-0.13,0.1-0.28,0.16-0.42c0.02-0.03,0.03-0.08,0.04-0.11c0-0.02,0.01-0.03,0.01-0.05
		c0-0.02,0.03-0.04,0.03-0.06c0.01-0.04,0.01-0.07,0.02-0.11c0.01-0.03,0.03-0.07,0.02-0.1h0.06c0.05-0.02,0.09-0.05,0.12-0.11h0.01
		c0,0,0-0.01,0-0.01h0.01c0.02-0.05,0.05-0.08,0.07-0.13c0.01-0.02,0.01-0.04,0.01-0.06c0,0,0.01-0.04,0.01-0.04
		c0.01-0.02,0-0.01,0.01-0.03c0-0.05,0.02-0.1,0.02-0.15c0.01-0.05,0.01-0.1,0.01-0.15H11c0.02,0.04,0.09,0.07,0.13,0.1
		c0.05,0.03,0.09,0.05,0.14,0.08h0.07c0,0,0,0.01,0,0.01h0.04c0,0,0-0.01,0-0.01h0.07c0.1-0.05,0.18-0.11,0.28-0.18h0.01
		c0.03-0.02,0.09-0.06,0.11-0.1C11.86,6.65,11.83,6.62,11.78,6.61z M10.9,5.39c0,0,0-0.01,0-0.01h0.11c0,0.07,0.01,0.14-0.04,0.18
		H10.9c0,0,0,0.01,0,0.01h-0.09c0,0,0,0.01,0,0.01h-0.02c0-0.04,0.01-0.07,0.01-0.12c-0.01-0.01-0.01-0.02-0.01-0.04
		c-0.01-0.01-0.01-0.01,0-0.02c0.01,0,0.01-0.01,0.02-0.01H10.9z M10.32,5.57c0-0.02,0-0.05,0.02-0.06
		c0.03-0.03,0.09-0.03,0.13-0.05h0.03c-0.01,0.01-0.02,0.04-0.02,0.06c-0.01,0.02-0.01,0.04-0.02,0.06c0,0.02-0.01,0.04-0.02,0.06
		h-0.09C10.32,5.61,10.32,5.61,10.32,5.57z"/>
	<path fill="#FFFFFF" d="M7.63,7.44c0.11-0.04,0.23-0.08,0.33-0.15c0.1-0.06,0.2-0.13,0.29-0.2C8.3,7.05,8.34,7,8.4,6.96
		c0.05-0.04,0.1-0.09,0.14-0.14c0.04-0.05,0.07-0.11,0.1-0.15c0.03-0.04,0.06-0.1,0.06-0.15C8.68,6.4,8.54,6.34,8.45,6.3H8.36
		C8.33,6.33,8.31,6.34,8.29,6.37C8.28,6.39,8.26,6.41,8.25,6.44C8.23,6.49,8.2,6.53,8.17,6.58C8.14,6.62,8.11,6.67,8.08,6.72
		C8.05,6.77,8,6.81,7.97,6.86c-0.07,0.1-0.15,0.19-0.24,0.29C7.68,7.2,7.64,7.25,7.59,7.3C7.57,7.32,7.55,7.34,7.54,7.37
		c-0.01,0.04,0,0.03,0.02,0.07L7.63,7.44L7.63,7.44z"/>
	<path fill="#FFFFFF" d="M7.86,6.22c0,0,0-0.01,0-0.01h0.06c0.18-0.07,0.35-0.15,0.5-0.27C8.46,5.9,8.5,5.85,8.53,5.81
		c0.02-0.04,0.06-0.08,0.04-0.13c-0.01-0.05-0.06-0.09-0.1-0.11C8.43,5.54,8.39,5.53,8.35,5.51H8.26C8.19,5.55,8.16,5.63,8.13,5.69
		C8.09,5.75,8.06,5.81,8.02,5.87C7.97,5.92,7.92,5.98,7.87,6.03C7.84,6.06,7.72,6.16,7.76,6.21h0.01c0,0,0,0.01,0,0.01H7.86z"/>
	<path fill="#FFFFFF" d="M3.18,6.81C3.18,6.83,3.19,6.85,3.2,6.87c0.03,0.08,0.09,0.17,0.18,0.22h0.04c0.09-0.05,0.1-0.13,0.13-0.21
		c0.03-0.07,0.06-0.15,0.08-0.22c0.03-0.14,0.07-0.29,0.07-0.44H3.66c-0.02,0.04-0.07,0.08-0.1,0.11C3.52,6.35,3.48,6.39,3.44,6.43
		C3.38,6.5,3.31,6.6,3.23,6.66C3.2,6.69,3.14,6.7,3.15,6.75C3.16,6.77,3.17,6.8,3.18,6.81z"/>
	<path fill="#FFFFFF" d="M1.02,6.01c0,0,0,0.01,0,0.01H0.94c-0.06,0.03,0.01,0.1,0.03,0.13C1,6.2,1.02,6.24,1.07,6.28h0.08
		C1.16,6.25,1.2,6.24,1.22,6.22c0.02-0.02,0.02-0.04,0.02-0.07c0-0.07-0.04-0.09-0.1-0.12H1.05c0,0,0-0.01,0-0.01L1.02,6.01
		L1.02,6.01z"/>
	<path fill="#FFFFFF" d="M6.16,5.87c0,0,0,0.01,0,0.01h0.01c0.01,0.05,0.04,0.08,0.07,0.12C6.26,6.05,6.3,6.07,6.34,6.09h0.14
		C6.59,6.05,6.7,6.02,6.8,5.98c0.1-0.04,0.21-0.06,0.31-0.1h0.06c0,0,0-0.01,0-0.01h0.07c0,0,0-0.01,0-0.01h0.11c0,0,0-0.01,0-0.01
		H7.6c0,0,0,0.01,0,0.01h0.08c0,0,0,0.01,0,0.01h0.04c0,0,0-0.01,0-0.01h0.04c0,0,0-0.01,0-0.01h0.01C7.78,5.83,7.8,5.82,7.8,5.8
		h0.01c0,0,0-0.01,0-0.01s0-0.01,0-0.01s0-0.01,0-0.01s0-0.01,0-0.01s0-0.01,0-0.01s0-0.01,0-0.01s0-0.01,0-0.01s0-0.01,0-0.01
		C7.8,5.7,7.79,5.69,7.8,5.67H7.78c0-0.03-0.02-0.05-0.03-0.07H7.74C7.73,5.59,7.73,5.59,7.72,5.58H7.7c0,0,0-0.01,0-0.01H7.66
		c0,0,0-0.01,0-0.01H7.63c0,0,0-0.01,0-0.01H7.48c0,0,0,0.01,0,0.01H7.42c0,0,0,0.01,0,0.01H7.37c0,0,0,0.01,0,0.01H7.31
		C7.3,5.59,7.28,5.59,7.27,5.6H7.19c0-0.01,0-0.02,0-0.02C7.18,5.56,7.15,5.52,7.17,5.51h0.17c0,0,0,0.01,0,0.01h0.08
		c0,0,0-0.01,0-0.01h0.02C7.5,5.46,7.52,5.4,7.55,5.33c0,0,0-0.01,0-0.01h0.01c0,0,0-0.01,0-0.01h0.01c0,0,0-0.01,0-0.01
		s0-0.01,0-0.01s0-0.01,0-0.01h0.01c0,0,0-0.01,0-0.01c0.04-0.06,0.06-0.13,0.08-0.2C7.68,5,7.71,4.94,7.71,4.87h0.01
		c0-0.07-0.02-0.14-0.08-0.18H7.63c0,0,0-0.01,0-0.01H7.62c0,0,0-0.01,0-0.01H7.6c0,0,0-0.01,0-0.01H7.58c0,0,0-0.01,0-0.01H7.55
		c0,0,0-0.01,0-0.01H7.53c0,0,0-0.01,0-0.01H7.49c0,0,0-0.01,0-0.01H7.34c0,0,0,0.01,0,0.01H7.28c0,0,0,0.01,0,0.01H7.21
		c0,0,0,0.01,0,0.01H7.14c0,0,0,0.01,0,0.01H7.07c0,0,0,0.01,0,0.01h-0.1c0,0,0,0.01,0,0.01H6.86c0,0,0,0.01,0,0.01H6.64
		C6.6,4.71,6.56,4.72,6.54,4.76C6.52,4.79,6.49,4.83,6.5,4.87c0,0,0,0.01,0,0.01s0,0.01,0,0.01H6.49c0,0,0,0.01,0,0.01
		s0,0.01,0,0.01s0,0.01,0,0.01c0,0.04,0,0.07,0,0.11c0,0.06,0.02,0.12,0.02,0.18c0,0,0,0.01,0,0.01s0,0.01,0,0.01s0,0.01,0,0.01
		h0.01c0,0.04,0.01,0.06,0.01,0.09h0.01C6.54,5.36,6.56,5.4,6.56,5.42c0,0.01,0.01,0.04,0.01,0.05C6.58,5.49,6.6,5.48,6.6,5.51h0.01
		c0.02,0.03,0.05,0.05,0.08,0.07h0.03c0,0,0,0.01,0,0.01h0.12c0,0,0-0.01,0-0.01h0.06C6.9,5.59,6.9,5.59,6.9,5.6h0.01
		c0.01,0.03,0.06,0.05,0.02,0.07H6.88C6.85,5.68,6.82,5.7,6.79,5.71H6.74c0,0,0,0.01,0,0.01H6.68c0,0,0,0.01,0,0.01H6.63
		c0,0,0,0.01,0,0.01H6.57c0,0,0,0.01,0,0.01H6.51c0,0,0,0.01,0,0.01H6.44c0,0,0,0.01,0,0.01H6.37c0,0,0,0.01,0,0.01H6.28
		c0,0,0,0.01,0,0.01H6.19C6.17,5.81,6.15,5.82,6.16,5.85c0,0,0,0.01,0,0.01C6.16,5.86,6.16,5.87,6.16,5.87z M6.83,5.29
		c0-0.02-0.02-0.03-0.01-0.05h0.07c0,0,0-0.01,0-0.01h0.07c0,0,0-0.01,0-0.01h0.07c0,0,0-0.01,0-0.01h0.06
		C7.11,5.19,7.16,5.18,7.2,5.16c0.04-0.03,0.06-0.09,0.02-0.13H7.21c0,0,0-0.01,0-0.01s0-0.01,0-0.01H7.19c0,0,0-0.01,0-0.01H7.18
		c0,0,0-0.01,0-0.01H7.15c0,0,0-0.01,0-0.01h-0.1c0,0,0,0.01,0,0.01H6.99c0,0,0,0.01,0,0.01H6.94c0,0,0,0.01,0,0.01H6.88
		c0,0,0,0.01,0,0.01H6.83c0,0,0,0.01,0,0.01H6.79c0-0.02,0-0.04,0-0.06c0-0.03-0.02,0,0-0.03c0-0.01,0.03-0.01,0.03-0.01h0.07
		c0,0,0-0.01,0-0.01h0.08c0,0,0-0.01,0-0.01h0.1c0,0,0-0.01,0-0.01h0.09c0,0,0-0.01,0-0.01h0.13c0,0,0-0.01,0-0.01h0.08
		c0,0.07-0.02,0.13-0.03,0.2C7.33,5.1,7.32,5.14,7.31,5.17C7.3,5.2,7.29,5.23,7.29,5.26H7.23c0,0,0,0.01,0,0.01H7.18
		c0,0,0,0.01,0,0.01H7.1c0,0,0,0.01,0,0.01H7.04c0,0,0,0.01,0,0.01h-0.1c0,0,0,0.01,0,0.01h-0.1c0,0,0,0.01,0,0.01H6.83
		C6.83,5.32,6.83,5.3,6.83,5.29z"/>
	<path fill="#FFFFFF" d="M3.19,5.65c0,0,0,0.01,0,0.01H3.14C3.09,5.69,3.07,5.72,3.11,5.77c0.03,0.04,0.07,0.08,0.1,0.12
		c0.07,0.08,0.12,0.17,0.21,0.22h0.03c0.1-0.05,0.11-0.13,0.11-0.23c0-0.03,0-0.04-0.01-0.06c-0.01-0.02,0-0.04-0.01-0.06
		C3.52,5.71,3.48,5.7,3.44,5.66H3.38c0,0,0-0.01,0-0.01H3.19z"/>
	<path fill="#FFFFFF" d="M5.64,5.16C5.63,5.13,5.62,5.1,5.61,5.08C5.59,5.06,5.57,5.06,5.55,5.03H5.53c0,0,0-0.01,0-0.01H5.52
		c0,0,0-0.01,0-0.01H5.5C5.47,4.98,5.42,4.96,5.39,4.95H5.32C5.26,4.97,5.2,4.98,5.14,5.01H5.08c0,0,0,0.01,0,0.01h-0.1
		c0,0,0,0.01,0,0.01H4.81c-0.06,0.03-0.09,0.06-0.1,0.12c-0.01,0.05,0,0.1,0,0.15c0.03,0.03,0.01,0.09,0.01,0.12
		C4.73,5.46,4.74,5.5,4.74,5.54c0,0.05,0.01,0.09,0.01,0.13c0,0.04,0,0.09,0,0.13c0,0.04,0,0.09,0,0.13c0,0.05-0.01,0.09-0.01,0.13
		c0,0.05-0.01,0.09-0.01,0.13c0,0.05,0,0.09-0.01,0.14C4.71,6.4,4.69,6.45,4.69,6.49C4.68,6.54,4.67,6.58,4.66,6.63
		C4.63,6.72,4.6,6.81,4.57,6.9C4.55,6.94,4.53,6.99,4.51,7.03C4.49,7.07,4.43,7.12,4.44,7.17H4.5c0.12-0.05,0.23-0.12,0.32-0.23
		C4.89,6.84,4.94,6.73,4.98,6.6C4.99,6.58,5,6.54,5,6.52c0-0.03,0-0.06,0.01-0.08c0.02-0.03,0.11-0.05,0.15-0.07
		c0.05-0.03,0.08-0.09,0.08-0.15c-0.01-0.08-0.03-0.11-0.1-0.13H5.06c0-0.05-0.01-0.1,0-0.15c0-0.02,0.01-0.06,0.02-0.07
		c0.02-0.01,0.05-0.02,0.07-0.03c0.1-0.06,0.14-0.21,0.03-0.29H5.09c0-0.04,0-0.09,0-0.13c0-0.02,0-0.04,0-0.06
		C5.09,5.32,5.11,5.32,5.13,5.3h0.1c0.02,0.02,0.02,0.06,0.02,0.09c0,0.03,0,0.06,0,0.09c0,0.06,0,0.12,0,0.18c0,0.21,0,0.42,0,0.64
		c0,0.11,0,0.21,0,0.32c0,0.05,0,0.11,0,0.16c0,0.06,0,0.1-0.03,0.15H5.14c-0.03-0.02-0.07-0.03-0.1-0.05H5.01C5,6.89,5,6.91,5,6.92
		c0,0.02,0.01,0.04,0.02,0.06C5.03,7,5.04,7.02,5.05,7.04c0.02,0.04,0.04,0.08,0.07,0.12C5.17,7.23,5.25,7.3,5.33,7.34h0.09
		C5.5,7.3,5.55,7.22,5.57,7.14C5.59,7.07,5.61,7,5.61,6.92c0-0.12,0-0.24,0-0.36c0-0.21,0-0.42,0-0.64c0-0.06,0.01-0.1,0.01-0.16
		c0-0.05,0-0.11,0-0.16c0-0.03,0.01-0.05,0.01-0.09c0-0.03,0-0.05,0-0.08c0-0.03,0.01-0.05,0.01-0.08c0-0.02,0-0.05,0-0.07
		c0-0.02,0.01-0.05,0.01-0.07C5.65,5.2,5.65,5.18,5.64,5.16z"/>
	<path fill="#FFFFFF" d="M3.81,5.11C3.8,5.07,3.79,5.02,3.77,4.99C3.74,4.95,3.69,4.93,3.65,4.91H3.6c0,0,0-0.01,0-0.01H3.42
		c0,0,0,0.01,0,0.01H3.36C3.31,4.95,3.32,4.98,3.34,5.03c0.02,0.04,0.04,0.08,0.07,0.12c0.06,0.08,0.12,0.15,0.21,0.2h0.07
		C3.76,5.3,3.82,5.2,3.81,5.11z"/>
	<path fill="#FFFFFF" d="M5.09,4.75c0,0,0-0.01,0-0.01s0-0.01,0-0.01H5c0,0,0,0.01,0,0.01h0.06c0,0,0,0.01,0,0.01H5.09z"/>
	<path fill="#FFFFFF" d="M9.69,5.64C9.69,5.63,9.7,5.61,9.71,5.6c0.03-0.06,0.07-0.11,0.1-0.16C9.83,5.4,9.85,5.38,9.86,5.35
		C9.88,5.32,9.91,5.3,9.92,5.27c0.03-0.06,0.07-0.11,0.1-0.16c0.03-0.05,0.05-0.1,0.02-0.16c-0.05-0.12-0.2-0.16-0.31-0.22h-0.1
		C9.6,4.75,9.59,4.77,9.58,4.8c0,0.01-0.01,0.02-0.01,0.04c0,0.01-0.01,0.03-0.01,0.04c-0.01,0.06-0.02,0.1-0.03,0.15
		c-0.03,0.1-0.05,0.2-0.1,0.3c-0.05,0.1-0.08,0.2-0.13,0.3C9.29,5.63,9.28,5.65,9.27,5.65C9.26,5.67,9.26,5.68,9.25,5.7
		C9.23,5.72,9.22,5.75,9.2,5.77C9.18,5.82,9.14,5.87,9.12,5.92C9.09,5.96,9.06,5.99,9.04,6.03C9.02,6.06,8.98,6.1,9.01,6.14h0.04
		c0.06-0.03,0.12-0.05,0.18-0.09c0.05-0.03,0.13-0.08,0.17-0.13h0.02c0,0.11,0,0.23,0,0.34c0,0.06,0,0.12,0,0.18
		c0,0.03,0,0.06,0,0.09c0,0.03,0.01,0.05,0.01,0.08c0,0.11-0.02,0.24,0,0.35c0,0.03,0.01,0.05,0.01,0.08c0,0.04,0,0.06,0.01,0.09
		C9.46,7.17,9.47,7.2,9.49,7.22c0.03,0.03,0.06,0.04,0.09,0.06H9.7c0.03-0.02,0.07-0.04,0.08-0.08c0.01-0.02,0-0.06,0-0.08
		c0-0.06,0-0.12,0-0.18c0-0.11,0-0.23,0-0.34c0-0.23,0-0.46,0-0.69h0.01C9.78,5.86,9.77,5.8,9.74,5.75
		C9.73,5.72,9.69,5.71,9.68,5.68C9.67,5.65,9.67,5.67,9.69,5.64z"/>
	<path fill="#FFFFFF" d="M5.14,4.71H5.1c0,0.01,0.01,0.02,0.01,0.02h0.04C5.15,4.73,5.15,4.72,5.14,4.71z"/>
	<path fill="#FFFFFF" d="M8.32,4.66H8.27C8.24,4.68,8.21,4.7,8.19,4.74C8.18,4.78,8.16,4.81,8.15,4.85
		c-0.03,0.07-0.08,0.14-0.12,0.2c-0.04,0.07-0.09,0.14-0.15,0.2C7.85,5.28,7.82,5.32,7.79,5.36C7.76,5.39,7.76,5.42,7.8,5.45h0.08
		c0.09-0.04,0.19-0.06,0.28-0.11c0.1-0.06,0.19-0.13,0.27-0.2C8.49,5.07,8.6,4.94,8.57,4.85C8.53,4.73,8.42,4.71,8.32,4.66z"/>
	<path fill="#FFFFFF" d="M9.67,2.78C9.67,2.78,9.67,2.78,9.67,2.78C9.67,2.78,9.67,2.78,9.67,2.78z"/>
</g>
</svg>
