<svg xmlns="http://www.w3.org/2000/svg" viewBox="0 0 14 14" aria-labelledby="title" width="1em" height="1em" stroke="currentColor" stroke-width="1.75">
  <title id="title">Segmentation</title>
  <path d="M12 7.23333C11.9333 7.23333 11.8 7.3 11.7333 7.36667L11.0667 8.03333L12.4667 9.43333L13.1333 8.76667C13.2667 8.63333 13.2667 8.36667 13.1333 8.23333L12.2667 7.36667C12.2 7.3 12.1333 7.23333 12 7.23333ZM10.7333 8.43333L6.66667 12.4333V13.8333H8.06667L12.1333 9.76667L10.7333 8.43333ZM12 0.5H6.66667V4.5H12V0.5ZM10.6667 3.16667H8V1.83333H10.6667V3.16667ZM6.66667 10.54V5.83333H12V5.9C11.4933 5.9 11.0467 6.16667 10.7933 6.42667L10.0467 7.16667H8V9.21333L6.66667 10.54ZM5.33333 0.5H0V7.16667H5.33333V0.5ZM4 5.83333H1.33333V1.83333H4V5.83333ZM5.33333 11.8733V8.5H0V12.5H5.33333V11.8733ZM4 11.1667H1.33333V9.83333H4V11.1667Z" />
</svg>
