<svg
  xmlns="http://www.w3.org/2000/svg"
  viewBox="0 0 25 26"
  aria-labelledby="title"
  width="1em"
  height="1em"
  stroke="currentColor"
  stroke-width="1.5"
  fill="none"
  fill-rule="evenodd"
  stroke-linecap="round"
  stroke-linejoin="round"
>
  <title id="title">Soft Tissue</title>
  <path d="M14.967698,4.34501388 C15.2550298,4.40495392 15.4415328,4.45457827 15.49227,4.47472995 L18.99227,5.87472995 C19.9229327,6.24535421 20.6071984,7.05604396 20.81627,8.03572995 L22.9240586,12.8507299 C22.9557821,12.9984259 22.9190298,13.1525467 22.8240697,13.2700332 C22.7291096,13.3875196 22.5861231,13.4557751 22.4350586,13.4557299 L19.8300586,13.4557299 C19.59777,13.4558087 19.3960204,13.2959003 19.3430586,13.0697299 C18.4206468,11.3443101 17.9482939,10.4360314 17.926,10.3448938 C17.8925591,10.2081875 16.5995878,10.2646269 16.459794,10.2808938 C16.3200002,10.2971607 16.2142084,10.4149977 16.2130513,10.5557299 L17.00127,20.3677299 C17.00127,20.3924522 16.9994757,20.4167554 16.9960103,20.4405163 L17.339103,24.2068239 C17.3452344,24.3460372 17.2941797,24.4817044 17.197789,24.5823363 C17.1013983,24.6829682 16.9680538,24.7398138 16.8287056,24.7396788 L13.9563203,24.7396788 C13.6914418,24.7407536 13.46976,24.5390231 13.4459229,24.2752171 L12.8473618,20.8677299 L10.1448444,20.8677299 L9.49110077,24.2803211 C9.46701518,24.5439249 9.24540292,24.7453704 8.98070334,24.7442724 L6.11087007,24.7442724 C5.97161444,24.7444012 5.83835272,24.6876252 5.74197794,24.5871063 C5.64560316,24.4865874 5.59448459,24.3510547 5.60047264,24.2119279 L6.14951108,15.8281788 L6.32074271,10.6197299 C6.31958556,10.4789977 6.21379378,10.3611607 6.074,10.3448938 C5.93420622,10.3286269 4.85576757,10.2964486 4.82232666,10.433155 L3.7992041,13.0707299 C3.74559243,13.2975992 3.54231637,13.4573161 3.3092041,13.4557299 L0.709204102,13.4557299 C0.557909896,13.4562444 0.414519128,13.3882257 0.319204102,13.2707299 C0.224030189,13.1530765 0.187261793,12.9986492 0.219204102,12.8507299 L2.18526996,8.03772995 C2.39454762,7.05764471 3.08031159,6.24726462 4.01226996,5.87872995 L7.51226996,4.47872995 C7.56317342,4.45842417 7.74746599,4.41024276 8.03238467,4.35190973 L8.61849365,0.987915039 C9.55902913,1.39587402 10.4626872,1.59985352 11.3294678,1.59985352 C12.1962484,1.59985352 13.0229899,1.39587402 13.8096924,0.987915039 L14.967698,4.34501388 Z" />
</svg>
