<svg xmlns="http://www.w3.org/2000/svg" viewBox="0 0 12 11" aria-labelledby="title" width="1em" height="1em" stroke="currentColor" stroke-width="1.75">
  <title id="title">Studylist</title>
  <path d="M12 10.1666V8.83329H3.33333V10.1666H12ZM12 6.16663V4.83329H3.33333V6.16663H12ZM3.33333 2.16663H12V0.833293H3.33333V2.16663ZM0.666667 0.833293V2.16663H2V0.833293H0.666667ZM0 0.833293C0 0.656482 0.0702379 0.486913 0.195262 0.361888C0.320286 0.236864 0.489856 0.166626 0.666667 0.166626H2C2.17681 0.166626 2.34638 0.236864 2.4714 0.361888C2.59643 0.486913 2.66667 0.656482 2.66667 0.833293V2.16663C2.66667 2.34344 2.59643 2.51301 2.4714 2.63803C2.34638 2.76305 2.17681 2.83329 2 2.83329H0.666667C0.489856 2.83329 0.320286 2.76305 0.195262 2.63803C0.0702379 2.51301 0 2.34344 0 2.16663V0.833293ZM0.666667 4.83329V6.16663H2V4.83329H0.666667ZM0 4.83329C0 4.65648 0.0702379 4.48691 0.195262 4.36189C0.320286 4.23686 0.489856 4.16663 0.666667 4.16663H2C2.17681 4.16663 2.34638 4.23686 2.4714 4.36189C2.59643 4.48691 2.66667 4.65648 2.66667 4.83329V6.16663C2.66667 6.34344 2.59643 6.51301 2.4714 6.63803C2.34638 6.76305 2.17681 6.83329 2 6.83329H0.666667C0.489856 6.83329 0.320286 6.76305 0.195262 6.63803C0.0702379 6.51301 0 6.34344 0 6.16663V4.83329ZM0.666667 8.83329V10.1666H2V8.83329H0.666667ZM0 8.83329C0 8.65648 0.0702379 8.48691 0.195262 8.36189C0.320286 8.23686 0.489856 8.16663 0.666667 8.16663H2C2.17681 8.16663 2.34638 8.23686 2.4714 8.36189C2.59643 8.48691 2.66667 8.65648 2.66667 8.83329V10.1666C2.66667 10.3434 2.59643 10.513 2.4714 10.638C2.34638 10.7631 2.17681 10.8333 2 10.8333H0.666667C0.489856 10.8333 0.320286 10.7631 0.195262 10.638C0.0702379 10.513 0 10.3434 0 10.1666V8.83329Z" />
</svg>
