<svg xmlns="http://www.w3.org/2000/svg" viewBox="0 0 16 14" aria-labelledby="title" width="1em" height="1em" stroke="currentColor" stroke-width="1.75">
  <title id="title">View</title>
  <path d="M8.00008 3.5C8.53051 3.5 9.03922 3.71071 9.4143 4.08579C9.78937 4.46086 10.0001 4.96957 10.0001 5.5C10.0001 6.03043 9.78937 6.53914 9.4143 6.91421C9.03922 7.28929 8.53051 7.5 8.00008 7.5C7.46965 7.5 6.96094 7.28929 6.58587 6.91421C6.21079 6.53914 6.00008 6.03043 6.00008 5.5C6.00008 4.96957 6.21079 4.46086 6.58587 4.08579C6.96094 3.71071 7.46965 3.5 8.00008 3.5ZM8.00008 0.5C11.2401 0.5 14.1467 2.5 15.3334 5.5C13.7401 9.55333 9.16675 11.54 5.11341 9.94667C3.08008 9.14667 1.46675 7.54 0.666748 5.5C1.85341 2.5 4.76008 0.5 8.00008 0.5ZM2.12008 5.5C3.70675 8.74667 7.63341 10.0933 10.8801 8.5C12.1856 7.86112 13.2412 6.80556 13.8801 5.5C12.2934 2.25333 8.36675 0.906667 5.12008 2.5C3.81452 3.13888 2.75897 4.19444 2.12008 5.5ZM6.00008 12.1667H4.66675V13.5H6.00008V12.1667ZM8.66675 12.1667H7.33342V13.5H8.66675V12.1667ZM11.3334 12.1667H10.0001V13.5H11.3334V12.1667Z" />
</svg>
