<svg xmlns="http://www.w3.org/2000/svg"
	xmlns:xlink="http://www.w3.org/1999/xlink"
	version="1.0" x="0px" y="0px"
	enable-background="new 0 0 100 100" xml:space="preserve">
  <symbol id="icon-1" viewBox="0 0 100 100">
	<path d="M78.129,78.325L65.121,61.063c8.65-8.773,9.834-22.812,2.203-32.938   c-4.822-6.396-12.186-10.064-20.203-10.064c-5.52,0-10.775,1.762-15.195,5.092c-11.131,8.393-13.361,24.271-4.975,35.396   c4.822,6.396,12.186,10.066,20.205,10.066c4.74,0,9.25-1.373,13.242-3.848l12.938,17.17L78.129,78.325z M31.742,54.938   c-6.395-8.484-4.693-20.594,3.793-26.992c3.373-2.541,7.379-3.885,11.586-3.885c6.117,0,11.734,2.799,15.41,7.676   c6.398,8.49,4.697,20.6-3.793,26.996c-3.369,2.541-7.375,3.883-11.582,3.883C41.039,62.616,35.42,59.819,31.742,54.938z">
	</path>
  </symbol>
</svg>