<svg width="317" height="33" viewBox="0 0 317 33" fill="none" xmlns="http://www.w3.org/2000/svg">
<g clip-path="url(#clip0_5_1857)">
<path d="M36.0015 22.176V23.364H32.5602V26.136H35.6045V27.324H32.5602V30.756H31.1042V22.308H36.0015V22.176Z" fill="white"/>
<path d="M39.5753 30.8881C37.7222 30.8881 36.531 29.8321 36.531 27.5881C36.531 25.4761 37.5899 24.2881 39.5753 24.2881C41.4283 24.2881 42.6195 25.3441 42.6195 27.5881C42.6195 29.7001 41.5606 30.8881 39.5753 30.8881ZM41.0312 27.5881C41.0312 26.1361 40.5018 25.3441 39.5753 25.3441C38.5164 25.3441 38.1193 26.2681 38.1193 27.5881C38.1193 29.0401 38.6488 29.8321 39.5753 29.8321C40.6341 29.8321 41.0312 28.9081 41.0312 27.5881Z" fill="white"/>
<path d="M48.3109 30.6241L48.0462 29.5681C47.9139 30.2281 47.2521 30.7561 46.1932 30.7561C45.2667 30.7561 44.7372 30.3601 44.4725 29.9641C44.0754 29.4361 44.0754 28.7761 44.0754 27.9841V24.2881H45.5314V27.9841C45.5314 28.3801 45.5314 28.6441 45.7961 29.0401C46.0608 29.3041 46.3255 29.4361 46.855 29.4361C47.9139 29.4361 48.0462 28.5121 48.0462 28.1161V24.2881H49.5022V30.4921H48.3109V30.6241Z" fill="white"/>
<path d="M52.4141 24.4201L52.6788 25.4761C52.9435 24.8161 53.473 24.2881 54.5318 24.2881C55.4584 24.2881 55.9878 24.6841 56.3849 25.0801C56.7819 25.6081 56.7819 26.2681 56.7819 26.9281V30.6241H55.326V26.9281C55.326 26.5321 55.326 26.2681 55.0613 25.8721C54.7966 25.6081 54.5318 25.4761 54.1348 25.4761C53.0759 25.4761 52.8112 26.4001 52.8112 26.7961V30.6241H51.3552V24.4201H52.4141Z" fill="white"/>
<path d="M64.0616 21.9121V30.7561H62.8704L62.6057 29.7001C62.4733 30.3601 61.8115 30.8881 60.7527 30.8881C59.032 30.8881 58.1055 29.5681 58.1055 27.7201C58.1055 25.7401 59.032 24.4201 60.885 24.4201C61.8115 24.4201 62.341 24.8161 62.6057 25.4761V21.9121H64.0616ZM59.6938 27.5881C59.6938 28.7761 60.0909 29.7001 61.1497 29.7001C62.2086 29.7001 62.6057 28.7761 62.6057 27.5881C62.6057 26.4001 62.2086 25.4761 61.1497 25.4761C60.0909 25.4761 59.6938 26.4001 59.6938 27.5881Z" fill="white"/>
<path d="M67.5029 22.704C67.5029 23.232 67.1059 23.628 66.5764 23.628C66.047 23.628 65.6499 23.232 65.6499 22.704C65.6499 22.176 66.047 21.78 66.5764 21.78C67.1059 21.78 67.5029 22.176 67.5029 22.704ZM67.3706 24.42V25.476V30.756H65.9146V24.552H67.3706V24.42Z" fill="white"/>
<path d="M70.2825 24.4201L70.5472 25.4761C70.8119 24.8161 71.3414 24.2881 72.4003 24.2881C73.3268 24.2881 73.8562 24.6841 74.2533 25.0801C74.6504 25.6081 74.6504 26.2681 74.6504 26.9281V30.6241H73.1944V26.9281C73.1944 26.5321 73.1944 26.2681 72.9297 25.8721C72.665 25.6081 72.4003 25.4761 72.0032 25.4761C70.9443 25.4761 70.6796 26.4001 70.6796 26.7961V30.6241H69.2236V24.4201H70.2825Z" fill="white"/>
<path d="M78.7535 28.3801C78.4888 28.3801 78.2241 28.3801 77.9593 28.2481C77.827 28.3801 77.6946 28.5121 77.6946 28.7761C77.6946 29.3041 78.224 29.3041 78.4888 29.3041H79.4153C80.2094 29.3041 81.9301 29.3041 81.9301 31.0201C81.9301 32.3401 80.8712 33.1321 78.6211 33.1321C76.6357 33.1321 75.7092 32.6041 75.7092 31.6801C75.7092 30.6241 76.9005 30.4921 76.9005 30.4921C76.9005 30.4921 76.1063 30.2281 76.1063 29.4361C76.1063 28.6441 76.9005 28.3801 77.2975 28.2481C76.6357 27.8521 76.2387 27.3241 76.2387 26.5321C76.2387 25.3441 77.2975 24.5521 78.7535 24.5521C79.5476 24.5521 80.2094 24.6841 80.6065 25.0801C80.8712 24.2881 81.533 24.2881 81.9301 24.2881H82.0625V25.4761C82.0625 25.4761 81.7977 25.4761 81.533 25.4761C81.2683 25.4761 81.136 25.4761 81.0036 25.6081C81.136 25.8721 81.2683 26.2681 81.2683 26.6641C81.2683 27.5881 80.3418 28.3801 78.7535 28.3801ZM77.4299 30.4921C77.4299 30.4921 77.0328 30.7561 77.0328 31.2841C77.0328 31.8121 77.5623 32.0761 78.6211 32.0761C79.8124 32.0761 80.4742 31.8121 80.4742 31.1521C80.4742 30.4921 79.68 30.4921 79.2829 30.4921H77.4299ZM79.8124 26.2681C79.8124 25.6081 79.4153 25.3441 78.7535 25.3441C78.0917 25.3441 77.6946 25.7401 77.6946 26.2681C77.6946 26.9281 78.0917 27.1921 78.7535 27.1921C79.4153 27.3241 79.8124 26.9281 79.8124 26.2681Z" fill="white"/>
<path d="M88.4158 22.176L91.1953 28.644L93.8425 22.176H95.6955V30.624H94.2396V24.024L91.7248 30.228H90.4012L87.8863 24.024V30.624H86.5627V22.176H88.4158Z" fill="white"/>
<path d="M102.313 30.4921C102.313 30.4921 101.519 30.7561 100.328 30.7561C99.1368 30.7561 98.475 30.4921 97.9455 29.9641C97.4161 29.4361 97.1514 28.6441 97.1514 27.5881C97.1514 25.6081 98.2102 24.2881 100.063 24.2881C101.122 24.2881 101.916 24.6841 102.313 25.3441C102.71 26.0041 102.71 26.9281 102.71 27.9841H98.7397C98.7397 29.0401 99.4015 29.7001 100.593 29.7001C101.519 29.7001 102.313 29.3041 102.313 29.3041H102.446V30.4921H102.313ZM101.254 26.9281C101.254 25.8721 100.99 25.3441 100.063 25.3441C99.1367 25.3441 98.872 26.0041 98.7397 26.9281H101.254Z" fill="white"/>
<path d="M105.358 24.4201L105.622 25.4761C105.755 24.8161 106.284 24.2881 107.475 24.2881C108.534 24.2881 109.064 24.8161 109.328 25.4761C109.593 24.6841 110.255 24.2881 111.181 24.2881C112.108 24.2881 112.637 24.6841 112.902 25.0801C113.299 25.6081 113.299 26.2681 113.299 26.9281V30.6241H111.843V26.9281C111.843 26.5321 111.843 26.2681 111.711 25.8721C111.579 25.6081 111.314 25.4761 110.784 25.4761C109.726 25.4761 109.593 26.4001 109.593 26.7961V30.6241H108.137V26.9281C108.137 26.5321 108.137 26.2681 108.005 25.8721C107.872 25.6081 107.608 25.4761 107.078 25.4761C106.019 25.4761 105.887 26.4001 105.887 26.7961V30.6241H104.431V24.4201H105.358Z" fill="white"/>
<path d="M116.476 21.9121V25.6081C116.741 24.9481 117.27 24.4201 118.329 24.4201C119.917 24.4201 120.976 25.6081 120.976 27.5881C120.976 29.7001 119.917 30.8881 118.197 30.8881C117.27 30.8881 116.608 30.4921 116.344 29.8321L115.947 30.7561H115.02V21.9121H116.476ZM116.476 27.5881C116.476 28.7761 116.873 29.7001 117.932 29.7001C118.991 29.7001 119.388 28.7761 119.388 27.5881C119.388 26.4001 118.991 25.4761 117.932 25.4761C116.873 25.4761 116.476 26.4001 116.476 27.5881Z" fill="white"/>
<path d="M127.197 30.4921C127.197 30.4921 126.403 30.7561 125.212 30.7561C124.02 30.7561 123.359 30.4921 122.829 29.9641C122.3 29.4361 122.035 28.6441 122.035 27.5881C122.035 25.6081 123.094 24.2881 124.947 24.2881C126.006 24.2881 126.8 24.6841 127.197 25.3441C127.594 26.0041 127.594 26.9281 127.594 27.9841H123.623C123.623 29.0401 124.285 29.7001 125.476 29.7001C126.403 29.7001 127.197 29.3041 127.197 29.3041H127.329V30.4921H127.197ZM126.006 26.9281C126.006 25.8721 125.741 25.3441 124.814 25.3441C123.888 25.3441 123.623 26.0041 123.491 26.9281H126.006Z" fill="white"/>
<path d="M132.624 25.74C132.624 25.74 132.359 25.608 131.962 25.608C130.638 25.608 130.638 26.532 130.638 27.06V30.492H129.182V24.288H130.374L130.638 25.476C130.903 24.42 131.697 24.156 132.491 24.156H132.624V25.74Z" fill="white"/>
<path d="M134.212 29.1721L133.285 32.3401H132.227L132.756 29.1721H134.212Z" fill="white"/>
<path d="M140.83 22.176L143.609 28.644L146.257 22.176H148.11V30.624H146.654V24.024L144.139 30.228H142.815L140.3 24.024V30.624H138.977V22.176H140.83Z" fill="white"/>
<path d="M150.227 24.6839C150.227 24.6839 151.022 24.4199 152.213 24.4199C153.139 24.4199 153.933 24.5519 154.463 25.2119C154.86 25.7399 154.86 26.2679 154.86 26.9279V29.0399C154.86 29.3039 154.86 29.6999 155.389 29.6999C155.522 29.6999 155.654 29.6999 155.654 29.6999V30.7559C155.654 30.7559 155.257 30.8879 154.86 30.8879C154.066 30.8879 153.536 30.6239 153.536 29.8319C153.272 30.4919 152.61 31.0199 151.683 31.0199C150.492 31.0199 149.698 30.2279 149.698 29.1719C149.698 27.8519 150.757 27.1919 152.742 27.1919C153.139 27.1919 153.272 27.1919 153.272 27.1919C153.272 26.6639 153.272 26.3999 153.139 26.1359C153.007 25.8719 152.61 25.7399 152.08 25.7399C151.154 25.7399 150.36 26.0039 150.36 26.0039H150.227V24.6839ZM151.948 29.6999C152.345 29.6999 152.742 29.4359 153.007 29.1719C153.272 28.7759 153.272 28.3799 153.272 28.1159V27.9839H152.875C152.213 27.9839 151.022 27.9839 151.022 28.9079C151.154 29.3039 151.419 29.6999 151.948 29.6999Z" fill="white"/>
<path d="M160.551 25.7401C160.419 25.7401 159.625 25.4761 158.963 25.4761C158.301 25.4761 158.037 25.7401 158.037 26.0041C158.037 26.9281 160.816 26.6641 160.816 28.7761C160.816 30.0961 159.757 30.6241 158.301 30.6241C157.242 30.6241 156.581 30.3601 156.581 30.3601V29.1721H156.713C156.713 29.1721 157.639 29.5681 158.434 29.5681C159.095 29.5681 159.36 29.3041 159.36 28.9081C159.36 27.8521 156.581 28.1161 156.581 26.1361C156.581 24.9481 157.507 24.2881 159.095 24.2881C160.022 24.2881 160.684 24.5521 160.684 24.5521V25.7401H160.551Z" fill="white"/>
<path d="M165.846 25.7401C165.713 25.7401 164.919 25.4761 164.257 25.4761C163.596 25.4761 163.331 25.7401 163.331 26.0041C163.331 26.9281 166.11 26.6641 166.11 28.7761C166.11 30.0961 165.052 30.6241 163.596 30.6241C162.537 30.6241 161.875 30.3601 161.875 30.3601V29.1721H162.007C162.007 29.1721 162.934 29.5681 163.728 29.5681C164.39 29.5681 164.655 29.3041 164.655 28.9081C164.655 27.8521 161.875 28.1161 161.875 26.1361C161.875 24.9481 162.802 24.2881 164.39 24.2881C165.316 24.2881 165.978 24.5521 165.978 24.5521V25.7401H165.846Z" fill="white"/>
<path d="M177.361 26.1359V30.3599C177.361 30.3599 176.302 30.7559 174.714 30.7559C172.067 30.7559 170.346 29.4359 170.346 26.3999C170.346 23.3639 172.199 22.0439 174.979 22.0439C176.17 22.0439 177.096 22.3079 177.096 22.3079V23.4959H176.964C176.964 23.4959 176.037 23.0999 174.979 23.0999C173.125 23.0999 171.934 24.1559 171.934 26.2679C171.934 28.3799 173.125 29.5679 174.714 29.5679C175.376 29.5679 175.773 29.4359 175.773 29.4359V27.1919H174.317V26.0039H177.361V26.1359Z" fill="white"/>
<path d="M183.847 30.4921C183.847 30.4921 183.052 30.7561 181.861 30.7561C180.67 30.7561 180.008 30.4921 179.479 29.9641C178.949 29.4361 178.685 28.6441 178.685 27.5881C178.685 25.6081 179.743 24.2881 181.596 24.2881C182.655 24.2881 183.449 24.6841 183.847 25.3441C184.244 26.0041 184.244 26.9281 184.244 27.9841H180.273C180.273 29.0401 180.935 29.7001 182.126 29.7001C183.052 29.7001 183.847 29.3041 183.847 29.3041H183.979V30.4921H183.847ZM182.655 26.9281C182.655 25.8721 182.391 25.3441 181.464 25.3441C180.538 25.3441 180.273 26.0041 180.141 26.9281H182.655Z" fill="white"/>
<path d="M186.891 24.4201L187.156 25.4761C187.42 24.8161 187.95 24.2881 189.009 24.2881C189.935 24.2881 190.465 24.6841 190.862 25.0801C191.259 25.6081 191.259 26.2681 191.259 26.9281V30.6241H189.803V26.9281C189.803 26.5321 189.803 26.2681 189.538 25.8721C189.273 25.6081 189.009 25.4761 188.612 25.4761C187.553 25.4761 187.288 26.4001 187.288 26.7961V30.6241H185.832V24.4201H186.891Z" fill="white"/>
<path d="M197.744 30.4921C197.744 30.4921 196.95 30.7561 195.759 30.7561C194.568 30.7561 193.906 30.4921 193.376 29.9641C192.847 29.4361 192.582 28.6441 192.582 27.5881C192.582 25.6081 193.641 24.2881 195.494 24.2881C196.553 24.2881 197.347 24.6841 197.744 25.3441C198.141 26.0041 198.141 26.9281 198.141 27.9841H194.171C194.171 29.0401 194.832 29.7001 196.024 29.7001C196.95 29.7001 197.744 29.3041 197.744 29.3041H197.877V30.4921H197.744ZM196.553 26.9281C196.553 25.8721 196.288 25.3441 195.362 25.3441C194.435 25.3441 194.171 26.0041 194.038 26.9281H196.553Z" fill="white"/>
<path d="M203.039 25.74C203.039 25.74 202.774 25.608 202.377 25.608C201.053 25.608 201.053 26.532 201.053 27.06V30.492H199.597V24.288H200.789L201.053 25.476C201.318 24.42 202.112 24.156 202.906 24.156H203.039V25.74Z" fill="white"/>
<path d="M204.23 24.6839C204.23 24.6839 205.024 24.4199 206.215 24.4199C207.142 24.4199 207.936 24.5519 208.465 25.2119C208.862 25.7399 208.862 26.2679 208.862 26.9279V29.0399C208.862 29.3039 208.862 29.6999 209.392 29.6999C209.524 29.6999 209.657 29.6999 209.657 29.6999V30.7559C209.657 30.7559 209.26 30.8879 208.862 30.8879C208.068 30.8879 207.539 30.6239 207.539 29.8319C207.274 30.4919 206.612 31.0199 205.686 31.0199C204.495 31.0199 203.7 30.2279 203.7 29.1719C203.7 27.8519 204.759 27.1919 206.745 27.1919C207.142 27.1919 207.274 27.1919 207.274 27.1919C207.274 26.6639 207.274 26.3999 207.142 26.1359C207.009 25.8719 206.612 25.7399 206.083 25.7399C205.156 25.7399 204.362 26.0039 204.362 26.0039H204.23V24.6839ZM205.951 29.6999C206.348 29.6999 206.745 29.4359 207.009 29.1719C207.274 28.7759 207.274 28.3799 207.274 28.1159V27.9839H206.877C206.215 27.9839 205.024 27.9839 205.024 28.9079C205.156 29.3039 205.421 29.6999 205.951 29.6999Z" fill="white"/>
<path d="M212.172 21.9121V24.4201V30.7561H210.716V21.9121H212.172Z" fill="white"/>
<path d="M219.981 22.176C220.642 22.176 221.304 22.176 221.966 22.572C222.496 22.836 222.893 23.364 222.893 24.288C222.893 26.004 221.437 26.136 221.437 26.136C221.437 26.136 223.422 26.268 223.422 28.248C223.422 29.172 223.025 29.832 222.363 30.228C221.569 30.756 220.775 30.756 220.113 30.756H217.333V22.308H219.981V22.176ZM218.657 25.74H219.716C220.113 25.74 220.378 25.74 220.775 25.608C221.04 25.476 221.304 25.08 221.304 24.552C221.304 24.024 221.04 23.628 220.775 23.496C220.51 23.364 220.113 23.364 219.716 23.364H218.657V25.74ZM218.657 29.568H219.848C220.245 29.568 220.642 29.568 221.172 29.304C221.569 29.04 221.834 28.776 221.834 28.116C221.834 27.588 221.569 27.192 221.172 26.928C220.775 26.664 220.245 26.664 219.848 26.664H218.657V29.568Z" fill="white"/>
<path d="M228.187 25.74C228.187 25.74 227.922 25.608 227.525 25.608C226.202 25.608 226.202 26.532 226.202 27.06V30.492H224.746V24.288H225.937L226.202 25.476C226.466 24.42 227.26 24.156 228.055 24.156H228.187V25.74Z" fill="white"/>
<path d="M230.967 22.704C230.967 23.232 230.569 23.628 230.04 23.628C229.511 23.628 229.114 23.232 229.114 22.704C229.114 22.176 229.511 21.78 230.04 21.78C230.569 21.78 230.967 22.176 230.967 22.704ZM230.834 24.42V25.344V30.624H229.378V24.42H230.834Z" fill="white"/>
<path d="M235.07 28.3801C234.805 28.3801 234.54 28.3801 234.275 28.2481C234.143 28.3801 234.011 28.5121 234.011 28.7761C234.011 29.3041 234.54 29.3041 234.805 29.3041H235.864C236.658 29.3041 238.379 29.3041 238.379 31.0201C238.379 32.3401 237.32 33.1321 235.07 33.1321C233.084 33.1321 232.158 32.6041 232.158 31.6801C232.158 30.6241 233.349 30.4921 233.349 30.4921C233.349 30.4921 232.555 30.2281 232.555 29.4361C232.555 28.6441 233.349 28.3801 233.746 28.2481C233.084 27.8521 232.687 27.3241 232.687 26.5321C232.687 25.3441 233.746 24.5521 235.202 24.5521C235.996 24.5521 236.658 24.6841 237.055 25.0801C237.32 24.2881 237.982 24.2881 238.379 24.2881H238.511V25.4761C238.511 25.4761 238.246 25.4761 237.982 25.4761C237.717 25.4761 237.584 25.4761 237.452 25.6081C237.584 25.8721 237.717 26.2681 237.717 26.6641C237.584 27.5881 236.658 28.3801 235.07 28.3801ZM233.746 30.4921C233.746 30.4921 233.349 30.7561 233.349 31.2841C233.349 31.8121 233.878 32.0761 234.937 32.0761C236.128 32.0761 236.79 31.8121 236.79 31.1521C236.79 30.4921 235.996 30.4921 235.599 30.4921H233.746ZM236.128 26.2681C236.128 25.6081 235.731 25.3441 235.07 25.3441C234.408 25.3441 234.011 25.7401 234.011 26.2681C234.011 26.9281 234.408 27.1921 235.07 27.1921C235.731 27.3241 236.128 26.9281 236.128 26.2681Z" fill="white"/>
<path d="M241.026 21.9121V25.4761C241.291 24.8161 241.688 24.4201 242.746 24.4201C243.673 24.4201 244.202 24.8161 244.599 25.2121C244.997 25.7401 244.997 26.4001 244.997 27.0601V30.7561H243.541V27.0601C243.541 26.6641 243.541 26.4001 243.276 26.0041C243.011 25.7401 242.746 25.6081 242.349 25.6081C241.291 25.6081 241.026 26.5321 241.026 26.9281V30.7561H239.57V21.9121H241.026Z" fill="white"/>
<path d="M246.849 24.6839C246.849 24.6839 247.644 24.4199 248.835 24.4199C249.761 24.4199 250.556 24.5519 251.085 25.2119C251.482 25.7399 251.482 26.2679 251.482 26.9279V29.0399C251.482 29.3039 251.482 29.6999 252.011 29.6999C252.144 29.6999 252.276 29.6999 252.276 29.6999V30.7559C252.276 30.7559 251.879 30.8879 251.482 30.8879C250.688 30.8879 250.158 30.6239 250.158 29.8319C249.894 30.4919 249.232 31.0199 248.305 31.0199C247.114 31.0199 246.32 30.2279 246.32 29.1719C246.32 27.8519 247.379 27.1919 249.364 27.1919C249.761 27.1919 249.894 27.1919 249.894 27.1919C249.894 26.6639 249.894 26.3999 249.761 26.1359C249.629 25.8719 249.232 25.7399 248.703 25.7399C247.776 25.7399 246.982 26.0039 246.982 26.0039H246.849V24.6839ZM248.703 29.6999C249.1 29.6999 249.497 29.4359 249.761 29.1719C250.026 28.7759 250.026 28.3799 250.026 28.1159V27.9839H249.629C248.967 27.9839 247.776 27.9839 247.776 28.9079C247.776 29.3039 248.041 29.6999 248.703 29.6999Z" fill="white"/>
<path d="M254.659 24.4201L254.923 25.4761C255.056 24.8161 255.585 24.2881 256.776 24.2881C257.835 24.2881 258.365 24.8161 258.629 25.4761C258.894 24.6841 259.556 24.2881 260.483 24.2881C261.409 24.2881 261.938 24.6841 262.203 25.0801C262.6 25.6081 262.6 26.2681 262.6 26.9281V30.6241H261.144V26.9281C261.144 26.5321 261.144 26.2681 261.012 25.8721C260.88 25.6081 260.615 25.4761 260.085 25.4761C259.027 25.4761 258.894 26.4001 258.894 26.7961V30.6241H257.438V26.9281C257.438 26.5321 257.438 26.2681 257.306 25.8721C257.174 25.6081 256.909 25.4761 256.379 25.4761C255.32 25.4761 255.188 26.4001 255.188 26.7961V30.6241H253.732V24.4201H254.659Z" fill="white"/>
<path d="M34.1486 0.924072L38.6488 11.7481L43.0166 0.924072H46.3256V15.0481H43.8108V4.09207L39.5753 14.3881H37.3252L33.0897 4.09207V15.1801H30.8396V0.924072H34.1486Z" fill="white"/>
<path d="M49.1052 5.01612C49.1052 5.01612 50.4288 4.62012 52.4142 4.62012C54.0025 4.62012 55.3261 4.88412 56.1203 5.94012C56.6497 6.73212 56.6497 7.78812 56.6497 8.71212V12.2761C56.6497 12.6721 56.6497 13.4641 57.5762 13.4641C57.8409 13.4641 58.1056 13.3321 58.1056 13.3321V15.0481C58.1056 15.0481 57.5762 15.1801 56.7821 15.1801C55.4585 15.1801 54.6643 14.7841 54.5319 13.3321C54.1349 14.5201 52.9436 15.1801 51.4877 15.1801C49.5023 15.1801 48.1787 13.9921 48.1787 12.0121C48.1787 9.76812 50.0317 8.71212 53.3407 8.71212C54.0025 8.71212 54.2672 8.71212 54.2672 8.71212C54.2672 7.78812 54.2672 7.39212 54.0025 6.99612C53.7378 6.60012 53.2084 6.33612 52.1495 6.33612C50.6935 6.33612 49.3699 6.86412 49.3699 6.86412H49.2376V5.01612H49.1052ZM52.1495 13.4641C52.9436 13.4641 53.6054 13.0681 53.8702 12.5401C54.2672 11.7481 54.2672 11.0881 54.2672 10.5601V10.4281H53.7378C52.6789 10.4281 50.6935 10.4281 50.6935 12.0121C50.6935 12.8041 51.223 13.4641 52.1495 13.4641Z" fill="white"/>
<path d="M66.1795 6.99612H66.0472C66.0472 6.99612 64.7236 6.46812 63.5323 6.46812C62.4735 6.46812 61.944 6.86412 61.944 7.39212C61.944 8.97612 66.5766 8.58012 66.5766 12.1441C66.5766 14.3881 64.8559 15.3121 62.3411 15.3121C60.4881 15.3121 59.4292 14.7841 59.4292 14.7841V12.8041H59.5616C59.5616 12.8041 61.1499 13.4641 62.4735 13.4641C63.6647 13.4641 64.0618 13.0681 64.0618 12.4081C64.0618 10.5601 59.4292 11.0881 59.4292 7.65612C59.4292 5.80812 60.8851 4.62012 63.5323 4.62012C64.9883 4.62012 66.1795 5.01612 66.1795 5.01612V6.99612Z" fill="white"/>
<path d="M74.9151 6.99612H74.7827C74.7827 6.99612 73.4592 6.46812 72.2679 6.46812C71.2091 6.46812 70.6796 6.86412 70.6796 7.39212C70.6796 8.97612 75.3122 8.58012 75.3122 12.1441C75.3122 14.3881 73.5915 15.3121 71.0767 15.3121C69.2237 15.3121 68.1648 14.7841 68.1648 14.7841V12.8041H68.2972C68.2972 12.8041 69.8855 13.4641 71.2091 13.4641C72.4003 13.4641 72.7974 13.0681 72.7974 12.4081C72.7974 10.5601 68.1648 11.0881 68.1648 7.65612C68.1648 5.80812 69.6207 4.62012 72.2679 4.62012C73.7239 4.62012 74.9151 5.01612 74.9151 5.01612V6.99612Z" fill="white"/>
<path d="M77.5623 5.01612C77.5623 5.01612 78.8858 4.62012 80.8712 4.62012C82.4595 4.62012 83.7831 4.88412 84.5773 5.94012C85.1067 6.73212 85.1067 7.78812 85.1067 8.71212V12.2761C85.1067 12.6721 85.1067 13.4641 86.0332 13.4641C86.298 13.4641 86.5627 13.3321 86.5627 13.3321V15.0481C86.5627 15.0481 86.0332 15.1801 85.2391 15.1801C83.9155 15.1801 83.1213 14.7841 82.989 13.3321C82.5919 14.5201 81.4007 15.1801 79.9447 15.1801C77.9593 15.1801 76.6357 13.9921 76.6357 12.0121C76.6357 9.76812 78.4888 8.71212 81.7977 8.71212C82.4595 8.71212 82.7243 8.71212 82.7243 8.71212C82.7243 7.78812 82.7243 7.39212 82.4595 6.99612C82.1948 6.60012 81.6654 6.33612 80.6065 6.33612C79.1506 6.33612 77.827 6.86412 77.827 6.86412H77.6946V5.01612H77.5623ZM80.6065 13.4641C81.4007 13.4641 82.0625 13.0681 82.3272 12.5401C82.7243 11.8801 82.7243 11.0881 82.7243 10.6921V10.4281H82.1948C81.1359 10.4281 79.1506 10.4281 79.1506 12.0121C79.1506 12.8041 79.68 13.4641 80.6065 13.4641Z" fill="white"/>
<path d="M95.0337 14.916C95.0337 14.916 94.1072 15.18 92.7836 15.18C89.3423 15.18 87.4893 13.2 87.4893 9.90004C87.4893 6.60004 89.2099 4.48804 92.6513 4.48804C93.9749 4.48804 94.9014 4.75204 94.9014 4.75204V6.73204H94.769C94.769 6.73204 93.8425 6.33604 92.7836 6.33604C90.9306 6.33604 90.0041 7.65604 90.0041 9.76804C90.0041 11.88 90.9306 13.2 92.7836 13.2C93.8425 13.2 94.769 12.804 94.769 12.804H94.9014V14.916H95.0337Z" fill="white"/>
<path d="M99.4015 0.395996V6.336C99.7986 5.28 100.593 4.488 102.446 4.488C104.034 4.488 104.961 5.148 105.49 5.808C106.152 6.732 106.152 7.656 106.152 8.976V15.048H103.637V8.976C103.637 8.316 103.637 7.788 103.24 7.26C102.843 6.732 102.446 6.468 101.652 6.468C99.7986 6.468 99.5339 7.92 99.5339 8.712V15.048H97.019V0.395996H99.4015Z" fill="white"/>
<path d="M115.549 15.048L115.152 13.332C114.888 14.52 113.829 15.312 112.108 15.312C110.652 15.312 109.726 14.784 109.196 13.992C108.534 13.2 108.534 12.144 108.534 10.824V4.75195H111.049V10.824C111.049 11.484 111.049 12.012 111.446 12.54C111.843 13.068 112.373 13.332 113.167 13.332C114.888 13.332 115.02 11.88 115.02 11.088V4.75195H117.535V15.048H115.549Z" fill="white"/>
<path d="M126.271 6.99612H126.138C126.138 6.99612 124.815 6.46812 123.623 6.46812C122.565 6.46812 122.035 6.86412 122.035 7.39212C122.035 8.97612 126.668 8.58012 126.668 12.1441C126.668 14.3881 124.947 15.3121 122.432 15.3121C120.579 15.3121 119.52 14.7841 119.52 14.7841V12.8041H119.653C119.653 12.8041 121.241 13.4641 122.565 13.4641C123.756 13.4641 124.153 13.0681 124.153 12.4081C124.153 10.5601 119.52 11.0881 119.52 7.65612C119.52 5.80812 120.976 4.62012 123.623 4.62012C125.079 4.62012 126.271 5.01612 126.271 5.01612V6.99612Z" fill="white"/>
<path d="M136.859 14.784C136.859 14.784 135.403 15.18 133.55 15.18C131.565 15.18 130.374 14.652 129.579 13.86C128.653 12.936 128.124 11.616 128.124 9.89996C128.124 6.46796 129.844 4.35596 133.021 4.35596C134.741 4.35596 136.065 5.01596 136.727 6.20396C137.389 7.39196 137.389 8.97596 137.389 10.56H130.638C130.638 12.276 131.697 13.332 133.683 13.332C135.139 13.332 136.595 12.804 136.595 12.804H136.727V14.784H136.859ZM134.874 8.97596C134.874 7.25996 134.344 6.20396 132.888 6.20396C131.433 6.20396 130.903 7.25996 130.638 8.97596H134.874Z" fill="white"/>
<path d="M145.463 15.048C145.463 15.048 144.668 15.312 143.61 15.312C142.154 15.312 141.095 14.916 140.565 14.124C140.168 13.464 140.168 12.54 140.168 11.484V6.73198H138.315V4.88398H140.168V2.24398L142.683 1.58398V5.01598H145.595V6.86398H142.683V11.484C142.683 12.144 142.683 12.672 142.948 13.068C143.212 13.464 143.61 13.596 144.007 13.596C144.801 13.596 145.33 13.332 145.33 13.332H145.463V15.048Z" fill="white"/>
<path d="M153.669 15.048C153.669 15.048 152.875 15.312 151.816 15.312C150.36 15.312 149.301 14.916 148.772 14.124C148.375 13.464 148.375 12.54 148.375 11.484V6.73198H146.521V4.88398H148.375V2.24398L150.889 1.58398V5.01598H153.801V6.86398H150.889V11.484C150.889 12.144 150.889 12.672 151.154 13.068C151.419 13.464 151.816 13.596 152.213 13.596C153.007 13.596 153.537 13.332 153.537 13.332H153.669V15.048Z" fill="white"/>
<path d="M162.007 6.99612H161.875C161.875 6.99612 160.551 6.46812 159.36 6.46812C158.301 6.46812 157.772 6.86412 157.772 7.39212C157.772 8.97612 162.404 8.58012 162.404 12.1441C162.404 14.3881 160.684 15.3121 158.169 15.3121C156.316 15.3121 155.257 14.7841 155.257 14.7841V12.8041H155.389C155.389 12.8041 156.978 13.4641 158.301 13.4641C159.493 13.4641 159.89 13.0681 159.89 12.4081C159.89 10.5601 155.257 11.0881 155.257 7.65612C155.257 5.80812 156.713 4.62012 159.36 4.62012C160.816 4.62012 162.007 5.01612 162.007 5.01612V6.99612Z" fill="white"/>
<path d="M180.405 7.65599V14.52C180.405 14.52 178.552 15.312 176.038 15.312C171.67 15.312 168.625 13.068 168.625 8.18399C168.625 3.16799 171.802 0.791992 176.302 0.791992C178.42 0.791992 179.876 1.31999 179.876 1.31999V3.29999H179.744C179.744 3.29999 178.288 2.63999 176.435 2.63999C173.258 2.63999 171.405 4.35599 171.405 7.91999C171.405 11.616 173.39 13.332 176.038 13.332C177.096 13.332 177.891 13.068 177.891 13.068V9.50399H175.376V7.65599H180.405Z" fill="white"/>
<path d="M190.994 14.784C190.994 14.784 189.538 15.18 187.685 15.18C185.7 15.18 184.508 14.652 183.714 13.86C182.788 12.936 182.258 11.616 182.258 9.89996C182.258 6.46796 183.979 4.35596 187.156 4.35596C188.876 4.35596 190.2 5.01596 190.862 6.20396C191.523 7.39196 191.523 8.97596 191.523 10.56H184.773C184.773 12.276 185.832 13.332 187.817 13.332C189.273 13.332 190.729 12.804 190.729 12.804H190.862V14.784H190.994ZM189.141 8.97596C189.141 7.25996 188.612 6.20396 187.156 6.20396C185.7 6.20396 185.17 7.25996 184.905 8.97596H189.141Z" fill="white"/>
<path d="M195.627 4.75204L196.024 6.46804C196.421 5.28004 197.347 4.48804 199.068 4.48804C200.656 4.48804 201.583 5.14804 202.112 5.80804C202.774 6.73204 202.774 7.65604 202.774 8.97604V15.048H200.259V8.97604C200.259 8.31604 200.259 7.78804 199.862 7.26004C199.465 6.73204 199.068 6.46804 198.274 6.46804C196.421 6.46804 196.156 7.92004 196.156 8.71204V15.048H193.641V4.75204H195.627Z" fill="white"/>
<path d="M213.363 14.784C213.363 14.784 211.907 15.18 210.054 15.18C208.068 15.18 206.877 14.652 206.083 13.86C205.156 12.936 204.627 11.616 204.627 9.89996C204.627 6.46796 206.348 4.35596 209.524 4.35596C211.245 4.35596 212.568 5.01596 213.23 6.20396C213.892 7.39196 213.892 8.97596 213.892 10.56H207.142C207.142 12.276 208.201 13.332 210.186 13.332C211.642 13.332 213.098 12.804 213.098 12.804H213.23V14.784H213.363ZM211.377 8.97596C211.377 7.25996 210.848 6.20396 209.392 6.20396C207.936 6.20396 207.406 7.25996 207.142 8.97596H211.377Z" fill="white"/>
<path d="M221.834 6.99612C221.834 6.99612 221.304 6.86412 220.775 6.86412C218.525 6.86412 218.525 8.44812 218.525 9.37212V15.1801H216.01V4.75212H217.863L218.392 6.73212C218.79 5.01612 220.113 4.62012 221.569 4.62012H221.834V6.99612Z" fill="white"/>
<path d="M223.554 5.01612C223.554 5.01612 224.878 4.62012 226.863 4.62012C228.452 4.62012 229.775 4.88412 230.569 5.94012C231.099 6.73212 231.099 7.78812 231.099 8.71212V12.2761C231.099 12.6721 231.099 13.4641 232.025 13.4641C232.29 13.4641 232.555 13.3321 232.555 13.3321V15.0481C232.555 15.0481 232.025 15.1801 231.231 15.1801C229.908 15.1801 229.114 14.7841 228.981 13.3321C228.584 14.5201 227.393 15.1801 225.937 15.1801C223.952 15.1801 222.628 13.9921 222.628 12.0121C222.628 9.76812 224.481 8.71212 227.79 8.71212C228.452 8.71212 228.716 8.71212 228.716 8.71212C228.716 7.78812 228.716 7.39212 228.452 6.99612C228.187 6.60012 227.658 6.33612 226.599 6.33612C225.143 6.33612 223.819 6.86412 223.819 6.86412H223.687V5.01612H223.554ZM226.466 13.4641C227.261 13.4641 227.922 13.0681 228.187 12.5401C228.584 11.8801 228.584 11.0881 228.584 10.6921V10.4281H228.055C226.996 10.4281 225.01 10.4281 225.01 12.0121C225.01 12.8041 225.54 13.4641 226.466 13.4641Z" fill="white"/>
<path d="M236.526 0.395996V4.62V15.048H234.011V0.395996H236.526Z" fill="white"/>
<path d="M246.585 0.924072V6.73207H252.806V0.924072H255.321V15.0481H252.806V8.71207H246.585V15.0481H244.07V0.924072H246.585Z" fill="white"/>
<path d="M262.733 15.312C259.556 15.312 257.703 13.464 257.703 9.90004C257.703 6.33604 259.556 4.48804 262.865 4.48804C266.042 4.48804 267.895 6.33604 267.895 9.90004C267.762 13.464 265.909 15.312 262.733 15.312ZM265.115 9.90004C265.115 7.52404 264.321 6.20404 262.733 6.20404C261.012 6.20404 260.35 7.65604 260.35 9.90004C260.35 12.276 261.144 13.596 262.733 13.596C264.453 13.596 265.115 12.144 265.115 9.90004Z" fill="white"/>
<path d="M275.969 6.99612H275.836C275.836 6.99612 274.513 6.46812 273.321 6.46812C272.263 6.46812 271.733 6.86412 271.733 7.39212C271.733 8.97612 276.366 8.58012 276.366 12.1441C276.366 14.3881 274.645 15.3121 272.13 15.3121C270.277 15.3121 269.218 14.7841 269.218 14.7841V12.8041H269.351C269.351 12.8041 270.939 13.4641 272.263 13.4641C273.454 13.4641 273.851 13.0681 273.851 12.4081C273.851 10.5601 269.218 11.0881 269.218 7.65612C269.218 5.80812 270.674 4.62012 273.321 4.62012C274.777 4.62012 275.969 5.01612 275.969 5.01612V6.99612Z" fill="white"/>
<path d="M278.483 18.744V4.75204H280.469L280.998 6.46804C281.263 5.28004 282.454 4.48804 284.175 4.48804C287.087 4.48804 288.543 6.73204 288.543 9.90004C288.543 13.068 286.954 15.312 283.91 15.312C282.454 15.312 281.395 14.784 280.998 13.596V18.876H278.483V18.744ZM285.763 9.90004C285.763 7.78804 285.101 6.33604 283.381 6.33604C281.66 6.33604 280.998 7.78804 280.998 9.90004C280.998 12.012 281.66 13.464 283.381 13.464C285.101 13.464 285.763 12.012 285.763 9.90004Z" fill="white"/>
<path d="M293.175 1.848C293.175 2.64 292.514 3.3 291.719 3.3C290.793 3.3 290.263 2.64 290.263 1.848C290.263 1.056 290.925 0.395996 291.719 0.395996C292.646 0.395996 293.175 0.923996 293.175 1.848ZM292.911 4.752V15.048H290.396V6.468V4.752H292.911Z" fill="white"/>
<path d="M301.779 15.048C301.779 15.048 300.985 15.312 299.926 15.312C298.47 15.312 297.411 14.916 296.881 14.124C296.484 13.464 296.484 12.54 296.484 11.484V6.73198H294.631V4.88398H296.484V2.24398L298.999 1.58398V5.01598H301.911V6.86398H298.999V11.484C298.999 12.144 298.999 12.672 299.264 13.068C299.529 13.464 299.926 13.596 300.323 13.596C301.117 13.596 301.646 13.332 301.646 13.332H301.779V15.048Z" fill="white"/>
<path d="M304.029 5.01612C304.029 5.01612 305.352 4.62012 307.338 4.62012C308.926 4.62012 310.25 4.88412 311.044 5.94012C311.573 6.73212 311.573 7.78812 311.573 8.71212V12.2761C311.573 12.6721 311.573 13.4641 312.5 13.4641C312.765 13.4641 313.029 13.3321 313.029 13.3321V15.0481C313.029 15.0481 312.5 15.1801 311.706 15.1801C310.382 15.1801 309.588 14.7841 309.456 13.3321C309.058 14.5201 307.867 15.1801 306.411 15.1801C304.426 15.1801 303.102 13.9921 303.102 12.0121C303.102 9.76812 304.955 8.71212 308.264 8.71212C308.926 8.71212 309.191 8.71212 309.191 8.71212C309.191 7.78812 309.191 7.39212 308.926 6.99612C308.661 6.60012 308.132 6.33612 307.073 6.33612C305.617 6.33612 304.294 6.86412 304.294 6.86412H304.161V5.01612H304.029ZM307.073 13.4641C307.867 13.4641 308.529 13.0681 308.794 12.5401C309.191 11.8801 309.191 11.0881 309.191 10.6921V10.4281H308.661C307.602 10.4281 305.617 10.4281 305.617 12.0121C305.617 12.8041 306.014 13.4641 307.073 13.4641Z" fill="white"/>
<path d="M317 0.395996V4.62V15.18H314.485V0.395996H317Z" fill="white"/>
<path d="M3.30887 11.8799H0.396973V16.8959V21.5159H3.30887V11.8799Z" fill="white"/>
<path d="M6.75024 11.8799V16.8959V21.5159H9.66214V11.8799H6.75024Z" fill="white"/>
<path d="M13.1035 11.8799V16.8959V21.5159H16.1478V11.8799H13.1035Z" fill="white"/>
<path d="M0.396973 10.1641H11.3828H22.5009V7.39209H0.396973V10.1641Z" fill="white"/>
<path d="M11.3828 0L0.396973 3.696V6.468L11.3828 2.772L22.5009 6.468V3.696L11.3828 0Z" fill="white"/>
<path d="M22.5009 21.252C22.5009 21.384 21.3097 23.232 14.2947 23.232H8.60324C1.32349 23.232 0.529332 24.288 0.396973 24.288V27.06C0.529332 26.928 1.32349 26.004 8.60324 26.004H14.2947C21.3097 26.004 22.5009 24.156 22.5009 24.024V21.252Z" fill="white"/>
<path d="M22.5009 25.8721C22.5009 26.0041 21.3097 27.8521 14.2947 27.8521H8.60324C1.32349 27.8521 0.529332 28.9081 0.396973 28.9081V31.6801C0.529332 31.6801 1.32349 30.7561 8.60324 30.6241H14.2947C21.3097 30.6241 22.5009 28.7761 22.5009 28.6441V25.8721Z" fill="white"/>
<path d="M19.5891 11.8799V20.9879C21.9716 20.4599 22.501 19.5359 22.501 19.4039V11.8799H19.5891Z" fill="white"/>
</g>
<defs>
<clipPath id="clip0_5_1857">
<rect width="317" height="33" fill="white"/>
</clipPath>
</defs>
</svg>
