<?xml version="1.0" encoding="utf-8"?>
<!-- Generator: Adobe Illustrator 18.0.0, SVG Export Plug-In . SVG Version: 6.00 Build 0)  -->
<!DOCTYPE svg PUBLIC "-//W3C//DTD SVG 1.1//EN" "http://www.w3.org/Graphics/SVG/1.1/DTD/svg11.dtd">
<svg version="1.1" id="Layer_1" xmlns="http://www.w3.org/2000/svg" xmlns:xlink="http://www.w3.org/1999/xlink" x="0px" y="0px"
	 viewBox="0 0 445.9 638" enable-background="new 0 0 445.9 638" xml:space="preserve">
<g>
	<g>
		<path fill="#5F5DF9" d="M224.5,638C101.1,638,0,537.8,0,414.7V223.3C0,100.2,101.1,0,224.5,0c109.6,0,202.8,78.3,220.9,186.1
			c2.9,17.4-8.6,33.8-26,36.8c-17.4,2.9-33.7-8.8-36.7-26.2c-13-77-78.6-132.9-157-132.9c-88.2,0-159.3,71.6-159.3,159.5v191.4
			c0,88,71.1,159.5,159.3,159.5c78.3,0,144.2-55.9,157.1-132.9c2.9-17.4,19.3-29.1,36.6-26.2c17.4,2.9,28.6,19.4,25.7,36.7
			C427.2,559.7,334,638,224.5,638z"/>
	</g>
	<g opacity="0.5">
		<path fill="#5F5DF9" d="M153.6,347.7c-17.6,0-30.7-14.3-30.7-31.9v-92.3c0-56.8,45.8-103,102.8-103c38.9,0,73.9,21.6,91.7,56.4
			c8,15.7,1.7,34.9-14,42.9c-15.7,8-35,1.8-43-13.9c-6.8-13.4-21-21.7-35.8-21.7c-21.8,0-40.2,17.6-40.2,39.2v92.3
			C184.3,333.4,171.2,347.7,153.6,347.7z"/>
	</g>
</g>
</svg>
