<?xml version="1.0" encoding="UTF-8"?>
<!-- Generator: Adobe Illustrator 18.0.0, SVG Export Plug-In . SVG Version: 6.00 Build 0)  -->
<!DOCTYPE svg PUBLIC "-//W3C//DTD SVG 1.1//EN" "http://www.w3.org/Graphics/SVG/1.1/DTD/svg11.dtd">
<svg version="1.1" id="Layer_1" xmlns="http://www.w3.org/2000/svg" xmlns:xlink="http://www.w3.org/1999/xlink" x="0px" y="0px" viewBox="0 0 260.4 82.9" enable-background="new 0 0 260.4 82.9" xml:space="preserve">
<g>
	<path fill="#525DF9" d="M31.7,8.9c9.6,0,16.5,4.9,19,13.4l0.1,0.4h9.6l-0.1-0.6C57.6,8.5,46.7,0,31.8,0C13.7,0,0,14.1,0,32.9   s13.7,32.9,31.8,32.9c14.9,0,25.8-8.5,28.6-22.1l0.1-0.6h-9.6l-0.1,0.4c-2.5,8.5-9.5,13.4-19,13.4c-13.1,0-21.9-9.6-21.9-24   C9.8,18.6,18.6,8.9,31.7,8.9z"/>
	<path fill="#525DF9" d="M110.1,58c-2.3,0-3.5-1.4-3.5-4.2V32.7c0-8.8-7.2-14.7-17.9-14.7c-7.5,0-16.7,3.9-18.3,14.9l-0.1,0.6h8.4   l0.1-0.4c1.4-5.7,5.8-6.9,9.3-6.9c6,0,9.5,2.7,9.5,7.4v2.6l-13.6,1.4c-7.6,0.8-15.7,5-15.7,14.6c0,8.1,6,13.5,14.8,13.5   c6.5,0,11.8-3.4,15-6.8c1.3,4.2,4.5,6.5,9.1,6.5c1.7,0,3.2-0.3,5.2-0.9l0.3-0.1v-7l-0.6,0.2C111.5,57.9,110.9,58,110.1,58z    M97.7,43.5v7.3c-4.6,4.6-8.9,6.7-13.5,6.7c-2,0-6.8-0.6-6.8-5.7c0-3.8,2.8-6.3,7.4-6.9L97.7,43.5z"/>
	<path fill="#525DF9" d="M146.5,18c-6.5,0-12,3.1-15.2,6.1v-5.2h-8.9v46h8.9V34.3c2.2-3.2,6.7-8.3,13-8.3c5.6,0,8.7,3.1,8.7,8.8   v30.1h8.9V33.3C161.9,23.7,156.1,18,146.5,18z"/>
	<path fill="#525DF9" d="M195.8,18c-6.5,0-12,3.1-15.2,6.1v-5.2h-8.9v46h8.9V34.3c2.2-3.2,6.7-8.3,13-8.3c5.6,0,8.7,3.1,8.7,8.8   v30.1h8.9V33.3C211.2,23.7,205.4,18,195.8,18z"/>
	<polygon fill="#525DF9" points="251.3,18.9 238.6,51.8 237.8,47.9 225.6,18.9 216.2,18.9 234.3,62.4 226,82.9 235,82.9 260.4,18.9     "/>
</g>
</svg>