<svg width="15" height="15" viewBox="0 0 15 15" fill="none" xmlns="http://www.w3.org/2000/svg">
<path d="M7.34619 14.6924C6.33057 14.6924 5.37842 14.502 4.48975 14.1211C3.60107 13.7402 2.81982 13.2129 2.146 12.5391C1.47705 11.8652 0.952148 11.0864 0.571289 10.2026C0.19043 9.31396 0 8.36182 0 7.34619C0 6.33057 0.19043 5.38086 0.571289 4.49707C0.952148 3.6084 1.47705 2.82715 2.146 2.15332C2.81982 1.47461 3.60107 0.947266 4.48975 0.571289C5.37842 0.19043 6.33057 0 7.34619 0C8.35693 0 9.30664 0.19043 10.1953 0.571289C11.084 0.947266 11.8628 1.47461 12.5317 2.15332C13.2056 2.82715 13.7329 3.6084 14.1138 4.49707C14.4995 5.38086 14.6924 6.33057 14.6924 7.34619C14.6924 8.36182 14.4995 9.31396 14.1138 10.2026C13.7329 11.0864 13.2056 11.8652 12.5317 12.5391C11.8628 13.2129 11.084 13.7402 10.1953 14.1211C9.30664 14.502 8.35693 14.6924 7.34619 14.6924ZM7.34619 13.7476C8.22998 13.7476 9.05762 13.5815 9.8291 13.2495C10.6055 12.9175 11.2866 12.4585 11.8726 11.8726C12.4585 11.2866 12.9175 10.6079 13.2495 9.83643C13.5815 9.06006 13.7476 8.22998 13.7476 7.34619C13.7476 6.4624 13.5815 5.63232 13.2495 4.85596C12.9175 4.07959 12.4585 3.40088 11.8726 2.81982C11.2866 2.23389 10.6055 1.7749 9.8291 1.44287C9.05762 1.11084 8.22998 0.944824 7.34619 0.944824C6.4624 0.944824 5.63232 1.11084 4.85596 1.44287C4.08447 1.7749 3.40576 2.23389 2.81982 2.81982C2.23389 3.40088 1.7749 4.07959 1.44287 4.85596C1.11084 5.63232 0.944824 6.4624 0.944824 7.34619C0.944824 8.22998 1.11084 9.06006 1.44287 9.83643C1.7749 10.6079 2.23389 11.2866 2.81982 11.8726C3.40576 12.4585 4.08447 12.9175 4.85596 13.2495C5.63232 13.5815 6.4624 13.7476 7.34619 13.7476ZM6.03516 11.3745C5.91797 11.3745 5.81787 11.3379 5.73486 11.2646C5.65674 11.1865 5.61768 11.0913 5.61768 10.979C5.61768 10.8618 5.65674 10.7642 5.73486 10.686C5.81787 10.6079 5.91797 10.5688 6.03516 10.5688H7.08984V6.76758H6.13037C6.0083 6.76758 5.9082 6.72852 5.83008 6.65039C5.75195 6.57227 5.71289 6.47705 5.71289 6.36475C5.71289 6.25244 5.75195 6.15723 5.83008 6.0791C5.9082 6.00098 6.0083 5.96191 6.13037 5.96191H7.53662C7.67822 5.96191 7.78809 6.0083 7.86621 6.10107C7.94434 6.18896 7.9834 6.30859 7.9834 6.45996V10.5688H9.03076C9.15283 10.5688 9.25293 10.6079 9.33105 10.686C9.40918 10.7642 9.44824 10.8618 9.44824 10.979C9.44824 11.0913 9.40918 11.1865 9.33105 11.2646C9.25293 11.3379 9.15283 11.3745 9.03076 11.3745H6.03516ZM7.30225 4.61426C7.08252 4.61426 6.89453 4.53857 6.73828 4.38721C6.58203 4.23096 6.50391 4.04297 6.50391 3.82324C6.50391 3.59863 6.58203 3.4082 6.73828 3.25195C6.89453 3.0957 7.08252 3.01758 7.30225 3.01758C7.52686 3.01758 7.71484 3.0957 7.86621 3.25195C8.02246 3.4082 8.10059 3.59863 8.10059 3.82324C8.10059 4.04297 8.02246 4.23096 7.86621 4.38721C7.71484 4.53857 7.52686 4.61426 7.30225 4.61426Z" fill="#358CFD"/>
</svg>
