<svg width="233" height="23" viewBox="0 0 233 23" fill="none" xmlns="http://www.w3.org/2000/svg">
<path d="M227.792 11.7344V16H226.702V8.90909H227.755V10.017H227.847C228.013 9.65696 228.266 9.36766 228.604 9.14915C228.943 8.92756 229.38 8.81676 229.915 8.81676C230.395 8.81676 230.816 8.91525 231.176 9.11222C231.536 9.30611 231.816 9.60156 232.016 9.99858C232.216 10.3925 232.316 10.8911 232.316 11.4943V16H231.226V11.5682C231.226 11.0111 231.082 10.5772 230.792 10.2663C230.503 9.95241 230.106 9.79545 229.601 9.79545C229.254 9.79545 228.943 9.87086 228.669 10.0217C228.398 10.1725 228.184 10.3925 228.027 10.6818C227.87 10.9711 227.792 11.322 227.792 11.7344Z" fill="white"/>
<path d="M221.826 16.1477C221.186 16.1477 220.624 15.9954 220.141 15.6907C219.661 15.386 219.285 14.9598 219.015 14.4119C218.747 13.8641 218.613 13.224 218.613 12.4915C218.613 11.7528 218.747 11.1081 219.015 10.5572C219.285 10.0063 219.661 9.57848 220.141 9.27379C220.624 8.9691 221.186 8.81676 221.826 8.81676C222.466 8.81676 223.026 8.9691 223.507 9.27379C223.99 9.57848 224.365 10.0063 224.633 10.5572C224.904 11.1081 225.039 11.7528 225.039 12.4915C225.039 13.224 224.904 13.8641 224.633 14.4119C224.365 14.9598 223.99 15.386 223.507 15.6907C223.026 15.9954 222.466 16.1477 221.826 16.1477ZM221.826 15.169C222.312 15.169 222.712 15.0444 223.026 14.7951C223.34 14.5458 223.573 14.218 223.723 13.8118C223.874 13.4055 223.95 12.9654 223.95 12.4915C223.95 12.0175 223.874 11.5759 223.723 11.1665C223.573 10.7572 223.34 10.4264 223.026 10.174C222.712 9.92164 222.312 9.79545 221.826 9.79545C221.34 9.79545 220.94 9.92164 220.626 10.174C220.312 10.4264 220.08 10.7572 219.929 11.1665C219.778 11.5759 219.703 12.0175 219.703 12.4915C219.703 12.9654 219.778 13.4055 219.929 13.8118C220.08 14.218 220.312 14.5458 220.626 14.7951C220.94 15.0444 221.34 15.169 221.826 15.169Z" fill="white"/>
<path d="M215.861 16V8.90909H216.95V16H215.861ZM216.414 7.72727C216.202 7.72727 216.019 7.65495 215.865 7.5103C215.714 7.36565 215.639 7.19176 215.639 6.98864C215.639 6.78551 215.714 6.61162 215.865 6.46697C216.019 6.32232 216.202 6.25 216.414 6.25C216.627 6.25 216.808 6.32232 216.959 6.46697C217.113 6.61162 217.19 6.78551 217.19 6.98864C217.19 7.19176 217.113 7.36565 216.959 7.5103C216.808 7.65495 216.627 7.72727 216.414 7.72727Z" fill="white"/>
<path d="M214.222 8.90909V9.83239H210.547V8.90909H214.222ZM211.618 7.21023H212.707V13.9688C212.707 14.2765 212.752 14.5073 212.841 14.6612C212.934 14.812 213.051 14.9136 213.192 14.9659C213.337 15.0152 213.489 15.0398 213.649 15.0398C213.769 15.0398 213.868 15.0336 213.945 15.0213C214.022 15.0059 214.083 14.9936 214.129 14.9844L214.351 15.9631C214.277 15.9908 214.174 16.0185 214.042 16.0462C213.909 16.0769 213.741 16.0923 213.538 16.0923C213.231 16.0923 212.929 16.0262 212.634 15.8938C212.341 15.7615 212.098 15.5599 211.904 15.2891C211.713 15.0182 211.618 14.6766 211.618 14.2642V7.21023Z" fill="white"/>
<path d="M205.899 16.1662C205.45 16.1662 205.042 16.0816 204.676 15.9123C204.31 15.7399 204.019 15.4922 203.803 15.169C203.588 14.8428 203.48 14.4489 203.48 13.9872C203.48 13.581 203.56 13.2517 203.72 12.9993C203.88 12.7438 204.094 12.5438 204.362 12.3991C204.63 12.2545 204.925 12.1468 205.248 12.076C205.575 12.0021 205.902 11.9437 206.232 11.9006C206.663 11.8452 207.012 11.8036 207.28 11.7759C207.55 11.7451 207.747 11.6944 207.87 11.6236C207.997 11.5528 208.06 11.4297 208.06 11.2543V11.2173C208.06 10.7618 207.935 10.4079 207.686 10.1555C207.44 9.90317 207.066 9.77699 206.564 9.77699C206.044 9.77699 205.636 9.89086 205.341 10.1186C205.045 10.3464 204.837 10.5895 204.717 10.848L203.683 10.4787C203.868 10.0478 204.114 9.71236 204.422 9.4723C204.733 9.22917 205.071 9.0599 205.438 8.96449C205.807 8.866 206.17 8.81676 206.527 8.81676C206.755 8.81676 207.016 8.84446 207.312 8.89986C207.61 8.95218 207.898 9.06143 208.175 9.22763C208.455 9.39382 208.688 9.64465 208.872 9.98011C209.057 10.3156 209.149 10.7649 209.149 11.3281V16H208.06V15.0398H208.004C207.931 15.1937 207.807 15.3583 207.635 15.5337C207.463 15.7092 207.233 15.8584 206.947 15.9815C206.661 16.1046 206.312 16.1662 205.899 16.1662ZM206.065 15.1875C206.496 15.1875 206.859 15.1029 207.155 14.9336C207.453 14.7643 207.678 14.5458 207.829 14.2781C207.983 14.0103 208.06 13.7287 208.06 13.4332V12.4361C208.014 12.4915 207.912 12.5423 207.755 12.5884C207.601 12.6315 207.423 12.67 207.22 12.7038C207.02 12.7346 206.824 12.7623 206.633 12.7869C206.446 12.8085 206.293 12.8269 206.176 12.8423C205.893 12.8793 205.628 12.9393 205.382 13.0224C205.139 13.1024 204.942 13.224 204.791 13.3871C204.644 13.5471 204.57 13.7656 204.57 14.0426C204.57 14.4212 204.71 14.7074 204.99 14.9013C205.273 15.0921 205.631 15.1875 206.065 15.1875Z" fill="white"/>
<path d="M198.416 16.1477C197.825 16.1477 197.303 15.9985 196.851 15.6999C196.399 15.3983 196.045 14.9736 195.789 14.4258C195.534 13.8749 195.406 13.224 195.406 12.473C195.406 11.7282 195.534 11.0819 195.789 10.5341C196.045 9.98627 196.4 9.56309 196.856 9.26456C197.311 8.96603 197.837 8.81676 198.434 8.81676C198.896 8.81676 199.261 8.8937 199.529 9.04759C199.799 9.19839 200.006 9.37074 200.147 9.56463C200.292 9.75544 200.404 9.9124 200.484 10.0355H200.576V6.54545H201.666V16H200.613V14.9105H200.484C200.404 15.0398 200.29 15.2029 200.143 15.3999C199.995 15.5937 199.784 15.7676 199.51 15.9215C199.236 16.0723 198.871 16.1477 198.416 16.1477ZM198.564 15.169C199.001 15.169 199.37 15.0552 199.672 14.8274C199.973 14.5966 200.203 14.2781 200.359 13.8718C200.516 13.4625 200.595 12.9901 200.595 12.4545C200.595 11.9252 200.518 11.462 200.364 11.065C200.21 10.6649 199.982 10.354 199.681 10.1325C199.379 9.90779 199.007 9.79545 198.564 9.79545C198.102 9.79545 197.717 9.91394 197.41 10.1509C197.105 10.3848 196.876 10.7034 196.722 11.1065C196.571 11.5066 196.495 11.956 196.495 12.4545C196.495 12.9593 196.572 13.4179 196.726 13.8303C196.883 14.2396 197.114 14.5658 197.419 14.8089C197.727 15.049 198.108 15.169 198.564 15.169Z" fill="white"/>
<path d="M189.223 11.7344V16H188.134V8.90909H189.186V10.017H189.279C189.445 9.65696 189.697 9.36766 190.036 9.14915C190.374 8.92756 190.811 8.81676 191.347 8.81676C191.827 8.81676 192.247 8.91525 192.607 9.11222C192.967 9.30611 193.247 9.60156 193.447 9.99858C193.648 10.3925 193.748 10.8911 193.748 11.4943V16H192.658V11.5682C192.658 11.0111 192.513 10.5772 192.224 10.2663C191.935 9.95241 191.538 9.79545 191.033 9.79545C190.685 9.79545 190.374 9.87086 190.101 10.0217C189.83 10.1725 189.616 10.3925 189.459 10.6818C189.302 10.9711 189.223 11.322 189.223 11.7344Z" fill="white"/>
<path d="M185.049 13.1009V8.90909H186.138V16H185.049V14.7997H184.975C184.809 15.1598 184.55 15.466 184.2 15.7184C183.849 15.9677 183.405 16.0923 182.87 16.0923C182.427 16.0923 182.033 15.9954 181.688 15.8015C181.343 15.6045 181.073 15.3091 180.876 14.9151C180.679 14.5181 180.58 14.018 180.58 13.4148V8.90909H181.67V13.3409C181.67 13.858 181.814 14.2704 182.104 14.5781C182.396 14.8859 182.768 15.0398 183.221 15.0398C183.492 15.0398 183.767 14.9705 184.047 14.832C184.33 14.6935 184.567 14.4812 184.758 14.195C184.952 13.9087 185.049 13.544 185.049 13.1009Z" fill="white"/>
<path d="M175.704 16.1477C175.064 16.1477 174.502 15.9954 174.019 15.6907C173.539 15.386 173.163 14.9598 172.893 14.4119C172.625 13.8641 172.491 13.224 172.491 12.4915C172.491 11.7528 172.625 11.1081 172.893 10.5572C173.163 10.0063 173.539 9.57848 174.019 9.27379C174.502 8.9691 175.064 8.81676 175.704 8.81676C176.344 8.81676 176.904 8.9691 177.384 9.27379C177.868 9.57848 178.243 10.0063 178.511 10.5572C178.782 11.1081 178.917 11.7528 178.917 12.4915C178.917 13.224 178.782 13.8641 178.511 14.4119C178.243 14.9598 177.868 15.386 177.384 15.6907C176.904 15.9954 176.344 16.1477 175.704 16.1477ZM175.704 15.169C176.19 15.169 176.59 15.0444 176.904 14.7951C177.218 14.5458 177.451 14.218 177.601 13.8118C177.752 13.4055 177.828 12.9654 177.828 12.4915C177.828 12.0175 177.752 11.5759 177.601 11.1665C177.451 10.7572 177.218 10.4264 176.904 10.174C176.59 9.92164 176.19 9.79545 175.704 9.79545C175.218 9.79545 174.818 9.92164 174.504 10.174C174.19 10.4264 173.957 10.7572 173.807 11.1665C173.656 11.5759 173.58 12.0175 173.58 12.4915C173.58 12.9654 173.656 13.4055 173.807 13.8118C173.957 14.218 174.19 14.5458 174.504 14.7951C174.818 15.0444 175.218 15.169 175.704 15.169Z" fill="white"/>
<path d="M165.862 16V6.54545H171.531V7.56108H167.007V10.7557H171.106V11.7713H167.007V16H165.862Z" fill="white"/>
<path d="M156.998 18.8068C156.472 18.8068 156.019 18.7391 155.641 18.6037C155.262 18.4714 154.947 18.2959 154.694 18.0774C154.445 17.862 154.247 17.6312 154.099 17.3849L154.967 16.7756C155.065 16.9048 155.19 17.0526 155.341 17.2188C155.492 17.388 155.698 17.5342 155.959 17.6573C156.224 17.7835 156.57 17.8466 156.998 17.8466C157.571 17.8466 158.043 17.7081 158.415 17.4311C158.788 17.1541 158.974 16.7202 158.974 16.1293V14.6889H158.882C158.802 14.8182 158.688 14.9782 158.54 15.169C158.395 15.3568 158.186 15.5245 157.912 15.6722C157.641 15.8169 157.275 15.8892 156.813 15.8892C156.241 15.8892 155.727 15.7538 155.272 15.483C154.819 15.2121 154.461 14.8182 154.196 14.3011C153.934 13.7841 153.803 13.1562 153.803 12.4176C153.803 11.6913 153.931 11.0588 154.187 10.5202C154.442 9.97857 154.798 9.56001 155.253 9.26456C155.709 8.96603 156.235 8.81676 156.832 8.81676C157.294 8.81676 157.66 8.8937 157.931 9.04759C158.205 9.19839 158.414 9.37074 158.558 9.56463C158.706 9.75544 158.82 9.9124 158.9 10.0355H159.011V8.90909H160.063V16.2031C160.063 16.8125 159.925 17.308 159.648 17.6896C159.374 18.0743 159.005 18.3559 158.54 18.5344C158.078 18.716 157.564 18.8068 156.998 18.8068ZM156.961 14.9105C157.398 14.9105 157.767 14.8105 158.069 14.6104C158.371 14.4104 158.6 14.1226 158.757 13.7472C158.914 13.3717 158.992 12.9223 158.992 12.3991C158.992 11.8883 158.915 11.4374 158.762 11.0465C158.608 10.6557 158.38 10.3494 158.078 10.1278C157.777 9.90625 157.404 9.79545 156.961 9.79545C156.499 9.79545 156.115 9.9124 155.807 10.1463C155.502 10.3802 155.273 10.6941 155.119 11.0881C154.968 11.482 154.893 11.919 154.893 12.3991C154.893 12.8916 154.97 13.3271 155.124 13.7056C155.281 14.0811 155.512 14.3765 155.816 14.592C156.124 14.8043 156.506 14.9105 156.961 14.9105Z" fill="white"/>
<path d="M147.621 11.7344V16H146.531V8.90909H147.584V10.017H147.676C147.842 9.65696 148.095 9.36766 148.433 9.14915C148.772 8.92756 149.209 8.81676 149.744 8.81676C150.225 8.81676 150.645 8.91525 151.005 9.11222C151.365 9.30611 151.645 9.60156 151.845 9.99858C152.045 10.3925 152.145 10.8911 152.145 11.4943V16H151.056V11.5682C151.056 11.0111 150.911 10.5772 150.622 10.2663C150.332 9.95241 149.935 9.79545 149.431 9.79545C149.083 9.79545 148.772 9.87086 148.498 10.0217C148.227 10.1725 148.013 10.3925 147.856 10.6818C147.699 10.9711 147.621 11.322 147.621 11.7344Z" fill="white"/>
<path d="M143.446 16V8.90909H144.536V16H143.446ZM144 7.72727C143.788 7.72727 143.605 7.65495 143.451 7.5103C143.3 7.36565 143.225 7.19176 143.225 6.98864C143.225 6.78551 143.3 6.61162 143.451 6.46697C143.605 6.32232 143.788 6.25 144 6.25C144.213 6.25 144.394 6.32232 144.545 6.46697C144.699 6.61162 144.776 6.78551 144.776 6.98864C144.776 7.19176 144.699 7.36565 144.545 7.5103C144.394 7.65495 144.213 7.72727 144 7.72727Z" fill="white"/>
<path d="M138.387 18.8068C137.86 18.8068 137.408 18.7391 137.029 18.6037C136.651 18.4714 136.335 18.2959 136.083 18.0774C135.834 17.862 135.635 17.6312 135.488 17.3849L136.355 16.7756C136.454 16.9048 136.579 17.0526 136.729 17.2188C136.88 17.388 137.086 17.5342 137.348 17.6573C137.613 17.7835 137.959 17.8466 138.387 17.8466C138.959 17.8466 139.432 17.7081 139.804 17.4311C140.176 17.1541 140.363 16.7202 140.363 16.1293V14.6889H140.27C140.19 14.8182 140.076 14.9782 139.929 15.169C139.784 15.3568 139.575 15.5245 139.301 15.6722C139.03 15.8169 138.664 15.8892 138.202 15.8892C137.63 15.8892 137.116 15.7538 136.66 15.483C136.208 15.2121 135.849 14.8182 135.585 14.3011C135.323 13.7841 135.192 13.1562 135.192 12.4176C135.192 11.6913 135.32 11.0588 135.575 10.5202C135.831 9.97857 136.186 9.56001 136.642 9.26456C137.097 8.96603 137.623 8.81676 138.221 8.81676C138.682 8.81676 139.048 8.8937 139.319 9.04759C139.593 9.19839 139.802 9.37074 139.947 9.56463C140.095 9.75544 140.209 9.9124 140.289 10.0355H140.4V8.90909H141.452V16.2031C141.452 16.8125 141.314 17.308 141.037 17.6896C140.763 18.0743 140.393 18.3559 139.929 18.5344C139.467 18.716 138.953 18.8068 138.387 18.8068ZM138.35 14.9105C138.787 14.9105 139.156 14.8105 139.458 14.6104C139.759 14.4104 139.989 14.1226 140.146 13.7472C140.303 13.3717 140.381 12.9223 140.381 12.3991C140.381 11.8883 140.304 11.4374 140.15 11.0465C139.996 10.6557 139.769 10.3494 139.467 10.1278C139.165 9.90625 138.793 9.79545 138.35 9.79545C137.888 9.79545 137.503 9.9124 137.196 10.1463C136.891 10.3802 136.662 10.6941 136.508 11.0881C136.357 11.482 136.282 11.919 136.282 12.3991C136.282 12.8916 136.359 13.3271 136.512 13.7056C136.669 14.0811 136.9 14.3765 137.205 14.592C137.513 14.8043 137.894 14.9105 138.35 14.9105Z" fill="white"/>
<path d="M130.286 16.1662C129.837 16.1662 129.429 16.0816 129.063 15.9123C128.696 15.7399 128.406 15.4922 128.19 15.169C127.975 14.8428 127.867 14.4489 127.867 13.9872C127.867 13.581 127.947 13.2517 128.107 12.9993C128.267 12.7438 128.481 12.5438 128.749 12.3991C129.016 12.2545 129.312 12.1468 129.635 12.076C129.961 12.0021 130.289 11.9437 130.618 11.9006C131.049 11.8452 131.399 11.8036 131.666 11.7759C131.937 11.7451 132.134 11.6944 132.257 11.6236C132.383 11.5528 132.446 11.4297 132.446 11.2543V11.2173C132.446 10.7618 132.322 10.4079 132.073 10.1555C131.826 9.90317 131.452 9.77699 130.951 9.77699C130.431 9.77699 130.023 9.89086 129.727 10.1186C129.432 10.3464 129.224 10.5895 129.104 10.848L128.07 10.4787C128.255 10.0478 128.501 9.71236 128.809 9.4723C129.12 9.22917 129.458 9.0599 129.824 8.96449C130.194 8.866 130.557 8.81676 130.914 8.81676C131.142 8.81676 131.403 8.84446 131.699 8.89986C131.997 8.95218 132.285 9.06143 132.562 9.22763C132.842 9.39382 133.074 9.64465 133.259 9.98011C133.444 10.3156 133.536 10.7649 133.536 11.3281V16H132.446V15.0398H132.391C132.317 15.1937 132.194 15.3583 132.022 15.5337C131.849 15.7092 131.62 15.8584 131.334 15.9815C131.048 16.1046 130.698 16.1662 130.286 16.1662ZM130.452 15.1875C130.883 15.1875 131.246 15.1029 131.542 14.9336C131.84 14.7643 132.065 14.5458 132.216 14.2781C132.37 14.0103 132.446 13.7287 132.446 13.4332V12.4361C132.4 12.4915 132.299 12.5423 132.142 12.5884C131.988 12.6315 131.809 12.67 131.606 12.7038C131.406 12.7346 131.211 12.7623 131.02 12.7869C130.832 12.8085 130.68 12.8269 130.563 12.8423C130.28 12.8793 130.015 12.9393 129.769 13.0224C129.526 13.1024 129.329 13.224 129.178 13.3871C129.03 13.5471 128.956 13.7656 128.956 14.0426C128.956 14.4212 129.096 14.7074 129.377 14.9013C129.66 15.0921 130.018 15.1875 130.452 15.1875Z" fill="white"/>
<path d="M116.901 16V8.90909H117.953V10.017H118.045C118.193 9.63849 118.432 9.34458 118.761 9.1353C119.09 8.92294 119.486 8.81676 119.947 8.81676C120.415 8.81676 120.805 8.92294 121.115 9.1353C121.429 9.34458 121.674 9.63849 121.849 10.017H121.923C122.105 9.6508 122.377 9.35997 122.74 9.14453C123.104 8.92602 123.539 8.81676 124.047 8.81676C124.681 8.81676 125.199 9.01527 125.603 9.41229C126.006 9.80623 126.207 10.4202 126.207 11.2543V16H125.118V11.2543C125.118 10.7311 124.975 10.3571 124.689 10.1325C124.402 9.90779 124.065 9.79545 123.677 9.79545C123.179 9.79545 122.793 9.94626 122.519 10.2479C122.245 10.5464 122.108 10.925 122.108 11.3835V16H121V11.1435C121 10.7403 120.869 10.4156 120.608 10.1694C120.346 9.9201 120.009 9.79545 119.597 9.79545C119.313 9.79545 119.049 9.87086 118.802 10.0217C118.559 10.1725 118.362 10.3817 118.212 10.6495C118.064 10.9142 117.99 11.2204 117.99 11.5682V16H116.901Z" fill="white"/>
<path d="M114.753 6.54545V16H113.608V6.54545H114.753Z" fill="white"/>
<path d="M103.213 11.7344V16H102.123V6.54545H103.213V10.017H103.305C103.471 9.6508 103.72 9.35997 104.053 9.14453C104.388 8.92602 104.835 8.81676 105.392 8.81676C105.875 8.81676 106.298 8.91371 106.661 9.1076C107.024 9.29841 107.306 9.59233 107.506 9.98935C107.709 10.3833 107.811 10.8849 107.811 11.4943V16H106.721V11.5682C106.721 11.005 106.575 10.5695 106.283 10.2617C105.993 9.95088 105.592 9.79545 105.078 9.79545C104.721 9.79545 104.401 9.87086 104.117 10.0217C103.837 10.1725 103.616 10.3925 103.453 10.6818C103.293 10.9711 103.213 11.322 103.213 11.7344Z" fill="white"/>
<path d="M100.332 8.90909V9.83239H96.6572V8.90909H100.332ZM97.7282 7.21023H98.8177V13.9688C98.8177 14.2765 98.8624 14.5073 98.9516 14.6612C99.0439 14.812 99.1609 14.9136 99.3025 14.9659C99.4471 15.0152 99.5995 15.0398 99.7595 15.0398C99.8795 15.0398 99.978 15.0336 100.055 15.0213C100.132 15.0059 100.193 14.9936 100.24 14.9844L100.461 15.9631C100.387 15.9908 100.284 16.0185 100.152 16.0462C100.02 16.0769 99.8518 16.0923 99.6487 16.0923C99.3409 16.0923 99.0393 16.0262 98.7439 15.8938C98.4515 15.7615 98.2084 15.5599 98.0145 15.2891C97.8237 15.0182 97.7282 14.6766 97.7282 14.2642V7.21023Z" fill="white"/>
<path d="M95.2527 6.54545V16H94.1632V6.54545H95.2527Z" fill="white"/>
<path d="M88.9246 16.1662C88.4753 16.1662 88.0675 16.0816 87.7013 15.9123C87.335 15.7399 87.0442 15.4922 86.8288 15.169C86.6133 14.8428 86.5056 14.4489 86.5056 13.9872C86.5056 13.581 86.5856 13.2517 86.7457 12.9993C86.9057 12.7438 87.1196 12.5438 87.3874 12.3991C87.6551 12.2545 87.9506 12.1468 88.2737 12.076C88.6 12.0021 88.9277 11.9437 89.257 11.9006C89.6879 11.8452 90.0372 11.8036 90.305 11.7759C90.5758 11.7451 90.7728 11.6944 90.8959 11.6236C91.0221 11.5528 91.0852 11.4297 91.0852 11.2543V11.2173C91.0852 10.7618 90.9605 10.4079 90.7112 10.1555C90.465 9.90317 90.0911 9.77699 89.5894 9.77699C89.0693 9.77699 88.6615 9.89086 88.3661 10.1186C88.0706 10.3464 87.8629 10.5895 87.7428 10.848L86.7087 10.4787C86.8934 10.0478 87.1396 9.71236 87.4474 9.4723C87.7582 9.22917 88.0968 9.0599 88.463 8.96449C88.8323 8.866 89.1955 8.81676 89.5525 8.81676C89.7802 8.81676 90.0418 8.84446 90.3373 8.89986C90.6358 8.95218 90.9236 9.06143 91.2006 9.22763C91.4806 9.39382 91.713 9.64465 91.8977 9.98011C92.0823 10.3156 92.1747 10.7649 92.1747 11.3281V16H91.0852V15.0398H91.0298C90.9559 15.1937 90.8328 15.3583 90.6604 15.5337C90.4881 15.7092 90.2588 15.8584 89.9726 15.9815C89.6864 16.1046 89.3371 16.1662 88.9246 16.1662ZM89.0908 15.1875C89.5217 15.1875 89.8849 15.1029 90.1803 14.9336C90.4789 14.7643 90.7035 14.5458 90.8543 14.2781C91.0082 14.0103 91.0852 13.7287 91.0852 13.4332V12.4361C91.039 12.4915 90.9374 12.5423 90.7805 12.5884C90.6266 12.6315 90.4481 12.67 90.245 12.7038C90.0449 12.7346 89.8495 12.7623 89.6587 12.7869C89.4709 12.8085 89.3186 12.8269 89.2016 12.8423C88.9185 12.8793 88.6538 12.9393 88.4076 13.0224C88.1645 13.1024 87.9675 13.224 87.8167 13.3871C87.669 13.5471 87.5951 13.7656 87.5951 14.0426C87.5951 14.4212 87.7351 14.7074 88.0152 14.9013C88.2983 15.0921 88.6569 15.1875 89.0908 15.1875Z" fill="white"/>
<path d="M82.2446 16.1477C81.5614 16.1477 80.972 15.9969 80.4765 15.6953C79.9841 15.3906 79.604 14.9659 79.3362 14.4212C79.0715 13.8733 78.9392 13.2363 78.9392 12.5099C78.9392 11.7836 79.0715 11.1435 79.3362 10.5895C79.604 10.0324 79.9764 9.59848 80.4534 9.28764C80.9335 8.97372 81.4937 8.81676 82.1338 8.81676C82.5031 8.81676 82.8678 8.87831 83.2279 9.00142C83.588 9.12453 83.9158 9.32457 84.2112 9.60156C84.5067 9.87547 84.7421 10.2386 84.9175 10.6911C85.093 11.1435 85.1807 11.7005 85.1807 12.3622V12.8239H79.7148V11.8821H84.0727C84.0727 11.482 83.9927 11.125 83.8327 10.8111C83.6757 10.4972 83.451 10.2494 83.1587 10.0678C82.8694 9.88624 82.5278 9.79545 82.1338 9.79545C81.6999 9.79545 81.3244 9.90317 81.0074 10.1186C80.6935 10.331 80.4519 10.608 80.2826 10.9496C80.1133 11.2912 80.0287 11.6574 80.0287 12.0483V12.6761C80.0287 13.2116 80.121 13.6656 80.3057 14.038C80.4934 14.4073 80.7535 14.6889 81.0859 14.8828C81.4183 15.0736 81.8045 15.169 82.2446 15.169C82.5308 15.169 82.7894 15.129 83.0202 15.049C83.2541 14.9659 83.4557 14.8428 83.6249 14.6797C83.7942 14.5135 83.925 14.3073 84.0173 14.0611L85.0699 14.3565C84.9591 14.7135 84.7729 15.0275 84.5113 15.2983C84.2497 15.5661 83.9265 15.7753 83.5418 15.9261C83.1571 16.0739 82.7247 16.1477 82.2446 16.1477Z" fill="white"/>
<path d="M69.7963 16V6.54545H70.9412V10.7557H75.9823V6.54545H77.1272V16H75.9823V11.7713H70.9412V16H69.7963Z" fill="white"/>
<path d="M59.4773 11.7344V16H58.3878V8.90909H59.4404V10.017H59.5327C59.6989 9.65696 59.9513 9.36766 60.2898 9.14915C60.6283 8.92756 61.0654 8.81676 61.6009 8.81676C62.081 8.81676 62.5011 8.91525 62.8612 9.11222C63.2213 9.30611 63.5013 9.60156 63.7014 9.99858C63.9014 10.3925 64.0015 10.8911 64.0015 11.4943V16H62.912V11.5682C62.912 11.0111 62.7673 10.5772 62.478 10.2663C62.1887 9.95241 61.7917 9.79545 61.287 9.79545C60.9392 9.79545 60.6283 9.87086 60.3544 10.0217C60.0836 10.1725 59.8697 10.3925 59.7127 10.6818C59.5558 10.9711 59.4773 11.322 59.4773 11.7344Z" fill="white"/>
<path d="M53.7944 16.1477C53.1112 16.1477 52.5218 15.9969 52.0263 15.6953C51.5339 15.3906 51.1538 14.9659 50.886 14.4212C50.6214 13.8733 50.489 13.2363 50.489 12.5099C50.489 11.7836 50.6214 11.1435 50.886 10.5895C51.1538 10.0324 51.5262 9.59848 52.0032 9.28764C52.4833 8.97372 53.0435 8.81676 53.6836 8.81676C54.0529 8.81676 54.4176 8.87831 54.7777 9.00142C55.1378 9.12453 55.4656 9.32457 55.761 9.60156C56.0565 9.87547 56.2919 10.2386 56.4674 10.6911C56.6428 11.1435 56.7305 11.7005 56.7305 12.3622V12.8239H51.2646V11.8821H55.6225C55.6225 11.482 55.5425 11.125 55.3825 10.8111C55.2255 10.4972 55.0009 10.2494 54.7085 10.0678C54.4192 9.88624 54.0776 9.79545 53.6836 9.79545C53.2497 9.79545 52.8742 9.90317 52.5572 10.1186C52.2433 10.331 52.0017 10.608 51.8324 10.9496C51.6631 11.2912 51.5785 11.6574 51.5785 12.0483V12.6761C51.5785 13.2116 51.6708 13.6656 51.8555 14.038C52.0432 14.4073 52.3033 14.6889 52.6357 14.8828C52.9681 15.0736 53.3543 15.169 53.7944 15.169C54.0806 15.169 54.3392 15.129 54.57 15.049C54.8039 14.9659 55.0055 14.8428 55.1747 14.6797C55.344 14.5135 55.4748 14.3073 55.5671 14.0611L56.6197 14.3565C56.5089 14.7135 56.3227 15.0275 56.0611 15.2983C55.7995 15.5661 55.4763 15.7753 55.0916 15.9261C54.7069 16.0739 54.2745 16.1477 53.7944 16.1477Z" fill="white"/>
<path d="M42.8995 18.6591V8.90909H43.9521V10.0355H44.0814C44.1614 9.9124 44.2722 9.75544 44.4137 9.56463C44.5584 9.37074 44.7646 9.19839 45.0323 9.04759C45.3032 8.8937 45.6694 8.81676 46.1311 8.81676C46.7281 8.81676 47.2544 8.96603 47.7099 9.26456C48.1654 9.56309 48.5209 9.98627 48.7763 10.5341C49.0318 11.0819 49.1595 11.7282 49.1595 12.473C49.1595 13.224 49.0318 13.8749 48.7763 14.4258C48.5209 14.9736 48.1669 15.3983 47.7145 15.6999C47.2621 15.9985 46.7404 16.1477 46.1495 16.1477C45.694 16.1477 45.3293 16.0723 45.0554 15.9215C44.7815 15.7676 44.5707 15.5937 44.423 15.3999C44.2752 15.2029 44.1614 15.0398 44.0814 14.9105H43.989V18.6591H42.8995ZM43.9706 12.4545C43.9706 12.9901 44.049 13.4625 44.206 13.8718C44.363 14.2781 44.5922 14.5966 44.8939 14.8274C45.1955 15.0552 45.5648 15.169 46.0018 15.169C46.4573 15.169 46.8374 15.049 47.1421 14.8089C47.4498 14.5658 47.6807 14.2396 47.8346 13.8303C47.9915 13.4178 48.07 12.9593 48.07 12.4545C48.07 11.956 47.9931 11.5066 47.8392 11.1065C47.6884 10.7034 47.4591 10.3848 47.1513 10.1509C46.8466 9.91394 46.4635 9.79545 46.0018 9.79545C45.5586 9.79545 45.1862 9.90779 44.8846 10.1325C44.583 10.354 44.3553 10.6649 44.2014 11.065C44.0475 11.462 43.9706 11.9252 43.9706 12.4545Z" fill="white"/>
<path d="M41.1221 11.2727C41.1221 12.2699 40.9421 13.1316 40.582 13.858C40.2219 14.5843 39.7279 15.1444 39.1001 15.5384C38.4722 15.9323 37.7552 16.1293 36.9488 16.1293C36.1425 16.1293 35.4254 15.9323 34.7975 15.5384C34.1697 15.1444 33.6757 14.5843 33.3156 13.858C32.9556 13.1316 32.7755 12.2699 32.7755 11.2727C32.7755 10.2756 32.9556 9.41383 33.3156 8.6875C33.6757 7.96117 34.1697 7.40104 34.7975 7.0071C35.4254 6.61316 36.1425 6.41619 36.9488 6.41619C37.7552 6.41619 38.4722 6.61316 39.1001 7.0071C39.7279 7.40104 40.2219 7.96117 40.582 8.6875C40.9421 9.41383 41.1221 10.2756 41.1221 11.2727ZM40.0141 11.2727C40.0141 10.4541 39.8772 9.76314 39.6033 9.19993C39.3324 8.63672 38.9647 8.21046 38.4999 7.92116C38.0383 7.63187 37.5213 7.48722 36.9488 7.48722C36.3764 7.48722 35.8578 7.63187 35.3931 7.92116C34.9314 8.21046 34.5636 8.63672 34.2897 9.19993C34.0189 9.76314 33.8835 10.4541 33.8835 11.2727C33.8835 12.0914 34.0189 12.7823 34.2897 13.3455C34.5636 13.9087 34.9314 14.335 35.3931 14.6243C35.8578 14.9136 36.3764 15.0582 36.9488 15.0582C37.5213 15.0582 38.0383 14.9136 38.4999 14.6243C38.9647 14.335 39.3324 13.9087 39.6033 13.3455C39.8772 12.7823 40.0141 12.0914 40.0141 11.2727Z" fill="white"/>
<path d="M21.5 3C21.5 2.17157 20.8284 1.5 20 1.5H15C14.1716 1.5 13.5 2.17157 13.5 3V8C13.5 8.82843 14.1716 9.5 15 9.5H20C20.8284 9.5 21.5 8.82843 21.5 8V3ZM22.5 8C22.5 9.38071 21.3807 10.5 20 10.5H15C13.6193 10.5 12.5 9.38071 12.5 8V3C12.5 1.61929 13.6193 0.5 15 0.5H20C21.3807 0.5 22.5 1.61929 22.5 3V8Z" fill="#358CFD"/>
<path d="M9.5 3C9.5 2.17157 8.82843 1.5 8 1.5H3C2.17157 1.5 1.5 2.17157 1.5 3V8C1.5 8.82843 2.17157 9.5 3 9.5H8C8.82843 9.5 9.5 8.82843 9.5 8V3ZM10.5 8C10.5 9.38071 9.38071 10.5 8 10.5H3C1.61929 10.5 0.5 9.38071 0.5 8V3C0.5 1.61929 1.61929 0.5 3 0.5H8C9.38071 0.5 10.5 1.61929 10.5 3V8Z" fill="#358CFD"/>
<path d="M9.5 15C9.5 14.1716 8.82843 13.5 8 13.5H3C2.17157 13.5 1.5 14.1716 1.5 15V20C1.5 20.8284 2.17157 21.5 3 21.5H8C8.82843 21.5 9.5 20.8284 9.5 20V15ZM10.5 20C10.5 21.3807 9.38071 22.5 8 22.5H3C1.61929 22.5 0.5 21.3807 0.5 20V15C0.5 13.6193 1.61929 12.5 3 12.5H8C9.38071 12.5 10.5 13.6193 10.5 15V20Z" fill="#358CFD"/>
<path d="M21.5 15C21.5 14.1716 20.8284 13.5 20 13.5H15C14.1716 13.5 13.5 14.1716 13.5 15V20C13.5 20.8284 14.1716 21.5 15 21.5H20C20.8284 21.5 21.5 20.8284 21.5 20V15ZM22.5 20C22.5 21.3807 21.3807 22.5 20 22.5H15C13.6193 22.5 12.5 21.3807 12.5 20V15C12.5 13.6193 13.6193 12.5 15 12.5H20C21.3807 12.5 22.5 13.6193 22.5 15V20Z" fill="#358CFD"/>
</svg>
