<svg xmlns="http://www.w3.org/2000/svg" xmlns:xlink="http://www.w3.org/1999/xlink" viewBox="0 0 75 75" version="1.1" x="0px" y="0px"><g><path style="" d="M 21.484375 11.132812 C 21.484375 16.777344 16.90625 21.355469 11.261719 21.355469 C 5.617188 21.355469 1.039062 16.777344 1.039062 11.132812 C 1.039062 5.488281 5.617188 0.910156 11.261719 0.910156 C 16.90625 0.910156 21.484375 5.488281 21.484375 11.132812 Z M 21.484375 11.132812 " stroke="none" fill-rule="nonzero" fill="rgb(0%,0%,0%)" fill-opacity="1"></path><path style="" d="M 47.722656 11.132812 C 47.722656 16.777344 43.144531 21.355469 37.5 21.355469 C 31.855469 21.355469 27.277344 16.777344 27.277344 11.132812 C 27.277344 5.488281 31.855469 0.910156 37.5 0.910156 C 43.144531 0.910156 47.722656 5.488281 47.722656 11.132812 Z M 47.722656 11.132812 " stroke="none" fill-rule="nonzero" fill="rgb(0%,0%,0%)" fill-opacity="1"></path><path style="" d="M 74.21875 11.132812 C 74.21875 16.777344 69.640625 21.355469 63.996094 21.355469 C 58.351562 21.355469 53.773438 16.777344 53.773438 11.132812 C 53.773438 5.488281 58.351562 0.910156 63.996094 0.910156 C 69.640625 0.910156 74.21875 5.488281 74.21875 11.132812 Z M 74.21875 11.132812 " stroke="none" fill-rule="nonzero" fill="rgb(0%,0%,0%)" fill-opacity="1"></path><path style="" d="M 21.355469 37.5 C 21.355469 43.144531 16.777344 47.71875 11.132812 47.71875 C 5.488281 47.71875 0.910156 43.144531 0.910156 37.5 C 0.910156 31.851562 5.488281 27.277344 11.132812 27.277344 C 16.777344 27.277344 21.355469 31.851562 21.355469 37.5 Z M 21.355469 37.5 " stroke="none" fill-rule="nonzero" fill="rgb(0%,0%,0%)" fill-opacity="1"></path><path style="" d="M 47.59375 37.5 C 47.59375 43.144531 43.015625 47.71875 37.371094 47.71875 C 31.726562 47.71875 27.148438 43.144531 27.148438 37.5 C 27.148438 31.851562 31.726562 27.277344 37.371094 27.277344 C 43.015625 27.277344 47.59375 31.851562 47.59375 37.5 Z M 47.59375 37.5 " stroke="none" fill-rule="nonzero" fill="rgb(0%,0%,0%)" fill-opacity="1"></path><path style="" d="M 74.089844 37.5 C 74.089844 43.144531 69.511719 47.71875 63.867188 47.71875 C 58.222656 47.71875 53.644531 43.144531 53.644531 37.5 C 53.644531 31.851562 58.222656 27.277344 63.867188 27.277344 C 69.511719 27.277344 74.089844 31.851562 74.089844 37.5 Z M 74.089844 37.5 " stroke="none" fill-rule="nonzero" fill="rgb(0%,0%,0%)" fill-opacity="1"></path><path style="" d="M 21.484375 63.214844 C 21.484375 68.859375 16.90625 73.4375 11.261719 73.4375 C 5.617188 73.4375 1.039062 68.859375 1.039062 63.214844 C 1.039062 57.570312 5.617188 52.992188 11.261719 52.992188 C 16.90625 52.992188 21.484375 57.570312 21.484375 63.214844 Z M 21.484375 63.214844 " stroke="none" fill-rule="nonzero" fill="rgb(0%,0%,0%)" fill-opacity="1"></path><path style="" d="M 47.722656 63.214844 C 47.722656 68.859375 43.144531 73.4375 37.5 73.4375 C 31.855469 73.4375 27.277344 68.859375 27.277344 63.214844 C 27.277344 57.570312 31.855469 52.992188 37.5 52.992188 C 43.144531 52.992188 47.722656 57.570312 47.722656 63.214844 Z M 47.722656 63.214844 " stroke="none" fill-rule="nonzero" fill="rgb(0%,0%,0%)" fill-opacity="1"></path><path style="" d="M 74.21875 63.214844 C 74.21875 68.859375 69.640625 73.4375 63.996094 73.4375 C 58.351562 73.4375 53.773438 68.859375 53.773438 63.214844 C 53.773438 57.570312 58.351562 52.992188 63.996094 52.992188 C 69.640625 52.992188 74.21875 57.570312 74.21875 63.214844 Z M 74.21875 63.214844 " stroke="none" fill-rule="nonzero" fill="rgb(0%,0%,0%)" fill-opacity="1"></path></g></svg>