<?xml version="1.0" encoding="UTF-8" standalone="no"?>
<!DOCTYPE svg PUBLIC "-//W3C//DTD SVG 1.1//EN" "http://www.w3.org/Graphics/SVG/1.1/DTD/svg11.dtd">
<svg xmlns="http://www.w3.org/2000/svg" version="1.1" viewBox="0.00 0.00 316.00 316.00" width="316.00" height="316.00">
<g stroke-width="2.00" fill="none" stroke-linecap="butt">
<path stroke="#88a8c8" vector-effect="non-scaling-stroke" d="
  M 241.64 205.21
  C 219.45 240.78 177.71 258.23 137.24 248.97
  C 98.22 240.04 67.90 207.17 62.53 167.50
  C 53.61 101.63 111.52 46.45 177.14 58.56
  Q 177.37 58.60 177.40 58.37
  L 178.19 51.96
  Q 178.22 51.72 177.97 51.69
  L 168.70 50.67
  A 0.46 0.46 0.0 0 1 168.28 50.19
  L 168.62 43.63
  Q 168.65 43.15 169.12 43.21
  L 178.81 44.36
  Q 179.07 44.39 179.12 44.14
  L 181.01 35.70
  A 0.38 0.38 0.0 0 0 180.70 35.24
  L 170.97 33.81
  Q 170.25 33.70 170.35 32.97
  L 171.03 28.20
  Q 171.13 27.47 171.86 27.53
  Q 179.76 28.19 187.39 30.26
  A 0.38 0.38 0.0 0 0 187.84 30.06
  L 193.17 18.89
  A 0.40 0.39 19.1 0 0 192.89 18.33
  C 180.27 15.66 166.72 13.43 153.74 13.95
  C 105.70 15.86 61.96 42.04 37.82 83.32
  C 5.38 138.77 15.03 209.27 60.65 254.10
  Q 95.17 288.03 143.54 293.46
  C 218.45 301.87 285.81 249.57 297.66 175.54
  A 0.45 0.45 0.0 0 0 297.18 175.02
  C 269.28 177.68 230.55 173.49 217.98 143.27
  Q 217.77 142.77 217.29 143.02
  C 185.20 159.36 154.30 130.72 138.40 105.91
  A 0.35 0.34 50.1 0 0 137.86 105.86
  L 113.95 131.75
  A 0.47 0.45 -41.1 0 0 113.90 132.31
  C 133.71 161.83 169.06 189.18 205.92 169.52
  Q 206.62 169.14 206.83 169.91
  C 210.99 185.52 224.21 202.60 241.40 204.70
  Q 241.91 204.77 241.64 205.21"
/>

</g>
<path fill="#044A42" d="
  M 0.00 0.00
  L 316.00 0.00
  L 316.00 316.00
  L 0.00 316.00
  L 0.00 0.00
  Z
  M 241.64 205.21
  C 219.45 240.78 177.71 258.23 137.24 248.97
  C 98.22 240.04 67.90 207.17 62.53 167.50
  C 53.61 101.63 111.52 46.45 177.14 58.56
  Q 177.37 58.60 177.40 58.37
  L 178.19 51.96
  Q 178.22 51.72 177.97 51.69
  L 168.70 50.67
  A 0.46 0.46 0.0 0 1 168.28 50.19
  L 168.62 43.63
  Q 168.65 43.15 169.12 43.21
  L 178.81 44.36
  Q 179.07 44.39 179.12 44.14
  L 181.01 35.70
  A 0.38 0.38 0.0 0 0 180.70 35.24
  L 170.97 33.81
  Q 170.25 33.70 170.35 32.97
  L 171.03 28.20
  Q 171.13 27.47 171.86 27.53
  Q 179.76 28.19 187.39 30.26
  A 0.38 0.38 0.0 0 0 187.84 30.06
  L 193.17 18.89
  A 0.40 0.39 19.1 0 0 192.89 18.33
  C 180.27 15.66 166.72 13.43 153.74 13.95
  C 105.70 15.86 61.96 42.04 37.82 83.32
  C 5.38 138.77 15.03 209.27 60.65 254.10
  Q 95.17 288.03 143.54 293.46
  C 218.45 301.87 285.81 249.57 297.66 175.54
  A 0.45 0.45 0.0 0 0 297.18 175.02
  C 269.28 177.68 230.55 173.49 217.98 143.27
  Q 217.77 142.77 217.29 143.02
  C 185.20 159.36 154.30 130.72 138.40 105.91
  A 0.35 0.34 50.1 0 0 137.86 105.86
  L 113.95 131.75
  A 0.47 0.45 -41.1 0 0 113.90 132.31
  C 133.71 161.83 169.06 189.18 205.92 169.52
  Q 206.62 169.14 206.83 169.91
  C 210.99 185.52 224.21 202.60 241.40 204.70
  Q 241.91 204.77 241.64 205.21
  Z
  M 214.03 37.94
  A 0.66 0.66 0.0 0 0 214.97 37.38
  L 215.38 29.83
  A 0.66 0.66 0.0 0 0 214.97 29.18
  L 205.26 25.14
  A 0.66 0.66 0.0 0 0 204.35 25.73
  L 204.14 32.75
  A 0.66 0.66 0.0 0 0 204.52 33.37
  L 214.03 37.94
  Z
  M 208.46 57.98
  A 0.25 0.25 0.0 0 0 208.83 57.77
  L 209.49 44.99
  A 0.85 0.84 13.9 0 0 209.00 44.18
  Q 200.19 40.01 190.75 37.50
  A 0.25 0.24 -83.9 0 0 190.45 37.75
  L 191.06 50.03
  A 0.79 0.78 -83.1 0 0 191.61 50.74
  Q 200.41 53.49 208.46 57.98
  Z
  M 222.10 54.93
  Q 228.84 59.47 234.30 65.48
  A 0.45 0.45 0.0 0 0 235.07 65.23
  L 237.04 50.24
  A 0.87 0.87 0.0 0 0 236.71 49.43
  L 223.91 39.36
  A 0.52 0.51 -68.3 0 0 223.08 39.72
  L 221.81 54.33
  A 0.64 0.63 -70.9 0 0 222.10 54.93
  Z
  M 202.80 66.47
  A 0.34 0.34 0.0 0 0 203.28 66.16
  L 203.23 60.03
  A 0.34 0.34 0.0 0 0 203.02 59.72
  L 193.75 56.10
  A 0.34 0.34 0.0 0 0 193.29 56.39
  L 192.89 61.87
  A 0.34 0.34 0.0 0 0 193.09 62.21
  L 202.80 66.47
  Z
  M 216.68 74.71
  Q 222.31 78.77 226.84 84.02
  A 0.39 0.39 0.0 0 0 227.52 83.79
  L 228.20 70.74
  Q 228.22 70.29 227.87 70.01
  L 218.44 62.40
  A 0.44 0.43 22.5 0 0 217.73 62.69
  L 216.55 74.43
  A 0.33 0.31 -71.5 0 0 216.68 74.71
  Z
  M 249.43 64.43
  A 0.37 0.37 0.0 0 0 248.78 64.62
  L 247.65 73.95
  A 0.37 0.37 0.0 0 0 247.73 74.22
  L 254.56 82.86
  A 0.37 0.37 0.0 0 0 255.22 82.69
  L 256.92 73.21
  A 0.37 0.37 0.0 0 0 256.83 72.91
  L 249.43 64.43
  Z
  M 243.91 87.37
  A 0.37 0.37 0.0 0 0 244.59 87.28
  L 246.72 79.50
  Q 246.84 79.04 246.52 78.71
  L 239.11 70.96
  A 0.17 0.17 0.0 0 0 238.82 71.06
  L 237.64 79.83
  A 0.38 0.36 -66.9 0 0 237.77 80.17
  Q 241.44 83.26 243.91 87.37
  Z
  M 241.87 102.63
  A 0.32 0.32 0.0 0 0 242.44 102.54
  L 244.46 95.80
  A 0.32 0.32 0.0 0 0 244.41 95.52
  L 239.19 88.10
  A 0.32 0.32 0.0 0 0 238.61 88.21
  L 236.89 95.30
  A 0.32 0.32 0.0 0 0 236.94 95.56
  L 241.87 102.63
  Z
  M 252.86 89.11
  A 0.51 0.51 0.0 0 0 251.93 89.21
  L 250.04 95.40
  A 0.51 0.51 0.0 0 0 250.09 95.82
  L 254.00 102.18
  A 0.51 0.51 0.0 0 0 254.89 102.15
  L 257.37 97.43
  A 0.51 0.51 0.0 0 0 257.36 96.94
  L 252.86 89.11
  Z"
/>
<path fill="#ffffff" d="
  M 241.40 204.70
  C 224.21 202.60 210.99 185.52 206.83 169.91
  Q 206.62 169.14 205.92 169.52
  C 169.06 189.18 133.71 161.83 113.90 132.31
  A 0.47 0.45 -41.1 0 1 113.95 131.75
  L 137.86 105.86
  A 0.35 0.34 50.1 0 1 138.40 105.91
  C 154.30 130.72 185.20 159.36 217.29 143.02
  Q 217.77 142.77 217.98 143.27
  C 230.55 173.49 269.28 177.68 297.18 175.02
  A 0.45 0.45 0.0 0 1 297.66 175.54
  C 285.81 249.57 218.45 301.87 143.54 293.46
  Q 95.17 288.03 60.65 254.10
  C 15.03 209.27 5.38 138.77 37.82 83.32
  C 61.96 42.04 105.70 15.86 153.74 13.95
  C 166.72 13.43 180.27 15.66 192.89 18.33
  A 0.40 0.39 19.1 0 1 193.17 18.89
  L 187.84 30.06
  A 0.38 0.38 0.0 0 1 187.39 30.26
  Q 179.76 28.19 171.86 27.53
  Q 171.13 27.47 171.03 28.20
  L 170.35 32.97
  Q 170.25 33.70 170.97 33.81
  L 180.70 35.24
  A 0.38 0.38 0.0 0 1 181.01 35.70
  L 179.12 44.14
  Q 179.07 44.39 178.81 44.36
  L 169.12 43.21
  Q 168.65 43.15 168.62 43.63
  L 168.28 50.19
  A 0.46 0.46 0.0 0 0 168.70 50.67
  L 177.97 51.69
  Q 178.22 51.72 178.19 51.96
  L 177.40 58.37
  Q 177.37 58.60 177.14 58.56
  C 111.52 46.45 53.61 101.63 62.53 167.50
  C 67.90 207.17 98.22 240.04 137.24 248.97
  C 177.71 258.23 219.45 240.78 241.64 205.21
  Q 241.91 204.77 241.40 204.70
  Z"
/>
<path fill="#ffffff" d="
  M 214.03 37.94
  L 204.52 33.37
  A 0.66 0.66 0.0 0 1 204.14 32.75
  L 204.35 25.73
  A 0.66 0.66 0.0 0 1 205.26 25.14
  L 214.97 29.18
  A 0.66 0.66 0.0 0 1 215.38 29.83
  L 214.97 37.38
  A 0.66 0.66 0.0 0 1 214.03 37.94
  Z"
/>
<path fill="#ffffff" d="
  M 208.46 57.98
  Q 200.41 53.49 191.61 50.74
  A 0.79 0.78 -83.1 0 1 191.06 50.03
  L 190.45 37.75
  A 0.25 0.24 -83.9 0 1 190.75 37.50
  Q 200.19 40.01 209.00 44.18
  A 0.85 0.84 13.9 0 1 209.49 44.99
  L 208.83 57.77
  A 0.25 0.25 0.0 0 1 208.46 57.98
  Z"
/>
<path fill="#ffffff" d="
  M 222.10 54.93
  A 0.64 0.63 -70.9 0 1 221.81 54.33
  L 223.08 39.72
  A 0.52 0.51 -68.3 0 1 223.91 39.36
  L 236.71 49.43
  A 0.87 0.87 0.0 0 1 237.04 50.24
  L 235.07 65.23
  A 0.45 0.45 0.0 0 1 234.30 65.48
  Q 228.84 59.47 222.10 54.93
  Z"
/>
<path fill="#ffffff" d="
  M 202.80 66.47
  L 193.09 62.21
  A 0.34 0.34 0.0 0 1 192.89 61.87
  L 193.29 56.39
  A 0.34 0.34 0.0 0 1 193.75 56.10
  L 203.02 59.72
  A 0.34 0.34 0.0 0 1 203.23 60.03
  L 203.28 66.16
  A 0.34 0.34 0.0 0 1 202.80 66.47
  Z"
/>
<path fill="#ffffff" d="
  M 216.68 74.71
  A 0.33 0.31 -71.5 0 1 216.55 74.43
  L 217.73 62.69
  A 0.44 0.43 22.5 0 1 218.44 62.40
  L 227.87 70.01
  Q 228.22 70.29 228.20 70.74
  L 227.52 83.79
  A 0.39 0.39 0.0 0 1 226.84 84.02
  Q 222.31 78.77 216.68 74.71
  Z"
/>
<path fill="#ffffff" d="
  M 249.43 64.43
  L 256.83 72.91
  A 0.37 0.37 0.0 0 1 256.92 73.21
  L 255.22 82.69
  A 0.37 0.37 0.0 0 1 254.56 82.86
  L 247.73 74.22
  A 0.37 0.37 0.0 0 1 247.65 73.95
  L 248.78 64.62
  A 0.37 0.37 0.0 0 1 249.43 64.43
  Z"
/>
<path fill="#ffffff" d="
  M 243.91 87.37
  Q 241.44 83.26 237.77 80.17
  A 0.38 0.36 -66.9 0 1 237.64 79.83
  L 238.82 71.06
  A 0.17 0.17 0.0 0 1 239.11 70.96
  L 246.52 78.71
  Q 246.84 79.04 246.72 79.50
  L 244.59 87.28
  A 0.37 0.37 0.0 0 1 243.91 87.37
  Z"
/>
<path fill="#ffffff" d="
  M 241.87 102.63
  L 236.94 95.56
  A 0.32 0.32 0.0 0 1 236.89 95.30
  L 238.61 88.21
  A 0.32 0.32 0.0 0 1 239.19 88.10
  L 244.41 95.52
  A 0.32 0.32 0.0 0 1 244.46 95.80
  L 242.44 102.54
  A 0.32 0.32 0.0 0 1 241.87 102.63
  Z"
/>
<path fill="#ffffff" d="
  M 252.86 89.11
  L 257.36 96.94
  A 0.51 0.51 0.0 0 1 257.37 97.43
  L 254.89 102.15
  A 0.51 0.51 0.0 0 1 254.00 102.18
  L 250.09 95.82
  A 0.51 0.51 0.0 0 1 250.04 95.40
  L 251.93 89.21
  A 0.51 0.51 0.0 0 1 252.86 89.11
  Z"
/>
</svg>
