<svg
  xmlns="http://www.w3.org/2000/svg"
  viewBox="0 0 1000 1000"
  width="1em"
  height="1em"
  fill="currentColor"
>
  <g>
    <path d="M153.9,377.5h223.6l-137-137c66.4-66.6,157.9-108,259.5-108c203,0,367.5,164.5,367.5,367.5H990c0-270.6-219.4-490-490-490c-135.4,0-257.4,55.2-345.9,144.1L10,10v367.5h16H153.9z"/><path d="M846.1,622.5H622.5l137,137c-66.4,66.6-157.9,108-259.5,108C297,867.5,132.5,703,132.5,500H10c0,270.6,219.4,490,490,490c135.4,0,257.4-55.2,345.9-144.1L990,990V622.5h-16H846.1z"/>
  </g>
</svg>
