<svg
  xmlns="http://www.w3.org/2000/svg"
  viewBox="0 0 512 512"
  width="1em"
  height="1em"
  stroke="currentColor"
  fill="currentColor"
>
  <title id="title">Fusion</title>
  <g>
    <path d="M200,152c42.7,0,82.9,16.6,113.1,46.9S360,269.3,360,312s-16.6,82.9-46.9,113.1S242.7,472,200,472s-82.9-16.6-113.1-46.9
		S40,354.7,40,312s16.6-82.9,46.9-113.1S157.3,152,200,152 M200,112C89.5,112,0,201.5,0,312s89.5,200,200,200s200-89.5,200-200
		S310.5,112,200,112L200,112z"/>
    <path d="M312,40c42.7,0,82.9,16.6,113.1,46.9S472,157.3,472,200s-16.6,82.9-46.9,113.1S354.7,360,312,360s-82.9-16.6-113.1-46.9
		S152,242.7,152,200s16.6-82.9,46.9-113.1S269.3,40,312,40 M312,0C201.5,0,112,89.5,112,200s89.5,200,200,200s200-89.5,200-200
		S422.5,0,312,0L312,0z"/>
    <path d="M200,112c-26.1,0-51,5-73.9,14.1C117,149,112,173.9,112,200c0,110.5,89.5,200,200,200c26.1,0,51-5,73.9-14.1
		C395,363,400,338.1,400,312C400,201.5,310.5,112,200,112z"/>
  </g>
</svg>
