<svg
  xmlns="http://www.w3.org/2000/svg"
  viewBox="0 0 24 16">
    <title>The Institute of Cancer Research</title>
    <g id="icon-icr-logo-group" stroke="none" opacity="1" fill-opacity="1">
      <path fill="#ffffff" d="M23.13 0.12C23.56 0.12 23.91 0.47 23.91 0.9C23.91 3.9 23.91 12.12 23.91 15.12C23.91 15.55 23.56 15.9 23.13 15.9C18.53 15.9 5.52 15.9 0.92 15.9C0.49 15.9 0.14 15.55 0.14 15.12C0.14 12.12 0.14 3.9 0.14 0.9C0.14 0.47 0.49 0.12 0.92 0.12C5.52 0.12 18.53 0.12 23.13 0.12Z" id="e2h3fwK2PH"></path>
      <path fill="#616266" d="M1.8 11.48L2.31 11.52L2.79 11.48L2.99 11.24L2.93 1.9L2.93 1.66L2.75 1.46L2.31 1.46L1.86 1.46L1.63 1.56L1.55 1.8L1.55 11.24L1.8 11.48Z" id="f1cofXIdWC"></path>
      <path fill="#ef7ca5" d="M9.08 14.28L9.18 14.33L13.97 14.3L14.08 14.22L14.13 14.11L14.13 13.1L14.07 12.99L13.95 12.92L9.2 12.92L9.07 12.99L9.01 13.11L9.03 14.18L9.08 14.28Z" id="c9ywAIpVm"></path>
      <path fill="#a11c2f" d="M14.74 14.29L22.6 14.29L22.73 14.25L22.79 14.16L22.76 13.16L22.69 13.04L22.58 12.97L20.99 12.97L14.77 12.96L14.69 13.03L14.63 13.14L14.64 14.19L14.74 14.29Z" id="d24cEqyQiN"></path>
      <path fill="#616266" d="M21.38 1.76L21.8 1.96L22.23 2.3L22.57 2.72L22.77 3.23L22.9 3.75L22.94 4.32L22.87 5.01L22.71 5.49L22.48 5.94L22.23 6.26L21.85 6.57L21.42             6.81L21.04 6.93L20.67 7L20.73 7.19L22.2 9.45L22.77 10.28L22.77 11.31L22.67 11.43L21.93 11.43L21.8 11.31L19.3 7.4L19.15 7.24L18.95 7.12L16.69 7.12L16.54 7.19L16.46             7.33L16.46 11.31L16.34 11.43L15.27 11.43L15.15 11.31L15.15 1.67L15.2 1.52L15.37 1.46L20.32 1.52L20.78 1.59L20.78 1.59L21.38 1.76ZM16.47 2.88L16.47 5.7L16.5 5.86L16.66             5.94L20.28 5.94L20.77 5.8L21.14 5.53L21.4 5.16L21.53 4.83L21.56 4.21L21.53 3.72L21.37 3.36L21.1 3.01L20.72 2.78L20.15 2.68L16.69 2.68L16.53 2.78L16.53 2.78L16.47 2.88Z" id="hjltRVjKl"></path>
      <path fill="#616266" d="M12.04 4.35L11.97 4.16L11.79 3.79L11.44 3.32L10.94 2.91L10.35 2.65L9.78 2.55L9.07 2.55L8.5 2.62L7.87 2.85L7.32 3.18L6.82 3.7L6.5 4.23L6.18 4.97L6.03 5.91L6.06 7.1L6.18 7.96L6.56             8.86L7.08 9.45L7.73 9.99L8.46 10.34L9.33 10.38L10.05 10.34L10.53 10.2L11 9.93L11.41 9.58L11.72 9.17L11.92 8.66L12.04 8.49L12.19 8.37L13.28 8.37L13.36 8.58L13.17 9.14L12.88 9.76L12.68             10.2L12.25 10.6L11.82 10.93L11.2 11.28L10.45 11.46L9.75 11.58L9.02 11.58L8.32 11.52L7.5 11.28L6.82 10.97L6.31 10.55L5.8 10.04L5.28 9.32L4.93 8.45L4.7 7.52L4.63             6.49L4.7 5.61L4.86 4.67L5.17 3.86L5.68 2.97L6.38 2.29L7.24 1.71L7.99 1.46L9.02 1.34L9.88 1.34L10.81 1.52L11.49 1.71L12.11 2.13L12.68 2.74L13.1 3.39L13.36 4.16L13.36 4.39L13.17             4.39L12.19 4.39L12.04 4.35Z" id="b1j7h2XwDj"></path>
      <path fill="#f9a10c" d="M5.53 14.28L5.63 14.34L8.41 14.34L8.51 14.29L8.57 14.21L8.56 13.05L8.51 12.95L8.41 12.9L5.63 12.9L5.51 12.99L5.48 13.12L5.48 14.18L5.53 14.28Z" id="ap2RwenRt"></path>
      <path fill="#d2d418" d="M1.55 14.3L1.65 14.37L2.4 14.37L2.53 14.3L2.55 14.16L2.54 13.13L2.48 13L2.38 12.93L1.62 12.93L1.53 13.02L1.5 13.12L1.51 14.17L1.55 14.3Z" id="ldnUCld7"></path>
      <path fill="#f9da01" d="M3.04 14.3L3.12 14.36L4.89 14.35L5 14.29L5.05 14.19L5.05 13.09L4.99 12.99L4.89 12.92L3.1 12.92L3.01 12.98L2.98 13.11L3 14.2L3.04 14.3Z" id="b25DJCL9u"></path>
    </g>
</svg>
