<svg
  xmlns="http://www.w3.org/2000/svg"
  viewBox="0 0 128 128"
  aria-labelledby="title"
  width="1em"
  height="1em"
  stroke="currentColor"
  fill="currentColor"
>
 <title id="title">Brush eraser</title>
 <g>
  <path d="M74.2,61l3,2.5l3.3,1.7l2.8,0.9l0.2,1.7l-0.1,6l-1,4.6l-1.3,3l-1.9,3.1l-2.6,2.9l-3.8,3l-4.3,2l-4.6,1.1
		L59,94l-4.5-0.4l-4.6-1.3l-4-1.9l-3.5-2.9l-3.1-4.1l-2.2-4.6l-1.2-4.2l-0.8-4.1L34.8,65l4.8,3.4l4,2.5l2.2,0.5l1.6-0.7l0.9-1.7
		l1.6-3.1l1.5-2.7l2.8-2.9l2.6-1.7l4.5-1.7l5.2-0.8l4-0.3l1.5,2.5L74.2,61z M121.5,5.4l1.8,1.6l1.3,2.2l0.4,2.9l-0.4,2.4l-0.7,2.7
		l-1.3,2.6l-4.2,7.8l-4.8,8.6l-3.7,6.1l-2.6,4.2l-2.8,4.3l-1.8,2.3l-2.3,3l-2,2l-2.7,1.8l-2.3,1.1L91,61.8l-2.3,0.3h-1.8L85,61.7
		L82.9,61l-2-0.9l-1.8-1.2l-1.8-1.7l-1.6-1.8l-1.4-2.3L73.5,51L73,48.8L72.9,47l0.1-1.7v-2l0.6-1.8l0.4-1.2l1-1.8l1.8-2.1L110,6
		l2.9-1.7l2.2-0.5h2.5l2.1,0.7L121.5,5.4z"/>
 </g>
  <rect height="9.99999" width="36.99996" y="97.42687" x="9.37173"/>
</svg>
