<svg
  xmlns="http://www.w3.org/2000/svg"
  viewBox="0 0 252.667 252.667"
  width="1em"
  height="1em"
  stroke="currentColor"
  stroke-width="0"
  fill="currentColor"
>
  <title id="title">Colormap</title>
    <g>
        <circle style="fill:#2B8A9A;" cx="126.333" cy="126.333" r="126.333"/>
        <g>
            <path style="fill:#1C7287;" d="M215.664,37.002c-49.336-49.336-129.326-49.336-178.662,0l89.331,89.331L215.664,37.002z"/>
            <path style="fill:#165C6C;" d="M126.334,0C94.002,0,61.67,12.334,37.002,37.002l89.331,89.331L126.334,0z"/>
            <path style="fill:#F8B242;" d="M37.002,215.664c49.336,49.336,129.326,49.336,178.662,0l-89.331-89.331L37.002,215.664z"/>
            <path style="fill:#D09838;" d="M37.003,215.664c24.668,24.668,57.331,37.002,89.331,37.002V126.333L37.003,215.664z"/>
            <path style="fill:#E45527;" d="M215.664,37.002l-89.331,89.331l89.331,89.331C265.001,166.328,265.001,86.338,215.664,37.002z"/>
        </g>
    </g>
</svg>
