<svg
  xmlns="http://www.w3.org/2000/svg"
  viewBox="0 0 492 492"
  aria-labelledby="title"
  width="1em"
  height="1em"
  stroke="currentColor"
  fill="currentColor"
>
  <title id="title">Export</title>
  <g>
    <path d="M414.317,153.106L265.606,4.395c-5.859-5.859-15.352-5.859-21.211,0L95.683,153.106c-5.859,5.859-5.859,15.352,0,21.211
          l42.422,42.422c5.859,5.859,15.352,5.859,21.211,0L210,166.055v206.367c0,8.291,6.709,14.578,15,14.578h60
          c8.291,0,15-6.287,15-14.578V166.055l50.684,50.684c5.859,5.859,15.352,5.859,21.211,0l42.422-42.422
          C420.176,168.458,420.176,158.965,414.317,153.106z"/>
    <path d="M497,332h-60c-8.291,0-15,6.709-15,15v75H90v-75c0-8.291-6.709-15-15-15H15c-8.291,0-15,6.709-15,15v120
          c0,24.814,20.186,45,45,45h422c24.814,0,45-20.186,45-45V347C512,338.709,505.291,332,497,332z"/>
    </g>
</svg>
