<svg
  xmlns="http://www.w3.org/2000/svg"
  viewBox="0 0 492 492"
  aria-labelledby="title"
  width="1em"
  height="1em"
  stroke="currentColor"
  fill="currentColor"
>
  <title id="title">Import</title>
  <g>
    <path d="M414.317,213.105l-42.422-42.422c-5.859-5.859-15.352-5.859-21.211,0L300,221.367V15c0-8.291-6.709-15-15-15h-60
          c-8.291,0-15,6.709-15,15v206.367l-50.683-50.684c-5.859-5.859-15.352-5.859-21.211,0l-42.422,42.422
          c-5.859,5.859-5.859,15.352,0,21.211l148.711,148.711c5.859,5.86,15.351,5.86,21.21,0l148.712-148.711
          C420.176,228.457,420.176,218.964,414.317,213.105z"/>
    <path d="M497,332h-60c-8.291,0-15,6.709-15,15v75H90v-75c0-8.291-6.709-15-15-15H15c-8.291,0-15,6.709-15,15v120
          c0,24.814,20.186,45,45,45h422c24.814,0,45-20.186,45-45V347C512,338.709,505.291,332,497,332z"/>
  </g>
</svg>
