<svg
  xmlns="http://www.w3.org/2000/svg"
  viewBox="0 0 128 128"
  aria-labelledby="title"
  width="1em"
  height="1em"
  stroke="currentColor"
  fill="currentColor"
>
  <title id="title">Mask: auto mode</title>
  <g>
    <path d="M74.5,60.7l3,2.5l3.3,1.7l2.8,0.9l0.2,1.7l-0.1,6l-1,4.6l-1.3,3l-1.9,3.1l-2.6,2.9l-3.8,3l-4.3,2l-4.6,1.1
		l-4.9,0.4l-4.5-0.4l-4.6-1.3l-4-1.9l-3.5-2.9l-3.1-4.1l-2.2-4.6l-1.2-4.2l-0.8-4.1l-0.3-5.4l4.8,3.4l4,2.5l2.2,0.5l1.6-0.7l0.9-1.7
		l1.6-3.1l1.5-2.7l2.8-2.9l2.6-1.7l4.5-1.7l5.2-0.8l4-0.3l1.5,2.5L74.5,60.7z M121.7,5.2l1.8,1.6l1.3,2.2l0.4,2.9l-0.4,2.4l-0.7,2.7
		l-1.3,2.6l-4.2,7.8l-4.8,8.6l-3.7,6.1l-2.6,4.2l-2.8,4.3l-1.8,2.3l-2.3,3l-2,2L96,59.9L93.6,61l-2.3,0.6L89,61.9h-1.8l-1.9-0.4
		l-2.1-0.7l-2-0.9l-1.8-1.2L77.6,57L76,55.3l-1.4-2.3l-0.8-2.2l-0.5-2.2l-0.1-1.8l0.1-1.7v-2l0.6-1.8l0.4-1.2l1-1.8l1.8-2.1
		l33.2-30.4l2.9-1.7l2.2-0.5h2.5l2.1,0.7L121.7,5.2z"/>
    <path d="M17.6,92.5l1.8,3.3l1.5,2.6l4.9,3.5l6,1.1l5.7,0.9l5.5,1.1l4.2,1.3l3.1,2.2l6.2,5.1l-5.1,4l-6,2.6
		l-7.3,1.8l-2.2-4l-2.9-2.6l-5.1-1.8l-5.7-0.9l-5.5-2.6l-5.5-5.3l-4-6.6L17.6,92.5z"/>
    <path d="M30.3,49.7l11.7,7.4L29,61.6l-3.4,13l-8.6-10.8L3.4,64.4L11,53.4L5.9,40.7l13.3,3.9l10.6-8.4L30.3,49.7z"
    />
    <path d="M56.6,10.1l12.4-6l-3,13.3l9.3,9.7l-13.6,1.7l-6.7,12l-5.4-12.3l-13.4-2.2l10.3-9.2L44.8,3.5L56.6,10.1z"/>
    <path d="M105.4,99.9l11.9,7l-12.7,4.9l-2.9,13.1l-8.9-10.4l-13.7,1.1l7.2-11.3l-5.6-12.4l13.4,3.4l10.2-8.8
		L105.4,99.9z"/>
  </g>
</svg>
