<svg
  xmlns="http://www.w3.org/2000/svg"
  viewBox="0 0 128 128"
  aria-labelledby="title"
  width="1em"
  height="1em"
  stroke="currentColor"
>
  <title id="title">Contour</title>
  <g stroke-width="7">
    <path d="M22,17.5c4.1,0,7.5,3.4,7.5,7.5s-3.4,7.5-7.5,7.5s-7.5-3.4-7.5-7.5S17.9,17.5,22,17.5 M22,12.5c-6.9,0-12.5,5.6-12.5,12.5
		S15.1,37.5,22,37.5S34.5,31.9,34.5,25S28.9,12.5,22,12.5L22,12.5z"/>
    <path d="M12.5,108c4.1,0,7.5,3.4,7.5,7.5s-3.4,7.5-7.5,7.5S5,119.6,5,115.5S8.4,108,12.5,108 M12.5,103C5.6,103,0,108.6,0,115.5
		S5.6,128,12.5,128S25,122.4,25,115.5S19.4,103,12.5,103L12.5,103z"/>
    <path d="M65.5,5c4.1,0,7.5,3.4,7.5,7.5S69.6,20,65.5,20S58,16.6,58,12.5S61.4,5,65.5,5 M65.5,0C58.6,0,53,5.6,53,12.5
		S58.6,25,65.5,25S78,19.4,78,12.5S72.4,0,65.5,0L65.5,0z"/>
    <path d="M115.5,43c4.1,0,7.5,3.4,7.5,7.5s-3.4,7.5-7.5,7.5s-7.5-3.4-7.5-7.5S111.4,43,115.5,43 M115.5,38
		c-6.9,0-12.5,5.6-12.5,12.5S108.6,63,115.5,63S128,57.4,128,50.5S122.4,38,115.5,38L115.5,38z"/>
    <path d="M81.5,99c4.1,0,7.5,3.4,7.5,7.5c0,4.1-3.4,7.5-7.5,7.5c-4.1,0-7.5-3.4-7.5-7.5C74,102.4,77.4,99,81.5,99 M81.5,94
		C74.6,94,69,99.6,69,106.5c0,6.9,5.6,12.5,12.5,12.5c6.9,0,12.5-5.6,12.5-12.5C94,99.6,88.4,94,81.5,94L81.5,94z"/>
  </g>
  <g stroke-width="10" stroke-miterlimit="10">
    <line x1="13.5" y1="106.5" x2="20.5" y2="34.5"/>
    <line x1="31.5" y1="22.5" x2="56.5" y2="14.5"/>
    <line x1="107.5" y1="44.5" x2="73.5" y2="18.5"/>
    <line x1="21.5" y1="114.5" x2="72.5" y2="107.5"/>
    <line x1="87.5" y1="98.5" x2="109.5" y2="59.5"/>
  </g>
</svg>
