<svg
  xmlns="http://www.w3.org/2000/svg"
  viewBox="0 0 128 128"
  aria-labelledby="title"
  width="1em"
  height="1em"
  stroke="currentColor"
  fill="currentColor"
>
  <title id="title">Mask: manual mode</title>
  <g>
    <path d="M74.4,61.7l3,2.5l3.3,1.7l2.8,0.9l0.2,1.7l-0.1,6l-1,4.6l-1.3,3l-1.9,3.1l-2.6,2.9l-3.8,3l-4.3,2l-4.6,1.1
		l-4.9,0.4l-4.5-0.4l-4.6-1.3l-4-1.9l-3.5-2.9l-3.1-4.1l-2.2-4.6l-1.2-4.2l-0.8-4.1L35,65.8l4.8,3.4l4,2.5l2.2,0.5l1.6-0.7l0.9-1.7
		l1.6-3.1l1.5-2.7l2.8-2.9l2.6-1.7l4.5-1.7l5.2-0.8l4-0.3l1.5,2.5L74.4,61.7z M121.7,6.1l1.8,1.6l1.3,2.2l0.4,2.9l-0.4,2.4l-0.7,2.7
		l-1.3,2.6l-4.2,7.8l-4.8,8.6l-3.7,6.1l-2.6,4.2l-2.8,4.3L103,54l-2.3,3l-2,2l-2.7,1.8L93.6,62l-2.3,0.6l-2.3,0.3h-1.8l-1.9-0.4
		l-2.1-0.7l-2-0.9l-1.8-1.2L77.6,58l-1.6-1.8l-1.4-2.3l-0.8-2.2l-0.5-2.2l-0.1-1.8l0.1-1.7v-2l0.6-1.8l0.4-1.2l1-1.8l1.8-2.1
		l33.2-30.4l2.9-1.7l2.2-0.5h2.5l2.1,0.7L121.7,6.1z"/>
    <path d="M58.6,107.6c0,8.8-12.5,15.9-27.9,15.9c-15.4,0-27.9-7.1-27.9-15.9c0-8.8,12.5-15.9,27.9-15.9
		C46.1,91.7,58.6,98.8,58.6,107.6z"/>
  </g>
</svg>
