<?xml version="1.0" encoding="UTF-8"?>
<svg width="28px" height="28px" viewBox="0 0 28 28" version="1.1" xmlns="http://www.w3.org/2000/svg" xmlns:xlink="http://www.w3.org/1999/xlink">
    <title>icon-settings</title>
    <g id="Production" stroke="none" stroke-width="1" fill="none" fill-rule="evenodd">
        <g id="Artboard" transform="translate(-211, -235)">
            <g id="icon-settings" transform="translate(211, 235)">
                <rect id="Rectangle" x="0" y="0" width="28" height="28"></rect>
                <path d="M20.2015688,10.2525279 C20.0232123,10.6274217 20.0120959,11.0603422 20.1709774,11.4438954 C20.3298588,11.8274487 20.6438515,12.1256974 21.0350638,12.2646554 L22.0250838,12.6168364 C22.6105106,12.8246232 23.00167,13.3785255 23.00167,13.9997339 C23.00167,14.6209423 22.6105106,15.1748446 22.0250838,15.3826314 L21.0350638,15.7348124 C20.6438515,15.8737704 20.3298588,16.1720191 20.1709774,16.5555724 C20.0120959,16.9391256 20.0232123,17.3720461 20.2015688,17.7469399 L20.6539257,18.6946982 C20.9219287,19.2558525 20.8071211,19.9250005 20.367394,20.3647276 C19.9276669,20.8044547 19.2585189,20.9192624 18.6973645,20.6512594 L17.748041,20.2004677 C17.3731472,20.0221111 16.9402267,20.0109948 16.5566735,20.1698763 C16.1731202,20.3287577 15.8748715,20.6427504 15.7359135,21.0339627 L15.3837325,22.0239827 C15.1756233,22.6088399 14.6220059,22.9994678 14.0012263,22.9994678 C13.3804467,22.9994678 12.8268293,22.6088399 12.6187202,22.0239827 L12.2665391,21.0339627 C12.127404,20.6426994 11.8290064,20.3287067 11.4453321,20.1698369 C11.0616578,20.0109671 10.6286351,20.0220972 10.253629,20.2004677 L9.30587073,20.6512594 C8.7446872,20.9203194 8.07479926,20.8059063 7.63473092,20.365838 C7.19466259,19.9257696 7.08024945,19.2558817 7.34930952,18.6946982 L7.80010123,17.7453747 C7.97845774,17.3704809 7.98957409,16.9375604 7.83069263,16.5540071 C7.67181118,16.1704539 7.35781846,15.8722052 6.96660615,15.7332471 L5.97658618,15.3810661 C5.39115942,15.1732793 5,14.619377 5,13.9981686 C5,13.3769603 5.39115942,12.8230579 5.97658618,12.6152712 L6.96660615,12.2630902 C7.35740035,12.124078 7.67105878,11.8260915 7.82990186,11.4429292 C7.98874494,11.0597669 7.97791757,10.6272622 7.80010123,10.2525279 L7.34930952,9.30320437 C7.08024945,8.74202085 7.19466259,8.0721329 7.63473092,7.63206456 C8.07479926,7.19199623 8.7446872,7.07758309 9.30587073,7.34664317 L10.2551942,7.79743487 C10.6298363,7.97533367 11.0622628,7.98639209 11.445508,7.82787471 C11.8287532,7.66935733 12.1270239,7.35606892 12.2665391,6.96550504 L12.6187202,5.97548507 C12.8268293,5.39062793 13.3804467,5 14.0012263,5 C14.6220059,5 15.1756233,5.39062793 15.3837325,5.97548507 L15.7359135,6.96550504 C15.8748715,7.35671735 16.1731202,7.67071008 16.5566735,7.82959153 C16.9402267,7.98847298 17.3731472,7.97735664 17.748041,7.79900012 L18.6973645,7.34664317 C19.2585189,7.07864018 19.9276669,7.19344783 20.367394,7.63317492 C20.8071211,8.07290202 20.9219287,8.74204999 20.6539257,9.30320437 L20.2015688,10.2525279 Z" id="Path" stroke="currentColor" stroke-width="1.2" stroke-linecap="round" stroke-linejoin="round"></path>
                <circle id="Oval" stroke="currentColor" stroke-width="1.2" stroke-linecap="round" stroke-linejoin="round" cx="14.000835" cy="13.9997339" r="3.52181017"></circle>
            </g>
        </g>
    </g>
</svg>