<?xml version="1.0" encoding="UTF-8"?>
<svg width="28px" height="18px" viewBox="0 0 28 18" version="1.1" xmlns="http://www.w3.org/2000/svg" xmlns:xlink="http://www.w3.org/1999/xlink">
    <title>layout-common-2x2</title>
    <g id="Layout-select----FINAL" stroke="none" stroke-width="1" fill="none" fill-rule="evenodd">
        <g id="layout-common-2x2" transform="translate(1, 1)" stroke="currentColor">
            <rect id="Rectangle" x="0" y="0" width="26" height="15.6" rx="2"></rect>
            <path d="M0,0 L11,-4.4408921e-16 C12.1045695,-6.46995335e-16 13,0.8954305 13,2 L13,13.6 C13,14.7045695 12.1045695,15.6 11,15.6 L0,15.6 L0,15.6 L0,0 Z" id="Rectangle" transform="translate(6.5, 7.8) scale(-1, 1) translate(-6.5, -7.8)"></path>
            <path d="M2,0 L24,0 C25.1045695,-2.02906125e-16 26,0.8954305 26,2 L26,8 L26,8 L0,8 L0,2 C-1.3527075e-16,0.8954305 0.8954305,1.3527075e-16 2,0 Z" id="Rectangle" transform="translate(13, 4) scale(-1, 1) translate(-13, -4)"></path>
        </g>
    </g>
</svg>