<?xml version="1.0" encoding="UTF-8"?>
<svg width="29px" height="18px" viewBox="0 0 29 18" version="1.1" xmlns="http://www.w3.org/2000/svg" xmlns:xlink="http://www.w3.org/1999/xlink">
    <title>layout-advanced-mpr</title>
    <g id="Layout-select----FINAL" stroke="none" stroke-width="1" fill="none" fill-rule="evenodd">
        <g id="layout-advanced-mpr" transform="translate(1, 1)" stroke="currentColor">
            <path d="M17.7428571,0 L25,0 C26.1045695,-2.02906125e-16 27,0.8954305 27,2 L27,14.2 C27,15.3045695 26.1045695,16.2 25,16.2 L17.7428571,16.2 L17.7428571,16.2 L17.7428571,0 Z" id="Rectangle"></path>
            <rect id="Rectangle" x="9" y="0" width="9" height="16.2"></rect>
            <path d="M0,0 L7.25714286,0 C8.36171236,-1.18396092e-15 9.25714286,0.8954305 9.25714286,2 L9.25714286,14.2 C9.25714286,15.3045695 8.36171236,16.2 7.25714286,16.2 L0,16.2 L0,16.2 L0,0 Z" id="Rectangle" transform="translate(4.6286, 8.1) scale(-1, 1) translate(-4.6286, -8.1)"></path>
        </g>
    </g>
</svg>