<?xml version="1.0" encoding="UTF-8"?>
<svg width="29px" height="18px" viewBox="0 0 29 18" version="1.1" xmlns="http://www.w3.org/2000/svg" xmlns:xlink="http://www.w3.org/1999/xlink">
    <title>layout-advanced-3d-main</title>
    <g id="Layout-select----FINAL" stroke="none" stroke-width="1" fill="none" fill-rule="evenodd">
        <g id="layout-advanced-3d-main" transform="translate(1, 1)" stroke="currentColor">
            <rect id="Rectangle" x="0" y="0" width="27" height="16.2" rx="2"></rect>
            <path d="M18,7.71428571 L27,7.71428571 L27,14.2 C27,15.3045695 26.1045695,16.2 25,16.2 L18,16.2 L18,16.2 L18,7.71428571 Z" id="Rectangle"></path>
            <path d="M0,7.71428571 L9.25714286,7.71428571 L9.25714286,16.2 L2,16.2 C0.8954305,16.2 9.55813795e-16,15.3045695 8.8817842e-16,14.2 L0,7.71428571 L0,7.71428571 Z" id="Rectangle"></path>
            <path d="M2,0 L25,0 C26.1045695,-2.02906125e-16 27,0.8954305 27,2 L27,8.48571429 L27,8.48571429 L0,8.48571429 L0,2 C-1.3527075e-16,0.8954305 0.8954305,1.3527075e-16 2,0 Z" id="Rectangle" fill="#263A71" transform="translate(13.5, 4.2429) scale(-1, 1) translate(-13.5, -4.2429)"></path>
        </g>
    </g>
</svg>