<svg xmlns="http://www.w3.org/2000/svg" width="24" height="24" viewBox="0 0 24 24">
    <g fill="currentColor">
        <path d="M22.85 21.43c0 .713-.58 1.294-1.293 1.294h-8.308c-.713 0-1.293-.58-1.293-1.293v-8.308c0-.713.58-1.293 1.293-1.293h8.308c.712 0 1.293.58 1.293 1.293v8.308zm-1.327-8.273h-8.24v8.24h8.24v-8.24zM22.85 8.937c0 .713-.58 1.293-1.293 1.293h-8.308c-.713 0-1.293-.58-1.293-1.293V.63c0-.712.58-1.292 1.293-1.292h8.308c.712 0 1.293.58 1.293 1.292v8.308zM21.523.663h-8.24v8.24h8.24V.663zM10.23 21.43c0 .713-.58 1.294-1.293 1.294H.63c-.712 0-1.292-.58-1.292-1.293v-8.308c0-.713.58-1.293 1.292-1.293h8.308c.713 0 1.293.58 1.293 1.293v8.308zm-1.327-8.273H.663v8.24h8.24v-8.24zM10.23 8.937c0 .713-.58 1.293-1.293 1.293H.63c-.712 0-1.292-.58-1.292-1.293V.63c0-.712.58-1.292 1.292-1.292h8.308c.713 0 1.293.58 1.293 1.292v8.308zm-1.327-.034V.663H.663v8.24h8.24z" transform="translate(1 1)"/>
    </g>
</svg>
