<svg xmlns="http://www.w3.org/2000/svg" width="25" height="25" viewBox="-1 -1 26 26">
    <g fill="currentColor" fill-rule="evenodd">
        <path d="M11.5-1l-.164.005C10.032-.91 9 .175 9 1.5v1.08l-.064.02c-.278.084-.554.179-.825.282l-.201.079-.861-.86c-.976-.976-2.558-.976-3.535 0L2.1 3.516l-.121.131c-.853.982-.812 2.47.121 3.405l.862.861-.078.199c-.103.272-.197.547-.282.824L2.582 9 1.5 9.001c-1.38 0-2.5 1.12-2.5 2.5v1l.005.164C-.91 13.97.175 15.001 1.5 15.001L2.577 15l.02.066c.085.277.179.552.282.824l.078.199-.862.862c-.976.977-.976 2.56 0 3.535l1.421 1.417.13.121c.981.85 2.47.81 3.404-.123l.861-.864.2.08c.271.103.546.198.824.283l.065.018V22.5c0 1.38 1.12 2.5 2.5 2.5h1l.164-.005C13.968 24.91 15 23.825 15 22.5v-1.078l.064-.018c.278-.085.553-.179.825-.282l.198-.08.864.863c.976.976 2.558.976 3.534 0L21.9 20.49l.121-.131c.853-.982.812-2.47-.121-3.404l-.862-.863.08-.2c.104-.272.198-.547.284-.826L21.42 15h1.08c1.38 0 2.5-1.12 2.5-2.5v-1l-.005-.164C24.91 10.032 23.825 9 22.5 9h-1.079l-.018-.065c-.085-.278-.18-.553-.283-.825l-.08-.199.862-.86c.977-.977.977-2.56 0-3.536L20.484 2.1l-.13-.122c-.981-.85-2.47-.81-3.404.123l-.862.861-.198-.078c-.272-.103-.547-.198-.825-.283L15 2.583V1.5C15 .12 13.88-1 12.5-1h-1zm1 1.5c.513 0 .936.386.993.883l.007.117v2.251c.868.175 1.714.447 2.52.81l.4.19 1.59-1.589c.36-.36.928-.388 1.32-.083l.094.083 1.418 1.414c.36.36.388.928.083 1.32l-.083.094-1.589 1.588c.394.794.698 1.629.905 2.49l.095.432H22.5c.513 0 .936.386.993.883l.007.117v1c0 .513-.386.936-.883.993l-.117.007h-2.246c-.176.87-.449 1.717-.814 2.525l-.19.401 1.589 1.59c.36.36.388.928.083 1.32l-.083.094-1.414 1.414c-.36.36-.928.388-1.32.083l-.094-.083-1.591-1.589c-.793.394-1.628.697-2.488.904l-.432.096V22.5c0 .513-.386.936-.883.993l-.117.007h-1c-.513 0-.936-.386-.993-.883L10.5 22.5v-2.25c-.869-.175-1.715-.447-2.522-.81l-.4-.19-1.589 1.59c-.36.36-.928.388-1.32.083l-.094-.083-1.419-1.414c-.36-.36-.388-.928-.083-1.32l.083-.094 1.59-1.59c-.394-.794-.697-1.628-.904-2.489l-.096-.432H1.5c-.513 0-.936-.386-.993-.883L.5 12.5v-1c0-.513.386-.936.883-.993L1.5 10.5h2.25c.175-.868.447-1.714.81-2.52l.19-.401-1.59-1.589c-.36-.36-.388-.928-.083-1.32l.083-.094 1.415-1.415c.36-.36.928-.388 1.32-.083l.094.083 1.59 1.587c.793-.394 1.628-.698 2.489-.905l.432-.095V1.5c0-.513.386-.936.883-.993L11.5.5h1z"/>
        <path d="M12 6.001c-3.314 0-6 2.686-6 6s2.686 6 6 6 6-2.686 6-6-2.686-6-6-6zm0 1.5c2.485 0 4.5 2.015 4.5 4.5s-2.015 4.5-4.5 4.5-4.5-2.015-4.5-4.5 2.015-4.5 4.5-4.5z"/>
    </g>
</svg>
