<?xml version="1.0" encoding="UTF-8"?>
<svg width="28px" height="28px" viewBox="0 0 28 28" version="1.1" xmlns="http://www.w3.org/2000/svg" xmlns:xlink="http://www.w3.org/1999/xlink">
    <title>tool-magnify-area</title>
    <g id="tool-magnify-area" stroke="none" stroke-width="1" fill="none" fill-rule="evenodd">
        <path d="M14,3 C20.0751322,3 25,7.92486775 25,14 C25,20.0751322 20.0751322,25 14,25 C7.92486775,25 3,20.0751322 3,14 C3,7.92486775 7.92486775,3 14,3 Z M12.3539536,6.95454545 C9.25853263,6.95454545 6.74,9.4158387 6.74,12.4636365 C6.74,15.5114342 9.25853263,17.9727275 12.3539536,17.9727275 L12.5740478,17.9685669 C13.6693511,17.9270878 14.6851752,17.5773617 15.5330703,17.0047929 L15.554,16.9895455 L18.5759511,19.9424602 C18.970938,20.3284702 19.6040612,20.3211929 19.9900712,19.9262059 L20.0721715,19.8310487 C20.3726675,19.4352776 20.3384203,18.8684027 19.9738169,18.5120858 L16.979,15.5855455 L17.0926325,15.4193023 C17.6466658,14.5658256 17.9679072,13.5521357 17.9679072,12.4636365 C17.9679072,9.4158387 15.4493746,6.95454545 12.3539536,6.95454545 Z M12.3539536,8.95454545 C14.354965,8.95454545 15.9679072,10.5308298 15.9679072,12.4636365 C15.9679072,14.3964431 14.354965,15.9727275 12.3539536,15.9727275 C10.3529422,15.9727275 8.74,14.3964431 8.74,12.4636365 C8.74,10.5308298 10.3529422,8.95454545 12.3539536,8.95454545 Z" id="Combined-Shape" fill="currentColor"></path>
    </g>
</svg>