<?xml version="1.0" encoding="UTF-8"?>
<svg width="28px" height="28px" viewBox="0 0 28 28" version="1.1" xmlns="http://www.w3.org/2000/svg" xmlns:xlink="http://www.w3.org/1999/xlink">
    <title>tool-cobb-angle</title>
    <g id="tool-cobb-angle" stroke="none" stroke-width="1" fill="none" fill-rule="evenodd">
        <rect id="Rectangle" x="0" y="0" width="28" height="28"></rect>
        <g id="Group" transform="translate(6.5, 0.68)" fill="currentColor">
            <path d="M8.5,10.1817844 C9.88071187,10.1817844 11,11.3010725 11,12.6817844 L11,13.6817844 C11,15.0624963 9.88071187,16.1817844 8.5,16.1817844 L2.5,16.1817844 C1.11928813,16.1817844 0,15.0624963 0,13.6817844 L0,12.6817844 C0,11.3010725 1.11928813,10.1817844 2.5,10.1817844 L8.5,10.1817844 Z M8.5,11.6817844 L2.5,11.6817844 C1.94771525,11.6817844 1.5,12.1294997 1.5,12.6817844 L1.5,13.6817844 C1.5,14.2340692 1.94771525,14.6817844 2.5,14.6817844 L8.5,14.6817844 C9.05228475,14.6817844 9.5,14.2340692 9.5,13.6817844 L9.5,12.6817844 C9.5,12.1294997 9.05228475,11.6817844 8.5,11.6817844 Z" id="Rectangle" fill-rule="nonzero"></path>
            <circle id="Oval" cx="6.5" cy="8.6976195" r="1"></circle>
            <circle id="Oval" cx="6.5" cy="17.6976195" r="1"></circle>
            <path d="M11.5,1.70018865 C12.8807119,1.70018865 14,2.81947678 14,4.20018865 L14,5.20018865 C14,6.58090053 12.8807119,7.70018865 11.5,7.70018865 L5.5,7.70018865 C4.11928813,7.70018865 3,6.58090053 3,5.20018865 L3,4.20018865 C3,2.81947678 4.11928813,1.70018865 5.5,1.70018865 L11.5,1.70018865 Z M11.5,3.20018865 L5.5,3.20018865 C4.94771525,3.20018865 4.5,3.6479039 4.5,4.20018865 L4.5,5.20018865 C4.5,5.7524734 4.94771525,6.20018865 5.5,6.20018865 L11.5,6.20018865 C12.0522847,6.20018865 12.5,5.7524734 12.5,5.20018865 L12.5,4.20018865 C12.5,3.6479039 12.0522847,3.20018865 11.5,3.20018865 Z" id="Rectangle" fill-rule="nonzero" transform="translate(8.5, 4.7002) rotate(20) translate(-8.5, -4.7002)"></path>
            <path d="M11.5,18.7001887 C12.8807119,18.7001887 14,19.8194768 14,21.2001887 L14,22.2001887 C14,23.5809005 12.8807119,24.7001887 11.5,24.7001887 L5.5,24.7001887 C4.11928813,24.7001887 3,23.5809005 3,22.2001887 L3,21.2001887 C3,19.8194768 4.11928813,18.7001887 5.5,18.7001887 L11.5,18.7001887 Z M11.5,20.2001887 L5.5,20.2001887 C4.94771525,20.2001887 4.5,20.6479039 4.5,21.2001887 L4.5,22.2001887 C4.5,22.7524734 4.94771525,23.2001887 5.5,23.2001887 L11.5,23.2001887 C12.0522847,23.2001887 12.5,22.7524734 12.5,22.2001887 L12.5,21.2001887 C12.5,20.6479039 12.0522847,20.2001887 11.5,20.2001887 Z" id="Rectangle" fill-rule="nonzero" transform="translate(8.5, 21.7002) rotate(-20) translate(-8.5, -21.7002)"></path>
        </g>
    </g>
</svg>