<svg xmlns="http://www.w3.org/2000/svg" viewBox="0 0 18 18">
    <g id="icon-freehand-sculpt" fill="none" stroke-width="1.5" stroke="currentColor" stroke-linecap="round"
        stroke-linejoin="round">
        <line id="svg_1" y2="2.559367" x2="10.184807" y1="4.467781" x1="8.81711" />
        <line id="svg_4" y2="1.493836" x2="11.727442" y1="2.766112" x1="10.089386" />
        <line id="svg_7" y2="1.080346" x2="13.047428" y1="1.748291" x1="11.345759" />
        <line id="svg_8" y2="1.000829" x2="14.351511" y1="1.112153" x1="12.77707" />
        <line id="svg_9" y2="1.350705" x2="15.242104" y1="0.905408" x1="13.969828" />
        <line id="svg_10" y2="2.098167" x2="15.862339" y1="1.14396" x1="14.955842" />
        <line id="svg_11" y2="3.195505" x2="16.41896" y1="1.939133" x1="15.766918" />
        <line id="svg_12" y2="4.292843" x2="16.530284" y1="2.925147" x1="16.387153" />
        <line id="svg_16" y2="5.644637" x2="16.196311" y1="3.831643" x1="16.593898" />
        <line id="svg_18" y2="7.266789" x2="15.623787" y1="5.19934" x1="16.275829" />
        <line id="svg_19" y2="10.813258" x2="14.526449" y1="6.726071" x1="15.766918" />
        <line id="svg_20" y2="5.056209" x2="8.085552" y1="4.181519" x1="8.976145" />
        <line id="svg_23" y2="5.326568" x2="7.481221" y1="4.78585" x1="8.403621" />
        <line id="svg_24" y2="5.565119" x2="6.749662" y1="5.294761" x1="7.624352" />
        <line id="svg_25" y2="5.994512" x2="5.429675" y1="5.533312" x1="6.956407" />
        <line id="svg_27" y2="6.551133" x2="4.284627" y1="5.962706" x1="5.572807" />
        <line id="svg_28" y2="7.584858" x2="3.044158" y1="6.392099" x1="4.427758" />
        <line id="svg_29" y2="8.84123" x2="2.185372" y1="7.489437" x1="3.219096" />
        <line id="svg_31" y2="10.606513" x2="1.644654" y1="8.602678" x1="2.280792" />
        <line id="svg_32" y2="13.214679" x2="1.48562" y1="10.352058" x1="1.724171" />
        <line id="svg_33" y2="14.375631" x2="1.676461" y1="12.992031" x1="1.453813" />
        <line id="svg_34" y2="15.298031" x2="2.264889" y1="14.152983" x1="1.517427" />
        <line id="svg_35" y2="16.172721" x2="3.521261" y1="14.948155" x1="1.915013" />
        <line id="svg_36" y2="16.824762" x2="5.207027" y1="15.997783" x1="3.28271" />
        <line id="svg_38" y2="17.063314" x2="7.035924" y1="16.745245" x1="4.968475" />
        <line id="svg_39" y2="16.888376" x2="9.278311" y1="17.047411" x1="6.733758" />
        <line id="svg_40" y2="16.284045" x2="10.661911" y1="16.983797" x1="8.992048" />
        <line id="svg_41" y2="15.313934" x2="11.647925" y1="16.395369" x1="10.455166" />
        <line id="svg_44" y2="13.898527" x2="12.82478" y1="15.425259" x1="11.504794" />
        <line id="svg_45" y2="12.037824" x2="14.144766" y1="14.312017" x1="12.522614" />
        <line id="svg_47" y2="10.59061" x2="14.605966" y1="12.228665" x1="13.953925" />
        <ellipse ry="1" rx="1" id="svg_48" cy="3.982726" cx="13.460918" />
    </g>
</svg>
