<svg
  xmlns="http://www.w3.org/2000/svg"
  aria-labelledby="unlink"
  viewBox="0 0 512 512"
  fill="currentColor"
>
  <title id="title">Unlink</title>
  <path d="M304.083 388.936c4.686 4.686 4.686 12.284 0 16.971l-65.057 65.056c-54.709 54.711-143.27 54.721-197.989 0-54.713-54.713-54.719-143.27 0-197.989l65.056-65.057c4.686-4.686 12.284-4.686 16.971 0l22.627 22.627c4.686 4.686 4.686 12.284 0 16.971L81.386 311.82c-34.341 34.341-33.451 88.269.597 120.866 32.577 31.187 84.788 31.337 117.445-1.32l65.057-65.056c4.686-4.686 12.284-4.686 16.971 0l22.627 22.626zm-56.568-243.245l64.304-64.304c34.346-34.346 88.286-33.453 120.882.612 31.18 32.586 31.309 84.785-1.335 117.43l-65.056 65.057c-4.686 4.686-4.686 12.284 0 16.971l22.627 22.627c4.686 4.686 12.284 4.686 16.971 0l65.056-65.057c54.711-54.709 54.721-143.271 0-197.99-54.71-54.711-143.27-54.72-197.989 0l-65.057 65.057c-4.686 4.686-4.686 12.284 0 16.971l22.627 22.627c4.685 4.685 12.283 4.685 16.97-.001zm238.343 362.794l22.627-22.627c4.686-4.686 4.686-12.284 0-16.971L43.112 3.515c-4.686-4.686-12.284-4.686-16.971 0L3.515 26.142c-4.686 4.686-4.686 12.284 0 16.971l465.373 465.373c4.686 4.686 12.284 4.686 16.97-.001z"></path>
</svg>
