<svg xmlns="http://www.w3.org/2000/svg" width="16" height="16" viewBox="0 0 16 16">
    <g fill="currentColor" fill-rule="evenodd">
        <path d="M8 .117C3.645.117.115 3.647.115 8c0 4.355 3.53 7.885 7.885 7.885s7.885-3.53 7.885-7.885c0-4.354-3.53-7.884-7.885-7.884zm0 1c3.802 0 6.885 3.082 6.885 6.884 0 3.802-3.083 6.885-6.885 6.885-3.802 0-6.885-3.083-6.885-6.885C1.115 4.2 4.198 1.117 8 1.117z"/>
        <path d="M7.385 6.27c.575 0 1.048.434 1.108.993l.007.122v4.307c0 .276-.224.5-.5.5-.245 0-.45-.177-.492-.41l-.008-.09V7.385c0-.051-.033-.095-.079-.11l-.036-.006H6.154c-.276 0-.5-.224-.5-.5 0-.245.177-.45.41-.492l.09-.008h1.23zM7.077 3.192l.101.007c.398.05.707.39.707.801 0 .446-.362.808-.808.808-.446 0-.808-.362-.808-.808 0-.412.308-.752.707-.801l.1-.007z"/>
        <path d="M9.846 11.194c.276 0 .5.223.5.5 0 .245-.177.45-.41.491l-.09.009H6.154c-.276 0-.5-.224-.5-.5 0-.246.177-.45.41-.492l.09-.008h3.692z"/>
    </g>
</svg>
