<svg
  xmlns="http://www.w3.org/2000/svg"
  viewBox="0 0 32 32"
  aria-labelledby="title"
  fill="currentColor"
>
  <path d="m5.364 28.917c1.047 1.046 2.422 1.57 3.797 1.57 1.376 0 2.751-0.523 3.798-1.572l7.552-7.554c1.016-1.014 1.574-2.361 1.574-3.797 -0.001-1.432-0.558-2.781-1.574-3.796l-2.297-2.298 -2.009 2.009 2.297 2.298c0.478 0.478 0.741 1.113 0.741 1.788 0 0.674-0.264 1.309-0.741 1.786l-7.553 7.555c-0.987 0.985-2.59 0.985-3.576 0l-2.297-2.298c-0.987-0.985-0.987-2.589 0-3.576l3.775-3.776 -2.009-2.009 -3.776 3.776c-2.094 2.096-2.092 5.502 0 7.595l2.299 2.3zM26.695 2.992" />
  <path d="m26.695 2.992c-1.014-1.016-2.362-1.575-3.797-1.575 -0.001 0-0.001 0-0.002 0 -1.435 0-2.784 0.56-3.798 1.573l-7.551 7.553c-1.017 1.016-1.576 2.363-1.576 3.799 0 1.434 0.558 2.784 1.574 3.797l2.297 2.297 2.01-2.009 -2.298-2.297c-0.477-0.477-0.741-1.113-0.741-1.788 0-0.676 0.265-1.311 0.742-1.788l7.553-7.555c0.477-0.477 1.111-0.74 1.789-0.74 0 0 0 0 0.001 0 0.674 0 1.309 0.264 1.786 0.74l2.297 2.299c0.477 0.477 0.74 1.111 0.74 1.788 0 0.674-0.264 1.311-0.74 1.788l-3.776 3.777 2.009 2.009 3.776-3.777c1.014-1.013 1.573-2.363 1.574-3.797 0-1.435-0.56-2.784-1.574-3.797l-2.295-2.296z" />
</svg>
