<svg xmlns="http://www.w3.org/2000/svg" id="Layer_1" data-name="Layer 1" viewBox="0 0 152.53857 26"><defs fill="#000000"><style>.cls-1{fill:#ffffff;}.cls-2{fill:none;stroke:#000000;stroke-miterlimit:10;stroke-width:0.64053px;}</style></defs><circle class="cls-1" cx="13" cy="13" r="13" fill="#000000"/><path class="cls-2" d="M28.556,5.66831h5.32647A1.07474,1.07474,0,0,1,34.94774,6.7336h0v2.518H27.49069V6.7336A1.07474,1.07474,0,0,1,28.556,5.66831Z" transform="translate(-18.36448 -0.99697)" fill="#000000"/><path class="cls-2" d="M27.58753,10.12317l-1.84005,4.06749a1.06938,1.06938,0,0,0,0,.77476h0a.09485.09485,0,0,0,.09685.09684l4.84224,7.45705h.09685V17.19285a1.78415,1.78415,0,0,1-1.35583-2.13059,1.92841,1.92841,0,0,1,3.777.19369,1.77305,1.77305,0,0,1-1.45268,1.84v5.13278a.09685.09685,0,0,0,.19369,0l4.84225-7.36021h0a1.34378,1.34378,0,0,0,0-.8716h0l-1.84-3.97064Z" transform="translate(-18.36448 -0.99697)" fill="#000000"/><path class="cls-1" d="M52.84714,21.85008a12.38826,12.38826,0,0,1-3.22083-.46244,9.03259,9.03259,0,0,1-2.49615-1.20235l1.1273-2.95963A9.34208,9.34208,0,0,0,50.351,18.33552a7.44846,7.44846,0,0,0,2.41562.46244,7.77347,7.77347,0,0,0,1.44938-.185,1.64562,1.64562,0,0,0,.80521-.55493,1.14351,1.14351,0,0,0,.24156-.73991,1.20076,1.20076,0,0,0-.4026-.92488,2.649,2.649,0,0,0-1.1273-.55493c-.48312-.185-.96625-.27747-1.5299-.46245a11.49761,11.49761,0,0,1-1.69093-.46244,5.06882,5.06882,0,0,1-1.5299-.8324,3.60194,3.60194,0,0,1-1.5299-3.32959,5.446,5.446,0,0,1,.64417-2.49719,4.35255,4.35255,0,0,1,2.013-1.75728,6.84107,6.84107,0,0,1,3.30135-.64742,7.94773,7.94773,0,0,1,2.57667.36995A7.18282,7.18282,0,0,1,58.242,7.23689l-1.1273,2.95963a18.35021,18.35021,0,0,0-1.9325-.92488,6.4233,6.4233,0,0,0-1.852-.27747,6.21935,6.21935,0,0,0-1.36885.185,1.64564,1.64564,0,0,0-.80521.55493,1.14351,1.14351,0,0,0-.24156.73991,1.20076,1.20076,0,0,0,.4026.92488,2.64911,2.64911,0,0,0,1.12729.55494c.48313.09249.96625.27746,1.5299.36995.56365.185,1.12729.27747,1.69094.46244a8.1574,8.1574,0,0,1,1.5299.73991A3.28618,3.28618,0,0,1,58.32256,14.821a3.55062,3.55062,0,0,1,.4026,2.03475,4.80959,4.80959,0,0,1-.64416,2.4047,4.35267,4.35267,0,0,1-2.013,1.75729A5.01684,5.01684,0,0,1,52.84714,21.85008Z" transform="translate(-18.36448 -0.99697)" fill="#000000"/><path class="cls-1" d="M65.89153,21.7576a7.49221,7.49221,0,0,1-3.14032-.73991,6.20076,6.20076,0,0,1-2.41563-7.769c0-.09249.08052-.09249.08052-.185a5.91875,5.91875,0,0,1,2.33511-2.68217,5.32623,5.32623,0,0,1,3.14032-.73991,5.6287,5.6287,0,0,1,2.97927.8324,4.53985,4.53985,0,0,1,1.852,2.31221l-2.65719,1.57231a2.6976,2.6976,0,0,0-.96625-1.20235,2.42821,2.42821,0,0,0-2.57667,0,2.05414,2.05414,0,0,0-.88573,1.01737,3.80882,3.80882,0,0,0-.32208,1.6648,4.084,4.084,0,0,0,.32208,1.66479,2.52428,2.52428,0,0,0,.88573,1.01738,2.42826,2.42826,0,0,0,2.57667,0,2.66445,2.66445,0,0,0,.96625-1.20236l2.65719,1.57231a4.53985,4.53985,0,0,1-1.852,2.31221A10.17749,10.17749,0,0,1,65.89153,21.7576Z" transform="translate(-18.36448 -0.99697)" fill="#000000"/><path class="cls-1" d="M72.33319,21.57262V9.73408H75.554v3.42208l-.48312-1.01738a3.83918,3.83918,0,0,1,1.52989-1.94226,5.11335,5.11335,0,0,1,2.57667-.64742v3.42208c-.161,0-.24157-.09249-.40261-.09249h-.32208a2.58605,2.58605,0,0,0-1.9325.73991,3.14644,3.14644,0,0,0-.72469,2.4047v5.45683Z" transform="translate(-18.36448 -0.99697)" fill="#000000"/><path class="cls-1" d="M82.55934,8.25426a2.26757,2.26757,0,0,1-1.5299-.55493,1.97328,1.97328,0,0,1-.56364-1.47982,2.34577,2.34577,0,0,1,.56364-1.47981,1.89482,1.89482,0,0,1,1.5299-.55493,2.42187,2.42187,0,0,1,1.5299.55493,1.97327,1.97327,0,0,1,.56364,1.47981,1.97328,1.97328,0,0,1-.56364,1.47982A1.89481,1.89481,0,0,1,82.55934,8.25426ZM80.8684,21.57262V9.73408h3.38188V21.57262Z" transform="translate(-18.36448 -0.99697)" fill="#000000"/><path class="cls-1" d="M86.90747,25.82709V9.73408H90.1283v5.91927l.161,3.69954v6.4742Zm6.44167-4.06949a4.27664,4.27664,0,0,1-2.33511-.64743,4.58884,4.58884,0,0,1-1.5299-2.03474,9.80211,9.80211,0,0,1-.56364-3.42208,12.0582,12.0582,0,0,1,.48313-3.42208A4.44587,4.44587,0,0,1,90.853,10.19652a4.36,4.36,0,0,1,2.41563-.64742,5.28074,5.28074,0,0,1,2.65719.73991,4.478,4.478,0,0,1,1.852,2.12724,7.59221,7.59221,0,0,1,0,6.4742,5.5355,5.5355,0,0,1-1.852,2.12724A4.99106,4.99106,0,0,1,93.34914,21.7576ZM92.705,18.70547a2.29177,2.29177,0,0,0,1.28833-.36995,3.36193,3.36193,0,0,0,.88573-1.01738,4.489,4.489,0,0,0,0-3.2371,2.04819,2.04819,0,0,0-.88573-1.01737,2.12706,2.12706,0,0,0-1.28833-.36995,1.89536,1.89536,0,0,0-1.20782.36995,3.3619,3.3619,0,0,0-.88573,1.01737,3.79615,3.79615,0,0,0,0,3.2371,2.04817,2.04817,0,0,0,.88573,1.01738A1.75791,1.75791,0,0,0,92.705,18.70547Z" transform="translate(-18.36448 -0.99697)" fill="#000000"/><path class="cls-1" d="M99.30768,12.97118V10.104h7.48845v2.86715Zm5.717,8.78642a3.88721,3.88721,0,0,1-3.05979-1.10987,4.35317,4.35317,0,0,1-1.12729-3.32959V7.1444h3.38187V17.31814a1.77509,1.77509,0,0,0,.32208,1.10987,1.12312,1.12312,0,0,0,.88573.36995,1.89542,1.89542,0,0,0,1.20782-.36995l.8052,2.68217a2.64909,2.64909,0,0,1-1.12729.55493C105.99092,21.66511,105.50779,21.7576,105.02466,21.7576Z" transform="translate(-18.36448 -0.99697)" fill="#000000"/><path class="cls-1" d="M113.96248,21.7576a7.13961,7.13961,0,0,1-3.0598-.73991,5.87444,5.87444,0,0,1-2.81823-5.36434,6.04438,6.04438,0,0,1,.80521-3.14461,4.97127,4.97127,0,0,1,2.09354-2.12724,5.21605,5.21605,0,0,1,3.0598-.73991,7.13953,7.13953,0,0,1,3.05979.73991c2.57667,1.38733,3.62344,4.99438,2.41563,7.86153,0,.09249-.08052.09249-.08052.185a5.27688,5.27688,0,0,1-2.33511,2.58968A7.21422,7.21422,0,0,1,113.96248,21.7576Zm0-3.05213a2.29175,2.29175,0,0,0,1.28833-.36995,3.3618,3.3618,0,0,0,.88573-1.01738,3.80866,3.80866,0,0,0,.32208-1.66479,4.084,4.084,0,0,0-.32208-1.6648,2.04809,2.04809,0,0,0-.88573-1.01737,2.127,2.127,0,0,0-1.28833-.37,1.89537,1.89537,0,0,0-1.20781.37,2.54146,2.54146,0,0,0-.88573,1.01737,4.46348,4.46348,0,0,0,0,3.32959,1.73161,1.73161,0,0,0,.88573,1.01738,2.05019,2.05019,0,0,0,1.20781.36995Z" transform="translate(-18.36448 -0.99697)" fill="#000000"/><path class="cls-1" d="M123.94707,21.57262,120.1626,9.73408h3.22083l3.0598,9.98877h-1.5299l3.22084-9.98877h2.89875l3.14031,9.98877h-1.52989l3.22084-9.98877h2.97927L135.059,21.57262h-3.30136l-2.65719-8.50895h.96624l-2.7377,8.509Z" transform="translate(-18.36448 -0.99697)" fill="#000000"/><path class="cls-1" d="M143.03052,21.7576a4.118,4.118,0,0,1-2.09355-.46245,3.28845,3.28845,0,0,1-1.36885-1.29484,3.78269,3.78269,0,0,1,0-3.69954,2.94934,2.94934,0,0,1,1.52989-1.20235,6.71913,6.71913,0,0,1,2.65719-.46245h2.65719v2.03475H144.1578a1.84305,1.84305,0,0,0-1.36885.37,1.26366,1.26366,0,0,0,0,1.84977,1.67914,1.67914,0,0,0,1.12729.36995,1.89539,1.89539,0,0,0,1.20781-.36995,2.11754,2.11754,0,0,0,.80521-1.10986l.48313,1.5723a2.89933,2.89933,0,0,1-1.20781,1.75728A2.96606,2.96606,0,0,1,143.03052,21.7576Zm3.14031-.185V19.35289l-.161-.55493v-4.0695a2.41856,2.41856,0,0,0-.56365-1.66479,2.09662,2.09662,0,0,0-1.77145-.55493,4.57716,4.57716,0,0,0-1.61042.27746,6.76667,6.76667,0,0,0-1.36885.73991l-1.12729-2.58968a6.06934,6.06934,0,0,1,2.17406-1.01737,7.467,7.467,0,0,1,2.49615-.37,5.51189,5.51189,0,0,1,3.865,1.29484,5.47,5.47,0,0,1,1.36885,4.0695v6.65918Z" transform="translate(-18.36448 -0.99697)" fill="#000000"/><path class="cls-1" d="M151.96833,21.57262V9.73408h3.22083v3.42208l-.48313-1.01738a3.83923,3.83923,0,0,1,1.52989-1.94226,5.11335,5.11335,0,0,1,2.57667-.64742v3.42208c-.161,0-.24157-.09249-.40261-.09249h-.32208a2.586,2.586,0,0,0-1.93249.73991,3.14644,3.14644,0,0,0-.72469,2.4047v5.45683Z" transform="translate(-18.36448 -0.99697)" fill="#000000"/><path class="cls-1" d="M165.7374,21.7576a6.49511,6.49511,0,0,1-3.22084-.8324,5.94638,5.94638,0,0,1-2.89875-5.27185,6.86976,6.86976,0,0,1,.72468-3.14461,5.28066,5.28066,0,0,1,2.013-2.12724,6.13464,6.13464,0,0,1,5.7975-.09249,5.28066,5.28066,0,0,1,2.013,2.12724,6.66852,6.66852,0,0,1,.72469,3.32959v.46244a.77808.77808,0,0,1-.08053.46244H162.275V14.636h6.68324l-1.28834.55494a3.03687,3.03687,0,0,0-.32208-1.47982,2.05421,2.05421,0,0,0-.88573-1.01738,2.42828,2.42828,0,0,0-2.57668,0,2.04818,2.04818,0,0,0-.88574,1.01738,3.28126,3.28126,0,0,0-.32207,1.47982v.64742a3.41112,3.41112,0,0,0,.32207,1.5723,2.00226,2.00226,0,0,0,1.04678,1.01738,3.10983,3.10983,0,0,0,1.52989.36995,3.23387,3.23387,0,0,0,2.49614-1.10986l1.77146,2.12724a4.13037,4.13037,0,0,1-1.852,1.38733A3.37229,3.37229,0,0,1,165.7374,21.7576Z" transform="translate(-18.36448 -0.99697)" fill="#000000"/></svg>