<svg width="25px" height="25px" viewBox="0 0 25 25" version="1.1" xmlns="http://www.w3.org/2000/svg" xmlns:xlink="http://www.w3.org/1999/xlink">
    <g id="reference-lines" stroke="currentColor" stroke-width="1" fill="none" fill-rule="evenodd">
        <g id="Group" transform="translate(3.250000, 4.926395)">
            <path d="M0.75,8.32360458 L2.75,8.32360458 C3.16421356,8.32360458 3.5,7.98781815 3.5,7.57360458 C3.5,7.15939102 3.16421356,6.82360458 2.75,6.82360458 L0.75,6.82360458 C0.335786438,6.82360458 0,7.15939102 0,7.57360458 C0,7.98781815 0.335786438,8.32360458 0.75,8.32360458 Z M5.75,8.32360458 L7.75,8.32360458 C8.16421356,8.32360458 8.5,7.98781815 8.5,7.57360458 C8.5,7.15939102 8.16421356,6.82360458 7.75,6.82360458 L5.75,6.82360458 C5.33578644,6.82360458 5,7.15939102 5,7.57360458 C5,7.98781815 5.33578644,8.32360458 5.75,8.32360458 Z M10.75,8.32360458 L12.75,8.32360458 C13.1642136,8.32360458 13.5,7.98781815 13.5,7.57360458 C13.5,7.15939102 13.1642136,6.82360458 12.75,6.82360458 L10.75,6.82360458 C10.3357864,6.82360458 10,7.15939102 10,7.57360458 C10,7.98781815 10.3357864,8.32360458 10.75,8.32360458 Z M15.75,8.32360458 L17.75,8.32360458 C18.1642136,8.32360458 18.5,7.98781815 18.5,7.57360458 C18.5,7.15939102 18.1642136,6.82360458 17.75,6.82360458 L15.75,6.82360458 C15.3357864,6.82360458 15,7.15939102 15,7.57360458 C15,7.98781815 15.3357864,8.32360458 15.75,8.32360458 Z" id="Line-7" fill="#000000" fill-rule="nonzero"></path>
            <g id="Group-2" transform="translate(1.250000, 0.000000)" stroke="currentColor" stroke-width="1.5">
                <path d="M0,5 L0,1 C-6.76353751e-17,0.44771525 0.44771525,1.01453063e-16 1,0 L15,0 C15.5522847,-1.01453063e-16 16,0.44771525 16,1 L16,5 L16,5" id="Path-7"></path>
                <path d="M0,15 L0,11 C-6.76353751e-17,10.4477153 0.44771525,10 1,10 L15,10 C15.5522847,10 16,10.4477153 16,11 L16,15 L16,15" id="Path-7" transform="translate(8.000000, 12.500000) scale(1, -1) translate(-8.000000, -12.500000) "></path>
            </g>
        </g>
    </g>
</svg>
