<svg xmlns="http://www.w3.org/2000/svg" width="21" height="20" viewBox="0 0 21 20">
    <g fill="#3A3F99">
        <path d="M13.75-.083c.693 0 1.263.528 1.327 1.205l.006.128v4.167c0 .276-.224.5-.5.5-.245 0-.45-.177-.492-.41l-.008-.09V1.25c0-.161-.114-.295-.266-.327L13.75.917H1.25c-.161 0-.295.114-.327.266l-.006.067v12.5c0 .161.114.295.266.327l.067.006h4.167c.276 0 .5.224.5.5 0 .246-.177.45-.41.492l-.09.008H1.25c-.693 0-1.263-.528-1.327-1.205l-.006-.128V1.25c0-.693.528-1.263 1.205-1.327l.128-.006h12.5z" transform="translate(.5)"/>
        <path d="M18.583 4.917H6.417c-.829 0-1.5.671-1.5 1.5v12.166c0 .829.671 1.5 1.5 1.5h12.166c.829 0 1.5-.671 1.5-1.5V6.417c0-.829-.671-1.5-1.5-1.5zm-12.166 1h12.166c.276 0 .5.224.5.5v12.166c0 .276-.224.5-.5.5H6.417c-.276 0-.5-.224-.5-.5V6.417c0-.276.224-.5.5-.5z" transform="translate(.5)"/>
    </g>
</svg>
