<svg width="22" height="22" viewBox="0 0 22 22" xmlns="http://www.w3.org/2000/svg">
    <g fill="none" fill-rule="evenodd">
        <path d="M3.638 13.16a17.265 17.265 0 0 1 3.652-1.586c.565-.21.626-1.504.221-1.95-.584-.642-1.08-1.396-1.08-3.215a2.572 2.572 0 0 1 2.632-2.811 2.572 2.572 0 0 1 2.631 2.811c0 1.822-.495 2.573-1.08 3.215-.404.446-.343 1.74.222 1.95 1.275.386 2.5.919 3.652 1.587" stroke="currentColor" stroke-linecap="round" stroke-linejoin="round"/>
        <path d="M17.15 11.064V2.369a.87.87 0 0 0-.87-.869H2.37a.87.87 0 0 0-.87.87v13.91c0 .48.39.87.87.87h8.694M15.846 20.628l-3.043.87.87-3.044 5.2-5.2a1.537 1.537 0 0 1 2.174 2.173l-5.201 5.2zM18.221 13.905l2.174 2.174M13.672 18.454l2.174 2.174" stroke="currentColor" stroke-linecap="round" stroke-linejoin="round"/>
        <path d="M0 0h22v22H0z"/>
    </g>
</svg>
