<svg xmlns="http://www.w3.org/2000/svg" viewBox="0 0 27 27">
    <g fill="none" fill-rule="evenodd" stroke="currentColor">
        <path stroke-width="1.5" d="M19.729-.336c.448 0 .895.171 1.237.513h0l1.819 1.817c.314.314.483.717.51 1.127.027.433-.106.873-.398 1.226h0l-18.8 18.81c-.37.37-.854.554-1.338.554-.485 0-.97-.185-1.339-.554h0L-.196 21.54c-.37-.37-.554-.854-.554-1.339 0-.484.185-.968.554-1.338h0L18.492.177c.341-.342.79-.513 1.237-.513z" transform="translate(2 2)"/>
        <path stroke-width="1.5" d="M9.873 5.904L6.089 2.121c-.39-.39-1.024-.39-1.414 0L2.907 3.889c-.39.39-.39 1.023 0 1.414l3.784 3.783h0M14 16.382l3.783 3.783c.391.39 1.024.39 1.415 0l1.767-1.767c.39-.39.39-1.024 0-1.415L17.182 13.2h0" transform="translate(2 2)"/>
    </g>
</svg>
