<svg version="1.1" id="Layer_1" xmlns="http://www.w3.org/2000/svg" xmlns:xlink="http://www.w3.org/1999/xlink" x="0px" y="0px"
	 viewBox="0 0 512 512" style="enable-background:new 0 0 512 512;" xml:space="preserve">
<g>
	<g>
		<path d="M511.531,8.384c-0.128-0.576-0.128-1.195-0.363-1.749c-1.088-2.645-3.179-4.736-5.824-5.824
			c-0.555-0.235-1.152-0.213-1.749-0.363C502.869,0.299,502.144,0,501.333,0H160c-0.619,0-1.173,0.256-1.771,0.363
			c-0.768,0.128-1.557,0.149-2.283,0.448c-1.323,0.555-2.496,1.323-3.499,2.325L3.115,152.469c-0.085,0.085-0.107,0.213-0.213,0.299
			c-0.853,0.917-1.6,1.963-2.091,3.136C0.277,157.248,0,158.635,0,160.043v341.269c0,1.408,0.277,2.816,0.832,4.117
			c0.299,0.704,0.811,1.237,1.237,1.856c0.363,0.533,0.576,1.109,1.045,1.579c0.363,0.341,0.811,0.491,1.195,0.789
			c0.725,0.555,1.429,1.152,2.283,1.493C7.893,511.723,9.28,512,10.667,512H352c1.387,0,2.773-0.277,4.075-0.832
			c1.173-0.491,2.219-1.216,3.136-2.091c0.085-0.085,0.213-0.107,0.32-0.213l149.333-149.333c0.981-0.981,1.771-2.176,2.304-3.477
			c0.299-0.747,0.341-1.515,0.469-2.304c0.107-0.576,0.363-1.131,0.363-1.749V10.667C512,9.856,511.701,9.131,511.531,8.384z
			 M149.333,36.416v112.917H36.416L149.333,36.416z M21.333,170.667h128v176.917l-128,128V170.667z M341.333,490.667H36.416l128-128
			h176.917V490.667z M341.333,341.333H170.667V170.667h170.667V341.333z M347.584,149.333H170.667v-128h304.917L347.584,149.333z
			 M362.667,475.584V362.667h112.917L362.667,475.584z M490.667,341.333h-128V164.416l128-128V341.333z"/>
	</g>
</g>
</svg>
