<svg version="1.1" xmlns="http://www.w3.org/2000/svg" xmlns:xlink="http://www.w3.org/1999/xlink" x="0px" y="0px"
	 viewBox="0 0 512 512" xml:space="preserve">
	<g id="tool-brush" stroke="currentColor" fill="currentColor">
		<path d="M160,0l-29.1,29.8l36.9,36.9l-143,143c-24.5,24.5-24.5,64.8,0,89.3l1.3,1.3l131.4,130.8c24.5,24.5,64.8,24.5,89.3,0
			L404,273.8l14.9-14.2L217.6,58.3l-16.2-16.8l-4.5-3.9L160,0z M197.6,96.4l163.1,163.1L217.6,402c-8.7,8.7-22.4,8.7-31.1,0
			l-132-132.7c-8.7-8.7-8.7-21.8,0-30.4L197.6,96.4z M443.5,330.8l-16.8,24.6c0,0-11.2,15.6-22,34.3c-5.4,9.4-10.5,19.2-14.9,29.1
			s-8.4,19.1-8.4,31.1c0,34.1,28.1,62.1,62.1,62.1s62.1-28.1,62.1-62.1c0-12-4-21.1-8.4-31.1c-4.4-10-9.5-19.7-14.9-29.1
			c-10.8-18.7-22-34.3-22-34.3L443.5,330.8z M443.5,405.8c1.4,2.3,1.2,2.1,2.6,4.5c4.9,8.5,10.2,17.6,13.6,25.2
			c3.4,7.7,4.5,14.8,4.5,14.2c0,11.5-9.2,20.7-20.7,20.7s-20.7-9.2-20.7-20.7c0,0.6,1.1-6.6,4.5-14.2c3.4-7.7,8.7-16.7,13.6-25.2
			C442.3,407.9,442.1,408.1,443.5,405.8z"/>
	</g>
</svg>
