<?xml version="1.0" encoding="UTF-8" standalone="no"?>
<svg viewBox="0 0 24 24">
  <g fill="currentColor">
    <path
    d="M 18.310547 0.001953125 L 1.4394531 16.873047 L 0 24 L 7.1289062 22.5625 L 24.001953 5.6914062 L 18.310547 0.001953125 z M 18.310547 2.828125 L 21.171875 5.6894531 L 7.5546875 19.306641 L 4.6953125 16.445312 L 15.519531 5.6191406 L 18.365234 8.4667969 L 19.779297 7.0527344 L 16.933594 4.2050781 L 18.310547 2.828125 z M 18.355469 16.423828 L 18.355469 19.169922 L 15.507812 19.169922 L 15.507812 20.898438 L 18.355469 20.898438 L 18.355469 23.847656 L 20.083984 23.847656 L 20.083984 20.898438 L 22.931641 20.898438 L 22.931641 19.169922 L 20.083984 19.169922 L 20.083984 16.423828 L 18.355469 16.423828 z M 3.2792969 17.861328 L 6.140625 20.720703 L 2.5585938 21.445312 L 3.2792969 17.861328 z "/>
  </g>
</svg>
