<?xml version="1.0" encoding="iso-8859-1"?>
<!-- Generator: Adobe Illustrator 19.0.0, SVG Export Plug-In . SVG Version: 6.00 Build 0)  -->
<svg version="1.1" id="Layer_1" xmlns="http://www.w3.org/2000/svg" xmlns:xlink="http://www.w3.org/1999/xlink" x="0px" y="0px"
	 viewBox="0 0 479.981 479.981" style="enable-background:new 0 0 479.981 479.981;" xml:space="preserve">
  <g>
    <path fill="currentColor" d="M462.467,35.67l-15.421-18.778c-16.292-19.757-45.604-22.596-65.335-6.33l-185.56,152.765
      c-2.587-0.243-5.196-0.374-7.825-0.374c-19.114,0-37.78,6.705-52.556,18.876c-16.253,13.372-50.508,52.321-77.511,91.926
      C21.73,327.332,11.052,361.984,25.62,379.698c5.953,7.224,15.626,10.886,28.75,10.886c53.566,0,161.308-60.185,186.597-81.012
      c17.057-14.042,27.621-33.886,29.751-55.877L456.15,101.011c9.579-7.879,15.511-19.02,16.702-31.369
      C474.043,57.292,470.35,45.221,462.467,35.67z M250.815,251.752c-1.611,16.681-9.622,31.732-22.56,42.383
      c-26.168,21.55-128.775,76.451-173.884,76.451c-0.232,0-0.456-0.005-0.684-0.008l146.699-121.887
      c4.248-3.529,4.83-9.834,1.301-14.082c-3.529-4.248-9.835-4.832-14.082-1.301L39.597,356.283
      c1.555-12.251,10.282-34.731,35.188-71.26c25.188-36.942,58.439-75.197,73.698-87.752c11.207-9.232,25.357-14.316,39.844-14.316
      c18.839,0,36.496,8.333,48.453,22.872C247.441,218.76,252.425,235.07,250.815,251.752z M269.402,228.875
      c-2.686-12.997-8.503-25.231-17.183-35.761c-8.686-10.563-19.661-18.636-31.919-23.762l25.768-21.213l48.145,60.306
      L269.402,228.875z M452.945,67.721c-0.679,7.025-4.052,13.363-9.504,17.847L309.654,195.731l-48.145-60.304L394.428,26
      c11.228-9.256,27.91-7.634,37.174,3.602l15.425,18.782C451.521,53.827,453.623,60.695,452.945,67.721z"/>
    <path fill="currentColor" d="M337.483,389.67c-28.773-21.629-76.244-17.411-141.092,12.536c-86.442,39.917-128.298,34.824-148.19,23.523
      c-19.021-10.807-21.235-29.153-21.335-30.082c-0.52-5.466-5.361-9.5-10.832-9.013c-5.501,0.484-9.568,5.336-9.085,10.838
      c0.105,1.182,2.87,29.132,30.865,45.355c34.817,20.177,90.992,12.619,166.961-22.464c56.78-26.22,98.493-31.323,120.625-14.754
      c25.498,19.087,19.404,62.449,19.342,62.866c-0.83,5.46,2.923,10.56,8.383,11.391c0.51,0.078,1.016,0.115,1.517,0.115
      c4.858,0,9.12-3.547,9.873-8.497C364.859,469.231,372.509,416.001,337.483,389.67z"/>
  </g>
</svg>
