<svg xmlns="http://www.w3.org/2000/svg" viewBox="0 0 21 21">
    <g fill="none" fill-rule="evenodd" stroke="currentColor" stroke-linecap="round" stroke-linejoin="round" stroke-width="1.5">
        <path fill="currentColor" d="M8.313 7.52c0 .438-.355.793-.792.793H1.188c-.438 0-.792-.355-.792-.792V1.188c0-.438.354-.792.791-.792h6.334c.437 0 .792.354.792.791v6.334z" transform="translate(1 1)"/>
        <path d="M18.604 7.52c0 .438-.354.793-.791.793h-6.334c-.437 0-.791-.355-.791-.792V1.188c0-.438.354-.792.791-.792h6.334c.437 0 .791.354.791.791v6.334zM8.313 17.813c0 .437-.355.791-.792.791H1.188c-.438 0-.792-.354-.792-.791v-6.334c0-.437.354-.791.791-.791h6.334c.437 0 .792.354.792.791v6.334zM18.604 17.813c0 .437-.354.791-.791.791h-6.334c-.437 0-.791-.354-.791-.791v-6.334c0-.437.354-.791.791-.791h6.334c.437 0 .791.354.791.791v6.334z" transform="translate(1 1)"/>
    </g>
</svg>
