<?xml version="1.0" encoding="UTF-8" standalone="no"?>
<svg version="1.1" xmlns:svg="http://www.w3.org/2000/svg" xmlns="http://www.w3.org/2000/svg" viewBox="0 0 256 256">
  <g id="tool-scissor-circle" stroke="currentColor" fill="currentColor">
    <path
      d="m 95.186411,99.470453 a 9.7463486,9.7463486 0 0 1 6.903659,11.957487 68.30566,68.30566 0 0 0 0.006,35.2595 9.8275678,9.8275678 0 0 1 -4.504348,11.04118 8.6092746,8.6092746 0 0 1 -2.383531,0.90721 9.665129,9.665129 0 0 1 -11.907784,-6.81755 87.554699,87.554699 0 0 1 -0.07138,-45.44416 9.9087877,9.9087877 0 0 1 11.9575,-6.903667 z m 24.574799,77.814127 a 9.762664,9.762664 0 0 0 -13.76005,13.85276 88.366894,88.366894 0 0 0 39.27951,22.71357 9.9087877,9.9087877 0 0 0 7.40009,-0.99 9.7463486,9.7463486 0 0 0 -2.34626,-17.87117 67.980782,67.980782 0 0 1 -30.57329,-17.70516 z m 96.47052,0.10436 a 67.412245,67.412245 0 0 1 -30.56739,17.55431 9.7463486,9.7463486 0 0 0 -6.88789,11.94839 9.665129,9.665129 0 0 0 11.87803,6.9285 87.22982,87.22982 0 0 0 21.26761,-8.80886 85.524208,85.524208 0 0 0 18.12181,-13.93263 9.7463486,9.7463486 0 0 0 -13.81217,-13.68971 z m 24.54655,-77.851495 a 9.665129,9.665129 0 0 0 -6.81753,11.907775 68.711758,68.711758 0 0 1 -0.0644,35.3001 9.7463486,9.7463486 0 0 0 14.30377,10.96752 9.9087877,9.9087877 0 0 0 4.5574,-5.91368 87.717137,87.717137 0 0 0 -0.0308,-45.37382 9.7463486,9.7463486 0 0 0 -11.94839,-6.887895 z M 216.22515,80.888706 a 9.9087877,9.9087877 0 0 0 11.77351,1.549376 12.589034,12.589034 0 0 0 2.01805,-1.540259 9.8275678,9.8275678 0 0 0 0.009,-13.791554 88.204454,88.204454 0 0 0 -39.32011,-22.783905 9.7632558,9.7632558 0 0 0 -5.05383,18.861161 67.980782,67.980782 0 0 1 30.57329,17.705181 z m -96.4705,-0.104375 a 67.412245,67.412245 0 0 1 30.56739,-17.554309 14.213424,14.213424 0 0 0 2.41326,-1.018158 9.7463486,9.7463486 0 0 0 -7.40342,-17.858725 88.123236,88.123236 0 0 0 -39.38942,22.741485 9.7463486,9.7463486 0 1 0 13.81219,13.68971 z" />
    <path
      d="m 37.698988,37.475257 c -0.710483,-0.0944 -1.417711,0.15341 -1.907644,0.67794 l -3.029525,3.23827 c -1.186174,1.25331 -2.301137,2.75282 -3.507657,4.7097 -2.482623,4.02648 -5.107669,10.19785 -3.519051,16.70654 0.428487,1.75952 1.180885,3.27693 1.90439,4.74144 0.116786,0.23561 0.234793,0.47122 0.349951,0.7052 l 30.212235,66.147003 -12.657265,20.15681 c -0.950161,-0.35239 -1.929212,-0.64945 -2.926168,-0.88953 -1.78272,-0.43378 -3.619967,-0.69217 -5.457622,-0.76704 -10.82165,-0.44762 -22.117364,5.53615 -29.281611,15.3759 -1.323713,1.79574 -3.0873082,4.62262 -5.0474462,9.36284 -1.279765,3.39535 -2.076923,6.92091 -2.351187,10.44566 -0.477318,6.12537 0.618926,12.05747 3.167471,17.14805 2.7609572,5.52354 7.3066692,9.95613 12.7984722,12.48799 3.185783,1.4641 6.591709,2.28038 10.126223,2.42565 0,0 0,0 0.0033,0 10.545352,0.43541 21.564767,-5.11173 28.76116,-14.47742 0.01424,-0.0151 0.02604,-0.0309 0.03784,-0.0509 l 1.092573,-1.50276 c 2.69219,-3.86331 4.71011,-8.26008 5.85397,-12.74964 0.009,-0.0183 0.011,-0.0383 0.0163,-0.0574 0.35687,-1.58781 0.45902,-2.1046 0.49115,-2.30725 2.8163,-14.67559 6.73576,-24.04006 10.05177,-29.81061 l 3.50847,-5.37786 V 110.37512 L 39.351494,38.641497 c -0.329606,-0.63276 -0.94365,-1.06857 -1.652506,-1.16624 z m 0.906213,160.268183 c -3.339599,3.03929 -7.643193,4.833 -11.229385,4.68772 -1.656168,-0.0708 -3.183342,-0.53631 -4.533098,-1.3819 -0.0036,-0.002 -0.0061,-0.003 -0.0073,-0.005 l -0.0016,-0.002 c -3.15038,-1.97275 -4.933507,-5.9622 -4.768704,-10.66661 0.177417,-5.08936 2.466754,-10.26417 6.277159,-14.19055 2.733288,-2.81345 7.339224,-5.75345 12.072526,-5.55691 1.118625,0.046 2.198593,0.27019 3.211825,0.66573 4.684066,1.83968 6.263326,7.115 6.194149,11.07963 -0.09929,5.60412 -2.797174,11.34943 -7.21552,15.37021 z" />
  </g>
</svg>
