<svg version="1.1" xmlns="http://www.w3.org/2000/svg" xmlns:xlink="http://www.w3.org/1999/xlink" x="0px" y="0px"
	 width="453.408px" height="453.408px" viewBox="0 0 453.408 453.408" xml:space="preserve">
	<g stroke="currentColor" fill="currentColor">
		<path d="M437.671,383.799c-8.689,0-15.735,7.047-15.735,15.738v15.736h-15.737c-8.576,0-15.736,7.162-15.736,15.736
			c0,8.576,7.16,15.738,15.736,15.738h31.474c8.691,0,15.736-7.047,15.736-15.738v-31.473
			C453.407,390.846,446.362,383.799,437.671,383.799z"/>
		<path d="M345.353,415.273h-41.96c-8.576,0-15.737,7.16-15.737,15.736s7.161,15.736,15.737,15.736h41.96
			c8.576,0,15.736-7.16,15.736-15.736S353.93,415.273,345.353,415.273z"/>
		<path d="M242.548,415.273h-15.737v-15.738c0-8.576-7.16-15.736-15.736-15.736s-15.736,7.16-15.736,15.736v31.475
			c0,8.691,7.045,15.736,15.736,15.736h31.474c8.576,0,15.736-7.16,15.736-15.736S251.124,415.273,242.548,415.273z"/>
		<path d="M211.074,207.507c8.691,0,15.736-7.045,15.736-15.736v-69.255c0-8.576-7.16-15.737-15.736-15.737
			c-8.576,0-15.736,7.161-15.736,15.737v69.255C195.338,200.461,202.383,207.507,211.074,207.507z"/>
		<path d="M242.548,6.049h-31.474c-8.691,0-15.736,7.046-15.736,15.737v31.474c0,8.576,7.16,15.737,15.736,15.737
			c8.576,0,15.736-7.161,15.736-15.737V37.523h15.737c8.576,0,15.736-7.161,15.736-15.737
			C258.284,13.21,251.124,6.049,242.548,6.049z"/>
		<path d="M345.353,6.049h-41.96c-8.576,0-15.737,7.161-15.737,15.737s7.161,15.737,15.737,15.737h41.96
			c8.576,0,15.736-7.161,15.736-15.737C361.09,13.21,353.93,6.049,345.353,6.049z"/>
		<path d="M437.671,6.049h-31.474c-8.576,0-15.736,7.161-15.736,15.737s7.16,15.737,15.736,15.737h15.737v15.737
			c0,8.576,7.159,15.737,15.735,15.737s15.736-7.161,15.736-15.737V21.787C453.407,13.096,446.362,6.049,437.671,6.049z"/>
		<path d="M437.671,245.289c-8.689,0-15.735,7.045-15.735,15.736v69.256c0,8.575,7.159,15.736,15.735,15.736
			s15.736-7.161,15.736-15.736v-69.256C453.407,252.334,446.362,245.289,437.671,245.289z"/>
		<path d="M437.671,106.779c-8.689,0-15.735,7.046-15.735,15.737v69.255c0,8.576,7.159,15.736,15.735,15.736
			s15.736-7.161,15.736-15.736v-69.255C453.407,113.825,446.362,106.779,437.671,106.779z"/>
		<path d="M211.074,346.018c8.576,0,15.736-7.161,15.736-15.736v-69.256c0-8.576-7.16-15.736-15.736-15.736
			c-8.576,0-15.736,7.16-15.736,15.736v69.256C195.338,338.856,202.498,346.018,211.074,346.018z"/>
		<path d="M91.732,2.242c-1.746-0.232-3.484,0.377-4.688,1.666l-7.445,7.958c-2.915,3.08-5.655,6.765-8.62,11.574
			c-6.101,9.895-12.552,25.061-8.648,41.056c1.053,4.324,2.902,8.053,4.68,11.652c0.287,0.579,0.577,1.158,0.86,1.733
			l74.246,162.555l-31.105,49.535c-2.335-0.866-4.741-1.596-7.191-2.186c-4.381-1.066-8.896-1.701-13.412-1.885
			c-26.594-1.1-54.353,13.605-71.959,37.786c-3.253,4.413-7.587,11.36-12.404,23.009c-3.145,8.344-5.104,17.008-5.778,25.67
			c-1.173,15.053,1.521,29.631,7.784,42.141c6.785,13.574,17.956,24.467,31.452,30.689c7.829,3.598,16.199,5.604,24.885,5.961
			c0,0,0,0,0.008,0c25.915,1.07,52.995-12.562,70.68-35.578c0.035-0.037,0.064-0.076,0.093-0.125l2.685-3.693
			c6.616-9.494,11.575-20.299,14.386-31.332c0.021-0.045,0.027-0.094,0.04-0.141c0.877-3.902,1.128-5.172,1.207-5.67
			c6.921-36.065,16.553-59.078,24.702-73.259l8.622-13.216V181.392L95.793,5.108C94.983,3.553,93.474,2.482,91.732,2.242z
				M93.959,396.098c-8.207,7.469-18.783,11.877-27.596,11.52c-4.07-0.174-7.823-1.318-11.14-3.396
			c-0.009-0.004-0.015-0.008-0.018-0.014l-0.004-0.004c-7.742-4.848-12.124-14.652-11.719-26.213
			c0.436-12.507,6.062-25.224,15.426-34.873c6.717-6.914,18.036-14.139,29.668-13.656c2.749,0.113,5.403,0.664,7.893,1.636
			c11.511,4.521,15.392,17.485,15.222,27.228C111.447,372.098,104.817,386.217,93.959,396.098z"/>
	</g>
</svg>
