<svg version="1.1" xmlns="http://www.w3.org/2000/svg" xmlns:xlink="http://www.w3.org/1999/xlink" x="0px" y="0px"
	 viewBox="0 0 489.785 489.785" xml:space="preserve">
	<g id="tool-brush" stroke="currentColor" fill="currentColor">
		<path id="Path" stroke-linecap="round" stroke-linejoin="round"
      d="M479.702,10.08L479.702,10.08c-25.866-25.864-93.419-0.238-150.886,57.231l0.001,0.001l-0.002-0.001
			c-9.503,9.502-18.126,19.282-25.793,29.104c-9.596,54.899-33.63,93.829-61.77,93.831v0.001c-9.089,0-17.749-4.064-25.633-11.412
			l-0.043,0.014l-20.831-20.832c-11.778-11.777-30.87-11.777-42.648,0l-80.851,80.849l-4.268,4.268L8.835,301.279
			c-11.776,11.778-11.776,30.872,0.001,42.648L145.86,480.953c11.777,11.777,30.869,11.776,42.647,0l58.144-58.144l4.27-4.267
			l80.849-80.85c11.774-11.778,11.774-30.871-0.001-42.648l-20.831-20.831l0.015-0.043c-7.348-7.884-11.411-16.543-11.412-25.631
			v-0.001c0-0.001,0-0.001,0-0.001c0.004-28.141,38.93-52.173,93.822-61.769c9.824-7.668,19.606-16.292,29.111-25.796l-0.028-0.031
			l0.03,0.03C479.941,103.499,505.565,35.949,479.702,10.08z M248.322,390.438l0.015,0.015l-56.174,56.175l-0.003-0.003l-14.69,14.692
			c-6.001,5.998-15.723,5.998-21.721,0L28.468,334.035c-5.996-5.996-6.002-15.722-0.003-21.721l14.691-14.69v-0.001L98.5,242.281
			l0.001,0.001c13.478-13.475,31.025-17.777,39.201-9.603c8.174,8.174,4.039,25.89-9.434,39.369l-0.001,0.001
			c-13.476,13.475-17.609,31.192-9.437,39.364c8.177,8.176,25.793,3.944,40.102-10.364l0.014,0.014
			c13.355-12.825,30.352-16.79,38.355-8.786c8.007,8.006,4.203,25.162-8.614,38.526l0.047,0.047
			c-14.308,14.308-18.441,32.025-10.269,40.198c8.177,8.175,25.795,3.942,39.269-9.533l0.835-0.831l0.013,0.012
			c13.356-12.824,30.351-16.788,38.357-8.782C264.94,359.917,261.136,377.073,248.322,390.438z M303.916,313.153
			c5.998,5.999,5.998,15.721-0.001,21.718l-17.245,17.246l-149-149.002l17.246-17.245c5.998-5.998,15.722-5.996,21.719,0.001
			L303.916,313.153z M409.705,80.082c-9.404-9.404-9.405-24.651,0.001-34.058c9.405-9.405,24.651-9.403,34.057,0
			c9.404,9.406,9.404,24.653,0.001,34.058C434.357,89.487,419.111,89.488,409.705,80.082z"/>
	</g>
</svg>
