<?xml version="1.0" encoding="UTF-8"?>
<svg width="28px" height="28px" viewBox="0 0 28 28" version="1.1" xmlns="http://www.w3.org/2000/svg" xmlns:xlink="http://www.w3.org/1999/xlink">
    <title>tool-toggle-dicom-overlay</title>
    <g id="tool-toggle-dicom-overlay" stroke="none" stroke-width="1" fill="none" fill-rule="evenodd">
        <rect id="Rectangle" x="0" y="0" width="28" height="28"></rect>
        <path d="M21.5629346,19 C21.9081126,19 22.1879346,19.279822 22.1879346,19.625 C22.1879346,19.970178 21.9081126,20.25 21.5629346,20.25 L20.2129346,20.25 C19.8677566,20.25 19.5879346,19.970178 19.5879346,19.625 C19.5879346,19.279822 19.8677566,19 20.2129346,19 L21.5629346,19 Z M17.4829346,19 C17.8281125,19 18.1079346,19.279822 18.1079346,19.625 C18.1079346,19.970178 17.8281125,20.25 17.4829346,20.25 L16.1329346,20.25 C15.7877566,20.25 15.5079346,19.970178 15.5079346,19.625 C15.5079346,19.279822 15.7877566,19 16.1329346,19 L17.4829346,19 Z M13.4029345,19 C13.7481125,19 14.0279345,19.279822 14.0279345,19.625 C14.0279345,19.970178 13.7481125,20.25 13.4029345,20.25 L12.0529345,20.25 C11.7077565,20.25 11.4279345,19.970178 11.4279345,19.625 C11.4279345,19.279822 11.7077565,19 12.0529345,19 L13.4029345,19 Z M8.98988002,17.034041 C9.33501017,17.0282959 9.61945075,17.3034219 9.62519584,17.648552 C9.63057519,17.9717108 9.74731641,18.2750986 9.95299373,18.5163531 C10.1769336,18.7790292 10.1455318,19.1735095 9.88285564,19.3974494 C9.62017952,19.6213893 9.22569928,19.5899874 9.00175936,19.3273113 C8.60957687,18.8672907 8.38562164,18.2852745 8.37536899,17.6693568 C8.3696239,17.3242267 8.64474986,17.0397861 8.98988002,17.034041 Z M24,16.4185328 C24.345178,16.4185328 24.625,16.6983548 24.625,17.0435328 L24.625,17.625 C24.625,17.9681799 24.5587904,18.303203 24.431654,18.6151793 C24.3013887,18.9348335 23.936657,19.0883635 23.6170028,18.9580982 C23.2973486,18.8278329 23.1438186,18.4631012 23.2740839,18.143447 C23.3404391,17.9806197 23.375,17.8057405 23.375,17.625 L23.375,17.0435328 C23.375,16.6983548 23.654822,16.4185328 24,16.4185328 Z M9,12.9544019 C9.34517797,12.9544019 9.625,13.2342239 9.625,13.5794019 L9.625,14.9294019 C9.625,15.2745799 9.34517797,15.5544019 9,15.5544019 C8.65482203,15.5544019 8.375,15.2745799 8.375,14.9294019 L8.375,13.5794019 C8.375,13.2342239 8.65482203,12.9544019 9,12.9544019 Z M24,12.3385328 C24.345178,12.3385328 24.625,12.6183548 24.625,12.9635328 L24.625,14.3135328 C24.625,14.6587107 24.345178,14.9385328 24,14.9385328 C23.654822,14.9385328 23.375,14.6587107 23.375,14.3135328 L23.375,12.9635328 C23.375,12.6183548 23.654822,12.3385328 24,12.3385328 Z M9,8.87440184 C9.34517797,8.87440184 9.625,9.15422387 9.625,9.49940184 L9.625,10.8494019 C9.625,11.1945798 9.34517797,11.4744019 9,11.4744019 C8.65482203,11.4744019 8.375,11.1945798 8.375,10.8494019 L8.375,9.49940184 C8.375,9.15422387 8.65482203,8.87440184 9,8.87440184 Z M24,8.25853271 C24.345178,8.25853271 24.625,8.53835474 24.625,8.88353271 L24.625,10.2335327 C24.625,10.5787107 24.345178,10.8585327 24,10.8585327 C23.654822,10.8585327 23.375,10.5787107 23.375,10.2335327 L23.375,8.88353271 C23.375,8.53835474 23.654822,8.25853271 24,8.25853271 Z M8.85203131,5.11578232 C9.05066164,4.83348137 9.44053346,4.76565293 9.72283441,4.96428326 C10.0051354,5.16291358 10.0729638,5.55278541 9.87433347,5.83508635 C9.71277357,6.06470142 9.625,6.33744835 9.625,6.625 L9.625,6.76940182 C9.625,7.11457979 9.34517797,7.39440182 9,7.39440182 C8.65482203,7.39440182 8.375,7.11457979 8.375,6.76940182 L8.375,6.625 C8.375,6.07783578 8.54347711,5.55431124 8.85203131,5.11578232 Z M22.6742845,4.64042222 C22.8779596,4.36173907 23.2689882,4.30093301 23.5476713,4.50460808 C24.037257,4.86242093 24.3909544,5.3800285 24.5426114,5.97056314 C24.6284714,6.30489214 24.4270475,6.64552267 24.0927185,6.73138272 C23.7583895,6.81724277 23.417759,6.61581889 23.331899,6.28148989 C23.2527262,5.9732005 23.0672181,5.70172435 22.8100986,5.51380903 C22.5314155,5.31013396 22.4706094,4.91910536 22.6742845,4.64042222 Z M12.35,4 C12.695178,4 12.975,4.27982203 12.975,4.625 C12.975,4.97017797 12.695178,5.25 12.35,5.25 L11,5.25 C10.654822,5.25 10.375,4.97017797 10.375,4.625 C10.375,4.27982203 10.654822,4 11,4 L12.35,4 Z M16.4300001,4 C16.775178,4 17.0550001,4.27982203 17.0550001,4.625 C17.0550001,4.97017797 16.775178,5.25 16.4300001,5.25 L15.08,5.25 C14.7348221,5.25 14.455,4.97017797 14.455,4.625 C14.455,4.27982203 14.7348221,4 15.08,4 L16.4300001,4 Z M20.5100001,4 C20.8551781,4 21.1350001,4.27982203 21.1350001,4.625 C21.1350001,4.97017797 20.8551781,5.25 20.5100001,5.25 L19.1600001,5.25 C18.8148221,5.25 18.5350001,4.97017797 18.5350001,4.625 C18.5350001,4.27982203 18.8148221,4 19.1600001,4 L20.5100001,4 Z" id="Rectangle" fill="currentColor" fill-rule="nonzero" transform="translate(16.5, 12.125) rotate(180) translate(-16.5, -12.125)"></path>
        <path d="M6.1678365,9.125 L5.5,9.125 C4.3954305,9.125 3.5,10.0204305 3.5,11.125 L3.5,22.125 C3.5,23.2295695 4.3954305,24.125 5.5,24.125 L16.5,24.125 C17.6045695,24.125 18.5,23.2295695 18.5,22.125 L18.5,21.9543874 L18.5,21.9543874" id="Path-9" stroke="currentColor" stroke-width="1.25" stroke-linecap="round"></path>
    </g>
</svg>