<svg xmlns="http://www.w3.org/2000/svg" viewBox="0 0 20 6">
    <g fill="none" fill-rule="evenodd">
        <path d="M0 0L29 0 29 29 0 29z" transform="translate(-4.5 -11.5)"/>
        <path fill="currentColor" fill-rule="nonzero" d="M7.25 12.083c-1.33 0-2.417 1.088-2.417 2.417 0 1.33 1.088 2.417 2.417 2.417 1.33 0 2.417-1.088 2.417-2.417 0-1.33-1.088-2.417-2.417-2.417zm14.5 0c-1.33 0-2.417 1.088-2.417 2.417 0 1.33 1.088 2.417 2.417 2.417 1.33 0 2.417-1.088 2.417-2.417 0-1.33-1.088-2.417-2.417-2.417zm-7.25 0c-1.33 0-2.417 1.088-2.417 2.417 0 1.33 1.088 2.417 2.417 2.417 1.33 0 2.417-1.088 2.417-2.417 0-1.33-1.088-2.417-2.417-2.417z" transform="translate(-4.5 -11.5)"/>
    </g>
</svg>
