<?xml version="1.0" encoding="iso-8859-1"?>
<!-- Uploaded to: SVG Repo, www.svgrepo.com, Generator: SVG Repo Mixer Tools -->
<svg fill="#000000" height="800px" width="800px" version="1.1" id="Layer_1" xmlns="http://www.w3.org/2000/svg" xmlns:xlink="http://www.w3.org/1999/xlink"
	 viewBox="0 0 480.001 480.001" xml:space="preserve">
	<g id="tool-eraser" stroke="currentColor" fill="currentColor">
		<path d="M333.142,350.846c0.115-0.115,0.215-0.239,0.323-0.357l129.681-129.706c10.878-10.878,16.864-25.368,16.855-40.8
			c-0.01-15.409-5.999-29.865-16.854-40.694l-97.844-97.874c-10.853-10.845-25.326-16.817-40.75-16.817
			c-15.426,0-29.895,5.974-40.741,16.82L16.855,308.329C5.974,319.21-0.012,333.713,0,349.168
			c0.013,15.425,6.002,29.884,16.854,40.7l62.592,62.606c0.061,0.061,0.127,0.112,0.188,0.171c0.174,0.165,0.349,0.331,0.534,0.483
			c0.082,0.067,0.171,0.126,0.255,0.19c0.175,0.135,0.349,0.271,0.532,0.395c0.07,0.047,0.145,0.085,0.215,0.13
			c0.205,0.131,0.412,0.26,0.627,0.376c0.051,0.026,0.103,0.048,0.154,0.074c0.239,0.123,0.482,0.241,0.732,0.346
			c0.033,0.014,0.067,0.024,0.101,0.037c0.269,0.108,0.54,0.208,0.819,0.293c0.034,0.011,0.07,0.017,0.104,0.027
			c0.276,0.081,0.556,0.154,0.841,0.211c0.082,0.017,0.165,0.023,0.247,0.038c0.239,0.041,0.479,0.084,0.724,0.107
			c0.33,0.033,0.663,0.051,0.998,0.051h137.91h159.308c5.522,0,10-4.478,10-10c0-5.522-4.478-10-10-10H248.566l84.22-84.236
			C332.904,351.06,333.027,350.96,333.142,350.846z M220.285,435.404H90.66l-59.675-59.689
			c-7.076-7.054-10.977-16.487-10.985-26.563c-0.008-10.106,3.897-19.582,10.996-26.681l129.825-129.803l151.091,151.091
			L220.285,435.404z M174.965,178.527L297.953,55.56c7.069-7.069,16.516-10.963,26.6-10.963c10.085,0,19.536,3.895,26.609,10.962
			l97.85,97.88c7.08,7.063,10.982,16.493,10.989,26.557c0.006,10.085-3.899,19.547-10.998,26.645l-122.95,122.974L174.965,178.527z"
			/>
	</g>
</svg>
