<svg xmlns="http://www.w3.org/2000/svg" viewBox="0 0 25 18">
    <g fill="none" fill-rule="evenodd" stroke="currentColor" stroke-linecap="round" stroke-linejoin="round" stroke-width="2" transform="translate(1 1)">
        <path d="M5.983 2.556c.406-.022.795-.173 1.109-.432L8.944.432c.314-.26.703-.41 1.11-.432h2.903c.403.023.788.175 1.099.432l1.852 1.692c.314.259.703.41 1.11.432h3.426c1.099.112 1.93 1.045 1.917 2.149v8.712c0 1.058-.858 1.916-1.917 1.916H2.556c-1.059 0-1.917-.858-1.917-1.916V4.705c-.013-1.104.818-2.037 1.917-2.15h3.427z"/>
        <circle cx="11.5" cy="7.986" r="3.514"/>
        <path d="M19.167 5.43c.176 0 .32.144.32.32 0 .176-.144.32-.32.32-.177 0-.32-.144-.32-.32 0-.176.143-.32.32-.32"/>
    </g>
</svg>
