<?xml version="1.0" encoding="UTF-8" standalone="no"?>
<!-- Uploaded to: SVG Repo, www.svgrepo.com, Generator: SVG Repo Mixer Tools -->
<svg width="800px" height="800px" viewBox="0 -2 30 30" version="1.1" xmlns="http://www.w3.org/2000/svg" xmlns:xlink="http://www.w3.org/1999/xlink" xmlns:sketch="http://www.bohemiancoding.com/sketch/ns">

    <title>upload</title>
    <desc>Created with Sketch Beta.</desc>
    <defs>

</defs>
    <g id="Page-1" stroke="none" stroke-width="1" fill="none" fill-rule="evenodd" sketch:type="MSPage">
        <g id="Icon-Set-Filled" sketch:type="MSLayerGroup" transform="translate(-571.000000, -676.000000)" fill="#000000">
            <path d="M599,692 C597.896,692 597,692.896 597,694 L597,698 L575,698 L575,694 C575,692.896 574.104,692 573,692 C571.896,692 571,692.896 571,694 L571,701 C571,701.479 571.521,702 572,702 L600,702 C600.604,702 601,701.542 601,701 L601,694 C601,692.896 600.104,692 599,692 L599,692 Z M582,684 L584,684 L584,693 C584,694.104 584.896,695 586,695 C587.104,695 588,694.104 588,693 L588,684 L590,684 C590.704,684 591.326,684.095 591.719,683.7 C592.11,683.307 592.11,682.668 591.719,682.274 L586.776,676.283 C586.566,676.073 586.289,675.983 586.016,675.998 C585.742,675.983 585.465,676.073 585.256,676.283 L580.313,682.274 C579.921,682.668 579.921,683.307 580.313,683.7 C580.705,684.095 581.608,684 582,684 L582,684 Z" id="upload" sketch:type="MSShapeGroup">

</path>
        </g>
    </g>
</svg>
