<?xml version="1.0" encoding="UTF-8"?>
<svg width="20px" height="20px" viewBox="0 0 20 20" version="1.1" xmlns="http://www.w3.org/2000/svg" xmlns:xlink="http://www.w3.org/1999/xlink">
<g id="WEB" stroke="none" stroke-width="1" fill="none" fill-rule="evenodd">
<g id="08-error-hover" transform="translate(-492.000000, -311.000000)">
<g id="5.-Icon-/-16-/--1.-Icon-Warn" transform="translate(494.000000, 313.000000)">
<g id="Group">
<rect id="Rectangle-4" stroke="#FFFFFF" stroke-width="2" fill="#EC4444" x="-1" y="-1" width="18" height="18" rx="9"></rect>
<path d="M7.88285198,4 L8.38747663,4 C9.21590376,4 9.88747663,4.67157288 9.88747663,5.5 C9.88747663,5.64750637 9.86571914,5.79420607 9.82290662,5.93536278 L9.11348315,8.27439537 C8.98277997,8.70533541 8.58548934,9 8.1351643,9 C7.68483927,9 7.28754864,8.70533541 7.15684546,8.27439537 L6.44742199,5.93536278 C6.20697777,5.14259669 6.65472311,4.30501424 7.4474892,4.06457001 C7.5886459,4.02175749 7.73534561,4 7.88285198,4 Z M8,10 C8.55228475,10 9,10.4477153 9,11 C9,11.5522847 8.55228475,12 8,12 C7.44771525,12 7,11.5522847 7,11 C7,10.4477153 7.44771525,10 8,10 Z" id="Combined-Shape" fill="#FFFFFF"></path>
</g>
</g>
</g>
</g>
</svg>