<?xml version="1.0" encoding="UTF-8"?>
<svg version="1.1" xmlns="http://www.w3.org/2000/svg" width="1369" height="1626">
<path d="M0 0 C3.09364016 50.64622235 5.93883294 101.29877856 7.579422 152.01457214 C7.60413421 152.77649348 7.62884643 153.53841481 7.6543075 154.32342467 C8.19122997 170.92013023 8.68691373 187.51783136 9.14069397 204.11701285 C9.36378167 212.2684134 9.59589011 220.41954587 9.83276367 228.57055664 C9.85616954 229.38127299 9.87957541 230.19198934 9.90369056 231.02727286 C10.60816576 255.29270435 11.79263695 279.49311682 13.35133983 303.71791711 C15.75396007 341.18101413 17.35091902 378.60575929 17.47283892 416.15090498 C17.47792698 417.68877771 17.48398145 419.22664756 17.49100062 420.7645127 C17.84949683 500.37595435 8.07510995 562.17199446 -61.73314787 638.73147786 C-97.6880825 674.91641263 -137.61740614 707.28449789 -179 737 C-183.12009625 735.10303804 -185.94113766 732.33198449 -189.09967041 729.14083862 C-189.70745386 728.53476402 -190.31523731 727.92868942 -190.94143844 727.30424893 C-192.97908993 725.26989464 -195.00950562 723.22846891 -197.04003906 721.18701172 C-198.49830905 719.72817766 -199.95701942 718.26978371 -201.4161377 716.8117981 C-205.37894334 712.84956716 -209.33554475 708.88119231 -213.29108143 704.91170645 C-217.42483867 700.76546149 -221.56424613 696.62486543 -225.70306396 692.4836731 C-233.54095564 684.6395609 -241.37373436 676.79036358 -249.20470023 668.93933785 C-258.1196669 660.00203002 -267.04030141 651.07038872 -275.96142244 642.13922477 C-294.31393973 623.76579251 -312.65930858 605.38523653 -331 587 C-329.53845282 583.29893769 -327.76695843 581.91379554 -324.40037537 579.86906433 C-282.36260443 553.93373177 -226.83359283 514.69643141 -213.05658165 464.56726912 C-204.68255228 427.4130701 -207.88129957 386.93242261 -209.4175587 349.15608824 C-209.83568665 338.74765634 -210.10292412 328.34280885 -210.27210999 317.92744446 C-210.29026476 316.81376076 -210.29026476 316.81376076 -210.3087863 315.67757841 C-210.36879738 311.94966448 -210.42638822 308.22171783 -210.48278029 304.49374757 C-210.94742122 273.98105434 -211.83104637 243.49436062 -213 213 C-294.78469483 205.75985643 -376.69146564 200.23817384 -904.83297537 279.83961152 C-983.7293661 346.62078515 -1022.49426986 436.75938861 -1071.23849838 680.68708569 C-1072.77540032 699.33008806 -1073.80055153 717.99797339 -1074.5625 736.6875 C-1074.59294532 737.43026837 -1074.62339065 738.17303674 -1074.65475856 738.93831324 C-1077.71457495 814.64378441 -1073.33039765 891.1117528 -911.57032557 1181.3618855 C-847.74845199 1250.48826322 -777.86929015 1314.06436059 -587.89096928 1475.04119396 C-587.36955267 1475.4577561 -586.84813607 1475.87431823 -586.31091897 1476.30350347 C-580.993643 1480.55117622 -575.66941136 1484.78952612 -570.32749361 1489.00617355 C-568.67025368 1490.32118056 -567.01301617 1491.6361906 -565.35578156 1492.9512043 C-564.22231285 1493.83840432 -564.22231285 1493.83840432 -563.06594578 1494.74352757 C-562.39080538 1495.28069526 -561.71566498 1495.81786295 -561.02006578 1496.37130845 C-560.43233079 1496.8343322 -559.8445958 1497.29735595 -559.23905066 1497.77441073 C-558.83016394 1498.17885519 -558.42127722 1498.58329965 -558 1499 C-558 1499.66 -558 1500.32 -558 1501 C-639.9844678 1525.23770184 -727.14917972 1535.37315601 -901.00663743 1480.67741216 C-962.98575035 1446.63835052 -1018.21614095 1402.95668804 -1069.8125 1354.875 C-1070.60685633 1354.13518255 -1070.60685633 1354.13518255 -1071.41726027 1353.38041929 C-1126.44441218 1302.07537965 -1175.85795921 1245.02986697 -1290.03402996 822.65425682 C-1293.38350584 723.74983845 -1288.94997064 624.26022963 -1115.15249794 156.09299788 C-1111.87072891 152.58548234 -1108.56352247 149.102495 -1105.25 145.625 C-1104.78221604 145.13271083 -1104.31443208 144.64042166 -1103.83247285 144.13321464 C-1054.05181151 91.76792157 -996.55147315 49.65999953 0 0 Z " fill="#009790" transform="translate(1306,63)"/>
<path d="M0 0 C115.0703711 -16.35210537 115.0703711 -16.35210537 156.93359375 -19.61572266 C158.23728055 -19.71848976 159.54096735 -19.82125686 160.8841598 -19.92713812 C230.82660593 -25.41827282 300.83210552 -28.10107169 651.83152735 98.90615179 C674.69653973 118.49149132 696.24503894 139.44944686 717.4441309 160.80919468 C719.00004585 162.37504614 720.55871576 163.9381016 722.11833954 165.50025845 C772.74187154 216.21789002 819.9351602 270.56420369 905.91015625 580.53369141 C905.78448424 669.08481657 896.58804081 757.75461391 880 858 C811.48529686 864.38941524 742.91906765 868.71677328 674.14741004 871.11377013 C670.26133823 871.24960368 666.37540752 871.38908237 662.48946667 871.52860546 C433.28260445 879.62718183 433.28260445 879.62718183 343.39078385 798.5890488 C328.49693479 784.65860499 314.91753685 769.58248998 301.74385333 754.03514457 C300.11938254 752.11837175 298.49035437 750.20554803 296.86069679 748.29318428 C271.46161417 718.43517018 248.05693951 687.39918293 227.04714966 654.28884888 C226.52656003 653.46978935 226.0059704 652.65072983 225.46960533 651.80685031 C225.00610715 651.06439252 224.54260896 650.32193474 224.06506538 649.55697823 C223.46170347 648.59210887 223.46170347 648.59210887 222.84615242 647.6077472 C222 646 222 646 222 644 C368.85 644 515.7 644 667 644 C674.29136744 486.65088244 674.29136744 486.65088244 596.65635136 368.04438975 C594.0896932 365.48142108 591.57570571 362.8689061 589.05746817 360.25848144 C583.01196549 353.99357576 576.89705349 347.80402683 570.72182465 341.66710663 C565.14167748 336.12050551 559.64592089 330.5039009 554.21421051 324.81189728 C472.21137579 238.99480469 394.8507934 201.01545286 268.49537381 197.09861244 C241.60282665 196.56591722 214.74434647 197.26527489 187.875 198.375 C186.13051851 198.44675487 186.13051851 198.44675487 184.35079497 198.51995933 C166.90025223 199.24829604 149.46295722 200.16025472 132.02905273 201.21240234 C130.99316217 201.27422425 129.9572716 201.33604615 128.8899904 201.39974144 C85.73474423 203.99974111 43.01220148 209.25160048 0 214 C0 143.38 0 72.76 0 0 Z " fill="#0067AE" transform="translate(426,706)"/>
</svg>
