<?xml version="1.0" encoding="UTF-8"?>
<svg width="28px" height="28px" viewBox="0 0 28 28" version="1.1" xmlns="http://www.w3.org/2000/svg" xmlns:xlink="http://www.w3.org/1999/xlink">
    <title>tool-layout</title>
    <g id="tool-layout" stroke="none" stroke-width="1" fill="none" fill-rule="evenodd">
        <rect id="Rectangle" x="0" y="0" width="28" height="28"></rect>
        <g id="Group" transform="translate(0.5, 4)" stroke-linecap="round">
            <g id="Group-3" transform="translate(0, 0)" stroke="currentColor" stroke-width="1.25">
                <path d="M5.45696821e-12,9.49450549 L5.45696821e-12,17.3947362 C5.45710348e-12,18.4993057 0.8954305,19.3947362 2,19.3947362 L13.2443085,19.3947362 L13.2443085,19.3947362" id="Path-3"></path>
                <path d="M9.49450549,0 L9.49450549,4.91369247 L9.49450549,6 C9.49450549,7.1045695 10.389936,8 11.4945055,8 L19.195248,8 L19.195248,8" id="Path-3" transform="translate(14.3449, 4) rotate(180) translate(-14.3449, -4)"></path>
                <path d="M0.0997440877,-0.0997440877 L0.0997440877,7.80048659 C0.0997440877,8.90505609 0.995174588,9.80048659 2.09974409,9.80048659 L9.80048659,9.80048659 L9.80048659,9.80048659" id="Path-3" transform="translate(4.9501, 4.8504) rotate(90) translate(-4.9501, -4.8504)"></path>
            </g>
            <g id="Group-10" opacity="0.550000012" transform="translate(2, 2)" stroke="currentColor" stroke-width="1.5">
                <line x1="7.5" y1="14.5" x2="7.5" y2="0.5" id="Line-2"></line>
                <line x1="7" y1="14" x2="7" y2="1" id="Line-2" transform="translate(7, 7.5) rotate(90) translate(-7, -7.5)"></line>
            </g>
            <g id="gear" transform="translate(21.0876, 17.2796) rotate(-20) translate(-21.0876, -17.2796)translate(15.9634, 11.5127)" stroke="#348CFD" stroke-linejoin="round" stroke-width="1.25">
                <circle id="Oval" cx="5.12378058" cy="5.76719178" r="1.28158482"></circle>
                <path d="M6.21361819,0.80762797 L6.59086967,2.04907966 C6.72061095,2.47639719 7.15892721,2.73042581 7.59419808,2.63056421 L8.85259487,2.33893009 C9.34216301,2.22858155 9.84650092,2.45011894 10.0964357,2.88530436 C10.3463705,3.32048979 10.2835655,3.86774756 9.94154064,4.23499782 L9.06128718,5.18481538 C8.75980718,5.51248709 8.75980718,6.0165454 9.06128718,6.3442171 L9.94154064,7.29403466 C10.2835655,7.66128493 10.3463705,8.2085427 10.0964357,8.64372812 C9.84650092,9.07891354 9.34216301,9.30045094 8.85259487,9.1901024 L7.59419808,8.89846827 C7.15663131,8.79632613 6.71524652,9.05279063 6.58730228,9.48352022 L6.2100508,10.7249719 C6.0649735,11.2053044 5.62242271,11.5339347 5.12065911,11.5339347 C4.61889551,11.5339347 4.17634472,11.2053044 4.03126742,10.7249719 L3.65669148,9.48352022 C3.52807698,9.05567912 3.08963152,8.80095947 2.65425492,8.90114382 L1.39585813,9.19277794 C0.90628999,9.30312648 0.401952083,9.08158909 0.152017275,8.64640366 C-0.0979175321,8.21121824 -0.035112502,7.66396047 0.306912358,7.29671021 L1.18716582,6.34689264 C1.48864582,6.01922094 1.48864582,5.51516263 1.18716582,5.18749093 L0.306912358,4.23767336 C-0.035112502,3.8704231 -0.0979175321,3.32316533 0.152017275,2.88797991 C0.401952083,2.45279448 0.90628999,2.23125709 1.39585813,2.34160563 L2.65425492,2.63323975 C3.08937078,2.73350334 3.52770594,2.47923776 3.65669148,2.0517552 L4.03483481,0.810303513 C4.17932126,0.32979188 4.62146882,0.000617032116 5.12323309,0 C5.62499736,-0.000615299293 6.06795204,0.327472644 6.21361819,0.80762797 Z" id="Path"></path>
            </g>
        </g>
    </g>
</svg>