<?xml version="1.0" encoding="UTF-8"?>
<svg width="197px" height="38px" viewBox="0 0 197 38" version="1.1" xmlns="http://www.w3.org/2000/svg" xmlns:xlink="http://www.w3.org/1999/xlink">
    <title>ohif-logo</title>
    <g id="ohif-logo" stroke="none" stroke-width="1" fill="none" fill-rule="evenodd">
        <g id="OHIF-logo" transform="translate(1.000000, 1.000000)">
            <path d="M51.0909033,13.1590908 C54.0681732,13.1590908 56.227262,10.8636384 56.227262,7.18182373 C56.227262,3.50000906 54.0681732,1.2045567 51.0909033,1.2045567 C48.1136334,1.2045567 45.9545445,3.50000906 45.9545445,7.18182373 C45.9545445,10.8636384 48.1136334,13.1590908 51.0909033,13.1590908 Z M51.0909033,11.8409102 C48.9772689,11.8409102 47.3181796,10.2045481 47.3181796,7.18182373 C47.3181796,4.15909934 48.9772689,2.52273726 51.0909033,2.52273726 C53.2045376,2.52273726 54.863627,4.15909934 54.863627,7.18182373 C54.863627,10.2045481 53.2045376,11.8409102 51.0909033,11.8409102 Z M59.7499976,16.2727242 L59.7499976,11.6590993 L59.8636338,11.6590993 C60.1590881,12.1363645 60.7272693,13.181818 62.4090897,13.181818 C64.590902,13.181818 66.1136278,11.4318197 66.1136278,8.65909934 C66.1136278,5.90909767 64.590902,4.15909934 62.3863587,4.15909934 C60.6818148,4.15909934 60.1590881,5.20455289 59.8636338,5.65909934 L59.704543,5.65909934 L59.704543,4.2727356 L58.4090897,4.2727356 L58.4090897,16.2727242 L59.7499976,16.2727242 Z M62.2272703,11.9772737 C60.6136331,11.9772737 59.7272703,10.6136386 59.7272703,8.6363678 C59.7272703,6.68182421 60.5909058,5.36364365 62.2272703,5.36364365 C63.9318117,5.36364365 64.77272,6.79546046 64.77272,8.6363678 C64.77272,10.5000024 63.9090845,11.9772737 62.2272703,11.9772737 Z M71.8181772,13.181818 C73.5909027,13.181818 74.8863561,12.2954552 75.2954466,10.9772747 L73.9999933,10.6136386 C73.6590845,11.5227287 72.8693125,11.9772737 71.8181772,11.9772737 C70.244315,11.9772737 69.1590888,10.9602292 69.0965888,9.09091282 L75.4318101,9.09091282 L75.4318101,8.52273154 C75.4318101,5.27273464 73.4999937,4.15909934 71.6818137,4.15909934 C69.3181795,4.15909934 67.7499992,6.02273393 67.7499992,8.70454955 C67.7499992,11.3863652 69.2954523,13.181818 71.8181772,13.181818 Z M74.068175,7.93182302 L69.0965888,7.93182302 C69.1874978,6.57386976 70.1477242,5.36364365 71.6818137,5.36364365 C73.1363577,5.36364365 74.068175,6.4545517 74.068175,7.93182302 Z M78.8181794,13 L78.8181794,7.75000501 C78.8181794,6.22727919 79.7613603,5.36364365 81.04545,5.36364365 C82.289767,5.36364365 83.0454481,6.17614287 83.0454481,7.54545975 L83.0454481,13 L84.3863559,13 L84.3863559,7.45455074 C84.3863559,5.22728014 83.198857,4.15909934 81.4318132,4.15909934 C80.1136327,4.15909934 79.2954516,4.75000787 78.8863611,5.63637066 L78.7727249,5.63637066 L78.7727249,4.2727356 L77.4772716,4.2727356 L77.4772716,13 L78.8181794,13 Z M92.9318155,13 L92.9318155,7.79545951 L99.136355,7.79545951 L99.136355,13 L100.545445,13 L100.545445,1.36364746 L99.136355,1.36364746 L99.136355,6.5454607 L92.9318155,6.5454607 L92.9318155,1.36364746 L91.5227259,1.36364746 L91.5227259,13 L92.9318155,13 Z M106.840904,13.181818 C108.61363,13.181818 109.909083,12.2954552 110.318174,10.9772747 L109.022721,10.6136386 C108.681812,11.5227287 107.89204,11.9772737 106.840904,11.9772737 C105.267042,11.9772737 104.181816,10.9602292 104.119316,9.09091282 L110.454537,9.09091282 L110.454537,8.52273154 C110.454537,5.27273464 108.522721,4.15909934 106.704541,4.15909934 C104.340907,4.15909934 102.772726,6.02273393 102.772726,8.70454955 C102.772726,11.3863652 104.31818,13.181818 106.840904,13.181818 Z M109.090902,7.93182302 L104.119316,7.93182302 C104.210225,6.57386976 105.170451,5.36364365 106.704541,5.36364365 C108.159085,5.36364365 109.090902,6.4545517 109.090902,7.93182302 Z M115.068178,13.2045453 C116.590908,13.2045453 117.386358,12.3863642 117.659085,11.8181829 L117.727267,11.8181829 L117.727267,13 L119.068174,13 L119.068174,7.25000548 C119.068174,4.47728086 116.95454,4.15909934 115.840905,4.15909934 C114.522724,4.15909934 113.022726,4.61364436 112.340908,6.20455194 L113.613634,6.65909934 C113.909088,6.02273393 114.607951,5.3409164 115.886359,5.3409164 C117.119313,5.3409164 117.727267,5.99432486 117.727267,7.11364198 L117.727267,7.15909934 C117.727267,7.80682313 117.068176,7.75000501 115.477269,7.95455027 C113.857952,8.16477734 112.090908,8.52273154 112.090908,10.5227296 C112.090908,12.2272735 113.409089,13.2045453 115.068178,13.2045453 Z M115.272723,12.000001 C114.204543,12.000001 113.431816,11.5227287 113.431816,10.5909114 C113.431816,9.56818509 114.363633,9.25000358 115.409087,9.11364055 C115.977268,9.04545832 117.499994,8.88636756 117.727267,8.61364055 L117.727267,9.8409121 C117.727267,10.9318202 116.863631,12.000001 115.272723,12.000001 Z M122.863634,13 L122.863634,1.36364746 L121.522726,1.36364746 L121.522726,13 L122.863634,13 Z M128.272723,13.1136363 C128.772723,13.1136363 129.090909,13.0227273 129.272722,12.9545455 L128.999995,11.7500012 C128.886359,11.7727284 128.704541,11.8181829 128.409087,11.8181829 C127.818178,11.8181829 127.249997,11.6363649 127.249997,10.5000024 L127.249997,5.40909815 L129.113632,5.40909815 L129.113632,4.2727356 L127.249997,4.2727356 L127.249997,2.1818285 L125.909089,2.1818285 L125.909089,4.2727356 L124.590909,4.2727356 L124.590909,5.40909815 L125.909089,5.40909815 L125.909089,10.8636384 C125.909089,12.3863642 127.136361,13.1136363 128.272723,13.1136363 Z M132.47727,13 L132.47727,7.75000501 C132.47727,6.22727919 133.44886,5.36364746 134.772723,5.36364746 C136.034085,5.36364746 136.795448,6.15909743 136.795448,7.54545975 L136.795448,13 L138.136362,13 L138.136362,7.45455074 C138.136362,5.2102347 136.943175,4.15909934 135.159086,4.15909934 C133.784087,4.15909934 132.999997,4.73296243 132.590907,5.63637066 L132.47727,5.63637066 L132.47727,1.36364746 L131.136362,1.36364746 L131.136362,13 L132.47727,13 Z M47.8181791,33 L47.8181791,21.3636475 L46.4090896,21.3636475 L46.4090896,33 L47.8181791,33 Z M51.7954521,33 L51.7954521,27.5454597 C51.7954521,26.2670519 52.7272694,25.3636436 53.7727229,25.3636436 C54.7897674,25.3636436 55.499994,26.0284157 55.499994,27.022733 L55.499994,33 L56.8636291,33 L56.8636291,27.3181872 C56.8636291,26.1931883 57.5681739,25.3636436 58.7954454,25.3636436 C59.74999,25.3636436 60.568171,25.869325 60.568171,27.1590993 L60.568171,33 L61.9090788,33 L61.9090788,27.1590993 C61.9090788,25.1079621 60.8068071,24.1590993 59.2499904,24.1590993 C57.9999916,24.1590993 57.0852198,24.7329624 56.6363566,25.6363707 L56.5454476,25.6363707 C56.1136298,24.7045534 55.3522669,24.1590993 54.2045407,24.1590993 C53.0681782,24.1590993 52.2272699,24.7045534 51.8636338,25.6363707 L51.7499976,25.6363707 L51.7499976,24.2727356 L50.4545443,24.2727356 L50.4545443,33 L51.7954521,33 Z M66.9318146,33.2045453 C68.4545447,33.2045453 69.2499942,32.3863642 69.5227212,31.8181829 L69.5909029,31.8181829 L69.5909029,33 L70.9318107,33 L70.9318107,27.2500055 C70.9318107,24.4772809 68.8181764,24.1590993 67.7045411,24.1590993 C66.3863605,24.1590993 64.886362,24.6136444 64.2045444,26.2045519 L65.4772705,26.6590993 C65.7727248,26.0227339 66.4715877,25.3409164 67.7499956,25.3409164 C68.982949,25.3409164 69.5909029,25.9943249 69.5909029,27.113642 L69.5909029,27.1590993 C69.5909029,27.8068231 68.9318127,27.750005 67.3409051,27.9545503 C65.7215884,28.1647773 63.9545447,28.5227315 63.9545447,30.5227296 C63.9545447,32.2272735 65.2727252,33.2045453 66.9318146,33.2045453 Z M67.1363598,32.000001 C66.068179,32.000001 65.2954525,31.5227287 65.2954525,30.5909114 C65.2954525,29.5681851 66.2272698,29.2500036 67.2727233,29.1136405 C67.8409046,29.0454583 69.3636304,28.8863676 69.5909029,28.6136405 L69.5909029,29.8409121 C69.5909029,30.9318202 68.7272674,32.000001 67.1363598,32.000001 Z M76.9090864,36.4545422 C78.9999935,36.4545422 80.6818101,35.4999976 80.6818101,33.2499998 L80.6818101,24.2727356 L79.3863567,24.2727356 L79.3863567,25.6590993 L79.2499932,25.6590993 C78.954539,25.2045529 78.4090849,24.1590993 76.7045411,24.1590993 C74.4999978,24.1590993 72.9772719,25.9090977 72.9772719,28.5909133 C72.9772719,31.3181834 74.5681795,32.8636365 76.6818139,32.8636365 C78.3863577,32.8636365 78.9318117,31.8636374 79.227266,31.3863652 L79.3409022,31.3863652 L79.3409022,33.1590993 C79.3409022,34.6136348 78.3181759,35.2727251 76.9090864,35.2727251 C75.3238606,35.2727251 74.767043,34.4374986 74.4090888,33.9545445 L73.340908,34.7045438 C73.886362,35.6193157 74.9602246,36.4545422 76.9090864,36.4545422 Z M76.8636319,31.6590922 C75.1818153,31.6590922 74.3181798,30.3863661 74.3181798,28.568186 C74.3181798,26.7954605 75.159088,25.3636436 76.8636319,25.3636436 C78.499994,25.3636436 79.3636295,26.6818242 79.3636295,28.568186 C79.3636295,30.5000024 78.4772667,31.6590922 76.8636319,31.6590922 Z M83.81818,22.8181915 C84.3409068,22.8181915 84.7727245,22.409101 84.7727245,21.9091015 C84.7727245,21.409102 84.3409068,21.0000114 83.81818,21.0000114 C83.2954532,21.0000114 82.8636355,21.409102 82.8636355,21.9091015 C82.8636355,22.409101 83.2954532,22.8181915 83.81818,22.8181915 Z M84.4772703,33 L84.4772703,24.2727356 L83.1363625,24.2727356 L83.1363625,33 L84.4772703,33 Z M88.2727248,33 L88.2727248,27.750005 C88.2727248,26.2272792 89.2159057,25.3636436 90.4999954,25.3636436 C91.7443124,25.3636436 92.4999935,26.1761429 92.4999935,27.5454597 L92.4999935,33 L93.8409013,33 L93.8409013,27.4545507 C93.8409013,25.2272801 92.6534025,24.1590993 90.8863587,24.1590993 C89.5681781,24.1590993 88.7499971,24.7500079 88.3409066,25.6363707 L88.2272703,25.6363707 L88.2272703,24.2727356 L86.931817,24.2727356 L86.931817,33 L88.2727248,33 Z M99.8181773,36.4545422 C101.909084,36.4545422 103.590901,35.4999976 103.590901,33.2499998 L103.590901,24.2727356 L102.295448,24.2727356 L102.295448,25.6590993 L102.159084,25.6590993 C101.86363,25.2045529 101.318176,24.1590993 99.613632,24.1590993 C97.4090887,24.1590993 95.8863629,25.9090977 95.8863629,28.5909133 C95.8863629,31.3181834 97.4772704,32.8636365 99.5909048,32.8636365 C101.295449,32.8636365 101.840903,31.8636374 102.136357,31.3863652 L102.249993,31.3863652 L102.249993,33.1590993 C102.249993,34.6136348 101.227267,35.2727251 99.8181773,35.2727251 C98.2329515,35.2727251 97.6761339,34.4374986 97.3181797,33.9545445 L96.2499989,34.7045438 C96.7954529,35.6193157 97.8693155,36.4545422 99.8181773,36.4545422 Z M99.7727228,31.6590922 C98.0909062,31.6590922 97.2272707,30.3863661 97.2272707,28.568186 C97.2272707,26.7954605 98.068179,25.3636436 99.7727228,25.3636436 C101.409085,25.3636436 102.27272,26.6818242 102.27272,28.568186 C102.27272,30.5000024 101.386358,31.6590922 99.7727228,31.6590922 Z M112.136361,33 L112.136361,27.7954595 L117.181811,27.7954595 L117.181811,26.5454607 L112.136361,26.5454607 L112.136361,22.6136463 L117.704537,22.6136463 L117.704537,21.3636475 L110.727271,21.3636475 L110.727271,33 L112.136361,33 Z M123.477268,33.181818 C125.840902,33.181818 127.43181,31.3863652 127.43181,28.6818223 C127.43181,25.9545522 125.840902,24.1590993 123.477268,24.1590993 C121.113634,24.1590993 119.522726,25.9545522 119.522726,28.6818223 C119.522726,31.3863652 121.113634,33.181818 123.477268,33.181818 Z M123.477268,31.9772737 C121.681815,31.9772737 120.863634,30.4318206 120.863634,28.6818223 C120.863634,26.931824 121.681815,25.3636436 123.477268,25.3636436 C125.272721,25.3636436 126.090902,26.931824 126.090902,28.6818223 C126.090902,30.4318206 125.272721,31.9772737 123.477268,31.9772737 Z M132.295451,33.1136363 C133.613631,33.1136363 134.477272,32.4090915 134.886357,31.5227287 L134.977272,31.5227287 L134.977272,33 L136.318174,33 L136.318174,24.2727356 L134.977272,24.2727356 L134.977272,29.4318216 C134.977272,31.0681837 133.727268,31.8181829 132.727268,31.8181829 C131.613633,31.8181829 130.818179,31.0000019 130.818179,29.7272758 L130.818179,24.2727356 L129.477272,24.2727356 L129.477272,29.8181849 C129.477272,32.0454555 130.659089,33.1136363 132.295451,33.1136363 Z M140.113634,33 L140.113634,27.750005 C140.113634,26.2272792 141.056815,25.3636436 142.340905,25.3636436 C143.585222,25.3636436 144.340903,26.1761429 144.340903,27.5454597 L144.340903,33 L145.68181,33 L145.68181,27.4545507 C145.68181,25.2272801 144.494312,24.1590993 142.727268,24.1590993 C141.409087,24.1590993 140.590906,24.7500079 140.181816,25.6363707 L140.068179,25.6363707 L140.068179,24.2727356 L138.772726,24.2727356 L138.772726,33 L140.113634,33 Z M151.431814,33.181818 C153.11363,33.181818 153.681812,32.1363645 153.977266,31.6590922 L154.136357,31.6590922 L154.136357,33 L155.43181,33 L155.43181,21.3636475 L154.090902,21.3636475 L154.090902,25.6590979 L153.977266,25.6590979 C153.681812,25.2045529 153.159085,24.1590993 151.454541,24.1590993 C149.249998,24.1590993 147.727272,25.9090977 147.727272,28.659095 C147.727272,31.4318197 149.249998,33.181818 151.431814,33.181818 Z M151.613632,31.9772737 C149.931815,31.9772737 149.06818,30.5000024 149.06818,28.6363678 C149.06818,26.7954605 149.909088,25.3636436 151.613632,25.3636436 C153.249994,25.3636436 154.113629,26.6818242 154.113629,28.6363678 C154.113629,30.6136386 153.227267,31.9772737 151.613632,31.9772737 Z M160.63636,33.2045453 C162.15909,33.2045453 162.95454,32.3863642 163.227267,31.8181829 L163.295448,31.8181829 L163.295448,33 L164.636356,33 L164.636356,27.2500055 C164.636356,24.4772809 162.522722,24.1590993 161.409087,24.1590993 C160.090906,24.1590993 158.590907,24.6136444 157.90909,26.2045519 L159.181816,26.6590993 C159.47727,26.0227339 160.176133,25.3409164 161.454541,25.3409164 C162.687494,25.3409164 163.295448,25.9943249 163.295448,27.113642 L163.295448,27.1590993 C163.295448,27.8068231 162.636358,27.750005 161.045451,27.9545503 C159.426134,28.1647773 157.65909,28.5227315 157.65909,30.5227296 C157.65909,32.2272735 158.977271,33.2045453 160.63636,33.2045453 Z M160.840905,32.000001 C159.772724,32.000001 158.999998,31.5227287 158.999998,30.5909114 C158.999998,29.5681851 159.931815,29.2500036 160.977269,29.1136405 C161.54545,29.0454583 163.068176,28.8863676 163.295448,28.6136405 L163.295448,29.8409121 C163.295448,30.9318202 162.431813,32.000001 160.840905,32.000001 Z M170.045451,33.1136363 C170.54545,33.1136363 170.863636,33.0227273 171.04545,32.9545455 L170.772723,31.7500012 C170.659086,31.7727284 170.477268,31.8181829 170.181814,31.8181829 C169.590906,31.8181829 169.022724,31.6363649 169.022724,30.5000024 L169.022724,25.4090981 L170.886359,25.4090981 L170.886359,24.2727356 L169.022724,24.2727356 L169.022724,22.1818285 L167.681816,22.1818285 L167.681816,24.2727356 L166.363636,24.2727356 L166.363636,25.4090981 L167.681816,25.4090981 L167.681816,30.8636384 C167.681816,32.3863642 168.909088,33.1136363 170.045451,33.1136363 Z M173.590907,22.8181915 C174.113634,22.8181915 174.545452,22.409101 174.545452,21.9091015 C174.545452,21.409102 174.113634,21.0000114 173.590907,21.0000114 C173.06818,21.0000114 172.636363,21.409102 172.636363,21.9091015 C172.636363,22.409101 173.06818,22.8181915 173.590907,22.8181915 Z M174.249998,33 L174.249998,24.2727356 L172.90909,24.2727356 L172.90909,33 L174.249998,33 Z M180.249995,33.181818 C182.61363,33.181818 184.204537,31.3863652 184.204537,28.6818223 C184.204537,25.9545522 182.61363,24.1590993 180.249995,24.1590993 C177.886361,24.1590993 176.295454,25.9545522 176.295454,28.6818223 C176.295454,31.3863652 177.886361,33.181818 180.249995,33.181818 Z M180.249995,31.9772737 C178.454543,31.9772737 177.636362,30.4318206 177.636362,28.6818223 C177.636362,26.931824 178.454543,25.3636436 180.249995,25.3636436 C182.045448,25.3636436 182.863629,26.931824 182.863629,28.6818223 C182.863629,30.4318206 182.045448,31.9772737 180.249995,31.9772737 Z M187.590907,33 L187.590907,27.750005 C187.590907,26.2272792 188.534088,25.3636436 189.818177,25.3636436 C191.062494,25.3636436 191.818175,26.1761429 191.818175,27.5454597 L191.818175,33 L193.159083,33 L193.159083,27.4545507 C193.159083,25.2272801 191.971584,24.1590993 190.204541,24.1590993 C188.88636,24.1590993 188.068179,24.7500079 187.659088,25.6363707 L187.545452,25.6363707 L187.545452,24.2727356 L186.249999,24.2727356 L186.249999,33 L187.590907,33 Z" id="OpenHealthImagingFoundation" fill="#FFFFFF" fill-rule="nonzero"></path>
            <g id="Group-5" fill="#000000" stroke="#5ACCE6" stroke-width="1.5">
                <rect id="Rectangle" x="20" y="0" width="14" height="14" rx="3"></rect>
                <rect id="Rectangle" x="0" y="0" width="14" height="14" rx="3"></rect>
                <rect id="Rectangle" x="20" y="20" width="14" height="14" rx="3"></rect>
                <rect id="Rectangle" x="0" y="20" width="14" height="14" rx="3"></rect>
            </g>
        </g>
    </g>
</svg>