<?xml version="1.0" encoding="UTF-8" standalone="no"?>
<!DOCTYPE svg PUBLIC "-//W3C//DTD SVG 1.1//EN" "http://www.w3.org/Graphics/SVG/1.1/DTD/svg11.dtd">
<svg width="100%" height="100%" viewBox="0 0 820 335" version="1.1" xmlns="http://www.w3.org/2000/svg" xmlns:xlink="http://www.w3.org/1999/xlink" xml:space="preserve" xmlns:serif="http://www.serif.com/" style="fill-rule:evenodd;clip-rule:evenodd;stroke-linejoin:round;stroke-miterlimit:2;">
    <g transform="matrix(1,0,0,1,-206,-48)">
        <g id="Logo-博志生物科技_垂直" serif:id="Logo+博志生物科技_垂直" transform="matrix(1,0,0,1,0,-58.9902)">
            <g transform="matrix(0.789593,0,0,0.671969,-14251,-4096.52)">
                <g transform="matrix(0.654299,0,0,0.76883,10143,5347.12)">
                    <circle cx="13813.4" cy="1229.29" r="46.535" style="fill:rgb(217,48,52);"/>
                </g>
                <g transform="matrix(1,0,0,1,163.615,-152.96)">
                    <g>
                        <g transform="matrix(1,0,0,1,1372.68,2409.35)">
                            <g transform="matrix(0.691241,0,0,0.812238,8019.77,3039.39)">
                                <path d="M13904.5,1455.64L13893.6,1527.1L14013.3,1527.1C14013.3,1527.1 14051.7,1526.28 14071.9,1520.16C14093.3,1513.69 14123.5,1492.87 14128.5,1466.25C14134.5,1434.18 14121.5,1413.93 14107.4,1397.01C14093,1379.82 14062,1358.9 14053.8,1349.14C14046.9,1341.05 14047.2,1332.14 14064.3,1330.82C14074.3,1330.04 14120.9,1330.98 14120.9,1330.98C14120.9,1330.98 14133.7,1330.96 14143,1325.96C14151.2,1321.54 14153.9,1312.84 14156.5,1304.96C14160.3,1293.05 14165.5,1254.1 14165.5,1254.1L14064.9,1253.44C14064.9,1253.44 14014,1250.36 13978.5,1278.12C13954.3,1297.08 13954.5,1332.37 13963.9,1352.83C13978.5,1384.52 14016.1,1412.32 14026,1424.5C14033.6,1433.84 14039.8,1446.86 14026.2,1451.9C14016.3,1455.58 14003.6,1455.64 14003.6,1455.64L13904.5,1455.64ZM12949,1503.64C12973.3,1485.45 12992.6,1456.85 12997.2,1421.97C13000.7,1395.78 12986.1,1375.26 12974.6,1365.32C12964.6,1356.62 12952.2,1351.21 12952.2,1351.21C12952.2,1351.21 12978.9,1339.56 12991,1310.9C12999,1291.97 13002.9,1267.76 12998.6,1246.77C12995.4,1231.69 12987.9,1210.78 12964,1197.31C12949.2,1188.94 12923.3,1182.63 12905,1182.76C12879.3,1182.93 12802.2,1182.86 12757.9,1182.81C12739.2,1182.79 12723.2,1196.21 12719.9,1214.63C12704.8,1299.94 12664.6,1527.1 12664.6,1527.1C12664.6,1527.1 12871.4,1527.06 12888.4,1527.1C12909.9,1527.14 12933.9,1514.93 12949,1503.64ZM13387.9,1257.58C13368.8,1257.55 13352.3,1271.22 13348.9,1290.07C13335.8,1361.41 13305.7,1525.28 13305.7,1525.28L13396.8,1525.27C13396.8,1525.27 13419.5,1400.31 13420.7,1394.14C13425.2,1370.38 13435.8,1353.16 13456.2,1340.22C13472.4,1330.02 13502.5,1331.29 13514.1,1346.47C13528.3,1365.11 13518.8,1388.79 13517.5,1402.51C13517.3,1404.92 13495.6,1525.27 13495.6,1525.27L13585.2,1525.27C13585.2,1525.27 13603.8,1420.84 13613.5,1366.23C13618.7,1337.01 13610.3,1307.01 13590.8,1284.68C13590.8,1284.68 13590.8,1284.68 13590.8,1284.68C13580,1272.41 13554,1256.5 13523.8,1256.76C13467.2,1257.23 13439.3,1281.93 13439.3,1281.93L13443.6,1257.67C13443.6,1257.67 13413.2,1257.62 13387.9,1257.58ZM13693.7,1272.84L13693.8,1272.83C13693.8,1272.83 13671.7,1284.56 13655.2,1308.14C13645.6,1321.87 13640,1340.06 13637.6,1349.02C13636.9,1351.81 13636.3,1354.63 13635.8,1357.47C13634.1,1367.59 13628.7,1400.74 13626.7,1412.9C13625.7,1418.89 13625.4,1424.98 13625.9,1431.04C13627.1,1447.3 13633.2,1475.13 13659,1497.7C13694.2,1528.43 13738.9,1527.1 13738.9,1527.1L13873.3,1527.1L13884.1,1455.64L13755.7,1455.64C13755.7,1455.64 13739.8,1455.83 13730.6,1451.98C13718.2,1446.83 13711.1,1438.11 13707.2,1423.86C13705.1,1416.25 13707.5,1409.84 13707.5,1409.84L13890.2,1410.11C13890.2,1410.11 13899.4,1362.27 13899.4,1332.4C13899.4,1316.69 13890.4,1297.99 13874.6,1283.26C13859.1,1268.77 13827,1254.63 13788.7,1253.67C13758.1,1252.91 13726.3,1255.66 13693.7,1272.84ZM12786.6,1378.69C12782.6,1378.69 12779.2,1381.57 12778.4,1385.53C12774.9,1404.99 12765.9,1459.31 12765.9,1459.31C12765.9,1459.31 12846.6,1459.95 12860.4,1458.4C12887.3,1455.41 12904.7,1444.34 12908.7,1425.34C12915.6,1391.94 12892.9,1379.53 12874.1,1378.69C12870.2,1378.52 12865.2,1378.69 12865.2,1378.69L12786.6,1378.69ZM13716.6,1351.78L13819.6,1352.39C13819.6,1352.39 13827.8,1330.96 13812.9,1321.51C13792.5,1308.58 13759.1,1310.37 13741.1,1321.51C13721.5,1333.62 13716.6,1351.78 13716.6,1351.78ZM12809.6,1246.77C12806,1246.77 12803,1249.36 12802.4,1252.87C12799.7,1269.46 12791.5,1314.21 12791.5,1314.21C12791.2,1314.21 12867.8,1315.25 12875.5,1314.21C12891.7,1312.01 12908.2,1302.03 12911.2,1277.75C12913.5,1258.96 12896.2,1246.77 12884.6,1246.77L12809.6,1246.77Z" style="fill:rgb(0,102,218);"/>
                            </g>
                        </g>
                        <g transform="matrix(1.26648,0,0,1.48816,-3874.73,-2307.08)">
                            <path d="M17674,5895.6C17689.1,5895.6 17702.5,5899.57 17713.3,5906.47C17733.7,5919.59 17744.6,5943.32 17739.5,5970.38C17731.8,6011.65 17689.9,6045.16 17646.1,6045.16C17602.2,6045.16 17572.9,6011.65 17580.6,5970.38C17588.3,5929.11 17630.2,5895.6 17674,5895.6ZM17681.7,5937.55C17698.6,5944.53 17702.7,5964.56 17691,5982.27C17679.2,5999.98 17656,6008.69 17639.2,6001.71C17622.3,5994.74 17618.1,5974.7 17629.9,5956.99C17641.6,5939.29 17664.8,5930.58 17681.7,5937.55Z" style="fill:rgb(0,102,218);"/>
                        </g>
                    </g>
                </g>
            </g>
            <g transform="matrix(2.71658,0,-0.381791,2.71658,-3980.24,-1751.34)">
                <path d="M1690.08,775.73L1690.08,776.93L1686.33,776.93L1686.33,775.73L1690.08,775.73ZM1686.33,782.38L1686.33,781.08L1690.08,781.08L1690.08,782.38L1686.33,782.38ZM1675.93,782.38L1675.93,781.08L1679.83,781.08L1679.83,782.38L1675.93,782.38ZM1679.83,775.73L1679.83,776.93L1675.93,776.93L1675.93,775.73L1679.83,775.73ZM1679.83,771.08L1669.78,771.08L1669.78,789.23L1675.93,789.23L1675.93,786.53L1679.83,786.53L1679.83,788.28L1686.33,788.28L1686.33,786.53L1690.08,786.53L1690.08,788.38L1696.53,788.38L1696.53,771.08L1686.33,771.08L1686.33,769.53L1696.59,769.53C1697.64,769.53 1698.43,768.751 1698.43,767.703C1698.43,766.12 1698.43,764.08 1698.43,764.08L1695.08,764.08L1696.63,761.53C1695.08,760.83 1692.13,759.73 1690.13,759.13L1687.53,763.08C1688.28,763.38 1689.13,763.73 1689.98,764.08L1686.33,764.08L1686.33,759.68L1679.83,759.68L1679.83,764.08L1667.78,764.08L1667.78,769.53L1679.83,769.53L1679.83,771.08ZM1666.54,778.43C1667.54,778.43 1668.28,777.694 1668.28,776.704C1668.28,774.764 1668.28,771.88 1668.28,771.88L1663.73,771.88L1663.73,759.68L1656.63,759.68L1656.63,771.88L1651.58,771.88L1651.58,778.43L1656.63,778.43L1656.63,807.18L1663.73,807.18L1663.73,778.43L1666.54,778.43ZM1698.68,790.63L1693.18,790.63L1693.18,789.08L1686.43,789.08L1686.43,790.63L1666.48,790.63L1666.48,796.43L1672.98,796.43L1670.73,799.03C1673.13,800.58 1676.58,802.83 1678.23,804.18L1682.18,799.28C1681.08,798.53 1679.28,797.43 1677.53,796.43L1686.43,796.43L1686.43,800.63C1686.43,801.18 1686.23,801.33 1685.58,801.33C1684.98,801.38 1682.68,801.33 1680.98,801.28C1681.78,802.88 1682.58,805.23 1682.83,807.03C1686.13,807.03 1688.63,806.98 1690.63,806.13C1692.68,805.23 1693.18,803.73 1693.18,800.83L1693.18,796.43L1696.92,796.43C1697.93,796.43 1698.68,795.687 1698.68,794.689C1698.68,792.981 1698.68,790.63 1698.68,790.63Z" style="fill:rgb(0,102,218);fill-rule:nonzero;"/>
                <path d="M1721.43,777.18L1706.13,777.18L1706.13,784.03L1722.18,784.03L1718.58,787.23C1722.53,789.58 1727.28,793.23 1729.38,795.83L1734.68,791.03C1732.73,788.78 1728.93,786.08 1725.48,784.03L1742.9,784.03C1744.03,784.03 1744.88,783.192 1744.88,782.065C1744.88,780.041 1744.88,777.18 1744.88,777.18L1729.08,777.18L1729.08,772.18L1746.02,772.18C1747.12,772.18 1747.93,771.372 1747.93,770.287L1747.93,765.33L1729.08,765.33L1729.08,759.68L1721.43,759.68L1721.43,765.33L1702.88,765.33L1702.88,772.18L1721.43,772.18L1721.43,777.18ZM1708.48,804.23C1710.28,800.88 1711.58,795.88 1712.48,791.73L1705.93,789.43C1705.13,793.48 1703.63,797.83 1701.93,800.78L1708.48,804.23ZM1748.73,801.63C1747.48,798.33 1744.68,792.98 1742.73,789.03L1736.18,791.43C1737.03,793.18 1737.93,795.23 1738.83,797.23C1736.98,796.73 1734.68,795.83 1733.43,794.93C1733.13,799.33 1732.73,800.03 1730.53,800.03L1723.38,800.03C1720.68,800.03 1720.23,799.83 1720.23,798.13L1720.23,789.18L1713.03,789.18L1713.03,798.23C1713.03,804.43 1714.93,806.43 1722.58,806.43L1731.08,806.43C1736.58,806.43 1738.68,804.88 1739.68,799.23C1740.53,801.18 1741.23,803.03 1741.68,804.48L1748.73,801.63Z" style="fill:rgb(0,102,218);fill-rule:nonzero;"/>
                <path d="M1779.23,798.73L1779.23,790.13L1791.54,790.13C1792.71,790.13 1793.58,789.266 1793.58,788.104C1793.58,786.037 1793.58,783.13 1793.58,783.13L1779.23,783.13L1779.23,775.48L1793.77,775.48C1794.81,775.48 1795.58,774.716 1795.58,773.689L1795.58,768.38L1779.23,768.38L1779.23,759.68L1771.63,759.68L1771.63,768.38L1765.23,768.38C1766.08,766.23 1766.83,764.08 1767.43,761.88L1759.88,760.18C1758.18,766.93 1754.98,773.78 1751.13,777.88C1752.98,778.88 1756.23,781.03 1757.68,782.28C1759.18,780.43 1760.63,778.08 1762.03,775.48L1771.63,775.48L1771.63,783.13L1758.68,783.13L1758.68,790.13L1771.63,790.13L1771.63,798.73L1752.73,798.73L1752.73,805.83L1796.38,805.83C1797.44,805.83 1798.23,805.047 1798.23,803.995C1798.23,801.892 1798.23,798.73 1798.23,798.73L1779.23,798.73Z" style="fill:rgb(0,102,218);fill-rule:nonzero;"/>
                <path d="M1818.36,775.93C1819.45,775.93 1820.27,775.143 1820.3,774.069C1820.35,772.026 1820.43,769.03 1820.43,769.03L1816.83,769.03L1816.83,759.68L1810.18,759.68L1810.18,769.03L1808.78,769.03C1809.03,767.18 1809.23,765.33 1809.38,763.53L1803.38,762.53C1803.03,768.33 1802.28,774.53 1800.83,778.43C1802.23,779.18 1804.78,780.83 1805.88,781.73C1806.53,780.08 1807.08,778.13 1807.58,775.93L1810.18,775.93L1810.18,784.58C1806.88,785.43 1803.88,786.18 1801.43,786.68L1803.13,793.63C1805.28,793.03 1807.68,792.33 1810.18,791.58L1810.18,807.18L1816.83,807.18L1816.83,789.63C1818.48,789.13 1820.13,788.63 1821.73,788.13L1820.78,781.73L1816.83,782.78L1816.83,775.93L1818.36,775.93Z" style="fill:rgb(0,102,218);fill-rule:nonzero;"/>
                <path d="M1819.58,775.93C1818.98,776.83 1818.33,777.68 1817.68,778.43C1819.18,779.33 1821.98,781.38 1823.13,782.48C1824.98,780.13 1826.68,777.18 1828.13,773.83L1829.63,773.83C1827.43,780.73 1823.78,787.58 1819.03,791.33C1820.93,792.33 1823.23,794.03 1824.58,795.38C1829.48,790.63 1833.48,781.83 1835.58,773.83L1836.93,773.83C1834.43,785.13 1829.63,795.98 1821.73,801.63C1823.73,802.63 1826.23,804.43 1827.58,805.83C1834.38,800.08 1839.03,789.78 1841.78,779.18C1841.18,792.23 1840.43,797.48 1839.43,798.83C1838.83,799.58 1838.38,799.83 1837.68,799.83C1836.73,799.83 1835.23,799.83 1833.58,799.63C1834.68,801.63 1835.43,804.68 1835.58,806.73C1837.78,806.78 1839.83,806.78 1841.28,806.43C1843.03,806.03 1844.18,805.38 1845.43,803.48C1847.28,800.93 1848.08,792.53 1848.93,770.28C1848.98,769.43 1849.03,767.13 1849.03,767.13L1830.58,767.13C1831.18,765.13 1831.73,763.03 1832.18,760.93L1825.63,759.68C1824.58,765.08 1822.83,770.43 1820.43,774.58" style="fill:rgb(0,102,218);fill-rule:nonzero;"/>
                <path d="M1888.03,769.83C1886.53,767.63 1883.13,764.53 1880.53,762.43L1875.78,766.48C1878.43,768.78 1881.63,772.13 1882.93,774.33L1888.03,769.83ZM1874.03,779.73C1876.73,782.03 1880.08,785.38 1881.53,787.63L1886.53,782.98C1884.93,780.78 1881.38,777.68 1878.68,775.58L1874.03,779.73ZM1874.08,787.13C1873.13,786.08 1869.18,781.78 1867.83,780.63L1867.83,780.48L1872.09,780.48C1873.17,780.48 1873.98,779.682 1873.98,778.61C1873.98,776.613 1873.98,773.73 1873.98,773.73L1867.83,773.73L1867.83,767.73C1870.03,767.23 1872.18,766.63 1874.18,765.93L1870.23,759.98C1865.88,761.73 1859.73,763.28 1853.98,764.13C1854.73,765.68 1855.63,768.13 1855.88,769.73C1857.48,769.58 1859.13,769.33 1860.78,769.08L1860.78,773.73L1853.68,773.73L1853.68,780.48L1859.83,780.48C1858.13,784.83 1855.68,789.58 1853.08,792.63C1854.18,794.48 1855.73,797.53 1856.38,799.63C1857.98,797.53 1859.43,794.78 1860.78,791.73L1860.78,807.18L1867.83,807.18L1867.83,788.68C1868.68,790.18 1869.43,791.68 1869.93,792.83L1874.08,787.13ZM1901.33,793.73L1900.23,786.88L1895.73,787.68L1895.73,759.63L1888.58,759.63L1888.58,788.93L1872.98,791.73L1874.13,798.68L1888.58,796.03L1888.58,807.13L1895.73,807.13L1895.73,794.73L1901.33,793.73Z" style="fill:rgb(0,102,218);fill-rule:nonzero;"/>
                <path d="M1921.28,780.73L1917.13,781.68L1917.13,775.58L1920.03,775.58C1921,775.58 1921.73,774.86 1921.73,773.893C1921.73,771.908 1921.73,768.88 1921.73,768.88L1917.13,768.88L1917.13,759.68L1909.98,759.68L1909.98,768.88L1904.58,768.88L1904.58,775.58L1909.98,775.58L1909.98,783.28C1907.73,783.78 1905.68,784.18 1903.93,784.48L1905.73,791.43L1909.98,790.43L1909.98,799.33C1909.98,800.03 1909.78,800.28 1909.03,800.28C1908.38,800.28 1906.33,800.28 1904.58,800.23C1905.43,802.08 1906.33,804.98 1906.58,806.83C1910.18,806.83 1912.78,806.63 1914.68,805.53C1916.58,804.43 1917.13,802.68 1917.13,799.38L1917.13,788.68C1918.83,788.23 1920.48,787.83 1922.13,787.38L1921.28,780.73ZM1941.38,784.78C1940.03,787.58 1938.28,789.98 1936.08,792.13C1934.03,789.93 1932.38,787.48 1931.08,784.78L1941.38,784.78ZM1950.51,778.164L1944.68,778.23L1939.73,778.23L1939.73,773.08L1948.54,773.08C1949.68,773.08 1950.53,772.238 1950.53,771.107C1950.53,769.146 1950.53,766.43 1950.53,766.43L1939.73,766.43L1939.73,759.68L1932.53,759.68L1932.53,766.43L1922.33,766.43L1922.33,773.08L1932.53,773.08L1932.53,778.23L1923.13,778.23L1923.13,784.78L1926.33,784.78L1923.13,784.78C1924.88,788.93 1927.88,793.23 1930.48,796.28C1927.28,798.18 1923.58,799.58 1919.43,800.48C1920.83,802.03 1922.58,805.13 1923.33,807.03C1928.03,805.68 1932.23,803.83 1935.88,801.43C1939.28,803.93 1943.23,805.88 1947.93,807.23C1948.45,806.276 1949.24,805.029 1950.1,803.847C1950.91,802.736 1951.78,801.682 1952.53,800.98C1948.38,800.03 1944.78,798.53 1941.68,796.63C1945.78,792.33 1949.02,785.283 1950.51,778.164Z" style="fill:rgb(0,102,218);fill-rule:nonzero;"/>
            </g>
        </g>
    </g>
</svg>
